<svg version="1.1" xmlns="http://www.w3.org/2000/svg" xmlns:xlink="http://www.w3.org/1999/xlink" width="564.60168" height="368.23226" viewBox="0,0,564.60168,368.23226"><defs><linearGradient x1="240.40713" y1="-2.71369" x2="240.40713" y2="148.93795" gradientUnits="userSpaceOnUse" id="color-1"><stop offset="0" stop-color="#8852a5"/><stop offset="1" stop-color="#7b5ebd"/></linearGradient><linearGradient x1="240.50004" y1="43.24431" x2="240.50004" y2="363.24432" gradientUnits="userSpaceOnUse" id="color-2"><stop offset="0" stop-color="#7f4c99"/><stop offset="1" stop-color="#4d3b76"/></linearGradient></defs><g transform="translate(66.27246,2.7137)"><g data-paper-data="{&quot;isPaintingLayer&quot;:true}" fill-rule="nonzero" stroke-linejoin="miter" stroke-miterlimit="10" stroke-dasharray="" stroke-dashoffset="0" style="mix-blend-mode: normal"><path d="M-3.58688,148.93795v-151.65165h487.98799v151.65165z" fill="url(#color-1)" stroke="none" stroke-width="0" stroke-linecap="butt"/><path d="M-2.5,363.24432v-320h486v320z" fill="url(#color-2)" stroke="none" stroke-width="0" stroke-linecap="butt"/><path d="M52.0616,365.51857c0,0 0,-61.44156 0,-80.90333c0,-15.49338 -11.56818,-25.78417 -27.06156,-25.78417c-8.73777,0 -25.93844,0 -25.93844,0l0.105,-85.83518c0,0 16.30357,-0.0508 24.83438,-0.07738c15.94625,-0.04969 28.06062,-10.35694 28.06062,-26.30327c0,-21.87631 0,-102.41799 0,-102.41799h133.63364c0,0 0,76.62152 0,98.41799c0,17.23753 12.07287,28.28356 29.31022,28.20618c44.4734,-0.19965 268.68978,-1.20618 268.68978,-1.20618l1.22076,86.74114c0,0 -226.80308,0.52279 -270.91972,0.62448c-16.73642,0.03858 -28.30104,10.89792 -28.30104,27.63438c0,19.88 0,80.90333 0,80.90333z" fill-opacity="0.09804" fill="#000000" stroke="none" stroke-width="0" stroke-linecap="butt"/><path d="M52.0616,365.51857c0,0 0,-61.44156 0,-80.90333c0,-15.49338 -11.56818,-25.78417 -27.06156,-25.78417c-8.73777,0 -25.93844,0 -25.93844,0l0.105,-92.83518c0,0 16.30357,-0.0508 24.83438,-0.07738c15.94625,-0.04969 28.06062,-10.35694 28.06062,-26.30327c0,-21.87631 0,-95.41799 0,-95.41799h133.63364c0,0 0,69.62152 0,91.41799c0,17.23753 12.07287,28.28356 29.31022,28.20618c44.4734,-0.19965 268.68978,-1.20618 268.68978,-1.20618l1.22076,93.74114c0,0 -226.80308,0.52279 -270.91972,0.62448c-16.73642,0.03858 -28.30104,10.89792 -28.30104,27.63438c0,19.88 0,80.90333 0,80.90333z" fill-opacity="0.09804" fill="#000000" stroke="none" stroke-width="0" stroke-linecap="butt"/><path d="M224.70802,362.83107v-97h39v97z" fill-opacity="0.09804" fill="#000000" stroke="none" stroke-width="0" stroke-linecap="butt"/><path d="M224.70802,151.8125v-109h38c0,0 0,31 0,43c0,11.28732 6.42066,20 17.70798,20c30.69732,0 201.29202,0 201.29202,0l1.30443,26.15978c0,0 -171.80099,0.74331 -202.60062,0.87657c-8.83745,0.03824 -17.68221,7.1279 -17.69426,15.96542c-0.0036,2.64001 -0.00955,2.99822 -0.00955,2.99822z" fill-opacity="0.09804" fill="#000000" stroke="none" stroke-width="0" stroke-linecap="butt"/><path d="M204.70802,244.83107v-17.53425h81v17.53425z" fill-opacity="0.09804" fill="#000000" stroke="none" stroke-width="0" stroke-linecap="butt"/><path d="M204.70802,222.03654v-17.53425h81v17.53425z" fill-opacity="0.09804" fill="#000000" stroke="none" stroke-width="0" stroke-linecap="butt"/><path d="M204.70802,198.3653v-17.53425h81v17.53425z" fill-opacity="0.09804" fill="#000000" stroke="none" stroke-width="0" stroke-linecap="butt"/><path d="M112.70802,348.83107v-26h10.24242v26z" fill-opacity="0.09804" fill="#000000" stroke="none" stroke-width="0" stroke-linecap="butt"/><path d="M112.70802,306.83107v-26h10.24242v26z" fill-opacity="0.09804" fill="#000000" stroke="none" stroke-width="0" stroke-linecap="butt"/><path d="M112.70802,146.83104v-26h10.24242v26z" fill-opacity="0.09804" fill="#000000" stroke="none" stroke-width="0" stroke-linecap="butt"/><path d="M112.70802,104.83106v-26h10.24242v26z" fill-opacity="0.09804" fill="#000000" stroke="none" stroke-width="0" stroke-linecap="butt"/><path d="M112.70802,61.83106v-18h10.24242v18z" fill-opacity="0.09804" fill="#000000" stroke="none" stroke-width="0" stroke-linecap="butt"/><path d="M395.32923,214.74521h-31.92647v-6.82828h31.92647z" fill-opacity="0.09804" fill="#000000" stroke="none" stroke-width="0" stroke-linecap="butt"/><path d="M343.7557,214.74521h-31.92647v-6.82828h31.92647z" fill-opacity="0.09804" fill="#000000" stroke="none" stroke-width="0" stroke-linecap="butt"/><path d="M498.32923,214.74521h-31.92647v-6.82828h31.92647z" fill-opacity="0.09804" fill="#000000" stroke="none" stroke-width="0" stroke-linecap="butt"/><path d="M446.7557,214.74521h-31.92647v-6.82828h31.92647z" fill-opacity="0.09804" fill="#000000" stroke="none" stroke-width="0" stroke-linecap="butt"/><path d="M202.68193,150.13919v-89.1212h10.30304v89.1212z" fill="#6d468d" stroke="none" stroke-width="0" stroke-linecap="butt"/><path d="M179.50008,47.62405c0,-15.64807 12.68528,-28.33334 28.33334,-28.33334c15.64807,0 28.33333,12.68526 28.33333,28.33334c0,15.64807 -12.68526,28.33333 -28.33333,28.33333c-15.64807,0 -28.33334,-12.68526 -28.33334,-28.33333z" fill="#6d468d" stroke="none" stroke-width="0" stroke-linecap="butt"/><path d="M215.00413,34.41266l5.62263,5.62263l-15.29354,15.29352l3.59848,3.59848l-13.26938,0.67471l0.67471,-13.26938l3.37357,3.37357z" fill-opacity="0.10588" fill="#000000" stroke="none" stroke-width="0" stroke-linecap="butt"/><path d="M184.65163,47.81723c0,-12.69628 10.29236,-22.98864 22.98864,-22.98864c12.69628,0 22.98864,10.29236 22.98864,22.98864c0,12.69628 -10.29236,22.98864 -22.98864,22.98864c-12.69628,0 -22.98864,-10.29236 -22.98864,-22.98864z" fill="none" stroke-opacity="0.05098" stroke="#000000" stroke-width="2.5" stroke-linecap="butt"/><g data-paper-data="{&quot;index&quot;:null}" fill="none" stroke="#4f3c78" stroke-width="20" stroke-linecap="round"><path d="M376.72756,335.45358v-33.5"/><path d="M360.72756,287.95358v44.5"/><path d="M346.22756,331.95358v-41.5"/><path d="M331.22756,281.45358v47.5"/><path d="M317.22756,292.45358v38"/><path d="M303.72756,310.45358v25"/><path d="M389.22756,327.9536v10.5"/></g><g data-paper-data="{&quot;index&quot;:null}" fill="none" stroke="#4f3c78" stroke-width="20" stroke-linecap="round"><path d="M413.1223,332.55886v-21.15789"/><path d="M423.22756,330.66409v-28.10526"/><path d="M432.38545,330.34833v-26.21052"/><path d="M441.85914,298.45358v30"/><path d="M450.70124,305.40094v24"/><path d="M459.22756,332.55886v-15.78947"/><path d="M405.22756,327.82201v6.63158"/></g><path d="M375.82922,89.47251v-91h104v91z" fill="#774994" stroke="none" stroke-width="0" stroke-linecap="butt"/><path d="M49.17766,21.01754v-12.61839h12.34766v12.61839z" fill-opacity="0.09804" fill="#000000" stroke="none" stroke-width="0" stroke-linecap="butt"/><path d="M64.33159,21.01754v-12.61839h12.34766v12.61839z" fill-opacity="0.09804" fill="#000000" stroke="none" stroke-width="0" stroke-linecap="butt"/><path d="M79.99841,21.01754v-12.61839h12.34768v12.61839z" fill-opacity="0.09804" fill="#000000" stroke="none" stroke-width="0" stroke-linecap="butt"/><path d="M95.15241,21.01754v-12.61839h12.34766v12.61839z" fill-opacity="0.09804" fill="#000000" stroke="none" stroke-width="0" stroke-linecap="butt"/><path d="M49.17766,37.13918v-12.61839h12.34766v12.61839z" fill-opacity="0.09804" fill="#000000" stroke="none" stroke-width="0" stroke-linecap="butt"/><path d="M64.33159,37.13918v-12.61839h12.34766v12.61839z" fill-opacity="0.09804" fill="#000000" stroke="none" stroke-width="0" stroke-linecap="butt"/><path d="M79.99841,37.13918v-12.61839h12.34768v12.61839z" fill-opacity="0.09804" fill="#000000" stroke="none" stroke-width="0" stroke-linecap="butt"/><path d="M95.15241,37.13918v-12.61839h12.34766v12.61839z" fill-opacity="0.09804" fill="#000000" stroke="none" stroke-width="0" stroke-linecap="butt"/><path d="M388.82922,57.47251c0,0 0,-23.50695 0,-32c0,-7.98145 5.01855,-14 13,-14c5.1205,0 16.02143,0 25,0c9.01108,0 14,6.98892 14,16c0,8.44129 0,30 0,30z" fill-opacity="0.09804" fill="#000000" stroke="none" stroke-width="0" stroke-linecap="butt"/><path d="M458.82922,78.47251v-49h26v49z" fill-opacity="0.09804" fill="#000000" stroke="none" stroke-width="0" stroke-linecap="butt"/><path d="M243.99842,20.01753v-12.61839h12.34768v12.61839z" fill-opacity="0.09804" fill="#000000" stroke="none" stroke-width="0" stroke-linecap="butt"/><path d="M259.15241,20.01753v-12.61839h12.34766v12.61839z" fill-opacity="0.09804" fill="#000000" stroke="none" stroke-width="0" stroke-linecap="butt"/><path d="M243.99842,36.13918v-12.61839h12.34768v12.61839z" fill-opacity="0.09804" fill="#000000" stroke="none" stroke-width="0" stroke-linecap="butt"/><path d="M259.15241,36.13918v-12.61839h12.34766v12.61839z" fill-opacity="0.09804" fill="#000000" stroke="none" stroke-width="0" stroke-linecap="butt"/><g stroke="none" stroke-width="0" stroke-linecap="butt"><path d="M299.50028,76.89047v-53.27467c0,0 5.82374,-9.22093 7.82089,-12.38308c1.4395,-2.27921 4.50917,-2.39534 5.94369,-0.11299c1.98523,3.15855 7.85413,12.49607 7.85413,12.49607v53.27467z" fill="#794a95"/><path d="M302.66064,33.77411c0,-1.3714 1.11173,-2.48315 2.48314,-2.48315c1.3714,0 2.48315,1.11175 2.48315,2.48315c0,1.3714 -1.11175,2.48314 -2.48315,2.48314c-1.3714,0 -2.48314,-1.11173 -2.48314,-2.48314z" fill-opacity="0.09804" fill="#000000"/><path d="M313.04469,33.77411c0,-1.3714 1.11173,-2.48315 2.48314,-2.48315c1.3714,0 2.48315,1.11175 2.48315,2.48315c0,1.3714 -1.11175,2.48314 -2.48315,2.48314c-1.3714,0 -2.48314,-1.11173 -2.48314,-2.48314z" fill-opacity="0.09804" fill="#000000"/><path d="M321.17133,76.89047v-53.27467c0,0 5.82374,-9.22093 7.82089,-12.38308c1.4395,-2.27921 4.50918,-2.39534 5.9437,-0.11299c1.98523,3.15855 7.85413,12.49607 7.85413,12.49607v53.27467z" fill="#794a95"/><path d="M324.3317,33.77411c0,-1.3714 1.11173,-2.48315 2.48314,-2.48315c1.3714,0 2.48315,1.11175 2.48315,2.48315c0,1.3714 -1.11175,2.48314 -2.48315,2.48314c-1.3714,0 -2.48314,-1.11173 -2.48314,-2.48314z" fill-opacity="0.09804" fill="#000000"/><path d="M334.71574,33.77411c0,-1.3714 1.11173,-2.48315 2.48314,-2.48315c1.3714,0 2.48315,1.11175 2.48315,2.48315c0,1.3714 -1.11175,2.48314 -2.48315,2.48314c-1.3714,0 -2.48314,-1.11173 -2.48314,-2.48314z" fill-opacity="0.09804" fill="#000000"/><path d="M277.82923,76.89047v-53.27467c0,0 5.82374,-9.22093 7.82089,-12.38308c1.4395,-2.27921 4.50917,-2.39534 5.94369,-0.11299c1.98523,3.15855 7.85413,12.49607 7.85413,12.49607v53.27467z" fill="#794a95"/><path d="M280.98959,33.77411c0,-1.3714 1.11173,-2.48315 2.48314,-2.48315c1.3714,0 2.48315,1.11175 2.48315,2.48315c0,1.3714 -1.11175,2.48314 -2.48315,2.48314c-1.3714,0 -2.48314,-1.11173 -2.48314,-2.48314z" fill-opacity="0.09804" fill="#000000"/><path d="M291.37364,33.77411c0,-1.3714 1.11173,-2.48315 2.48314,-2.48315c1.3714,0 2.48315,1.11175 2.48315,2.48315c0,1.3714 -1.11175,2.48314 -2.48315,2.48314c-1.3714,0 -2.48314,-1.11173 -2.48314,-2.48314z" fill-opacity="0.09804" fill="#000000"/><path d="M342.83262,76.89047v-53.27467c0,0 5.82374,-9.22093 7.82089,-12.38308c1.4395,-2.27921 4.50917,-2.39534 5.94369,-0.11299c1.98523,3.15855 7.85413,12.49607 7.85413,12.49607v53.27467z" fill="#794a95"/><path d="M345.99299,33.77411c0,-1.3714 1.11173,-2.48315 2.48314,-2.48315c1.3714,0 2.48315,1.11175 2.48315,2.48315c0,1.3714 -1.11175,2.48314 -2.48315,2.48314c-1.3714,0 -2.48314,-1.11173 -2.48314,-2.48314z" fill-opacity="0.09804" fill="#000000"/><path d="M356.37704,33.77411c0,-1.3714 1.11173,-2.48315 2.48314,-2.48315c1.3714,0 2.48315,1.11175 2.48315,2.48315c0,1.3714 -1.11175,2.48314 -2.48315,2.48314c-1.3714,0 -2.48314,-1.11173 -2.48314,-2.48314z" fill-opacity="0.09804" fill="#000000"/><path d="M-23.99972,77.39047v-53.27467c0,0 5.82374,-9.22094 7.82089,-12.38309c1.4395,-2.27921 4.50917,-2.39533 5.94369,-0.11299c1.98523,3.15855 7.85413,12.49608 7.85413,12.49608v53.27467z" fill="#774993"/><path d="M-20.83936,34.27411c0,-1.3714 1.11174,-2.48315 2.48314,-2.48315c1.3714,0 2.48315,1.11174 2.48315,2.48315c0,1.3714 -1.11175,2.48314 -2.48315,2.48314c-1.3714,0 -2.48314,-1.11174 -2.48314,-2.48314z" fill-opacity="0.09804" fill="#000000"/><path d="M-10.45531,34.27411c0,-1.3714 1.11174,-2.48315 2.48314,-2.48315c1.3714,0 2.48314,1.11174 2.48314,2.48315c0,1.3714 -1.11174,2.48314 -2.48314,2.48314c-1.3714,0 -2.48314,-1.11174 -2.48314,-2.48314z" fill-opacity="0.09804" fill="#000000"/><path d="M-2.32867,77.39047v-53.27467c0,0 5.82373,-9.22094 7.82088,-12.38309c1.4395,-2.27921 4.50918,-2.39533 5.9437,-0.11299c1.98523,3.15855 7.85413,12.49608 7.85413,12.49608v53.27467z" fill="#794a95"/><path d="M0.8317,34.27411c0,-1.3714 1.11174,-2.48315 2.48314,-2.48315c1.3714,0 2.48314,1.11174 2.48314,2.48315c0,1.3714 -1.11174,2.48314 -2.48314,2.48314c-1.3714,0 -2.48314,-1.11174 -2.48314,-2.48314z" fill-opacity="0.09804" fill="#000000"/><path d="M11.21575,34.27411c0,-1.3714 1.11173,-2.48315 2.48313,-2.48315c1.3714,0 2.48315,1.11174 2.48315,2.48315c0,1.3714 -1.11175,2.48314 -2.48315,2.48314c-1.3714,0 -2.48313,-1.11174 -2.48313,-2.48314z" fill-opacity="0.09804" fill="#000000"/><path d="M-45.67078,77.39047v-53.27467c0,0 5.82374,-9.22094 7.82089,-12.38309c1.4395,-2.27921 4.50917,-2.39533 5.94369,-0.11299c1.98523,3.15855 7.85414,12.49608 7.85414,12.49608v53.27467z" fill="#774993"/><path d="M-42.51041,34.27411c0,-1.3714 1.11174,-2.48315 2.48314,-2.48315c1.3714,0 2.48315,1.11174 2.48315,2.48315c0,1.3714 -1.11175,2.48314 -2.48315,2.48314c-1.3714,0 -2.48314,-1.11174 -2.48314,-2.48314z" fill-opacity="0.09804" fill="#000000"/><path d="M-32.12636,34.27411c0,-1.3714 1.11174,-2.48315 2.48314,-2.48315c1.3714,0 2.48315,1.11174 2.48315,2.48315c0,1.3714 -1.11175,2.48314 -2.48315,2.48314c-1.3714,0 -2.48314,-1.11174 -2.48314,-2.48314z" fill-opacity="0.09804" fill="#000000"/><path d="M19.33263,77.39047v-53.27467c0,0 5.82374,-9.22094 7.82089,-12.38309c1.4395,-2.27921 4.50917,-2.39533 5.94369,-0.11299c1.98523,3.15855 7.85414,12.49608 7.85414,12.49608v53.27467z" fill="#794a95"/><path d="M22.49299,34.27411c0,-1.3714 1.11174,-2.48315 2.48314,-2.48315c1.3714,0 2.48315,1.11174 2.48315,2.48315c0,1.3714 -1.11175,2.48314 -2.48315,2.48314c-1.3714,0 -2.48314,-1.11174 -2.48314,-2.48314z" fill-opacity="0.09804" fill="#000000"/><path d="M32.87703,34.27411c0,-1.3714 1.11174,-2.48315 2.48314,-2.48315c1.3714,0 2.48315,1.11174 2.48315,2.48315c0,1.3714 -1.11175,2.48314 -2.48315,2.48314c-1.3714,0 -2.48314,-1.11174 -2.48314,-2.48314z" fill-opacity="0.09804" fill="#000000"/></g><g data-paper-data="{&quot;index&quot;:null}" fill="none" stroke="#6f478e" stroke-width="20" stroke-linecap="round"><path d="M-43.77245,95.9536v33.5"/><path d="M-27.77245,81.95359v44.5"/><path d="M-13.27245,125.95359v-41.5"/><path d="M1.72755,122.95359v-47.5"/><path d="M15.72755,124.45359v-38"/><path d="M29.22755,104.45359v25"/><path d="M-56.27245,132.45359v-10.5"/></g><g data-paper-data="{&quot;index&quot;:null}" fill="none" stroke="#754992" stroke-width="20" stroke-linecap="round"><path d="M347.85621,66.38926v18.4152"/><path d="M339.06089,83.15534v-24.46199"/><path d="M331.09013,60.06762v22.81286"/><path d="M322.84452,55.12025v26.11111"/><path d="M315.1486,61.16704v20.88889"/><path d="M307.72756,71.06177v13.74269"/><path d="M354.72756,80.68167v5.77193"/></g></g></g></svg>