<svg version="1.1" xmlns="http://www.w3.org/2000/svg" xmlns:xlink="http://www.w3.org/1999/xlink" width="484" height="32" viewBox="0,0,484,32"><g transform="translate(3,0.88353)"><g data-paper-data="{&quot;isPaintingLayer&quot;:true}" fill-rule="nonzero" stroke="none" stroke-linejoin="miter" stroke-miterlimit="10" stroke-dasharray="" stroke-dashoffset="0" style="mix-blend-mode: normal"><path d="M457.30112,14.51143c0.97027,0 1.84086,0.20269 2.61176,0.60808c0.77755,0.39874 1.3823,0.95034 1.81427,1.65478c0.43862,0.70444 0.65792,1.51854 0.65792,2.44229c0,1.08325 -0.28244,2.11001 -0.84733,3.08028c-0.55824,0.97027 -1.33911,1.75446 -2.34261,2.35258c-1.0035,0.59147 -2.12662,0.8872 -3.36937,0.8872c-1.20952,0 -2.30273,-0.28909 -3.27965,-0.86726c-0.97692,-0.57818 -1.74782,-1.39892 -2.3127,-2.46223c-0.55824,-1.06331 -0.83736,-2.29277 -0.83736,-3.68836c0,-1.85415 0.45855,-3.57871 1.37566,-5.17367c0.91711,-1.60161 2.16982,-2.90749 3.75814,-3.91764c1.59497,-1.01679 3.34279,-1.60161 5.24345,-1.75446l0.17943,0.92707c-1.9339,0.57818 -3.45576,1.44544 -4.56559,2.60179c-1.10318,1.15635 -1.75779,2.58518 -1.9638,4.28647c0.59811,-0.29241 1.23278,-0.52833 1.90399,-0.70777c0.67122,-0.17943 1.32914,-0.26915 1.97377,-0.26915zM453.34361,16.864c0.01994,1.22281 0.24257,2.33596 0.66789,3.33946c0.42532,1.0035 1.01015,1.8176 1.75446,2.44229c0.75096,0.61805 1.59497,0.98024 2.53201,1.08657c0.27247,-0.75096 0.40871,-1.50193 0.40871,-2.25289c0,-1.34243 -0.47185,-2.41571 -1.41553,-3.21984c-0.94369,-0.81078 -2.25954,-1.27597 -3.94754,-1.3956z" fill="#ffece6" stroke-width="1" stroke-linecap="square"/><path d="M-3,31.11647v-32h484v32z" fill="none" stroke-width="0" stroke-linecap="butt"/></g></g></svg>