<svg version="1.1" xmlns="http://www.w3.org/2000/svg" xmlns:xlink="http://www.w3.org/1999/xlink" width="88.43028" height="30.84832" viewBox="0,0,88.43028,30.84832"><g transform="translate(-192.73381,-168.39828)"><g data-paper-data="{&quot;isPaintingLayer&quot;:true}" fill-rule="nonzero" stroke="none" stroke-linejoin="miter" stroke-miterlimit="10" stroke-dasharray="" stroke-dashoffset="0" style="mix-blend-mode: normal"><path d="M213.04175,176.82299c0.74813,0.81615 1.83633,2.27841 3.26459,4.38678c0.40807,0.61211 0.6121,1.19021 0.6121,1.73431c0.06801,0.68012 -0.13602,1.29224 -0.6121,1.83633c-1.63229,2.17639 -2.7545,3.63864 -3.3666,4.38678c-0.34006,0.47608 -0.74813,0.71413 -1.22422,0.71413c-0.47609,0 -0.88416,-0.17003 -1.22422,-0.51009c-0.34006,-0.27205 -0.47609,-0.68012 -0.40807,-1.22422c0,-0.27205 0.10202,-0.6121 0.30606,-1.02018c0.20403,-0.40807 0.30605,-0.78214 0.30605,-1.1222c0,-0.68012 -0.40807,-1.05419 -1.22421,-1.1222h-1.73431c-0.5441,0 -0.98618,0.10201 -1.32624,0.30605c-0.34006,0.27205 -0.68012,0.68013 -1.02018,1.22422l-1.83633,2.95853c-0.27205,0.5441 -0.74814,0.81615 -1.42826,0.81615h-6.22311c-0.88416,0 -1.32624,-0.37406 -1.32624,-1.1222c0,-0.27205 0.06801,-0.57811 0.20404,-0.91817l2.04037,-4.59082c0.13602,-0.27205 0.20403,-0.47609 0.20403,-0.61211c0.06801,-0.20404 0.03401,-0.40807 -0.10201,-0.6121l-2.14238,-4.59082c-0.13603,-0.27205 -0.20404,-0.5781 -0.20404,-0.91816c0,-0.68012 0.44208,-1.02018 1.32624,-1.02018h6.22311c0.68012,0 1.15621,0.23804 1.42826,0.71413l1.83633,2.95853c0.34006,0.54409 0.64612,0.91816 0.91816,1.1222c0.34006,0.27205 0.81615,0.40807 1.42826,0.40807h1.73431c0.81615,0 1.22421,-0.37406 1.22421,-1.1222c0,-0.27205 -0.10202,-0.64611 -0.30605,-1.1222c-0.20404,-0.47609 -0.30606,-0.85015 -0.30606,-1.1222c0,-0.47609 0.13603,-0.85015 0.40807,-1.1222c0.34006,-0.34006 0.74813,-0.51009 1.22422,-0.51009c0.47609,0 0.91816,0.27205 1.32623,0.81614z" fill-opacity="0.06667" fill="#000000" stroke-width="1" stroke-linecap="square"/><path d="M249.30946,179.95495c0,1.84313 -0.78894,3.30199 -2.36682,4.37658c-1.57108,1.06779 -3.86989,1.63569 -6.89643,1.7037v5.35596l2.84631,0.0204v0.91816h-8.46751v-0.91816l1.28543,-0.0204v-15.61899l-1.28543,-0.03061v-0.90796l5.0397,0.051l3.8971,-0.18363c1.25142,0 2.32601,0.23464 3.22377,0.70392c0.89776,0.46928 1.57448,1.1052 2.03016,1.90774c0.46248,0.80254 0.69372,1.6833 0.69372,2.64227zM244.66763,180.70989c0,-0.92496 -0.20064,-1.76492 -0.6019,-2.51985c-0.40127,-0.76173 -0.95557,-1.36024 -1.6629,-1.79552c-0.70052,-0.43528 -1.48607,-0.65292 -2.35663,-0.65292v9.27345c1.44186,-0.08841 2.57086,-0.51009 3.38701,-1.26502c0.82295,-0.75493 1.23442,-1.76832 1.23442,-3.04014zM250.20802,191.57483l0.95897,-0.08161l-0.12242,-15.63939l-0.99977,0.20403l-0.25504,-0.75493l4.82546,-1.45886l0.36727,0.62231l-0.13263,17.02684l0.96918,0.08161v0.75493h-5.611zM267.25853,190.97292l-3.84609,1.80572c-0.46929,-0.33326 -0.78894,-0.78894 -0.95897,-1.36705c-0.63252,0.38767 -1.26503,0.70053 -1.89754,0.93857c-0.63251,0.24484 -1.18681,0.36726 -1.66289,0.36726c-0.70732,0 -1.28883,-0.25164 -1.74451,-0.75493c-0.45568,-0.50329 -0.68352,-1.14601 -0.68352,-1.92815c0,-0.34686 0.0374,-0.72432 0.11222,-1.1324c0.08161,-0.41487 0.18363,-0.74474 0.30606,-0.98958l5.53959,-0.88755l0.05101,-0.75493c0.034,-0.78214 -0.13263,-1.39425 -0.49989,-1.83633c-0.36047,-0.44888 -0.95217,-0.67332 -1.77512,-0.67332c-0.36046,0 -0.74133,0.04081 -1.14261,0.12243c-0.40127,0.07482 -0.74133,0.17343 -1.02018,0.29585l-0.41827,0.88756l-0.70393,-0.25504l1.20382,-3.76448c1.33984,-0.5713 2.60827,-0.85695 3.80528,-0.85695c1.23782,0 2.2478,0.32646 3.02994,0.97938c0.78894,0.65291 1.18342,1.67309 1.18342,3.06054l-0.03061,0.53049l-0.26524,3.51963l-0.05101,0.93857c0,0.31285 0.0272,0.5611 0.08161,0.74474c0.05441,0.18363 0.14283,0.37066 0.26525,0.5611l0.80594,-0.30605zM261.33127,190.8403c0.27885,0 0.5985,-0.10541 0.95897,-0.31625l-0.0204,-0.5407l0.0204,-0.5815l0.08161,-1.48947l-2.00976,0.46928c-0.06801,0.23124 -0.10201,0.5373 -0.10201,0.91817c0,0.5237 0.10202,0.91136 0.30606,1.163c0.21084,0.25164 0.46588,0.37747 0.76513,0.37747zM280.04833,180.57727v0.83655l-0.75494,0.02041l-3.31559,7.71257c-0.90456,2.14238 -1.83973,4.10113 -2.8055,5.87625c-0.96577,1.77511 -1.83972,3.18297 -2.62187,4.22355l-3.09116,-2.91772c2.16279,-1.23782 4.09774,-2.59807 5.80484,-4.08073l-1.43846,0.08161l-4.01952,-10.89554l-0.75493,-0.02041v-0.83655h6.1823v0.83655l-1.09159,0.02041l2.37702,7.99823l2.14238,-7.99823l-1.10179,-0.02041v-0.83655z" fill-opacity="0.06667" fill="#000000" stroke-width="1" stroke-linecap="square"/><path d="M192.73381,191.60172v-23.20344h88.43028v23.20344z" fill-opacity="0.06667" fill="#000000" stroke-width="0" stroke-linecap="butt"/><path d="M212.85436,173.98866c0.74813,0.81615 1.83633,2.27841 3.26459,4.38678c0.40807,0.61211 0.6121,1.19021 0.6121,1.73431c0.06801,0.68012 -0.13602,1.29224 -0.6121,1.83633c-1.63229,2.17639 -2.7545,3.63864 -3.3666,4.38678c-0.34006,0.47608 -0.74813,0.71413 -1.22422,0.71413c-0.47609,0 -0.88416,-0.17003 -1.22422,-0.51009c-0.34006,-0.27205 -0.47609,-0.68012 -0.40807,-1.22422c0,-0.27205 0.10202,-0.6121 0.30606,-1.02018c0.20403,-0.40807 0.30605,-0.78214 0.30605,-1.1222c0,-0.68012 -0.40807,-1.05419 -1.22421,-1.1222h-1.73431c-0.5441,0 -0.98618,0.10201 -1.32624,0.30605c-0.34006,0.27205 -0.68012,0.68013 -1.02018,1.22422l-1.83633,2.95853c-0.27205,0.5441 -0.74814,0.81615 -1.42826,0.81615h-6.22311c-0.88416,0 -1.32624,-0.37406 -1.32624,-1.1222c0,-0.27205 0.06801,-0.57811 0.20404,-0.91817l2.04037,-4.59082c0.13602,-0.27205 0.20403,-0.47609 0.20403,-0.61211c0.06801,-0.20404 0.03401,-0.40807 -0.10201,-0.6121l-2.14238,-4.59082c-0.13603,-0.27205 -0.20404,-0.5781 -0.20404,-0.91816c0,-0.68012 0.44208,-1.02018 1.32624,-1.02018h6.22311c0.68012,0 1.15621,0.23804 1.42826,0.71413l1.83633,2.95853c0.34006,0.54409 0.64612,0.91816 0.91816,1.1222c0.34006,0.27205 0.81615,0.40807 1.42826,0.40807h1.73431c0.81615,0 1.22421,-0.37406 1.22421,-1.1222c0,-0.27205 -0.10202,-0.64611 -0.30605,-1.1222c-0.20404,-0.47609 -0.30606,-0.85015 -0.30606,-1.1222c0,-0.47609 0.13603,-0.85015 0.40807,-1.1222c0.34006,-0.34006 0.74813,-0.51009 1.22422,-0.51009c0.47609,0 0.91816,0.27205 1.32623,0.81614z" fill="#f1f6ff" stroke-width="1" stroke-linecap="square"/><path d="M249.12207,177.12062c0,1.84313 -0.78894,3.30199 -2.36682,4.37658c-1.57108,1.06779 -3.86989,1.63569 -6.89643,1.7037v5.35596l2.84631,0.0204v0.91816h-8.46751v-0.91816l1.28543,-0.0204v-15.61899l-1.28543,-0.03061v-0.90796l5.0397,0.051l3.8971,-0.18363c1.25142,0 2.32601,0.23464 3.22377,0.70392c0.89776,0.46928 1.57448,1.1052 2.03016,1.90774c0.46248,0.80254 0.69372,1.6833 0.69372,2.64227zM244.48024,177.87556c0,-0.92496 -0.20064,-1.76492 -0.6019,-2.51985c-0.40127,-0.76173 -0.95557,-1.36024 -1.6629,-1.79552c-0.70052,-0.43528 -1.48607,-0.65292 -2.35663,-0.65292v9.27345c1.44186,-0.08841 2.57086,-0.51009 3.38701,-1.26502c0.82295,-0.75493 1.23442,-1.76832 1.23442,-3.04014zM250.02063,188.7405l0.95897,-0.08161l-0.12242,-15.63939l-0.99977,0.20403l-0.25504,-0.75493l4.82546,-1.45886l0.36727,0.62231l-0.13263,17.02684l0.96918,0.08161v0.75493h-5.611zM267.07114,188.13859l-3.84609,1.80572c-0.46929,-0.33326 -0.78894,-0.78894 -0.95897,-1.36705c-0.63252,0.38767 -1.26503,0.70053 -1.89754,0.93857c-0.63251,0.24484 -1.18681,0.36726 -1.66289,0.36726c-0.70732,0 -1.28883,-0.25164 -1.74451,-0.75493c-0.45568,-0.50329 -0.68352,-1.14601 -0.68352,-1.92815c0,-0.34686 0.0374,-0.72432 0.11222,-1.1324c0.08161,-0.41487 0.18363,-0.74474 0.30606,-0.98958l5.53959,-0.88755l0.05101,-0.75493c0.034,-0.78214 -0.13263,-1.39425 -0.49989,-1.83633c-0.36047,-0.44888 -0.95217,-0.67332 -1.77512,-0.67332c-0.36046,0 -0.74133,0.04081 -1.14261,0.12243c-0.40127,0.07482 -0.74133,0.17343 -1.02018,0.29585l-0.41827,0.88756l-0.70393,-0.25504l1.20382,-3.76448c1.33984,-0.5713 2.60827,-0.85695 3.80528,-0.85695c1.23782,0 2.2478,0.32646 3.02994,0.97938c0.78894,0.65291 1.18342,1.67309 1.18342,3.06054l-0.03061,0.53049l-0.26524,3.51963l-0.05101,0.93857c0,0.31285 0.0272,0.5611 0.08161,0.74474c0.05441,0.18363 0.14283,0.37066 0.26525,0.5611l0.80594,-0.30605zM261.14388,188.00597c0.27885,0 0.5985,-0.10541 0.95897,-0.31625l-0.0204,-0.5407l0.0204,-0.5815l0.08161,-1.48947l-2.00976,0.46928c-0.06801,0.23124 -0.10201,0.5373 -0.10201,0.91817c0,0.5237 0.10202,0.91136 0.30606,1.163c0.21084,0.25164 0.46588,0.37747 0.76513,0.37747zM279.86094,177.74294v0.83655l-0.75494,0.02041l-3.31559,7.71257c-0.90456,2.14238 -1.83973,4.10113 -2.8055,5.87625c-0.96577,1.77511 -1.83972,3.18297 -2.62187,4.22355l-3.09116,-2.91772c2.16279,-1.23782 4.09774,-2.59807 5.80484,-4.08073l-1.43846,0.08161l-4.01952,-10.89554l-0.75493,-0.02041v-0.83655h6.1823v0.83655l-1.09159,0.02041l2.37702,7.99823l2.14238,-7.99823l-1.10179,-0.02041v-0.83655z" fill="#f1f6ff" stroke-width="1" stroke-linecap="square"/></g></g></svg>