<svg version="1.1" xmlns="http://www.w3.org/2000/svg" xmlns:xlink="http://www.w3.org/1999/xlink" width="57.63399" height="54.29538" viewBox="0,0,57.63399,54.29538"><defs><linearGradient x1="276.29233" y1="192.75588" x2="276.29233" y2="197.95584" gradientUnits="userSpaceOnUse" id="color-1"><stop offset="0" stop-color="#000000" stop-opacity="0.30196"/><stop offset="1" stop-color="#000000" stop-opacity="0"/></linearGradient><linearGradient x1="266.99235" y1="176.75588" x2="266.99235" y2="183.75588" gradientUnits="userSpaceOnUse" id="color-2"><stop offset="0" stop-color="#000000" stop-opacity="0.30196"/><stop offset="1" stop-color="#000000" stop-opacity="0"/></linearGradient><linearGradient x1="264.77207" y1="198.88259" x2="267.86217" y2="203.68935" gradientUnits="userSpaceOnUse" id="color-3"><stop offset="0" stop-color="#000000" stop-opacity="0.30196"/><stop offset="1" stop-color="#000000" stop-opacity="0"/></linearGradient><linearGradient x1="240.76761" y1="194.6283" x2="237.65238" y2="201.37219" gradientUnits="userSpaceOnUse" id="color-4"><stop offset="0" stop-color="#000000" stop-opacity="0.30196"/><stop offset="1" stop-color="#000000" stop-opacity="0"/></linearGradient><linearGradient x1="227.31719" y1="209.67504" x2="227.31719" y2="218.07509" gradientUnits="userSpaceOnUse" id="color-5"><stop offset="0" stop-color="#000000" stop-opacity="0.30196"/><stop offset="1" stop-color="#000000" stop-opacity="0"/></linearGradient><linearGradient x1="252.91717" y1="209.47509" x2="252.91717" y2="217.87507" gradientUnits="userSpaceOnUse" id="color-6"><stop offset="0" stop-color="#000000" stop-opacity="0.30196"/><stop offset="1" stop-color="#000000" stop-opacity="0"/></linearGradient><linearGradient x1="260.27151" y1="196.21248" x2="264.53038" y2="201.21712" gradientUnits="userSpaceOnUse" id="color-7"><stop offset="0" stop-color="#000000" stop-opacity="0.38039"/><stop offset="1" stop-color="#000000" stop-opacity="0"/></linearGradient><linearGradient x1="243.72152" y1="183.76252" x2="247.98036" y2="188.76708" gradientUnits="userSpaceOnUse" id="color-8"><stop offset="0" stop-color="#000000" stop-opacity="0.38039"/><stop offset="1" stop-color="#000000" stop-opacity="0"/></linearGradient><linearGradient x1="248.44838" y1="179.89316" x2="257.77358" y2="179.89316" gradientUnits="userSpaceOnUse" id="color-9"><stop offset="0" stop-color="#5a6168"/><stop offset="1" stop-color="#757e87"/></linearGradient><linearGradient x1="222.44839" y1="179.75034" x2="231.77361" y2="179.75034" gradientUnits="userSpaceOnUse" id="color-10"><stop offset="0" stop-color="#5a6168"/><stop offset="1" stop-color="#757e87"/></linearGradient><radialGradient cx="240.00005" cy="181.75007" r="18.04166" gradientUnits="userSpaceOnUse" id="color-11"><stop offset="0" stop-color="#000000" stop-opacity="0.50196"/><stop offset="1" stop-color="#000000" stop-opacity="0"/></radialGradient></defs><g transform="translate(-221.95837,-163.7797)"><g data-paper-data="{&quot;isPaintingLayer&quot;:true}" fill-rule="nonzero" stroke="none" stroke-width="0" stroke-linecap="butt" stroke-linejoin="miter" stroke-miterlimit="10" stroke-dasharray="" stroke-dashoffset="0" style="mix-blend-mode: normal"><path d="M272.99235,197.95584v-5.2h6.6v5.2z" data-paper-data="{&quot;index&quot;:null}" fill="url(#color-1)"/><path d="M254.39237,183.75588v-7h25.2v7z" data-paper-data="{&quot;index&quot;:null}" fill="url(#color-2)"/><path d="M256.71342,210.01968l0.05281,-5.80673l16.29752,-10.66065l-0.05281,5.80673z" data-paper-data="{&quot;index&quot;:null}" fill="url(#color-3)"/><path d="M256.42278,208.44814l-34.39797,-14.29475l3.11517,-6.74384l31.25511,14.43761z" data-paper-data="{&quot;index&quot;:null}" fill="url(#color-4)"/><path d="M222.67431,218.07509v-8.4h9.28571v8.4z" data-paper-data="{&quot;index&quot;:null}" fill="url(#color-5)"/><path d="M248.27432,217.87507v-8.4h9.28571v8.4z" data-paper-data="{&quot;index&quot;:null}" fill="url(#color-6)"/><path d="M226.04796,189.53338c-2.01101,-0.91852 -1.86597,-2.88366 -0.47716,-3.79345c2.10787,-1.38083 8.09819,-5.305 11.85851,-7.76833c1.77971,-1.16585 4.26203,-1.40537 6.27344,-0.48666c7.35474,3.35927 24.92758,11.38563 29.10978,13.29585c1.74528,0.79715 2.13721,2.46445 0.25993,3.69423c-3.45559,2.26371 -9.54044,6.2498 -11.65752,7.63667c-1.74641,1.14404 -4.9778,1.30191 -6.9089,0.41988c-4.32417,-1.97506 -21.17739,-9.67274 -28.45806,-12.99818z" data-paper-data="{&quot;index&quot;:null}" fill="#584b32"/><path d="M226.11951,188.03983c-2.01101,-0.91852 -1.86597,-2.88366 -0.47716,-3.79345c2.10787,-1.38083 8.09819,-5.305 11.85851,-7.76833c1.7797,-1.16585 4.26202,-1.40537 6.27343,-0.48666c7.35474,3.35927 24.92758,11.38563 29.10978,13.29585c1.74528,0.79715 2.13721,2.46445 0.25993,3.69423c-3.45559,2.26371 -9.54044,6.2498 -11.65752,7.63667c-1.74641,1.14404 -4.9778,1.30191 -6.9089,0.41988c-4.32417,-1.97506 -21.17739,-9.67274 -28.45806,-12.99818z" data-paper-data="{&quot;index&quot;:null}" fill="#68583b"/><path d="M226.19105,186.54627c-2.01101,-0.91852 -1.86597,-2.88366 -0.47716,-3.79345c2.10788,-1.38084 8.0982,-5.30501 11.85852,-7.76834c1.7797,-1.16585 4.26202,-1.40537 6.27343,-0.48666c7.35474,3.35927 24.92758,11.38563 29.10978,13.29585c1.74528,0.79715 2.13721,2.46445 0.25993,3.69423c-3.45559,2.26371 -9.54044,6.2498 -11.65752,7.63667c-1.74641,1.14404 -4.9778,1.30191 -6.9089,0.41988c-4.32417,-1.97506 -21.17739,-9.67274 -28.45806,-12.99818z" data-paper-data="{&quot;index&quot;:null}" fill="#89744e"/><path d="M258.10695,204.61728l-3.44054,-3.37491l13.79205,-10.79494l5.48271,2.76125z" data-paper-data="{&quot;index&quot;:null}" fill="url(#color-7)"/><path d="M240.75695,195.5673l-7.44054,-3.97491l18.59205,-13.59494l5.48271,2.76125z" data-paper-data="{&quot;index&quot;:null}" fill="url(#color-8)"/><path d="M238.00629,174.68632c0,0 19.27294,8.37754 13.088,7.66854c-7.51585,-0.86156 -16.63598,-5.34431 -16.63598,-5.34431z" data-paper-data="{&quot;index&quot;:null}" fill-opacity="0.15294" fill="#000000"/><path d="M232.53346,189.84409c0,0 -0.1588,-2.90816 7.36908,-0.76679c7.52787,2.14137 10.17091,4.89381 11.74147,6.11429c1.57056,1.22048 4.62837,5.49523 4.62837,5.49523l-23.73892,-10.84272z" data-paper-data="{&quot;index&quot;:null}" fill-opacity="0.15294" fill="#000000"/><path d="M231.07931,179.2241c0,0 1.5363,2.20675 6.50539,3.72613c4.9842,1.524 8.72689,1.16489 16.17029,4.56465c0.17809,0.08135 3.38024,0.96126 3.13658,-0.39186c-0.31041,-1.72387 -4.35898,-1.65788 -2.55944,-3.19981c1.30826,-1.12098 7.24862,2.31565 13.85894,5.30237c4.89174,2.21022 8.33818,2.46079 8.33818,2.46079c0,0 -0.69025,1.11059 -1.2704,1.52243c-0.82747,0.5874 -3.19416,2.05445 -3.19416,2.05445c0,0 -14.6123,-4.7212 -13.61955,-3.60421c1.31429,1.4788 2.81285,3.09584 3.84296,4.04058c3.67913,2.30992 4.78702,2.78321 4.78702,2.78321l-3.71693,2.43491c0,0 -14.10169,-13.9792 -23.5922,-13.78124c-4.71967,0.09845 -14.9379,-3.81733 -14.9379,-3.81733z" data-paper-data="{&quot;index&quot;:null}" fill-opacity="0.15294" fill="#000000"/><path d="M274.09765,193.64728c-9.28335,0.2852 -16.32377,5.10967 -16.33118,11.61776c-0.00411,3.6183 0.00712,7.4305 0.00712,7.4305h-3.12938l0.01072,-2.21362l-3.31071,0.01362v2.2h-2.89586c0,0 -0.11131,-0.52249 -0.09901,-7.2297c0.02241,-12.21751 15.28358,-17.45042 25.76982,-17.31396c3.70993,0.04828 5.43633,-0.01349 5.43633,-0.01349l-0.03191,5.5c0,0 -3.59976,-0.04722 -5.42594,0.00889z" data-paper-data="{&quot;index&quot;:null}" fill="#42484e"/><path d="M279.52358,177.78124c0,0 -11.17119,-0.04723 -12.99737,0.00888c-12.71191,0.14235 -34.8952,9.82396 -34.75975,23.1892c-0.00412,3.6183 0.00712,11.57335 0.00712,11.57335h-3.12938l0.01072,-2.21362l-3.31071,0.01362v2.2h-2.89586c0,0 -0.11131,-4.66535 -0.09901,-11.37256c0.02241,-18.9318 26.99786,-28.879 44.19839,-28.88539c3.70993,0.04828 13.00776,-0.01349 13.00776,-0.01349l-0.03191,5.5z" data-paper-data="{&quot;index&quot;:null}" fill="#42484e"/><path d="M274.09765,190.69491c-9.28335,0.2852 -16.32377,5.10967 -16.33118,11.61776c-0.00411,3.6183 0.00712,7.4305 0.00712,7.4305h-9.32523c0,0 -0.11131,-0.52249 -0.09901,-7.2297c0.02241,-12.21751 15.28358,-17.45042 25.76982,-17.31396c3.70993,0.04828 5.43633,-0.01349 5.43633,-0.01349l-0.03191,5.5c0,0 -3.59976,-0.04722 -5.42594,0.00889z" data-paper-data="{&quot;index&quot;:null}" fill="url(#color-9)"/><path d="M279.52358,174.82887c0,0 -11.17118,-0.04723 -12.99736,0.00888c-12.71193,0.14234 -34.89521,9.82395 -34.75976,23.18919c-0.00412,3.6183 0.00712,11.57335 0.00712,11.57335h-9.32523c0,0 -0.11131,-4.66535 -0.09901,-11.37256c0.02241,-18.9318 26.99786,-28.879 44.19839,-28.88539c3.70993,0.04828 13.00776,-0.01349 13.00776,-0.01349l-0.03192,5.5z" data-paper-data="{&quot;index&quot;:null}" fill="url(#color-10)"/><path d="M279.48114,189.08066c0,0 -2.09028,-0.16767 -7.01015,-0.07986c-8.57741,0.15309 -17.9734,5.99125 -18.02031,13.71265c-0.0222,3.65376 0.03046,6.9434 0.03046,6.9434h-3.53715c0,0 -0.0365,-3.11333 0.06632,-7.00465c0.22366,-8.46452 10.73004,-15.6758 21.38997,-15.8673c5.63218,-0.10118 7.12705,-0.03758 7.12705,-0.03758l-0.04618,2.33333z" data-paper-data="{&quot;index&quot;:null}" fill-opacity="0.20392" fill="#000000"/><path d="M279.42312,173.02908c0,0 -6.33132,-0.18693 -14.39567,-0.0217c-15.88076,0.28001 -36.18513,12.30056 -36.29552,24.2759c0.0138,5.82009 0.02452,12.37358 0.02452,12.37358h-3.53715c0,0 0.01173,-3.4929 -0.09748,-12.42913c0.04562,-11.09877 18.63717,-25.80492 39.87385,-26.1909c6.41186,-0.1206 14.44584,-0.17442 14.44584,-0.17442l-0.01841,2.16667z" data-paper-data="{&quot;index&quot;:null}" fill-opacity="0.20392" fill="#000000"/><path d="M248.31694,207.41546h3.12938l-0.01072,2.21362l3.31071,-0.01362v-2.2h2.89586v6.06364h-9.32523z" data-paper-data="{&quot;index&quot;:null}" fill="#42484e"/><path d="M222.58967,207.50642h3.12938l-0.01072,2.21362l3.31071,-0.01362v-2.2h2.89586v6.06364h-9.32523z" data-paper-data="{&quot;index&quot;:null}" fill="#42484e"/><path d="M258.0417,181.75007c0,9.92476 -8.07752,17.97036 -18.04166,17.97036c-9.96413,0 -18.04167,-8.0456 -18.04167,-17.97036c0,-9.92476 8.07754,-17.97036 18.04167,-17.97036c9.96413,0 18.04166,8.0456 18.04166,17.97036z" fill="url(#color-11)"/><path d="M226.16672,183.33335c0,-7.63994 6.1934,-13.83334 13.83334,-13.83334c7.63994,0 13.83334,6.1934 13.83334,13.83334c0,7.63994 -6.1934,13.83334 -13.83334,13.83334c-7.63994,0 -13.83334,-6.1934 -13.83334,-13.83334z" fill="#cacaca"/><path d="M226.16672,180.00007c0,-7.63994 6.19339,-13.83333 13.83333,-13.83333c7.63994,0 13.83333,6.19339 13.83333,13.83333c0,7.63994 -6.19339,13.83333 -13.83333,13.83333c-7.63994,0 -13.83333,-6.19339 -13.83333,-13.83333z" fill="#ffffff"/></g></g></svg>