<svg version="1.1" xmlns="http://www.w3.org/2000/svg" xmlns:xlink="http://www.w3.org/1999/xlink" width="210.83959" height="205.53708" viewBox="0,0,210.83959,205.53708"><defs><radialGradient cx="240.00003" cy="180" r="105.39697" gradientUnits="userSpaceOnUse" id="color-1"><stop offset="0" stop-color="#000000" stop-opacity="0.49804"/><stop offset="1" stop-color="#000000" stop-opacity="0"/></radialGradient><linearGradient x1="210.37044" y1="114.89831" x2="210.37044" y2="196.27542" gradientUnits="userSpaceOnUse" id="color-2"><stop offset="0" stop-color="#ffffff"/><stop offset="1" stop-color="#fffde5"/></linearGradient><linearGradient x1="267.9604" y1="112.3944" x2="267.9604" y2="181.25198" gradientUnits="userSpaceOnUse" id="color-3"><stop offset="0" stop-color="#ffffff"/><stop offset="1" stop-color="#fffde5"/></linearGradient><linearGradient x1="308.44031" y1="129.08716" x2="308.44031" y2="200.44865" gradientUnits="userSpaceOnUse" id="color-4"><stop offset="0" stop-color="#ffffff"/><stop offset="1" stop-color="#fffde5"/></linearGradient><linearGradient x1="180.32349" y1="143.69331" x2="180.32349" y2="232.58214" gradientUnits="userSpaceOnUse" id="color-5"><stop offset="0" stop-color="#ffffff"/><stop offset="1" stop-color="#fffde5"/></linearGradient><linearGradient x1="252.93692" y1="152.45698" x2="252.93692" y2="246.35367" gradientUnits="userSpaceOnUse" id="color-6"><stop offset="0" stop-color="#ffffff"/><stop offset="1" stop-color="#fffde5"/></linearGradient><linearGradient x1="206.61454" y1="173.74023" x2="206.61454" y2="247.60562" gradientUnits="userSpaceOnUse" id="color-7"><stop offset="0" stop-color="#ffffff"/><stop offset="1" stop-color="#fffde5"/></linearGradient><linearGradient x1="303.84979" y1="167.06313" x2="303.84979" y2="238.42462" gradientUnits="userSpaceOnUse" id="color-8"><stop offset="0" stop-color="#ffffff"/><stop offset="1" stop-color="#fffde5"/></linearGradient></defs><g transform="translate(-134.58021,-77.23146)"><g data-paper-data="{&quot;isPaintingLayer&quot;:true}" fill-rule="nonzero" stroke="none" stroke-linejoin="miter" stroke-miterlimit="10" stroke-dasharray="" stroke-dashoffset="0" style="mix-blend-mode: normal"><path d="M334.12643,133.77179c26.18979,50.67721 5.27896,112.4563 -46.70562,137.98741c-51.98458,25.53114 -115.35745,5.14622 -141.54725,-45.53098c-26.18979,-50.67718 -5.27896,-112.45627 46.70562,-137.98741c51.98458,-25.53114 115.35745,-5.14622 141.54725,45.53098z" fill="url(#color-1)" stroke-width="0" stroke-linecap="butt"/><path d="M169.68187,155.58688c0,-22.47167 18.2169,-40.68858 40.68858,-40.68858c22.47167,0 40.68858,18.2169 40.68858,40.68858c0,22.47167 -18.2169,40.68858 -40.68858,40.68858c-22.47167,0 -40.68858,-18.2169 -40.68858,-40.68858z" fill="url(#color-2)" stroke-width="0" stroke-linecap="butt"/><path d="M233.5316,146.82317c0,-19.01451 15.41427,-34.42877 34.42877,-34.42877c19.01451,0 34.42877,15.41427 34.42877,34.42877c0,19.01451 -15.41427,34.42877 -34.42877,34.42877c-19.01451,0 -34.42877,-15.41427 -34.42877,-34.42877z" fill="url(#color-3)" stroke-width="0" stroke-linecap="butt"/><path d="M272.75956,164.76788c0,-19.70594 15.97482,-35.68073 35.68073,-35.68073c19.70594,0 35.68073,15.97482 35.68073,35.68073c0,19.70594 -15.97482,35.68073 -35.68073,35.68073c-19.70594,0 -35.68073,-15.97482 -35.68073,-35.68073z" fill="url(#color-4)" stroke-width="0" stroke-linecap="butt"/><path d="M135.87905,188.13774c0,-24.54598 19.89846,-44.44443 44.44443,-44.44443c24.54598,0 44.44443,19.89846 44.44443,44.44443c0,24.54598 -19.89846,44.44443 -44.44443,44.44443c-24.54598,0 -44.44443,-19.89846 -44.44443,-44.44443z" fill="url(#color-5)" stroke-width="0" stroke-linecap="butt"/><path d="M205.98859,199.40532c0,-25.92884 21.0195,-46.94835 46.94835,-46.94835c25.92884,0 46.94835,21.0195 46.94835,46.94835c0,25.92884 -21.0195,46.94835 -46.94835,46.94835c-25.92884,0 -46.94835,-21.0195 -46.94835,-46.94835z" fill="url(#color-6)" stroke-width="0" stroke-linecap="butt"/><path d="M169.68187,210.67294c0,-20.39737 16.53534,-36.93271 36.93271,-36.93271c20.39737,0 36.93271,16.53534 36.93271,36.93271c0,20.39737 -16.53534,36.93271 -36.93271,36.93271c-20.39737,0 -36.93271,-16.53534 -36.93271,-36.93271z" fill="url(#color-7)" stroke-width="0" stroke-linecap="butt"/><path d="M268.16904,202.74386c0,-19.70594 15.97482,-35.68073 35.68073,-35.68073c19.70594,0 35.68073,15.97482 35.68073,35.68073c0,19.70594 -15.97482,35.68073 -35.68073,35.68073c-19.70594,0 -35.68073,-15.97482 -35.68073,-35.68073z" fill="url(#color-8)" stroke-width="0" stroke-linecap="butt"/><path d="M234.94323,201.1158c-2.31764,-1.08485 -4.1915,-2.62586 -5.62156,-4.62299c-1.40539,-2.02178 -2.10806,-4.0066 -2.10806,-5.95438c0,-1.94783 0.71505,-3.72305 2.14507,-5.32567c1.43003,-1.60262 3.37787,-3.45181 5.84345,-5.54756c2.19437,-1.82454 3.7724,-3.27924 4.73392,-4.36409c0.98623,-1.1095 1.47932,-2.05876 1.47932,-2.84778c0,-1.79989 -0.72732,-3.2669 -2.18203,-4.40111c-1.43003,-1.15885 -4.37646,-1.97248 -8.83918,-2.44094l-1.44237,-0.14794l-1.99713,3.62443l-5.84348,-2.88473l6.95297,-16.19896c2.56423,-0.46845 4.91885,-0.70268 7.06393,-0.70268c6.78038,0 12.35261,1.26975 16.7167,3.80933c4.38877,2.51491 6.73106,6.37353 7.02695,11.57596c0.14794,2.8108 -0.66569,5.19009 -2.44094,7.13787c-1.77525,1.92316 -4.27781,4.0066 -7.50774,6.25029c-2.24369,1.504 -3.82167,2.69981 -4.73392,3.58744c-0.88761,0.86296 -1.33144,1.65192 -1.33144,2.36696c0,0.78898 0.22189,1.70128 0.66569,2.73679c0.44381,1.0109 0.53011,1.44237 0.25887,1.29442l3.47649,-1.84918l3.06963,5.91742zM229.65463,205.47989l17.75222,-4.03125v17.60434l-17.75222,2.66282z" fill-opacity="0.06667" fill="#000000" stroke-width="1" stroke-linecap="square"/><path d="M234.94323,195.6072c-2.31764,-1.08485 -4.19153,-2.62586 -5.62156,-4.62299c-1.40539,-2.02178 -2.10806,-4.0066 -2.10806,-5.9544c0,-1.94783 0.71505,-3.72305 2.14507,-5.32567c1.43003,-1.60262 3.37787,-3.45181 5.84345,-5.54756c2.19437,-1.82454 3.77238,-3.27922 4.73392,-4.36406c0.98623,-1.1095 1.47932,-2.05876 1.47932,-2.84775c0,-1.79989 -0.72735,-3.2669 -2.18206,-4.40111c-1.43003,-1.15885 -4.37643,-1.97248 -8.83918,-2.44094l-1.44237,-0.14794l-1.99713,3.62443l-5.84345,-2.88473l6.95297,-16.19896c2.56423,-0.46845 4.91885,-0.70268 7.06393,-0.70268c6.78038,0 12.35261,1.26975 16.7167,3.80936c4.38877,2.51487 6.73106,6.37353 7.02695,11.57596c0.14794,2.8108 -0.66569,5.19009 -2.44094,7.13787c-1.77521,1.92316 -4.27781,4.0066 -7.50774,6.25029c-2.24369,1.504 -3.82167,2.69981 -4.73392,3.58744c-0.88761,0.86296 -1.33144,1.65192 -1.33144,2.36696c0,0.78898 0.22189,1.70124 0.66569,2.73679c0.44381,1.0109 0.53011,1.44237 0.25887,1.29442l3.47649,-1.84918l3.06963,5.91742zM229.65463,199.97127l17.75222,-4.03125v17.60434l-17.75222,2.66282z" fill="#000000" stroke-width="1" stroke-linecap="square"/></g></g></svg>