<svg version="1.1" xmlns="http://www.w3.org/2000/svg" xmlns:xlink="http://www.w3.org/1999/xlink" width="49.67229" height="68.05" viewBox="0,0,49.67229,68.05"><defs><linearGradient x1="252.8" y1="209.8" x2="252.8" y2="218.2" gradientUnits="userSpaceOnUse" id="color-1"><stop offset="0" stop-color="#000000" stop-opacity="0.30196"/><stop offset="1" stop-color="#000000" stop-opacity="0"/></linearGradient><linearGradient x1="227.2" y1="209.6" x2="227.2" y2="218" gradientUnits="userSpaceOnUse" id="color-2"><stop offset="0" stop-color="#000000" stop-opacity="0.30196"/><stop offset="1" stop-color="#000000" stop-opacity="0"/></linearGradient><linearGradient x1="240.1" y1="204.6" x2="240.1" y2="213" gradientUnits="userSpaceOnUse" id="color-3"><stop offset="0" stop-color="#000000" stop-opacity="0.30196"/><stop offset="1" stop-color="#000000" stop-opacity="0"/></linearGradient><linearGradient x1="224.54502" y1="164.01278" x2="215.17057" y2="164.01278" gradientUnits="userSpaceOnUse" id="color-4"><stop offset="0" stop-color="#000000" stop-opacity="0.20392"/><stop offset="1" stop-color="#000000" stop-opacity="0"/></linearGradient><linearGradient x1="248.37905" y1="164.01278" x2="239.51133" y2="164.01278" gradientUnits="userSpaceOnUse" id="color-5"><stop offset="0" stop-color="#000000" stop-opacity="0.20392"/><stop offset="1" stop-color="#000000" stop-opacity="0"/></linearGradient><linearGradient x1="231.77481" y1="164.01278" x2="239.37572" y2="164.01278" gradientUnits="userSpaceOnUse" id="color-6"><stop offset="0" stop-color="#000000" stop-opacity="0.30196"/><stop offset="1" stop-color="#000000" stop-opacity="0"/></linearGradient><linearGradient x1="256.15267" y1="164.01278" x2="263.75359" y2="164.01278" gradientUnits="userSpaceOnUse" id="color-7"><stop offset="0" stop-color="#000000" stop-opacity="0.30196"/><stop offset="1" stop-color="#000000" stop-opacity="0"/></linearGradient><linearGradient x1="224.54502" y1="181.76278" x2="215.17057" y2="181.76278" gradientUnits="userSpaceOnUse" id="color-8"><stop offset="0" stop-color="#000000" stop-opacity="0.20392"/><stop offset="1" stop-color="#000000" stop-opacity="0"/></linearGradient><linearGradient x1="248.37905" y1="181.76278" x2="239.51133" y2="181.76278" gradientUnits="userSpaceOnUse" id="color-9"><stop offset="0" stop-color="#000000" stop-opacity="0.20392"/><stop offset="1" stop-color="#000000" stop-opacity="0"/></linearGradient><linearGradient x1="231.77481" y1="181.76278" x2="239.37572" y2="181.76278" gradientUnits="userSpaceOnUse" id="color-10"><stop offset="0" stop-color="#000000" stop-opacity="0.30196"/><stop offset="1" stop-color="#000000" stop-opacity="0"/></linearGradient><linearGradient x1="256.15267" y1="181.76278" x2="263.75359" y2="181.76278" gradientUnits="userSpaceOnUse" id="color-11"><stop offset="0" stop-color="#000000" stop-opacity="0.30196"/><stop offset="1" stop-color="#000000" stop-opacity="0"/></linearGradient><linearGradient x1="224.54502" y1="199.51278" x2="215.17057" y2="199.51278" gradientUnits="userSpaceOnUse" id="color-12"><stop offset="0" stop-color="#000000" stop-opacity="0.20392"/><stop offset="1" stop-color="#000000" stop-opacity="0"/></linearGradient><linearGradient x1="248.37905" y1="199.51278" x2="239.51133" y2="199.51278" gradientUnits="userSpaceOnUse" id="color-13"><stop offset="0" stop-color="#000000" stop-opacity="0.20392"/><stop offset="1" stop-color="#000000" stop-opacity="0"/></linearGradient><linearGradient x1="231.77481" y1="199.51278" x2="239.37572" y2="199.51278" gradientUnits="userSpaceOnUse" id="color-14"><stop offset="0" stop-color="#000000" stop-opacity="0.30196"/><stop offset="1" stop-color="#000000" stop-opacity="0"/></linearGradient><linearGradient x1="256.15267" y1="199.51278" x2="263.75359" y2="199.51278" gradientUnits="userSpaceOnUse" id="color-15"><stop offset="0" stop-color="#000000" stop-opacity="0.30196"/><stop offset="1" stop-color="#000000" stop-opacity="0"/></linearGradient><linearGradient x1="222.475" y1="180" x2="231.80024" y2="180" gradientUnits="userSpaceOnUse" id="color-16"><stop offset="0" stop-color="#5a6168"/><stop offset="1" stop-color="#757e87"/></linearGradient><linearGradient x1="248.175" y1="180.1" x2="257.50024" y2="180.1" gradientUnits="userSpaceOnUse" id="color-17"><stop offset="0" stop-color="#5a6168"/><stop offset="1" stop-color="#757e87"/></linearGradient><radialGradient cx="240.00003" cy="181.75" r="18.04166" gradientUnits="userSpaceOnUse" id="color-18"><stop offset="0" stop-color="#000000" stop-opacity="0.50196"/><stop offset="1" stop-color="#000000" stop-opacity="0"/></radialGradient></defs><g transform="translate(-215.17057,-150.15)"><g data-paper-data="{&quot;isPaintingLayer&quot;:true}" fill-rule="nonzero" stroke="none" stroke-width="0" stroke-linecap="butt" stroke-linejoin="miter" stroke-miterlimit="10" stroke-dasharray="" stroke-dashoffset="0" style="mix-blend-mode: normal"><path d="M248.15715,218.2v-8.4h9.28571v8.4z" fill="url(#color-1)"/><path d="M222.55715,218v-8.4h9.28571v8.4z" fill="url(#color-2)"/><path d="M215.35715,213v-8.4h49.48571v8.4z" fill="url(#color-3)"/><path d="M259.64618,173.6821c-10.05249,0 -33.32193,0 -39.29237,0c-2.66628,0 -5.09901,-1.2708 -5.09901,-2.78109c0,-1.83086 0,-7.09303 0,-10.08144c0,-1.62348 2.38934,-2.78108 4.79908,-2.78108c5.77441,0 30.03742,0 40.19219,0c2.77718,0 4.49912,1.06817 4.49912,2.60726c0,3.25194 0,8.43237 0,10.25526c0,1.20104 -2.32238,2.78109 -5.09902,2.78109z" fill="#584b32"/><path d="M259.64618,171.99681c-10.05249,0 -33.32193,0 -39.29237,0c-2.66628,0 -5.09901,-1.2708 -5.09901,-2.78109c0,-1.83086 0,-7.09303 0,-10.08144c0,-1.62348 2.38934,-2.78108 4.79908,-2.78108c5.77441,0 30.03742,0 40.19219,0c2.77718,0 4.49912,1.06817 4.49912,2.60726c0,3.25194 0,8.43237 0,10.25526c0,1.20104 -2.32238,2.78109 -5.09902,2.78109z" fill="#68583b"/><path d="M259.67235,170.29484c-10.05249,0 -33.32193,0 -39.29237,0c-2.66628,0 -5.09901,-1.27079 -5.09901,-2.78108c0,-1.83086 0,-7.09303 0,-10.08144c0,-1.62348 2.38935,-2.78108 4.79908,-2.78108c5.77442,0 30.03743,0 40.19219,0c2.77718,0 4.49911,1.06818 4.49911,2.60727c0,3.25194 0,8.43237 0,10.25526c0,1.20105 -2.32237,2.78108 -5.099,2.78108z" fill="#89744e"/><path d="M215.17057,154.65983h9.37446v18.70591h-9.37446z" data-paper-data="{&quot;index&quot;:null}" fill="url(#color-4)"/><path d="M239.51133,154.65983h8.86773v18.70591h-8.86773z" data-paper-data="{&quot;index&quot;:null}" fill="url(#color-5)"/><path d="M239.37572,173.36572h-7.60091v-18.70591h7.60091z" fill="url(#color-6)"/><path d="M263.75359,173.36572h-7.60091v-18.70591h7.60091z" fill="url(#color-7)"/><path d="M264.82941,160.34351c0,0 -12.04709,0.29914 -18.71175,-2.12613c-5.48445,-1.99579 18.71175,-1.59459 18.71175,-1.59459z" fill-opacity="0.15294" fill="#000000"/><path d="M251.4973,173.27747h-30.40659c0,0 7.23235,-2.71464 9.82366,-3.18919c2.59132,-0.47455 7.75688,-1.93204 15.90498,-0.70871c8.1481,1.22332 4.67794,3.89791 4.67794,3.89791z" fill-opacity="0.15294" fill="#000000"/><path d="M264.82941,170.44264c0,0 -12.22265,-0.70871 -15.67108,-2.83483c-6.93426,-4.27531 -33.68114,2.83483 -33.68114,2.83483v-3.8979c0,0 1.38136,0.03087 6.81905,-0.56285c1.86578,-0.4473 4.85961,-1.32691 7.55512,-2.15552c2.03603,-0.62587 -14.43062,-2.4679 -14.43062,-2.4679c0,0 -0.096,-2.40333 -0.04376,-3.31385c0.03663,-0.63838 0.79515,-1.98326 0.79515,-1.98326c0,0 2.88963,1.24841 9.1276,1.27112c8.42951,0.03069 16.87173,-0.65161 16.56764,0.96932c-0.41828,2.22961 -3.39764,0.42321 -5.61786,1.91545c-1.74273,1.1713 1.68756,1.72088 1.91568,1.72088c9.53406,0 11.94489,1.95111 17.4621,2.66089c5.50048,0.70764 9.20215,-0.71193 9.20215,-0.71193z" fill-opacity="0.15294" fill="#000000"/><path d="M259.64618,191.4321c-10.05249,0 -33.32193,0 -39.29237,0c-2.66628,0 -5.09901,-1.2708 -5.09901,-2.78109c0,-1.83086 0,-7.09303 0,-10.08144c0,-1.62348 2.38934,-2.78108 4.79908,-2.78108c5.77441,0 30.03742,0 40.19219,0c2.77718,0 4.49912,1.06817 4.49912,2.60726c0,3.25194 0,8.43237 0,10.25526c0,1.20104 -2.32238,2.78109 -5.09902,2.78109z" fill="#584b32"/><path d="M259.64618,189.74681c-10.05249,0 -33.32193,0 -39.29237,0c-2.66628,0 -5.09901,-1.2708 -5.09901,-2.78109c0,-1.83086 0,-7.09303 0,-10.08144c0,-1.62348 2.38934,-2.78108 4.79908,-2.78108c5.77441,0 30.03742,0 40.19219,0c2.77718,0 4.49912,1.06817 4.49912,2.60726c0,3.25194 0,8.43237 0,10.25526c0,1.20104 -2.32238,2.78109 -5.09902,2.78109z" fill="#68583b"/><path d="M259.67235,188.04484c-10.05249,0 -33.32193,0 -39.29237,0c-2.66628,0 -5.09901,-1.27079 -5.09901,-2.78108c0,-1.83086 0,-7.09303 0,-10.08144c0,-1.62348 2.38935,-2.78108 4.79908,-2.78108c5.77442,0 30.03743,0 40.19219,0c2.77718,0 4.49911,1.06818 4.49911,2.60727c0,3.25194 0,8.43237 0,10.25526c0,1.20105 -2.32237,2.78108 -5.099,2.78108z" fill="#89744e"/><path d="M215.17057,172.40983h9.37446v18.70591h-9.37446z" data-paper-data="{&quot;index&quot;:null}" fill="url(#color-8)"/><path d="M239.51133,172.40983h8.86773v18.70591h-8.86773z" data-paper-data="{&quot;index&quot;:null}" fill="url(#color-9)"/><path d="M239.37572,191.11572h-7.60091v-18.70591h7.60091z" fill="url(#color-10)"/><path d="M263.75359,191.11572h-7.60091v-18.70591h7.60091z" fill="url(#color-11)"/><path d="M264.82941,178.09352c0,0 -12.04709,0.29914 -18.71175,-2.12613c-5.48445,-1.99579 18.71175,-1.59459 18.71175,-1.59459z" fill-opacity="0.15294" fill="#000000"/><path d="M251.4973,191.77747h-30.40659c0,0 7.23235,-2.71464 9.82366,-3.18919c2.59132,-0.47455 7.75688,-1.93204 15.90498,-0.70871c8.1481,1.22332 4.67794,3.89791 4.67794,3.89791z" fill-opacity="0.15294" fill="#000000"/><path d="M264.82941,188.19264c0,0 -12.22265,-0.70871 -15.67108,-2.83483c-6.93426,-4.27531 -33.68114,2.83483 -33.68114,2.83483v-3.8979c0,0 1.38136,0.03087 6.81905,-0.56285c1.86578,-0.4473 4.85961,-1.32691 7.55512,-2.15552c2.03603,-0.62587 -14.43062,-2.4679 -14.43062,-2.4679c0,0 -0.096,-2.40333 -0.04376,-3.31385c0.03663,-0.63838 0.79515,-1.98326 0.79515,-1.98326c0,0 2.88963,1.24841 9.1276,1.27112c8.42951,0.03069 16.87173,-0.65161 16.56764,0.96932c-0.41828,2.22961 -3.39764,0.42321 -5.61786,1.91545c-1.74273,1.1713 1.68756,1.72088 1.91568,1.72088c9.53406,0 11.94489,1.95111 17.4621,2.66089c5.50048,0.70764 9.20215,-0.71193 9.20215,-0.71193z" fill-opacity="0.15294" fill="#000000"/><path d="M259.64618,209.1821c-10.05249,0 -33.32193,0 -39.29237,0c-2.66628,0 -5.09901,-1.2708 -5.09901,-2.78109c0,-1.83086 0,-7.09303 0,-10.08144c0,-1.62348 2.38934,-2.78108 4.79908,-2.78108c5.77441,0 30.03742,0 40.19219,0c2.77718,0 4.49912,1.06817 4.49912,2.60726c0,3.25194 0,8.43237 0,10.25526c0,1.20104 -2.32238,2.78109 -5.09902,2.78109z" fill="#584b32"/><path d="M259.64618,207.49681c-10.05249,0 -33.32193,0 -39.29237,0c-2.66628,0 -5.09901,-1.2708 -5.09901,-2.78109c0,-1.83086 0,-7.09303 0,-10.08144c0,-1.62348 2.38934,-2.78108 4.79908,-2.78108c5.77441,0 30.03742,0 40.19219,0c2.77718,0 4.49912,1.06817 4.49912,2.60726c0,3.25194 0,8.43237 0,10.25526c0,1.20104 -2.32238,2.78109 -5.09902,2.78109z" fill="#68583b"/><path d="M259.67235,205.79484c-10.05249,0 -33.32193,0 -39.29237,0c-2.66628,0 -5.09901,-1.27079 -5.09901,-2.78108c0,-1.83086 0,-7.09303 0,-10.08144c0,-1.62348 2.38935,-2.78108 4.79908,-2.78108c5.77442,0 30.03743,0 40.19219,0c2.77718,0 4.49911,1.06818 4.49911,2.60727c0,3.25194 0,8.43237 0,10.25526c0,1.20105 -2.32237,2.78108 -5.099,2.78108z" fill="#89744e"/><path d="M215.17057,190.15983h9.37446v18.70591h-9.37446z" data-paper-data="{&quot;index&quot;:null}" fill="url(#color-12)"/><path d="M239.51133,190.15983h8.86773v18.70591h-8.86773z" data-paper-data="{&quot;index&quot;:null}" fill="url(#color-13)"/><path d="M239.37572,208.86572h-7.60091v-18.70591h7.60091z" fill="url(#color-14)"/><path d="M263.75359,208.86572h-7.60091v-18.70591h7.60091z" fill="url(#color-15)"/><path d="M264.82941,195.84352c0,0 -12.04709,0.29914 -18.71175,-2.12613c-5.48445,-1.99579 18.71175,-1.59459 18.71175,-1.59459z" fill-opacity="0.15294" fill="#000000"/><path d="M251.4973,208.77747h-30.40659c0,0 7.23235,-2.71464 9.82366,-3.18919c2.59132,-0.47455 7.75688,-1.93204 15.90498,-0.70871c8.1481,1.22332 4.67794,3.89791 4.67794,3.89791z" fill-opacity="0.15294" fill="#000000"/><path d="M264.82941,205.94264c0,0 -12.22265,-0.70871 -15.67108,-2.83483c-6.93426,-4.27531 -33.68114,2.83483 -33.68114,2.83483v-3.8979c0,0 1.38136,0.03087 6.81905,-0.56285c1.86578,-0.4473 4.85961,-1.32691 7.55512,-2.15552c2.03603,-0.62587 -14.43062,-2.4679 -14.43062,-2.4679c0,0 -0.096,-2.40333 -0.04376,-3.31385c0.03663,-0.63838 0.79515,-1.98326 0.79515,-1.98326c0,0 2.88963,1.24841 9.1276,1.27112c8.42951,0.03069 16.87173,-0.65161 16.56764,0.96932c-0.41828,2.22961 -3.39764,0.42321 -5.61786,1.91545c-1.74273,1.1713 1.68756,1.72088 1.91568,1.72088c9.53406,0 11.94489,1.95111 17.4621,2.66089c5.50048,0.70764 9.20215,-0.71193 9.20215,-0.71193z" fill-opacity="0.15294" fill="#000000"/><path d="M231.80024,209.85h-9.32523v-59.7h2.89586v2.2l3.31071,0.01362l-0.01071,-2.21362h3.12937z" fill="url(#color-16)"/><path d="M257.50024,209.95h-9.32523v-59.7h2.89586v2.2l3.31071,0.01362l-0.01072,-2.21362h3.12938z" fill="url(#color-17)"/><path d="M254.47018,209.77917h-3.53715v-57.35h3.53715z" fill-opacity="0.20392" fill="#000000"/><path d="M228.74542,209.77917h-3.53715v-57.35h3.53715z" fill-opacity="0.20392" fill="#000000"/><path d="M231.80024,213.60402h-9.32523v-6.06364h2.89586v2.2l3.31071,0.01362l-0.01072,-2.21362h3.12938z" fill="#42484e"/><path d="M257.52751,213.69493h-9.32523v-6.06364h2.89586v2.2l3.31071,0.01362l-0.01072,-2.21362h3.12938z" fill="#42484e"/><path d="M258.04167,181.75c0,9.92475 -8.07752,17.97036 -18.04166,17.97036c-9.96414,0 -18.04167,-8.0456 -18.04167,-17.97036c0,-9.92475 8.07754,-17.97036 18.04167,-17.97036c9.96414,0 18.04166,8.0456 18.04166,17.97036z" fill="url(#color-18)"/><path d="M226.1667,183.33333c0,-7.63994 6.1934,-13.83334 13.83334,-13.83334c7.63994,0 13.83334,6.1934 13.83334,13.83334c0,7.63994 -6.1934,13.83334 -13.83334,13.83334c-7.63994,0 -13.83334,-6.1934 -13.83334,-13.83334z" fill="#cacaca"/><path d="M226.16667,180c0,-7.63994 6.19339,-13.83333 13.83333,-13.83333c7.63994,0 13.83333,6.19339 13.83333,13.83333c0,7.63994 -6.19339,13.83333 -13.83333,13.83333c-7.63994,0 -13.83333,-6.19339 -13.83333,-13.83333z" fill="#ffffff"/><path d="M230.33334,180c0,-5.33875 4.32791,-9.66666 9.66666,-9.66666c5.33875,0 9.66666,4.32791 9.66666,9.66666c0,5.33875 -4.32791,9.66666 -9.66666,9.66666c-5.33875,0 -9.66666,-4.32791 -9.66666,-9.66666z" fill="#328052"/></g></g></svg>