<svg version="1.1" xmlns="http://www.w3.org/2000/svg" xmlns:xlink="http://www.w3.org/1999/xlink" width="38.94948" height="326.16938" viewBox="0,0,38.94948,326.16938"><defs><linearGradient x1="251.6604" y1="164.79052" x2="241.00002" y2="164.79052" gradientUnits="userSpaceOnUse" id="color-1"><stop offset="0" stop-color="#000000" stop-opacity="0.21176"/><stop offset="1" stop-color="#000000" stop-opacity="0"/></linearGradient><linearGradient x1="227.00002" y1="163.90997" x2="237.6604" y2="163.90997" gradientUnits="userSpaceOnUse" id="color-2"><stop offset="0" stop-color="#000000" stop-opacity="0.21176"/><stop offset="1" stop-color="#000000" stop-opacity="0"/></linearGradient></defs><g transform="translate(-220.57241,-4.91531)"><g data-paper-data="{&quot;isPaintingLayer&quot;:true}" fill-rule="nonzero" stroke="none" stroke-width="0" stroke-linecap="butt" stroke-linejoin="miter" stroke-miterlimit="10" stroke-dasharray="" stroke-dashoffset="0" style="mix-blend-mode: normal"><path d="M226.98652,275.64365v-270.27027h28.52853v270.27027z" fill="#d5cec0"/><path d="M226.48652,323.64365v-172.77027h28.52853v172.77027z" fill="#f2e9da"/><path d="M241.00002,322.99701v-316.41296h10.66038v316.41296z" data-paper-data="{&quot;index&quot;:null}" fill="url(#color-1)"/><path d="M227.00002,321.82293v-315.82593h10.66038v315.82593z" fill="url(#color-2)"/><path d="M220.90573,4.91531h10c0,0 -0.7503,183.30365 -0.5,294.06256c0.03569,16.07738 -1.28245,22.6369 10.54961,22.34895c11.23574,-0.27344 9.6381,-5.15309 9.4578,-20.04498c-0.16996,-14.03722 -0.50741,-296.36653 -0.50741,-296.36653h9.5v315.9294c0,0 0.01879,0.53536 0.02181,1.85507c0.0121,5.29161 -2.39607,8.32053 -7.35593,8.33127c-7.61665,0.01649 -19.46803,0.04671 -23.8325,0.05362c-5.0753,0.00802 -7.6667,-3.11896 -7.6667,-7.61925c0,-1.5144 0,-2.62069 0,-2.62069z" fill="#6d533e"/><path d="M221.00003,149.9044h10c0,0 -0.7503,100.97224 -0.5,161.98344c0.03569,8.85617 -1.28245,12.46947 10.54961,12.31085c11.23574,-0.15063 9.6381,-2.83857 9.4578,-11.04171c-0.16996,-7.73236 -0.50741,-163.25257 -0.50741,-163.25257h9.5v174.02872c0,0 0.01879,0.2949 0.02181,1.02186c0.0121,2.91487 -2.39607,4.58334 -7.35593,4.58925c-7.61665,0.00908 -19.46803,0.02573 -23.8325,0.02953c-5.0753,0.00442 -7.6667,-1.71807 -7.6667,-4.19704c0,-0.8342 0,-1.4436 0,-1.4436z" fill="#85654c"/></g></g></svg>