<svg version="1.1" xmlns="http://www.w3.org/2000/svg" xmlns:xlink="http://www.w3.org/1999/xlink" width="35.96037" height="23.73346" viewBox="0,0,35.96037,23.73346"><defs><linearGradient x1="240.34838" y1="187.31895" x2="240.34838" y2="196.03016" gradientUnits="userSpaceOnUse" id="color-1"><stop offset="0" stop-color="#000000" stop-opacity="0.23529"/><stop offset="1" stop-color="#000000" stop-opacity="0"/></linearGradient><radialGradient cx="240.11002" cy="190.20582" r="17.98018" gradientUnits="userSpaceOnUse" id="color-2"><stop offset="0" stop-color="#000000" stop-opacity="0.50196"/><stop offset="1" stop-color="#000000" stop-opacity="0"/></radialGradient></defs><g transform="translate(-222.12984,-172.29669)"><g data-paper-data="{&quot;isPaintingLayer&quot;:true}" fill-rule="nonzero" stroke="none" stroke-width="0" stroke-linecap="butt" stroke-linejoin="miter" stroke-miterlimit="10" stroke-dasharray="" stroke-dashoffset="0" style="mix-blend-mode: normal"><path d="M227.10399,196.03016v-8.71122h26.48878v8.71122z" fill="url(#color-1)"/><path d="M258.09022,190.20582h-35.96037c0,0 0.06066,-1.70308 0.17794,-2.52944c1.2338,-8.69314 8.73407,-15.37969 17.80225,-15.37969c9.26626,0 16.89535,6.98186 17.87406,15.9522c0.07013,0.64272 0.1061,1.95693 0.1061,1.95693z" fill="url(#color-2)"/><path d="M226.63826,190.65384c0,0 0.02163,-0.89123 0.06391,-1.32827c0.66772,-6.90245 6.48507,-12.29835 13.56271,-12.29835c6.88608,0 12.57915,5.10777 13.49725,11.74127c0.08529,0.61625 0.12938,1.88537 0.12938,1.88537z" fill="#cbc1b7"/><path d="M227.82939,189.77836c0,0 0.55447,-5.00291 4.38339,-8.38562c3.72806,-3.2936 8.09974,-3.1446 8.09974,-3.1446c0,0 -2.48393,1.05774 -4.50034,5.61047c-1.29531,2.9246 -1.31241,5.91975 -1.31241,5.91975z" fill-opacity="0.15294" fill="#000000"/></g></g></svg>