<svg version="1.1" xmlns="http://www.w3.org/2000/svg" xmlns:xlink="http://www.w3.org/1999/xlink" width="484" height="32" viewBox="0,0,484,32"><g transform="translate(3,0.88353)"><g data-paper-data="{&quot;isPaintingLayer&quot;:true}" fill-rule="nonzero" stroke="none" stroke-linejoin="miter" stroke-miterlimit="10" stroke-dasharray="" stroke-dashoffset="0" style="mix-blend-mode: normal"><path d="M455.70054,14.71422c1.05002,0 1.98374,0.19605 2.80116,0.58814c0.81742,0.3921 1.45541,0.94701 1.91396,1.66475c0.45855,0.71109 0.68783,1.51522 0.68783,2.41239c0,1.10983 -0.32896,2.13991 -0.98689,3.09025c-0.65128,0.95034 -1.53516,1.70794 -2.65163,2.27283c-1.10983,0.55824 -2.31935,0.83736 -3.62855,0.83736c-1.42883,0 -2.84103,-0.36551 -4.23663,-1.09654l1.14638,-3.33946c2.33264,1.3092 4.50911,2.18643 6.5294,2.6317c0.17279,-0.56488 0.25918,-1.14306 0.25918,-1.73453c0,-1.56839 -0.64463,-2.7347 -1.9339,-3.49896c-1.28262,-0.76425 -3.23978,-1.14638 -5.87147,-1.14638l0.63799,-9.29068h10.04829v5.4827h-0.81742l-0.06978,-0.99685l-7.53622,-1.3956l-0.45855,4.15688c0.65128,-0.18608 1.3524,-0.33893 2.10336,-0.45855c0.75761,-0.11962 1.44544,-0.17943 2.06349,-0.17943z" fill="#ffece6" stroke-width="1" stroke-linecap="square"/><path d="M-3,31.11647v-32h484v32z" fill="none" stroke-width="0" stroke-linecap="butt"/></g></g></svg>