<svg version="1.1" xmlns="http://www.w3.org/2000/svg" xmlns:xlink="http://www.w3.org/1999/xlink" width="88.15968" height="68.05" viewBox="0,0,88.15968,68.05"><defs><linearGradient x1="226.62013" y1="207.79584" x2="226.62013" y2="217.29584" gradientUnits="userSpaceOnUse" id="color-1"><stop offset="0" stop-color="#000000" stop-opacity="0.23529"/><stop offset="1" stop-color="#000000" stop-opacity="0"/></linearGradient><linearGradient x1="236.50137" y1="146.46012" x2="236.50137" y2="207.66012" gradientUnits="userSpaceOnUse" id="color-2"><stop offset="0" stop-color="#616e6e"/><stop offset="1" stop-color="#879a9a"/></linearGradient><linearGradient x1="224.54502" y1="181.63541" x2="215.17057" y2="181.63541" gradientUnits="userSpaceOnUse" id="color-3"><stop offset="0" stop-color="#000000" stop-opacity="0.20392"/><stop offset="1" stop-color="#000000" stop-opacity="0"/></linearGradient><linearGradient x1="248.37905" y1="181.63541" x2="239.51133" y2="181.63541" gradientUnits="userSpaceOnUse" id="color-4"><stop offset="0" stop-color="#000000" stop-opacity="0.20392"/><stop offset="1" stop-color="#000000" stop-opacity="0"/></linearGradient><linearGradient x1="231.77481" y1="181.63541" x2="239.37572" y2="181.63541" gradientUnits="userSpaceOnUse" id="color-5"><stop offset="0" stop-color="#000000" stop-opacity="0.30196"/><stop offset="1" stop-color="#000000" stop-opacity="0"/></linearGradient><linearGradient x1="256.15267" y1="181.63541" x2="263.75359" y2="181.63541" gradientUnits="userSpaceOnUse" id="color-6"><stop offset="0" stop-color="#000000" stop-opacity="0.30196"/><stop offset="1" stop-color="#000000" stop-opacity="0"/></linearGradient><linearGradient x1="192.6709" y1="200.18172" x2="192.6709" y2="196.38172" gradientUnits="userSpaceOnUse" id="color-7"><stop offset="0" stop-color="#000000" stop-opacity="0.23529"/><stop offset="1" stop-color="#000000" stop-opacity="0"/></linearGradient><linearGradient x1="192.6709" y1="185.06506" x2="192.6709" y2="192.78172" gradientUnits="userSpaceOnUse" id="color-8"><stop offset="0" stop-color="#000000" stop-opacity="0.23529"/><stop offset="1" stop-color="#000000" stop-opacity="0"/></linearGradient><linearGradient x1="192.67147" y1="151.35077" x2="192.67147" y2="159.06743" gradientUnits="userSpaceOnUse" id="color-9"><stop offset="0" stop-color="#000000" stop-opacity="0.23529"/><stop offset="1" stop-color="#000000" stop-opacity="0"/></linearGradient><linearGradient x1="252.80001" y1="209.8" x2="252.80001" y2="218.2" gradientUnits="userSpaceOnUse" id="color-10"><stop offset="0" stop-color="#000000" stop-opacity="0.30196"/><stop offset="1" stop-color="#000000" stop-opacity="0"/></linearGradient><linearGradient x1="227.20001" y1="209.6" x2="227.20001" y2="218" gradientUnits="userSpaceOnUse" id="color-11"><stop offset="0" stop-color="#000000" stop-opacity="0.30196"/><stop offset="1" stop-color="#000000" stop-opacity="0"/></linearGradient><linearGradient x1="222.47502" y1="180" x2="231.80026" y2="180" gradientUnits="userSpaceOnUse" id="color-12"><stop offset="0" stop-color="#5a6168"/><stop offset="1" stop-color="#757e87"/></linearGradient><linearGradient x1="248.17501" y1="180.1" x2="257.50026" y2="180.1" gradientUnits="userSpaceOnUse" id="color-13"><stop offset="0" stop-color="#5a6168"/><stop offset="1" stop-color="#757e87"/></linearGradient></defs><g transform="translate(-181.64169,-150.15)"><g data-paper-data="{&quot;isPaintingLayer&quot;:true}" fill-rule="nonzero" stroke="none" stroke-width="0" stroke-linecap="butt" stroke-linejoin="miter" stroke-miterlimit="10" stroke-dasharray="" stroke-dashoffset="0" style="mix-blend-mode: normal"><path d="M183.48895,217.29584v-9.5h86.26239v9.5z" data-paper-data="{&quot;index&quot;:null}" fill="url(#color-1)"/><path d="M265.94305,211.85001c-6.97581,0 -66.90855,0 -79.2,0c-2.27237,0 -3.6,-1.68 -3.6,-3.6c0,-7.68 0,-48.6 0,-48.6h86.6c0,0 0,40.56898 0,48.4c0,2.0149 -1.7668,3.8 -3.8,3.8z" data-paper-data="{&quot;index&quot;:null}" fill="#616e6e"/><path d="M266.00136,207.66012c-6.97581,0 -66.90855,0 -79.2,0c-2.27237,0 -3.6,-1.68 -3.6,-3.6c0,-7.68 0,-48.6 0,-48.6c0,0 72.2186,0 82.36669,0c2.82669,0 4.23332,1.57703 4.23332,4.40373c0,11.03776 0,37.8501 0,43.99628c0,2.0149 -1.7668,3.8 -3.8,3.8z" data-paper-data="{&quot;index&quot;:null}" fill="url(#color-2)"/><path d="M215.17057,155.52655h9.37446v52.21774h-9.37446z" data-paper-data="{&quot;index&quot;:null}" fill="url(#color-3)"/><path d="M239.51133,155.52655h8.86773v52.21774h-8.86773z" data-paper-data="{&quot;index&quot;:null}" fill="url(#color-4)"/><path d="M239.37572,207.74423h-7.60091v-52.21773h7.60091z" fill="url(#color-5)"/><path d="M263.75359,207.74423h-7.60091v-52.21773h7.60091z" fill="url(#color-6)"/><path d="M252.63593,162.60888c1.67025,-0.01645 3.1282,1.09134 3.1282,2.01511c0,1.36778 0,5.31341 0,7.75042c0,1.14772 -0.99593,2.01511 -3.04672,2.01511c-1.87479,0 -4.12898,0 -5.26252,0c-2.1786,0 -3.3237,-0.95087 -3.3237,-2.17012c0,-2.39523 0,-6.09055 0,-7.44041c0,-1.24133 1.38262,-2.17012 3.60067,-2.17012c0.92272,0 2.98472,0.0189 4.90408,0z" data-paper-data="{&quot;index&quot;:null}" fill-opacity="0.2" fill="#000000"/><path d="M252.63592,175.48013c1.67025,-0.01645 3.1282,1.09134 3.1282,2.01511c0,1.36778 0,5.31341 0,7.75042c0,1.14772 -0.99593,2.01511 -3.04673,2.01511c-1.87479,0 -4.12897,0 -5.26252,0c-2.1786,0 -3.3237,-0.95087 -3.3237,-2.17012c0,-2.39523 0,-6.09055 0,-7.44041c0,-1.24134 1.38262,-2.17012 3.60067,-2.17012c0.92271,0 2.98473,0.0189 4.90409,0z" data-paper-data="{&quot;index&quot;:null}" fill-opacity="0.2" fill="#000000"/><path d="M252.63593,188.35136c1.67025,-0.01645 3.1282,1.09134 3.1282,2.01511c0,1.36778 0,5.31341 0,7.75042c0,1.14772 -0.99593,2.01511 -3.04672,2.01511c-1.87479,0 -4.12898,0 -5.26252,0c-2.1786,0 -3.3237,-0.95087 -3.3237,-2.17012c0,-2.39523 0,-6.09055 0,-7.44041c0,-1.24133 1.38262,-2.17012 3.60067,-2.17012c0.92272,0 2.98472,0.0189 4.90408,0z" data-paper-data="{&quot;index&quot;:null}" fill-opacity="0.2" fill="#000000"/><path d="M255.7641,155.65189c0,0 0,2.7901 0,3.90664c0,1.14773 -0.99593,2.01511 -3.04673,2.01511c-1.87479,0 -4.12897,0 -5.26252,0c-2.1786,0 -3.32371,-0.95087 -3.32371,-2.17012c0,-1.12633 0,-3.75163 0,-3.75163z" data-paper-data="{&quot;index&quot;:null}" fill-opacity="0.2" fill="#000000"/><path d="M244.13115,207.25033c0,0 0,-2.6253 0,-3.75163c0,-1.21925 1.14511,-2.17012 3.32371,-2.17012c1.13355,0 3.38773,0 5.26252,0c2.05081,0 3.04673,0.86738 3.04673,2.01511c0,1.11654 0,3.90664 0,3.90664z" data-paper-data="{&quot;index&quot;:null}" fill-opacity="0.2" fill="#000000"/><path d="M265.85817,156.31627c1.67024,-0.01645 3.1282,1.09134 3.1282,2.01511c0,1.36778 0,5.31341 0,7.75042c0,1.14772 -0.99593,2.01511 -3.04673,2.01511c-1.87479,0 -4.12897,0 -5.26252,0c-2.1786,0 -3.3237,-0.95087 -3.3237,-2.17012c0,-2.39523 0,-6.09055 0,-7.44041c0,-1.24134 1.38261,-2.17012 3.60067,-2.17012c0.92272,0 2.98472,0.0189 4.90408,0z" data-paper-data="{&quot;index&quot;:null}" fill-opacity="0.2" fill="#000000"/><path d="M265.85817,169.18752c1.67024,-0.01645 3.1282,1.09134 3.1282,2.01511c0,1.36778 0,5.31341 0,7.75042c0,1.14772 -0.99593,2.01511 -3.04673,2.01511c-1.87479,0 -4.12897,0 -5.26252,0c-2.1786,0 -3.3237,-0.95087 -3.3237,-2.17012c0,-2.39523 0,-6.09055 0,-7.44041c0,-1.24133 1.38261,-2.17012 3.60067,-2.17012c0.92272,0 2.98472,0.0189 4.90408,0z" data-paper-data="{&quot;index&quot;:null}" fill-opacity="0.2" fill="#000000"/><path d="M265.85817,182.05876c1.67024,-0.01645 3.1282,1.09134 3.1282,2.01511c0,1.36778 0,5.31341 0,7.75042c0,1.14772 -0.99593,2.01511 -3.04673,2.01511c-1.87479,0 -4.12897,0 -5.26252,0c-2.1786,0 -3.3237,-0.95087 -3.3237,-2.17012c0,-2.39524 0,-6.09056 0,-7.44041c0,-1.24133 1.38261,-2.17012 3.60067,-2.17012c0.92272,0 2.98472,0.0189 4.90408,0z" data-paper-data="{&quot;index&quot;:null}" fill-opacity="0.2" fill="#000000"/><path d="M265.85814,194.93922c1.67024,-0.01645 3.1282,1.09134 3.1282,2.01511c0,1.36778 0,5.3134 0,7.75042c0,1.14772 -0.99593,2.01511 -3.04672,2.01511c-1.87479,0 -4.12897,0 -5.26252,0c-2.1786,0 -3.32371,-0.95087 -3.32371,-2.17012c0,-2.39523 0,-6.09055 0,-7.44041c0,-1.24133 1.38262,-2.17012 3.60068,-2.17012c0.92271,0 2.98473,0.0189 4.90409,0z" data-paper-data="{&quot;index&quot;:null}" fill-opacity="0.2" fill="#000000"/><path d="M225.94412,162.52812c1.67024,-0.01645 3.1282,1.09134 3.1282,2.01511c0,1.36778 0,5.31341 0,7.75042c0,1.14772 -0.99593,2.01511 -3.04672,2.01511c-1.87479,0 -4.12897,0 -5.26252,0c-2.1786,0 -3.3237,-0.95087 -3.3237,-2.17012c0,-2.39523 0,-6.09055 0,-7.44041c0,-1.24134 1.38261,-2.17012 3.60067,-2.17012c0.92272,0 2.98472,0.0189 4.90408,0z" data-paper-data="{&quot;index&quot;:null}" fill-opacity="0.2" fill="#000000"/><path d="M225.94412,175.39936c1.67024,-0.01645 3.1282,1.09134 3.1282,2.01511c0,1.36778 0,5.31341 0,7.75042c0,1.14772 -0.99593,2.01511 -3.04672,2.01511c-1.87479,0 -4.12897,0 -5.26252,0c-2.1786,0 -3.3237,-0.95087 -3.3237,-2.17012c0,-2.39523 0,-6.09055 0,-7.44041c0,-1.24133 1.38261,-2.17012 3.60067,-2.17012c0.92272,0 2.98472,0.0189 4.90408,0z" data-paper-data="{&quot;index&quot;:null}" fill-opacity="0.2" fill="#000000"/><path d="M225.94412,188.2706c1.67024,-0.01645 3.1282,1.09134 3.1282,2.01511c0,1.36778 0,5.31341 0,7.75042c0,1.14772 -0.99593,2.01511 -3.04672,2.01511c-1.87479,0 -4.12897,0 -5.26252,0c-2.1786,0 -3.3237,-0.95087 -3.3237,-2.17012c0,-2.39524 0,-6.09056 0,-7.44041c0,-1.24133 1.38261,-2.17012 3.60067,-2.17012c0.92272,0 2.98472,0.0189 4.90408,0z" data-paper-data="{&quot;index&quot;:null}" fill-opacity="0.2" fill="#000000"/><path d="M229.0723,155.57113c0,0 0,2.7901 0,3.90664c0,1.14772 -0.99592,2.01511 -3.04672,2.01511c-1.87479,0 -4.12897,0 -5.26252,0c-2.1786,0 -3.3237,-0.95087 -3.3237,-2.17012c0,-1.12633 0,-3.75163 0,-3.75163z" data-paper-data="{&quot;index&quot;:null}" fill-opacity="0.2" fill="#000000"/><path d="M217.43935,207.16957c0,0 0,-2.62531 0,-3.75163c0,-1.21925 1.1451,-2.17012 3.3237,-2.17012c1.13354,0 3.38773,0 5.26252,0c2.0508,0 3.04672,0.86738 3.04672,2.01511c0,1.11654 0,3.90664 0,3.90664z" data-paper-data="{&quot;index&quot;:null}" fill-opacity="0.2" fill="#000000"/><path d="M239.16636,156.23552c1.67025,-0.01645 3.1282,1.09134 3.1282,2.01511c0,1.36778 0,5.31341 0,7.75042c0,1.14772 -0.99593,2.01511 -3.04673,2.01511c-1.87479,0 -4.12898,0 -5.26252,0c-2.1786,0 -3.3237,-0.95087 -3.3237,-2.17012c0,-2.39523 0,-6.09055 0,-7.44041c0,-1.24133 1.38262,-2.17012 3.60067,-2.17012c0.92271,0 2.98473,0.0189 4.90409,0z" data-paper-data="{&quot;index&quot;:null}" fill-opacity="0.2" fill="#000000"/><path d="M239.16636,169.10675c1.67025,-0.01645 3.1282,1.09134 3.1282,2.01511c0,1.36778 0,5.31341 0,7.75042c0,1.14772 -0.99593,2.01511 -3.04673,2.01511c-1.87479,0 -4.12898,0 -5.26252,0c-2.1786,0 -3.3237,-0.95087 -3.3237,-2.17012c0,-2.39523 0,-6.09055 0,-7.44041c0,-1.24134 1.38262,-2.17012 3.60067,-2.17012c0.92271,0 2.98473,0.0189 4.90409,0z" data-paper-data="{&quot;index&quot;:null}" fill-opacity="0.2" fill="#000000"/><path d="M239.16636,181.97799c1.67025,-0.01645 3.1282,1.09134 3.1282,2.01511c0,1.36778 0,5.3134 0,7.75042c0,1.14772 -0.99593,2.01511 -3.04673,2.01511c-1.87479,0 -4.12898,0 -5.26252,0c-2.1786,0 -3.3237,-0.95087 -3.3237,-2.17012c0,-2.39523 0,-6.09055 0,-7.44041c0,-1.24133 1.38262,-2.17012 3.60067,-2.17012c0.92271,0 2.98473,0.0189 4.90409,0z" data-paper-data="{&quot;index&quot;:null}" fill-opacity="0.2" fill="#000000"/><path d="M239.16636,194.85846c1.67025,-0.01645 3.1282,1.09133 3.1282,2.01511c0,1.36778 0,5.31341 0,7.75042c0,1.14772 -0.99593,2.01511 -3.04673,2.01511c-1.87479,0 -4.12898,0 -5.26252,0c-2.1786,0 -3.3237,-0.95087 -3.3237,-2.17012c0,-2.39523 0,-6.09056 0,-7.44041c0,-1.24133 1.38262,-2.17012 3.60067,-2.17012c0.92271,0 2.98473,0.0189 4.90409,0z" data-paper-data="{&quot;index&quot;:null}" fill-opacity="0.2" fill="#000000"/><path d="M212.39212,156.23552c1.67025,-0.01645 3.1282,1.09134 3.1282,2.01511c0,1.36778 0,5.31341 0,7.75042c0,1.14772 -0.99592,2.01511 -3.04672,2.01511c-1.87479,0 -4.12897,0 -5.26252,0c-2.1786,0 -3.3237,-0.95087 -3.3237,-2.17012c0,-2.39523 0,-6.09055 0,-7.44041c0,-1.24133 1.38261,-2.17012 3.60067,-2.17012c0.92271,0 2.98473,0.0189 4.90409,0z" data-paper-data="{&quot;index&quot;:null}" fill-opacity="0.2" fill="#000000"/><path d="M212.39212,169.10675c1.67025,-0.01645 3.1282,1.09134 3.1282,2.01511c0,1.36778 0,5.31341 0,7.75042c0,1.14772 -0.99592,2.01511 -3.04672,2.01511c-1.87479,0 -4.12897,0 -5.26252,0c-2.1786,0 -3.3237,-0.95087 -3.3237,-2.17012c0,-2.39523 0,-6.09055 0,-7.44041c0,-1.24134 1.38261,-2.17012 3.60067,-2.17012c0.92271,0 2.98473,0.0189 4.90409,0z" data-paper-data="{&quot;index&quot;:null}" fill-opacity="0.2" fill="#000000"/><path d="M212.39212,181.97799c1.67025,-0.01645 3.1282,1.09134 3.1282,2.01511c0,1.36778 0,5.3134 0,7.75042c0,1.14773 -0.99592,2.01511 -3.04672,2.01511c-1.87479,0 -4.12897,0 -5.26252,0c-2.1786,0 -3.3237,-0.95087 -3.3237,-2.17012c0,-2.39523 0,-6.09055 0,-7.44041c0,-1.24133 1.38261,-2.17012 3.60067,-2.17012c0.92271,0 2.98473,0.0189 4.90409,0z" data-paper-data="{&quot;index&quot;:null}" fill-opacity="0.2" fill="#000000"/><path d="M212.39212,194.85846c1.67025,-0.01645 3.1282,1.09133 3.1282,2.01511c0,1.36778 0,5.31341 0,7.75042c0,1.14772 -0.99592,2.01511 -3.04672,2.01511c-1.87479,0 -4.12897,0 -5.26252,0c-2.1786,0 -3.3237,-0.95087 -3.3237,-2.17012c0,-2.39523 0,-6.09056 0,-7.44041c0,-1.24133 1.38261,-2.17012 3.60067,-2.17012c0.92271,0 2.98473,0.0189 4.90409,0z" data-paper-data="{&quot;index&quot;:null}" fill-opacity="0.2" fill="#000000"/><path d="M202.12887,155.09345v51.65h-18.98717v-51.52843z" data-paper-data="{&quot;index&quot;:null}" fill="#c98365"/><path d="M199.09046,207.33797c-2.32254,0 -9.57743,0 -13.45327,0c-1.47625,0 -2.4999,-0.97249 -2.4999,-2.54531c0,-1.31244 0,-4.62135 0,-4.62135h18.97223c0,0 0,3.00061 0,4.28802c0,1.28741 -1.6165,2.87865 -3.01906,2.87865z" data-paper-data="{&quot;index&quot;:null}" fill="#c7cfd0"/><path d="M202.19301,196.38172v3.8h-19.04419v-3.8z" data-paper-data="{&quot;index&quot;:null}" fill="url(#color-7)"/><path d="M196.16362,205.02101c-0.99972,0 -1.81016,-0.86345 -1.81016,-1.92857c0,-1.06512 0.81043,-1.92857 1.81016,-1.92857c0.99972,0 1.81016,0.86345 1.81016,1.92857c0,1.06512 -0.81043,1.92857 -1.81016,1.92857z" data-paper-data="{&quot;index&quot;:null}" fill-opacity="0.2" fill="#000000"/><path d="M192.00695,203.44958c-0.55541,0 -1.00564,-0.4797 -1.00564,-1.07143c0,-0.59173 0.45024,-1.07143 1.00564,-1.07143c0.5554,0 1.00565,0.4797 1.00565,1.07143c0,0.59174 -0.45024,1.07143 -1.00565,1.07143z" data-paper-data="{&quot;index&quot;:null}" fill-opacity="0.2" fill="#000000"/><path d="M192.67739,206.44958c-0.5554,0 -1.00565,-0.4797 -1.00565,-1.07143c0,-0.59173 0.45024,-1.07143 1.00565,-1.07143c0.55541,0 1.00565,0.4797 1.00565,1.07143c0,0.59174 -0.45024,1.07143 -1.00565,1.07143z" data-paper-data="{&quot;index&quot;:null}" fill-opacity="0.2" fill="#000000"/><path d="M188.72186,205.7353c-0.59242,0 -1.07268,-0.51168 -1.07268,-1.14286c0,-0.63118 0.48025,-1.14285 1.07268,-1.14285c0.59242,0 1.07268,0.51167 1.07268,1.14285c0,0.63119 -0.48025,1.14286 -1.07268,1.14286z" data-paper-data="{&quot;index&quot;:null}" fill-opacity="0.2" fill="#000000"/><path d="M185.9731,204.02101c-0.70351,0 -1.27383,-0.60761 -1.27383,-1.35714c0,-0.74953 0.57032,-1.35715 1.27383,-1.35715c0.70351,0 1.27381,0.60762 1.27381,1.35715c0,0.74953 -0.5703,1.35714 -1.27381,1.35714z" data-paper-data="{&quot;index&quot;:null}" fill-opacity="0.2" fill="#000000"/><path d="M185.83902,206.87815c-0.48134,0 -0.87156,-0.41574 -0.87156,-0.92857c0,-0.51283 0.39022,-0.92857 0.87156,-0.92857c0.48134,0 0.87156,0.41574 0.87156,0.92857c0,0.51283 -0.39022,0.92857 -0.87156,0.92857z" data-paper-data="{&quot;index&quot;:null}" fill-opacity="0.2" fill="#000000"/><path d="M198.77829,206.73529c-0.51838,0 -0.9386,-0.44771 -0.9386,-1c0,-0.55229 0.42022,-1 0.9386,-1c0.51838,0 0.9386,0.44771 0.9386,1c0,0.55229 -0.42022,1 -0.9386,1z" data-paper-data="{&quot;index&quot;:null}" fill-opacity="0.2" fill="#000000"/><path d="M199.31462,202.16386c-0.37027,0 -0.67042,-0.31979 -0.67042,-0.71428c0,-0.39449 0.30015,-0.71429 0.67042,-0.71429c0.37027,0 0.67043,0.3198 0.67043,0.71429c0,0.39449 -0.30016,0.71428 -0.67043,0.71428z" data-paper-data="{&quot;index&quot;:null}" fill-opacity="0.2" fill="#000000"/><path d="M183.14882,192.78172v-7.71667h19.04419v7.71667z" data-paper-data="{&quot;index&quot;:null}" fill="url(#color-8)"/><path d="M203.61877,154.34345c0,0 0,24.68172 0,29.98691c0,2.38243 -1.92203,3.91309 -4.67961,3.91309c-2.53714,0 -8.96339,0 -13.22822,0c-2.62671,0 -4.06924,-1.64374 -4.06924,-3.91309c0,-5.29624 0,-29.90712 0,-29.90712z" data-paper-data="{&quot;index&quot;:null}" fill="#412b2b"/><path d="M203.61877,151.34345c0,0 0,24.68172 0,29.98691c0,2.38243 -1.92203,3.91309 -4.67961,3.91309c-2.53714,0 -8.9634,0 -13.22822,0c-2.62671,0 -4.06924,-1.64374 -4.06924,-3.91309c0,-5.29624 0,-29.90712 0,-29.90712z" data-paper-data="{&quot;index&quot;:null}" fill="#4c3232"/><path d="M181.64994,159.06743v-7.71666h22.04307v7.71666z" data-paper-data="{&quot;index&quot;:null}" fill="url(#color-9)"/><path d="M248.15717,218.2v-8.4h9.28571v8.4z" fill="url(#color-10)"/><path d="M222.55717,218v-8.4h9.28571v8.4z" fill="url(#color-11)"/><path d="M231.80026,209.85h-9.32523v-59.7h2.89586v2.2l3.31071,0.01362l-0.01071,-2.21362h3.12937z" fill="url(#color-12)"/><path d="M257.50026,209.95h-9.32523v-59.7h2.89586v2.2l3.31071,0.01362l-0.01072,-2.21362h3.12938z" fill="url(#color-13)"/><path d="M254.4702,209.77917h-3.53715v-57.35h3.53715z" fill-opacity="0.20392" fill="#000000"/><path d="M228.74544,209.77917h-3.53715v-57.35h3.53715z" fill-opacity="0.20392" fill="#000000"/><path d="M231.80026,213.60402h-9.32523v-6.06364h2.89586v2.2l3.31071,0.01362l-0.01072,-2.21362h3.12938z" fill="#42484e"/><path d="M257.52752,213.69493h-9.32523v-6.06364h2.89586v2.2l3.31071,0.01362l-0.01072,-2.21362h3.12938z" fill="#42484e"/></g></g></svg>