<svg version="1.1" xmlns="http://www.w3.org/2000/svg" xmlns:xlink="http://www.w3.org/1999/xlink" width="489" height="369.88074" viewBox="0,0,489,369.88074"><defs><linearGradient x1="241.75076" y1="-4.06823" x2="241.75076" y2="272.03087" gradientUnits="userSpaceOnUse" id="color-1"><stop offset="0" stop-color="#ff9063"/><stop offset="1" stop-color="#de7a7a"/></linearGradient><linearGradient x1="241" y1="96.5332" x2="241" y2="365.81251" gradientUnits="userSpaceOnUse" id="color-2"><stop offset="0" stop-color="#e6815a"/><stop offset="1" stop-color="#a54040"/></linearGradient><radialGradient cx="289" cy="167.125" r="133.38123" gradientUnits="userSpaceOnUse" id="color-3"><stop offset="0" stop-color="#000000" stop-opacity="0"/><stop offset="1" stop-color="#000000" stop-opacity="0.07451"/></radialGradient></defs><g transform="translate(3.5,4.06823)"><g data-paper-data="{&quot;isPaintingLayer&quot;:true}" fill-rule="nonzero" stroke="none" stroke-width="0" stroke-linecap="butt" stroke-linejoin="miter" stroke-miterlimit="10" stroke-dasharray="" stroke-dashoffset="0" style="mix-blend-mode: normal"><path d="M-1.49249,272.03087v-276.0991h486.48649v276.0991z" fill="url(#color-1)"/><path d="M-3.5,365.81251v-224c0,0 40.94143,8.23358 115,7c52.17172,-0.86901 188.81444,-50.98417 252.03474,-52.21445c105.38512,-2.05082 121.96526,45.21445 121.96526,45.21445v224z" fill="url(#color-2)"/><path d="M438.5,111.125c48.97087,32.37129 -27.60808,80 -74,80c-46.39192,0 -177,-52 -177,-52c0,0 148.60808,-42 195,-42c46.39192,0 41.41473,4.35868 56,14z" fill="url(#color-3)"/><path d="M416.5,52.02839l13,-12.60606l-4.5303,12.60606z" fill-opacity="0.04706" fill="#000000"/><path d="M96.08507,41.54868c0,10.14847 -11.65485,18.37541 -26.03183,18.37541c-14.37698,0 -33.17782,-5.16439 -33.17782,-15.31285c0,-10.14847 8.59228,-25.5214 22.96927,-25.5214c14.37698,0 36.2404,12.31038 36.2404,22.45883z" fill="#f78b68"/><path d="M159.55968,30.4299c5.19089,10.6413 -31.68345,23.89553 -40.80456,28.34485c-9.1211,4.44932 -39.09869,-2.61199 -44.28956,-13.25329c-5.19089,-10.6413 26.57918,-28.9998 35.7003,-33.44912c9.12111,-4.44932 44.20297,7.71625 49.39384,18.35755z" fill="#f78b68"/><path d="M50.14654,42.05911c0,5.91994 -7.08434,10.71899 -15.82327,10.71899c-8.73896,0 -15.82327,-4.79904 -15.82327,-10.71899c0,-5.91994 7.08432,-10.71899 15.82327,-10.71899c8.73893,0 15.82327,4.79905 15.82327,10.71899z" fill="#f78b68"/><g fill="#f58364"><path d="M420.9697,82.02839c0,0 -0.93577,-32.78305 0,-53.73163c0.94436,-21.1408 14.92935,-24.5099 14.82252,0c-0.0438,10.04915 0,53.73163 0,53.73163z"/><path d="M433.93941,44.97209v-7.72007c0,0 5.61766,-0.30879 9.26407,-0.30879c3.034,0 2.47041,-10.49927 2.47041,-10.49927c0,0 2.1885,-4.01444 3.39683,-4.01444c1.1569,0 3.70563,4.01444 3.70563,4.01444c0,0 3.49499,11.11689 -3.70563,16.05773c-3.10032,2.12734 -15.13133,2.47041 -15.13133,2.47041z"/><path d="M411.68034,58.41558c-5.81968,-3.99328 -2.99497,-12.97815 -2.99497,-12.97815c0,0 2.05994,-3.24456 2.99497,-3.24456c0.9766,0 2.74537,3.24456 2.74537,3.24456c0,0 -0.45548,8.48573 1.99665,8.48573c2.94711,0 7.48739,0.24957 7.48739,0.24957v6.23951c0,0 -9.72368,-0.2773 -12.22941,-1.99665z" data-paper-data="{&quot;index&quot;:null}"/></g><path d="M79.09094,151.02838c0,0 0.04812,-47.99095 0,-59.03126c-0.11737,-26.92737 15.24699,-23.22596 16.28449,0c1.02806,23.01476 0,59.03126 0,59.03126z" fill="#dd7556"/><path d="M64.50275,112.6031c-7.91081,-5.42816 -4.07112,-17.64153 -4.07112,-17.64153c0,0 2.80011,-4.41038 4.07112,-4.41038c1.32752,0 3.73186,4.41038 3.73186,4.41038c0,0 -0.61917,11.53484 2.71408,11.53484c4.00607,0 10.1778,0.33926 10.1778,0.33926v8.48151c0,0 -13.21763,-0.37691 -16.62374,-2.71408z" fill="#dd7556"/><path d="M94.6454,137.78018v-6.85492c0,0 4.98811,-0.27419 8.2259,-0.27419c2.694,0 2.19358,-9.32268 2.19358,-9.32268c0,0 1.94322,-3.56457 3.01615,-3.56457c1.02724,0 3.29036,3.56457 3.29036,3.56457c0,0 3.1033,9.87108 -3.29036,14.25821c-2.75288,1.88895 -13.43563,2.19358 -13.43563,2.19358z" data-paper-data="{&quot;index&quot;:null}" fill="#dd7556"/><path d="M88.6454,103.2802v-6.85492c0,0 4.98811,-0.27419 8.2259,-0.27419c2.694,0 2.19358,-9.32269 2.19358,-9.32269c0,0 1.94322,-3.56457 3.01615,-3.56457c1.02724,0 3.29036,3.56457 3.29036,3.56457c0,0 3.1033,9.87108 -3.29036,14.25822c-2.75288,1.88895 -13.43563,2.19358 -13.43563,2.19358z" data-paper-data="{&quot;index&quot;:null}" fill="#dd7556"/><path d="M201.82628,204.49601c15.11052,0 24.1412,16.15729 24.1412,26.82354c0,10.66626 -19.7601,16.09413 -34.87062,16.09413c-15.11052,0 -27.36002,-8.6467 -27.36002,-19.31295c0,-10.66626 22.97892,-23.60472 38.08944,-23.60472z" data-paper-data="{&quot;index&quot;:null}" fill="#c35e4c"/><path d="M148.93765,197.12045c9.58649,4.67633 42.9775,23.97152 37.52178,35.15576c-5.45573,11.18424 -36.96281,18.60581 -46.54929,13.92948c-9.58649,-4.67633 -66.34221,4.39319 -60.88649,-6.79105c5.45573,-11.18424 60.32751,-46.97052 69.914,-42.29419z" data-paper-data="{&quot;index&quot;:null}" fill="#c35e4c"/><path d="M228.64983,217.3713c9.18482,0 20.6306,16.04391 20.6306,22.26589c0,6.22198 -14.44578,6.26589 -23.6306,6.26589c-9.18482,0 -13.63059,-11.04391 -13.63059,-17.26589c0,-6.22198 7.44577,-11.26589 16.6306,-11.26589z" data-paper-data="{&quot;index&quot;:null}" fill="#c35e4c"/><path d="M51.38037,188.61798c0,7.07859 -8.12929,12.81691 -18.15729,12.81691c-10.028,0 -23.14165,-3.60217 -23.14165,-10.68076c0,-7.07859 5.99315,-17.80126 16.02114,-17.80126c10.028,0 25.27779,8.58653 25.27779,15.66512z" data-paper-data="{&quot;index&quot;:null}" fill="#cd6850"/><path d="M107.59971,196.12638c3.62065,7.42235 -34.04489,1.40341 -40.4069,4.50683c-6.36201,3.10342 -27.27147,-1.82185 -30.89212,-9.2442c-3.62065,-7.42235 18.53906,-20.22746 24.90107,-23.33088c6.36201,-3.10342 42.7773,20.64591 46.39796,28.06825z" data-paper-data="{&quot;index&quot;:null}" fill="#cd6850"/><path d="M124.24566,149.52838c0,0 -0.55274,-19.36453 0,-31.73858c0.55782,-12.4876 8.81857,-14.47769 8.75547,0c-0.02587,5.9359 0,31.73858 0,31.73858z" data-paper-data="{&quot;index&quot;:null}" fill="#dd7556"/><path d="M131.9067,130.32799v-4.56014c0,0 3.31828,-0.18241 5.47217,-0.18241c1.79215,0 1.45925,-6.20179 1.45925,-6.20179c0,0 1.29271,-2.37128 2.00646,-2.37128c0.68336,0 2.18887,2.37128 2.18887,2.37128c0,0 2.06444,6.5666 -2.18887,9.48509c-1.83132,1.2566 -8.93788,1.45925 -8.93788,1.45925z" data-paper-data="{&quot;index&quot;:null}" fill="#dd7556"/><path d="M339.60523,60.99765c0,6.35288 -7.29587,11.5029 -16.29577,11.5029c-8.99991,0 -20.76913,-3.23287 -20.76913,-9.58575c0,-6.35288 5.37872,-15.97625 14.37863,-15.97625c8.99991,0 22.68627,7.70622 22.68627,14.0591z" data-paper-data="{&quot;index&quot;:null}" fill="#f68564"/><path d="M390.06086,67.73628c3.24946,6.66139 -30.55455,1.25954 -36.26432,4.04478c-5.70977,2.78525 -24.47555,-1.63508 -27.72501,-8.29647c-3.24946,-6.66139 16.63841,-18.15371 22.34817,-20.93896c5.70977,-2.78525 38.3917,18.52925 41.64116,25.19065z" data-paper-data="{&quot;index&quot;:null}" fill="#f68564"/><path d="M310.84798,61.31717c0,3.70584 -2.64793,10.28366 -8.11846,10.28366c-5.47053,0 -14.07451,-0.02615 -14.07451,-3.732c0,-3.70584 6.81717,-13.26168 12.2877,-13.26168c5.47053,0 9.90527,3.00418 9.90527,6.71002z" data-paper-data="{&quot;index&quot;:null}" fill="#f68564"/><path d="M196.78822,61.07234c3.4063,1.66161 21.03964,-8.68945 31.50359,-6.72121c17.55556,3.30215 41.44905,27.50305 38.19671,34.17033c-5.19087,10.6413 -47.16845,9.70261 -56.28956,5.25329c-9.1211,-4.44932 -58.99545,1.29645 -53.80456,-9.34485c0,0 31.27272,-27.80688 40.39382,-23.35756z" data-paper-data="{&quot;index&quot;:null}" fill="#f3886c"/><path d="M444.49671,316.21213c4.17673,13.50855 -39.27366,2.5542 -46.61277,8.20237c-7.33911,5.64817 -31.45993,-3.31576 -35.63666,-16.82431c-4.17673,-13.50855 21.38637,-36.81367 28.72549,-42.46183c7.33911,-5.64817 49.34721,37.57522 53.52394,51.08377z" data-paper-data="{&quot;index&quot;:null}" fill="#af4a44"/><path d="M354.591,298.46455c13.32362,0 24.12454,4.39234 24.12454,9.81056c0,5.41822 -6.44909,15.03547 -19.77269,15.03547c-13.32361,0 -34.27882,-0.03824 -34.27882,-5.45646c0,-5.41822 16.60338,-19.38957 29.92699,-19.38957z" data-paper-data="{&quot;index&quot;:null}" fill="#af4a44"/><path d="M63.60523,65.99766c0,6.35288 -7.29587,11.5029 -16.29577,11.5029c-8.99991,0 -20.76913,-3.23287 -20.76913,-9.58575c0,-6.35288 5.37872,-15.97625 14.37863,-15.97625c8.99991,0 22.68627,7.70622 22.68627,14.0591z" data-paper-data="{&quot;index&quot;:null}" fill="#f68564"/><path d="M34.84798,66.31717c0,3.70584 -2.64793,10.28366 -8.11846,10.28366c-5.47053,0 -14.07451,-0.02615 -14.07451,-3.732c0,-3.70584 6.81717,-13.26168 12.2877,-13.26168c5.47053,0 9.90527,3.00418 9.90527,6.71002z" data-paper-data="{&quot;index&quot;:null}" fill="#f68564"/><path d="M129.26085,321.10074c0,10.66625 -15.55192,19.31295 -34.73618,19.31295c-19.18426,0 -44.27161,-5.42787 -44.27161,-16.09413c0,-10.66625 11.46532,-26.82354 30.64958,-26.82354c19.18426,0 48.35822,12.93846 48.35822,23.60472z" data-paper-data="{&quot;index&quot;:null}" fill="#ac4743"/><path d="M236.81241,332.41464c6.92656,11.18424 -65.1303,2.11472 -77.30127,6.79105c-12.17096,4.67633 -52.17224,-2.74524 -59.09881,-13.92948c-6.92656,-11.18424 35.46654,-30.47943 47.63752,-35.15576c12.17097,-4.67633 81.83599,31.10995 88.76256,42.29419z" data-paper-data="{&quot;index&quot;:null}" fill="#ac4743"/><path d="M46.84754,310.37131c11.66103,0 21.11415,5.04391 21.11415,11.26589c0,6.22198 -5.64433,17.26589 -17.30535,17.26589c-11.66101,0 -30.00133,-0.04391 -30.00133,-6.26589c0,-6.22198 14.53152,-22.26589 26.19254,-22.26589z" data-paper-data="{&quot;index&quot;:null}" fill="#ac4743"/></g></g></svg>