<svg version="1.1" xmlns="http://www.w3.org/2000/svg" xmlns:xlink="http://www.w3.org/1999/xlink" width="354.45018" height="321.24546" viewBox="0,0,354.45018,321.24546"><defs><linearGradient x1="221.00002" y1="183.50301" x2="244.6604" y2="183.50301" gradientUnits="userSpaceOnUse" id="color-1"><stop offset="0" stop-color="#000000" stop-opacity="0.21176"/><stop offset="1" stop-color="#000000" stop-opacity="0"/></linearGradient><linearGradient x1="259.00003" y1="183.50301" x2="235.33964" y2="183.50301" gradientUnits="userSpaceOnUse" id="color-2"><stop offset="0" stop-color="#000000" stop-opacity="0.21176"/><stop offset="1" stop-color="#000000" stop-opacity="0"/></linearGradient></defs><g transform="translate(-62.77491,-14.33432)"><g data-paper-data="{&quot;isPaintingLayer&quot;:true}" fill-rule="nonzero" stroke-linecap="butt" stroke-linejoin="miter" stroke-miterlimit="10" stroke-dasharray="" stroke-dashoffset="0" style="mix-blend-mode: normal"><path d="M62.77492,286.86941c0,-29.90525 0,-194.25442 0,-245.03136c0,-9.4362 5.3155,-14.95016 14.15865,-14.95016c18.9962,0 82.77566,27.02702 161.56493,27.02702c84.1762,0 153.33143,-27.02702 164.56792,-27.02702c7.38991,0 14.15866,6.33734 14.15866,13.84642c0,28.30014 0,202.1501 0,249.44634c0,7.43228 -7.36731,13.89243 -15.2624,13.89243c-8.66183,0 -142.46268,22.52252 -142.46268,22.52252c0,0 0.01879,0.46971 0.02181,1.62757c0.0121,4.64267 -2.39607,7.30014 -7.35593,7.30956c-7.61665,0.01447 -19.46803,0.04098 -23.8325,0.04704c-5.0753,0.00704 -7.6667,-2.73646 -7.6667,-6.68486c0,-1.32868 0,-2.2993 0,-2.2993c0,0 -123.30954,-22.52251 -141.5256,-22.52251c-10.15662,0 -16.36614,-8.08122 -16.36614,-17.20366z" fill="#85654c" stroke="none" stroke-width="0"/><path d="M62.77493,281.86944c0,-29.90525 0,-194.25442 0,-245.03136c0,-9.4362 5.3155,-14.95016 14.15865,-14.95016c4.1553,0 11.17187,0 20.42378,0c28.46265,0 88.59166,24.02402 141.14114,24.02402c70.41425,0 105.55049,-24.02402 142.64264,-24.02402c11.31056,0 19.0334,0 21.9253,0c7.38991,0 14.15866,6.33734 14.15866,13.84642c0,28.30014 0,202.1501 0,249.44634c0,7.43228 -7.36731,13.89243 -15.2624,13.89243c-11.35323,0 -79.95056,12.01201 -163.46419,12.01201c-77.43764,0 -139.7754,-12.01201 -159.35743,-12.01201c-10.15662,0 -16.36614,-8.08122 -16.36614,-17.20366z" fill="#9f785a" stroke="none" stroke-width="0"/><path d="M265.00685,299.26085c0,-28.3948 0,-184.44307 0,-232.65538c0,-8.9596 4.55669,-14.19506 12.13742,-14.19506c33.68213,0 101.53756,-22.52252 120.18595,-22.52252c6.33495,0 12.13742,6.01726 12.13742,13.14707c0,26.87076 0,191.93995 0,236.84737c0,7.05689 -6.31558,13.19075 -13.0836,13.19075c-18.7569,0 -82.45716,22.52252 -117.34742,22.52252c-8.7067,0 -14.02977,-7.67306 -14.02977,-16.33474z" fill-opacity="0.06667" fill="#000000" stroke-opacity="0.06667" stroke="#000000" stroke-width="2.5"/><path d="M265.00685,297.26085c0,-28.3948 0,-184.44307 0,-232.65538c0,-8.9596 4.55669,-14.19506 12.13742,-14.19506c33.68213,0 101.53756,-22.52252 120.18595,-22.52252c6.33495,0 12.13742,6.01726 12.13742,13.14707c0,26.87076 0,191.93995 0,236.84737c0,7.05689 -6.31558,13.19075 -13.0836,13.19075c-18.7569,0 -82.45716,22.52252 -117.34742,22.52252c-8.7067,0 -14.02977,-7.67306 -14.02977,-16.33474z" fill-opacity="0.06667" fill="#000000" stroke="#85654c" stroke-width="2.5"/><path d="M69.53238,277.73833c0,-28.3948 0,-184.44307 0,-232.65538c0,-8.9596 4.55668,-14.19506 12.13742,-14.19506c33.68213,0 101.53755,22.52252 120.18596,22.52252c6.33496,0 12.13743,6.01726 12.13743,13.14707c0,26.87076 0,191.93995 0,236.84737c0,7.05689 -6.31558,13.19075 -13.0836,13.19075c-18.7569,0 -82.45714,-22.52252 -117.34742,-22.52252c-8.7067,0 -14.02977,-7.67306 -14.02977,-16.33474z" fill-opacity="0.06667" fill="#000000" stroke-opacity="0.06667" stroke="#000000" stroke-width="2.5"/><path d="M69.53238,275.73833c0,-28.3948 0,-184.44307 0,-232.65538c0,-8.9596 4.55668,-14.19506 12.13742,-14.19506c33.68213,0 101.53755,22.52252 120.18596,22.52252c6.33496,0 12.13743,6.01726 12.13743,13.14707c0,26.87076 0,191.93995 0,236.84737c0,7.05689 -6.31558,13.19075 -13.0836,13.19075c-18.7569,0 -82.45714,-22.52252 -117.34742,-22.52252c-8.7067,0 -14.02977,-7.67306 -14.02977,-16.33474z" fill-opacity="0.06667" fill="#000000" stroke="#85654c" stroke-width="2.5"/><path d="M221.00002,321.003v-275h23.66038v275z" fill="url(#color-1)" stroke="none" stroke-width="0"/><path d="M235.33964,321.003v-275h23.66038v275z" data-paper-data="{&quot;index&quot;:null}" fill="url(#color-2)" stroke="none" stroke-width="0"/><path d="M381.89056,283.59932c0,0 11.52303,-0.42948 13.75,-6c0.90681,-2.34722 -0.7784,-3.66228 -2.43223,-3.92561c-1.29348,-0.20594 -2.56776,0.42561 -2.56776,0.42561c0,0 2.13507,-5.70861 7.66002,-2.15144c5.11543,3.2935 2.36076,11.49649 -5.66002,11.65144c-5.39482,0.10422 -10.75,0 -10.75,0z" fill="#755943" stroke="none" stroke-width="0"/><path d="M393.14056,275.61814c0,0.88365 -0.76111,1.6 -1.7,1.6c-0.93889,0 -1.7,-0.71635 -1.7,-1.6c0,-0.88365 0.76111,-1.6 1.7,-1.6c0.93889,0 1.7,0.71634 1.7,1.6z" fill="#755943" stroke="none" stroke-width="0"/><path d="M87.52614,284.26599c-8.02078,-0.15495 -10.77544,-8.35793 -5.66002,-11.65144c5.52495,-3.55717 7.66002,2.15144 7.66002,2.15144c0,0 -1.27428,-0.63155 -2.56776,-0.42561c-1.65384,0.26332 -3.33905,1.57839 -2.43223,3.92561c2.22697,5.57052 13.75,6 13.75,6c0,0 -5.35518,0.10422 -10.75,0z" data-paper-data="{&quot;index&quot;:null}" fill="#755943" stroke="none" stroke-width="0"/><path d="M89.72615,273.68479c0.93889,0 1.7,0.71634 1.7,1.6c0,0.88365 -0.76112,1.6 -1.7,1.6c-0.93889,0 -1.7,-0.71635 -1.7,-1.6c0,-0.88365 0.76111,-1.6 1.7,-1.6z" data-paper-data="{&quot;index&quot;:null}" fill="#755943" stroke="none" stroke-width="0"/><path d="M392.55721,36.9277c8.02078,0.15495 10.77544,8.35793 5.66002,11.65144c-5.52495,3.55717 -7.66002,-2.15144 -7.66002,-2.15144c0,0 1.27429,0.63155 2.56777,0.42561c1.65384,-0.26332 3.33905,-1.57839 2.43223,-3.92561c-2.22697,-5.57053 -13.75,-6 -13.75,-6c0,0 5.35517,-0.10422 10.75,0z" data-paper-data="{&quot;index&quot;:null}" fill="#755943" stroke="none" stroke-width="0"/><path d="M391.35721,46.50889c-0.93889,0 -1.7,-0.71634 -1.7,-1.6c0,-0.88365 0.76112,-1.6 1.7,-1.6c0.93889,0 1.7,0.71635 1.7,1.6c0,0.88365 -0.76111,1.6 -1.7,1.6z" data-paper-data="{&quot;index&quot;:null}" fill="#755943" stroke="none" stroke-width="0"/><path d="M98.19281,38.26104c0,0 -11.52303,0.42948 -13.75,6c-0.90681,2.34722 0.7784,3.66228 2.43223,3.92561c1.29348,0.20594 2.56777,-0.42561 2.56777,-0.42561c0,0 -2.13508,5.7086 -7.66002,2.15143c-5.11542,-3.2935 -2.36076,-11.49649 5.66002,-11.65144c5.39482,-0.10422 10.75,0 10.75,0z" data-paper-data="{&quot;index&quot;:null}" fill="#755943" stroke="none" stroke-width="0"/><path d="M86.94281,46.24222c0,-0.88365 0.76112,-1.6 1.7,-1.6c0.93888,0 1.7,0.71634 1.7,1.6c0,0.88365 -0.76111,1.6 -1.7,1.6c-0.93888,0 -1.7,-0.71635 -1.7,-1.6z" data-paper-data="{&quot;index&quot;:null}" fill="#755943" stroke="none" stroke-width="0"/><path d="M241.50151,322.14213v-275.63047c0,0 13.23523,-6.93229 25.32093,-7.54223c30.46235,-1.53738 139.84423,-24.63511 139.84423,-24.63511v277.13197c0,0 -111.07324,21.68159 -141.12477,23.19824c-11.57137,0.58399 -24.04039,7.47761 -24.04039,7.47761z" fill="#f2e9da" stroke="none" stroke-width="0"/></g></g></svg>