<svg version="1.1" xmlns="http://www.w3.org/2000/svg" xmlns:xlink="http://www.w3.org/1999/xlink" width="102.54593" height="110.36723" viewBox="0,0,102.54593,110.36723"><defs><linearGradient x1="239.96602" y1="212.9571" x2="239.96602" y2="206.35245" gradientUnits="userSpaceOnUse" id="color-1"><stop offset="0" stop-color="#000000" stop-opacity="0"/><stop offset="1" stop-color="#000000" stop-opacity="0.2"/></linearGradient><linearGradient x1="239.86464" y1="153.11512" x2="239.86464" y2="159.92254" gradientUnits="userSpaceOnUse" id="color-2"><stop offset="0" stop-color="#000000" stop-opacity="0"/><stop offset="1" stop-color="#000000" stop-opacity="0.2"/></linearGradient><linearGradient x1="255.42536" y1="170.00614" x2="255.42536" y2="166.09549" gradientUnits="userSpaceOnUse" id="color-3"><stop offset="0" stop-color="#000000" stop-opacity="0.20784"/><stop offset="1" stop-color="#000000" stop-opacity="0"/></linearGradient><linearGradient x1="224.42984" y1="169.57162" x2="224.42984" y2="165.66097" gradientUnits="userSpaceOnUse" id="color-4"><stop offset="0" stop-color="#000000" stop-opacity="0.20784"/><stop offset="1" stop-color="#000000" stop-opacity="0"/></linearGradient><linearGradient x1="255.42536" y1="176.37905" x2="255.42536" y2="172.4684" gradientUnits="userSpaceOnUse" id="color-5"><stop offset="0" stop-color="#000000" stop-opacity="0.20784"/><stop offset="1" stop-color="#000000" stop-opacity="0"/></linearGradient><linearGradient x1="224.42984" y1="176.08937" x2="224.42984" y2="172.17872" gradientUnits="userSpaceOnUse" id="color-6"><stop offset="0" stop-color="#000000" stop-opacity="0.20784"/><stop offset="1" stop-color="#000000" stop-opacity="0"/></linearGradient><linearGradient x1="255.50724" y1="196.78404" x2="255.50724" y2="200.69469" gradientUnits="userSpaceOnUse" id="color-7"><stop offset="0" stop-color="#000000" stop-opacity="0.20784"/><stop offset="1" stop-color="#000000" stop-opacity="0"/></linearGradient><linearGradient x1="224.36687" y1="197.07372" x2="224.36687" y2="200.98437" gradientUnits="userSpaceOnUse" id="color-8"><stop offset="0" stop-color="#000000" stop-opacity="0.20784"/><stop offset="1" stop-color="#000000" stop-opacity="0"/></linearGradient><linearGradient x1="255.42536" y1="183.11406" x2="255.42536" y2="179.20341" gradientUnits="userSpaceOnUse" id="color-9"><stop offset="0" stop-color="#000000" stop-opacity="0.20784"/><stop offset="1" stop-color="#000000" stop-opacity="0"/></linearGradient><linearGradient x1="224.57467" y1="182.82438" x2="224.57467" y2="178.91373" gradientUnits="userSpaceOnUse" id="color-10"><stop offset="0" stop-color="#000000" stop-opacity="0.20784"/><stop offset="1" stop-color="#000000" stop-opacity="0"/></linearGradient><linearGradient x1="225.66662" y1="175.43353" x2="231.11433" y2="175.43353" gradientUnits="userSpaceOnUse" id="color-11"><stop offset="0" stop-color="#000000" stop-opacity="0.21176"/><stop offset="1" stop-color="#000000" stop-opacity="0"/></linearGradient><linearGradient x1="254.28856" y1="175.43353" x2="248.84085" y2="175.43353" gradientUnits="userSpaceOnUse" id="color-12"><stop offset="0" stop-color="#000000" stop-opacity="0.21176"/><stop offset="1" stop-color="#000000" stop-opacity="0"/></linearGradient><linearGradient x1="239.76818" y1="173.78442" x2="239.76818" y2="177.56617" gradientUnits="userSpaceOnUse" id="color-13"><stop offset="0" stop-color="#000000" stop-opacity="0.20392"/><stop offset="1" stop-color="#000000" stop-opacity="0"/></linearGradient><linearGradient x1="239.87912" y1="182.19332" x2="239.87912" y2="187.75513" gradientUnits="userSpaceOnUse" id="color-14"><stop offset="0" stop-color="#000000" stop-opacity="0"/><stop offset="1" stop-color="#000000" stop-opacity="0.2"/></linearGradient><linearGradient x1="224.25841" y1="195.5495" x2="230.64547" y2="196.2986" gradientUnits="userSpaceOnUse" id="color-15"><stop offset="0" stop-color="#000000" stop-opacity="0.21176"/><stop offset="1" stop-color="#000000" stop-opacity="0"/></linearGradient><linearGradient x1="255.67363" y1="195.37569" x2="249.28657" y2="196.12479" gradientUnits="userSpaceOnUse" id="color-16"><stop offset="0" stop-color="#000000" stop-opacity="0.21176"/><stop offset="1" stop-color="#000000" stop-opacity="0"/></linearGradient></defs><g transform="translate(-188.72703,-124.81639)"><g data-paper-data="{&quot;isPaintingLayer&quot;:true}" fill-rule="nonzero" stroke="none" stroke-width="0" stroke-linecap="butt" stroke-linejoin="miter" stroke-miterlimit="10" stroke-dasharray="" stroke-dashoffset="0" style="mix-blend-mode: normal"><path d="M256.73837,206.35245v6.60465h-33.54469v-6.60465z" data-paper-data="{&quot;index&quot;:null}" fill="url(#color-1)"/><path d="M225.67042,159.92254c0,0 0.74384,-2.68929 1.07685,-3.89323c0.2881,-1.04161 1.67509,-2.9142 1.67509,-2.9142h23.17422c0,0 1.27507,1.73489 1.50975,2.73759c0.28613,1.22256 0.95251,4.06985 0.95251,4.06985z" fill="url(#color-2)"/><path d="M256.72891,169.71646v13.90453h-2.6071v-13.90453z" data-paper-data="{&quot;index&quot;:null}" fill="#615050"/><path d="M225.73339,169.57162v13.90453h-2.6071v-13.90453z" data-paper-data="{&quot;index&quot;:null}" fill="#615050"/><path d="M256.72891,166.09549v3.91065h-2.6071v-3.91065z" data-paper-data="{&quot;index&quot;:null}" fill="url(#color-3)"/><path d="M225.73339,165.66097v3.91065h-2.6071v-3.91065z" data-paper-data="{&quot;index&quot;:null}" fill="url(#color-4)"/><path d="M256.72891,176.23421v13.90453h-2.6071v-13.90453z" data-paper-data="{&quot;index&quot;:null}" fill="#615050"/><path d="M225.73339,176.08937v13.90453h-2.6071v-13.90453z" data-paper-data="{&quot;index&quot;:null}" fill="#615050"/><path d="M256.72891,172.4684v3.91065h-2.6071v-3.91065z" data-paper-data="{&quot;index&quot;:null}" fill="url(#color-5)"/><path d="M225.73339,172.17872v3.91065h-2.6071v-3.91065z" data-paper-data="{&quot;index&quot;:null}" fill="url(#color-6)"/><path d="M254.20369,196.92888v-13.90453h2.6071v13.90453z" fill="#615050"/><path d="M223.06332,197.07372v-13.90453h2.6071v13.90453z" fill="#615050"/><path d="M254.20369,200.69469v-3.91065h2.6071v3.91065z" fill="url(#color-7)"/><path d="M223.06332,200.98437v-3.91065h2.6071v3.91065z" fill="url(#color-8)"/><path d="M256.72891,179.20341v3.91065h-2.6071v-3.91065z" data-paper-data="{&quot;index&quot;:null}" fill="url(#color-9)"/><path d="M225.87822,178.91373v3.91065h-2.6071v-3.91065z" data-paper-data="{&quot;index&quot;:null}" fill="url(#color-10)"/><path d="M225.66963,191.52385c0,-8.71935 0,-29.31704 0,-34.82117c0,-2.25143 2.27537,-4.42122 4.41509,-4.42122c4.2113,0 12.10533,0 19.68738,0c2.67448,0 4.41508,2.27554 4.41508,4.61053c0,7.38087 0,39.2424 0,39.2424c0,0 -18.40567,0 -24.10245,0c-2.13972,0 -4.41509,-1.79346 -4.41509,-4.61053z" fill="#47628f"/><path d="M225.68263,194.49419c0,-8.71935 0,-29.31704 0,-34.82117c0,-2.25143 2.27537,-4.42122 4.41509,-4.42122c4.2113,0 12.10533,0 19.68738,0c2.67448,0 4.41508,2.27554 4.41508,4.61053c0,11.21743 0,26.7658 0,34.43765c0,2.70968 -1.61526,4.80475 -4.32495,4.80475c-5.77912,0 -15.80141,0 -19.7775,0c-2.13972,0 -4.41509,-1.79346 -4.41509,-4.61053z" fill="#658ac9"/><path d="M227.46364,167.81469c0,-1.50433 0,-3.08512 0,-4.00922c0,-2.59196 2.13491,-3.81088 3.84358,-3.81088c3.41978,0 15.3963,0 15.3963,0v11.69193c0,0 -11.97653,0 -15.3963,0c-1.70867,0 -3.84358,-1.26063 -3.84358,-3.87181z" fill="#2a2b42"/><path d="M248.50615,171.67636c-3.41978,0 -2.27521,0 -2.27521,0v-11.69193c0,0 -1.14456,0 2.27521,0c1.70867,0 3.84358,1.21891 3.84358,3.81088c0,0.92411 0,2.50489 0,4.00922c0,2.61119 -2.13491,3.87182 -3.84358,3.87182z" data-paper-data="{&quot;index&quot;:null}" fill="#2a2b42"/><path d="M225.66662,194.50052c0,-9.31184 0,-32.50034 0,-37.82269c0,-2.12666 2.28112,-4.20252 4.20252,-4.20252c0.53753,0 1.24519,0 1.24519,0v45.91644c0,0 -1.37935,0 -2.17908,0c-0.97947,0 -3.26863,-1.48064 -3.26863,-3.89122z" fill="url(#color-11)"/><path d="M254.28855,194.50053c0,2.41058 -2.28916,3.89122 -3.26863,3.89122c-0.79974,0 -2.17908,0 -2.17908,0v-45.91644c0,0 0.70766,0 1.24519,0c1.92141,0 4.20252,2.07586 4.20252,4.20252c0,5.32234 0,28.51085 0,37.82269z" data-paper-data="{&quot;index&quot;:null}" fill="url(#color-12)"/><path d="M188.72704,235.18363v-110.36723h102.54593v110.36723z" fill="none"/><path d="M225.83198,187.42013c0,-7.79925 6.32254,-14.12179 14.12179,-14.12179c7.79925,0 14.12179,6.32254 14.12179,14.12179c0,7.79925 -6.32255,14.12179 -14.12179,14.12179c-7.79925,0 -14.12179,-6.32254 -14.12179,-14.12179z" fill="#5474a9"/><path d="M236.11767,177.73601v-9.39969h7.38276v9.39969c0,0 -1.94526,-0.32338 -3.64613,-0.37244c-1.75124,-0.05052 -3.73663,0.37244 -3.73663,0.37244z" fill="#b3b3c9"/><path d="M236.10103,177.56617v-3.78175h7.3343v3.78175z" fill="url(#color-13)"/><g fill="#b3b3c9"><path d="M246.26524,171.50233c0,1.72505 -2.83924,3.12348 -6.34161,3.12348c-3.50237,0 -6.34161,-1.39843 -6.34161,-3.12348c0,-1.72505 2.83924,-3.12348 6.34161,-3.12348c3.50237,0 6.34161,1.39843 6.34161,3.12348z"/><path d="M246.26524,169.79863c0,1.72505 -2.83924,3.12347 -6.34161,3.12347c-3.50237,0 -6.34161,-1.39842 -6.34161,-3.12347c0,-1.72505 2.83924,-3.12348 6.34161,-3.12348c3.50237,0 6.34161,1.39843 6.34161,3.12348z"/><path d="M233.54792,171.6925v-1.97988h12.75662v1.97988z"/></g><path d="M243.83412,169.15022c0,0.87227 -1.79499,1.57939 -4.00922,1.57939c-2.21423,0 -4.00922,-0.70712 -4.00922,-1.57939c0,-0.87227 1.795,-1.57939 4.00922,-1.57939c2.21423,0 4.00922,0.70712 4.00922,1.57939z" fill="#2a2b42"/><path d="M225.87822,192.74583c0,-7.79925 6.32254,-14.12179 14.12179,-14.12179c7.79925,0 14.12179,6.32254 14.12179,14.12179c0,7.79925 -6.32255,14.12179 -14.12179,14.12179c-7.79925,0 -14.12179,-6.32254 -14.12179,-14.12179z" fill="#4d6a9a"/><path d="M225.27936,187.75513v-5.56181h29.19952v5.56181z" fill="url(#color-14)"/><path d="M223.08283,206.60628l2.08568,-21.03061c0,0 1.13119,1.73807 3.36027,1.73807c3.74879,0 15.62789,0.34601 22.25088,-0.16286c2.73472,-0.21011 3.53044,-1.57521 3.53044,-1.57521l2.43329,21.03061c0,0 -1.05453,2.20993 -5.4574,2.38413c-6.66489,0.26371 -19.0438,0.04916 -22.75721,0.04916c-4.31474,0 -5.44595,-2.43329 -5.44595,-2.43329z" fill="#615050"/><path d="M224.82089,188.9099l0.34761,-3.30233c0,0 1.13119,1.73807 3.36027,1.73807c3.74879,0 15.62789,0.34601 22.25088,-0.16286c2.73472,-0.21011 3.35663,-1.57521 3.35663,-1.57521l0.34761,3.12852c0,0 1.20496,1.68851 -3.19792,1.86271c-6.66489,0.26371 -19.0438,0.04916 -22.75721,0.04916c-4.31474,0 -3.70788,-1.73807 -3.70788,-1.73807z" fill="#443838"/><path d="M223.29844,206.43306l2.09374,-20.55047c0,0 0.90586,1.38405 1.78313,1.48693c1.16762,0.13694 4.60395,0.1312 4.60395,0.1312l-2.26755,21.59331c0,0 -2.73533,0.04136 -4.7675,-1.06019c-1.1217,-0.60803 -1.44576,-1.60079 -1.44576,-1.60079z" fill="url(#color-15)"/><path d="M255.18784,207.86005c-2.03216,1.10154 -4.76751,1.06019 -4.76751,1.06019l-2.26754,-21.59331c0,0 3.43634,0.00574 4.60395,-0.1312c0.87726,-0.10288 1.78312,-1.48693 1.78312,-1.48693l2.09374,20.55047c0,0 -0.32405,0.99277 -1.44576,1.60079z" data-paper-data="{&quot;index&quot;:null}" fill="url(#color-16)"/><path d="M228.09425,205.28888v-2.78091c0,0 2.15855,0.86903 3.99755,0.86903c2.83798,0 11.2618,0 16.16402,0c2.16998,0 3.64994,-0.86903 3.64994,-0.86903v2.78091c0,0 -1.38556,0.86903 -3.64994,0.86903c-4.92511,0 -13.3593,0 -16.16402,0c-1.839,0 -3.99755,-0.86903 -3.99755,-0.86903z" fill="#342b2b"/><path d="M228.09425,200.76991v-2.78091c0,0 2.15855,0.86903 3.99755,0.86903c2.83798,0 11.26179,0 16.16402,0c2.16998,0 3.64994,-0.86903 3.64994,-0.86903v2.78091c0,0 -1.38556,0.86903 -3.64994,0.86903c-4.92511,0 -13.35929,0 -16.16402,0c-1.839,0 -3.99755,-0.86903 -3.99755,-0.86903z" fill="#342b2b"/><path d="M228.09425,196.25093v-2.78091c0,0 2.15855,0.86903 3.99755,0.86903c2.83798,0 11.26179,0 16.16402,0c2.16998,0 3.64994,-0.86903 3.64994,-0.86903v2.78091c0,0 -1.38556,0.86903 -3.64994,0.86903c-4.92511,0 -13.3593,0 -16.16402,0c-1.839,0 -3.99755,-0.86903 -3.99755,-0.86903z" fill="#342b2b"/></g></g></svg>