<svg version="1.1" xmlns="http://www.w3.org/2000/svg" xmlns:xlink="http://www.w3.org/1999/xlink" width="58.52906" height="49.72036" viewBox="0,0,58.52906,49.72036"><defs><linearGradient x1="272.27474" y1="175.35374" x2="272.27474" y2="181.63945" gradientUnits="userSpaceOnUse" id="color-1"><stop offset="0" stop-color="#000000" stop-opacity="0.23529"/><stop offset="1" stop-color="#000000" stop-opacity="0"/></linearGradient><linearGradient x1="261.48903" y1="188.78231" x2="261.48903" y2="197.35374" gradientUnits="userSpaceOnUse" id="color-2"><stop offset="0" stop-color="#000000" stop-opacity="0.23529"/><stop offset="1" stop-color="#000000" stop-opacity="0"/></linearGradient><linearGradient x1="231.96262" y1="184.09323" x2="228.87258" y2="188.89996" gradientUnits="userSpaceOnUse" id="color-3"><stop offset="0" stop-color="#000000" stop-opacity="0.30196"/><stop offset="1" stop-color="#000000" stop-opacity="0"/></linearGradient><linearGradient x1="255.71716" y1="181.33896" x2="258.83233" y2="188.0828" gradientUnits="userSpaceOnUse" id="color-4"><stop offset="0" stop-color="#000000" stop-opacity="0.30196"/><stop offset="1" stop-color="#000000" stop-opacity="0"/></linearGradient><linearGradient x1="257.56373" y1="168.92921" x2="253.12861" y2="173.77827" gradientUnits="userSpaceOnUse" id="color-5"><stop offset="0" stop-color="#000000" stop-opacity="0.38039"/><stop offset="1" stop-color="#000000" stop-opacity="0"/></linearGradient><linearGradient x1="248.43739" y1="179.85" x2="257.76263" y2="179.85" gradientUnits="userSpaceOnUse" id="color-6"><stop offset="0" stop-color="#5a6168"/><stop offset="1" stop-color="#757e87"/></linearGradient><linearGradient x1="222.43739" y1="179.99286" x2="231.76263" y2="179.99286" gradientUnits="userSpaceOnUse" id="color-7"><stop offset="0" stop-color="#5a6168"/><stop offset="1" stop-color="#757e87"/></linearGradient><radialGradient cx="239.99999" cy="181.75" r="18.04166" gradientUnits="userSpaceOnUse" id="color-8"><stop offset="0" stop-color="#000000" stop-opacity="0.50196"/><stop offset="1" stop-color="#000000" stop-opacity="0"/></radialGradient></defs><g transform="translate(-221.17425,-150)"><g data-paper-data="{&quot;isPaintingLayer&quot;:true}" fill-rule="nonzero" stroke="none" stroke-width="0" stroke-linecap="butt" stroke-linejoin="miter" stroke-miterlimit="10" stroke-dasharray="" stroke-dashoffset="0" style="mix-blend-mode: normal"><path d="M264.84617,181.63945v-6.28571h14.85714v6.28571z" fill="url(#color-1)"/><path d="M241.4176,194.21088l7.6339,-3.06622l4.93753,-1.07664l25.57143,-1.28571v8.57143z" fill="url(#color-2)"/><path d="M223.72382,184.56964l-0.05281,-5.80673l16.29752,10.66065l0.05281,5.80673z" fill="url(#color-3)"/><path d="M240.0896,188.55777l31.25511,-14.43761l3.11517,6.74384l-34.39797,14.29475z" fill="url(#color-4)"/><path d="M224.89411,177.81691c7.28067,-3.32544 24.13389,-11.02312 28.45806,-12.99818c1.9311,-0.88203 5.16249,-0.72416 6.9089,0.41988c2.11708,1.38687 8.20193,5.37296 11.65752,7.63667c1.87728,1.22978 1.48535,2.89708 -0.25993,3.69423c-4.1822,1.91022 -21.75504,9.93658 -29.10978,13.29585c-2.01141,0.91871 -4.49373,0.67919 -6.27344,-0.48666c-3.76032,-2.46333 -9.75064,-6.3875 -11.85851,-7.76833c-1.38881,-0.90979 -1.53385,-2.87493 0.47716,-3.79345z" fill="#584b32"/><path d="M224.96569,175.88192c7.28067,-3.32544 24.13389,-11.02312 28.45806,-12.99818c1.9311,-0.88203 5.16249,-0.72416 6.9089,0.41988c2.11708,1.38687 8.20193,5.37296 11.65752,7.63667c1.87728,1.22978 1.48535,2.89708 -0.25993,3.69423c-4.1822,1.91022 -21.75504,9.93658 -29.10978,13.29585c-2.01141,0.91871 -4.49373,0.67919 -6.27343,-0.48666c-3.76032,-2.46333 -9.75064,-6.3875 -11.85851,-7.76833c-1.38881,-0.90979 -1.53385,-2.87493 0.47716,-3.79345z" fill="#68583b"/><path d="M225.03726,173.94693c7.28067,-3.32544 24.13389,-11.02312 28.45806,-12.99818c1.9311,-0.88203 5.16249,-0.72416 6.9089,0.41988c2.11708,1.38687 8.20193,5.37296 11.65752,7.63667c1.87728,1.22978 1.48535,2.89708 -0.25993,3.69423c-4.1822,1.91022 -21.75504,9.93658 -29.10978,13.29585c-2.01141,0.91871 -4.49373,0.67919 -6.27343,-0.48666c-3.76032,-2.46333 -9.75064,-6.3875 -11.85852,-7.76834c-1.38881,-0.90979 -1.53385,-2.87493 0.47716,-3.79345z" fill="#89744e"/><path d="M244.01027,165.43832l5.57797,-2.56335l18.09383,14.25133l-7.57797,3.7062z" fill="url(#color-5)"/><path d="M230.80448,184.9826c0,0 9.12013,-4.48275 16.63598,-5.34431c6.18494,-0.709 -13.088,7.66854 -13.088,7.66854z" fill-opacity="0.15294" fill="#000000"/><path d="M228.87963,172.14903l23.73892,-10.84272c0,0 -3.05781,4.27475 -4.62837,5.49523c-1.57056,1.22048 -4.2136,3.97292 -11.74147,6.11429c-7.52788,2.14137 -7.36908,-0.76679 -7.36908,-0.76679z" fill-opacity="0.15294" fill="#000000"/><path d="M221.17425,178.67398c0,0 10.21823,-3.91578 14.9379,-3.81733c9.49051,0.19796 23.5922,-13.78124 23.5922,-13.78124l3.71693,2.43491c0,0 -1.10789,0.47329 -4.78702,2.78321c-1.03011,0.94474 -2.52867,2.56178 -3.84296,4.04058c-0.99275,1.11699 13.61955,-3.60421 13.61955,-3.60421c0,0 2.36669,1.46705 3.19416,2.05445c0.58015,0.41184 1.2704,1.52243 1.2704,1.52243c0,0 -3.44644,0.25057 -8.33818,2.46079c-6.61032,2.98672 -12.55068,6.42335 -13.85894,5.30237c-1.79954,-1.54193 2.24903,-1.47594 2.55944,-3.19981c0.24366,-1.35312 -2.95849,-0.47321 -3.13658,-0.39186c-7.4434,3.39976 -11.18609,3.04065 -16.17029,4.56465c-4.96909,1.51938 -6.50539,3.72613 -6.50539,3.72613z" fill-opacity="0.15294" fill="#000000"/><path d="M279.51263,172.39048l0.03191,5.5c0,0 -1.7264,-0.06177 -5.43633,-0.01349c-10.48624,0.13646 -25.74741,-5.09645 -25.76982,-17.31396c-0.0123,-6.70721 0.09901,-7.2297 0.09901,-7.2297h2.89586v2.2l3.31071,0.01362l-0.01072,-2.21362h3.12938c0,0 -0.01123,3.8122 -0.00712,7.4305c0.00741,6.50809 7.04783,11.33256 16.33118,11.61776c1.82618,0.05611 5.42594,0.00889 5.42594,0.00889z" fill="#42484e"/><path d="M279.51263,188.24762l0.03191,5.5c0,0 -9.29783,-0.06177 -13.00776,-0.01349c-17.20053,-0.00639 -44.17598,-9.95359 -44.19839,-28.88539c-0.0123,-6.70721 0.09901,-11.37256 0.09901,-11.37256h2.89586v2.2l3.31071,0.01362l-0.01072,-2.21362h3.12938c0,0 -0.01124,7.95505 -0.00712,11.57335c-0.13545,13.36524 22.04784,23.04685 34.75975,23.1892c1.82618,0.05611 12.99737,0.00888 12.99737,0.00888z" fill="#42484e"/><path d="M279.51263,169.05715l0.03191,5.5c0,0 -1.7264,-0.06177 -5.43633,-0.01349c-10.48624,0.13646 -25.74741,-5.09645 -25.76982,-17.31396c-0.0123,-6.70721 0.09901,-7.2297 0.09901,-7.2297h2.89586v2.2l3.31071,0.01362l-0.01072,-2.21362h3.12938c0,0 -0.01123,3.8122 -0.00712,7.4305c0.00741,6.50809 7.04783,11.33256 16.33118,11.61776c1.82618,0.05611 5.42594,0.00889 5.42594,0.00889z" fill="url(#color-6)"/><path d="M279.51262,184.91429l0.03192,5.5c0,0 -9.29783,-0.06177 -13.00776,-0.01349c-17.20053,-0.00639 -44.17598,-9.95359 -44.19839,-28.88539c-0.0123,-6.70721 0.09901,-11.37256 0.09901,-11.37256h2.89586v2.2l3.31071,0.01362l-0.01072,-2.21362h3.12938c0,0 -0.01124,7.95505 -0.00712,11.57335c-0.13545,13.36524 22.04783,23.04685 34.75976,23.18919c1.82618,0.05611 12.99736,0.00888 12.99736,0.00888z" fill="url(#color-7)"/><path d="M279.47018,170.6625l0.04618,2.33333c0,0 -1.49487,0.0636 -7.12705,-0.03758c-10.65993,-0.1915 -21.16631,-7.40278 -21.38997,-15.8673c-0.10282,-3.89132 -0.06632,-4.86179 -0.06632,-4.86179h3.53715c0,0 -0.05266,1.14678 -0.03046,4.80054c0.04691,7.7214 9.4429,13.55956 18.02031,13.71265c4.91987,0.08781 7.01015,-0.07986 7.01015,-0.07986z" fill-opacity="0.20392" fill="#000000"/><path d="M279.41209,186.71409l0.01841,2.16667c0,0 -8.03398,-0.05382 -14.44584,-0.17442c-21.23668,-0.38598 -39.82823,-15.09213 -39.87385,-26.1909c0.10921,-8.93623 0.09748,-10.28627 0.09748,-10.28627h3.53715c0,0 -0.01072,4.41063 -0.02452,10.23072c0.11039,11.97534 20.41476,23.99589 36.29552,24.2759c8.06435,0.16523 14.39567,-0.0217 14.39567,-0.0217z" fill-opacity="0.20392" fill="#000000"/><path d="M258.04167,181.75c0,9.92476 -8.07752,17.97036 -18.04166,17.97036c-9.96413,0 -18.04167,-8.0456 -18.04167,-17.97036c0,-9.92476 8.07754,-17.97036 18.04167,-17.97036c9.96413,0 18.04166,8.0456 18.04166,17.97036z" fill="url(#color-8)"/><path d="M226.16668,183.33333c0,-7.63994 6.1934,-13.83334 13.83334,-13.83334c7.63994,0 13.83334,6.1934 13.83334,13.83334c0,7.63994 -6.1934,13.83334 -13.83334,13.83334c-7.63994,0 -13.83334,-6.1934 -13.83334,-13.83334z" fill="#cacaca"/><path d="M226.16668,180c0,-7.63994 6.19339,-13.83333 13.83333,-13.83333c7.63994,0 13.83333,6.19339 13.83333,13.83333c0,7.63994 -6.19339,13.83333 -13.83333,13.83333c-7.63994,0 -13.83333,-6.19339 -13.83333,-13.83333z" fill="#ffffff"/></g></g></svg>