<svg version="1.1" xmlns="http://www.w3.org/2000/svg" xmlns:xlink="http://www.w3.org/1999/xlink" width="102.81496" height="110.65678" viewBox="0,0,102.81496,110.65678"><defs><linearGradient x1="239.86428" y1="153.04457" x2="239.86428" y2="159.86986" gradientUnits="userSpaceOnUse" id="color-1"><stop offset="0" stop-color="#000000" stop-opacity="0"/><stop offset="1" stop-color="#000000" stop-opacity="0.2"/></linearGradient><linearGradient x1="239.76756" y1="148.20959" x2="239.76756" y2="152.00126" gradientUnits="userSpaceOnUse" id="color-2"><stop offset="0" stop-color="#000000" stop-opacity="0.20392"/><stop offset="1" stop-color="#000000" stop-opacity="0"/></linearGradient><linearGradient x1="255.46582" y1="169.97992" x2="255.46582" y2="166.059" gradientUnits="userSpaceOnUse" id="color-3"><stop offset="0" stop-color="#000000" stop-opacity="0.20784"/><stop offset="1" stop-color="#000000" stop-opacity="0"/></linearGradient><linearGradient x1="224.38898" y1="169.54425" x2="224.38898" y2="165.62334" gradientUnits="userSpaceOnUse" id="color-4"><stop offset="0" stop-color="#000000" stop-opacity="0.20784"/><stop offset="1" stop-color="#000000" stop-opacity="0"/></linearGradient><linearGradient x1="255.46582" y1="176.36954" x2="255.46582" y2="172.44863" gradientUnits="userSpaceOnUse" id="color-5"><stop offset="0" stop-color="#000000" stop-opacity="0.20784"/><stop offset="1" stop-color="#000000" stop-opacity="0"/></linearGradient><linearGradient x1="224.38898" y1="176.0791" x2="224.38898" y2="172.15819" gradientUnits="userSpaceOnUse" id="color-6"><stop offset="0" stop-color="#000000" stop-opacity="0.20784"/><stop offset="1" stop-color="#000000" stop-opacity="0"/></linearGradient><linearGradient x1="255.54791" y1="196.82806" x2="255.54791" y2="200.74897" gradientUnits="userSpaceOnUse" id="color-7"><stop offset="0" stop-color="#000000" stop-opacity="0.20784"/><stop offset="1" stop-color="#000000" stop-opacity="0"/></linearGradient><linearGradient x1="224.32585" y1="197.1185" x2="224.32585" y2="201.03941" gradientUnits="userSpaceOnUse" id="color-8"><stop offset="0" stop-color="#000000" stop-opacity="0.20784"/><stop offset="1" stop-color="#000000" stop-opacity="0"/></linearGradient><linearGradient x1="255.46582" y1="183.12222" x2="255.46582" y2="179.20131" gradientUnits="userSpaceOnUse" id="color-9"><stop offset="0" stop-color="#000000" stop-opacity="0.20784"/><stop offset="1" stop-color="#000000" stop-opacity="0"/></linearGradient><linearGradient x1="224.53419" y1="182.83178" x2="224.53419" y2="178.91087" gradientUnits="userSpaceOnUse" id="color-10"><stop offset="0" stop-color="#000000" stop-opacity="0.20784"/><stop offset="1" stop-color="#000000" stop-opacity="0"/></linearGradient><linearGradient x1="225.629" y1="175.42154" x2="231.09101" y2="175.42154" gradientUnits="userSpaceOnUse" id="color-11"><stop offset="0" stop-color="#000000" stop-opacity="0.21176"/><stop offset="1" stop-color="#000000" stop-opacity="0"/></linearGradient><linearGradient x1="254.32604" y1="175.42154" x2="248.86403" y2="175.42154" gradientUnits="userSpaceOnUse" id="color-12"><stop offset="0" stop-color="#000000" stop-opacity="0.21176"/><stop offset="1" stop-color="#000000" stop-opacity="0"/></linearGradient></defs><g transform="translate(-188.59252,-124.67161)"><g data-paper-data="{&quot;isPaintingLayer&quot;:true}" fill-rule="nonzero" stroke="none" stroke-width="0" stroke-linecap="butt" stroke-linejoin="miter" stroke-miterlimit="10" stroke-dasharray="" stroke-dashoffset="0" style="mix-blend-mode: normal"><path d="M225.7948,161.88107c0,-7.81971 6.33913,-14.15884 14.15884,-14.15884c7.81971,0 14.15884,6.33913 14.15884,14.15884c0,7.81971 -6.33913,14.15884 -14.15884,14.15884c-7.81971,0 -14.15884,-6.33913 -14.15884,-14.15884z" fill="#5474a9"/><path d="M225.63282,159.86986c0,0 0.74579,-2.69635 1.07968,-3.90344c0.28886,-1.04435 1.67948,-2.92184 1.67948,-2.92184h23.23502c0,0 1.27842,1.73945 1.51371,2.74477c0.28688,1.22577 0.95501,4.08053 0.95501,4.08053z" fill="url(#color-1)"/><path d="M236.10748,153.81044v-9.42435h7.40213v9.42435c0,0 -1.95036,-0.32422 -3.6557,-0.37342c-1.75584,-0.05065 -3.74643,0.37342 -3.74643,0.37342z" fill="#b3b3c9"/><path d="M236.09079,152.00126v-3.79167h7.35354v3.79167z" fill="url(#color-2)"/><g fill="#b3b3c9"><path d="M246.28166,145.92151c0,1.72957 -2.84668,3.13167 -6.35824,3.13167c-3.51156,0 -6.35824,-1.4021 -6.35824,-3.13167c0,-1.72957 2.84668,-3.13167 6.35824,-3.13167c3.51156,0 6.35824,1.4021 6.35824,3.13167z"/><path d="M246.28166,144.21334c0,1.72957 -2.84668,3.13167 -6.35824,3.13167c-3.51156,0 -6.35824,-1.40209 -6.35824,-3.13167c0,-1.72957 2.84668,-3.13167 6.35824,-3.13167c3.51156,0 6.35824,1.4021 6.35824,3.13167z"/><path d="M233.53099,146.11218v-1.98508h12.79009v1.98508z"/></g><path d="M243.84417,143.56323c0,0.87456 -1.7997,1.58353 -4.01974,1.58353c-2.22004,0 -4.01974,-0.70897 -4.01974,-1.58353c0,-0.87456 1.79971,-1.58353 4.01974,-1.58353c2.22004,0 4.01974,0.70897 4.01974,1.58353z" fill="#2a2b42"/><path d="M256.77279,169.68947v13.94101h-2.61394v-13.94101z" data-paper-data="{&quot;index&quot;:null}" fill="#615050"/><path d="M225.69595,169.54425v13.94101h-2.61394v-13.94101z" data-paper-data="{&quot;index&quot;:null}" fill="#615050"/><path d="M256.77279,166.059v3.92091h-2.61394v-3.92091z" data-paper-data="{&quot;index&quot;:null}" fill="url(#color-3)"/><path d="M225.69595,165.62334v3.92091h-2.61394v-3.92091z" data-paper-data="{&quot;index&quot;:null}" fill="url(#color-4)"/><path d="M256.77279,176.22432v13.94101h-2.61394v-13.94101z" data-paper-data="{&quot;index&quot;:null}" fill="#615050"/><path d="M225.69595,176.0791v13.94101h-2.61394v-13.94101z" data-paper-data="{&quot;index&quot;:null}" fill="#615050"/><path d="M256.77279,172.44863v3.92091h-2.61394v-3.92091z" data-paper-data="{&quot;index&quot;:null}" fill="url(#color-5)"/><path d="M225.69595,172.15819v3.92091h-2.61394v-3.92091z" data-paper-data="{&quot;index&quot;:null}" fill="url(#color-6)"/><path d="M254.24094,196.97329v-13.94101h2.61394v13.94101z" fill="#615050"/><path d="M223.01888,197.1185v-13.94101h2.61394v13.94101z" fill="#615050"/><path d="M254.24094,200.74897v-3.92091h2.61394v3.92091z" fill="url(#color-7)"/><path d="M223.01888,201.03941v-3.92091h2.61394v3.92091z" fill="url(#color-8)"/><path d="M256.77279,179.20131v3.92091h-2.61394v-3.92091z" data-paper-data="{&quot;index&quot;:null}" fill="url(#color-9)"/><path d="M225.84116,178.91087v3.92091h-2.61394v-3.92091z" data-paper-data="{&quot;index&quot;:null}" fill="url(#color-10)"/><path d="M225.63203,191.55408c0,-8.74223 0,-29.39395 0,-34.91252c0,-2.25734 2.28134,-4.43282 4.42667,-4.43282c4.22235,0 12.13709,0 19.73903,0c2.68149,0 4.42666,2.28151 4.42666,4.62262c0,7.40024 0,39.34535 0,39.34535c0,0 -18.45395,0 -24.16568,0c-2.14533,0 -4.42667,-1.79816 -4.42667,-4.62262z" fill="#47628f"/><path d="M225.64506,194.53221c0,-8.74223 0,-29.39395 0,-34.91253c0,-2.25734 2.28134,-4.43282 4.42667,-4.43282c4.22235,0 12.13709,0 19.73903,0c2.68149,0 4.42666,2.28151 4.42666,4.62263c0,11.24686 0,26.83602 0,34.528c0,2.71679 -1.6195,4.81735 -4.3363,4.81735c-5.79428,0 -15.84286,0 -19.82939,0c-2.14533,0 -4.42667,-1.79816 -4.42667,-4.62262z" fill="#658ac9"/><path d="M227.43074,167.78272c0,-1.50828 0,-3.09321 0,-4.01974c0,-2.59876 2.14051,-3.82088 3.85366,-3.82088c3.42875,0 15.43669,0 15.43669,0v11.7226c0,0 -12.00795,0 -15.43669,0c-1.71315,0 -3.85366,-1.26394 -3.85366,-3.88197z" fill="#2a2b42"/><path d="M248.52846,171.65451c-3.42875,0 -2.28118,0 -2.28118,0v-11.7226c0,0 -1.14756,0 2.28118,0c1.71315,0 3.85366,1.22211 3.85366,3.82088c0,0.92654 0,2.51146 0,4.01974c0,2.61804 -2.14051,3.88198 -3.85366,3.88198z" data-paper-data="{&quot;index&quot;:null}" fill="#2a2b42"/><path d="M188.59252,235.32839v-110.65678h102.81496v110.65678z" fill="none"/><path d="M225.76352,196.31435c0,-0.57469 0,-4.1823 0,-4.1823c0,0 1.82257,1.91689 3.83378,1.91689c7.4269,0 13.0697,0 13.0697,0v5.05362c0,0 -5.35316,0 -12.89544,0c-2.09185,0 -4.00804,-2.7882 -4.00804,-2.7882z" fill="#cccccc"/><path d="M250.16029,199.10254c-7.54228,0 -12.89544,0 -12.89544,0v-5.05362c0,0 5.6428,0 13.0697,0c2.01122,0 3.83378,-1.91689 3.83378,-1.91689c0,0 0,3.60761 0,4.1823c0,0 -1.91619,2.7882 -4.00804,2.7882z" data-paper-data="{&quot;index&quot;:null}" fill="#cccccc"/><path d="M225.629,194.53855c0,-9.33627 0,-32.58561 0,-37.92191c0,-2.13224 2.2871,-4.21355 4.21355,-4.21355c0.53894,0 1.24846,0 1.24846,0v46.0369c0,0 -1.38297,0 -2.1848,0c-0.98204,0 -3.2772,-1.48453 -3.2772,-3.90143z" fill="url(#color-11)"/><path d="M254.32603,194.53856c0,2.4169 -2.29516,3.90143 -3.2772,3.90143c-0.80183,0 -2.1848,0 -2.1848,0v-46.0369c0,0 0.70952,0 1.24846,0c1.92645,0 4.21355,2.08131 4.21355,4.21355c0,5.33631 0,28.58564 0,37.92191z" data-paper-data="{&quot;index&quot;:null}" fill="url(#color-12)"/></g></g></svg>