<svg version="1.1" xmlns="http://www.w3.org/2000/svg" xmlns:xlink="http://www.w3.org/1999/xlink" width="41.82063" height="307.64848" viewBox="0,0,41.82063,307.64848"><defs><linearGradient x1="261.88137" y1="-282.68636" x2="261.88137" y2="320.78851" gradientUnits="userSpaceOnUse" id="color-1"><stop offset="0" stop-color="#000000" stop-opacity="0.23529"/><stop offset="1" stop-color="#000000" stop-opacity="0"/></linearGradient></defs><g transform="translate(-241.95754,-13.14004)"><g data-paper-data="{&quot;isPaintingLayer&quot;:true}" fill-rule="nonzero" stroke="none" stroke-width="0" stroke-linecap="butt" stroke-linejoin="miter" stroke-miterlimit="10" stroke-dasharray="" stroke-dashoffset="0" style="mix-blend-mode: normal"><path d="M242.39442,320.78851v-274.45833h38.97391v274.45833z" fill="url(#color-1)"/><path d="M244.00001,306.47917v-256c0,0 20.11997,-2.4992 27.37023,-4.15816c2.07509,-0.47481 4.77533,-1.53877 7.08518,-2.54874c2.70706,-1.18364 4.87792,-2.2931 4.87792,-2.2931l-29,242.66667z" fill="#e5ddce"/><path d="M242.00281,311.48138v-260c0,0 -1.93451,-4.78902 19.48685,-5.46321c38.41798,-1.7685 15.51315,-13.03679 15.51315,-13.03679c0,0 0,-45.95314 0,2.00821c0,63.24942 -25,176.49179 -25,176.49179c0,0 10.66575,96.5 -6.00272,96c-3.28626,0.38667 -3.99728,4 -3.99728,4z" fill="#f2e9da"/></g></g></svg>