<svg version="1.1" xmlns="http://www.w3.org/2000/svg" xmlns:xlink="http://www.w3.org/1999/xlink" width="139.12719" height="306.16938" viewBox="0,0,139.12719,306.16938"><defs><linearGradient x1="300.6604" y1="99.62757" x2="290.00002" y2="99.62757" gradientUnits="userSpaceOnUse" id="color-1"><stop offset="0" stop-color="#000000" stop-opacity="0.21176"/><stop offset="1" stop-color="#000000" stop-opacity="0"/></linearGradient><linearGradient x1="275.00002" y1="99.23591" x2="285.6604" y2="99.23591" gradientUnits="userSpaceOnUse" id="color-2"><stop offset="0" stop-color="#000000" stop-opacity="0.21176"/><stop offset="1" stop-color="#000000" stop-opacity="0"/></linearGradient><linearGradient x1="273.15721" y1="255.05733" x2="262.88588" y2="252.20364" gradientUnits="userSpaceOnUse" id="color-3"><stop offset="0" stop-color="#000000" stop-opacity="0.21176"/><stop offset="1" stop-color="#000000" stop-opacity="0"/></linearGradient><linearGradient x1="248.53816" y1="247.81091" x2="258.80949" y2="250.6646" gradientUnits="userSpaceOnUse" id="color-4"><stop offset="0" stop-color="#000000" stop-opacity="0.21176"/><stop offset="1" stop-color="#000000" stop-opacity="0"/></linearGradient></defs><g transform="translate(-170.87281,-24.91533)"><g data-paper-data="{&quot;isPaintingLayer&quot;:true}" fill-rule="nonzero" stroke="none" stroke-width="0" stroke-linecap="butt" stroke-linejoin="miter" stroke-miterlimit="10" stroke-dasharray="" stroke-dashoffset="0" style="mix-blend-mode: normal"><path d="M219,322.66666v-205h39v205z" fill="#6d533e"/><path d="M170.90573,24.91533h10c0,0 25.2469,10.3986 39.80103,96.63205c6.18832,36.66587 9.62429,144.38662 9.69897,177.43051c0.03569,16.07738 -1.28245,22.6369 10.54961,22.34895c11.23574,-0.27344 9.6381,-5.15309 9.4578,-20.04498c-0.16996,-14.03722 49.49259,-276.36653 49.49259,-276.36653h9.5l-50,295.9294c0,0 0.01879,0.53536 0.02181,1.85507c0.0121,5.29161 -2.39607,8.32053 -7.35593,8.33127c-7.61665,0.01649 -19.46803,0.04671 -23.8325,0.05362c-5.0753,0.00802 -7.6667,-3.11896 -7.6667,-7.61925c0,-1.5144 0,-2.62069 0,-2.62069c0,0 -34.05667,-98.62892 -42.43177,-148.53036c-8.17565,-48.71306 -7.23491,-147.39906 -7.23491,-147.39906z" fill="#6d533e"/><path d="M171.00003,169.90443h10c0,0 49.2497,118.97224 49.5,141.98344c0.03569,8.85617 -1.28245,12.46947 10.54961,12.31085c11.23574,-0.15063 9.6381,-2.83857 9.4578,-11.04171c-0.16996,-7.73236 49.49259,-143.25257 49.49259,-143.25257h9.5l-50,154.02872c0,0 0.01879,0.2949 0.02181,1.02186c0.0121,2.91487 -2.39607,4.58334 -7.35593,4.58925c-7.61665,0.00908 -19.46803,0.02573 -23.8325,0.02953c-5.0753,0.00442 -7.6667,-1.71807 -7.6667,-4.19704c0,-0.8342 0,-1.4436 0,-1.4436z" fill="#85654c"/><path d="M171,171.94794v-146h10v146z" fill="#6d533e"/><path d="M300,171.94794v-146h10v146z" fill="#6d533e"/><path d="M234.98652,299.64367l3,-177.27027l39.52853,-93v170.27027c0,0 -40.71923,125 -45.51505,125c-4.71222,0 2.98652,-25 2.98652,-25z" fill="#d5cec0"/><path d="M226.48652,323.64367l44,-152.77027h28.52853l-44,152.77027z" fill="#f2e9da"/><path d="M275,170.66669v-142h25v142z" fill="#f2e9da"/><path d="M290.00002,169.99702v-140.73889h10.66038v140.73889z" data-paper-data="{&quot;index&quot;:null}" fill="url(#color-1)"/><path d="M275.00002,169.4748v-140.47779h10.66038v140.47779z" fill="url(#color-2)"/><path d="M241.71526,323.67161l42.67457,-152.60259l14.93799,-0.47964l-44.34123,152.93592z" data-paper-data="{&quot;index&quot;:null}" fill="url(#color-3)"/><path d="M227.40249,322.81973l42.93801,-151.68435l12.60466,0.18703c0,0 -39.42576,133.85061 -42.59326,144.69597c-0.40123,1.37379 -2.01141,7.65505 -2.01141,7.65505z" fill="url(#color-4)"/></g></g></svg>