<svg version="1.1" xmlns="http://www.w3.org/2000/svg" xmlns:xlink="http://www.w3.org/1999/xlink" width="88.15966" height="68.05" viewBox="0,0,88.15966,68.05"><defs><linearGradient x1="253.15625" y1="207.79584" x2="253.15625" y2="217.29584" gradientUnits="userSpaceOnUse" id="color-1"><stop offset="0" stop-color="#000000" stop-opacity="0.23529"/><stop offset="1" stop-color="#000000" stop-opacity="0"/></linearGradient><linearGradient x1="243.27502" y1="146.46012" x2="243.27502" y2="207.66012" gradientUnits="userSpaceOnUse" id="color-2"><stop offset="0" stop-color="#616e6e"/><stop offset="1" stop-color="#879a9a"/></linearGradient><linearGradient x1="271.03437" y1="198.31506" x2="271.03437" y2="206.03172" gradientUnits="userSpaceOnUse" id="color-3"><stop offset="0" stop-color="#000000" stop-opacity="0.23529"/><stop offset="1" stop-color="#000000" stop-opacity="0"/></linearGradient><linearGradient x1="287.10547" y1="200.18172" x2="287.10547" y2="196.38172" gradientUnits="userSpaceOnUse" id="color-4"><stop offset="0" stop-color="#000000" stop-opacity="0.23529"/><stop offset="1" stop-color="#000000" stop-opacity="0"/></linearGradient><linearGradient x1="287.10547" y1="185.06506" x2="287.10547" y2="192.78172" gradientUnits="userSpaceOnUse" id="color-5"><stop offset="0" stop-color="#000000" stop-opacity="0.23529"/><stop offset="1" stop-color="#000000" stop-opacity="0"/></linearGradient><linearGradient x1="287.10491" y1="151.35077" x2="287.10491" y2="159.06743" gradientUnits="userSpaceOnUse" id="color-6"><stop offset="0" stop-color="#000000" stop-opacity="0.23529"/><stop offset="1" stop-color="#000000" stop-opacity="0"/></linearGradient><linearGradient x1="252.8" y1="209.8" x2="252.8" y2="218.2" gradientUnits="userSpaceOnUse" id="color-7"><stop offset="0" stop-color="#000000" stop-opacity="0.30196"/><stop offset="1" stop-color="#000000" stop-opacity="0"/></linearGradient><linearGradient x1="227.2" y1="209.6" x2="227.2" y2="218" gradientUnits="userSpaceOnUse" id="color-8"><stop offset="0" stop-color="#000000" stop-opacity="0.30196"/><stop offset="1" stop-color="#000000" stop-opacity="0"/></linearGradient><linearGradient x1="224.54502" y1="181.6354" x2="215.17057" y2="181.6354" gradientUnits="userSpaceOnUse" id="color-9"><stop offset="0" stop-color="#000000" stop-opacity="0.20392"/><stop offset="1" stop-color="#000000" stop-opacity="0"/></linearGradient><linearGradient x1="248.37905" y1="181.6354" x2="239.51133" y2="181.6354" gradientUnits="userSpaceOnUse" id="color-10"><stop offset="0" stop-color="#000000" stop-opacity="0.20392"/><stop offset="1" stop-color="#000000" stop-opacity="0"/></linearGradient><linearGradient x1="231.77481" y1="181.6354" x2="239.37572" y2="181.6354" gradientUnits="userSpaceOnUse" id="color-11"><stop offset="0" stop-color="#000000" stop-opacity="0.30196"/><stop offset="1" stop-color="#000000" stop-opacity="0"/></linearGradient><linearGradient x1="256.15267" y1="181.6354" x2="263.75359" y2="181.6354" gradientUnits="userSpaceOnUse" id="color-12"><stop offset="0" stop-color="#000000" stop-opacity="0.30196"/><stop offset="1" stop-color="#000000" stop-opacity="0"/></linearGradient><linearGradient x1="222.475" y1="180" x2="231.80024" y2="180" gradientUnits="userSpaceOnUse" id="color-13"><stop offset="0" stop-color="#5a6168"/><stop offset="1" stop-color="#757e87"/></linearGradient><linearGradient x1="248.175" y1="180.1" x2="257.50024" y2="180.1" gradientUnits="userSpaceOnUse" id="color-14"><stop offset="0" stop-color="#5a6168"/><stop offset="1" stop-color="#757e87"/></linearGradient></defs><g transform="translate(-209.97502,-150.15)"><g data-paper-data="{&quot;isPaintingLayer&quot;:true}" fill-rule="nonzero" stroke-linejoin="miter" stroke-miterlimit="10" stroke-dasharray="" stroke-dashoffset="0" style="mix-blend-mode: normal"><path d="M210.02505,217.29584v-9.5h86.26239v9.5z" fill="url(#color-1)" stroke="none" stroke-width="0" stroke-linecap="butt"/><path d="M210.03334,208.05001c0,-7.83102 0,-48.4 0,-48.4h86.6c0,0 0,40.92 0,48.6c0,1.92 -1.32763,3.6 -3.6,3.6c-12.29145,0 -72.22419,0 -79.2,0c-2.0332,0 -3.8,-1.7851 -3.8,-3.8z" fill="#616e6e" stroke="none" stroke-width="0" stroke-linecap="butt"/><path d="M209.97502,203.86012c0,-6.14617 0,-32.95852 0,-43.99627c0,-2.82669 1.40662,-4.40373 4.23332,-4.40373c10.14809,0 82.36668,0 82.36668,0c0,0 0,40.92 0,48.6c0,1.92 -1.32763,3.6 -3.6,3.6c-12.29145,0 -72.22419,0 -79.2,0c-2.0332,0 -3.8,-1.7851 -3.8,-3.8z" fill="url(#color-2)" stroke="none" stroke-width="0" stroke-linecap="butt"/><path d="M227.14046,162.60887c1.91935,0.0189 3.98136,0 4.90408,0c2.21805,0 3.60067,0.92879 3.60067,2.17012c0,1.34986 0,5.04518 0,7.44041c0,1.21925 -1.1451,2.17012 -3.3237,2.17012c-1.13354,0 -3.38773,0 -5.26252,0c-2.05079,0 -3.04672,-0.86739 -3.04672,-2.01511c0,-2.43701 0,-6.38264 0,-7.75042c0,-0.92377 1.45795,-2.03156 3.1282,-2.01511z" fill-opacity="0.2" fill="#000000" stroke="none" stroke-width="0" stroke-linecap="butt"/><path d="M227.14046,175.48012c1.91935,0.0189 3.98138,0 4.90409,0c2.21805,0 3.60067,0.92878 3.60067,2.17012c0,1.34986 0,5.04518 0,7.44041c0,1.21925 -1.1451,2.17012 -3.3237,2.17012c-1.13354,0 -3.38772,0 -5.26251,0c-2.05079,0 -3.04673,-0.86739 -3.04673,-2.01511c0,-2.43701 0,-6.38264 0,-7.75042c0,-0.92377 1.45795,-2.03156 3.1282,-2.01511z" fill-opacity="0.2" fill="#000000" stroke="none" stroke-width="0" stroke-linecap="butt"/><path d="M227.14046,188.35135c1.91935,0.0189 3.98136,0 4.90408,0c2.21805,0 3.60067,0.92879 3.60067,2.17012c0,1.34986 0,5.04518 0,7.44041c0,1.21925 -1.1451,2.17012 -3.3237,2.17012c-1.13354,0 -3.38773,0 -5.26252,0c-2.05079,0 -3.04672,-0.86739 -3.04672,-2.01511c0,-2.43701 0,-6.38264 0,-7.75042c0,-0.92377 1.45795,-2.03156 3.1282,-2.01511z" fill-opacity="0.2" fill="#000000" stroke="none" stroke-width="0" stroke-linecap="butt"/><path d="M235.64523,155.65189c0,0 0,2.6253 0,3.75163c0,1.21925 -1.14511,2.17012 -3.32371,2.17012c-1.13354,0 -3.38772,0 -5.26251,0c-2.05079,0 -3.04673,-0.86738 -3.04673,-2.01511c0,-1.11654 0,-3.90664 0,-3.90664z" fill-opacity="0.2" fill="#000000" stroke="none" stroke-width="0" stroke-linecap="butt"/><path d="M224.01229,207.25033c0,0 0,-2.7901 0,-3.90664c0,-1.14773 0.99592,-2.01511 3.04673,-2.01511c1.87479,0 4.12897,0 5.26251,0c2.1786,0 3.32371,0.95087 3.32371,2.17012c0,1.12633 0,3.75163 0,3.75163z" data-paper-data="{&quot;index&quot;:null}" fill-opacity="0.2" fill="#000000" stroke="none" stroke-width="0" stroke-linecap="butt"/><path d="M213.91822,156.31626c1.91935,0.0189 3.98136,0 4.90408,0c2.21805,0 3.60067,0.92878 3.60067,2.17012c0,1.34986 0,5.04518 0,7.44041c0,1.21925 -1.1451,2.17012 -3.3237,2.17012c-1.13354,0 -3.38773,0 -5.26252,0c-2.05079,0 -3.04673,-0.86739 -3.04673,-2.01511c0,-2.43701 0,-6.38264 0,-7.75042c0,-0.92377 1.45795,-2.03156 3.1282,-2.01511z" fill-opacity="0.2" fill="#000000" stroke="none" stroke-width="0" stroke-linecap="butt"/><path d="M213.91822,169.18751c1.91935,0.0189 3.98136,0 4.90408,0c2.21805,0 3.60067,0.92879 3.60067,2.17012c0,1.34986 0,5.04518 0,7.44041c0,1.21925 -1.1451,2.17012 -3.3237,2.17012c-1.13354,0 -3.38773,0 -5.26252,0c-2.05079,0 -3.04673,-0.86739 -3.04673,-2.01511c0,-2.43701 0,-6.38264 0,-7.75042c0,-0.92377 1.45795,-2.03156 3.1282,-2.01511z" fill-opacity="0.2" fill="#000000" stroke="none" stroke-width="0" stroke-linecap="butt"/><path d="M213.91822,182.05875c1.91935,0.0189 3.98136,0 4.90408,0c2.21805,0 3.60067,0.92879 3.60067,2.17012c0,1.34985 0,5.04517 0,7.44041c0,1.21925 -1.1451,2.17012 -3.3237,2.17012c-1.13354,0 -3.38773,0 -5.26252,0c-2.05079,0 -3.04673,-0.86739 -3.04673,-2.01511c0,-2.43701 0,-6.38264 0,-7.75042c0,-0.92377 1.45795,-2.03156 3.1282,-2.01511z" fill-opacity="0.2" fill="#000000" stroke="none" stroke-width="0" stroke-linecap="butt"/><path d="M213.91822,194.93921c1.91935,0.0189 3.98138,0 4.90409,0c2.21805,0 3.60067,0.92879 3.60067,2.17012c0,1.34986 0,5.04518 0,7.44041c0,1.21925 -1.14511,2.17012 -3.32371,2.17012c-1.13354,0 -3.38772,0 -5.26251,0c-2.05079,0 -3.04673,-0.86739 -3.04673,-2.01511c0,-2.43702 0,-6.38264 0,-7.75042c0,-0.92377 1.45795,-2.03156 3.1282,-2.01511z" fill-opacity="0.2" fill="#000000" stroke="none" stroke-width="0" stroke-linecap="butt"/><path d="M253.83226,162.52811c1.91935,0.0189 3.98135,0 4.90407,0c2.21805,0 3.60067,0.92878 3.60067,2.17012c0,1.34986 0,5.04518 0,7.44041c0,1.21925 -1.14511,2.17012 -3.3237,2.17012c-1.13354,0 -3.38772,0 -5.26251,0c-2.05079,0 -3.04672,-0.86739 -3.04672,-2.01511c0,-2.43701 0,-6.38264 0,-7.75042c0,-0.92377 1.45795,-2.03156 3.1282,-2.01511z" fill-opacity="0.2" fill="#000000" stroke="none" stroke-width="0" stroke-linecap="butt"/><path d="M253.83226,175.39935c1.91935,0.0189 3.98135,0 4.90407,0c2.21805,0 3.60067,0.92879 3.60067,2.17012c0,1.34986 0,5.04518 0,7.44041c0,1.21925 -1.14511,2.17012 -3.3237,2.17012c-1.13354,0 -3.38772,0 -5.26251,0c-2.05079,0 -3.04672,-0.86739 -3.04672,-2.01511c0,-2.43701 0,-6.38264 0,-7.75042c0,-0.92377 1.45795,-2.03156 3.1282,-2.01511z" fill-opacity="0.2" fill="#000000" stroke="none" stroke-width="0" stroke-linecap="butt"/><path d="M253.83226,188.27059c1.91935,0.0189 3.98135,0 4.90407,0c2.21805,0 3.60067,0.92879 3.60067,2.17012c0,1.34985 0,5.04517 0,7.44041c0,1.21925 -1.14511,2.17012 -3.3237,2.17012c-1.13354,0 -3.38772,0 -5.26251,0c-2.05079,0 -3.04672,-0.86739 -3.04672,-2.01511c0,-2.43701 0,-6.38264 0,-7.75042c0,-0.92377 1.45795,-2.03156 3.1282,-2.01511z" fill-opacity="0.2" fill="#000000" stroke="none" stroke-width="0" stroke-linecap="butt"/><path d="M262.33703,155.57113c0,0 0,2.6253 0,3.75163c0,1.21925 -1.1451,2.17012 -3.3237,2.17012c-1.13354,0 -3.38773,0 -5.26252,0c-2.05079,0 -3.04672,-0.86739 -3.04672,-2.01511c0,-1.11654 0,-3.90664 0,-3.90664z" fill-opacity="0.2" fill="#000000" stroke="none" stroke-width="0" stroke-linecap="butt"/><path d="M250.70409,207.16957c0,0 0,-2.7901 0,-3.90664c0,-1.14773 0.99591,-2.01511 3.04672,-2.01511c1.87479,0 4.12897,0 5.26252,0c2.1786,0 3.3237,0.95087 3.3237,2.17012c0,1.12632 0,3.75163 0,3.75163z" data-paper-data="{&quot;index&quot;:null}" fill-opacity="0.2" fill="#000000" stroke="none" stroke-width="0" stroke-linecap="butt"/><path d="M240.61001,156.2355c1.91935,0.0189 3.98138,0 4.90409,0c2.21805,0 3.60067,0.92879 3.60067,2.17012c0,1.34986 0,5.04518 0,7.44041c0,1.21925 -1.1451,2.17012 -3.3237,2.17012c-1.13354,0 -3.38773,0 -5.26252,0c-2.05079,0 -3.04672,-0.86739 -3.04672,-2.01511c0,-2.43701 0,-6.38264 0,-7.75042c0,-0.92377 1.45795,-2.03156 3.1282,-2.01511z" fill-opacity="0.2" fill="#000000" stroke="none" stroke-width="0" stroke-linecap="butt"/><path d="M240.61001,169.10674c1.91935,0.0189 3.98138,0 4.90409,0c2.21805,0 3.60067,0.92878 3.60067,2.17012c0,1.34986 0,5.04518 0,7.44041c0,1.21925 -1.1451,2.17012 -3.3237,2.17012c-1.13354,0 -3.38773,0 -5.26252,0c-2.05079,0 -3.04672,-0.86739 -3.04672,-2.01511c0,-2.43701 0,-6.38264 0,-7.75042c0,-0.92377 1.45795,-2.03156 3.1282,-2.01511z" fill-opacity="0.2" fill="#000000" stroke="none" stroke-width="0" stroke-linecap="butt"/><path d="M240.61001,181.97798c1.91935,0.0189 3.98138,0 4.90409,0c2.21805,0 3.60067,0.92879 3.60067,2.17012c0,1.34986 0,5.04518 0,7.44041c0,1.21925 -1.1451,2.17012 -3.3237,2.17012c-1.13354,0 -3.38773,0 -5.26252,0c-2.05079,0 -3.04672,-0.86739 -3.04672,-2.01511c0,-2.43702 0,-6.38264 0,-7.75042c0,-0.92377 1.45795,-2.03156 3.1282,-2.01511z" fill-opacity="0.2" fill="#000000" stroke="none" stroke-width="0" stroke-linecap="butt"/><path d="M240.61001,194.85845c1.91935,0.0189 3.98138,0 4.90409,0c2.21805,0 3.60067,0.92879 3.60067,2.17012c0,1.34985 0,5.04518 0,7.44041c0,1.21925 -1.1451,2.17012 -3.3237,2.17012c-1.13354,0 -3.38773,0 -5.26252,0c-2.05079,0 -3.04672,-0.86739 -3.04672,-2.01511c0,-2.43701 0,-6.38264 0,-7.75042c0,-0.92378 1.45795,-2.03156 3.1282,-2.01511z" fill-opacity="0.2" fill="#000000" stroke="none" stroke-width="0" stroke-linecap="butt"/><path d="M267.38425,156.2355c1.91935,0.0189 3.98138,0 4.90409,0c2.21805,0 3.60067,0.92879 3.60067,2.17012c0,1.34986 0,5.04518 0,7.44041c0,1.21925 -1.1451,2.17012 -3.3237,2.17012c-1.13355,0 -3.38773,0 -5.26252,0c-2.05079,0 -3.04672,-0.86739 -3.04672,-2.01511c0,-2.43701 0,-6.38264 0,-7.75042c0,-0.92377 1.45795,-2.03156 3.1282,-2.01511z" fill-opacity="0.2" fill="#000000" stroke="none" stroke-width="0" stroke-linecap="butt"/><path d="M267.38425,169.10674c1.91935,0.0189 3.98138,0 4.90409,0c2.21805,0 3.60067,0.92878 3.60067,2.17012c0,1.34986 0,5.04518 0,7.44041c0,1.21925 -1.1451,2.17012 -3.3237,2.17012c-1.13355,0 -3.38773,0 -5.26252,0c-2.05079,0 -3.04672,-0.86739 -3.04672,-2.01511c0,-2.43701 0,-6.38264 0,-7.75042c0,-0.92377 1.45795,-2.03156 3.1282,-2.01511z" fill-opacity="0.2" fill="#000000" stroke="none" stroke-width="0" stroke-linecap="butt"/><path d="M267.38425,181.97798c1.91935,0.0189 3.98138,0 4.90409,0c2.21805,0 3.60067,0.92879 3.60067,2.17012c0,1.34986 0,5.04518 0,7.44041c0,1.21925 -1.1451,2.17012 -3.3237,2.17012c-1.13355,0 -3.38773,0 -5.26252,0c-2.05079,0 -3.04672,-0.86738 -3.04672,-2.01511c0,-2.43702 0,-6.38264 0,-7.75042c0,-0.92377 1.45795,-2.03156 3.1282,-2.01511z" fill-opacity="0.2" fill="#000000" stroke="none" stroke-width="0" stroke-linecap="butt"/><path d="M267.38425,194.85845c1.91935,0.0189 3.98138,0 4.90409,0c2.21805,0 3.60067,0.92879 3.60067,2.17012c0,1.34985 0,5.04518 0,7.44041c0,1.21925 -1.1451,2.17012 -3.3237,2.17012c-1.13355,0 -3.38773,0 -5.26252,0c-2.05079,0 -3.04672,-0.86739 -3.04672,-2.01511c0,-2.43701 0,-6.38264 0,-7.75042c0,-0.92378 1.45795,-2.03156 3.1282,-2.01511z" fill-opacity="0.2" fill="#000000" stroke="none" stroke-width="0" stroke-linecap="butt"/><path d="M264.75895,206.03172v-7.71667h12.55086v7.71667z" data-paper-data="{&quot;index&quot;:null}" fill="url(#color-3)" stroke="none" stroke-width="0" stroke-linecap="butt"/><path d="M273.79556,201.3846c-1.43692,0 -3.94955,0 -4.86321,0c-2.46826,0 -4.16918,-1.48155 -4.16918,-3.5207c0,-2.70903 0,-4.03436 0,-8.93732c0,-2.03107 1.49044,-3.52398 3.94892,-3.52398c1.55315,0 4.00558,0 4.97335,0c2.27693,0 3.93253,1.09667 3.91112,2.97767c-0.05411,4.75378 -0.12978,6.64462 0.0378,9.48363c0.11014,1.86579 -1.85123,3.5207 -3.8388,3.5207z" fill="#9b8066" stroke="none" stroke-width="0" stroke-linecap="butt"/><path d="M273.80588,197.05127c-1.43692,0 -3.94955,0 -4.86321,0c-2.46826,0 -4.16918,-1.48155 -4.16918,-3.5207c0,-2.70903 0,-4.03436 0,-8.93732c0,-2.03107 1.49044,-3.52398 3.94892,-3.52398c1.55315,0 4.00558,0 4.97335,0c2.27693,0 3.93253,1.09667 3.91112,2.97767c-0.05411,4.75378 -0.12977,6.64462 0.0378,9.48363c0.11012,1.86578 -1.85122,3.5207 -3.8388,3.5207z" fill="#7a6551" stroke="none" stroke-width="0" stroke-linecap="butt"/><path d="M272.13965,195.85237c-1.07506,0 -0.98982,0 -1.67342,0c-1.84669,0 -3.11927,-1.17875 -3.11927,-2.80114c0,-2.15536 0,-4.41177 0,-8.31266c0,-1.61596 1.11511,-2.80375 2.95448,-2.80375c1.16202,0 1.03175,0 1.75581,0c1.70354,0 2.94222,0.87254 2.92622,2.36909c-0.04047,3.7822 -0.0971,6.48855 0.02828,8.74732c0.0824,1.48446 -1.38505,2.80114 -2.8721,2.80114z" fill="#2a231c" stroke="none" stroke-width="0" stroke-linecap="butt"/><path d="M270.77065,189.70585c1.19547,1.36958 1.47594,3.08095 0.62645,3.82244c-0.84949,0.74149 -2.50725,0.23232 -3.70272,-1.13726c-1.19547,-1.36958 -1.47594,-3.08095 -0.62645,-3.82244c0.84949,-0.74149 2.50725,-0.23232 3.70272,1.13726z" fill="#4dbf69" stroke="none" stroke-width="0" stroke-linecap="butt"/><path d="M271.09469,192.98113v-8.91667" fill="none" stroke="#4dbf69" stroke-width="1.5" stroke-linecap="round"/><path d="M275.24325,185.87629c0.84949,0.74149 0.56901,2.45285 -0.62645,3.82243c-1.19547,1.36958 -2.85323,1.87875 -3.70272,1.13726c-0.84949,-0.74149 -0.56901,-2.45286 0.62645,-3.82244c1.19547,-1.36958 2.85323,-1.87875 3.70272,-1.13726z" data-paper-data="{&quot;index&quot;:null}" fill="#4dbf69" stroke="none" stroke-width="0" stroke-linecap="butt"/><path d="M266.86393,179.44588c0,-1.86504 0.01172,-0.22284 0.04783,-1.72508c0.09908,-4.12206 0.74384,-4.76151 2.1721,-0.67152c0.24209,0.69325 0.23303,0.77776 0.23303,0.77776c0,0 0.16985,-0.23077 0.29254,-0.79205c0.70845,-3.24113 1.8651,-4.18243 3.1412,0.22035c0.11681,0.40302 0.26005,0.61139 0.26005,0.61139c0,0 0.12725,-0.14884 0.22184,-0.46647c1.05806,-3.55319 2.19358,-4.85224 2.34037,0.37211c0.05278,1.87845 -0.01664,-0.16368 -0.01664,1.67351c0,2.40031 -1.94584,4.34615 -4.34615,4.34615c-2.40031,0 -4.34615,-1.94584 -4.34615,-4.34615z" fill="#bf4d4d" stroke="none" stroke-width="0" stroke-linecap="butt"/><path d="M296.63468,155.21502v51.52844h-18.98717v-51.65z" data-paper-data="{&quot;index&quot;:null}" fill="#c98365" stroke="none" stroke-width="0" stroke-linecap="butt"/><path d="M277.66687,204.45933c0,-1.28741 0,-4.28802 0,-4.28802h18.97223c0,0 0,3.30891 0,4.62135c0,1.57282 -1.02365,2.54531 -2.4999,2.54531c-3.87583,0 -11.13073,0 -13.45327,0c-1.40256,0 -3.01906,-1.59124 -3.01906,-2.87865z" fill="#c7cfd0" stroke="none" stroke-width="0" stroke-linecap="butt"/><path d="M296.62756,196.38172v3.8h-19.04419v-3.8z" data-paper-data="{&quot;index&quot;:null}" fill="url(#color-4)" stroke="none" stroke-width="0" stroke-linecap="butt"/><path d="M281.80261,203.09244c0,-1.06512 0.81043,-1.92857 1.81016,-1.92857c0.99972,0 1.81016,0.86345 1.81016,1.92857c0,1.06512 -0.81043,1.92857 -1.81016,1.92857c-0.99972,0 -1.81016,-0.86345 -1.81016,-1.92857z" fill-opacity="0.2" fill="#000000" stroke="none" stroke-width="0" stroke-linecap="butt"/><path d="M286.76378,202.37815c0,-0.59173 0.45024,-1.07143 1.00565,-1.07143c0.5554,0 1.00564,0.4797 1.00564,1.07143c0,0.59173 -0.45024,1.07143 -1.00564,1.07143c-0.5554,0 -1.00565,-0.47969 -1.00565,-1.07143z" fill-opacity="0.2" fill="#000000" stroke="none" stroke-width="0" stroke-linecap="butt"/><path d="M286.09335,205.37815c0,-0.59173 0.45024,-1.07143 1.00565,-1.07143c0.5554,0 1.00565,0.4797 1.00565,1.07143c0,0.59173 -0.45024,1.07143 -1.00565,1.07143c-0.5554,0 -1.00565,-0.47969 -1.00565,-1.07143z" fill-opacity="0.2" fill="#000000" stroke="none" stroke-width="0" stroke-linecap="butt"/><path d="M289.98184,204.59244c0,-0.63118 0.48025,-1.14285 1.07268,-1.14285c0.59242,0 1.07268,0.51167 1.07268,1.14285c0,0.63118 -0.48025,1.14286 -1.07268,1.14286c-0.59242,0 -1.07268,-0.51167 -1.07268,-1.14286z" fill-opacity="0.2" fill="#000000" stroke="none" stroke-width="0" stroke-linecap="butt"/><path d="M292.52947,202.66387c0,-0.74953 0.5703,-1.35715 1.27381,-1.35715c0.70351,0 1.27383,0.60762 1.27383,1.35715c0,0.74953 -0.57032,1.35714 -1.27383,1.35714c-0.70351,0 -1.27381,-0.60761 -1.27381,-1.35714z" fill-opacity="0.2" fill="#000000" stroke="none" stroke-width="0" stroke-linecap="butt"/><path d="M293.06581,205.94958c0,-0.51283 0.39022,-0.92857 0.87156,-0.92857c0.48134,0 0.87156,0.41574 0.87156,0.92857c0,0.51283 -0.39022,0.92857 -0.87156,0.92857c-0.48134,0 -0.87156,-0.41574 -0.87156,-0.92857z" fill-opacity="0.2" fill="#000000" stroke="none" stroke-width="0" stroke-linecap="butt"/><path d="M280.0595,205.73529c0,-0.55229 0.42022,-1 0.9386,-1c0.51838,0 0.9386,0.44771 0.9386,1c0,0.55229 -0.42022,1 -0.9386,1c-0.51838,0 -0.9386,-0.44771 -0.9386,-1z" fill-opacity="0.2" fill="#000000" stroke="none" stroke-width="0" stroke-linecap="butt"/><path d="M279.79133,201.44958c0,-0.39449 0.30016,-0.71429 0.67043,-0.71429c0.37027,0 0.67042,0.3198 0.67042,0.71429c0,0.39449 -0.30015,0.71428 -0.67042,0.71428c-0.37027,0 -0.67043,-0.31979 -0.67043,-0.71428z" fill-opacity="0.2" fill="#000000" stroke="none" stroke-width="0" stroke-linecap="butt"/><path d="M277.58338,192.78172v-7.71667h19.04419v7.71667z" data-paper-data="{&quot;index&quot;:null}" fill="url(#color-5)" stroke="none" stroke-width="0" stroke-linecap="butt"/><path d="M298.13468,154.42324c0,0 0,24.61087 0,29.90712c0,2.26935 -1.44254,3.91309 -4.06924,3.91309c-4.26482,0 -10.69108,0 -13.22822,0c-2.75759,0 -4.67961,-1.53067 -4.67961,-3.91309c0,-5.30518 0,-29.98691 0,-29.98691z" data-paper-data="{&quot;index&quot;:null}" fill="#412b2b" stroke="none" stroke-width="0" stroke-linecap="butt"/><path d="M298.13468,151.42324c0,0 0,24.61087 0,29.90712c0,2.26935 -1.44254,3.91309 -4.06924,3.91309c-4.26482,0 -10.69108,0 -13.22822,0c-2.75758,0 -4.67961,-1.53067 -4.67961,-3.91309c0,-5.30518 0,-29.98691 0,-29.98691z" data-paper-data="{&quot;index&quot;:null}" fill="#4c3232" stroke="none" stroke-width="0" stroke-linecap="butt"/><path d="M276.08338,159.06743v-7.71666h22.04307v7.71666z" data-paper-data="{&quot;index&quot;:null}" fill="url(#color-6)" stroke="none" stroke-width="0" stroke-linecap="butt"/><path d="M248.15715,218.2v-8.4h9.28571v8.4z" fill="url(#color-7)" stroke="none" stroke-width="0" stroke-linecap="butt"/><path d="M222.55715,218v-8.4h9.28571v8.4z" fill="url(#color-8)" stroke="none" stroke-width="0" stroke-linecap="butt"/><path d="M215.17057,155.52655h9.37446v52.21773h-9.37446z" data-paper-data="{&quot;index&quot;:null}" fill="url(#color-9)" stroke="none" stroke-width="0" stroke-linecap="butt"/><path d="M239.51133,155.52655h8.86773v52.21773h-8.86773z" data-paper-data="{&quot;index&quot;:null}" fill="url(#color-10)" stroke="none" stroke-width="0" stroke-linecap="butt"/><path d="M239.37572,207.74423h-7.60091v-52.21773h7.60091z" fill="url(#color-11)" stroke="none" stroke-width="0" stroke-linecap="butt"/><path d="M263.75359,207.74423h-7.60091v-52.21773h7.60091z" fill="url(#color-12)" stroke="none" stroke-width="0" stroke-linecap="butt"/><path d="M231.80024,209.85h-9.32523v-59.7h2.89586v2.2l3.31071,0.01362l-0.01071,-2.21362h3.12937z" fill="url(#color-13)" stroke="none" stroke-width="0" stroke-linecap="butt"/><path d="M257.50024,209.95h-9.32523v-59.7h2.89586v2.2l3.31071,0.01362l-0.01072,-2.21362h3.12938z" fill="url(#color-14)" stroke="none" stroke-width="0" stroke-linecap="butt"/><path d="M254.47018,209.77917h-3.53715v-57.35h3.53715z" fill-opacity="0.20392" fill="#000000" stroke="none" stroke-width="0" stroke-linecap="butt"/><path d="M228.74542,209.77917h-3.53715v-57.35h3.53715z" fill-opacity="0.20392" fill="#000000" stroke="none" stroke-width="0" stroke-linecap="butt"/><path d="M231.80024,213.60402h-9.32523v-6.06364h2.89586v2.2l3.31071,0.01362l-0.01072,-2.21362h3.12938z" fill="#42484e" stroke="none" stroke-width="0" stroke-linecap="butt"/><path d="M257.52751,213.69493h-9.32523v-6.06364h2.89586v2.2l3.31071,0.01362l-0.01072,-2.21362h3.12938z" fill="#42484e" stroke="none" stroke-width="0" stroke-linecap="butt"/></g></g></svg>