<svg version="1.1" xmlns="http://www.w3.org/2000/svg" xmlns:xlink="http://www.w3.org/1999/xlink" width="680.08599" height="440.33432" viewBox="0,0,680.08599,440.33432"><defs><linearGradient x1="240" y1="-3.68243" x2="240" y2="239.56081" gradientUnits="userSpaceOnUse" id="color-1"><stop offset="0" stop-color="#8fa7cc"/><stop offset="1" stop-color="#477e70"/></linearGradient><linearGradient x1="240.75075" y1="118.90766" x2="240.75075" y2="365.1539" gradientUnits="userSpaceOnUse" id="color-2"><stop offset="0" stop-color="#7286a3"/><stop offset="1" stop-color="#39665b"/></linearGradient></defs><g transform="translate(76.44725,75.18042)"><g data-paper-data="{&quot;isPaintingLayer&quot;:true}" fill-rule="nonzero" stroke-linejoin="miter" stroke-miterlimit="10" stroke-dasharray="" stroke-dashoffset="0" style="mix-blend-mode: normal"><path d="M-3.99399,239.56081v-243.24324h487.98799v243.24324z" fill="url(#color-1)" stroke="none" stroke-width="0" stroke-linecap="butt"/><path d="M179.73392,80.28705v-31.65254h34.44544v31.65254z" data-paper-data="{&quot;index&quot;:null}" fill="#7598aa" stroke="none" stroke-width="0" stroke-linecap="butt"/><g data-paper-data="{&quot;index&quot;:null}" fill="none" stroke="#6c939f" stroke-width="20" stroke-linecap="round"><path d="M174.69006,80.02868v21.73385"/><path d="M185.07041,70.94588v28.87034"/><path d="M194.4776,99.49183v-26.92403"/><path d="M204.20917,66.72887v30.81665"/><path d="M213.29197,98.51867v-24.65332"/><path d="M222.05039,101.76253v-16.21929"/><path d="M166.58041,96.89676v6.8121"/></g><path d="M147.03606,41.53016c4.44647,-6.13307 17.61469,-24.29617 17.61469,-24.29617c0,0 -7.2428,-0.16125 -10.82315,-0.24094c-4.37185,-0.09733 -6.43415,-4.98343 -3.59055,-8.30555c5.70423,-6.66411 24.75104,-28.91601 24.75104,-28.91601c0,0 -7.79555,0.09486 -11.17854,0.13604c-4.00944,0.0488 -3.61944,-4.76523 -1.03322,-7.82946c7.81811,-9.26322 20.25592,-24.02371 24.75161,-29.49232c4.33194,-5.26943 11.34719,-4.39896 15.71589,0.84c4.55352,5.46059 15.92992,19.10326 23.56397,28.25808c3.05111,3.65892 1.75634,8.87636 -3.00753,8.82781c-3.09067,-0.03149 -8.9169,-0.09089 -8.9169,-0.09089c0,0 20.9763,23.34299 27.19732,30.26593c3.02445,3.3657 0.39562,8.24268 -4.12934,8.23351c-3.45213,-0.007 -9.99549,-0.02026 -9.99549,-0.02026c0,0 12.11804,15.87881 16.57611,21.72043c3.05891,4.00826 2.62635,9.93212 -2.41577,9.93212c-12.60381,0 -67.27032,0 -90.79284,0c-6.66411,0 -4.28731,-9.02232 -4.28731,-9.02232z" data-paper-data="{&quot;index&quot;:null}" fill="#7598aa" stroke="none" stroke-width="0" stroke-linecap="butt"/><path d="M246.26522,103.30508v-37.36527h40.66223v37.36527z" data-paper-data="{&quot;index&quot;:null}" fill="#6e94a2" stroke="none" stroke-width="0" stroke-linecap="butt"/><path d="M207.66597,57.55324c5.24898,-7.23998 20.79383,-28.6812 20.79383,-28.6812c0,0 -8.55,-0.19035 -12.77654,-0.28443c-5.16089,-0.1149 -7.5954,-5.88285 -4.23858,-9.80456c6.73374,-7.86686 29.21817,-34.13484 29.21817,-34.13484c0,0 -9.20251,0.11198 -13.19607,0.16059c-4.73307,0.05761 -4.27269,-5.62527 -1.2197,-9.24254c9.22914,-10.93507 23.91176,-28.35957 29.21884,-34.81516c5.11378,-6.22047 13.39516,-5.19289 18.55233,0.99161c5.37535,6.44613 18.80499,22.55106 27.81685,33.35817c3.60178,4.31929 2.07333,10.47839 -3.55034,10.42107c-3.64848,-0.03717 -10.52624,-0.10729 -10.52624,-0.10729c0,0 24.76215,27.55599 32.10596,35.7284c3.57031,3.97315 0.46702,9.73034 -4.87461,9.71951c-4.07518,-0.00826 -11.7995,-0.02392 -11.7995,-0.02392c0,0 14.30513,18.74466 19.56781,25.64058c3.61099,4.73168 3.10036,11.72469 -2.85177,11.72469c-14.87858,0 -79.41143,0 -107.17935,0c-7.86686,0 -5.06109,-10.65069 -5.06109,-10.65069z" data-paper-data="{&quot;index&quot;:null}" fill="#6e94a2" stroke="none" stroke-width="0" stroke-linecap="butt"/><path d="M36.45681,141.35312v-48.01305h52.24954v48.01305z" data-paper-data="{&quot;index&quot;:null}" fill="#7185a1" stroke="none" stroke-width="0" stroke-linecap="butt"/><path d="M-13.14188,80.28602c6.74475,-9.30312 26.71935,-36.85433 26.71935,-36.85433c0,0 -10.98644,-0.2446 -16.4174,-0.36548c-6.63157,-0.14764 -9.75983,-7.55926 -5.44643,-12.5985c8.65262,-10.10864 37.54432,-43.86207 37.54432,-43.86207c0,0 -11.8249,0.14389 -16.95648,0.20636c-6.08183,0.07403 -5.49025,-7.22827 -1.56726,-11.87634c11.85913,-14.05118 30.72577,-36.44105 37.54519,-44.73627c6.57103,-7.99308 17.21231,-6.6727 23.8391,1.27417c6.90713,8.28306 24.16375,28.97732 35.74368,42.86407c4.62817,5.55014 2.66416,13.46437 -4.56206,13.39072c-4.68818,-0.04776 -13.52585,-0.13786 -13.52585,-0.13786c0,0 31.8185,35.40848 41.25504,45.90974c4.58773,5.10535 0.60011,12.50314 -6.2637,12.48923c-5.23647,-0.01061 -15.16194,-0.03074 -15.16194,-0.03074c0,0 18.3816,24.08623 25.14394,32.94726c4.64,6.08005 3.98386,15.06582 -3.66443,15.06582c-19.11844,0 -102.04091,0 -137.72171,0c-10.10864,0 -6.50333,-13.68577 -6.50333,-13.68577z" data-paper-data="{&quot;index&quot;:null}" fill="#7185a1" stroke="none" stroke-width="0" stroke-linecap="butt"/><path d="M-3.99399,365.1539v-246.24625c0,0 67.20904,13.51351 120.12012,13.51351c29.0017,0 88.30215,-19.42726 141.07548,-21.33557c44.64323,-1.61432 102.43803,8.35641 141.17326,10.07824c57.26886,2.54567 87.12063,-2.25618 87.12063,-2.25618v246.24625z" fill="url(#color-2)" stroke="none" stroke-width="0" stroke-linecap="butt"/><path d="M-14.39549,255.97774v-59.32058h64.55481v59.32058z" data-paper-data="{&quot;index&quot;:null}" fill="#517379" stroke="none" stroke-width="0" stroke-linecap="butt"/><path d="M370.82642,124.34111v-42.30033h46.03275v42.30033z" data-paper-data="{&quot;index&quot;:null}" fill="#7185a1" stroke="none" stroke-width="0" stroke-linecap="butt"/><path d="M327.12911,70.53994c5.94224,-8.1962 23.54021,-32.4693 23.54021,-32.4693c0,0 -9.67924,-0.2155 -14.46401,-0.32199c-5.84252,-0.13007 -8.59858,-6.65983 -4.79839,-11.0995c7.62311,-8.90588 33.07719,-38.64324 33.07719,-38.64324c0,0 -10.41794,0.12677 -14.93896,0.1818c-5.3582,0.06522 -4.837,-6.36823 -1.38078,-10.46326c10.4481,-12.37933 27.06993,-32.1052 33.07796,-39.41343c5.78919,-7.04204 15.16434,-5.87876 21.00266,1.12257c6.08531,7.29751 21.28868,25.52952 31.49079,37.76398c4.0775,4.88977 2.34717,11.86234 -4.01926,11.79746c-4.13036,-0.04208 -11.91651,-0.12146 -11.91651,-0.12146c0,0 28.03264,31.19549 36.3464,40.44727c4.04187,4.49791 0.52871,11.01548 -5.51843,11.00322c-4.61342,-0.00935 -13.35794,-0.02708 -13.35794,-0.02708c0,0 16.19451,21.22039 22.15225,29.02711c4.08792,5.35663 3.50985,13.27325 -3.22843,13.27325c-16.84368,0 -89.8998,0 -121.3352,0c-8.90588,0 -5.72955,-12.0574 -5.72955,-12.0574z" data-paper-data="{&quot;index&quot;:null}" fill="#7185a1" stroke="none" stroke-width="0" stroke-linecap="butt"/><path d="M309.86906,127.83961v-31.65254h34.44544v31.65254z" data-paper-data="{&quot;index&quot;:null}" fill="#7185a1" stroke="none" stroke-width="0" stroke-linecap="butt"/><path d="M277.1712,89.08271c4.44647,-6.13307 17.61469,-24.29617 17.61469,-24.29617c0,0 -7.2428,-0.16125 -10.82315,-0.24094c-4.37185,-0.09733 -6.43415,-4.98343 -3.59055,-8.30555c5.70423,-6.66411 24.75104,-28.91601 24.75104,-28.91601c0,0 -7.79555,0.09486 -11.17854,0.13604c-4.00944,0.0488 -3.61944,-4.76523 -1.03322,-7.82946c7.81811,-9.26322 20.25592,-24.02371 24.75161,-29.49232c4.33194,-5.26943 11.34719,-4.39896 15.71589,0.84c4.55352,5.46059 15.92992,19.10326 23.56397,28.25808c3.05111,3.65892 1.75634,8.87636 -3.00753,8.82781c-3.09067,-0.03149 -8.9169,-0.09089 -8.9169,-0.09089c0,0 20.9763,23.34299 27.19732,30.26593c3.02445,3.3657 0.39562,8.24268 -4.12934,8.23351c-3.45213,-0.007 -9.99549,-0.02026 -9.99549,-0.02026c0,0 12.11804,15.87881 16.57611,21.72043c3.05891,4.00826 2.62635,9.93212 -2.41577,9.93212c-12.60381,0 -67.27032,0 -90.79284,0c-6.66411,0 -4.28731,-9.02232 -4.28731,-9.02232z" data-paper-data="{&quot;index&quot;:null}" fill="#7185a1" stroke="none" stroke-width="0" stroke-linecap="butt"/><g data-paper-data="{&quot;index&quot;:null}" fill="none" stroke="#4b7072" stroke-width="20" stroke-linecap="round"><path d="M190.54138,275.39351v-33.5"/><path d="M174.54138,227.89351v44.5"/><path d="M160.04137,271.89351v-41.5"/><path d="M145.04137,268.89352v-47.5"/><path d="M131.04137,232.39352v38"/><path d="M117.54138,275.39351v-25"/><path d="M203.04138,267.89354v10.5"/></g><g data-paper-data="{&quot;index&quot;:null}" fill="none" stroke="#476e6c" stroke-width="20" stroke-linecap="round"><path d="M192.40158,296.52283v-21.15789"/><path d="M202.50684,266.5228v28.10526"/><path d="M211.66473,268.10177v26.21052"/><path d="M221.13842,262.41755v30"/><path d="M229.98052,269.36491v24"/><path d="M238.50684,280.73336v15.78947"/><path d="M184.50684,298.41756v-6.63158"/></g><g data-paper-data="{&quot;index&quot;:null}" fill="none" stroke="#617c8d" stroke-width="20" stroke-linecap="round"><path d="M335.06687,182.34811v-21.73385"/><path d="M324.68653,151.53147v28.87034"/><path d="M315.27934,180.07741v-26.92402"/><path d="M305.54776,178.1311v-30.81665"/><path d="M296.46495,154.45094v24.65332"/><path d="M287.70655,182.34812v-16.21929"/><path d="M343.17652,177.48234v6.8121"/></g><g data-paper-data="{&quot;index&quot;:null}" fill="none" stroke="#6d839d" stroke-width="15" stroke-linecap="round"><path d="M150.74597,129.65885v-12.02678"/><path d="M145.00184,112.60597v15.97587"/><path d="M139.79621,128.40232v-14.89884"/><path d="M134.41109,127.3253v-17.05289"/><path d="M129.38499,114.2215v13.64231"/><path d="M124.53838,129.65886v-8.97521"/><path d="M155.23358,126.9663v3.76959"/></g><path d="M282.23555,359.6395c0,0 25.30121,-81.34826 11.77328,-112.27803c-7.71687,-17.64358 -85.58365,-21.8302 -106.47134,-46.16263c-36.55601,-42.58471 0.69806,-82.49124 0.69806,-82.49124l28,-4.01645c0,0 -39.36195,36.17554 0.41816,74.87806c26.07678,25.3704 102.92548,28.08803 113.73055,48.01524c18.86249,34.78708 16.85129,122.05507 16.85129,122.05507z" data-paper-data="{&quot;index&quot;:null}" fill-opacity="0.0549" fill="#000000" stroke="none" stroke-width="0" stroke-linecap="butt"/><path d="M133.02638,236.64299c0,-3.58985 2.91015,-6.5 6.5,-6.5c3.58985,0 6.5,2.91015 6.5,6.5c0,3.58985 -2.91015,6.5 -6.5,6.5c-3.58985,0 -6.5,-2.91015 -6.5,-6.5z" fill-opacity="0.0549" fill="#000000" stroke="none" stroke-width="0" stroke-linecap="butt"/><path d="M155.02638,243.14299c0,-3.03757 2.46243,-5.5 5.5,-5.5c3.03757,0 5.5,2.46243 5.5,5.5c0,3.03757 -2.46243,5.5 -5.5,5.5c-3.03757,0 -5.5,-2.46243 -5.5,-5.5z" fill-opacity="0.0549" fill="#000000" stroke="none" stroke-width="0" stroke-linecap="butt"/><path d="M116.52638,254.64299c0,-3.31371 2.68629,-6 6,-6c3.31371,0 6,2.68629 6,6c0,3.31371 -2.68629,6 -6,6c-3.31371,0 -6,-2.68629 -6,-6z" fill-opacity="0.0549" fill="#000000" stroke="none" stroke-width="0" stroke-linecap="butt"/><path d="M137.02638,257.39299c0,-2.62336 2.12664,-4.75 4.75,-4.75c2.62336,0 4.75,2.12664 4.75,4.75c0,2.62336 -2.12664,4.75 -4.75,4.75c-2.62336,0 -4.75,-2.12664 -4.75,-4.75z" fill-opacity="0.0549" fill="#000000" stroke="none" stroke-width="0" stroke-linecap="butt"/><path d="M159.02638,264.39299c0,-4.00407 3.24594,-7.25 7.25,-7.25c4.00406,0 7.25,3.24593 7.25,7.25c0,4.00407 -3.24594,7.25 -7.25,7.25c-4.00406,0 -7.25,-3.24593 -7.25,-7.25z" fill-opacity="0.0549" fill="#000000" stroke="none" stroke-width="0" stroke-linecap="butt"/><path d="M183.52638,244.89299c0,-2.34721 1.90279,-4.25 4.25,-4.25c2.34721,0 4.25,1.90279 4.25,4.25c0,2.34721 -1.90279,4.25 -4.25,4.25c-2.34721,0 -4.25,-1.90279 -4.25,-4.25z" fill-opacity="0.0549" fill="#000000" stroke="none" stroke-width="0" stroke-linecap="butt"/><path d="M169.52638,231.64299c0,-1.933 1.567,-3.5 3.5,-3.5c1.933,0 3.5,1.567 3.5,3.5c0,1.933 -1.567,3.5 -3.5,3.5c-1.933,0 -3.5,-1.567 -3.5,-3.5z" fill-opacity="0.0549" fill="#000000" stroke="none" stroke-width="0" stroke-linecap="butt"/><path d="M303.02637,154.14299c0,-2.76143 2.23858,-5 5,-5c2.76142,0 5,2.23857 5,5c0,2.76143 -2.23858,5 -5,5c-2.76142,0 -5,-2.23857 -5,-5z" fill-opacity="0.0549" fill="#000000" stroke="none" stroke-width="0" stroke-linecap="butt"/><path d="M288.02637,166.14299c0,-2.48528 2.01472,-4.5 4.5,-4.5c2.48528,0 4.5,2.01472 4.5,4.5c0,2.48528 -2.01472,4.5 -4.5,4.5c-2.48528,0 -4.5,-2.01472 -4.5,-4.5z" fill-opacity="0.0549" fill="#000000" stroke="none" stroke-width="0" stroke-linecap="butt"/><path d="M306.02637,172.14299c0,-2.76143 2.23858,-5 5,-5c2.76142,0 5,2.23857 5,5c0,2.76143 -2.23858,5 -5,5c-2.76142,0 -5,-2.23857 -5,-5z" fill-opacity="0.0549" fill="#000000" stroke="none" stroke-width="0" stroke-linecap="butt"/><path d="M322.02637,156.39299c0,-2.07107 1.67893,-3.75 3.75,-3.75c2.07107,0 3.75,1.67893 3.75,3.75c0,2.07107 -1.67893,3.75 -3.75,3.75c-2.07107,0 -3.75,-1.67893 -3.75,-3.75z" fill-opacity="0.0549" fill="#000000" stroke="none" stroke-width="0" stroke-linecap="butt"/><path d="M325.52637,168.39299c0,-2.8995 2.3505,-5.25 5.25,-5.25c2.8995,0 5.25,2.3505 5.25,5.25c0,2.8995 -2.3505,5.25 -5.25,5.25c-2.8995,0 -5.25,-2.3505 -5.25,-5.25z" fill-opacity="0.0549" fill="#000000" stroke="none" stroke-width="0" stroke-linecap="butt"/><path d="M291.02637,181.14299c0,-1.933 1.567,-3.5 3.5,-3.5c1.933,0 3.5,1.567 3.5,3.5c0,1.933 -1.567,3.5 -3.5,3.5c-1.933,0 -3.5,-1.567 -3.5,-3.5z" fill-opacity="0.0549" fill="#000000" stroke="none" stroke-width="0" stroke-linecap="butt"/><path d="M337.02638,178.14299c0,-1.65686 1.34314,-3 3,-3c1.65686,0 3,1.34314 3,3c0,1.65686 -1.34314,3 -3,3c-1.65686,0 -3,-1.34314 -3,-3z" fill-opacity="0.0549" fill="#000000" stroke="none" stroke-width="0" stroke-linecap="butt"/><path d="M182.52638,72.14299c0,-2.20914 1.79086,-4 4,-4c2.20914,0 4,1.79086 4,4c0,2.20914 -1.79086,4 -4,4c-2.20914,0 -4,-1.79086 -4,-4z" fill-opacity="0.0549" fill="#000000" stroke="none" stroke-width="0" stroke-linecap="butt"/><path d="M201.52638,68.89299c0,-2.62336 2.12664,-4.75 4.75,-4.75c2.62336,0 4.75,2.12664 4.75,4.75c0,2.62336 -2.12664,4.75 -4.75,4.75c-2.62336,0 -4.75,-2.12664 -4.75,-4.75z" fill-opacity="0.0549" fill="#000000" stroke="none" stroke-width="0" stroke-linecap="butt"/><path d="M210.52638,83.14299c0,-1.65685 1.34314,-3 3,-3c1.65686,0 3,1.34315 3,3c0,1.65685 -1.34314,3 -3,3c-1.65686,0 -3,-1.34315 -3,-3z" fill-opacity="0.0549" fill="#000000" stroke="none" stroke-width="0" stroke-linecap="butt"/><path d="M195.52638,82.89299c0,-1.51878 1.23121,-2.75 2.75,-2.75c1.51879,0 2.75,1.23122 2.75,2.75c0,1.51878 -1.23121,2.75 -2.75,2.75c-1.51879,0 -2.75,-1.23122 -2.75,-2.75z" fill-opacity="0.0549" fill="#000000" stroke="none" stroke-width="0" stroke-linecap="butt"/><path d="M174.52638,85.89299c0,-2.34721 1.90279,-4.25 4.25,-4.25c2.34721,0 4.25,1.90279 4.25,4.25c0,2.34721 -1.90279,4.25 -4.25,4.25c-2.34721,0 -4.25,-1.90279 -4.25,-4.25z" fill-opacity="0.0549" fill="#000000" stroke="none" stroke-width="0" stroke-linecap="butt"/><path d="M189.52638,95.89299c0,-2.34721 1.90279,-4.25 4.25,-4.25c2.34721,0 4.25,1.90279 4.25,4.25c0,2.34721 -1.90279,4.25 -4.25,4.25c-2.34721,0 -4.25,-1.90279 -4.25,-4.25z" fill-opacity="0.0549" fill="#000000" stroke="none" stroke-width="0" stroke-linecap="butt"/><path d="M210.52638,95.14299c0,-1.65685 1.34314,-3 3,-3c1.65686,0 3,1.34315 3,3c0,1.65685 -1.34314,3 -3,3c-1.65686,0 -3,-1.34315 -3,-3z" fill-opacity="0.0549" fill="#000000" stroke="none" stroke-width="0" stroke-linecap="butt"/><path d="M167.02638,100.39299c0,-1.79493 1.45507,-3.25 3.25,-3.25c1.79493,0 3.25,1.45507 3.25,3.25c0,1.79493 -1.45507,3.25 -3.25,3.25c-1.79493,0 -3.25,-1.45507 -3.25,-3.25z" fill-opacity="0.0549" fill="#000000" stroke="none" stroke-width="0" stroke-linecap="butt"/><path d="M222.52638,90.39299c0,-1.24264 1.00736,-2.25 2.25,-2.25c1.24264,0 2.25,1.00736 2.25,2.25c0,1.24264 -1.00736,2.25 -2.25,2.25c-1.24264,0 -2.25,-1.00736 -2.25,-2.25z" fill-opacity="0.0549" fill="#000000" stroke="none" stroke-width="0" stroke-linecap="butt"/><g fill="#7286a3" stroke="none" stroke-width="0" stroke-linecap="butt"><path d="M237.73759,115.17235c-3.1713,-4.62482 -2.99354,-15.86576 -2.99354,-15.86576c0,0 7.60544,1.06291 10.77674,5.68772c3.1713,4.62482 3.59225,15.26705 3.59225,15.26705c0,0 -8.20414,-0.4642 -11.37545,-5.08902z"/><path d="M246.11769,119.96202c0,0 0.42094,-10.64223 3.59225,-15.26705c3.1713,-4.62482 10.77674,-5.68772 10.77674,-5.68772c0,0 0.17777,11.24094 -2.99354,15.86576c-3.1713,4.62482 -11.37545,5.08902 -11.37545,5.08902z" data-paper-data="{&quot;index&quot;:null}"/><path d="M248.6174,118.02361c0,0 5.86816,-8.88814 10.97529,-11.20402c5.10713,-2.31588 12.16482,0.7109 12.16482,0.7109c0,0 -5.66574,9.71029 -10.77287,12.02617c-5.10713,2.31588 -12.36724,-1.53305 -12.36724,-1.53305z" data-paper-data="{&quot;index&quot;:null}"/><path d="M232.74778,119.55667c-5.10713,-2.31588 -10.77287,-12.02617 -10.77287,-12.02617c0,0 7.05769,-3.02678 12.16482,-0.71091c5.10713,2.31588 10.97529,11.20402 10.97529,11.20402c0,0 -7.26011,3.84893 -12.36724,1.53305z" data-paper-data="{&quot;index&quot;:null}"/><path d="M246.57967,119.16856c0,0 -5.14933,-9.32302 -4.83035,-14.92162c0.31898,-5.5986 6.27564,-10.44532 6.27564,-10.44532c0,0 5.97152,9.52529 5.65254,15.1239c-0.31898,5.5986 -7.09783,10.24304 -7.09783,10.24304z" data-paper-data="{&quot;index&quot;:null}"/></g><g fill="#3e6961" stroke="none" stroke-width="0" stroke-linecap="butt"><path d="M88.16933,329.64198c-5.97424,-8.71242 -5.63936,-29.88859 -5.63936,-29.88859c0,0 14.32744,2.00236 20.30168,10.71478c5.97424,8.71242 6.76723,28.76071 6.76723,28.76071c0,0 -15.45531,-0.87448 -21.42955,-9.5869z"/><path d="M103.95612,338.66495c0,0 0.79299,-20.04829 6.76723,-28.76071c5.97424,-8.71242 20.30168,-10.71478 20.30168,-10.71478c0,0 0.33489,21.17616 -5.63935,29.88859c-5.97424,8.71242 -21.42956,9.5869 -21.42956,9.5869z" data-paper-data="{&quot;index&quot;:null}"/><path d="M108.66518,335.01331c0,0 11.05468,-16.74386 20.67571,-21.10661c9.62103,-4.36275 22.91662,1.33923 22.91662,1.33923c0,0 -10.67336,18.29265 -20.29439,22.65541c-9.62103,4.36275 -23.29794,-2.88803 -23.29794,-2.88803z" data-paper-data="{&quot;index&quot;:null}"/><path d="M78.7693,337.90133c-9.62104,-4.36275 -20.29439,-22.65541 -20.29439,-22.65541c0,0 13.29557,-5.70199 22.91661,-1.33923c9.62104,4.36275 20.67572,21.10661 20.67572,21.10661c0,0 -13.6769,7.25078 -23.29794,2.88803z" data-paper-data="{&quot;index&quot;:null}"/><path d="M104.82642,337.17021c0,0 -9.70054,-17.5631 -9.09962,-28.10999c0.60092,-10.54688 11.82231,-19.67733 11.82231,-19.67733c0,0 11.24941,17.94416 10.6485,28.49104c-0.60092,10.54688 -13.37119,19.29628 -13.37119,19.29628z" data-paper-data="{&quot;index&quot;:null}"/></g><g fill="#637e90" stroke="none" stroke-width="0" stroke-linecap="butt"><path d="M106.53715,174.9368c-3.93574,-5.73962 -3.71513,-19.69016 -3.71513,-19.69016c0,0 9.43871,1.31912 13.37445,7.05874c3.93574,5.73962 4.45815,18.94714 4.45815,18.94714c0,0 -10.18173,-0.57609 -14.11747,-6.31571z"/><path d="M116.93726,180.881c0,0 0.52241,-13.20752 4.45815,-18.94714c3.93574,-5.73962 13.37445,-7.05874 13.37445,-7.05874c0,0 0.22062,13.95055 -3.71512,19.69016c-3.93574,5.73962 -14.11748,6.31571 -14.11748,6.31571z" data-paper-data="{&quot;index&quot;:null}"/><path d="M120.03952,178.47535c0,0 7.28266,-11.03061 13.62086,-13.90473c6.33819,-2.87412 15.09713,0.88227 15.09713,0.88227c0,0 -7.03146,12.05093 -13.36965,14.92505c-6.33819,2.87412 -15.34834,-1.90259 -15.34834,-1.90259z" data-paper-data="{&quot;index&quot;:null}"/><path d="M100.34455,180.37794c-6.3382,-2.87412 -13.36965,-14.92505 -13.36965,-14.92505c0,0 8.75893,-3.75639 15.09713,-0.88227c6.3382,2.87412 13.62086,13.90473 13.62086,13.90473c0,0 -9.01014,4.77671 -15.34834,1.90259z" data-paper-data="{&quot;index&quot;:null}"/><path d="M117.5106,179.89629c0,0 -6.39057,-11.57032 -5.9947,-18.51845c0.39588,-6.94813 7.78836,-12.96314 7.78836,-12.96314c0,0 7.41095,11.82135 7.01507,18.76948c-0.39588,6.94813 -8.80874,12.7121 -8.80874,12.7121z" data-paper-data="{&quot;index&quot;:null}"/></g><path d="M-75.67515,180.52877c8.3332,-11.49409 33.01201,-45.53387 33.01201,-45.53387c0,0 -13.57385,-0.30221 -20.28385,-0.45155c-8.19336,-0.18241 -12.05837,-9.33953 -6.72911,-15.56557c10.6904,-12.48931 46.38636,-54.192 46.38636,-54.192c0,0 -14.60978,0.17777 -20.9499,0.25495c-7.51416,0.09146 -6.78325,-8.93059 -1.93637,-14.67333c14.65207,-17.36036 37.96197,-45.02326 46.38743,-55.27208c8.11857,-9.87552 21.26597,-8.24418 29.45343,1.57426c8.53383,10.23379 29.85455,35.80175 44.16165,52.95896c5.71815,6.85724 3.29159,16.63536 -5.63647,16.54436c-5.79228,-0.05901 -16.71132,-0.17033 -16.71132,-0.17033c0,0 39.31205,43.74751 50.97098,56.72191c5.66818,6.30772 0.74145,15.44774 -7.73886,15.43055c-6.46971,-0.01311 -18.73273,-0.03798 -18.73273,-0.03798c0,0 22.71064,29.75878 31.06558,40.70666c5.73276,7.51196 4.9221,18.61396 -4.52744,18.61396c-23.62101,0 -126.07251,0 -170.15646,0c-12.48931,0 -8.03493,-16.9089 -8.03493,-16.9089z" data-paper-data="{&quot;index&quot;:null}" fill="#517379" stroke="none" stroke-width="0" stroke-linecap="butt"/><g fill="#587782" stroke="none" stroke-width="0" stroke-linecap="butt"><path d="M365.85084,221.88369c-5.206,-7.59207 -4.91418,-26.04513 -4.91418,-26.04513c0,0 12.48504,1.74487 17.69104,9.33694c5.206,7.59207 5.89701,25.06229 5.89701,25.06229c0,0 -13.46787,-0.76203 -18.67387,-8.3541z"/><path d="M379.60756,229.74637c0,0 0.69102,-17.47022 5.89702,-25.06229c5.206,-7.59207 17.69103,-9.33694 17.69103,-9.33694c0,0 0.29183,18.45306 -4.91417,26.04513c-5.206,7.59207 -18.67387,8.3541 -18.67387,8.3541z" data-paper-data="{&quot;index&quot;:null}"/><path d="M383.71107,226.5643c0,0 9.63313,-14.59072 18.01697,-18.39246c8.38384,-3.80174 19.96971,1.16702 19.96971,1.16702c0,0 -9.30085,15.94035 -17.68468,19.74208c-8.38384,3.80174 -20.30199,-2.51665 -20.30199,-2.51665z" data-paper-data="{&quot;index&quot;:null}"/><path d="M357.65959,229.08095c-8.38384,-3.80174 -17.68468,-19.74208 -17.68468,-19.74208c0,0 11.58586,-4.96875 19.9697,-1.16702c8.38384,3.80174 18.01697,18.39246 18.01697,18.39246c0,0 -11.91815,6.31838 -20.30199,2.51665z" data-paper-data="{&quot;index&quot;:null}"/><path d="M380.36595,228.44385c0,0 -8.45312,-15.30462 -7.92948,-24.49525c0.52364,-9.19063 10.30205,-17.14697 10.30205,-17.14697c0,0 9.80282,15.63667 9.27918,24.8273c-0.52364,9.19063 -11.65175,16.81492 -11.65175,16.81492z" data-paper-data="{&quot;index&quot;:null}"/></g><path d="M366.47247,235.51254c10.60698,-14.63033 42.01958,-57.95813 42.01958,-57.95813c0,0 -17.27757,-0.38467 -25.81845,-0.57477c-10.42898,-0.23218 -15.34858,-11.88789 -8.5652,-19.81275c13.60735,-15.89712 59.04322,-68.97868 59.04322,-68.97868c0,0 -18.59616,0.22628 -26.66623,0.32452c-9.56445,0.11642 -8.63411,-11.36737 -2.46472,-18.67705c18.64999,-22.09727 48.32018,-57.30819 59.04459,-70.35348c10.33378,-12.57013 27.06855,-10.49366 37.49001,2.00381c10.86235,13.02615 38.00058,45.57052 56.21147,67.40919c7.27838,8.72829 4.18973,21.17443 -7.17442,21.05861c-7.37275,-0.07511 -21.27113,-0.21681 -21.27113,-0.21681c0,0 50.03863,55.68434 64.87879,72.1989c7.21478,8.02882 0.94375,19.66277 -9.85046,19.64089c-8.23502,-0.01669 -23.84409,-0.04834 -23.84409,-0.04834c0,0 28.90741,37.87867 39.54205,51.81376c7.29699,9.56165 6.26512,23.69292 -5.76279,23.69292c-30.06618,0 -160.47231,0 -216.58489,0c-15.89712,0 -10.22732,-21.52262 -10.22732,-21.52262z" data-paper-data="{&quot;index&quot;:null}" fill="#406a63" stroke="none" stroke-width="0" stroke-linecap="butt"/><g fill="#426b66" stroke="none" stroke-width="0" stroke-linecap="butt"><path d="M403.23927,312.0382c-5.7291,-8.35493 -5.40796,-28.66218 -5.40796,-28.66218c0,0 13.73955,1.92019 19.46865,10.27512c5.7291,8.35493 6.48955,27.58059 6.48955,27.58059c0,0 -14.82114,-0.8386 -20.55024,-9.19353z"/><path d="M418.37829,320.69093c0,0 0.76045,-19.22566 6.48956,-27.58059c5.7291,-8.35493 19.46865,-10.27512 19.46865,-10.27512c0,0 0.32115,20.30725 -5.40795,28.66218c-5.7291,8.35493 -20.55025,9.19353 -20.55025,9.19353z" data-paper-data="{&quot;index&quot;:null}"/><path d="M422.89412,317.18913c0,0 10.60108,-16.05682 19.82733,-20.24055c9.22625,-4.18374 21.97629,1.28428 21.97629,1.28428c0,0 -10.23541,17.54206 -19.46167,21.7258c-9.22625,4.18374 -22.34196,-2.76952 -22.34196,-2.76952z" data-paper-data="{&quot;index&quot;:null}"/><path d="M394.22495,319.95865c-9.22627,-4.18374 -19.46167,-21.7258 -19.46167,-21.7258c0,0 12.75002,-5.46802 21.97628,-1.28428c9.22627,4.18374 19.82735,20.24055 19.82735,20.24055c0,0 -13.1157,6.95326 -22.34196,2.76952z" data-paper-data="{&quot;index&quot;:null}"/><path d="M419.21287,319.25752c0,0 -9.3025,-16.84244 -8.72624,-26.95656c0.57626,-10.11412 11.33721,-18.86992 11.33721,-18.86992c0,0 10.78783,17.20786 10.21156,27.32198c-0.57626,10.11412 -12.82253,18.5045 -12.82253,18.5045z" data-paper-data="{&quot;index&quot;:null}"/></g><path d="M444.47272,331.54832v-75.50663h82.16906v75.50663z" data-paper-data="{&quot;index&quot;:null}" fill="#406a63" stroke="none" stroke-width="0" stroke-linecap="butt"/><g fill="#6a8199" stroke="none" stroke-width="0" stroke-linecap="butt"><path d="M231.98519,143.76666c-3.42231,-4.99086 -3.23048,-17.12151 -3.23048,-17.12151c0,0 8.2074,1.14704 11.62971,6.1379c3.42231,4.99086 3.87657,16.47542 3.87657,16.47542c0,0 -8.85349,-0.50094 -12.2758,-5.49181z"/><path d="M241.02857,148.93541c0,0 0.45426,-11.48455 3.87657,-16.47542c3.42231,-4.99086 11.6297,-6.1379 11.6297,-6.1379c0,0 0.19184,12.13065 -3.23047,17.12151c-3.42231,4.99086 -12.2758,5.49181 -12.2758,5.49181z" data-paper-data="{&quot;index&quot;:null}"/><path d="M243.72612,146.84359c0,0 6.33261,-9.59163 11.84397,-12.09081c5.51135,-2.49918 13.12766,0.76717 13.12766,0.76717c0,0 -6.11418,10.47884 -11.62553,12.97802c-5.51135,2.49918 -13.34609,-1.65439 -13.34609,-1.65439z" data-paper-data="{&quot;index&quot;:null}"/><path d="M226.60044,148.49798c-5.51136,-2.49918 -11.62553,-12.97802 -11.62553,-12.97802c0,0 7.61629,-3.26635 13.12765,-0.76717c5.51136,2.49918 11.84397,12.09081 11.84397,12.09081c0,0 -7.83473,4.15357 -13.34609,1.65439z" data-paper-data="{&quot;index&quot;:null}"/><path d="M241.52711,148.07916c0,0 -5.5569,-10.06093 -5.21267,-16.10265c0.34423,-6.04172 6.77234,-11.27205 6.77234,-11.27205c0,0 6.44417,10.27921 6.09993,16.32093c-0.34423,6.04172 -7.65961,11.05376 -7.65961,11.05376z" data-paper-data="{&quot;index&quot;:null}"/></g></g></g></svg>