<svg version="1.1" xmlns="http://www.w3.org/2000/svg" xmlns:xlink="http://www.w3.org/1999/xlink" width="153.82384" height="48.20344" viewBox="0,0,153.82384,48.20344"><g transform="translate(-24.89676,-154.86219)"><g data-paper-data="{&quot;isPaintingLayer&quot;:true}" fill-rule="nonzero" stroke="none" stroke-linejoin="miter" stroke-miterlimit="10" stroke-dasharray="" stroke-dashoffset="0" style="mix-blend-mode: normal"><path d="M24.89676,203.06563v-48.20344h153.82384v48.20344z" fill-opacity="0.06667" fill="#000000" stroke-width="0" stroke-linecap="butt"/><path d="M32.9469,196.686c1.73677,0.24493 3.85207,0.36739 6.34589,0.36739c1.41391,0 2.67474,-0.04174 3.78249,-0.12524l-1.11053,3.54869c-1.23578,-0.08907 -2.91967,-0.43697 -5.05166,-1.04373c-2.13199,-0.60119 -3.86042,-1.22465 -5.18526,-1.87037v-1.31928l1.90377,-0.68469c-1.798,-0.2004 -3.22583,-0.90179 -4.28348,-2.10417c-1.05208,-1.20795 -1.57812,-2.84452 -1.57812,-4.90972c0,-0.95189 0.17814,-1.9483 0.5344,-2.98925c0.35626,-1.04095 0.86281,-1.96222 1.51967,-2.7638c0.67355,-0.64016 1.44731,-1.15507 2.32127,-1.54472c0.87395,-0.39523 1.80356,-0.59283 2.78885,-0.59283c1.39721,0 2.61907,0.27276 3.66559,0.81829c1.04651,0.53996 1.85924,1.33876 2.43816,2.39641c0.57892,1.05208 0.86838,2.34074 0.86838,3.86598c0,0.96858 -0.17256,1.97056 -0.51769,3.00595c-0.33956,1.02981 -0.83777,1.94273 -1.49462,2.73875c-0.88509,0.82942 -1.8815,1.42783 -2.98925,1.79522zM31.57752,187.05026c0,1.65327 0.21431,2.98646 0.64294,3.99958c0.42863,1.00755 1.07713,1.75069 1.94552,2.22942c0.86838,0.47872 1.99283,0.75428 3.37334,0.82664c0.17256,-0.71252 0.31173,-1.55029 0.4175,-2.51331c0.10576,-0.96301 0.15865,-1.75069 0.15865,-2.36301c0,-1.66997 -0.2171,-3.01429 -0.65129,-4.03297c-0.43419,-1.01869 -1.09383,-1.77017 -1.97892,-2.25446c-0.87951,-0.48429 -2.00397,-0.75428 -3.37334,-0.80993c-0.15587,0.74035 -0.2839,1.60317 -0.3841,2.58846c-0.1002,0.97971 -0.1503,1.75625 -0.1503,2.32961zM53.70497,193.86375l-2.97255,1.69502c-0.45646,-0.24493 -0.79323,-0.57614 -1.01033,-0.99363c-0.21153,-0.42306 -0.3173,-0.96302 -0.3173,-1.61987l-1.83697,2.67196c-1.34154,0 -2.33239,-0.32286 -2.97255,-0.96858c-0.64016,-0.65129 -0.96023,-1.65328 -0.96023,-3.00595v-5.27712l-0.79323,-0.0668v-0.61789h3.80754v5.11011c0,0.64016 0.167,1.13558 0.50099,1.48628c0.33399,0.34512 0.77931,0.52604 1.33597,0.54274l0.91849,-0.85168v-5.60275l-0.76818,-0.0668v-0.61789h3.78248v6.0286c0,0.52882 0.03062,0.92127 0.09186,1.17733c0.0668,0.25606 0.17256,0.47595 0.3173,0.65964l0.64294,-0.31729zM62.72548,194.1894l-3.14789,1.47793c-0.3841,-0.27276 -0.64572,-0.64572 -0.78489,-1.11888c-0.51769,0.3173 -1.03539,0.57335 -1.55308,0.76818c-0.51769,0.2004 -0.97137,0.3006 -1.36103,0.3006c-0.57892,0 -1.05487,-0.20597 -1.42782,-0.61789c-0.37296,-0.41192 -0.55944,-0.93797 -0.55944,-1.57812c0,-0.28389 0.03061,-0.59284 0.09185,-0.92683c0.0668,-0.33956 0.15029,-0.60954 0.2505,-0.80993l4.53397,-0.72643l0.04176,-0.61789c0.02783,-0.64016 -0.10855,-1.14115 -0.40914,-1.50298c-0.29503,-0.36739 -0.77932,-0.55109 -1.45288,-0.55109c-0.29503,0 -0.60676,0.0334 -0.93518,0.1002c-0.32843,0.06123 -0.60676,0.14195 -0.83499,0.24215l-0.34234,0.72644l-0.57613,-0.20875l0.98528,-3.08109c1.09662,-0.46759 2.13478,-0.70139 3.1145,-0.70139c1.01311,0 1.83975,0.26719 2.47992,0.80158c0.64572,0.53439 0.96858,1.36938 0.96858,2.50496l-0.02505,0.43419l-0.2171,2.8807l-0.04175,0.76819c0,0.25606 0.02227,0.45925 0.0668,0.60954c0.04453,0.1503 0.11689,0.30338 0.2171,0.45924l0.65964,-0.2505zM57.87421,194.08084c0.22823,0 0.48986,-0.08628 0.78489,-0.25884l-0.0167,-0.44254l0.0167,-0.47594l0.0668,-1.21908l-1.64492,0.3841c-0.05567,0.18926 -0.0835,0.43976 -0.0835,0.75149c0,0.42863 0.0835,0.74592 0.2505,0.95189c0.17256,0.20596 0.38131,0.30895 0.62624,0.30895zM67.04301,188.61169l-0.09185,6.00356l1.90377,0.0668v0.61789h-5.70296v-0.61789l0.79324,-0.0668l-0.0668,-7.64848l-0.80993,0.19205l-0.2171,-0.64293l3.37335,-1.05208l0.72644,2.28786c0.47316,-0.95189 0.98807,-1.69224 1.54473,-2.22107c0.31172,-0.11133 0.68747,-0.16699 1.12723,-0.16699c0.60119,0 1.16619,0.10576 1.69502,0.31729l-0.68469,2.78051c-0.41192,-0.08907 -0.94075,-0.16699 -1.58647,-0.23379c-0.64016,-0.07236 -1.1662,-0.12247 -1.57812,-0.1503zM78.11091,193.61325l-2.60515,1.87872c-1.05208,0 -1.81749,-0.25884 -2.29621,-0.77653c-0.47872,-0.52326 -0.71809,-1.36102 -0.71809,-2.51331v-5.68625h-1.43617v-0.68469c0.60119,-0.32843 1.25247,-0.79601 1.95386,-1.40277c0.70695,-0.60676 1.35268,-1.24412 1.93717,-1.91211l0.70974,0.2171l-0.10855,2.94751h2.50496v0.90178l-2.54671,-0.0501v4.91807c0,0.68469 0.13081,1.18568 0.39244,1.50298c0.26719,0.31173 0.62068,0.46759 1.06044,0.46759l0.79324,-0.45089zM83.52395,185.36359c1.25248,0 2.23776,0.45368 2.95585,1.36103c0.72366,0.90178 1.07713,2.12086 1.06043,3.65724l-5.90335,0.19205c0.1002,0.84055 0.39245,1.48349 0.87673,1.92882c0.48429,0.43976 1.12724,0.65965 1.92882,0.65965c1.10775,0 2.01232,-0.30616 2.71371,-0.91848l0.38409,0.34234c-0.50099,0.95189 -1.17455,1.69503 -2.02067,2.22942c-0.84611,0.53439 -1.74791,0.80158 -2.70535,0.80158c-1.29701,0 -2.32682,-0.42862 -3.08944,-1.28587c-0.76262,-0.86282 -1.14393,-2.02902 -1.14393,-3.49859c0,-0.86838 0.17535,-1.72842 0.52605,-2.5801c0.3507,-0.85726 0.79601,-1.57256 1.33597,-2.14591c0.37296,-0.21153 0.85169,-0.38688 1.43617,-0.52604c0.58449,-0.14473 1.13279,-0.2171 1.64493,-0.2171zM84.37564,189.68047c-0.01113,-0.99642 -0.15308,-1.78687 -0.42584,-2.37136c-0.27276,-0.58449 -0.65685,-0.93519 -1.15228,-1.05209c-0.35626,0.37296 -0.64572,0.89066 -0.86839,1.55308c-0.22267,0.66242 -0.33399,1.34154 -0.33399,2.03736v0.0668zM92.07387,188.61169l-0.09185,6.00356l1.90377,0.0668v0.61789h-5.70295v-0.61789l0.79324,-0.0668l-0.0668,-7.64848l-0.80993,0.19205l-0.21709,-0.64293l3.37334,-1.05208l0.72644,2.28786c0.47316,-0.95189 0.98806,-1.69224 1.54472,-2.22107c0.31173,-0.11133 0.68748,-0.16699 1.12724,-0.16699c0.60119,0 1.16619,0.10576 1.69502,0.31729l-0.68469,2.78051c-0.41192,-0.08907 -0.94076,-0.16699 -1.58648,-0.23379c-0.64016,-0.07236 -1.1662,-0.12247 -1.57812,-0.1503zM112.50362,185.17155c0,1.50854 -0.64572,2.70257 -1.93716,3.58209c-1.28588,0.87395 -3.16738,1.33876 -5.64451,1.39443v4.38368l2.32962,0.0167v0.75149h-6.93039v-0.75149l1.05208,-0.0167v-12.78363l-1.05208,-0.02505v-0.74314l4.12483,0.04176l3.18964,-0.1503c1.02425,0 1.90377,0.19205 2.63856,0.57614c0.73479,0.3841 1.28866,0.90457 1.66162,1.56143c0.37853,0.65686 0.56779,1.37773 0.56779,2.16261zM108.70444,185.78944c0,-0.75706 -0.16422,-1.44452 -0.49264,-2.06241c-0.32842,-0.62346 -0.78211,-1.11331 -1.36102,-1.46957c-0.57336,-0.35626 -1.2163,-0.53439 -1.92881,-0.53439v7.59002c1.18011,-0.07236 2.10417,-0.41749 2.77215,-1.03538c0.67356,-0.61789 1.01033,-1.44731 1.01033,-2.48826zM121.91457,194.1894l-3.1479,1.47793c-0.3841,-0.27276 -0.64572,-0.64572 -0.78489,-1.11888c-0.51769,0.3173 -1.03538,0.57335 -1.55307,0.76818c-0.51769,0.2004 -0.97137,0.3006 -1.36103,0.3006c-0.57892,0 -1.05487,-0.20597 -1.42782,-0.61789c-0.37296,-0.41192 -0.55944,-0.93797 -0.55944,-1.57812c0,-0.28389 0.03062,-0.59284 0.09185,-0.92683c0.0668,-0.33956 0.1503,-0.60954 0.2505,-0.80993l4.53397,-0.72643l0.04175,-0.61789c0.02783,-0.64016 -0.10855,-1.14115 -0.40914,-1.50298c-0.29503,-0.36739 -0.77932,-0.55109 -1.45288,-0.55109c-0.29503,0 -0.60676,0.0334 -0.93518,0.1002c-0.32842,0.06123 -0.60676,0.14195 -0.83499,0.24215l-0.34234,0.72644l-0.57614,-0.20875l0.98528,-3.08109c1.09661,-0.46759 2.13478,-0.70139 3.1145,-0.70139c1.01312,0 1.83975,0.26719 2.47991,0.80158c0.64572,0.53439 0.96858,1.36938 0.96858,2.50496l-0.02504,0.43419l-0.2171,2.8807l-0.04174,0.76819c0,0.25606 0.02227,0.45925 0.0668,0.60954c0.04453,0.1503 0.11689,0.30338 0.21709,0.45924l0.65965,-0.2505zM117.0633,194.08084c0.22823,0 0.48986,-0.08628 0.78488,-0.25884l-0.0167,-0.44254l0.0167,-0.47594l0.0668,-1.21908l-1.64492,0.3841c-0.05567,0.18926 -0.0835,0.43976 -0.0835,0.75149c0,0.42863 0.0835,0.74592 0.2505,0.95189c0.17257,0.20596 0.38131,0.30895 0.62625,0.30895zM125.54408,187.28406c0,0.3841 0.15308,0.73479 0.45924,1.05209c0.30617,0.31172 0.77376,0.68191 1.40278,1.11054c0.76819,0.52326 1.35267,0.99919 1.75347,1.42782c0.4008,0.42863 0.60119,0.95745 0.60119,1.58648c0,0.55109 -0.16422,1.06878 -0.49264,1.55307c-0.32842,0.48429 -0.79324,0.87396 -1.39443,1.16898c-0.59562,0.28947 -1.28031,0.43419 -2.05406,0.43419c-0.74036,0 -1.44175,-0.17813 -2.10417,-0.53439c-0.66242,-0.35626 -1.14949,-0.80993 -1.46122,-1.36102l1.83697,-1.47792c0.57336,1.06878 1.15785,1.94552 1.75347,2.6302c0.24493,-0.1837 0.4481,-0.40079 0.60954,-0.65129c0.16143,-0.2505 0.24215,-0.49821 0.24215,-0.74313c0,-0.39522 -0.14751,-0.73757 -0.44254,-1.02703c-0.28947,-0.29503 -0.74036,-0.64851 -1.35268,-1.06043c-0.49543,-0.32842 -0.89343,-0.61232 -1.19403,-0.85169c-0.30059,-0.24493 -0.55388,-0.53718 -0.75984,-0.87673c-0.20596,-0.34512 -0.30894,-0.732 -0.30894,-1.16063c0,-0.52883 0.17257,-1.03538 0.51769,-1.51967c0.35069,-0.48429 0.84055,-0.87395 1.46958,-1.16898c0.62902,-0.30059 1.34154,-0.4509 2.13756,-0.4509c0.61232,0 1.19125,0.13082 1.73677,0.39245c0.55109,0.26163 0.9992,0.59285 1.34433,0.99364l-1.66997,1.64493c-0.68469,-0.86838 -1.43896,-1.64492 -2.26281,-2.32961c-0.24493,0.31172 -0.36739,0.71809 -0.36739,1.21908zM124.84269,195.29992h0.0167zM137.36412,193.61325l-2.60516,1.87872c-1.05208,0 -1.81748,-0.25884 -2.29621,-0.77653c-0.47872,-0.52326 -0.71809,-1.36102 -0.71809,-2.51331v-5.68625h-1.43617v-0.68469c0.60119,-0.32843 1.25248,-0.79601 1.95387,-1.40277c0.70695,-0.60676 1.35268,-1.24412 1.93717,-1.91211l0.70974,0.2171l-0.10854,2.94751h2.50495v0.90178l-2.54671,-0.0501v4.91807c0,0.68469 0.13082,1.18568 0.39245,1.50298c0.2672,0.31173 0.62068,0.46759 1.06044,0.46759l0.79323,-0.45089zM149.9597,193.16236c0.62346,0 1.22743,-0.12803 1.81192,-0.38409c0.58449,-0.25606 1.12724,-0.62624 1.62823,-1.11053l0.55109,0.61789c-1.75347,2.22107 -3.763,3.3316 -6.0286,3.3316c-1.29701,0 -2.42703,-0.29224 -3.39004,-0.87673c-0.95745,-0.58449 -1.70059,-1.41113 -2.22941,-2.47991c-0.52882,-1.06878 -0.79323,-2.32126 -0.79323,-3.75744c0,-1.24135 0.23937,-2.44094 0.71809,-3.59879c0.47872,-1.16341 1.08826,-2.09581 1.82862,-2.7972c0.72922,-0.46759 1.50854,-0.82663 2.33796,-1.07713c0.83499,-0.2505 1.65884,-0.37574 2.47156,-0.37574c1.08548,0 2.07912,0.2338 2.9809,0.70139c0.90735,0.46203 1.62266,1.10496 2.14592,1.92882l-2.62186,2.20436c-0.74592,-1.31371 -1.63657,-2.7304 -2.67195,-4.25008c-0.62902,0.25607 -1.19959,0.6986 -1.71172,1.32763c-0.51213,0.62346 -0.9157,1.36938 -1.21073,2.23776c-0.28947,0.86838 -0.43419,1.77295 -0.43419,2.71371c0,1.798 0.4008,3.18965 1.20238,4.17493c0.80716,0.97971 1.94552,1.46958 3.41509,1.46958zM155.06814,181.17196l2.7304,-0.61789v2.42981l-2.7304,0.40915zM158.01563,194.61523l0.79324,0.0668v0.61789h-4.60077v-0.61789l0.79324,-0.0668l-0.0668,-7.60672l-0.80993,0.16699l-0.2171,-0.61789l3.87434,-1.19403l0.30059,0.50934zM166.41359,193.61325l-2.60516,1.87872c-1.05208,0 -1.81748,-0.25884 -2.29621,-0.77653c-0.47872,-0.52326 -0.71808,-1.36102 -0.71808,-2.51331v-5.68625h-1.43618v-0.68469c0.60119,-0.32843 1.25248,-0.79601 1.95387,-1.40277c0.70695,-0.60676 1.35267,-1.24412 1.93716,-1.91211l0.70974,0.2171l-0.10854,2.94751h2.50496v0.90178l-2.5467,-0.0501v4.91807c0,0.68469 0.13081,1.18568 0.39245,1.50298c0.2672,0.31173 0.62068,0.46759 1.06043,0.46759l0.79324,-0.45089zM176.88666,185.68089v0.68469l-0.61789,0.0167l-2.7137,6.3125c-0.74036,1.75347 -1.50576,3.35664 -2.29623,4.80952c-0.79046,1.45288 -1.50576,2.60516 -2.14591,3.45684l-2.53001,-2.38806c1.77017,-1.01312 3.35386,-2.12643 4.75107,-3.33994l-1.17732,0.06679l-3.28985,-8.91765l-0.61789,-0.0167v-0.68469h5.06001v0.68469l-0.89343,0.0167l1.94554,6.54629l1.75347,-6.54629l-0.90179,-0.0167v-0.68469z" fill="#f1f6ff" stroke-width="1" stroke-linecap="square"/><path d="M27.8281,168.84198c0,-0.99642 0.11689,-1.97613 0.35069,-2.93915c0.23379,-0.96302 0.56501,-1.87315 0.99364,-2.7304c0.42863,-0.86282 0.93797,-1.65327 1.52803,-2.37136c0.59006,-0.72365 1.23856,-1.34711 1.94552,-1.87037c0.70695,-0.52882 1.45844,-0.93797 2.25446,-1.22743c0.79602,-0.29502 1.61431,-0.44254 2.45486,-0.44254c0.98528,0 1.75068,0.20596 2.29621,0.61789c0.55109,0.41192 0.82664,0.98807 0.82664,1.72842c0,0.28947 -0.03897,0.58449 -0.1169,0.88509c-0.07793,0.29502 -0.19204,0.59006 -0.34234,0.88509c-0.1503,0.28947 -0.32565,0.57058 -0.52604,0.84334c-0.2004,0.26719 -0.42028,0.50099 -0.65963,0.70139c-0.37296,-0.05567 -0.69582,-0.22267 -0.96859,-0.50099c-0.2672,-0.27832 -0.43698,-0.60398 -0.50934,-0.97693c0.50099,-0.41192 0.89621,-0.84055 1.18568,-1.28588c0.29503,-0.45089 0.44254,-0.86282 0.44254,-1.23577c0,-0.62346 -0.39244,-0.93518 -1.17732,-0.93518c-0.32842,0 -0.66799,0.06679 -1.01869,0.20039c-0.34512,0.1336 -0.69582,0.32287 -1.05208,0.56779c-0.35626,0.23936 -0.70417,0.53161 -1.04373,0.87674c-0.334,0.33956 -0.64294,0.71808 -0.92683,1.13558c-1.9817,2.85009 -2.97255,5.76419 -2.97255,8.74231c0,1.05208 0.16421,1.89819 0.49264,2.53835c0.32842,0.64016 0.76262,1.01869 1.30258,1.13558c0.61232,-0.14473 1.38886,-0.53718 2.32961,-1.17733c0.94076,-0.64016 1.96778,-1.47236 3.0811,-2.4966c0.14473,0.13916 0.23102,0.28668 0.25885,0.44254c-0.41192,0.54552 -0.84055,1.06878 -1.28588,1.56977c-0.43976,0.49543 -0.87673,0.9491 -1.31092,1.36103c-0.43419,0.41192 -0.86282,0.77376 -1.28588,1.08548c-0.41749,0.3173 -0.80437,0.56223 -1.16063,0.73479c-1.77017,-0.02783 -3.11172,-0.53439 -4.02463,-1.51968c-0.90735,-0.98529 -1.36102,-2.43259 -1.36102,-4.34193zM39.62543,172.66622c0,-0.49543 0.0501,-1.07991 0.1503,-1.75347c0.1002,-0.67912 0.24493,-1.40278 0.43419,-2.17096c0.19483,-0.77375 0.42307,-1.58091 0.68469,-2.42146c0.26162,-0.84055 0.55666,-1.6811 0.88509,-2.52166c0.28947,-0.75706 0.62068,-1.51968 0.99363,-2.28786c0.37853,-0.76819 0.78768,-1.52246 1.22744,-2.26281c0.44533,-0.74035 0.90457,-1.44452 1.37773,-2.11252c0.47872,-0.67355 0.96024,-1.28866 1.44452,-1.84531c0.22823,0 0.47317,0.03062 0.73479,0.09185c0.2672,0.05567 0.52604,0.13081 0.77654,0.22545c0.2505,0.08907 0.47872,0.19762 0.68469,0.32565c0.20596,0.12803 0.37297,0.25606 0.501,0.38409c-1.06878,1.09661 -2.0318,2.20436 -2.88906,3.32324c-0.85168,1.11888 -1.52802,2.17096 -2.02901,3.15625c-0.2672,0.53996 -0.51213,1.04651 -0.73479,1.51968c-0.22267,0.46759 -0.42584,0.9324 -0.60953,1.39443c-0.1837,0.46203 -0.3507,0.92684 -0.50099,1.39443c-0.1503,0.46203 -0.28946,0.9491 -0.41749,1.46123c2.73318,-3.49024 4.7622,-5.23536 6.08705,-5.23536c0.37296,0 0.77375,0.12247 1.20238,0.3674c0.42863,0.23936 0.80716,0.565 1.13558,0.97693c-0.44533,0.48429 -0.90457,1.06878 -1.37772,1.75347c-0.46759,0.68469 -0.899,1.37216 -1.29422,2.06242c-0.38966,0.69026 -0.70974,1.33319 -0.96023,1.92882c-0.24493,0.59006 -0.36739,1.02704 -0.36739,1.31093c0,0.13916 0.01948,0.2338 0.05845,0.2839c0.04453,0.0501 0.13917,0.07515 0.2839,0.07515c0.21153,0 0.3813,-0.02783 0.50934,-0.0835c0.12803,-0.05567 0.20597,-0.08349 0.2338,-0.08349c0.07236,0.11133 0.11411,0.18926 0.12525,0.23379c0.0167,0.04453 0.02505,0.08071 0.02505,0.10855c0,0.05567 -0.08628,0.13639 -0.25884,0.24215c-0.16699,0.10576 -0.37018,0.21431 -0.60954,0.32564c-0.23379,0.10576 -0.46481,0.2004 -0.69304,0.2839c-0.22823,0.08907 -0.39801,0.1336 -0.50934,0.1336c-0.14473,0 -0.28946,-0.04175 -0.43419,-0.12525c-0.13916,-0.07793 -0.26163,-0.18091 -0.36739,-0.30894c-0.10577,-0.12803 -0.19205,-0.26998 -0.25885,-0.42584c-0.06123,-0.15587 -0.09184,-0.32008 -0.09184,-0.49264c0,-0.21153 0.05845,-0.52604 0.17535,-0.94353c0.12246,-0.42306 0.28946,-0.9157 0.50099,-1.47792c0.21709,-0.56222 0.47595,-1.17733 0.77654,-1.84532c0.30059,-0.67355 0.62068,-1.35825 0.96024,-2.05407c0,-0.06123 -0.02783,-0.09184 -0.0835,-0.09184c-0.04453,0 -0.15587,0.05845 -0.334,0.17535c-0.17813,0.11133 -0.34512,0.22545 -0.50099,0.34235c-0.51213,0.3841 -1.02981,0.85726 -1.55307,1.41948c-0.51769,0.56222 -1.02425,1.18011 -1.51968,1.85367c-0.48986,0.66799 -0.95188,1.37773 -1.38608,2.12922c-0.43419,0.74592 -0.80715,1.49463 -1.11888,2.24612c-0.04453,0.1002 -0.11133,0.19205 -0.2004,0.27555c-0.0835,0.08907 -0.15308,0.1336 -0.20874,0.1336c-0.04453,0 -0.10577,-0.0501 -0.1837,-0.1503c-0.07793,-0.1002 -0.1503,-0.22545 -0.2171,-0.37574c-0.06123,-0.15029 -0.11969,-0.30338 -0.17534,-0.45924c-0.05567,-0.15587 -0.0835,-0.29224 -0.0835,-0.40914zM58.07458,164.39986c0.13916,0 0.30338,0.02505 0.49265,0.07515c0.19483,0.0501 0.37018,0.11411 0.52604,0.19205c0.16143,0.07793 0.29503,0.16143 0.40079,0.2505c0.10577,0.0835 0.15865,0.15865 0.15865,0.22545c-0.28389,0.60119 -0.54831,1.20516 -0.79323,1.81192c-0.23937,0.60119 -0.44532,1.18012 -0.61789,1.73677c-0.17257,0.55666 -0.30616,1.07713 -0.40079,1.56142c-0.08907,0.48429 -0.1336,0.90457 -0.1336,1.26083c0,0.40079 0.04175,0.73479 0.12525,1.00199c0.08907,0.26163 0.23379,0.4481 0.43419,0.55944c-0.17257,0.1169 -0.39523,0.20875 -0.66799,0.27555c-0.2672,0.07236 -0.50934,0.10855 -0.72643,0.10855c-0.76819,0 -1.15228,-0.52604 -1.15228,-1.57812c0,-0.81272 0.26998,-1.92604 0.80994,-3.33994c-0.28389,0.65686 -0.61233,1.27475 -0.98529,1.85367c-0.36739,0.57892 -0.74313,1.08826 -1.12723,1.52802c-0.3841,0.43976 -0.77375,0.7988 -1.16898,1.07713c-0.38966,0.27832 -0.74871,0.44533 -1.07713,0.501c-0.52882,-0.02783 -0.95745,-0.27833 -1.28588,-0.75149c-0.32842,-0.47872 -0.49264,-1.08827 -0.49264,-1.82862c0,-0.80158 0.16978,-1.64214 0.50935,-2.52166c0.34512,-0.88509 0.78489,-1.70616 1.31928,-2.46321c0.53439,-0.75706 1.11609,-1.38607 1.74512,-1.88706c0.62902,-0.50656 1.23578,-0.77376 1.82027,-0.80159c0.13916,0.03897 0.29781,0.12247 0.47595,0.2505c0.17813,0.12803 0.34791,0.27833 0.50934,0.4509c0.16699,0.17256 0.30616,0.34791 0.41749,0.52604c0.1169,0.17813 0.1837,0.33121 0.2004,0.45925c-0.57336,0.0835 -1.16341,0.36182 -1.77017,0.83498c-0.60119,0.46759 -1.1495,1.0326 -1.64492,1.69503c-0.48986,0.66242 -0.89343,1.37216 -1.21072,2.12921c-0.31173,0.75706 -0.4676,1.46123 -0.4676,2.11252c0,0.27276 0.1002,0.44533 0.30059,0.5177c0.41192,-0.08907 0.88787,-0.44254 1.42783,-1.06043c0.54552,-0.61789 1.20238,-1.57534 1.97056,-2.87235c0.14473,-0.25607 0.30617,-0.53996 0.4843,-0.85169c0.17813,-0.3173 0.35904,-0.64571 0.54274,-0.98528c0.1837,-0.34512 0.36461,-0.69026 0.54275,-1.03539c0.17813,-0.3507 0.34791,-0.69025 0.50934,-1.01868zM59.17843,180.10594c-0.19483,-0.05567 -0.30894,-0.26719 -0.34234,-0.63459c-0.05567,-0.18927 -0.09463,-0.41192 -0.1169,-0.66799c-0.0167,-0.25607 -0.02504,-0.54831 -0.02504,-0.87673c0,-0.30059 0.04732,-0.70973 0.14195,-1.22742c0.1002,-0.51769 0.23936,-1.10497 0.41749,-1.76182c0.17813,-0.65686 0.39523,-1.36659 0.65129,-2.12921c0.26162,-0.76262 0.54831,-1.53638 0.86004,-2.32126c0.3841,-0.97971 0.71809,-1.82862 1.00198,-2.54671c0.28389,-0.72366 0.52326,-1.34711 0.71809,-1.87037c0.19483,-0.52883 0.35069,-0.96301 0.46759,-1.30258c0.12246,-0.34512 0.21989,-0.64016 0.29225,-0.88508c0.05567,-0.16699 0.13916,-0.37018 0.2505,-0.60954c0.1169,-0.24492 0.2505,-0.49264 0.4008,-0.74313c0.1503,-0.2505 0.30338,-0.48429 0.45924,-0.70139c0.15587,-0.22267 0.29781,-0.39244 0.42585,-0.50934c0.50099,0.07236 0.97137,0.2004 1.41113,0.3841c0.43976,0.1837 0.70974,0.36182 0.80993,0.53439c-0.19483,0.1837 -0.42306,0.47316 -0.68469,0.86839c-0.25606,0.38966 -0.50657,0.81829 -0.75149,1.28588c-0.23937,0.46203 -0.45924,0.93519 -0.65963,1.41948c-0.19483,0.48429 -0.34234,0.91013 -0.44254,1.27753c0.13916,-0.23936 0.32286,-0.50099 0.55109,-0.78488c0.22823,-0.28947 0.57893,-0.68191 1.05209,-1.17733c0.52326,-0.53996 1.01589,-0.95467 1.47792,-1.24412c0.46759,-0.29503 0.87117,-0.44254 1.21073,-0.44254c0.54552,0 0.99085,0.1503 1.33598,0.45089c0.35069,0.29503 0.52605,0.67912 0.52605,1.15228c0,1.02425 -0.17257,2.04015 -0.51769,3.0477c-0.33956,1.00198 -0.82942,1.90933 -1.46958,2.72205c-0.24493,0.31172 -0.53161,0.60954 -0.86003,0.89344c-0.32286,0.2839 -0.66242,0.53717 -1.01869,0.75984c-0.35626,0.22267 -0.70695,0.39801 -1.05208,0.52605c-0.33956,0.12803 -0.64572,0.19205 -0.91848,0.19205c-0.25606,0 -0.4815,-0.05289 -0.67633,-0.15865c-0.18926,-0.10576 -0.32008,-0.23936 -0.39244,-0.40079c0.55666,-0.32843 1.09661,-0.78211 1.61987,-1.36103c0.52882,-0.58449 1.01869,-1.25805 1.46958,-2.02067c0.45089,-0.76262 0.84334,-1.58647 1.17733,-2.47156c0.334,-0.88509 0.58727,-1.78409 0.75984,-2.697c-0.54552,0.28947 -1.03538,0.60119 -1.46957,0.93518c-0.43419,0.33399 -0.86282,0.77097 -1.28588,1.31093c-0.51769,0.62902 -0.92683,1.13558 -1.22742,1.51967c-0.29503,0.3841 -0.53996,0.71252 -0.73479,0.98529c-0.18926,0.26719 -0.34512,0.52048 -0.46759,0.75984c-0.12246,0.23379 -0.25328,0.52047 -0.39244,0.86004c-0.2004,0.45646 -0.43419,1.06044 -0.70139,1.81193c-0.26162,0.74592 -0.53161,1.5809 -0.80993,2.50495c-0.27832,0.92962 -0.55666,1.91769 -0.83499,2.9642c-0.27832,1.04651 -0.54552,2.09025 -0.80158,3.1312c-0.15587,-0.02783 -0.28946,-0.14195 -0.40079,-0.34234c-0.1169,-0.12803 -0.2004,-0.22267 -0.2505,-0.2839c-0.0501,-0.05567 -0.11133,-0.09742 -0.1837,-0.12525zM72.51749,164.85075c-0.0668,-0.08907 -0.13081,-0.27277 -0.19205,-0.55109c-0.05567,-0.27832 -0.0835,-0.51769 -0.0835,-0.71809c0.37296,0.0334 0.72922,0.06123 1.06878,0.08349c0.34512,0.0167 0.65965,0.0334 0.94354,0.0501c0.21153,-0.42863 0.44254,-0.85169 0.69304,-1.26918c0.2505,-0.42306 0.49265,-0.80715 0.72644,-1.15228c0.23379,-0.3507 0.45368,-0.64572 0.65964,-0.88509c0.20596,-0.24492 0.36739,-0.40358 0.48429,-0.47594c0.14473,0 0.32565,0.02506 0.54274,0.07515c0.22267,0.0501 0.44811,0.11412 0.67634,0.19205c0.22823,0.07793 0.4342,0.16143 0.61789,0.2505c0.1837,0.0835 0.31173,0.167 0.3841,0.2505c-0.42863,0.53996 -0.79602,1.04373 -1.10218,1.51132c-0.30617,0.46203 -0.63738,0.99086 -0.99363,1.58648c0.2839,0 0.57057,-0.00557 0.86004,-0.0167c0.29503,-0.0167 0.59285,-0.03897 0.89344,-0.0668c0.07236,0.07236 0.12802,0.16143 0.16699,0.26719c0.04453,0.10576 0.0668,0.2171 0.0668,0.334c-0.69582,0.25607 -1.54194,0.39801 -2.53836,0.42584c-0.35626,0.68469 -0.67356,1.3666 -0.95189,2.04572c-0.27832,0.67355 -0.5149,1.32484 -0.70973,1.95386c-0.18926,0.62346 -0.33956,1.21351 -0.4509,1.77017c-0.10577,0.55666 -0.15864,1.05487 -0.15864,1.49463c0,0.62902 0.23658,0.97971 0.70974,1.05208c0.42863,-0.06123 0.83498,-0.16978 1.21908,-0.32564c0.3841,-0.15587 0.72644,-0.35627 1.02704,-0.60119c0.0835,0.1336 0.1336,0.24215 0.1503,0.32565c-0.08907,0.12803 -0.23658,0.27833 -0.44254,0.45089c-0.20596,0.16699 -0.43141,0.33121 -0.67633,0.49264c-0.23937,0.16699 -0.47316,0.30616 -0.70139,0.4175c-0.22823,0.1169 -0.39801,0.1837 -0.50934,0.2004c-0.35626,-0.0167 -0.71252,-0.09741 -1.06878,-0.24214c-0.35626,-0.13916 -0.6819,-0.3173 -0.97693,-0.53439c-0.28947,-0.21153 -0.52883,-0.44811 -0.71809,-0.70973c-0.1837,-0.26719 -0.27554,-0.52882 -0.27554,-0.78489c0,-0.33956 0.04453,-0.76819 0.1336,-1.28588c0.09463,-0.52326 0.22823,-1.09105 0.4008,-1.70337c0.17257,-0.61232 0.37296,-1.25248 0.60119,-1.92047c0.22823,-0.67355 0.47595,-1.33597 0.74314,-1.98726zM86.43772,164.18276c-0.05567,0.88509 -0.21432,1.64492 -0.47594,2.27951c-0.25607,0.63459 -0.62346,1.19125 -1.10218,1.66997c-0.47316,0.47316 -1.05208,0.90178 -1.73677,1.28588c-0.68469,0.3841 -1.48349,0.75427 -2.39641,1.11053c0,0.08907 -0.00278,0.18091 -0.00834,0.27555c-0.00557,0.08907 -0.00835,0.1837 -0.00835,0.2839c0,0.1837 0.01392,0.37575 0.04175,0.57614c0.02783,0.20039 0.07793,0.38688 0.1503,0.55944c0.07236,0.167 0.17256,0.30616 0.3006,0.41749c0.12803,0.10576 0.28946,0.15865 0.48429,0.15865c0.38966,0 0.76819,-0.08629 1.13558,-0.25885c0.37296,-0.17256 0.72644,-0.38131 1.06043,-0.62624c0.334,-0.2505 0.64572,-0.52048 0.93519,-0.80993c0.29503,-0.29503 0.55665,-0.56501 0.78489,-0.80993c0.14473,0.12803 0.26441,0.2505 0.35904,0.36739c-0.64016,0.85169 -1.34154,1.56143 -2.10416,2.12922c-0.76262,0.56222 -1.48627,0.92127 -2.17096,1.07713c-0.97971,-0.1169 -1.74512,-0.47593 -2.29621,-1.07712c-0.54552,-0.60676 -0.81829,-1.33877 -0.81829,-2.19602c0,-0.58449 0.08071,-1.17732 0.24215,-1.77851c0.167,-0.60676 0.39522,-1.19125 0.68469,-1.75347c0.29503,-0.56779 0.63738,-1.09939 1.02703,-1.59482c0.38966,-0.50099 0.80994,-0.93519 1.26083,-1.30258c0.45089,-0.37296 0.91292,-0.6652 1.38608,-0.87673c0.47872,-0.2171 0.95467,-0.32564 1.42783,-0.32564c0.65129,0.08907 1.2636,0.49542 1.83696,1.21908zM84.95979,164.8925c-0.3841,0.05567 -0.7821,0.21152 -1.19403,0.46759c-0.41192,0.25607 -0.80159,0.59841 -1.16898,1.02704c-0.36182,0.42863 -0.69304,0.92684 -0.99363,1.49463c-0.30059,0.56779 -0.53439,1.18011 -0.70139,1.83696c1.14115,-0.56779 2.08747,-1.26918 2.83896,-2.10416c0.75705,-0.83498 1.1634,-1.74234 1.21907,-2.72205zM86.9073,172.60777c0.07236,-0.41192 0.19761,-0.95745 0.37574,-1.63657c0.17813,-0.67912 0.38688,-1.39999 0.62625,-2.16261c0.24493,-0.76262 0.50099,-1.52803 0.76819,-2.29621c0.27276,-0.76818 0.53718,-1.45844 0.79324,-2.07076c0.1837,-0.43976 0.34791,-0.78489 0.49265,-1.03538c0.14473,-0.2505 0.3006,-0.46203 0.46759,-0.63459c0.2004,0.02783 0.40636,0.07793 0.61789,0.15029c0.21709,0.07236 0.42585,0.15865 0.62625,0.25885c0.20039,0.1002 0.37852,0.20319 0.53439,0.30895c0.15586,0.10576 0.27554,0.20874 0.35904,0.30894c-0.3841,0.45646 -0.72366,0.97694 -1.01868,1.56143c-0.28946,0.58449 -0.58449,1.33319 -0.88508,2.24611c0.77375,-0.68469 1.45565,-1.33876 2.04571,-1.96221c0.59006,-0.62902 1.14115,-1.33041 1.65328,-2.10416c0.08907,-0.0668 0.23936,-0.1002 0.45089,-0.1002c0.2004,0 0.39245,0.0334 0.57614,0.1002c0.1837,0.06123 0.31173,0.14751 0.38409,0.25885c-0.25607,0.68469 -0.38409,1.36103 -0.38409,2.02902c0,0.62902 0.09185,1.0994 0.27554,1.41113c-0.01113,0.08907 -0.10576,0.25607 -0.28389,0.50099c-0.17813,0.23936 -0.37296,0.46481 -0.58449,0.67634c-0.38966,-0.20039 -0.73478,-0.47316 -1.03538,-0.81829c-0.29503,-0.3507 -0.51491,-0.73201 -0.65964,-1.14393c-0.66799,0.46759 -1.23856,0.92684 -1.71171,1.37773c-0.46759,0.44532 -0.86838,0.94354 -1.20238,1.49463c-0.33399,0.54552 -0.62068,1.17454 -0.86004,1.88707c-0.23379,0.71252 -0.45646,1.56142 -0.66799,2.54671c-0.12803,-0.0167 -0.28111,-0.06401 -0.45924,-0.14194c-0.17813,-0.07793 -0.35627,-0.17534 -0.5344,-0.29224c-0.17813,-0.11133 -0.33956,-0.23101 -0.48429,-0.35904c-0.13916,-0.12803 -0.23101,-0.24771 -0.27554,-0.35904z" fill="#f1f6ff" stroke-width="1" stroke-linecap="square"/><path d="M106.82748,159.02524c0.21153,-0.13916 0.50099,-0.27554 0.86838,-0.40914c0.37296,-0.13916 0.77375,-0.25885 1.20238,-0.35905c0.42863,-0.1002 0.86004,-0.17812 1.29424,-0.23379c0.43419,-0.05567 0.82385,-0.08349 1.16898,-0.08349c0.58449,0 1.0827,0.0835 1.49463,0.2505c0.41192,0.16143 0.74592,0.37296 1.00198,0.63459c0.25606,0.26163 0.43976,0.55666 0.55109,0.88509c0.1169,0.32843 0.17535,0.6652 0.17535,1.01033c0,0.35626 -0.06679,0.73479 -0.20039,1.13558c-0.1336,0.39523 -0.33122,0.79324 -0.59284,1.19403c-0.25606,0.39523 -0.565,0.7821 -0.92683,1.16063c-0.36183,0.37852 -0.7654,0.71809 -1.21073,1.01869c0.94076,0.11133 1.62544,0.39523 2.05407,0.85169c0.42863,0.45646 0.64294,1.06879 0.64294,1.83697c0,0.72922 -0.13638,1.38329 -0.40914,1.96221c-0.2672,0.57336 -0.63459,1.08549 -1.10218,1.53637c-0.46202,0.44532 -0.99363,0.82942 -1.59482,1.15228c-0.59562,0.32287 -1.22465,0.58728 -1.88707,0.79324c-0.66242,0.20596 -1.33598,0.35348 -2.02067,0.44254c-0.68469,0.09463 -1.33319,0.14195 -1.94552,0.14195c-0.52326,-0.11133 -0.92127,-0.38688 -1.19403,-0.82663c-0.27276,-0.44532 -0.40914,-0.98807 -0.40914,-1.62822c0,-0.04453 0.00279,-0.08628 0.00835,-0.12524c0.01113,-0.04453 0.0167,-0.09742 0.0167,-0.15865c0.43976,0.14473 1.01033,0.2171 1.71172,0.2171c0.72366,0 1.50576,-0.0835 2.34631,-0.2505c0.84055,-0.17256 1.61709,-0.42306 2.32962,-0.75149c0.71252,-0.32843 1.30258,-0.73479 1.77017,-1.21908c0.47316,-0.48429 0.70974,-1.04651 0.70974,-1.68667c0,-0.47316 -0.15308,-0.86282 -0.45924,-1.16898c-0.30617,-0.30616 -0.78488,-0.50099 -1.43617,-0.58449c-0.42863,0.25607 -0.84056,0.43698 -1.23578,0.54274c-0.38966,0.10576 -0.68469,0.15865 -0.88509,0.15865c-0.32842,0 -0.60675,-0.14194 -0.83498,-0.42584c-0.22823,-0.2839 -0.34235,-0.71809 -0.34235,-1.30258c0.64016,0 1.31928,-0.06958 2.03737,-0.20874c0.72366,-0.14473 1.38329,-0.39244 1.97892,-0.74313c0.60119,-0.3507 1.10497,-0.81271 1.51133,-1.38608c0.40636,-0.57892 0.62346,-1.31092 0.65129,-2.19601c-0.07236,-0.2839 -0.23937,-0.48986 -0.50099,-0.61789c-0.26162,-0.12803 -0.57892,-0.19205 -0.95188,-0.19205c-0.33956,0 -0.71252,0.0501 -1.11888,0.1503c-0.40636,0.1002 -0.81272,0.23936 -1.21908,0.41749c-0.40636,0.17813 -0.7988,0.39245 -1.17732,0.64294c-0.37853,0.24492 -0.70417,0.50934 -0.97693,0.79324c-0.28389,-0.16699 -0.50934,-0.42584 -0.67633,-0.77653c-0.16143,-0.3507 -0.24214,-0.75428 -0.24214,-1.21073c0,-0.0668 0,-0.12803 0,-0.1837c0,-0.06123 0.00835,-0.12803 0.02505,-0.20039zM116.78717,173.98818c-0.22823,-0.02783 -0.4676,-0.12525 -0.71809,-0.29224c-0.24493,-0.16143 -0.40358,-0.34235 -0.47594,-0.54274c0,-0.167 0.02505,-0.38687 0.07515,-0.65963c0.0501,-0.27276 0.10855,-0.54552 0.17535,-0.81829c0.07236,-0.27832 0.14474,-0.54274 0.2171,-0.79324c0.07236,-0.2505 0.12246,-0.43976 0.15029,-0.56779c0.17257,0 0.38967,0.04453 0.65129,0.1336c0.26162,0.0835 0.53161,0.2004 0.80994,0.3507c0.27832,0.14473 0.54275,0.31451 0.79324,0.50934c0.2505,0.19483 0.43976,0.38966 0.56779,0.58449c-0.12803,0.28947 -0.29224,0.56222 -0.49264,0.81829c-0.2004,0.25607 -0.41192,0.47872 -0.63459,0.66799c-0.21709,0.19483 -0.42584,0.34513 -0.62624,0.4509c-0.2004,0.10576 -0.36461,0.15865 -0.49264,0.15865zM118.92473,167.1914c-0.22823,-0.02783 -0.46759,-0.12247 -0.71809,-0.2839c-0.24493,-0.167 -0.40358,-0.3507 -0.47594,-0.55109c0,-0.167 0.02505,-0.38688 0.07515,-0.65964c0.0501,-0.27276 0.10855,-0.54552 0.17535,-0.81829c0.07236,-0.27832 0.14473,-0.54274 0.21709,-0.79323c0.07236,-0.2505 0.12247,-0.43976 0.1503,-0.56779c0.17257,0 0.38967,0.04453 0.65129,0.13359c0.26162,0.0835 0.53161,0.2004 0.80994,0.3507c0.27832,0.14473 0.54274,0.31451 0.79324,0.50934c0.2505,0.18927 0.43976,0.3841 0.56779,0.58449c-0.12803,0.28947 -0.29224,0.56222 -0.49263,0.81829c-0.2004,0.25607 -0.41192,0.4815 -0.63459,0.67634c-0.21709,0.18927 -0.42584,0.33679 -0.62624,0.44255c-0.2004,0.10576 -0.3646,0.15865 -0.49264,0.15865z" fill="#f1f6ff" stroke-width="1" stroke-linecap="square"/></g></g></svg>