<svg version="1.1" xmlns="http://www.w3.org/2000/svg" xmlns:xlink="http://www.w3.org/1999/xlink" width="243.24927" height="129.59858" viewBox="0,0,243.24927,129.59858"><defs><radialGradient cx="180.46409" cy="185.49224" r="57.05705" gradientUnits="userSpaceOnUse" id="color-1"><stop offset="0" stop-color="#000000" stop-opacity="0.49804"/><stop offset="1" stop-color="#000000" stop-opacity="0"/></radialGradient></defs><g transform="translate(-118.37536,-112.95071)"><g data-paper-data="{&quot;isPaintingLayer&quot;:true}" fill-rule="nonzero" stroke-linejoin="miter" stroke-miterlimit="10" stroke-dasharray="" stroke-dashoffset="0" style="mix-blend-mode: normal"><path d="M159.97206,126.25387v12.59375l-4.26562,-0.10937l-0.10937,-3.17187c-3.32292,-2.375 -5.63021,-3.89583 -6.92187,-4.5625v29.07811l4.21875,0.0625v4.0625h-19.5v-4.0625l4.20313,-0.0625v-29.07811c-1.29167,0.66667 -3.59375,2.1875 -6.90625,4.5625l-0.14062,3.17188l-4.25,0.10938v-12.59375zM196.8833,160.16013v4.04688h-14.65625l-8,-15.79687l1.40625,0.34375c-0.63542,0.77083 -1.35417,1.17708 -2.15625,1.21875v10.125l2.60938,0.0625v4.04688h-16.29687v-4.04687l2.60938,-0.0625v-29.71874l-2.60937,-0.04687v-4.09375l11.375,0.125l7.92188,-0.64062c2.77083,0 5.15625,0.51563 7.15625,1.54688c2.01042,1.03125 3.53646,2.42708 4.57813,4.1875c1.05208,1.76042 1.57813,3.70313 1.57813,5.82813c0,2.45833 -0.70833,4.59896 -2.125,6.42188c-1.41667,1.8125 -3.06771,3.08333 -4.95312,3.81248l8.4375,12.5625l3.125,0.07813zM173.47703,145.66015c1.91667,-0.11458 3.59896,-0.79687 5.04688,-2.04687c1.44792,-1.25 2.17188,-2.93229 2.17188,-5.04687c0,-1.54167 -0.35937,-2.9375 -1.07812,-4.1875c-0.71875,-1.25 -1.70312,-2.23437 -2.95312,-2.95312c-1.25,-0.71875 -2.3125,-1.07812 -3.1875,-1.07812zM233.1457,160.16013v4.04688h-18.26562v-4.04687l2.26563,-0.0625l-1.84375,-6.5625h-7.3125l-1.32812,6.5625l2.48438,0.0625v4.04688h-14.26562v-4.04687l2.9375,-0.07812l11.92188,-33.28124l8.15625,-1.125l12.3125,34.40624zM214.0832,149.34765c0,0 1.34892,-10.84374 -3.04687,-10.84374c-4.39579,0 -2.17187,10.84374 -2.17187,10.84374zM232.42239,160.16013l2.60938,-0.0625v-29.71874l-2.60937,-0.04687v-4.07812h16.29688v4.07813l-2.60937,0.04688v29.71874l2.60938,0.0625v4.04688h-16.29687zM287.96558,126.25387v4.07813l-2.65625,0.04688l-1.39062,33.78124l-8.125,0.04688c0,0 -11.10284,-17.40114 -17.21875,-27.10936c-6.6806,-10.6046 1.64063,22.98436 1.64063,22.98436l3.21875,0.0625v4.0625h-13.09375v-4.04687l2.64063,-0.0625l0.84375,-29.71874l-2.57812,-0.04687v-4.07812h14.89063l13.53125,20.99999l-1.0625,-16.87499l-3.20312,-0.04687v-4.07812z" fill="#e3edff" stroke="#e3edff" stroke-width="9" stroke-linecap="square"/><path d="M357.12442,135.8093c0,3.40568 -0.75259,6.67453 -2.25778,9.80654c-1.48998,3.13201 -3.51211,6.21081 -6.06637,9.2364c-2.55426,3.01038 -5.55704,6.07398 -9.00833,9.19079c-3.43609,3.11681 -7.13824,6.40847 -11.10647,9.87496c-1.79407,1.5204 -3.29926,2.87354 -4.51557,4.05945c-1.21631,1.18591 -2.25778,2.3186 -3.1244,3.39809c-0.85142,1.06428 -1.59641,2.09814 -2.23498,3.1016c-0.63857,1.00346 -1.1783,1.36075 -1.61921,1.07188c3.58812,-0.76019 7.85284,-2.10575 12.79412,-4.03664c4.95648,-1.9309 9.71532,-4.90326 14.2765,-8.9171c1.20112,1.48998 2.02973,2.63028 2.48585,3.42089c0.45612,0.79061 0.84383,1.67243 1.16311,2.64548c0.31928,0.95785 0.60056,1.99171 0.84383,3.1016c0.25846,1.10989 0.38771,2.22737 0.38771,3.35248c0,2.00692 -0.48652,3.80859 -1.45958,5.40501c-0.98825,1.07947 -2.19697,1.84729 -3.62613,2.3034c-1.42917,0.45612 -3.00278,0.79061 -4.72082,1.00346c-1.70285,0.21285 -3.51971,0.34969 -5.4506,0.41051c-1.9157,0.06082 -3.89221,0.09122 -5.92954,0.09122c-1.9157,0 -3.82379,0.04561 -5.72427,0.13684c-1.90049,0.10643 -3.70216,0.26607 -5.40499,0.47893c-1.70285,0.21285 -3.23844,0.52454 -4.60679,0.93505c-1.35315,0.41051 -2.76711,1.1707 -4.2419,2.28059c-2.52386,-1.1707 -4.51557,-2.56187 -5.97515,-4.17347c-1.45958,-1.59641 -2.54666,-3.5045 -3.26124,-5.72427c0.51694,-2.46304 1.30753,-4.57639 2.37181,-6.34004c1.06428,-1.77886 2.46304,-3.58812 4.19629,-5.42781c1.73325,-1.83968 3.8466,-3.79338 6.34004,-5.86111c2.50865,-2.06774 5.44301,-4.50036 8.80308,-7.29789c3.75538,-3.1016 7.13065,-5.99036 10.12582,-8.66624c3.01038,-2.6911 5.51903,-5.23015 7.52595,-7.61717c2.02213,-2.38702 3.55012,-4.68281 4.58399,-6.88738c1.03386,-2.21977 1.5508,-4.45475 1.5508,-6.70494c0,-2.66069 -0.62336,-4.69041 -1.87008,-6.08917c-1.24673,-1.41397 -2.90395,-2.12094 -4.97169,-2.12094c-1.56601,0 -3.1016,0.3725 -4.60679,1.1175c-1.48998,0.745 -2.83554,1.79407 -4.03664,3.14721c-1.20112,1.35315 -2.17416,2.90395 -2.91916,4.6524c-0.745,1.74846 -1.11748,3.58812 -1.11748,5.51903c0,1.38356 0.19766,2.59987 0.59295,3.64894c0.41051,1.04907 1.74846,3.00278 4.01384,5.86112c-3.16242,0.63857 -5.20735,0.95785 -6.13478,0.95785c-1.80926,0 -3.4893,-0.30407 -5.0401,-0.91224c-1.53559,-0.62336 -2.86594,-1.47479 -3.99103,-2.55426c-1.12509,-1.09468 -2.00692,-2.37942 -2.64548,-3.85419c-0.62336,-1.48998 -0.93503,-3.1244 -0.93503,-4.90326c0,-2.85834 0.79821,-5.54183 2.39463,-8.05048c1.61162,-2.50865 3.67176,-4.66761 6.18041,-6.47688c2.52386,-1.82447 5.35939,-3.26884 8.50661,-4.33312c3.14721,-1.07947 6.36285,-1.61921 9.64691,-1.61921c2.88875,0 5.55704,0.43332 8.00488,1.29994c2.44783,0.85142 4.55358,2.10575 6.31724,3.76298c1.76365,1.65723 3.11681,3.61854 4.05945,5.88392c0.95785,2.26538 1.43678,4.73602 1.43678,7.41193c0,0 -0.00022,-3.40586 -0.00022,-0.00018z" fill="#e3edff" stroke="#e3edff" stroke-width="9" stroke-linecap="square"/><path d="M159.97206,126.25387v12.59375l-4.26562,-0.10937l-0.10937,-3.17187c-3.32292,-2.375 -5.63021,-3.89583 -6.92187,-4.5625v29.07811l4.21875,0.0625v4.0625h-19.5v-4.0625l4.20313,-0.0625v-29.07811c-1.29167,0.66667 -3.59375,2.1875 -6.90625,4.5625l-0.14062,3.17188l-4.25,0.10938v-12.59375zM196.8833,160.16013v4.04688h-14.65625l-8,-15.79687l1.40625,0.34375c-0.63542,0.77083 -1.35417,1.17708 -2.15625,1.21875v10.125l2.60938,0.0625v4.04688h-16.29687v-4.04687l2.60938,-0.0625v-29.71874l-2.60937,-0.04687v-4.09375l11.375,0.125l7.92188,-0.64062c2.77083,0 5.15625,0.51563 7.15625,1.54688c2.01042,1.03125 3.53646,2.42708 4.57813,4.1875c1.05208,1.76042 1.57813,3.70313 1.57813,5.82813c0,2.45833 -0.70833,4.59896 -2.125,6.42188c-1.41667,1.8125 -3.06771,3.08333 -4.95312,3.81248l8.4375,12.5625l3.125,0.07813zM173.47703,145.66015c1.91667,-0.11458 3.59896,-0.79687 5.04688,-2.04687c1.44792,-1.25 2.17188,-2.93229 2.17188,-5.04687c0,-1.54167 -0.35937,-2.9375 -1.07812,-4.1875c-0.71875,-1.25 -1.70312,-2.23437 -2.95312,-2.95312c-1.25,-0.71875 -2.3125,-1.07812 -3.1875,-1.07812zM233.1457,160.16013v4.04688h-18.26562v-4.04687l2.26563,-0.0625l-1.84375,-6.5625h-7.3125l-1.32812,6.5625l2.48438,0.0625v4.04688h-14.26562v-4.04687l2.9375,-0.07812l11.92188,-33.28124l8.15625,-1.125l12.3125,34.40624zM214.0832,149.34765l-3.04687,-10.84374l-2.17187,10.84374zM232.42239,160.16013l2.60938,-0.0625v-29.71874l-2.60937,-0.04687v-4.07812h16.29688v4.07813l-2.60937,0.04688v29.71874l2.60938,0.0625v4.04688h-16.29687zM287.96558,126.25387v4.07813l-2.65625,0.04688l-1.39062,33.78124l-8.125,0.04688l-17.21875,-27.10936l1.64063,22.98436l3.21875,0.0625v4.0625h-13.09375v-4.04687l2.64063,-0.0625l0.84375,-29.71874l-2.57812,-0.04687v-4.07812h14.89063l13.53125,20.99999l-1.0625,-16.87499l-3.20312,-0.04687v-4.07812z" fill="#ce6552" stroke="none" stroke-width="1" stroke-linecap="square"/><path d="M357.12442,135.8093c0,3.40568 -0.75259,6.67453 -2.25778,9.80654c-1.48998,3.13201 -3.51211,6.21081 -6.06637,9.2364c-2.55426,3.01038 -5.55704,6.07398 -9.00833,9.19079c-3.43609,3.11681 -7.13824,6.40847 -11.10647,9.87496c-1.79407,1.5204 -3.29926,2.87354 -4.51557,4.05945c-1.21631,1.18591 -2.25778,2.3186 -3.1244,3.39809c-0.85142,1.06428 -1.59641,2.09814 -2.23498,3.1016c-0.63857,1.00346 -1.1783,1.36075 -1.61921,1.07188c3.58812,-0.76019 7.85284,-2.10575 12.79412,-4.03664c4.95648,-1.9309 9.71532,-4.90326 14.2765,-8.9171c1.20112,1.48998 2.02973,2.63028 2.48585,3.42089c0.45612,0.79061 0.84383,1.67243 1.16311,2.64548c0.31928,0.95785 0.60056,1.99171 0.84383,3.1016c0.25846,1.10989 0.38771,2.22737 0.38771,3.35248c0,2.00692 -0.48652,3.80859 -1.45958,5.40501c-0.98825,1.07947 -2.19697,1.84729 -3.62613,2.3034c-1.42917,0.45612 -3.00278,0.79061 -4.72082,1.00346c-1.70285,0.21285 -3.51971,0.34969 -5.4506,0.41051c-1.9157,0.06082 -3.89221,0.09122 -5.92954,0.09122c-1.9157,0 -3.82379,0.04561 -5.72427,0.13684c-1.90049,0.10643 -3.70216,0.26607 -5.40499,0.47893c-1.70285,0.21285 -3.23844,0.52454 -4.60679,0.93505c-1.35315,0.41051 -2.76711,1.1707 -4.2419,2.28059c-2.52386,-1.1707 -4.51557,-2.56187 -5.97515,-4.17347c-1.45958,-1.59641 -2.54666,-3.5045 -3.26124,-5.72427c0.51694,-2.46304 1.30753,-4.57639 2.37181,-6.34004c1.06428,-1.77886 2.46304,-3.58812 4.19629,-5.42781c1.73325,-1.83968 3.8466,-3.79338 6.34004,-5.86111c2.50865,-2.06774 5.44301,-4.50036 8.80308,-7.29789c3.75538,-3.1016 7.13065,-5.99036 10.12582,-8.66624c3.01038,-2.6911 5.51903,-5.23015 7.52595,-7.61717c2.02213,-2.38702 3.55012,-4.68281 4.58399,-6.88738c1.03386,-2.21977 1.5508,-4.45475 1.5508,-6.70494c0,-2.66069 -0.62336,-4.69041 -1.87008,-6.08917c-1.24673,-1.41397 -2.90395,-2.12094 -4.97169,-2.12094c-1.56601,0 -3.1016,0.3725 -4.60679,1.1175c-1.48998,0.745 -2.83554,1.79407 -4.03664,3.14721c-1.20112,1.35315 -2.17416,2.90395 -2.91916,4.6524c-0.745,1.74846 -1.11748,3.58812 -1.11748,5.51903c0,1.38356 0.19766,2.59987 0.59295,3.64894c0.41051,1.04907 1.74846,3.00278 4.01384,5.86112c-3.16242,0.63857 -5.20735,0.95785 -6.13478,0.95785c-1.80926,0 -3.4893,-0.30407 -5.0401,-0.91224c-1.53559,-0.62336 -2.86594,-1.47479 -3.99103,-2.55426c-1.12509,-1.09468 -2.00692,-2.37942 -2.64548,-3.85419c-0.62336,-1.48998 -0.93503,-3.1244 -0.93503,-4.90326c0,-2.85834 0.79821,-5.54183 2.39463,-8.05048c1.61162,-2.50865 3.67176,-4.66761 6.18041,-6.47688c2.52386,-1.82447 5.35939,-3.26884 8.50661,-4.33312c3.14721,-1.07947 6.36285,-1.61921 9.64691,-1.61921c2.88875,0 5.55704,0.43332 8.00488,1.29994c2.44783,0.85142 4.55358,2.10575 6.31724,3.76298c1.76365,1.65723 3.11681,3.61854 4.05945,5.88392c0.95785,2.26538 1.43678,4.73602 1.43678,7.41193z" fill="#e7925c" stroke="#ffb766" stroke-width="0" stroke-linecap="square"/><path d="M237.52114,185.49224c0,31.51174 -25.54531,57.05705 -57.05705,57.05705c-31.51175,0 -57.05706,-25.54531 -57.05706,-57.05705c0,-31.51175 25.54531,-57.05706 57.05706,-57.05706c31.51175,0 57.05705,25.54531 57.05705,57.05706z" fill="url(#color-1)" stroke="none" stroke-width="0" stroke-linecap="butt"/><path d="M138.21215,162.33399c0.84407,0 1.72294,0.15663 2.63662,0.46989c0.91368,0.31326 1.71424,0.71354 2.40167,1.20084c-0.21755,1.13992 -0.42203,2.16673 -0.61347,3.08041c-0.19144,0.91368 -0.36547,1.74469 -0.5221,2.49305c-0.15663,0.73965 -0.30891,1.41838 -0.45684,2.0362c-0.13923,0.60912 -0.2741,1.17908 -0.40463,1.70989c-0.5395,2.0101 -1.09206,3.82441 -1.65767,5.44293c-0.56561,1.60981 -1.16603,3.06301 -1.80126,4.35956c-0.63523,1.28786 -1.30526,2.43213 -2.0101,3.43283c-0.70484,1.0007 -1.45754,1.87957 -2.25809,2.63662c-0.77445,0.73965 -1.55325,1.34007 -2.33641,1.80126c-0.78315,0.46989 -1.50539,0.77445 -2.16673,0.91368c-0.89628,0 -1.72294,-0.10007 -2.47999,-0.30021c-0.75705,-0.20014 -1.40968,-0.47424 -1.95789,-0.82231c-0.5395,-0.34807 -0.96154,-0.7614 -1.2661,-1.23999c-0.29586,-0.4786 -0.44379,-1.00504 -0.44379,-1.57936c0,-0.62652 0.15228,-1.41403 0.45684,-2.36251c0.31326,-0.94849 0.79186,-2.06666 1.43578,-3.35451c0.26976,0.0174 0.58302,0.08267 0.93979,0.19579c0.35677,0.11313 0.71354,0.248 1.07031,0.40463c0.35677,0.15663 0.67873,0.33066 0.96589,0.5221c0.29586,0.18274 0.50905,0.36547 0.63958,0.54821c-0.71354,0.73094 -1.2922,1.5402 -1.73599,2.42778c-0.44379,0.87887 -0.66568,1.64027 -0.66568,2.2842c0,0.37418 0.06961,0.71354 0.20884,1.0181c0.14793,0.30456 0.40028,0.57867 0.75705,0.82232c1.35747,-0.5134 2.68013,-1.46624 3.96798,-2.85851c1.29655,-1.39228 2.44518,-3.12391 3.44588,-5.19492c0.60042,-1.22694 1.14427,-2.63227 1.63158,-4.21598c0.496,-1.58371 0.91368,-3.17177 1.25305,-4.76419c0.34807,-1.59241 0.61782,-3.11522 0.80926,-4.5684c0.19144,-1.46189 0.28716,-2.69318 0.28716,-3.69387c0,-0.15663 -0.0087,-0.37418 -0.02611,-0.65263c-0.0087,-0.27845 -0.0174,-0.56561 -0.02611,-0.86147c-0.0087,-0.30456 -0.02611,-0.57867 -0.05221,-0.82231c-0.0174,-0.25235 -0.02611,-0.42203 -0.02611,-0.50905zM146.08698,188.20424c-1.27045,-0.13923 -2.2842,-0.69613 -3.04125,-1.67073c-0.75705,-0.98329 -1.13557,-2.23199 -1.13557,-3.74608c0,-0.89628 0.13488,-1.82301 0.40463,-2.78019c0.26976,-0.95719 0.64828,-1.88392 1.13558,-2.78019c0.48729,-0.90498 1.06596,-1.75775 1.736,-2.5583c0.67003,-0.80056 1.39663,-1.49235 2.17978,-2.07536c1.21824,-0.91368 2.36252,-1.37052 3.43283,-1.37052c0.71354,0.38287 1.41838,1.17473 2.11452,2.37557c0.10442,0 0.20014,-0.00435 0.28716,-0.01305c0.09572,-0.0174 0.20014,-0.02611 0.31326,-0.02611c1.17473,0 1.7621,1.04856 1.7621,3.14567c0,1.40097 -0.23059,2.73234 -0.69178,3.99409c-0.45249,1.26175 -1.08336,2.40603 -1.89262,3.43283c-0.80926,1.0181 -1.7795,1.87957 -2.91072,2.58441c-1.12252,0.69613 -2.35382,1.19213 -3.69387,1.48799zM147.79686,177.67082c-0.38287,0.5134 -0.73965,1.07031 -1.07031,1.67073c-0.33066,0.60042 -0.62217,1.20954 -0.87452,1.82736c-0.24365,0.60912 -0.43073,1.20084 -0.56126,1.77515c-0.13053,0.56561 -0.19578,1.07031 -0.19578,1.5141c0,0.53081 0.08702,1.04421 0.26105,1.5402c0.18274,0.48729 0.38287,0.76575 0.60042,0.83536c1.0007,-0.22624 1.91873,-0.64392 2.7541,-1.25305c0.83536,-0.61782 1.5576,-1.38357 2.16673,-2.29725c0.61782,-0.91368 1.10077,-1.94918 1.44884,-3.10651c0.34807,-1.15733 0.5221,-2.39297 0.5221,-3.70693c0,-0.58302 -0.03481,-1.03985 -0.10442,-1.37052c-0.06961,-0.33066 -0.18274,-0.61782 -0.33937,-0.86147c-0.9746,0.28716 -1.84911,0.7527 -2.62356,1.39663c-0.76575,0.64392 -1.42708,1.32266 -1.98399,2.0362zM165.97855,186.29856c-0.42639,-0.35677 -0.71354,-0.80056 -0.86147,-1.33136c-0.13923,-0.5395 -0.20884,-1.0007 -0.20884,-1.38357c0,-0.46119 0.05656,-0.86147 0.16969,-1.20084c-0.09572,0 -0.30021,0.17838 -0.61347,0.53516c-0.30456,0.35677 -0.64392,0.78315 -1.0181,1.27915c-0.36547,0.48729 -0.72659,0.96589 -1.08336,1.43578c-0.35677,0.46119 -0.62217,0.80491 -0.7962,1.03116c-0.29586,0.31326 -0.56996,0.55691 -0.82231,0.73094c-0.25235,0.18274 -0.45684,0.2828 -0.61347,0.30021c-0.35677,-0.0174 -0.73094,-0.09136 -1.12252,-0.22189c-0.39158,-0.12182 -0.7614,-0.29151 -1.10946,-0.50905c-0.33937,-0.22624 -0.63957,-0.49165 -0.90062,-0.7962c-0.25235,-0.31326 -0.42203,-0.67003 -0.50905,-1.07031c0,-0.62652 0.01306,-1.13992 0.03916,-1.5402c0.03481,-0.40028 0.10877,-0.83536 0.2219,-1.30526c0.20014,-0.84407 0.496,-1.80126 0.88758,-2.87157c0.39158,-1.07031 0.83972,-2.12322 1.34442,-3.15872c0.5134,-1.0355 1.08771,-2.00574 1.72294,-2.91072c0.63523,-0.90498 1.30961,-1.60981 2.02315,-2.11452c0.20014,0 0.43508,0.0174 0.70484,0.05221c0.26976,0.02611 0.54386,0.08702 0.82232,0.18274c0.27845,0.08702 0.54386,0.19144 0.79621,0.31326c0.26105,0.12182 0.4786,0.2828 0.65263,0.48295c-0.20014,0.22624 -0.70919,0.9746 -1.52715,2.24504c-0.80926,1.26175 -1.71424,3.08476 -2.71494,5.46903c-0.11313,0.24365 -0.24799,0.60042 -0.40463,1.07031c-0.15663,0.46989 -0.31326,0.96154 -0.46989,1.47495c-0.14793,0.5134 -0.2741,1.01375 -0.37852,1.50105c-0.09572,0.48729 -0.14357,0.87887 -0.14357,1.17473c0,0.17403 0.02611,0.30891 0.07832,0.40463c0.05221,0.08702 0.10007,0.15228 0.14358,0.19579c0.33937,-0.13923 0.76575,-0.50905 1.27915,-1.10946c0.5134,-0.60042 1.22694,-1.5228 2.14062,-2.76715c0.21755,-0.31326 0.47424,-0.67003 0.77011,-1.07031c0.30456,-0.40028 0.61348,-0.82666 0.92674,-1.27915c0.31326,-0.46119 0.60912,-0.93543 0.88758,-1.42273c0.27845,-0.496 0.5047,-0.98764 0.67873,-1.47494c0.09572,-0.26976 0.21319,-0.58736 0.35242,-0.95283c0.14793,-0.36547 0.32632,-0.74834 0.53516,-1.14863c0.21755,-0.40898 0.46554,-0.81796 0.744,-1.22694c0.27845,-0.40898 0.60477,-0.79186 0.97895,-1.14863c0.28716,0 0.59607,0.03481 0.92674,0.10442c0.33937,0.06091 0.65698,0.14358 0.95284,0.248c0.30456,0.09572 0.56996,0.20449 0.79621,0.32632c0.22624,0.12182 0.39158,0.25235 0.496,0.39158c-0.40028,0.9746 -0.84407,1.94484 -1.33136,2.91073c-0.48729,0.95719 -0.94414,1.89697 -1.37052,2.81936c-0.42639,0.92238 -0.78315,1.84042 -1.07031,2.7541c-0.28716,0.91368 -0.43073,1.80561 -0.43073,2.67578c0,0.46989 0.03916,0.87887 0.11748,1.22694c0.07832,0.33937 0.16098,0.62652 0.248,0.86147c0.08702,0.23495 0.16969,0.42639 0.248,0.57431c0.07832,0.15663 0.11748,0.29151 0.11748,0.40463c0,0.02611 -0.02175,0.06091 -0.06526,0.10442c-0.02611,0.02611 -0.04786,0.03916 -0.06526,0.03916c-0.15663,0 -0.35677,-0.03481 -0.60042,-0.10442c-0.24365,-0.06961 -0.51775,-0.16534 -0.82231,-0.28716c-0.30456,-0.12182 -0.60912,-0.26105 -0.91368,-0.41768c-0.29586,-0.15663 -0.57431,-0.32197 -0.83536,-0.496zM172.59146,186.36381c0.11313,-0.64392 0.30891,-1.4967 0.58737,-2.5583c0.27845,-1.06161 0.60477,-2.18848 0.97895,-3.38061c0.38287,-1.19213 0.78315,-2.38862 1.20084,-3.58945c0.42639,-1.20084 0.83972,-2.27985 1.24,-3.23704c0.28716,-0.68744 0.54386,-1.22694 0.77011,-1.61852c0.22624,-0.39158 0.46989,-0.72224 0.73094,-0.992c0.31326,0.04351 0.63523,0.12182 0.96589,0.23495c0.33937,0.11313 0.66569,0.248 0.97895,0.40463c0.31326,0.15663 0.59171,0.31761 0.83536,0.48295c0.24365,0.16534 0.43074,0.32632 0.56126,0.48295c-0.60042,0.71354 -1.13123,1.52716 -1.59241,2.44084c-0.45249,0.91368 -0.91368,2.08406 -1.38357,3.51115c-0.46989,1.42709 2.2755,-2.09276 3.19788,-3.06735c0.92238,-0.98329 1.78385,-2.07971 2.58441,-3.28925c0.13923,-0.10442 0.37418,-0.15663 0.70484,-0.15663c0.31326,0 0.61348,0.05221 0.90063,0.15663c0.28716,0.09572 0.48729,0.23059 0.60042,0.40463c-0.40028,1.07031 -0.60042,2.12757 -0.60042,3.17178c0,0.98329 0.14358,1.71859 0.43074,2.20589c-0.0174,0.13923 -0.16534,0.40028 -0.44379,0.78315c-0.27845,0.37418 -0.58302,0.72659 -0.91368,1.05726c-0.60912,-0.31326 -1.14863,-0.73965 -1.61852,-1.27915c-0.46119,-0.54821 -0.80491,-1.14427 -1.03115,-1.7882c-1.04421,0.73094 -1.93613,1.44884 -2.67577,2.15368c-0.73094,0.69613 -1.35747,1.47495 -1.87957,2.33641c-0.5221,0.85277 -0.97024,1.83606 -1.34441,2.94988c-0.36547,1.11382 -0.71354,2.44084 -1.04421,3.98104c-0.20014,-0.02611 -0.43944,-0.10007 -0.71789,-0.22189c-0.27845,-0.12182 -0.55691,-0.2741 -0.83536,-0.45684c-0.27845,-0.17403 -0.53081,-0.36112 -0.75705,-0.56126c-0.21755,-0.20014 -0.36112,-0.38722 -0.43073,-0.56126zM192.2706,170.81818c0.58302,0.18274 1.12687,0.58302 1.63158,1.20084c0.5134,0.60912 0.89628,1.27915 1.14863,2.0101c-0.25235,0.60042 -0.63523,1.32701 -1.14863,2.17978c-0.5047,0.84407 -1.01375,1.70554 -1.52715,2.58441c-0.5134,0.87887 -0.97894,1.71424 -1.39662,2.50609c-0.40898,0.79186 -0.73161,1.36116 -0.80122,1.87456c-0.06961,0.5134 0.83603,-0.73898 1.27112,-1.23498c0.43508,-0.5047 0.85712,-1.00504 1.2661,-1.50104c0.41768,-0.5047 0.80491,-0.96154 1.16168,-1.37052c0.35677,-0.41768 0.63523,-0.72659 0.83536,-0.92673c0.42639,-0.44379 0.92674,-0.96154 1.50105,-1.55325c0.58302,-0.59171 1.19213,-1.14863 1.82736,-1.67073c0.63523,-0.5221 1.2748,-0.96589 1.91873,-1.33136c0.64392,-0.37418 1.23565,-0.56126 1.77515,-0.56126c0.57431,0 1.05726,0.19579 1.44884,0.58737c0.39158,0.39158 0.69613,0.80056 0.91368,1.22694c0,0.04351 -0.08267,0.10442 -0.24799,0.18274c-0.16534,0.07832 -0.40463,0.29586 -0.71789,0.65263c-0.31326,0.40028 -0.66568,0.95284 -1.05725,1.65768c-0.38287,0.69613 -0.7614,1.45318 -1.13557,2.27115c-0.36547,0.80926 -0.67003,1.63592 -0.91368,2.47999c-0.24365,0.84407 -0.36547,1.61417 -0.36547,2.31031c0,0.55691 0.06961,0.91368 0.20884,1.07031c0.14793,0.15663 0.35677,0.23495 0.62652,0.23495c0.24365,0 0.496,-0.05656 0.75705,-0.16968c0.26976,-0.11313 0.48295,-0.16968 0.63958,-0.16968c0.09572,0.04351 0.16969,0.13923 0.2219,0.28716c0.05221,0.13923 0.07832,0.2654 0.07832,0.37853c-0.17403,0.15663 -0.38287,0.31326 -0.62652,0.46989c-0.24365,0.15663 -0.50035,0.30456 -0.7701,0.44379c-0.26976,0.13053 -0.53515,0.2393 -0.7962,0.32632c-0.25235,0.08702 -0.4786,0.13053 -0.67873,0.13053c-0.64392,0 -1.17473,-0.09572 -1.59241,-0.28716c-0.40898,-0.18274 -0.73094,-0.43073 -0.96589,-0.74399c-0.23495,-0.31326 -0.39593,-0.68744 -0.48294,-1.12252c-0.08702,-0.43508 -0.13053,-0.89628 -0.13053,-1.38357c0,-0.26976 0.02175,-0.56996 0.06527,-0.90062c0.04351,-0.33937 0.13053,-0.7353 0.26105,-1.18778c0.13923,-0.46119 0.33066,-1.0094 0.57431,-1.64462c0.24365,-0.63523 0.55691,-1.39662 0.93979,-2.2842c-0.04351,0 -0.34372,0.15663 -0.90062,0.46989c-0.55691,0.31326 -1.16167,0.79186 -1.8143,1.43578c-1.04421,1.0007 -1.98399,1.9927 -2.81936,2.97599c-0.83536,0.9746 -1.68813,2.06666 -2.5583,3.2762c-0.48729,0.68744 -0.91803,1.27045 -1.2922,1.74904c-0.37417,0.47859 -0.67873,0.79621 -0.93979,0.95284c-0.46989,-0.26976 -0.81796,-0.64392 -1.04421,-1.12252c-0.22625,-0.4786 -0.38287,-0.9746 -0.496,-1.48799c0,-0.41768 0.06091,-0.94849 0.18274,-1.59241c0.12182,-0.65263 0.28716,-1.37487 0.496,-2.16673c0.21755,-0.79186 0.4786,-1.61852 0.78315,-2.47999c0.31326,-0.87017 0.66133,-1.74034 1.04421,-2.61051c0.84407,-1.95789 1.61852,-3.49374 2.32336,-4.60755c0.70484,-1.11382 1.14427,-1.71859 1.31831,-1.8143c0,0 -0.58313,-0.18286 -0.00011,-0.00012zM216.86686,173.19377c-0.08702,1.38357 -0.33501,2.57136 -0.74399,3.56336c-0.40028,0.992 -0.9746,1.86217 -1.72294,2.61051c-0.73965,0.73965 -1.64462,1.40968 -2.71494,2.0101c-1.07031,0.60042 -2.31901,1.17908 -3.74608,1.736c0,0.13923 -0.00435,0.2828 -0.01305,0.43074c-0.0087,0.13923 -0.01305,0.28716 -0.01305,0.44379c0,0.28716 0.02175,0.58737 0.06527,0.90063c0.04351,0.31326 0.12182,0.60477 0.23495,0.87453c0.11313,0.26105 0.26976,0.4786 0.46989,0.65263c0.20014,0.16534 0.45249,0.248 0.75705,0.248c0.60912,0 1.20084,-0.13488 1.77515,-0.40463c0.58302,-0.26976 1.13558,-0.59607 1.65768,-0.97894c0.5221,-0.39158 1.0094,-0.81361 1.46189,-1.2661c0.46119,-0.46119 1.22694,-1.2661 1.22694,-1.2661c0,0 0.41333,0.39158 0.56126,0.57431c-1.0007,1.33136 -2.09712,2.44084 -3.28925,3.32841c-1.19213,0.87887 -2.32336,1.44014 -3.39367,1.68379c-1.5315,-0.18274 -2.72798,-0.74399 -3.58945,-1.68378c-0.85277,-0.94849 -1.27915,-2.09276 -1.27915,-3.43282c0,-0.91368 0.12617,-1.84041 0.37853,-2.78019c0.26105,-0.94849 0.61782,-1.86217 1.07031,-2.74104c0.46119,-0.88758 0.99635,-1.71859 1.60547,-2.49304c0.60912,-0.78315 1.2661,-1.46189 1.97094,-2.0362c0.70484,-0.58302 1.42708,-1.03985 2.16673,-1.37052c0.74834,-0.33937 1.49235,-0.50905 2.23199,-0.50905c1.0181,0.13923 1.97529,0.77445 2.87157,1.90568c0,0 0.08697,-1.38364 -0.00005,-0.00007zM214.55655,174.30323c-0.60042,0.08702 -1.22259,0.33066 -1.86651,0.73094c-0.64392,0.40028 -1.25305,0.93543 -1.82736,1.60547c-0.56561,0.67003 -1.08336,1.44884 -1.55325,2.33641c-0.46989,0.88758 -0.83536,1.84476 -1.09642,2.87157c1.78385,-0.88758 3.26314,-1.98399 4.43788,-3.28925c1.18344,-1.30526 1.81866,-2.72364 1.90568,-4.25514c0,0 0.6004,-0.08702 -0.00002,0zM230.96676,181.84763c-0.5134,1.62722 -1.02681,3.11086 -1.5402,4.45093c-0.5134,1.33136 -1.06161,2.5583 -1.64462,3.68083c-0.57431,1.13123 -1.19648,2.16673 -1.86651,3.10651c-0.66133,0.94849 -1.39662,1.84911 -2.20588,2.70189c-1.0181,1.07031 -2.07536,1.88828 -3.17177,2.45388c-1.08771,0.56561 -2.17978,0.84842 -3.27619,0.84842c-0.55691,0 -1.10946,-0.06091 -1.65767,-0.18274c-0.5395,-0.12182 -1.04856,-0.29151 -1.52715,-0.50905c-0.4786,-0.20884 -0.90062,-0.45249 -1.2661,-0.73094c-0.37418,-0.27845 -0.63957,-0.56996 -0.7962,-0.87452c0,-0.26976 0.15663,-0.5047 0.46989,-0.70484c0.26976,0.24365 0.496,0.43074 0.67873,0.56126c0.17403,0.13923 0.34372,0.25235 0.50905,0.33937c0.16534,0.08702 0.34372,0.13923 0.53516,0.15663c0.19144,0.02611 0.40898,0.03916 0.65263,0.03916c1.27045,0 2.51045,-0.37418 3.71999,-1.12252c1.21824,-0.73965 2.36686,-1.7969 3.44588,-3.17177c1.07902,-1.36617 2.06231,-3.02384 2.94988,-4.97303c0.89628,-1.94918 1.65768,-4.12897 2.2842,-6.53934c0.62652,-2.41037 -0.65698,1.0007 -1.08336,1.64462c-0.41768,0.64392 -0.88322,1.2835 -1.39662,1.91873c-0.5134,0.63523 -1.04421,1.20954 -1.59241,1.72294c-0.5395,0.5134 -1.06596,0.85712 -1.57936,1.03116c-0.35677,-0.0174 -0.73094,-0.09136 -1.12252,-0.22189c-0.38287,-0.12182 -0.74834,-0.29151 -1.09642,-0.50905c-0.34807,-0.22624 -0.65698,-0.49165 -0.92673,-0.7962c-0.26105,-0.31326 -0.43944,-0.67003 -0.53515,-1.07031c0,-0.65263 0.02175,-1.17038 0.06527,-1.55325c0.05221,-0.39158 0.13488,-0.82231 0.248,-1.2922c0.20014,-0.84407 0.49165,-1.80126 0.87453,-2.87157c0.39158,-1.07031 0.84842,-2.12322 1.37052,-3.15872c0.5221,-1.0355 1.10077,-2.00574 1.736,-2.91072c0.63523,-0.90498 1.30091,-1.60981 1.99705,-2.11452c0.17403,0 0.39593,0.0174 0.66569,0.05221c0.26976,0.02611 0.54821,0.08702 0.83536,0.18274c0.28716,0.08702 0.56561,0.19144 0.83536,0.31326c0.26976,0.12182 0.5047,0.2828 0.70484,0.48295c-0.24365,0.22624 -0.7788,0.9746 -1.60546,2.24504c-0.82666,1.26175 -1.74034,3.08476 -2.74104,5.46903c-0.11313,0.24365 -0.24799,0.60042 -0.40463,1.07031c-0.15663,0.46989 -0.30891,0.96154 -0.45684,1.47495c-0.13923,0.5134 -0.2654,1.01375 -0.37852,1.50105c-0.11313,0.48729 -0.16968,0.87887 -0.16968,1.17473c0,0.17403 0.02611,0.30891 0.07832,0.40463c0.06091,0.08702 0.11313,0.15228 0.15663,0.19579c0.40028,-0.06961 0.93543,-0.40028 1.60547,-0.992c0.67003,-0.59171 1.42708,-1.50975 2.27115,-2.75409c0.5395,-0.80056 1.03116,-1.59677 1.47495,-2.38862c0.44379,-0.79186 0.88322,-1.58806 1.31831,-2.38862c0.43508,-0.80056 0.88322,-1.62287 1.34442,-2.46693c0.46989,-0.85277 0.9746,-1.72294 1.5141,-2.61051c0.28716,0 0.59607,0.03481 0.92674,0.10442c0.33937,0.06091 0.66569,0.14358 0.97895,0.248c0.31326,0.09572 0.58302,0.20449 0.80926,0.32632c0.23495,0.12182 0.40898,0.25235 0.5221,0.39158c-0.68744,1.47059 -1.33136,2.90638 -1.93178,4.30735c-0.60042,1.40097 -1.13557,2.83676 -1.60546,4.30735z" fill="#e3edff" stroke="#e3edff" stroke-width="9" stroke-linecap="square"/><path d="M138.21215,162.33399c0.84407,0 1.72294,0.15663 2.63662,0.46989c0.91368,0.31326 1.71424,0.71354 2.40167,1.20084c-0.21755,1.13992 -0.42203,2.16673 -0.61347,3.08041c-0.19144,0.91368 -0.36547,1.74469 -0.5221,2.49305c-0.15663,0.73965 -0.30891,1.41838 -0.45684,2.0362c-0.13923,0.60912 -0.2741,1.17908 -0.40463,1.70989c-0.5395,2.0101 -1.09206,3.82441 -1.65767,5.44293c-0.56561,1.60981 -1.16603,3.06301 -1.80126,4.35956c-0.63523,1.28786 -1.30526,2.43213 -2.0101,3.43283c-0.70484,1.0007 -1.45754,1.87957 -2.25809,2.63662c-0.77445,0.73965 -1.55325,1.34007 -2.33641,1.80126c-0.78315,0.46989 -1.50539,0.77445 -2.16673,0.91368c-0.89628,0 -1.72294,-0.10007 -2.47999,-0.30021c-0.75705,-0.20014 -1.40968,-0.47424 -1.95789,-0.82231c-0.5395,-0.34807 -0.96154,-0.7614 -1.2661,-1.23999c-0.29586,-0.4786 -0.44379,-1.00504 -0.44379,-1.57936c0,-0.62652 0.15228,-1.41403 0.45684,-2.36251c0.31326,-0.94849 0.79186,-2.06666 1.43578,-3.35451c0.26976,0.0174 0.58302,0.08267 0.93979,0.19579c0.35677,0.11313 0.71354,0.248 1.07031,0.40463c0.35677,0.15663 0.67873,0.33066 0.96589,0.5221c0.29586,0.18274 0.50905,0.36547 0.63958,0.54821c-0.71354,0.73094 -1.2922,1.5402 -1.73599,2.42778c-0.44379,0.87887 -0.66568,1.64027 -0.66568,2.2842c0,0.37418 0.06961,0.71354 0.20884,1.0181c0.14793,0.30456 0.40028,0.57867 0.75705,0.82232c1.35747,-0.5134 2.68013,-1.46624 3.96798,-2.85851c1.29655,-1.39228 2.44518,-3.12391 3.44588,-5.19492c0.60042,-1.22694 1.14427,-2.63227 1.63158,-4.21598c0.496,-1.58371 0.91368,-3.17177 1.25305,-4.76419c0.34807,-1.59241 0.61782,-3.11522 0.80926,-4.5684c0.19144,-1.46189 0.28716,-2.69318 0.28716,-3.69387c0,-0.15663 -0.0087,-0.37418 -0.02611,-0.65263c-0.0087,-0.27845 -0.0174,-0.56561 -0.02611,-0.86147c-0.0087,-0.30456 -0.02611,-0.57867 -0.05221,-0.82231c-0.0174,-0.25235 -0.02611,-0.42203 -0.02611,-0.50905zM146.08698,188.20424c-1.27045,-0.13923 -2.2842,-0.69613 -3.04125,-1.67073c-0.75705,-0.98329 -1.13557,-2.23199 -1.13557,-3.74608c0,-0.89628 0.13488,-1.82301 0.40463,-2.78019c0.26976,-0.95719 0.64828,-1.88392 1.13558,-2.78019c0.48729,-0.90498 1.06596,-1.75775 1.736,-2.5583c0.67003,-0.80056 1.39663,-1.49235 2.17978,-2.07536c1.21824,-0.91368 2.36252,-1.37052 3.43283,-1.37052c0.71354,0.38287 1.41838,1.17473 2.11452,2.37557c0.10442,0 0.20014,-0.00435 0.28716,-0.01305c0.09572,-0.0174 0.20014,-0.02611 0.31326,-0.02611c1.17473,0 1.7621,1.04856 1.7621,3.14567c0,1.40097 -0.23059,2.73234 -0.69178,3.99409c-0.45249,1.26175 -1.08336,2.40603 -1.89262,3.43283c-0.80926,1.0181 -1.7795,1.87957 -2.91072,2.58441c-1.12252,0.69613 -2.35382,1.19213 -3.69387,1.48799zM147.79686,177.67082c-0.38287,0.5134 -0.73965,1.07031 -1.07031,1.67073c-0.33066,0.60042 -0.62217,1.20954 -0.87452,1.82736c-0.24365,0.60912 -0.43073,1.20084 -0.56126,1.77515c-0.13053,0.56561 -0.19578,1.07031 -0.19578,1.5141c0,0.53081 0.08702,1.04421 0.26105,1.5402c0.18274,0.48729 0.38287,0.76575 0.60042,0.83536c1.0007,-0.22624 1.91873,-0.64392 2.7541,-1.25305c0.83536,-0.61782 1.5576,-1.38357 2.16673,-2.29725c0.61782,-0.91368 1.10077,-1.94918 1.44884,-3.10651c0.34807,-1.15733 0.5221,-2.39297 0.5221,-3.70693c0,-0.58302 -0.03481,-1.03985 -0.10442,-1.37052c-0.06961,-0.33066 -0.18274,-0.61782 -0.33937,-0.86147c-0.9746,0.28716 -1.84911,0.7527 -2.62356,1.39663c-0.76575,0.64392 -1.42708,1.32266 -1.98399,2.0362zM165.97855,186.29856c-0.42639,-0.35677 -0.71354,-0.80056 -0.86147,-1.33136c-0.13923,-0.5395 -0.20884,-1.0007 -0.20884,-1.38357c0,-0.46119 0.05656,-0.86147 0.16969,-1.20084c-0.09572,0 -0.30021,0.17838 -0.61347,0.53516c-0.30456,0.35677 -0.64392,0.78315 -1.0181,1.27915c-0.36547,0.48729 -0.72659,0.96589 -1.08336,1.43578c-0.35677,0.46119 -0.62217,0.80491 -0.7962,1.03116c-0.29586,0.31326 -0.56996,0.55691 -0.82231,0.73094c-0.25235,0.18274 -0.45684,0.2828 -0.61347,0.30021c-0.35677,-0.0174 -0.73094,-0.09136 -1.12252,-0.22189c-0.39158,-0.12182 -0.7614,-0.29151 -1.10946,-0.50905c-0.33937,-0.22624 -0.63957,-0.49165 -0.90062,-0.7962c-0.25235,-0.31326 -0.42203,-0.67003 -0.50905,-1.07031c0,-0.62652 0.01306,-1.13992 0.03916,-1.5402c0.03481,-0.40028 0.10877,-0.83536 0.2219,-1.30526c0.20014,-0.84407 0.496,-1.80126 0.88758,-2.87157c0.39158,-1.07031 0.83972,-2.12322 1.34442,-3.15872c0.5134,-1.0355 1.08771,-2.00574 1.72294,-2.91072c0.63523,-0.90498 1.30961,-1.60981 2.02315,-2.11452c0.20014,0 0.43508,0.0174 0.70484,0.05221c0.26976,0.02611 0.54386,0.08702 0.82232,0.18274c0.27845,0.08702 0.54386,0.19144 0.79621,0.31326c0.26105,0.12182 0.4786,0.2828 0.65263,0.48295c-0.20014,0.22624 -0.70919,0.9746 -1.52715,2.24504c-0.80926,1.26175 -1.71424,3.08476 -2.71494,5.46903c-0.11313,0.24365 -0.24799,0.60042 -0.40463,1.07031c-0.15663,0.46989 -0.31326,0.96154 -0.46989,1.47495c-0.14793,0.5134 -0.2741,1.01375 -0.37852,1.50105c-0.09572,0.48729 -0.14357,0.87887 -0.14357,1.17473c0,0.17403 0.02611,0.30891 0.07832,0.40463c0.05221,0.08702 0.10007,0.15228 0.14358,0.19579c0.33937,-0.13923 0.76575,-0.50905 1.27915,-1.10946c0.5134,-0.60042 1.22694,-1.5228 2.14062,-2.76715c0.21755,-0.31326 0.47424,-0.67003 0.77011,-1.07031c0.30456,-0.40028 0.61348,-0.82666 0.92674,-1.27915c0.31326,-0.46119 0.60912,-0.93543 0.88758,-1.42273c0.27845,-0.496 0.5047,-0.98764 0.67873,-1.47494c0.09572,-0.26976 0.21319,-0.58736 0.35242,-0.95283c0.14793,-0.36547 0.32632,-0.74834 0.53516,-1.14863c0.21755,-0.40898 0.46554,-0.81796 0.744,-1.22694c0.27845,-0.40898 0.60477,-0.79186 0.97895,-1.14863c0.28716,0 0.59607,0.03481 0.92674,0.10442c0.33937,0.06091 0.65698,0.14358 0.95284,0.248c0.30456,0.09572 0.56996,0.20449 0.79621,0.32632c0.22624,0.12182 0.39158,0.25235 0.496,0.39158c-0.40028,0.9746 -0.84407,1.94484 -1.33136,2.91073c-0.48729,0.95719 -0.94414,1.89697 -1.37052,2.81936c-0.42639,0.92238 -0.78315,1.84042 -1.07031,2.7541c-0.28716,0.91368 -0.43073,1.80561 -0.43073,2.67578c0,0.46989 0.03916,0.87887 0.11748,1.22694c0.07832,0.33937 0.16098,0.62652 0.248,0.86147c0.08702,0.23495 0.16969,0.42639 0.248,0.57431c0.07832,0.15663 0.11748,0.29151 0.11748,0.40463c0,0.02611 -0.02175,0.06091 -0.06526,0.10442c-0.02611,0.02611 -0.04786,0.03916 -0.06526,0.03916c-0.15663,0 -0.35677,-0.03481 -0.60042,-0.10442c-0.24365,-0.06961 -0.51775,-0.16534 -0.82231,-0.28716c-0.30456,-0.12182 -0.60912,-0.26105 -0.91368,-0.41768c-0.29586,-0.15663 -0.57431,-0.32197 -0.83536,-0.496zM172.59146,186.36381c0.11313,-0.64392 0.30891,-1.4967 0.58737,-2.5583c0.27845,-1.06161 0.60477,-2.18848 0.97895,-3.38061c0.38287,-1.19213 0.78315,-2.38862 1.20084,-3.58945c0.42639,-1.20084 0.83972,-2.27985 1.24,-3.23704c0.28716,-0.68744 0.54386,-1.22694 0.77011,-1.61852c0.22624,-0.39158 0.46989,-0.72224 0.73094,-0.992c0.31326,0.04351 0.63523,0.12182 0.96589,0.23495c0.33937,0.11313 0.66569,0.248 0.97895,0.40463c0.31326,0.15663 0.59171,0.31761 0.83536,0.48295c0.24365,0.16534 0.43074,0.32632 0.56126,0.48295c-0.60042,0.71354 -1.13123,1.52716 -1.59241,2.44084c-0.45249,0.91368 -0.91368,2.08406 -1.38357,3.51115c1.20954,-1.07031 2.2755,-2.09276 3.19788,-3.06735c0.92238,-0.98329 1.78385,-2.07971 2.58441,-3.28925c0.13923,-0.10442 0.37418,-0.15663 0.70484,-0.15663c0.31326,0 0.61348,0.05221 0.90063,0.15663c0.28716,0.09572 0.48729,0.23059 0.60042,0.40463c-0.40028,1.07031 -0.60042,2.12757 -0.60042,3.17178c0,0.98329 0.14358,1.71859 0.43074,2.20589c-0.0174,0.13923 -0.16534,0.40028 -0.44379,0.78315c-0.27845,0.37418 -0.58302,0.72659 -0.91368,1.05726c-0.60912,-0.31326 -1.14863,-0.73965 -1.61852,-1.27915c-0.46119,-0.54821 -0.80491,-1.14427 -1.03115,-1.7882c-1.04421,0.73094 -1.93613,1.44884 -2.67577,2.15368c-0.73094,0.69613 -1.35747,1.47495 -1.87957,2.33641c-0.5221,0.85277 -0.97024,1.83606 -1.34441,2.94988c-0.36547,1.11382 -0.71354,2.44084 -1.04421,3.98104c-0.20014,-0.02611 -0.43944,-0.10007 -0.71789,-0.22189c-0.27845,-0.12182 -0.55691,-0.2741 -0.83536,-0.45684c-0.27845,-0.17403 -0.53081,-0.36112 -0.75705,-0.56126c-0.21755,-0.20014 -0.36112,-0.38722 -0.43073,-0.56126zM192.2706,170.81818c0.58302,0.18274 1.12687,0.58302 1.63158,1.20084c0.5134,0.60912 0.89628,1.27915 1.14863,2.0101c-0.25235,0.60042 -0.63523,1.32701 -1.14863,2.17978c-0.5047,0.84407 -1.01375,1.70554 -1.52715,2.58441c-0.5134,0.87887 -0.97894,1.71424 -1.39662,2.50609c-0.40898,0.79186 -0.64828,1.44449 -0.71789,1.95789c0.35677,-0.38287 0.7527,-0.82231 1.18779,-1.31831c0.43508,-0.5047 0.85712,-1.00504 1.2661,-1.50104c0.41768,-0.5047 0.80491,-0.96154 1.16168,-1.37052c0.35677,-0.41768 0.63523,-0.72659 0.83536,-0.92673c0.42639,-0.44379 0.92674,-0.96154 1.50105,-1.55325c0.58302,-0.59171 1.19213,-1.14863 1.82736,-1.67073c0.63523,-0.5221 1.2748,-0.96589 1.91873,-1.33136c0.64392,-0.37418 1.23565,-0.56126 1.77515,-0.56126c0.57431,0 1.05726,0.19579 1.44884,0.58737c0.39158,0.39158 0.69613,0.80056 0.91368,1.22694c0,0.04351 -0.08267,0.10442 -0.24799,0.18274c-0.16534,0.07832 -0.40463,0.29586 -0.71789,0.65263c-0.31326,0.40028 -0.66568,0.95284 -1.05725,1.65768c-0.38287,0.69613 -0.7614,1.45318 -1.13557,2.27115c-0.36547,0.80926 -0.67003,1.63592 -0.91368,2.47999c-0.24365,0.84407 -0.36547,1.61417 -0.36547,2.31031c0,0.55691 0.06961,0.91368 0.20884,1.07031c0.14793,0.15663 0.35677,0.23495 0.62652,0.23495c0.24365,0 0.496,-0.05656 0.75705,-0.16968c0.26976,-0.11313 0.48295,-0.16968 0.63958,-0.16968c0.09572,0.04351 0.16969,0.13923 0.2219,0.28716c0.05221,0.13923 0.07832,0.2654 0.07832,0.37853c-0.17403,0.15663 -0.38287,0.31326 -0.62652,0.46989c-0.24365,0.15663 -0.50035,0.30456 -0.7701,0.44379c-0.26976,0.13053 -0.53515,0.2393 -0.7962,0.32632c-0.25235,0.08702 -0.4786,0.13053 -0.67873,0.13053c-0.64392,0 -1.17473,-0.09572 -1.59241,-0.28716c-0.40898,-0.18274 -0.73094,-0.43073 -0.96589,-0.74399c-0.23495,-0.31326 -0.39593,-0.68744 -0.48294,-1.12252c-0.08702,-0.43508 -0.13053,-0.89628 -0.13053,-1.38357c0,-0.26976 0.02175,-0.56996 0.06527,-0.90062c0.04351,-0.33937 0.13053,-0.7353 0.26105,-1.18778c0.13923,-0.46119 0.33066,-1.0094 0.57431,-1.64462c0.24365,-0.63523 0.55691,-1.39662 0.93979,-2.2842c-0.04351,0 -0.34372,0.15663 -0.90062,0.46989c-0.55691,0.31326 -1.16167,0.79186 -1.8143,1.43578c-1.04421,1.0007 -1.98399,1.9927 -2.81936,2.97599c-0.83536,0.9746 -1.68813,2.06666 -2.5583,3.2762c-0.48729,0.68744 -0.91803,1.27045 -1.2922,1.74904c-0.36547,0.4786 -0.67873,0.79621 -0.93979,0.95284c-0.46989,-0.26976 -0.81796,-0.64392 -1.04421,-1.12252c-0.21755,-0.4786 -0.38287,-0.9746 -0.496,-1.48799c0,-0.41768 0.06091,-0.94849 0.18274,-1.59241c0.12182,-0.65263 0.28716,-1.37487 0.496,-2.16673c0.21755,-0.79186 0.4786,-1.61852 0.78315,-2.47999c0.31326,-0.87017 0.66133,-1.74034 1.04421,-2.61051c0.84407,-1.95789 1.61852,-3.49374 2.32336,-4.60755c0.70484,-1.11382 1.14427,-1.71859 1.31831,-1.8143zM216.86686,173.19377c-0.08702,1.38357 -0.33501,2.57136 -0.74399,3.56336c-0.40028,0.992 -0.9746,1.86217 -1.72294,2.61051c-0.73965,0.73965 -1.64462,1.40968 -2.71494,2.0101c-1.07031,0.60042 -2.31901,1.17908 -3.74608,1.736c0,0.13923 -0.00435,0.2828 -0.01305,0.43074c-0.0087,0.13923 -0.01305,0.28716 -0.01305,0.44379c0,0.28716 0.02175,0.58737 0.06527,0.90063c0.04351,0.31326 0.12182,0.60477 0.23495,0.87453c0.11313,0.26105 0.26976,0.4786 0.46989,0.65263c0.20014,0.16534 0.45249,0.248 0.75705,0.248c0.60912,0 1.20084,-0.13488 1.77515,-0.40463c0.58302,-0.26976 1.13558,-0.59607 1.65768,-0.97894c0.5221,-0.39158 1.0094,-0.81361 1.46189,-1.2661c0.46119,-0.46119 0.87017,-0.88322 1.22694,-1.2661c0.22624,0.20014 0.41333,0.39158 0.56126,0.57431c-1.0007,1.33136 -2.09712,2.44084 -3.28925,3.32841c-1.19213,0.87887 -2.32336,1.44014 -3.39367,1.68379c-1.5315,-0.18274 -2.72798,-0.74399 -3.58945,-1.68378c-0.85277,-0.94849 -1.27915,-2.09276 -1.27915,-3.43282c0,-0.91368 0.12617,-1.84041 0.37853,-2.78019c0.26105,-0.94849 0.61782,-1.86217 1.07031,-2.74104c0.46119,-0.88758 0.99635,-1.71859 1.60547,-2.49304c0.60912,-0.78315 1.2661,-1.46189 1.97094,-2.0362c0.70484,-0.58302 1.42708,-1.03985 2.16673,-1.37052c0.74834,-0.33937 1.49235,-0.50905 2.23199,-0.50905c1.0181,0.13923 1.97529,0.77445 2.87157,1.90568zM214.55655,174.30323c-0.60042,0.08702 -1.22259,0.33066 -1.86651,0.73094c-0.64392,0.40028 -1.25305,0.93543 -1.82736,1.60547c-0.56561,0.67003 -1.08336,1.44884 -1.55325,2.33641c-0.46989,0.88758 -0.83536,1.84476 -1.09642,2.87157c1.78385,-0.88758 3.26314,-1.98399 4.43788,-3.28925c1.18344,-1.30526 1.81866,-2.72364 1.90568,-4.25514zM230.96676,181.84763c-0.5134,1.62722 -1.02681,3.11086 -1.5402,4.45093c-0.5134,1.33136 -1.06161,2.5583 -1.64462,3.68083c-0.57431,1.13123 -1.19648,2.16673 -1.86651,3.10651c-0.66133,0.94849 -1.39662,1.84911 -2.20588,2.70189c-1.0181,1.07031 -2.07536,1.88828 -3.17177,2.45388c-1.08771,0.56561 -2.17978,0.84842 -3.27619,0.84842c-0.55691,0 -1.10946,-0.06091 -1.65767,-0.18274c-0.5395,-0.12182 -1.04856,-0.29151 -1.52715,-0.50905c-0.4786,-0.20884 -0.90062,-0.45249 -1.2661,-0.73094c-0.37418,-0.27845 -0.63957,-0.56996 -0.7962,-0.87452c0,-0.26976 0.15663,-0.5047 0.46989,-0.70484c0.26976,0.24365 0.496,0.43074 0.67873,0.56126c0.17403,0.13923 0.34372,0.25235 0.50905,0.33937c0.16534,0.08702 0.34372,0.13923 0.53516,0.15663c0.19144,0.02611 0.40898,0.03916 0.65263,0.03916c1.27045,0 2.51045,-0.37418 3.71999,-1.12252c1.21824,-0.73965 2.36686,-1.7969 3.44588,-3.17177c1.07902,-1.36617 2.06231,-3.02384 2.94988,-4.97303c0.89628,-1.94918 1.65768,-4.12897 2.2842,-6.53934c-0.29586,0.45249 -0.65698,1.0007 -1.08336,1.64462c-0.41768,0.64392 -0.88322,1.2835 -1.39662,1.91873c-0.5134,0.63523 -1.04421,1.20954 -1.59241,1.72294c-0.5395,0.5134 -1.06596,0.85712 -1.57936,1.03116c-0.35677,-0.0174 -0.73094,-0.09136 -1.12252,-0.22189c-0.38287,-0.12182 -0.74834,-0.29151 -1.09642,-0.50905c-0.34807,-0.22624 -0.65698,-0.49165 -0.92673,-0.7962c-0.26105,-0.31326 -0.43944,-0.67003 -0.53515,-1.07031c0,-0.65263 0.02175,-1.17038 0.06527,-1.55325c0.05221,-0.39158 0.13488,-0.82231 0.248,-1.2922c0.20014,-0.84407 0.49165,-1.80126 0.87453,-2.87157c0.39158,-1.07031 0.84842,-2.12322 1.37052,-3.15872c0.5221,-1.0355 1.10077,-2.00574 1.736,-2.91072c0.63523,-0.90498 1.30091,-1.60981 1.99705,-2.11452c0.17403,0 0.39593,0.0174 0.66569,0.05221c0.26976,0.02611 0.54821,0.08702 0.83536,0.18274c0.28716,0.08702 0.56561,0.19144 0.83536,0.31326c0.26976,0.12182 0.5047,0.2828 0.70484,0.48295c-0.24365,0.22624 -0.7788,0.9746 -1.60546,2.24504c-0.82666,1.26175 -1.74034,3.08476 -2.74104,5.46903c-0.11313,0.24365 -0.24799,0.60042 -0.40463,1.07031c-0.15663,0.46989 -0.30891,0.96154 -0.45684,1.47495c-0.13923,0.5134 -0.2654,1.01375 -0.37852,1.50105c-0.11313,0.48729 -0.16968,0.87887 -0.16968,1.17473c0,0.17403 0.02611,0.30891 0.07832,0.40463c0.06091,0.08702 0.11313,0.15228 0.15663,0.19579c0.40028,-0.06961 0.93543,-0.40028 1.60547,-0.992c0.67003,-0.59171 1.42708,-1.50975 2.27115,-2.75409c0.5395,-0.80056 1.03116,-1.59677 1.47495,-2.38862c0.44379,-0.79186 0.88322,-1.58806 1.31831,-2.38862c0.43508,-0.80056 0.88322,-1.62287 1.34442,-2.46693c0.46989,-0.85277 0.9746,-1.72294 1.5141,-2.61051c0.28716,0 0.59607,0.03481 0.92674,0.10442c0.33937,0.06091 0.66569,0.14358 0.97895,0.248c0.31326,0.09572 0.58302,0.20449 0.80926,0.32632c0.23495,0.12182 0.40898,0.25235 0.5221,0.39158c-0.68744,1.47059 -1.33136,2.90638 -1.93178,4.30735c-0.60042,1.40097 -1.13557,2.83676 -1.60546,4.30735z" fill="#ce6552" stroke="none" stroke-width="1" stroke-linecap="square"/></g></g></svg>