<svg version="1.1" xmlns="http://www.w3.org/2000/svg" xmlns:xlink="http://www.w3.org/1999/xlink" width="20.02877" height="37.16676" viewBox="0,0,20.02877,37.16676"><defs><radialGradient cx="239.97272" cy="154.81698" r="10.01438" gradientUnits="userSpaceOnUse" id="color-1"><stop offset="0" stop-color="#000000" stop-opacity="0.50196"/><stop offset="1" stop-color="#000000" stop-opacity="0"/></radialGradient><radialGradient cx="240" cy="154.50893" r="7.16667" gradientUnits="userSpaceOnUse" id="color-2"><stop offset="0" stop-color="#3c9e65"/><stop offset="1" stop-color="#328052"/></radialGradient></defs><g transform="translate(-229.95834,-144.84217)"><g data-paper-data="{&quot;isPaintingLayer&quot;:true}" fill-rule="nonzero" stroke="none" stroke-width="0" stroke-linecap="butt" stroke-linejoin="miter" stroke-miterlimit="10" stroke-dasharray="" stroke-dashoffset="0" style="mix-blend-mode: normal"><path d="M238.5,182.00893v-26.33333h3v26.33333z" fill="#ccc1b7"/><path d="M249.98711,154.81698c0,5.50894 -4.48359,9.97481 -10.01438,9.97481c-5.53079,0 -10.01439,-4.46587 -10.01439,-9.97481c0,-5.50894 4.4836,-9.97481 10.01439,-9.97481c5.53079,0 10.01438,4.46587 10.01438,9.97481z" fill="url(#color-1)"/><path d="M232.83333,154.50893c0,-3.95804 3.20863,-7.16667 7.16667,-7.16667c3.95804,0 7.16667,3.20863 7.16667,7.16667c0,3.95804 -3.20863,7.16667 -7.16667,7.16667c-3.95804,0 -7.16667,-3.20863 -7.16667,-7.16667z" fill="url(#color-2)"/></g></g></svg>