<svg version="1.1" xmlns="http://www.w3.org/2000/svg" xmlns:xlink="http://www.w3.org/1999/xlink" width="488" height="37" viewBox="0,0,488,37"><g transform="translate(3.5,2.88353)"><g data-paper-data="{&quot;isPaintingLayer&quot;:true}" fill-rule="nonzero" stroke-linejoin="miter" stroke-miterlimit="10" stroke-dasharray="" stroke-dashoffset="0" style="mix-blend-mode: normal"><path d="M-3.5,34.11647v-37h488v37z" fill-opacity="0.06667" fill="#000000" stroke="none" stroke-width="0" stroke-linecap="butt"/><path d="M366.57722,20.79298v5.07399h-12.93917v-0.89717l1.25604,-0.01994v-15.26184l-1.25604,-0.02991v-0.8872h8.27389v0.8872l-2.78122,0.02991v15.212c2.12662,-0.75096 4.25989,-1.68801 6.3998,-2.81113l0.04984,-1.27597zM373.19074,14.0044c1.49528,0 2.67157,0.54163 3.52886,1.62487c0.86394,1.0766 1.28594,2.53201 1.26601,4.36622l-7.04776,0.22928c0.11962,1.0035 0.46852,1.77108 1.0467,2.30273c0.57818,0.52501 1.34575,0.78751 2.30273,0.78751c1.32249,0 2.40242,-0.36551 3.23978,-1.09654l0.45855,0.40871c-0.59811,1.13641 -1.40224,2.02361 -2.41239,2.6616c-1.01015,0.63799 -2.08675,0.95698 -3.22981,0.95698c-1.54845,0 -2.7779,-0.51172 -3.68836,-1.53516c-0.91046,-1.03008 -1.36569,-2.42236 -1.36569,-4.17682c0,-1.03673 0.20934,-2.06349 0.62802,-3.08028c0.41868,-1.02344 0.95034,-1.87741 1.59497,-2.56192c0.44526,-0.25254 1.01679,-0.46188 1.71459,-0.62802c0.6978,-0.17279 1.3524,-0.25918 1.9638,-0.25918zM374.20753,19.15814c-0.01329,-1.18958 -0.18276,-2.13327 -0.5084,-2.83107c-0.32564,-0.6978 -0.78419,-1.11648 -1.37566,-1.25604c-0.42532,0.44526 -0.7709,1.06331 -1.03673,1.85415c-0.26583,0.79084 -0.39874,1.60161 -0.39874,2.43232v0.07975zM390.33623,14.38321v0.81742l-0.73767,0.01994l-4.51575,10.49688l-2.58185,0.14953l-4.02729,-10.6464l-0.74764,-0.01994v-0.81742h6.05091v0.81742l-1.06663,0.01994l2.21302,7.86518l2.09339,-7.86518l-1.06663,-0.01994v-0.81742zM396.54102,14.0044c1.49528,0 2.67157,0.54163 3.52886,1.62487c0.86394,1.0766 1.28594,2.53201 1.26601,4.36622l-7.04776,0.22928c0.11962,1.0035 0.46852,1.77108 1.0467,2.30273c0.57818,0.52501 1.34575,0.78751 2.30273,0.78751c1.32249,0 2.40242,-0.36551 3.23978,-1.09654l0.45855,0.40871c-0.59811,1.13641 -1.40224,2.02361 -2.41239,2.6616c-1.01015,0.63799 -2.08675,0.95698 -3.22981,0.95698c-1.54845,0 -2.7779,-0.51172 -3.68836,-1.53516c-0.91046,-1.03008 -1.36569,-2.42236 -1.36569,-4.17682c0,-1.03673 0.20934,-2.06349 0.62802,-3.08028c0.41868,-1.02344 0.95034,-1.87741 1.59497,-2.56192c0.44526,-0.25254 1.01679,-0.46188 1.71459,-0.62802c0.6978,-0.17279 1.3524,-0.25918 1.9638,-0.25918zM397.55782,19.15814c-0.01329,-1.18958 -0.18276,-2.13327 -0.5084,-2.83107c-0.32564,-0.6978 -0.78419,-1.11648 -1.37566,-1.25604c-0.42532,0.44526 -0.7709,1.06331 -1.03673,1.85415c-0.26583,0.79084 -0.39874,1.60161 -0.39874,2.43232v0.07975zM402.15888,25.1293l0.93704,-0.07975l-0.11962,-15.28178l-0.97692,0.19937l-0.24921,-0.73767l4.71512,-1.4255l0.35887,0.60808l-0.12959,16.6375l0.94701,0.07975v0.73767h-5.4827z" fill="#ffece6" stroke="none" stroke-width="1" stroke-linecap="square"/><path d="M434,18.50752h10" fill="none" stroke="#ffece6" stroke-width="1" stroke-linecap="round"/><path d="M424.89591,22.04674l-0.02991,2.89088l1.45541,0.06978v0.89717h-6.33003v-0.89717l1.45541,-0.06978v-2.89088l-8.6527,0.02991l8.50317,-12.66005l3.69833,-0.93704l-0.07975,9.68942h3.77808l-1.27597,3.87776zM421.4468,18.16897v-5.81166l-4.72509,5.81166z" fill="#ffece6" stroke="none" stroke-width="1" stroke-linecap="square"/><path d="M30.8178,25.2253v0.8744h-6.88832v-0.8744l1.34076,-0.01943l-1.16587,-12.75651l-4.80919,10.86198h-0.76753l-5.14923,-10.93971l-0.46635,12.83423l1.34076,0.01943v0.8744h-5.45042v-0.8744l0.97155,-0.01943l2.39003,-14.87449l-1.36988,-0.02915v-0.86467h5.72246l4.0028,8.1319l3.45873,-8.1319h5.14923v0.86469l-1.32131,0.02915l2.04026,14.8745zM41.51303,24.80753l-3.66276,1.71966c-0.44692,-0.31737 -0.75133,-0.75133 -0.91326,-1.30188c-0.60236,0.3692 -1.20472,0.66713 -1.80709,0.89383c-0.60236,0.23318 -1.13024,0.34975 -1.58364,0.34975c-0.67361,0 -1.2274,-0.23965 -1.66135,-0.71895c-0.43396,-0.47929 -0.65094,-1.09138 -0.65094,-1.83623c0,-0.33032 0.03562,-0.68979 0.10687,-1.07842c0.07773,-0.3951 0.17487,-0.70923 0.29147,-0.9424l5.27555,-0.84524l0.04858,-0.71895c0.03238,-0.74486 -0.12629,-1.32779 -0.47606,-1.74879c-0.34328,-0.42748 -0.90678,-0.64122 -1.69051,-0.64122c-0.34328,0 -0.706,0.03885 -1.08815,0.11658c-0.38215,0.07124 -0.70599,0.16517 -0.97155,0.28176l-0.39833,0.84525l-0.67036,-0.24288l1.14643,-3.58504c1.27597,-0.54407 2.48394,-0.81611 3.6239,-0.81611c1.17881,0 2.14065,0.3109 2.88552,0.93268c0.75133,0.62179 1.127,1.59335 1.127,2.91466l-0.02915,0.5052l-0.25261,3.35186l-0.04857,0.89383c0,0.29794 0.0259,0.53436 0.07771,0.70923c0.05181,0.17488 0.13602,0.353 0.25261,0.53436l0.76753,-0.29147zM35.86831,24.68121c0.26556,0 0.56998,-0.10039 0.91326,-0.30118l-0.01943,-0.51492l0.01943,-0.55378l0.07773,-1.41847l-1.91396,0.44691c-0.06478,0.22021 -0.09716,0.51169 -0.09716,0.8744c0,0.49874 0.09717,0.86792 0.29147,1.10758c0.20078,0.23965 0.44366,0.35947 0.72867,0.35947zM49.51554,24.71038c0.93268,0.06478 1.72613,0.25584 2.38031,0.57321c0.65418,0.3109 1.16263,0.72543 1.52534,1.24359c-0.31089,0.93918 -0.81287,1.86539 -1.50591,2.77864c-0.68657,0.91325 -1.51563,1.6646 -2.48717,2.25401c-0.96508,0.58941 -2.00463,0.88412 -3.11868,0.88412c-1.0752,0 -1.94311,-0.27204 -2.60376,-0.81611c-0.65418,-0.53759 -0.98126,-1.22092 -0.98126,-2.04998c0,-0.69304 0.17487,-1.48001 0.52464,-2.36088c-0.59588,-0.27852 -1.09138,-0.78371 -1.48647,-1.51561l2.50662,-2.80779c-0.62827,-0.34975 -1.12053,-0.81934 -1.47676,-1.40874c-0.35623,-0.58941 -0.53435,-1.24683 -0.53435,-1.97225c0,-0.68009 0.13927,-1.35046 0.41778,-2.01112c0.28498,-0.66714 0.64122,-1.23387 1.06872,-1.70021c0.41453,-0.34975 0.97478,-0.64771 1.68078,-0.89383c0.706,-0.24613 1.44762,-0.3692 2.22486,-0.3692c0.5635,0 1.05253,0.05829 1.46706,0.17488l2.06941,-3.50731c0.33033,-0.07124 0.67685,-0.10687 1.03957,-0.10687c0.69952,0 1.37313,0.1425 2.02083,0.42748l-1.73908,3.23528c-0.53112,-0.22021 -1.05575,-0.33032 -1.57392,-0.33032c-0.16192,0 -0.37567,0.01619 -0.64122,0.04858l-0.3789,0.5052c0.74486,0.33032 1.33427,0.80963 1.76823,1.4379c0.43396,0.62827 0.65094,1.35694 0.65094,2.186c0,0.64771 -0.14574,1.29218 -0.4372,1.9334c-0.29147,0.63474 -0.64447,1.2112 -1.05899,1.72936c-0.41453,0.36272 -0.97478,0.6639 -1.68078,0.90355c-0.706,0.23965 -1.4379,0.35947 -2.19571,0.35947c-0.7319,0 -1.40551,-0.11659 -2.02083,-0.34975l-0.57321,0.69952c0.10364,0.14897 0.32062,0.28176 0.65094,0.39834c0.33033,0.11659 0.72867,0.1846 1.19502,0.20403zM49.04918,19.532c0,-1.02985 -0.26556,-1.833 -0.79668,-2.40945c-0.53112,-0.58293 -1.27921,-0.93918 -2.24429,-1.06872c-0.31089,0.91325 -0.46634,1.75852 -0.46634,2.53576c0,0.99098 0.26556,1.77795 0.79668,2.36088c0.53112,0.58293 1.2857,0.93917 2.26372,1.0687c0.29795,-0.77724 0.44691,-1.6063 0.44691,-2.48717zM47.67929,29.83046c0.49874,0 0.98776,-0.05506 1.46706,-0.16517c0.47929,-0.10364 0.88412,-0.22993 1.21444,-0.3789c0.33681,-0.14897 0.53759,-0.28174 0.60236,-0.39833c-0.10364,-0.23318 -0.40158,-0.46311 -0.89383,-0.6898c-0.48579,-0.22021 -1.16586,-0.35625 -2.04026,-0.40806l-2.75921,-0.14574c-0.31737,-0.01943 -0.69951,-0.06154 -1.14643,-0.12629c0.0842,0.66066 0.44366,1.2112 1.07842,1.65165c0.64122,0.44044 1.46705,0.66066 2.47747,0.66066zM55.26712,9.661l3.17698,-0.71895v2.82722l-3.17698,0.47606zM58.69669,25.30302l0.92298,0.07773v0.71895h-5.35326v-0.71895l0.92298,-0.07773l-0.07773,-8.85085l-0.9424,0.19431l-0.25261,-0.71895l4.50802,-1.38932l0.34977,0.59265zM67.38005,23.61252c1.02336,0 2.02407,-0.37243 3.00211,-1.11728l0.39834,0.44692c-0.60884,1.06222 -1.37637,1.91719 -2.30259,2.5649c-0.91975,0.64122 -1.90748,0.96184 -2.96324,0.96184c-1.4962,0 -2.68797,-0.49872 -3.57532,-1.4962c-0.88735,-1.00394 -1.33102,-2.36087 -1.33102,-4.07081c0,-1.01041 0.20726,-2.01112 0.62179,-3.00211c0.41453,-0.99747 0.94563,-1.82975 1.59334,-2.49689c0.5635,-0.27852 1.15291,-0.49227 1.76823,-0.64124c0.61532,-0.14897 1.20474,-0.22345 1.76823,-0.22345c0.97803,0 1.84595,0.26556 2.60376,0.79668c0.76429,0.52464 1.37961,1.2954 1.84596,2.3123l-2.85637,1.66135c-0.26556,-0.74486 -0.62503,-1.49943 -1.07842,-2.26372c-0.44692,-0.76429 -0.83554,-1.28568 -1.16586,-1.56419c-0.42748,0.41453 -0.79668,1.01689 -1.10757,1.80709c-0.30442,0.78373 -0.45663,1.59011 -0.45663,2.41918c0,1.27597 0.28176,2.24753 0.84525,2.91466c0.5635,0.66066 1.36018,0.99099 2.39003,0.99099zM81.25811,24.80753l-3.66275,1.71966c-0.44692,-0.31737 -0.75133,-0.75133 -0.91326,-1.30188c-0.60236,0.3692 -1.20474,0.66713 -1.8071,0.89383c-0.60236,0.23318 -1.13023,0.34975 -1.58362,0.34975c-0.67361,0 -1.2274,-0.23965 -1.66136,-0.71895c-0.43396,-0.47929 -0.65094,-1.09138 -0.65094,-1.83623c0,-0.33032 0.03562,-0.68979 0.10687,-1.07842c0.07773,-0.3951 0.17488,-0.70923 0.29147,-0.9424l5.27553,-0.84524l0.04858,-0.71895c0.03238,-0.74486 -0.1263,-1.32779 -0.47606,-1.74879c-0.34328,-0.42748 -0.90678,-0.64122 -1.69051,-0.64122c-0.34328,0 -0.706,0.03885 -1.08814,0.11658c-0.38215,0.07124 -0.706,0.16517 -0.97156,0.28176l-0.39833,0.84525l-0.67037,-0.24288l1.14644,-3.58504c1.27597,-0.54407 2.48394,-0.81611 3.6239,-0.81611c1.17881,0 2.14065,0.3109 2.88552,0.93268c0.75133,0.62179 1.12701,1.59335 1.12701,2.91466l-0.02915,0.5052l-0.25261,3.35186l-0.04857,0.89383c0,0.29794 0.02591,0.53436 0.07773,0.70923c0.05181,0.17488 0.13601,0.353 0.2526,0.53436l0.76753,-0.29147zM75.61338,24.68121c0.26556,0 0.56998,-0.10039 0.91326,-0.30118l-0.01943,-0.51492l0.01943,-0.55378l0.07773,-1.41847l-1.91396,0.44691c-0.06478,0.22021 -0.09715,0.51169 -0.09715,0.8744c0,0.49874 0.09716,0.86792 0.29147,1.10758c0.20078,0.23965 0.44366,0.35947 0.72867,0.35947zM81.68442,25.38074l0.91326,-0.07773l-0.11659,-14.89392l-0.95213,0.19431l-0.24288,-0.71895l4.59545,-1.38931l0.34975,0.59265l-0.12629,16.21523l0.92298,0.07773v0.71895h-5.34356zM106.23093,9.43755v4.81891l-0.97156,-0.01943l-0.04858,-1.24359c-1.70994,-1.23064 -3.1284,-2.13417 -4.25541,-2.71063v14.92306l1.96254,0.01943v0.8744h-8.05418v-0.8744l1.96254,-0.01943v-14.92306c-1.12701,0.57646 -2.54547,1.48 -4.2554,2.71063l-0.04858,1.24359l-0.97155,0.01943v-4.81891zM116.92423,24.80753l-3.66276,1.71966c-0.44692,-0.31737 -0.75133,-0.75133 -0.91326,-1.30188c-0.60236,0.3692 -1.20472,0.66713 -1.80709,0.89383c-0.60236,0.23318 -1.13024,0.34975 -1.58362,0.34975c-0.67361,0 -1.2274,-0.23965 -1.66136,-0.71895c-0.43396,-0.47929 -0.65093,-1.09138 -0.65093,-1.83623c0,-0.33032 0.03562,-0.68979 0.10687,-1.07842c0.07773,-0.3951 0.17488,-0.70923 0.29147,-0.9424l5.27553,-0.84524l0.04859,-0.71895c0.03238,-0.74486 -0.1263,-1.32779 -0.47606,-1.74879c-0.34328,-0.42748 -0.90678,-0.64122 -1.69051,-0.64122c-0.34328,0 -0.706,0.03885 -1.08814,0.11658c-0.38214,0.07124 -0.706,0.16517 -0.97156,0.28176l-0.39833,0.84525l-0.67036,-0.24288l1.14643,-3.58504c1.27597,-0.54407 2.48394,-0.81611 3.6239,-0.81611c1.17882,0 2.14065,0.3109 2.88552,0.93268c0.75133,0.62179 1.12701,1.59335 1.12701,2.91466l-0.02915,0.5052l-0.2526,3.35186l-0.04858,0.89383c0,0.29794 0.02591,0.53436 0.07773,0.70923c0.05181,0.17488 0.13602,0.353 0.25261,0.53436l0.76754,-0.29147zM111.2795,24.68121c0.26556,0 0.56998,-0.10039 0.91325,-0.30118l-0.01943,-0.51492l0.01943,-0.55378l0.07773,-1.41847l-1.91396,0.44691c-0.06478,0.22021 -0.09716,0.51169 -0.09716,0.8744c0,0.49874 0.09716,0.86792 0.29147,1.10758c0.2008,0.23965 0.44368,0.35947 0.72867,0.35947zM118.86419,9.661l3.17699,-0.71895v2.82722l-3.17698,0.47606zM122.29379,25.30302l0.92298,0.07773v0.71895h-5.35326v-0.71895l0.92298,-0.07773l-0.07773,-8.85085l-0.9424,0.19431l-0.2526,-0.71895l4.508,-1.38932l0.34975,0.59265zM131.66695,24.71038c0.93268,0.06478 1.72613,0.25584 2.3803,0.57321c0.65418,0.3109 1.16263,0.72543 1.52534,1.24359c-0.3109,0.93918 -0.81287,1.86539 -1.50591,2.77864c-0.68657,0.91325 -1.51563,1.6646 -2.48717,2.25401c-0.96508,0.58941 -2.00463,0.88412 -3.11868,0.88412c-1.0752,0 -1.94311,-0.27204 -2.60376,-0.81611c-0.65418,-0.53759 -0.98127,-1.22092 -0.98127,-2.04998c0,-0.69304 0.17488,-1.48001 0.52464,-2.36088c-0.59589,-0.27852 -1.09138,-0.78371 -1.48648,-1.51561l2.50662,-2.80779c-0.62827,-0.34975 -1.12052,-0.81934 -1.47676,-1.40874c-0.35625,-0.58941 -0.53435,-1.24683 -0.53435,-1.97225c0,-0.68009 0.13925,-1.35046 0.41778,-2.01112c0.28499,-0.66714 0.64122,-1.23387 1.06872,-1.70021c0.41453,-0.34975 0.97478,-0.64771 1.68078,-0.89383c0.706,-0.24613 1.44762,-0.3692 2.22486,-0.3692c0.5635,0 1.05253,0.05829 1.46706,0.17488l2.06941,-3.50731c0.33032,-0.07124 0.67685,-0.10687 1.03957,-0.10687c0.69952,0 1.37313,0.1425 2.02083,0.42748l-1.73909,3.23528c-0.53112,-0.22021 -1.05575,-0.33032 -1.57391,-0.33032c-0.16192,0 -0.37567,0.01619 -0.64122,0.04858l-0.37891,0.5052c0.74486,0.33032 1.33427,0.80963 1.76823,1.4379c0.43396,0.62827 0.65094,1.35694 0.65094,2.186c0,0.64771 -0.14574,1.29218 -0.4372,1.9334c-0.29147,0.63474 -0.64447,1.2112 -1.05899,1.72936c-0.41453,0.36272 -0.97478,0.6639 -1.68078,0.90355c-0.706,0.23965 -1.4379,0.35947 -2.19571,0.35947c-0.7319,0 -1.40552,-0.11659 -2.02083,-0.34975l-0.57321,0.69952c0.10364,0.14897 0.32062,0.28176 0.65095,0.39834c0.33032,0.11659 0.72867,0.1846 1.19501,0.20403zM131.2006,19.532c0,-1.02985 -0.26556,-1.833 -0.79668,-2.40945c-0.53112,-0.58293 -1.2792,-0.93918 -2.24428,-1.06872c-0.3109,0.91325 -0.46634,1.75852 -0.46634,2.53576c0,0.99098 0.26556,1.77795 0.79668,2.36088c0.53112,0.58293 1.28568,0.93917 2.26372,1.0687c0.29794,-0.77724 0.44692,-1.6063 0.44692,-2.48717zM129.83071,29.83046c0.49874,0 0.98776,-0.05506 1.46705,-0.16517c0.47929,-0.10364 0.88412,-0.22993 1.21445,-0.3789c0.33681,-0.14897 0.53759,-0.28174 0.60236,-0.39833c-0.10364,-0.23318 -0.40157,-0.46311 -0.89382,-0.6898c-0.48577,-0.22021 -1.16586,-0.35625 -2.04026,-0.40806l-2.75922,-0.14574c-0.31737,-0.01943 -0.69951,-0.06154 -1.14643,-0.12629c0.0842,0.66066 0.44366,1.2112 1.07842,1.65165c0.64122,0.44044 1.46706,0.66066 2.47747,0.66066zM146.12366,24.80753l-3.66275,1.71966c-0.44692,-0.31737 -0.75133,-0.75133 -0.91326,-1.30188c-0.60236,0.3692 -1.20472,0.66713 -1.80709,0.89383c-0.60236,0.23318 -1.13024,0.34975 -1.58364,0.34975c-0.67361,0 -1.2274,-0.23965 -1.66135,-0.71895c-0.43396,-0.47929 -0.65094,-1.09138 -0.65094,-1.83623c0,-0.33032 0.03563,-0.68979 0.10687,-1.07842c0.07773,-0.3951 0.17488,-0.70923 0.29147,-0.9424l5.27553,-0.84524l0.04858,-0.71895c0.03238,-0.74486 -0.12629,-1.32779 -0.47606,-1.74879c-0.34328,-0.42748 -0.90678,-0.64122 -1.69051,-0.64122c-0.34328,0 -0.706,0.03885 -1.08814,0.11658c-0.38214,0.07124 -0.706,0.16517 -0.97156,0.28176l-0.39833,0.84525l-0.67037,-0.24288l1.14643,-3.58504c1.27597,-0.54407 2.48394,-0.81611 3.6239,-0.81611c1.17882,0 2.14067,0.3109 2.88553,0.93268c0.75133,0.62179 1.127,1.59335 1.127,2.91466l-0.02914,0.5052l-0.25261,3.35186l-0.04858,0.89383c0,0.29794 0.02591,0.53436 0.07773,0.70923c0.05181,0.17488 0.13602,0.353 0.25261,0.53436l0.76753,-0.29147zM140.47894,24.68121c0.26556,0 0.56998,-0.10039 0.91325,-0.30118l-0.01943,-0.51492l0.01943,-0.55378l0.07773,-1.41847l-1.91396,0.44691c-0.06478,0.22021 -0.09716,0.51169 -0.09716,0.8744c0,0.49874 0.09716,0.86792 0.29147,1.10758c0.2008,0.23965 0.44368,0.35947 0.72867,0.35947z" fill="#f1f6ff" stroke="none" stroke-width="1" stroke-linecap="square"/><path d="M164.21299,28.97773v-4.77378h5.195v4.77378z" data-paper-data="{&quot;index&quot;:null}" fill="#f1f6ff" stroke="none" stroke-width="0" stroke-linecap="butt"/><path d="M159.28155,22.90603c0.67061,-0.92498 2.65662,-3.66431 2.65662,-3.66431c0,0 -1.09235,-0.02432 -1.63233,-0.03634c-0.65935,-0.01468 -0.97039,-0.75159 -0.54152,-1.25263c0.8603,-1.00507 3.73291,-4.36106 3.73291,-4.36106c0,0 -1.17571,0.01431 -1.68593,0.02052c-0.6047,0.00736 -0.54588,-0.71868 -0.15583,-1.18083c1.17911,-1.39706 3.05496,-3.62321 3.73299,-4.44798c0.65334,-0.79473 1.71136,-0.66344 2.37024,0.12669c0.68675,0.82356 2.40252,2.88112 3.55388,4.26183c0.46016,0.55183 0.26489,1.33872 -0.45359,1.3314c-0.46613,-0.00475 -1.34483,-0.01371 -1.34483,-0.01371c0,0 3.16361,3.52055 4.10185,4.56465c0.45614,0.50761 0.05967,1.24315 -0.62278,1.24176c-0.52065,-0.00106 -1.5075,-0.00306 -1.5075,-0.00306c0,0 1.82762,2.39482 2.49998,3.27584c0.46134,0.60452 0.3961,1.49794 -0.36434,1.49794c-1.90088,0 -10.14559,0 -13.69322,0c-1.00507,0 -0.64661,-1.36073 -0.64661,-1.36073z" data-paper-data="{&quot;index&quot;:null}" fill="#f1f6ff" stroke="none" stroke-width="0" stroke-linecap="butt"/></g></g></svg>