<svg version="1.1" xmlns="http://www.w3.org/2000/svg" xmlns:xlink="http://www.w3.org/1999/xlink" width="122.82384" height="48.20344" viewBox="0,0,122.82384,48.20344"><g transform="translate(-44.89676,-22.86217)"><g data-paper-data="{&quot;isPaintingLayer&quot;:true}" fill-rule="nonzero" stroke="none" stroke-linejoin="miter" stroke-miterlimit="10" stroke-dasharray="" stroke-dashoffset="0" style="mix-blend-mode: normal"><path d="M44.89676,71.06561v-48.20344h122.82384v48.20344z" fill-opacity="0.06667" fill="#000000" stroke-width="0" stroke-linecap="butt"/><path d="M59.16842,62.8221v4.25008h-10.83811v-0.75149l1.05208,-0.0167v-12.78364l-1.05208,-0.02505v-0.74313h10.41227v4.14153l-0.83499,-0.0167l-0.04174,-1.06878c-1.58091,-0.98529 -3.22583,-1.81191 -4.93476,-2.47991l0.04175,5.9451h3.99123v0.78489h-3.99123l0.04175,6.41269c1.82027,-0.69582 3.57931,-1.55029 5.27711,-2.5634l0.04175,-1.06878zM76.16106,66.45429v0.61789h-4.57572v-0.61789l0.79324,-0.0668v-4.50892c0,-0.62902 -0.16142,-1.1161 -0.48429,-1.46123c-0.3173,-0.3507 -0.76262,-0.53439 -1.33598,-0.55109l-0.78489,0.79324v0.36739v5.36061l0.76819,0.0668v0.61789h-4.57573v-0.61789l0.79324,-0.0668v-4.50892c0,-0.62902 -0.16142,-1.11331 -0.48429,-1.45288c-0.3173,-0.34512 -0.76262,-0.52326 -1.33598,-0.53439l-0.70139,0.70139l-0.09185,5.7948l0.79324,0.0668v0.61789h-4.59242v-0.61789l0.79324,-0.0668l-0.06679,-7.64847l-0.80994,0.19205l-0.2171,-0.64293l3.37334,-1.05209l0.75149,2.39641l1.77852,-2.5467c1.09661,0 1.94552,0.22266 2.54671,0.66799c0.60676,0.43976 0.99642,1.12445 1.16898,2.05407l1.90377,-2.73875c1.30814,0 2.27116,0.32008 2.88905,0.96024c0.62346,0.64016 0.93518,1.63936 0.93518,2.9976v5.36061zM81.74442,57.13584c1.25248,0 2.23776,0.45368 2.95585,1.36103c0.72366,0.90178 1.07713,2.12087 1.06044,3.65724l-5.90335,0.19205c0.1002,0.84055 0.39245,1.48349 0.87673,1.92882c0.48429,0.43976 1.12724,0.65964 1.92882,0.65964c1.10775,0 2.01232,-0.30616 2.71371,-0.91848l0.38409,0.34235c-0.50099,0.95189 -1.17455,1.69503 -2.02067,2.22942c-0.84611,0.53439 -1.74791,0.80158 -2.70535,0.80158c-1.29701,0 -2.32683,-0.42862 -3.08945,-1.28588c-0.76262,-0.86282 -1.14393,-2.02902 -1.14393,-3.49859c0,-0.86838 0.17535,-1.72842 0.52604,-2.5801c0.3507,-0.85726 0.79602,-1.57256 1.33598,-2.14591c0.37296,-0.21153 0.85169,-0.38688 1.43618,-0.52604c0.58449,-0.14473 1.13279,-0.2171 1.64493,-0.2171zM82.59611,61.45272c-0.01113,-0.99642 -0.15308,-1.78687 -0.42584,-2.37136c-0.27276,-0.58449 -0.65685,-0.93518 -1.15228,-1.05208c-0.35626,0.37296 -0.64572,0.89066 -0.86839,1.55308c-0.22267,0.66242 -0.33399,1.34154 -0.33399,2.03736v0.0668zM90.29434,60.38394l-0.09184,6.00355l1.90376,0.0668v0.61789h-5.70295v-0.61789l0.79324,-0.0668l-0.0668,-7.64847l-0.80993,0.19205l-0.2171,-0.64293l3.37335,-1.05209l0.72644,2.28787c0.47316,-0.95189 0.98807,-1.69224 1.54472,-2.22107c0.31172,-0.11133 0.68748,-0.16699 1.12724,-0.16699c0.60119,0 1.16619,0.10576 1.69502,0.3173l-0.68469,2.7805c-0.41192,-0.08907 -0.94075,-0.16699 -1.58647,-0.23379c-0.64016,-0.07236 -1.1662,-0.12247 -1.57812,-0.1503zM102.86353,65.96165l-3.14789,1.47793c-0.3841,-0.27276 -0.64573,-0.64572 -0.78489,-1.11888c-0.51769,0.3173 -1.03539,0.57336 -1.55308,0.76819c-0.51769,0.20039 -0.97136,0.30059 -1.36102,0.30059c-0.57892,0 -1.05487,-0.20596 -1.42782,-0.61789c-0.37296,-0.41192 -0.55944,-0.93797 -0.55944,-1.57812c0,-0.2839 0.03062,-0.59284 0.09185,-0.92683c0.0668,-0.33956 0.15029,-0.60954 0.2505,-0.80993l4.53398,-0.72644l0.04175,-0.61789c0.02783,-0.64016 -0.10855,-1.14115 -0.40914,-1.50297c-0.29503,-0.36739 -0.77932,-0.55109 -1.45288,-0.55109c-0.29503,0 -0.60676,0.0334 -0.93519,0.1002c-0.32843,0.06123 -0.60675,0.14194 -0.83498,0.24214l-0.34234,0.72644l-0.57614,-0.20874l0.98529,-3.0811c1.09661,-0.46759 2.13478,-0.70138 3.1145,-0.70138c1.01311,0 1.83975,0.26719 2.47991,0.80158c0.64572,0.53439 0.96858,1.36938 0.96858,2.50496l-0.02504,0.43419l-0.2171,2.88071l-0.04174,0.76818c0,0.25607 0.02227,0.45925 0.0668,0.60954c0.04453,0.15029 0.11689,0.30338 0.21709,0.45925l0.65964,-0.2505zM98.01226,65.8531c0.22823,0 0.48987,-0.08628 0.78489,-0.25884l-0.0167,-0.44254l0.0167,-0.47594l0.06679,-1.21908l-1.64492,0.3841c-0.05567,0.18927 -0.0835,0.43976 -0.0835,0.75149c0,0.42863 0.0835,0.74592 0.2505,0.95189c0.17257,0.20596 0.3813,0.30894 0.62624,0.30894zM103.22991,66.45429l0.78489,-0.0668l-0.1002,-12.80033l-0.81828,0.167l-0.20875,-0.61789l3.94948,-1.19403l0.3006,0.50934l-0.10855,13.93591l0.79324,0.0668v0.61789h-4.59242zM119.10567,65.59426l-3.12285,1.69502c-0.3841,-0.22823 -0.6652,-0.5316 -0.84333,-0.91013c-0.17813,-0.37852 -0.28111,-0.86839 -0.30894,-1.46958l-2.11251,2.47991c-0.82942,0 -1.56142,-0.18648 -2.19601,-0.55944c-0.63459,-0.37852 -1.13002,-0.89901 -1.48628,-1.56143c-0.35626,-0.66242 -0.53439,-1.4139 -0.53439,-2.25446c0,-0.72922 0.11968,-1.50019 0.35905,-2.31291c0.24493,-0.81272 0.53996,-1.44731 0.88509,-1.90377c0.2672,-0.3841 0.75706,-0.75706 1.46958,-1.11888c0.71252,-0.36183 1.31093,-0.54274 1.79522,-0.54274c0.42863,0 1.01311,0.06959 1.75347,0.20875l-0.04174,-3.75744l-0.80993,0.167l-0.21709,-0.61789l3.95783,-1.19403l0.30059,0.50934l-0.1336,11.07191c0,0.51212 0.02783,0.89344 0.0835,1.14393c0.06123,0.2505 0.16421,0.46759 0.30894,0.65129l0.63459,-0.30059zM111.58245,61.72827c0,0.65686 0.10576,1.22744 0.31729,1.71173c0.21709,0.48429 0.49821,0.85447 0.84334,1.11053c0.35069,0.25607 0.72644,0.38409 1.12723,0.38409l0.96024,-0.96023l-0.04174,-4.31688c-0.92406,-0.44532 -1.8147,-0.74592 -2.67196,-0.90178c-0.35626,0.81272 -0.53439,1.80357 -0.53439,2.97255zM136.87015,53.52036v12.78364l1.04373,0.0167v0.75149h-5.63615v-0.75149l1.04374,-0.0167v-5.9451h-4.78447v5.9451l1.04373,0.0167v0.75149h-5.6445v-0.75149l1.05208,-0.0167v-12.78364l-1.05208,-0.02505v-0.74313h5.6445v0.74314l-1.04373,0.02505v6.0453h4.78447v-6.0453l-1.04373,-0.02505v-0.74313h5.63615v0.74314zM139.24483,52.94422l2.73041,-0.61789v2.42981l-2.7304,0.40914zM142.19233,66.38749l0.79324,0.0668v0.61789h-4.60077v-0.61789l0.79324,-0.0668l-0.0668,-7.60672l-0.80993,0.167l-0.2171,-0.61789l3.87433,-1.19403l0.30059,0.50934zM143.8436,66.45429l0.78488,-0.0668l-0.10019,-12.80033l-0.81829,0.167l-0.20874,-0.61789l3.94949,-1.19403l0.30059,0.50934l-0.10854,13.93591l0.79324,0.0668v0.61789h-4.59242zM149.12337,66.45429l0.78489,-0.0668l-0.1002,-12.80033l-0.81829,0.167l-0.20875,-0.61789l3.94949,-1.19403l0.30059,0.50934l-0.10854,13.93591l0.79324,0.0668v0.61789h-4.59242zM157.5594,59.05631c0,0.3841 0.15308,0.73479 0.45925,1.05208c0.30617,0.31172 0.77375,0.68191 1.40277,1.11053c0.76819,0.52326 1.35267,0.9992 1.75347,1.42783c0.4008,0.42863 0.60119,0.95746 0.60119,1.58648c0,0.55109 -0.16422,1.06878 -0.49264,1.55307c-0.32842,0.48429 -0.79324,0.87396 -1.39443,1.16898c-0.59562,0.28947 -1.28031,0.43419 -2.05406,0.43419c-0.74036,0 -1.44175,-0.17813 -2.10417,-0.53439c-0.66242,-0.35626 -1.1495,-0.80993 -1.46122,-1.36102l1.83697,-1.47792c0.57336,1.06878 1.15785,1.94552 1.75347,2.63021c0.24493,-0.1837 0.44811,-0.40079 0.60954,-0.65129c0.16143,-0.2505 0.24215,-0.49821 0.24215,-0.74313c0,-0.39523 -0.14751,-0.73757 -0.44254,-1.02703c-0.28947,-0.29503 -0.74036,-0.64851 -1.35268,-1.06043c-0.49543,-0.32843 -0.89343,-0.61232 -1.19403,-0.85169c-0.30059,-0.24492 -0.55388,-0.53718 -0.75984,-0.87673c-0.20596,-0.34512 -0.30894,-0.732 -0.30894,-1.16063c0,-0.52883 0.17257,-1.03539 0.51769,-1.51968c0.35069,-0.48429 0.84055,-0.87395 1.46957,-1.16898c0.62902,-0.30059 1.34155,-0.45089 2.13757,-0.45089c0.61232,0 1.19125,0.13082 1.73677,0.39245c0.55109,0.26163 0.9992,0.59284 1.34433,0.99363l-1.66997,1.64493c-0.68469,-0.86838 -1.43896,-1.64491 -2.26281,-2.3296c-0.24493,0.31172 -0.36739,0.71809 -0.36739,1.21908zM156.85801,67.07218h0.0167z" fill="#f1f6ff" stroke-width="1" stroke-linecap="square"/><path d="M47.8281,39.84196c0,-0.99642 0.11689,-1.97613 0.35069,-2.93915c0.23379,-0.96302 0.56501,-1.87315 0.99364,-2.7304c0.42863,-0.86282 0.93797,-1.65327 1.52803,-2.37136c0.59006,-0.72365 1.23856,-1.34711 1.94552,-1.87037c0.70695,-0.52882 1.45844,-0.93797 2.25446,-1.22743c0.79602,-0.29502 1.61431,-0.44254 2.45486,-0.44254c0.98528,0 1.75068,0.20596 2.29621,0.61789c0.55109,0.41192 0.82664,0.98807 0.82664,1.72842c0,0.28947 -0.03897,0.58449 -0.1169,0.88509c-0.07793,0.29502 -0.19204,0.59006 -0.34234,0.88509c-0.1503,0.28947 -0.32565,0.57058 -0.52604,0.84334c-0.2004,0.26719 -0.42028,0.50099 -0.65963,0.70139c-0.37296,-0.05567 -0.69582,-0.22267 -0.96859,-0.50099c-0.2672,-0.27832 -0.43698,-0.60398 -0.50934,-0.97693c0.50099,-0.41192 0.89621,-0.84055 1.18568,-1.28588c0.29503,-0.45089 0.44254,-0.86282 0.44254,-1.23577c0,-0.62346 -0.39244,-0.93518 -1.17732,-0.93518c-0.32842,0 -0.66799,0.06679 -1.01869,0.20039c-0.34512,0.1336 -0.69582,0.32287 -1.05208,0.56779c-0.35626,0.23936 -0.70417,0.53161 -1.04373,0.87674c-0.334,0.33956 -0.64294,0.71808 -0.92683,1.13558c-1.9817,2.85009 -2.97255,5.76419 -2.97255,8.74231c0,1.05208 0.16421,1.89819 0.49264,2.53835c0.32842,0.64016 0.76262,1.01869 1.30258,1.13558c0.61232,-0.14473 1.38886,-0.53718 2.32961,-1.17733c0.94076,-0.64016 1.96778,-1.47236 3.0811,-2.4966c0.14473,0.13916 0.23102,0.28668 0.25885,0.44254c-0.41192,0.54552 -0.84055,1.06878 -1.28588,1.56977c-0.43976,0.49543 -0.87673,0.9491 -1.31092,1.36103c-0.43419,0.41192 -0.86282,0.77376 -1.28588,1.08548c-0.41749,0.3173 -0.80437,0.56223 -1.16063,0.73479c-1.77017,-0.02783 -3.11172,-0.53439 -4.02463,-1.51968c-0.90735,-0.98529 -1.36102,-2.43259 -1.36102,-4.34193zM59.62543,43.6662c0,-0.49543 0.0501,-1.07991 0.1503,-1.75347c0.1002,-0.67912 0.24493,-1.40278 0.43419,-2.17096c0.19483,-0.77375 0.42307,-1.58091 0.68469,-2.42146c0.26162,-0.84055 0.55666,-1.6811 0.88509,-2.52166c0.28947,-0.75706 0.62068,-1.51968 0.99363,-2.28786c0.37853,-0.76819 0.78768,-1.52246 1.22744,-2.26281c0.44533,-0.74035 0.90457,-1.44452 1.37773,-2.11252c0.47872,-0.67355 0.96024,-1.28866 1.44452,-1.84531c0.22823,0 0.47317,0.03062 0.73479,0.09185c0.2672,0.05567 0.52604,0.13081 0.77654,0.22545c0.2505,0.08907 0.47872,0.19762 0.68469,0.32565c0.20596,0.12803 0.37297,0.25606 0.501,0.38409c-1.06878,1.09661 -2.0318,2.20436 -2.88906,3.32324c-0.85168,1.11888 -1.52802,2.17096 -2.02901,3.15625c-0.2672,0.53996 -0.51213,1.04651 -0.73479,1.51968c-0.22267,0.46759 -0.42584,0.9324 -0.60953,1.39443c-0.1837,0.46203 -0.3507,0.92684 -0.50099,1.39443c-0.1503,0.46203 -0.28946,0.9491 -0.41749,1.46123c2.73318,-3.49024 4.7622,-5.23536 6.08705,-5.23536c0.37296,0 0.77375,0.12247 1.20238,0.3674c0.42863,0.23936 0.80716,0.565 1.13558,0.97693c-0.44533,0.48429 -0.90457,1.06878 -1.37772,1.75347c-0.46759,0.68469 -0.899,1.37216 -1.29422,2.06242c-0.38966,0.69026 -0.70974,1.33319 -0.96023,1.92882c-0.24493,0.59006 -0.36739,1.02704 -0.36739,1.31093c0,0.13916 0.01948,0.2338 0.05845,0.2839c0.04453,0.0501 0.13917,0.07515 0.2839,0.07515c0.21153,0 0.3813,-0.02783 0.50934,-0.0835c0.12803,-0.05567 0.20597,-0.08349 0.2338,-0.08349c0.07236,0.11133 0.11411,0.18926 0.12525,0.23379c0.0167,0.04453 0.02505,0.08071 0.02505,0.10855c0,0.05567 -0.08628,0.13639 -0.25884,0.24215c-0.16699,0.10576 -0.37018,0.21431 -0.60954,0.32564c-0.23379,0.10576 -0.46481,0.2004 -0.69304,0.2839c-0.22823,0.08907 -0.39801,0.1336 -0.50934,0.1336c-0.14473,0 -0.28946,-0.04175 -0.43419,-0.12525c-0.13916,-0.07793 -0.26163,-0.18091 -0.36739,-0.30894c-0.10577,-0.12803 -0.19205,-0.26998 -0.25885,-0.42584c-0.06123,-0.15587 -0.09184,-0.32008 -0.09184,-0.49264c0,-0.21153 0.05845,-0.52604 0.17535,-0.94353c0.12246,-0.42306 0.28946,-0.9157 0.50099,-1.47792c0.21709,-0.56222 0.47595,-1.17733 0.77654,-1.84532c0.30059,-0.67355 0.62068,-1.35825 0.96024,-2.05407c0,-0.06123 -0.02783,-0.09184 -0.0835,-0.09184c-0.04453,0 -0.15587,0.05845 -0.334,0.17535c-0.17813,0.11133 -0.34512,0.22545 -0.50099,0.34235c-0.51213,0.3841 -1.02981,0.85726 -1.55307,1.41948c-0.51769,0.56222 -1.02425,1.18011 -1.51968,1.85367c-0.48986,0.66799 -0.95188,1.37773 -1.38608,2.12922c-0.43419,0.74592 -0.80715,1.49463 -1.11888,2.24612c-0.04453,0.1002 -0.11133,0.19205 -0.2004,0.27555c-0.0835,0.08907 -0.15308,0.1336 -0.20874,0.1336c-0.04453,0 -0.10577,-0.0501 -0.1837,-0.1503c-0.07793,-0.1002 -0.1503,-0.22545 -0.2171,-0.37574c-0.06123,-0.15029 -0.11969,-0.30338 -0.17534,-0.45924c-0.05567,-0.15587 -0.0835,-0.29224 -0.0835,-0.40914zM78.07458,35.39984c0.13916,0 0.30338,0.02505 0.49265,0.07515c0.19483,0.0501 0.37018,0.11411 0.52604,0.19205c0.16143,0.07793 0.29503,0.16143 0.40079,0.2505c0.10577,0.0835 0.15865,0.15865 0.15865,0.22545c-0.28389,0.60119 -0.54831,1.20516 -0.79323,1.81192c-0.23937,0.60119 -0.44532,1.18012 -0.61789,1.73677c-0.17257,0.55666 -0.30616,1.07713 -0.40079,1.56142c-0.08907,0.48429 -0.1336,0.90457 -0.1336,1.26083c0,0.40079 0.04175,0.73479 0.12525,1.00199c0.08907,0.26163 0.23379,0.4481 0.43419,0.55944c-0.17257,0.1169 -0.39523,0.20875 -0.66799,0.27555c-0.2672,0.07236 -0.50934,0.10855 -0.72643,0.10855c-0.76819,0 -1.15228,-0.52604 -1.15228,-1.57812c0,-0.81272 0.26998,-1.92604 0.80994,-3.33994c-0.28389,0.65686 -0.61233,1.27475 -0.98529,1.85367c-0.36739,0.57892 -0.74313,1.08826 -1.12723,1.52802c-0.3841,0.43976 -0.77375,0.7988 -1.16898,1.07713c-0.38966,0.27832 -0.74871,0.44533 -1.07713,0.501c-0.52882,-0.02783 -0.95745,-0.27833 -1.28588,-0.75149c-0.32842,-0.47872 -0.49264,-1.08827 -0.49264,-1.82862c0,-0.80158 0.16978,-1.64214 0.50935,-2.52166c0.34512,-0.88509 0.78489,-1.70616 1.31928,-2.46321c0.53439,-0.75706 1.11609,-1.38607 1.74512,-1.88706c0.62902,-0.50656 1.23578,-0.77376 1.82027,-0.80159c0.13916,0.03897 0.29781,0.12247 0.47595,0.2505c0.17813,0.12803 0.34791,0.27833 0.50934,0.4509c0.16699,0.17256 0.30616,0.34791 0.41749,0.52604c0.1169,0.17813 0.1837,0.33121 0.2004,0.45925c-0.57336,0.0835 -1.16341,0.36182 -1.77017,0.83498c-0.60119,0.46759 -1.1495,1.0326 -1.64492,1.69503c-0.48986,0.66242 -0.89343,1.37216 -1.21072,2.12921c-0.31173,0.75706 -0.4676,1.46123 -0.4676,2.11252c0,0.27276 0.1002,0.44533 0.30059,0.5177c0.41192,-0.08907 0.88787,-0.44254 1.42783,-1.06043c0.54552,-0.61789 1.20238,-1.57534 1.97056,-2.87235c0.14473,-0.25607 0.30617,-0.53996 0.4843,-0.85169c0.17813,-0.3173 0.35904,-0.64571 0.54274,-0.98528c0.1837,-0.34512 0.36461,-0.69026 0.54275,-1.03539c0.17813,-0.3507 0.34791,-0.69025 0.50934,-1.01868zM79.17843,51.10592c-0.19483,-0.05567 -0.30894,-0.26719 -0.34234,-0.63459c-0.05567,-0.18927 -0.09463,-0.41192 -0.1169,-0.66799c-0.0167,-0.25607 -0.02504,-0.54831 -0.02504,-0.87673c0,-0.30059 0.04732,-0.70973 0.14195,-1.22742c0.1002,-0.51769 0.23936,-1.10497 0.41749,-1.76182c0.17813,-0.65686 0.39523,-1.36659 0.65129,-2.12921c0.26162,-0.76262 0.54831,-1.53638 0.86004,-2.32126c0.3841,-0.97971 0.71809,-1.82862 1.00198,-2.54671c0.28389,-0.72366 0.52326,-1.34711 0.71809,-1.87037c0.19483,-0.52883 0.35069,-0.96301 0.46759,-1.30258c0.12246,-0.34512 0.21989,-0.64016 0.29225,-0.88508c0.05567,-0.16699 0.13916,-0.37018 0.2505,-0.60954c0.1169,-0.24492 0.2505,-0.49264 0.4008,-0.74313c0.1503,-0.2505 0.30338,-0.48429 0.45924,-0.70139c0.15587,-0.22267 0.29781,-0.39244 0.42585,-0.50934c0.50099,0.07236 0.97137,0.2004 1.41113,0.3841c0.43976,0.1837 0.70974,0.36182 0.80993,0.53439c-0.19483,0.1837 -0.42306,0.47316 -0.68469,0.86839c-0.25606,0.38966 -0.50657,0.81829 -0.75149,1.28588c-0.23937,0.46203 -0.45924,0.93519 -0.65963,1.41948c-0.19483,0.48429 -0.34234,0.91013 -0.44254,1.27753c0.13916,-0.23936 0.32286,-0.50099 0.55109,-0.78488c0.22823,-0.28947 0.57893,-0.68191 1.05209,-1.17733c0.52326,-0.53996 1.01589,-0.95467 1.47792,-1.24412c0.46759,-0.29503 0.87117,-0.44254 1.21073,-0.44254c0.54552,0 0.99085,0.1503 1.33598,0.45089c0.35069,0.29503 0.52605,0.67912 0.52605,1.15228c0,1.02425 -0.17257,2.04015 -0.51769,3.0477c-0.33956,1.00198 -0.82942,1.90933 -1.46958,2.72205c-0.24493,0.31172 -0.53161,0.60954 -0.86003,0.89344c-0.32286,0.2839 -0.66242,0.53717 -1.01869,0.75984c-0.35626,0.22267 -0.70695,0.39801 -1.05208,0.52605c-0.33956,0.12803 -0.64572,0.19205 -0.91848,0.19205c-0.25606,0 -0.4815,-0.05289 -0.67633,-0.15865c-0.18926,-0.10576 -0.32008,-0.23936 -0.39244,-0.40079c0.55666,-0.32843 1.09661,-0.78211 1.61987,-1.36103c0.52882,-0.58449 1.01869,-1.25805 1.46958,-2.02067c0.45089,-0.76262 0.84334,-1.58647 1.17733,-2.47156c0.334,-0.88509 0.58727,-1.78409 0.75984,-2.697c-0.54552,0.28947 -1.03538,0.60119 -1.46957,0.93518c-0.43419,0.33399 -0.86282,0.77097 -1.28588,1.31093c-0.51769,0.62902 -0.92683,1.13558 -1.22742,1.51967c-0.29503,0.3841 -0.53996,0.71252 -0.73479,0.98529c-0.18926,0.26719 -0.34512,0.52048 -0.46759,0.75984c-0.12246,0.23379 -0.25328,0.52047 -0.39244,0.86004c-0.2004,0.45646 -0.43419,1.06044 -0.70139,1.81193c-0.26162,0.74592 -0.53161,1.5809 -0.80993,2.50495c-0.27832,0.92962 -0.55666,1.91769 -0.83499,2.9642c-0.27832,1.04651 -0.54552,2.09025 -0.80158,3.1312c-0.15587,-0.02783 -0.28946,-0.14195 -0.40079,-0.34234c-0.1169,-0.12803 -0.2004,-0.22267 -0.2505,-0.2839c-0.0501,-0.05567 -0.11133,-0.09742 -0.1837,-0.12525zM92.51749,35.85073c-0.0668,-0.08907 -0.13081,-0.27277 -0.19205,-0.55109c-0.05567,-0.27832 -0.0835,-0.51769 -0.0835,-0.71809c0.37296,0.0334 0.72922,0.06123 1.06878,0.08349c0.34512,0.0167 0.65965,0.0334 0.94354,0.0501c0.21153,-0.42863 0.44254,-0.85169 0.69304,-1.26918c0.2505,-0.42306 0.49265,-0.80715 0.72644,-1.15228c0.23379,-0.3507 0.45368,-0.64572 0.65964,-0.88509c0.20596,-0.24492 0.36739,-0.40358 0.48429,-0.47594c0.14473,0 0.32565,0.02506 0.54274,0.07515c0.22267,0.0501 0.44811,0.11412 0.67634,0.19205c0.22823,0.07793 0.4342,0.16143 0.61789,0.2505c0.1837,0.0835 0.31173,0.167 0.3841,0.2505c-0.42863,0.53996 -0.79602,1.04373 -1.10218,1.51132c-0.30617,0.46203 -0.63738,0.99086 -0.99363,1.58648c0.2839,0 0.57057,-0.00557 0.86004,-0.0167c0.29503,-0.0167 0.59285,-0.03897 0.89344,-0.0668c0.07236,0.07236 0.12802,0.16143 0.16699,0.26719c0.04453,0.10576 0.0668,0.2171 0.0668,0.334c-0.69582,0.25607 -1.54194,0.39801 -2.53836,0.42584c-0.35626,0.68469 -0.67356,1.3666 -0.95189,2.04572c-0.27832,0.67355 -0.5149,1.32484 -0.70973,1.95386c-0.18926,0.62346 -0.33956,1.21351 -0.4509,1.77017c-0.10577,0.55666 -0.15864,1.05487 -0.15864,1.49463c0,0.62902 0.23658,0.97971 0.70974,1.05208c0.42863,-0.06123 0.83498,-0.16978 1.21908,-0.32564c0.3841,-0.15587 0.72644,-0.35627 1.02704,-0.60119c0.0835,0.1336 0.1336,0.24215 0.1503,0.32565c-0.08907,0.12803 -0.23658,0.27833 -0.44254,0.45089c-0.20596,0.16699 -0.43141,0.33121 -0.67633,0.49264c-0.23937,0.16699 -0.47316,0.30616 -0.70139,0.4175c-0.22823,0.1169 -0.39801,0.1837 -0.50934,0.2004c-0.35626,-0.0167 -0.71252,-0.09741 -1.06878,-0.24214c-0.35626,-0.13916 -0.6819,-0.3173 -0.97693,-0.53439c-0.28947,-0.21153 -0.52883,-0.44811 -0.71809,-0.70973c-0.1837,-0.26719 -0.27554,-0.52882 -0.27554,-0.78489c0,-0.33956 0.04453,-0.76819 0.1336,-1.28588c0.09463,-0.52326 0.22823,-1.09105 0.4008,-1.70337c0.17257,-0.61232 0.37296,-1.25248 0.60119,-1.92047c0.22823,-0.67355 0.47595,-1.33597 0.74314,-1.98726zM106.43772,35.18274c-0.05567,0.88509 -0.21432,1.64492 -0.47594,2.27951c-0.25607,0.63459 -0.62346,1.19125 -1.10218,1.66997c-0.47316,0.47316 -1.05208,0.90178 -1.73677,1.28588c-0.68469,0.3841 -1.48349,0.75427 -2.39641,1.11053c0,0.08907 -0.00278,0.18091 -0.00834,0.27555c-0.00557,0.08907 -0.00835,0.1837 -0.00835,0.2839c0,0.1837 0.01392,0.37575 0.04175,0.57614c0.02783,0.20039 0.07793,0.38688 0.1503,0.55944c0.07236,0.167 0.17256,0.30616 0.3006,0.41749c0.12803,0.10576 0.28946,0.15865 0.48429,0.15865c0.38966,0 0.76819,-0.08629 1.13558,-0.25885c0.37296,-0.17256 0.72644,-0.38131 1.06043,-0.62624c0.334,-0.2505 0.64572,-0.52048 0.93519,-0.80993c0.29503,-0.29503 0.55665,-0.56501 0.78489,-0.80993c0.14473,0.12803 0.26441,0.2505 0.35904,0.36739c-0.64016,0.85169 -1.34154,1.56143 -2.10416,2.12922c-0.76262,0.56222 -1.48627,0.92127 -2.17096,1.07713c-0.97971,-0.1169 -1.74512,-0.47593 -2.29621,-1.07712c-0.54552,-0.60676 -0.81829,-1.33877 -0.81829,-2.19602c0,-0.58449 0.08071,-1.17732 0.24215,-1.77851c0.167,-0.60676 0.39522,-1.19125 0.68469,-1.75347c0.29503,-0.56779 0.63738,-1.09939 1.02703,-1.59482c0.38966,-0.50099 0.80994,-0.93519 1.26083,-1.30258c0.45089,-0.37296 0.91292,-0.6652 1.38608,-0.87673c0.47872,-0.2171 0.95467,-0.32564 1.42783,-0.32564c0.65129,0.08907 1.2636,0.49542 1.83696,1.21908zM104.95979,35.89248c-0.3841,0.05567 -0.7821,0.21152 -1.19403,0.46759c-0.41192,0.25607 -0.80159,0.59841 -1.16898,1.02704c-0.36182,0.42863 -0.69304,0.92684 -0.99363,1.49463c-0.30059,0.56779 -0.53439,1.18011 -0.70139,1.83696c1.14115,-0.56779 2.08747,-1.26918 2.83896,-2.10416c0.75705,-0.83498 1.1634,-1.74234 1.21907,-2.72205zM106.9073,43.60775c0.07236,-0.41192 0.19761,-0.95745 0.37574,-1.63657c0.17813,-0.67912 0.38688,-1.39999 0.62625,-2.16261c0.24493,-0.76262 0.50099,-1.52803 0.76819,-2.29621c0.27276,-0.76818 0.53718,-1.45844 0.79324,-2.07076c0.1837,-0.43976 0.34791,-0.78489 0.49265,-1.03538c0.14473,-0.2505 0.3006,-0.46203 0.46759,-0.63459c0.2004,0.02783 0.40636,0.07793 0.61789,0.15029c0.21709,0.07236 0.42585,0.15865 0.62625,0.25885c0.20039,0.1002 0.37852,0.20319 0.53439,0.30895c0.15586,0.10576 0.27554,0.20874 0.35904,0.30894c-0.3841,0.45646 -0.72366,0.97694 -1.01868,1.56143c-0.28946,0.58449 -0.58449,1.33319 -0.88508,2.24611c0.77375,-0.68469 1.45565,-1.33876 2.04571,-1.96221c0.59006,-0.62902 1.14115,-1.33041 1.65328,-2.10416c0.08907,-0.0668 0.23936,-0.1002 0.45089,-0.1002c0.2004,0 0.39245,0.0334 0.57614,0.1002c0.1837,0.06123 0.31173,0.14751 0.38409,0.25885c-0.25607,0.68469 -0.38409,1.36103 -0.38409,2.02902c0,0.62902 0.09185,1.0994 0.27554,1.41113c-0.01113,0.08907 -0.10576,0.25607 -0.28389,0.50099c-0.17813,0.23936 -0.37296,0.46481 -0.58449,0.67634c-0.38966,-0.20039 -0.73478,-0.47316 -1.03538,-0.81829c-0.29503,-0.3507 -0.51491,-0.73201 -0.65964,-1.14393c-0.66799,0.46759 -1.23856,0.92684 -1.71171,1.37773c-0.46759,0.44532 -0.86838,0.94354 -1.20238,1.49463c-0.33399,0.54552 -0.62068,1.17454 -0.86004,1.88707c-0.23379,0.71252 -0.45646,1.56142 -0.66799,2.54671c-0.12803,-0.0167 -0.28111,-0.06401 -0.45924,-0.14194c-0.17813,-0.07793 -0.35627,-0.17534 -0.5344,-0.29224c-0.17813,-0.11133 -0.33956,-0.23101 -0.48429,-0.35904c-0.13916,-0.12803 -0.23101,-0.24771 -0.27554,-0.35904z" fill="#f1f6ff" stroke-width="1" stroke-linecap="square"/><path d="M127.32662,42.41412c0.47316,0 0.84055,0.1169 1.10218,0.3507c0.2672,0.23379 0.40079,0.55666 0.40079,0.96859c0,0.1169 -0.01112,0.2338 -0.03339,0.3507c-0.02227,0.12247 -0.04732,0.22823 -0.07515,0.3173c-0.1837,-0.02783 -0.38966,-0.05288 -0.61789,-0.07515c-0.22823,-0.02227 -0.50099,-0.0334 -0.81829,-0.0334c-0.42306,0 -0.86003,0.02783 -1.31092,0.08349c-0.45089,0.05567 -0.89065,0.11411 -1.31928,0.17535c-0.42306,0.0668 -0.83498,0.12803 -1.23578,0.1837c-0.4008,0.06123 -0.77097,0.09185 -1.11053,0.09185c-0.55666,0 -1.03538,-0.10855 -1.43618,-0.32564c-0.39522,-0.21153 -0.66521,-0.50099 -0.80993,-0.86838c0.05567,-0.06123 0.19483,-0.12247 0.4175,-0.1837c0.22267,-0.0668 0.49264,-0.13916 0.80994,-0.2171c0.32286,-0.07793 0.68747,-0.15029 1.09383,-0.2171c0.40636,-0.07236 0.82385,-0.14474 1.25248,-0.2171c0.19483,-0.85726 0.41749,-1.73677 0.66799,-2.63855c0.2505,-0.90735 0.50656,-1.81191 0.76819,-2.7137c0.2672,-0.90735 0.54275,-1.80357 0.82664,-2.68866c0.28389,-0.88509 0.56779,-1.73955 0.85168,-2.5634c-0.48429,0.22823 -0.98806,0.53161 -1.51132,0.91014c-0.51769,0.37852 -0.96023,0.73201 -1.32763,1.06044c-0.15587,-0.08907 -0.23379,-0.2839 -0.23379,-0.58449c0.52326,-0.71252 1.05486,-1.34433 1.59482,-1.89542c0.54552,-0.55666 1.14672,-1.1495 1.80357,-1.77851c0.15587,-0.15587 0.34235,-0.37574 0.55944,-0.65963c0.22267,-0.2839 0.41192,-0.57058 0.56779,-0.86004c0.2004,0.06123 0.4509,0.12525 0.75149,0.19205c0.30059,0.06123 0.59562,0.13917 0.88509,0.2338c0.29503,0.08907 0.55944,0.19761 0.79324,0.32565c0.23379,0.12803 0.39523,0.27832 0.48429,0.45089c-0.18926,0.15587 -0.35904,0.32008 -0.50934,0.49265c-0.14473,0.16699 -0.27554,0.3507 -0.39244,0.55109c-0.28389,0.51212 -0.6151,1.23021 -0.99363,2.15427c-0.37853,0.91849 -0.7654,1.92325 -1.16062,3.0143c-0.38966,1.08548 -0.77932,2.21828 -1.16898,3.3984c-0.38966,1.17455 -0.74313,2.27395 -1.06043,3.2982c0.30059,-0.02783 0.57614,-0.04731 0.82664,-0.05844c0.2505,-0.0167 0.47316,-0.02505 0.66799,-0.02505zM131.75435,44.76043c-0.22823,-0.02783 -0.46759,-0.12525 -0.71809,-0.29224c-0.24493,-0.16143 -0.40358,-0.34235 -0.47594,-0.54274c0,-0.167 0.02505,-0.38688 0.07515,-0.65964c0.0501,-0.27276 0.10855,-0.54552 0.17535,-0.81829c0.07236,-0.27832 0.14473,-0.54273 0.2171,-0.79323c0.07236,-0.2505 0.12247,-0.43976 0.1503,-0.56779c0.17257,0 0.38967,0.04453 0.65129,0.13359c0.26162,0.0835 0.53161,0.2004 0.80994,0.3507c0.27832,0.14473 0.54274,0.31451 0.79324,0.50934c0.2505,0.19483 0.43976,0.38966 0.56779,0.58449c-0.12803,0.28947 -0.29224,0.56222 -0.49264,0.81829c-0.2004,0.25607 -0.41192,0.47872 -0.63459,0.66799c-0.21709,0.19483 -0.42584,0.34512 -0.62624,0.45089c-0.2004,0.10576 -0.36461,0.15865 -0.49264,0.15865zM133.89192,37.96365c-0.22823,-0.02783 -0.46759,-0.12247 -0.71809,-0.2839c-0.24493,-0.167 -0.40358,-0.3507 -0.47594,-0.55109c0,-0.16699 0.02505,-0.38687 0.07515,-0.65963c0.0501,-0.27276 0.10855,-0.54553 0.17535,-0.81829c0.07236,-0.27832 0.14473,-0.54274 0.2171,-0.79323c0.07236,-0.2505 0.12247,-0.43976 0.1503,-0.56779c0.17257,0 0.38966,0.04453 0.65129,0.1336c0.26162,0.0835 0.53161,0.2004 0.80993,0.3507c0.27832,0.14473 0.54275,0.31451 0.79324,0.50934c0.2505,0.18927 0.43976,0.3841 0.56779,0.58449c-0.12803,0.28947 -0.29224,0.56222 -0.49264,0.81829c-0.2004,0.25607 -0.41192,0.4815 -0.63459,0.67634c-0.21709,0.18927 -0.42584,0.33678 -0.62624,0.44254c-0.2004,0.10576 -0.3646,0.15865 -0.49264,0.15865z" fill="#f1f6ff" stroke-width="1" stroke-linecap="square"/></g></g></svg>