<svg version="1.1" xmlns="http://www.w3.org/2000/svg" xmlns:xlink="http://www.w3.org/1999/xlink" width="102.5" height="110.3178" viewBox="0,0,102.5,110.3178"><defs><radialGradient cx="226.04736" cy="183.38001" r="10.81276" gradientUnits="userSpaceOnUse" id="color-1"><stop offset="0" stop-color="#000000" stop-opacity="0.50196"/><stop offset="1" stop-color="#000000" stop-opacity="0"/></radialGradient><linearGradient x1="244.49641" y1="175.6405" x2="244.49641" y2="167.94767" gradientUnits="userSpaceOnUse" id="color-2"><stop offset="0" stop-color="#000000" stop-opacity="0.3098"/><stop offset="1" stop-color="#000000" stop-opacity="0"/></linearGradient><linearGradient x1="244.57108" y1="161.78034" x2="239.1258" y2="161.78034" gradientUnits="userSpaceOnUse" id="color-3"><stop offset="0" stop-color="#000000" stop-opacity="0.20392"/><stop offset="1" stop-color="#000000" stop-opacity="0"/></linearGradient><radialGradient cx="226.091" cy="183.32157" r="7.77198" gradientUnits="userSpaceOnUse" id="color-4"><stop offset="0" stop-color="#615050"/><stop offset="1" stop-color="#554545"/></radialGradient><radialGradient cx="247.2638" cy="185.09361" r="8.02827" gradientUnits="userSpaceOnUse" id="color-5"><stop offset="0" stop-color="#000000" stop-opacity="0.50196"/><stop offset="1" stop-color="#000000" stop-opacity="0"/></radialGradient><radialGradient cx="261.00037" cy="185.19947" r="8.02827" gradientUnits="userSpaceOnUse" id="color-6"><stop offset="0" stop-color="#000000" stop-opacity="0.50196"/><stop offset="1" stop-color="#000000" stop-opacity="0"/></radialGradient><radialGradient cx="247.33755" cy="185.17538" r="5.77055" gradientUnits="userSpaceOnUse" id="color-7"><stop offset="0" stop-color="#615050"/><stop offset="1" stop-color="#554545"/></radialGradient><radialGradient cx="261.03044" cy="185.17538" r="5.77055" gradientUnits="userSpaceOnUse" id="color-8"><stop offset="0" stop-color="#615050"/><stop offset="1" stop-color="#554545"/></radialGradient><linearGradient x1="257.87354" y1="152.98948" x2="257.87354" y2="156.76953" gradientUnits="userSpaceOnUse" id="color-9"><stop offset="0" stop-color="#000000" stop-opacity="0.20392"/><stop offset="1" stop-color="#000000" stop-opacity="0"/></linearGradient><linearGradient x1="216.06441" y1="161.94892" x2="221.50968" y2="161.94892" gradientUnits="userSpaceOnUse" id="color-10"><stop offset="0" stop-color="#000000" stop-opacity="0.21176"/><stop offset="1" stop-color="#000000" stop-opacity="0"/></linearGradient><linearGradient x1="244.50941" y1="158.22861" x2="244.50941" y2="166.63572" gradientUnits="userSpaceOnUse" id="color-11"><stop offset="0" stop-color="#000000" stop-opacity="0.3098"/><stop offset="1" stop-color="#000000" stop-opacity="0"/></linearGradient><linearGradient x1="264.32057" y1="172.61181" x2="271.6328" y2="172.61181" gradientUnits="userSpaceOnUse" id="color-12"><stop offset="0" stop-color="#000000" stop-opacity="0"/><stop offset="1" stop-color="#000000" stop-opacity="0.20784"/></linearGradient><linearGradient x1="281.49081" y1="186.07287" x2="276.26478" y2="187.60246" gradientUnits="userSpaceOnUse" id="color-13"><stop offset="0" stop-color="#000000" stop-opacity="0.19608"/><stop offset="1" stop-color="#000000" stop-opacity="0"/></linearGradient></defs><g transform="translate(-188.75,-124.8411)"><g data-paper-data="{&quot;isPaintingLayer&quot;:true}" fill-rule="nonzero" stroke-linecap="butt" stroke-linejoin="miter" stroke-miterlimit="10" stroke-dasharray="" stroke-dashoffset="0" style="mix-blend-mode: normal"><path d="M216.06743,178.03204c0,-8.71544 0,-29.30391 0,-34.80557c0,-2.25042 2.27435,-4.41924 4.41311,-4.41924c4.20941,0 12.09991,0 19.67856,0c2.67328,0 4.4131,2.27452 4.4131,4.60846c0,7.37757 0,39.22482 0,39.22482c0,0 -18.39742,0 -24.09165,0c-2.13876,0 -4.41311,-1.79266 -4.41311,-4.60846z" fill="#47628f" stroke="none" stroke-width="0"/><path d="M269.24586,182.62469c-3.72946,0 -27.80233,0 -27.80233,0c0,0 0,-19.50205 0,-24.33403c0,-1.52862 1.13951,-3.01834 2.89039,-3.01834c4.96367,0 22.15497,0 24.91194,0c1.40079,0 2.52747,0.62424 3.33418,2.89441c1.28627,3.6197 4.43798,15.13967 6.50905,21.14376c0.60138,1.74342 -8.44243,3.3142 -9.84322,3.3142z" data-paper-data="{&quot;index&quot;:null}" fill="#384d70" stroke="none" stroke-width="0"/><path d="M269.41444,185.5937c-3.72946,0 -27.80233,0 -27.80233,0c0,0 0,-19.50205 0,-24.33403c0,-1.52862 1.13951,-3.01833 2.89039,-3.01833c4.96367,0 22.15497,0 24.91194,0c1.40079,0 2.52747,0.62424 3.33418,2.8944c1.28627,3.6197 4.43798,15.13968 6.50905,21.14376c0.60138,1.74342 -8.44243,3.3142 -9.84322,3.3142z" data-paper-data="{&quot;index&quot;:null}" fill="#5474a9" stroke="none" stroke-width="0"/><path d="M216.08042,181.00105c0,-8.71544 0,-29.30391 0,-34.80558c0,-2.25042 2.27435,-4.41924 4.41311,-4.41924c4.20941,0 12.09991,0 19.67856,0c2.67328,0 4.4131,2.27452 4.4131,4.60847c0,4.95309 0,30.9053 0,30.9053l27.07078,0.15558c0,0 5.28116,6.15154 0.34666,7.63967c-3.77451,1.13831 -27.41744,0.52426 -27.41744,0.52426c0,0 -18.39743,0 -24.09166,0c-2.13876,0 -4.41311,-1.79266 -4.41311,-4.60846z" fill="#658ac9" stroke="none" stroke-width="0"/><path d="M216.30713,182.93809c0,-0.57293 0,-4.16949 0,-4.16949c0,0 1.81698,1.91102 3.82203,1.91102c7.40415,0 52.11864,0 52.11864,0v5.03814c0,0 -44.42574,0 -51.94492,0c-2.08544,0 -3.99576,-2.77966 -3.99576,-2.77966z" fill="#cccccc" stroke="none" stroke-width="0"/><path d="M215.23461,183.38001c0,-5.97172 4.84103,-10.81275 10.81275,-10.81275c5.97172,0 10.81276,4.84103 10.81276,10.81275c0,5.97172 -4.84103,10.81276 -10.81276,10.81276c-5.97172,0 -10.81275,-4.84103 -10.81275,-10.81276z" fill="url(#color-1)" stroke="none" stroke-width="0"/><path d="M244.61577,178.04197v-2.48927h28.62657v2.48927z" fill="#2a2b42" stroke="none" stroke-width="0"/><path d="M270.94488,167.94767l1.71138,6.01001c0,0 -2.14112,1.6828 -2.74782,1.6828c-4.36816,0 -25.41202,0 -25.41202,0v-7.69283z" data-paper-data="{&quot;index&quot;:null}" fill="url(#color-2)" stroke="none" stroke-width="0"/><path d="M254.22467,156.76351v-9.39548h7.37945v9.39548z" fill="#b3b3c9" stroke="none" stroke-width="0"/><path d="M225.38887,154.3335c0,-1.50366 0,-3.08374 0,-4.00743c0,-2.5908 2.13395,-3.80918 3.84186,-3.80918c3.41824,0 15.3894,0 15.3894,0v11.68669c0,0 -11.97117,0 -15.3894,0c-1.7079,0 -3.84186,-1.26006 -3.84186,-3.87008z" fill="#2a2b42" stroke="none" stroke-width="0"/><path d="M218.19103,158.19343c-3.41824,0 -2.27419,0 -2.27419,0v-11.68669c0,0 -1.14405,0 2.27419,0c1.7079,0 3.84186,1.21837 3.84186,3.80918c0,0.9237 0,2.50377 0,4.00743c0,2.61002 -2.13395,3.87009 -3.84186,3.87009z" data-paper-data="{&quot;index&quot;:null}" fill="#2a2b42" stroke="none" stroke-width="0"/><path d="M239.1258,177.73229v-38.89988c0,0 0.70735,0 1.24464,0c1.92054,0 4.20063,2.07493 4.20063,4.20064c0,2.40822 0,34.54366 0,34.54366z" data-paper-data="{&quot;index&quot;:null}" fill="url(#color-3)" stroke="none" stroke-width="0"/><path d="M218.31902,183.32157c0,-4.29234 3.47963,-7.77198 7.77198,-7.77198c4.29234,0 7.77198,3.47964 7.77198,7.77198c0,4.29234 -3.47964,7.77198 -7.77198,7.77198c-4.29234,0 -7.77198,-3.47963 -7.77198,-7.77198z" fill="url(#color-4)" stroke="none" stroke-width="0"/><path d="M224.65916,190.36622l1.37457,-6.98737l1.48911,6.98737z" fill-opacity="0.50196" fill="#a19838" stroke="none" stroke-width="0"/><path d="M227.52284,176.27693l-1.48911,6.98737l-1.37457,-6.98737z" data-paper-data="{&quot;index&quot;:null}" fill-opacity="0.50196" fill="#a19838" stroke="none" stroke-width="0"/><path d="M233.13565,184.75341l-6.98737,-1.37457l6.98737,-1.48911z" fill-opacity="0.50196" fill="#a19838" stroke="none" stroke-width="0"/><path d="M219.04635,181.88973l6.98737,1.48911l-6.98737,1.37457z" data-paper-data="{&quot;index&quot;:null}" fill-opacity="0.50196" fill="#a19838" stroke="none" stroke-width="0"/><path d="M219.17813,183.32157c0,-3.81787 3.095,-6.91288 6.91288,-6.91288c3.81787,0 6.91288,3.095 6.91288,6.91288c0,3.81787 -3.095,6.91288 -6.91288,6.91288c-3.81787,0 -6.91288,-3.095 -6.91288,-6.91288z" fill="none" stroke="#615050" stroke-width="2"/><path d="M239.23553,185.09361c0,-4.43389 3.59437,-8.02826 8.02827,-8.02826c4.43389,0 8.02827,3.59437 8.02827,8.02826c0,4.43389 -3.59437,8.02827 -8.02827,8.02827c-4.43389,0 -8.02827,-3.59437 -8.02827,-8.02827z" fill="url(#color-5)" stroke="none" stroke-width="0"/><path d="M252.97211,185.19947c0,-4.43389 3.59438,-8.02826 8.02827,-8.02826c4.43389,0 8.02827,3.59437 8.02827,8.02826c0,4.43389 -3.59438,8.02826 -8.02827,8.02826c-4.43389,0 -8.02827,-3.59437 -8.02827,-8.02826z" fill="url(#color-6)" stroke="none" stroke-width="0"/><path d="M241.56701,185.17538c0,-3.18698 2.58357,-5.77055 5.77055,-5.77055c3.18698,0 5.77055,2.58357 5.77055,5.77055c0,3.18698 -2.58356,5.77055 -5.77055,5.77055c-3.18698,0 -5.77055,-2.58356 -5.77055,-5.77055z" fill="url(#color-7)" stroke="none" stroke-width="0"/><path d="M246.27444,190.4059l1.02059,-5.18799l1.10564,5.18799z" fill-opacity="0.50196" fill="#a19838" stroke="none" stroke-width="0"/><path d="M248.40067,179.94487l-1.10564,5.18799l-1.02059,-5.18799z" data-paper-data="{&quot;index&quot;:null}" fill-opacity="0.50196" fill="#a19838" stroke="none" stroke-width="0"/><path d="M252.56806,186.2385l-5.18799,-1.02059l5.18799,-1.10564z" fill-opacity="0.50196" fill="#a19838" stroke="none" stroke-width="0"/><path d="M242.10704,184.11227l5.18799,1.10564l-5.18799,1.02059z" data-paper-data="{&quot;index&quot;:null}" fill-opacity="0.50196" fill="#a19838" stroke="none" stroke-width="0"/><path d="M242.20487,185.17538c0,-2.83469 2.29798,-5.13268 5.13268,-5.13268c2.83469,0 5.13267,2.29798 5.13267,5.13268c0,2.83469 -2.29798,5.13268 -5.13267,5.13268c-2.83469,0 -5.13268,-2.29798 -5.13268,-5.13268z" fill="none" stroke="#615050" stroke-width="2"/><path d="M255.2599,185.17538c0,-3.18698 2.58356,-5.77055 5.77055,-5.77055c3.18698,0 5.77055,2.58357 5.77055,5.77055c0,3.18698 -2.58357,5.77055 -5.77055,5.77055c-3.18698,0 -5.77055,-2.58356 -5.77055,-5.77055z" fill="url(#color-8)" stroke="none" stroke-width="0"/><path d="M259.96733,190.4059l1.02059,-5.18799l1.10564,5.18799z" fill-opacity="0.50196" fill="#a19838" stroke="none" stroke-width="0"/><path d="M262.09356,179.94487l-1.10564,5.18799l-1.02059,-5.18799z" data-paper-data="{&quot;index&quot;:null}" fill-opacity="0.50196" fill="#a19838" stroke="none" stroke-width="0"/><path d="M266.26096,186.2385l-5.18799,-1.02059l5.18799,-1.10564z" fill-opacity="0.50196" fill="#a19838" stroke="none" stroke-width="0"/><path d="M255.79993,184.11227l5.18799,1.10564l-5.18799,1.02059z" data-paper-data="{&quot;index&quot;:null}" fill-opacity="0.50196" fill="#a19838" stroke="none" stroke-width="0"/><path d="M255.89777,185.17538c0,-2.83469 2.29798,-5.13268 5.13267,-5.13268c2.83469,0 5.13268,2.29798 5.13268,5.13268c0,2.83469 -2.29798,5.13268 -5.13268,5.13268c-2.83469,0 -5.13267,-2.29798 -5.13267,-5.13268z" fill="none" stroke="#615050" stroke-width="2"/><path d="M254.20803,156.76953v-3.78005h7.33102v3.78005z" fill="url(#color-9)" stroke="none" stroke-width="0"/><g fill="#b3b3c9" stroke="none" stroke-width="0"><path d="M264.36769,150.49125c0,1.72428 -2.83796,3.12208 -6.33877,3.12208c-3.5008,0 -6.33877,-1.3978 -6.33877,-3.12208c0,-1.72428 2.83796,-3.12208 6.33877,-3.12208c3.5008,0 6.33877,1.3978 6.33877,3.12208z"/><path d="M264.36769,148.7883c0,1.72428 -2.83796,3.12207 -6.33877,3.12207c-3.5008,0 -6.33877,-1.3978 -6.33877,-3.12207c0,-1.72428 2.83796,-3.12208 6.33877,-3.12208c3.5008,0 6.33877,1.3978 6.33877,3.12208z"/><path d="M251.65607,150.68133v-1.979h12.7509v1.979z"/></g><path d="M261.93766,148.1402c0,0.87188 -1.79418,1.57868 -4.00743,1.57868c-2.21324,0 -4.00743,-0.7068 -4.00743,-1.57868c0,-0.87188 1.79419,-1.57868 4.00743,-1.57868c2.21324,0 4.00743,0.7068 4.00743,1.57868z" fill="#2a2b42" stroke="none" stroke-width="0"/><path d="M216.06441,181.00737c0,-9.30767 0,-32.48579 0,-37.80574c0,-2.12571 2.2801,-4.20064 4.20064,-4.20064c0.53729,0 1.24464,0 1.24464,0v45.89587c0,0 -1.37873,0 -2.17811,0c-0.97903,0 -3.26716,-1.47998 -3.26716,-3.88948z" fill="url(#color-10)" stroke="none" stroke-width="0"/><path d="M244.50941,166.63572v-8.40711c0,0 21.04385,0 25.41201,0c0.6067,0 2.74782,1.83905 2.74782,1.83905l-1.71137,6.56805z" fill="url(#color-11)" stroke="none" stroke-width="0"/><path d="M264.32057,185.83604v-26.44847h7.31223v26.44847z" fill="url(#color-12)" stroke="none" stroke-width="0"/><path d="M270.44049,182.61455c-0.18292,0 -0.71547,0 -0.71547,0l-0.17392,-23.22514c0,0 1.49282,-0.22023 2.13726,-0.43487c0.58321,-0.19425 1.56408,-0.79795 1.56408,-0.79795c0,0 0.1557,0.53188 0.24378,0.84892c1.20023,4.3202 3.61852,14.70124 5.24578,20.29484c0.50719,1.74342 -7.12013,3.3142 -8.30151,3.3142z" data-paper-data="{&quot;index&quot;:null}" fill="#443838" stroke="none" stroke-width="0"/><path d="M270.61867,185.58355c-0.21688,0 -0.84833,0 -0.84833,0l-0.20622,-23.22514c0,0 1.77004,-0.22023 2.53417,-0.43488c0.69152,-0.19425 1.85456,-0.79794 1.85456,-0.79794c0,0 0.1846,0.53188 0.28904,0.84892c1.42313,4.3202 4.29053,14.70124 6.22,20.29484c0.60138,1.74342 -8.44243,3.3142 -9.84322,3.3142z" data-paper-data="{&quot;index&quot;:null}" fill="#615050" stroke="none" stroke-width="0"/><path d="M272.69323,181.75699v-2.65649c0,0 3.54452,-0.62144 4.55741,-0.8669c1.5818,-0.38332 1.57508,-0.87275 1.57508,-0.87275l0.72633,2.27795c0,0 -0.34688,0.63755 -1.85808,1.03311c-1.25222,0.32777 -5.00072,1.08508 -5.00072,1.08508z" fill="#342b2b" stroke="none" stroke-width="1"/><path d="M272.59105,174.63806c0,0 2.80768,-0.38355 3.42861,-0.53402c1.5818,-0.38332 1.57507,-0.87275 1.57507,-0.87275l0.72633,2.27795c0,0 -0.34688,0.63755 -1.85808,1.03311c-0.78324,0.20502 -3.80718,0.71727 -3.80718,0.71727z" fill="#342b2b" stroke="none" stroke-width="1"/><path d="M272.5544,170.38651c0,0 1.77945,-0.24608 2.23428,-0.3563c1.5818,-0.38332 1.57507,-0.87275 1.57507,-0.87275l0.72633,2.27795c0,0 -0.34688,0.63755 -1.85808,1.03311c-0.60063,0.15722 -2.61276,0.46993 -2.61276,0.46993z" fill="#342b2b" stroke="none" stroke-width="1"/><path d="M246.43655,161.13257c0,-0.69589 0.56413,-1.26002 1.26002,-1.26002c0.69589,0 1.26002,0.56413 1.26002,1.26002c0,0.69589 -0.56413,1.26002 -1.26002,1.26002c-0.69589,0 -1.26002,-0.56413 -1.26002,-1.26002z" fill-opacity="0.24314" fill="#000000" stroke="none" stroke-width="0"/><path d="M246.42699,172.46316c0,-0.69589 0.56412,-1.26002 1.26001,-1.26002c0.69589,0 1.26002,0.56413 1.26002,1.26002c0,0.69589 -0.56413,1.26002 -1.26002,1.26002c-0.69589,0 -1.26001,-0.56413 -1.26001,-1.26002z" fill-opacity="0.24314" fill="#000000" stroke="none" stroke-width="0"/><path d="M265.21271,161.123c0,-0.69589 0.56412,-1.26002 1.26001,-1.26002c0.69589,0 1.26002,0.56413 1.26002,1.26002c0,0.69589 -0.56413,1.26002 -1.26002,1.26002c-0.69589,0 -1.26001,-0.56413 -1.26001,-1.26002z" fill-opacity="0.24314" fill="#000000" stroke="none" stroke-width="0"/><path d="M265.20315,172.45359c0,-0.69589 0.56413,-1.26001 1.26002,-1.26001c0.69589,0 1.26002,0.56412 1.26002,1.26001c0,0.69589 -0.56413,1.26002 -1.26002,1.26002c-0.69589,0 -1.26002,-0.56413 -1.26002,-1.26002z" fill-opacity="0.24314" fill="#000000" stroke="none" stroke-width="0"/><path d="M275.32884,184.5366l-5.51016,-18.95812l0.2709,-6.15528l3.10032,-1.10686l7.32126,24.40941c0,0 -1.20257,0.90997 -2.7716,1.3365c-0.81712,0.22213 -2.41072,0.47436 -2.41072,0.47436z" data-paper-data="{&quot;index&quot;:null}" fill="url(#color-13)" stroke="none" stroke-width="0"/><path d="M188.75,235.1589v-110.3178h102.5v110.3178z" fill="none" stroke="none" stroke-width="0"/></g></g></svg>