<svg version="1.1" xmlns="http://www.w3.org/2000/svg" xmlns:xlink="http://www.w3.org/1999/xlink" width="214.71472" height="115.61562" viewBox="0,0,214.71472,115.61562"><defs><linearGradient x1="325.5" y1="161.90438" x2="325.5" y2="195.40438" gradientUnits="userSpaceOnUse" id="color-1"><stop offset="0" stop-color="#ffffff"/><stop offset="1" stop-color="#fffde5"/></linearGradient><linearGradient x1="164.5" y1="151.40438" x2="164.5" y2="182.90438" gradientUnits="userSpaceOnUse" id="color-2"><stop offset="0" stop-color="#ffffff"/><stop offset="1" stop-color="#fffde5"/></linearGradient><linearGradient x1="183.75" y1="142.40438" x2="183.75" y2="171.40438" gradientUnits="userSpaceOnUse" id="color-3"><stop offset="0" stop-color="#ffffff"/><stop offset="1" stop-color="#fffde5"/></linearGradient><linearGradient x1="315.69122" y1="211.63329" x2="322.40694" y2="217.9213" gradientUnits="userSpaceOnUse" id="color-4"><stop offset="0" stop-color="#ffffff"/><stop offset="1" stop-color="#fffde5"/></linearGradient><linearGradient x1="316.60604" y1="218.84" x2="310.49212" y2="225.71459" gradientUnits="userSpaceOnUse" id="color-5"><stop offset="0" stop-color="#ffffff"/><stop offset="1" stop-color="#fffde5"/></linearGradient><linearGradient x1="328.44081" y1="183.2316" x2="328.44081" y2="216.40438" gradientUnits="userSpaceOnUse" id="color-6"><stop offset="0" stop-color="#ffffff"/><stop offset="1" stop-color="#fffde5"/></linearGradient><linearGradient x1="301.75" y1="194.90438" x2="301.75" y2="235.40438" gradientUnits="userSpaceOnUse" id="color-7"><stop offset="0" stop-color="#ffffff"/><stop offset="1" stop-color="#fffde5"/></linearGradient><linearGradient x1="266.92918" y1="203.90489" x2="266.92918" y2="226.19979" gradientUnits="userSpaceOnUse" id="color-8"><stop offset="0" stop-color="#ffffff"/><stop offset="1" stop-color="#fffde5"/></linearGradient><linearGradient x1="276.13056" y1="203.68497" x2="276.13056" y2="230.90438" gradientUnits="userSpaceOnUse" id="color-9"><stop offset="0" stop-color="#ffffff"/><stop offset="1" stop-color="#fffde5"/></linearGradient><linearGradient x1="190.44081" y1="191.2316" x2="190.44081" y2="224.40438" gradientUnits="userSpaceOnUse" id="color-10"><stop offset="0" stop-color="#ffffff"/><stop offset="1" stop-color="#fffde5"/></linearGradient><linearGradient x1="176.75" y1="190.90438" x2="176.75" y2="231.40438" gradientUnits="userSpaceOnUse" id="color-11"><stop offset="0" stop-color="#ffffff"/><stop offset="1" stop-color="#fffde5"/></linearGradient><linearGradient x1="240.5" y1="144.49813" x2="240.5" y2="225.99813" gradientUnits="userSpaceOnUse" id="color-12"><stop offset="0" stop-color="#ffffff"/><stop offset="1" stop-color="#fffde5"/></linearGradient><linearGradient x1="307.75" y1="148.40438" x2="307.75" y2="182.40438" gradientUnits="userSpaceOnUse" id="color-13"><stop offset="0" stop-color="#ffffff"/><stop offset="1" stop-color="#fffde5"/></linearGradient><linearGradient x1="285.25" y1="142.90438" x2="285.25" y2="181.90438" gradientUnits="userSpaceOnUse" id="color-14"><stop offset="0" stop-color="#ffffff"/><stop offset="1" stop-color="#fffde5"/></linearGradient><linearGradient x1="153.25" y1="167.40438" x2="153.25" y2="198.40438" gradientUnits="userSpaceOnUse" id="color-15"><stop offset="0" stop-color="#ffffff"/><stop offset="1" stop-color="#fffde5"/></linearGradient><linearGradient x1="264.75" y1="135.90438" x2="264.75" y2="163.90438" gradientUnits="userSpaceOnUse" id="color-16"><stop offset="0" stop-color="#ffffff"/><stop offset="1" stop-color="#fffde5"/></linearGradient><linearGradient x1="238.5" y1="132.90438" x2="238.5" y2="171.40438" gradientUnits="userSpaceOnUse" id="color-17"><stop offset="0" stop-color="#ffffff"/><stop offset="1" stop-color="#fffde5"/></linearGradient><linearGradient x1="210" y1="132.40438" x2="210" y2="168.90438" gradientUnits="userSpaceOnUse" id="color-18"><stop offset="0" stop-color="#ffffff"/><stop offset="1" stop-color="#fffde5"/></linearGradient><linearGradient x1="207.77957" y1="214.31614" x2="205.82043" y2="223.30512" gradientUnits="userSpaceOnUse" id="color-19"><stop offset="0" stop-color="#ffffff"/><stop offset="1" stop-color="#fffde5"/></linearGradient><linearGradient x1="214.77957" y1="208.71614" x2="212.82043" y2="217.70512" gradientUnits="userSpaceOnUse" id="color-20"><stop offset="0" stop-color="#ffffff"/><stop offset="1" stop-color="#fffde5"/></linearGradient><linearGradient x1="219.75577" y1="217.04433" x2="218.64423" y2="226.17693" gradientUnits="userSpaceOnUse" id="color-21"><stop offset="0" stop-color="#ffffff"/><stop offset="1" stop-color="#fffde5"/></linearGradient><linearGradient x1="231.8382" y1="218.01348" x2="232.1618" y2="227.20778" gradientUnits="userSpaceOnUse" id="color-22"><stop offset="0" stop-color="#ffffff"/><stop offset="1" stop-color="#fffde5"/></linearGradient><linearGradient x1="238.18157" y1="210.25239" x2="239.41843" y2="219.36887" gradientUnits="userSpaceOnUse" id="color-23"><stop offset="0" stop-color="#ffffff"/><stop offset="1" stop-color="#fffde5"/></linearGradient><linearGradient x1="246.98806" y1="215.03268" x2="249.81194" y2="223.78858" gradientUnits="userSpaceOnUse" id="color-24"><stop offset="0" stop-color="#ffffff"/><stop offset="1" stop-color="#fffde5"/></linearGradient><linearGradient x1="262.10786" y1="223.96662" x2="255.39214" y2="230.25464" gradientUnits="userSpaceOnUse" id="color-25"><stop offset="0" stop-color="#ffffff"/><stop offset="1" stop-color="#fffde5"/></linearGradient><linearGradient x1="261.19304" y1="231.17333" x2="267.30696" y2="238.04793" gradientUnits="userSpaceOnUse" id="color-26"><stop offset="0" stop-color="#ffffff"/><stop offset="1" stop-color="#fffde5"/></linearGradient><linearGradient x1="155.65183" y1="204.36132" x2="150.61483" y2="212.05994" gradientUnits="userSpaceOnUse" id="color-27"><stop offset="0" stop-color="#ffffff"/><stop offset="1" stop-color="#fffde5"/></linearGradient><linearGradient x1="163.08911" y1="209.37766" x2="161.97756" y2="218.51026" gradientUnits="userSpaceOnUse" id="color-28"><stop offset="0" stop-color="#ffffff"/><stop offset="1" stop-color="#fffde5"/></linearGradient></defs><g transform="translate(-134.14414,-129.41817)"><g data-paper-data="{&quot;isPaintingLayer&quot;:true}" fill-rule="nonzero" stroke-linejoin="miter" stroke-miterlimit="10" stroke-dasharray="" stroke-dashoffset="0" style="mix-blend-mode: normal"><path d="M348.85886,187.22598c0,31.92637 -48.06553,57.80781 -107.35736,57.80781c-59.29183,0 -107.35736,-25.88144 -107.35736,-57.80781c0,-31.92637 48.06553,-57.80781 107.35736,-57.80781c59.29183,0 107.35736,25.88144 107.35736,57.80781z" fill-opacity="0.06667" fill="#000000" stroke="none" stroke-width="0" stroke-linecap="butt"/><path d="M308.75,178.65438c0,-9.25077 7.49923,-16.75 16.75,-16.75c9.25077,0 16.75,7.49923 16.75,16.75c0,9.25077 -7.49923,16.75 -16.75,16.75c-9.25077,0 -16.75,-7.49923 -16.75,-16.75z" fill="url(#color-1)" stroke="none" stroke-width="0" stroke-linecap="butt"/><path d="M148.75,167.15438c0,-8.69848 7.05152,-15.75 15.75,-15.75c8.69848,0 15.75,7.05152 15.75,15.75c0,8.69848 -7.05152,15.75 -15.75,15.75c-8.69848,0 -15.75,-7.05152 -15.75,-15.75z" fill="url(#color-2)" stroke="none" stroke-width="0" stroke-linecap="butt"/><path d="M169.25,156.90438c0,-8.00813 6.49187,-14.5 14.5,-14.5c8.00813,0 14.5,6.49187 14.5,14.5c0,8.00813 -6.49187,14.5 -14.5,14.5c-8.00813,0 -14.5,-6.49187 -14.5,-14.5z" fill="url(#color-3)" stroke="none" stroke-width="0" stroke-linecap="butt"/><path d="M316.09908,230.2773l0.2,-33.2" data-paper-data="{&quot;index&quot;:null}" fill="none" stroke="#fffef5" stroke-width="2.5" stroke-linecap="round"/><path d="M315.69122,211.63329c0.8682,-0.92725 3.07537,-0.27131 4.92986,1.46508c1.85449,1.73639 2.65405,3.89569 1.78586,4.82294c-0.86819,0.92725 -3.07536,0.27131 -4.92986,-1.46508c-1.85449,-1.73639 -2.65406,-3.89569 -1.78586,-4.82294z" data-paper-data="{&quot;index&quot;:null}" fill="url(#color-4)" stroke="none" stroke-width="0" stroke-linecap="butt"/><path d="M316.60604,218.84c0.94919,0.84416 0.35,3.06741 -1.33832,4.96578c-1.68831,1.89837 -3.82642,2.75297 -4.7756,1.90881c-0.94918,-0.84416 -0.35,-3.06741 1.33832,-4.96577c1.68831,-1.89837 3.82642,-2.75297 4.7756,-1.90882z" data-paper-data="{&quot;index&quot;:null}" fill="url(#color-5)" stroke="none" stroke-width="0" stroke-linecap="butt"/><path d="M334.73634,190.40786c0,4.73517 -2.83289,6.61305 -4.1687,13.44141c-1.24837,6.38143 -0.26932,12.5551 -2.12683,12.5551c-1.74586,0 -1.92826,-6.9882 -3.42689,-12.92834c-1.80196,-7.1425 -4.43059,-2.8099 -4.43059,-7.81105c0,-9.16041 4.01237,-12.43339 7.85748,-12.43339c3.84511,0 6.29552,-1.98415 6.29552,7.17626z" fill="url(#color-6)" stroke="none" stroke-width="0" stroke-linecap="butt"/><path d="M261.625,207.82626c0,0 -7.7992,11.50278 -33.49929,10.97694c-26.21059,-0.53628 -31.50071,-12.97694 -31.50071,-12.97694" fill="none" stroke="#fffef5" stroke-width="2.5" stroke-linecap="round"/><path d="M179.14385,211.96632c0,0 -6.55815,3.60119 -18.74718,-2.95148c-12.43115,-6.68283 -11.91673,-13.94251 -11.91673,-13.94251" fill="none" stroke="#fffef5" stroke-width="2.5" stroke-linecap="round"/><path d="M310.58334,200.82104c0,4.19886 -4.86976,6.30314 -5.78825,12.70659c-1.52793,10.65229 -0.11315,21.87674 -3.04509,21.87674c-2.66837,0 -2.20088,-12.57316 -4.17756,-22.31491c-1.50086,-7.39673 -5.82244,-5.94167 -5.82244,-10.76842c0,-11.18376 5.30558,-7.41667 10,-7.41667c4.69442,0 8.83333,-5.26709 8.83333,5.91667z" fill="url(#color-7)" stroke="none" stroke-width="0" stroke-linecap="butt"/><path d="M266.92918,203.90489c2.58424,0 5.50491,-5.19321 5.50491,0.96336c0,2.41012 -2.78093,6.53565 -3.48071,10.25848c-1.08779,5.787 -0.45162,11.07307 -2.0242,11.07307c-1.5648,0 -1.61686,-6.12966 -2.46639,-11.80661c-0.55345,-3.69844 -2.21279,-6.82102 -2.21279,-9.24969c0,-6.15657 2.09494,-1.2386 4.67918,-1.2386z" data-paper-data="{&quot;index&quot;:null}" fill="url(#color-8)" stroke="none" stroke-width="0" stroke-linecap="butt"/><path d="M276.13056,203.68497c3.15505,0 6.72084,-6.34029 6.72084,1.17615c0,2.75806 -2.48011,3.33194 -3.24387,7.59564c-1.31768,7.356 -1.47963,18.44763 -3.47697,18.44763c-1.83365,0 -1.79886,-12.14429 -2.84414,-18.76651c-0.75327,-4.77224 -2.86858,-3.79267 -2.86858,-6.94071c0,-7.51643 2.55767,-1.51219 5.71272,-1.51219z" data-paper-data="{&quot;index&quot;:null}" fill="url(#color-9)" stroke="none" stroke-width="0" stroke-linecap="butt"/><path d="M197.73634,202.74119c0,4.72065 -3.49446,2.22939 -4.82309,9.04522c-1.24958,6.41028 -0.60883,12.61797 -2.47243,12.61797c-1.91197,0 -1.61438,-6.24943 -3.17806,-12.98917c-1.58099,-6.81436 -4.67941,-5.1448 -4.67941,-9.75022c0,-9.16041 4.01237,-10.43339 7.85748,-10.43339c3.84511,0 7.29552,2.34919 7.29552,11.5096z" fill="url(#color-10)" stroke="none" stroke-width="0" stroke-linecap="butt"/><path d="M184.58334,201.82104c0,4.80875 -3.37024,3.88718 -4.54553,11.15447c-1.55809,9.63431 -0.61188,18.42887 -3.28781,18.42887c-2.70343,0 -2.2762,-9.47536 -4.25499,-19.3659c-1.45732,-7.2841 -5.74501,-7.97418 -5.74501,-12.71743c0,-11.18377 5.30558,-8.41667 10,-8.41667c4.69442,0 7.83333,-0.2671 7.83333,10.91667z" fill="url(#color-11)" stroke="none" stroke-width="0" stroke-linecap="butt"/><path d="M333.5163,185.24813c0,22.5056 -41.14482,22.25 -92.5163,22.25c-51.37149,0 -93.5163,0.2556 -93.5163,-22.25c0,-22.5056 41.64482,-40.75 93.0163,-40.75c51.37149,0 93.0163,18.2444 93.0163,40.75z" fill="url(#color-12)" stroke="none" stroke-width="0" stroke-linecap="butt"/><path d="M290.75,165.40438c0,-9.38884 7.61116,-17 17,-17c9.38884,0 17,7.61116 17,17c0,9.38884 -7.61116,17 -17,17c-9.38884,0 -17,-7.61116 -17,-17z" fill="url(#color-13)" stroke="none" stroke-width="0" stroke-linecap="butt"/><path d="M265.75,162.40438c0,-10.76955 8.73045,-19.5 19.5,-19.5c10.76955,0 19.5,8.73045 19.5,19.5c0,10.76955 -8.73045,19.5 -19.5,19.5c-10.76955,0 -19.5,-8.73045 -19.5,-19.5z" fill="url(#color-14)" stroke="none" stroke-width="0" stroke-linecap="butt"/><path d="M137.75,182.90438c0,-8.56041 6.93959,-15.5 15.5,-15.5c8.56041,0 15.5,6.93959 15.5,15.5c0,8.56041 -6.93959,15.5 -15.5,15.5c-8.56041,0 -15.5,-6.93959 -15.5,-15.5z" fill="url(#color-15)" stroke="none" stroke-width="0" stroke-linecap="butt"/><path d="M250.75,149.90438c0,-7.73199 6.26801,-14 14,-14c7.73199,0 14,6.26801 14,14c0,7.73199 -6.26801,14 -14,14c-7.73199,0 -14,-6.26801 -14,-14z" fill="url(#color-16)" stroke="none" stroke-width="0" stroke-linecap="butt"/><path d="M219.25,152.15438c0,-10.63148 8.61852,-19.25 19.25,-19.25c10.63148,0 19.25,8.61852 19.25,19.25c0,10.63148 -8.61852,19.25 -19.25,19.25c-10.63148,0 -19.25,-8.61852 -19.25,-19.25z" fill="url(#color-17)" stroke="none" stroke-width="0" stroke-linecap="butt"/><path d="M191.75,150.65438c0,-10.0792 8.1708,-18.25 18.25,-18.25c10.0792,0 18.25,8.1708 18.25,18.25c0,10.0792 -8.1708,18.25 -18.25,18.25c-10.0792,0 -18.25,-8.1708 -18.25,-18.25z" fill="url(#color-18)" stroke="none" stroke-width="0" stroke-linecap="butt"/><path d="M209.04725,219.30041c-0.541,2.48224 -1.98569,4.27521 -3.22681,4.00471c-1.24112,-0.2705 -1.80868,-2.50204 -1.26768,-4.98427c0.541,-2.48224 1.98569,-4.27521 3.22681,-4.00471c1.24112,0.2705 1.80868,2.50204 1.26768,4.98427z" fill="url(#color-19)" stroke="none" stroke-width="0" stroke-linecap="butt"/><path d="M216.04725,213.70041c-0.541,2.48224 -1.9857,4.2752 -3.22682,4.00471c-1.24112,-0.2705 -1.80867,-2.50204 -1.26767,-4.98427c0.541,-2.48224 1.9857,-4.2752 3.22682,-4.00471c1.24112,0.2705 1.80867,2.50204 1.26767,4.98427z" fill="url(#color-20)" stroke="none" stroke-width="0" stroke-linecap="butt"/><path d="M221.48315,221.88852c-0.30694,2.5219 -1.57798,4.44189 -2.83893,4.28841c-1.26095,-0.15347 -2.03432,-2.32229 -1.72738,-4.84419c0.30694,-2.5219 1.57798,-4.44189 2.83893,-4.28841c1.26095,0.15347 2.03432,2.32229 1.72738,4.84419z" fill="url(#color-21)" stroke="none" stroke-width="0" stroke-linecap="butt"/><path d="M234.29858,222.52973c0.08936,2.53894 -0.86731,4.63337 -2.13677,4.67805c-1.26947,0.04468 -2.37102,-1.97731 -2.46038,-4.51625c-0.08936,-2.53894 0.86731,-4.63337 2.13677,-4.67805c1.26947,-0.04468 2.37102,1.97731 2.46038,4.51625z" fill="url(#color-22)" stroke="none" stroke-width="0" stroke-linecap="butt"/><path d="M241.07912,214.50141c0.34156,2.51745 -0.40196,4.69668 -1.66069,4.86746c-1.25872,0.17078 -2.55599,-1.73158 -2.89755,-4.24903c-0.34156,-2.51745 0.40196,-4.69668 1.66069,-4.86746c1.25872,-0.17078 2.55599,1.73158 2.89755,4.24903z" fill="url(#color-23)" stroke="none" stroke-width="0" stroke-linecap="butt"/><path d="M250.58897,218.70466c0.7798,2.41787 0.4319,4.69402 -0.77703,5.08392c-1.20894,0.3899 -2.82111,-1.25411 -3.60091,-3.67198c-0.7798,-2.41787 -0.4319,-4.69402 0.77703,-5.08392c1.20894,-0.3899 2.82111,1.25411 3.60091,3.67198z" fill="url(#color-24)" stroke="none" stroke-width="0" stroke-linecap="butt"/><path d="M261.5,209.41063l0.2,33.2" fill="none" stroke="#fffef5" stroke-width="2.5" stroke-linecap="round"/><path d="M260.322,228.78956c-1.85449,1.73639 -4.06167,2.39233 -4.92986,1.46508c-0.86819,-0.92725 -0.06863,-3.08654 1.78586,-4.82294c1.85449,-1.73639 4.06167,-2.39233 4.92986,-1.46508c0.86819,0.92725 0.06863,3.08654 -1.78586,4.82294z" fill="url(#color-25)" stroke="none" stroke-width="0" stroke-linecap="butt"/><path d="M265.96865,233.08215c1.68832,1.89836 2.2875,4.12162 1.33831,4.96578c-0.94918,0.84416 -3.08729,-0.01045 -4.77561,-1.90882c-1.68832,-1.89836 -2.2875,-4.12162 -1.33831,-4.96578c0.94918,-0.84416 3.08729,0.01045 4.77561,1.90882z" fill="url(#color-26)" stroke="none" stroke-width="0" stroke-linecap="butt"/><path d="M155.05799,209.46988c-1.39093,2.12591 -3.3802,3.28552 -4.44315,2.59006c-1.06296,-0.69546 -0.79708,-2.98264 0.59385,-5.10856c1.39093,-2.12591 3.3802,-3.28552 4.44315,-2.59006c1.06296,0.69546 0.79708,2.98264 -0.59385,5.10856z" fill="url(#color-27)" stroke="none" stroke-width="0" stroke-linecap="butt"/><path d="M176.18345,190.39682v4.25009h-10.83811v-0.75149l1.05208,-0.0167v-12.78363l-1.05208,-0.02505v-0.74314h6.93038v0.74314l-2.3296,0.02506v12.74188c1.7813,-0.62902 3.56817,-1.4139 5.36061,-2.35466l0.04175,-1.06879zM185.46382,193.53637l-3.14789,1.47793c-0.3841,-0.27276 -0.64573,-0.64572 -0.78489,-1.11888c-0.51769,0.3173 -1.03538,0.57335 -1.55307,0.76818c-0.51769,0.2004 -0.97137,0.3006 -1.36103,0.3006c-0.57892,0 -1.05487,-0.20596 -1.42782,-0.61789c-0.37296,-0.41192 -0.55944,-0.93797 -0.55944,-1.57812c0,-0.28389 0.03061,-0.59283 0.09185,-0.92683c0.0668,-0.33956 0.15029,-0.60954 0.2505,-0.80994l4.53397,-0.72643l0.04176,-0.61789c0.02783,-0.64016 -0.10855,-1.14115 -0.40914,-1.50297c-0.29503,-0.36739 -0.77932,-0.55109 -1.45288,-0.55109c-0.29503,0 -0.60675,0.0334 -0.93518,0.1002c-0.32843,0.06123 -0.60676,0.14195 -0.83499,0.24215l-0.34234,0.72644l-0.57613,-0.20875l0.98528,-3.0811c1.09662,-0.46759 2.13478,-0.70139 3.1145,-0.70139c1.01311,0 1.83975,0.2672 2.47991,0.80159c0.64572,0.53439 0.96858,1.36937 0.96858,2.50495l-0.02505,0.43419l-0.2171,2.8807l-0.04175,0.76819c0,0.25606 0.02227,0.45925 0.0668,0.60954c0.04453,0.1503 0.11689,0.30338 0.2171,0.45924l0.65964,-0.2505zM180.61255,193.42783c0.22823,0 0.48986,-0.08629 0.78489,-0.25885l-0.0167,-0.44254l0.0167,-0.47594l0.0668,-1.21908l-1.64492,0.3841c-0.05567,0.18926 -0.0835,0.43976 -0.0835,0.75149c0,0.42863 0.0835,0.74592 0.2505,0.95189c0.17256,0.20596 0.38131,0.30895 0.62624,0.30895zM196.31762,194.02902v0.61789h-4.57572v-0.61789l0.79324,-0.0668v-4.50893c0,-0.62902 -0.17534,-1.11331 -0.52604,-1.45288c-0.34512,-0.34512 -0.82385,-0.52326 -1.43617,-0.53439l-0.68469,0.70139l-0.09184,5.7948l0.79324,0.0668v0.61789h-4.59243v-0.61789l0.79324,-0.0668l-0.0668,-7.64847l-0.80994,0.19205l-0.2171,-0.64294l3.37335,-1.05208l0.75149,2.39641l1.77853,-2.5467c1.35268,0 2.34909,0.32286 2.98925,0.96858c0.64016,0.64016 0.96024,1.63101 0.96024,2.97255v5.36061zM207.56286,193.16898l-3.12285,1.69502c-0.3841,-0.22823 -0.6652,-0.53161 -0.84333,-0.91013c-0.17813,-0.37853 -0.28111,-0.86839 -0.30894,-1.46958l-2.11251,2.47992c-0.82942,0 -1.56142,-0.18649 -2.19601,-0.55944c-0.63459,-0.37853 -1.13001,-0.899 -1.48627,-1.56142c-0.35626,-0.66242 -0.53439,-1.41391 -0.53439,-2.25446c0,-0.72922 0.11968,-1.50018 0.35904,-2.31291c0.24492,-0.81272 0.53996,-1.44731 0.88509,-1.90377c0.26719,-0.3841 0.75706,-0.75705 1.46958,-1.11888c0.71252,-0.36183 1.31094,-0.54274 1.79522,-0.54274c0.42863,0 1.01311,0.06959 1.75347,0.20875l-0.04175,-3.75743l-0.80993,0.16699l-0.2171,-0.61789l3.95784,-1.19403l0.30059,0.50934l-0.1336,11.07191c0,0.51213 0.02783,0.89344 0.0835,1.14393c0.06123,0.2505 0.16421,0.4676 0.30895,0.65129l0.63459,-0.30059zM200.03964,189.303c0,0.65686 0.10576,1.22743 0.3173,1.71172c0.2171,0.48429 0.4982,0.85447 0.84333,1.11054c0.3507,0.25606 0.72644,0.3841 1.12723,0.3841l0.96024,-0.96023l-0.04174,-4.31687c-0.92406,-0.44533 -1.8147,-0.74592 -2.67196,-0.90179c-0.35626,0.81272 -0.53439,1.80357 -0.53439,2.97255zM216.65183,184.71057c1.42505,0 2.57176,0.42028 3.44014,1.26083c0.86838,0.84055 1.30258,2.03737 1.30258,3.59044c0,0.66799 -0.11968,1.35825 -0.35904,2.07076c-0.23379,0.71252 -0.57892,1.33876 -1.03538,1.87872c-0.45089,0.44533 -0.97971,0.7988 -1.58648,1.06043c-0.60676,0.26162 -1.24412,0.39245 -1.91211,0.39245c-1.42505,0 -2.57453,-0.42028 -3.44849,-1.26083c-0.86838,-0.84055 -1.30258,-2.03737 -1.30258,-3.59044c0,-0.65129 0.11968,-1.33319 0.35904,-2.04571c0.24492,-0.71252 0.59563,-1.34155 1.05209,-1.88707c0.45646,-0.43976 0.98807,-0.79323 1.59483,-1.06043c0.60676,-0.27276 1.23856,-0.40914 1.89542,-0.40914zM214.83156,189.0859c0,1.35825 0.26719,2.37136 0.80158,3.03935c0.53439,0.66799 1.32207,1.066 2.36302,1.19403c0.1002,-0.42863 0.17812,-0.90457 0.23379,-1.42782c0.05567,-0.52882 0.0835,-0.96302 0.0835,-1.30258c0,-1.36937 -0.2672,-2.38527 -0.80159,-3.04769c-0.53439,-0.66242 -1.31371,-1.05765 -2.33796,-1.18568c-0.1002,0.43976 -0.1837,0.92405 -0.2505,1.45288c-0.06123,0.52882 -0.09185,0.95466 -0.09185,1.27753zM224.6844,180.87798c0.0835,0.65686 0.26997,1.4167 0.55944,2.27952c0.29503,0.86282 0.565,1.48628 0.80994,1.87037h1.87872v0.90178l-1.85367,-0.0668l-0.0501,8.09937l1.65327,0.0668v0.61789h-5.45246v-0.61789l0.78489,-0.0668l-0.04175,-8.14111h-1.19402v-0.79323h1.13558c-0.1169,-0.3841 -0.22267,-0.84611 -0.3173,-1.38608c-0.08907,-0.54552 -0.1336,-1.01033 -0.1336,-1.39443c0,-0.2672 0.00557,-0.46481 0.0167,-0.59284c0.12803,-0.37296 0.3674,-0.71251 0.71809,-1.01868c0.3507,-0.30617 0.74314,-0.54831 1.17733,-0.72644c0.43419,-0.17813 0.83777,-0.26719 1.21073,-0.26719c0.62346,0 1.25248,0.09741 1.88707,0.29224c0.63459,0.18926 1.20238,0.43976 1.70337,0.75149l-1.77852,2.54671c-0.32842,-0.37296 -0.7487,-0.77932 -1.26083,-1.21908c-0.51213,-0.43976 -0.99642,-0.81829 -1.45288,-1.13558zM250.65913,193.89542v0.75149h-5.92005v-0.75149l1.15228,-0.0167l-1.00199,-10.96336l-4.13317,9.33514h-0.65964l-4.42543,-9.40194l-0.40079,11.03017l1.15228,0.0167v0.75149h-4.68427v-0.75149l0.83498,-0.0167l2.05407,-12.78363l-1.17732,-0.02505v-0.74313h4.91807l3.44014,6.98883l2.97255,-6.98883h4.42542v0.74314l-1.13558,0.02505l1.75347,12.78364zM256.11023,184.71057c1.25248,0 2.23776,0.45367 2.95585,1.36103c0.72366,0.90179 1.07713,2.12086 1.06043,3.65724l-5.90335,0.19205c0.1002,0.84055 0.39245,1.48349 0.87674,1.92882c0.48429,0.43976 1.12724,0.65964 1.92882,0.65964c1.10775,0 2.01232,-0.30616 2.71371,-0.91848l0.3841,0.34234c-0.50099,0.95189 -1.17455,1.69503 -2.02067,2.22942c-0.84611,0.53439 -1.74791,0.80159 -2.70535,0.80159c-1.29701,0 -2.32683,-0.42862 -3.08945,-1.28588c-0.76262,-0.86282 -1.14393,-2.02902 -1.14393,-3.49859c0,-0.86838 0.17535,-1.72841 0.52605,-2.5801c0.35069,-0.85726 0.79602,-1.57256 1.33598,-2.14592c0.37296,-0.21153 0.85168,-0.38688 1.43617,-0.52604c0.58449,-0.14473 1.13279,-0.2171 1.64493,-0.2171zM256.96192,189.02745c-0.01113,-0.99642 -0.15308,-1.78687 -0.42584,-2.37136c-0.27276,-0.58449 -0.65685,-0.93519 -1.15228,-1.05209c-0.35626,0.37296 -0.64572,0.89066 -0.86839,1.55308c-0.22267,0.66242 -0.33399,1.34154 -0.33399,2.03736v0.0668zM276.58375,194.02902v0.61789h-4.57573v-0.61789l0.79324,-0.0668v-4.50893c0,-0.62902 -0.16143,-1.1161 -0.48429,-1.46123c-0.3173,-0.35069 -0.76262,-0.53439 -1.33598,-0.55109l-0.78489,0.79324v0.36739v5.36061l0.76819,0.0668v0.61789h-4.57573v-0.61789l0.79324,-0.0668v-4.50893c0,-0.62902 -0.16143,-1.11331 -0.48429,-1.45287c-0.3173,-0.34512 -0.76262,-0.52326 -1.33598,-0.53439l-0.70139,0.70139l-0.09184,5.7948l0.79324,0.0668v0.61789h-4.59242v-0.61789l0.79324,-0.0668l-0.0668,-7.64847l-0.80993,0.19205l-0.2171,-0.64294l3.37335,-1.05208l0.75149,2.39641l1.77853,-2.5467c1.09661,0 1.94552,0.22266 2.54671,0.66799c0.60676,0.43976 0.99642,1.12445 1.16898,2.05407l1.90376,-2.73876c1.30815,0 2.27117,0.32008 2.88906,0.96024c0.62346,0.64016 0.93518,1.63936 0.93518,2.9976v5.36061zM282.12536,184.71057c1.42505,0 2.57176,0.42028 3.44014,1.26083c0.86838,0.84055 1.30257,2.03737 1.30257,3.59044c0,0.66799 -0.11968,1.35825 -0.35904,2.07076c-0.23379,0.71252 -0.57892,1.33876 -1.03538,1.87872c-0.45089,0.44533 -0.97971,0.7988 -1.58648,1.06043c-0.60676,0.26162 -1.24413,0.39245 -1.91212,0.39245c-1.42505,0 -2.57454,-0.42028 -3.44849,-1.26083c-0.86838,-0.84055 -1.30258,-2.03737 -1.30258,-3.59044c0,-0.65129 0.11968,-1.33319 0.35905,-2.04571c0.24493,-0.71252 0.59562,-1.34155 1.05208,-1.88707c0.45646,-0.43976 0.98806,-0.79323 1.59482,-1.06043c0.60676,-0.27276 1.23857,-0.40914 1.89543,-0.40914zM280.30509,189.0859c0,1.35825 0.2672,2.37136 0.80159,3.03935c0.53439,0.66799 1.32206,1.066 2.36301,1.19403c0.1002,-0.42863 0.17813,-0.90457 0.2338,-1.42782c0.05567,-0.52882 0.08349,-0.96302 0.08349,-1.30258c0,-1.36937 -0.2672,-2.38527 -0.80158,-3.04769c-0.53439,-0.66242 -1.31371,-1.05765 -2.33796,-1.18568c-0.1002,0.43976 -0.1837,0.92405 -0.2505,1.45288c-0.06123,0.52882 -0.09185,0.95466 -0.09185,1.27753zM291.44379,187.95867l-0.09184,6.00355l1.90376,0.0668v0.61789h-5.70295v-0.61789l0.79324,-0.0668l-0.0668,-7.64847l-0.80993,0.19205l-0.2171,-0.64294l3.37335,-1.05208l0.72644,2.28786c0.47316,-0.95189 0.98807,-1.69224 1.54473,-2.22107c0.31173,-0.11133 0.68748,-0.16699 1.12723,-0.16699c0.60119,0 1.16619,0.10577 1.69502,0.3173l-0.68469,2.78051c-0.41192,-0.08907 -0.94076,-0.167 -1.58648,-0.2338c-0.64016,-0.07236 -1.1662,-0.12247 -1.57812,-0.1503zM296.95903,180.51894l2.73041,-0.61789v2.42982l-2.7304,0.40914zM299.90654,193.96222l0.79324,0.0668v0.61789h-4.60077v-0.61789l0.79324,-0.0668l-0.0668,-7.60672l-0.80993,0.16699l-0.2171,-0.61789l3.87434,-1.19403l0.30059,0.50934zM306.49257,184.71057c1.25248,0 2.23776,0.45367 2.95585,1.36103c0.72366,0.90179 1.07713,2.12086 1.06043,3.65724l-5.90335,0.19205c0.1002,0.84055 0.39245,1.48349 0.87673,1.92882c0.48429,0.43976 1.12724,0.65964 1.92882,0.65964c1.10775,0 2.01232,-0.30616 2.71371,-0.91848l0.38409,0.34234c-0.50099,0.95189 -1.17455,1.69503 -2.02066,2.22942c-0.84611,0.53439 -1.74791,0.80159 -2.70535,0.80159c-1.29701,0 -2.32682,-0.42862 -3.08945,-1.28588c-0.76262,-0.86282 -1.14393,-2.02902 -1.14393,-3.49859c0,-0.86838 0.17535,-1.72841 0.52605,-2.5801c0.35069,-0.85726 0.79601,-1.57256 1.33597,-2.14592c0.37296,-0.21153 0.85169,-0.38688 1.43618,-0.52604c0.58449,-0.14473 1.13279,-0.2171 1.64493,-0.2171zM307.34425,189.02745c-0.01113,-0.99642 -0.15308,-1.78687 -0.42584,-2.37136c-0.27276,-0.58449 -0.65686,-0.93519 -1.15228,-1.05209c-0.35626,0.37296 -0.64572,0.89066 -0.86838,1.55308c-0.22267,0.66242 -0.334,1.34154 -0.334,2.03736v0.0668zM314.35445,186.63104c0,0.3841 0.15308,0.73478 0.45925,1.05208c0.30617,0.31173 0.77375,0.68191 1.40277,1.11054c0.76819,0.52326 1.35268,0.99919 1.75348,1.42782c0.4008,0.42863 0.60119,0.95745 0.60119,1.58648c0,0.55109 -0.16422,1.06878 -0.49264,1.55307c-0.32842,0.48429 -0.79324,0.87396 -1.39443,1.16898c-0.59562,0.28947 -1.28031,0.43419 -2.05406,0.43419c-0.74036,0 -1.44175,-0.17813 -2.10417,-0.5344c-0.66242,-0.35626 -1.1495,-0.80993 -1.46122,-1.36102l1.83697,-1.47792c0.57336,1.06878 1.15785,1.94552 1.75347,2.63021c0.24493,-0.1837 0.44811,-0.4008 0.60954,-0.65129c0.16143,-0.2505 0.24215,-0.49821 0.24215,-0.74313c0,-0.39522 -0.14751,-0.73757 -0.44254,-1.02703c-0.28947,-0.29503 -0.74036,-0.64851 -1.35268,-1.06043c-0.49543,-0.32842 -0.89343,-0.61232 -1.19403,-0.85169c-0.30059,-0.24493 -0.55388,-0.53718 -0.75984,-0.87673c-0.20596,-0.34512 -0.30894,-0.732 -0.30894,-1.16062c0,-0.52882 0.17257,-1.03539 0.5177,-1.51968c0.35069,-0.48429 0.84055,-0.87395 1.46958,-1.16898c0.62902,-0.30059 1.34154,-0.4509 2.13756,-0.4509c0.61232,0 1.19125,0.13082 1.73677,0.39245c0.55109,0.26162 0.9992,0.59284 1.34433,0.99363l-1.66998,1.64493c-0.68469,-0.86838 -1.43896,-1.64492 -2.26281,-2.32961c-0.24493,0.31173 -0.36739,0.71809 -0.36739,1.21908zM313.65306,194.64691h0.0167z" fill-opacity="0.06667" fill="#000000" stroke="none" stroke-width="1" stroke-linecap="square"/><path d="M194.97175,166.03378c0,-0.99642 0.11689,-1.97613 0.35069,-2.93915c0.23379,-0.96302 0.56501,-1.87315 0.99364,-2.7304c0.42863,-0.86282 0.93797,-1.65327 1.52803,-2.37136c0.59006,-0.72365 1.23856,-1.34711 1.94552,-1.87037c0.70695,-0.52882 1.45844,-0.93797 2.25446,-1.22743c0.79602,-0.29502 1.61431,-0.44254 2.45486,-0.44254c0.98528,0 1.75068,0.20596 2.29621,0.61789c0.55109,0.41192 0.82664,0.98807 0.82664,1.72842c0,0.28947 -0.03897,0.58449 -0.1169,0.88509c-0.07793,0.29502 -0.19204,0.59006 -0.34234,0.88509c-0.1503,0.28947 -0.32565,0.57058 -0.52604,0.84334c-0.2004,0.26719 -0.42028,0.50099 -0.65963,0.70139c-0.37296,-0.05567 -0.69582,-0.22267 -0.96859,-0.50099c-0.2672,-0.27832 -0.43698,-0.60398 -0.50934,-0.97693c0.50099,-0.41192 0.89621,-0.84055 1.18568,-1.28588c0.29503,-0.45089 0.44254,-0.86282 0.44254,-1.23577c0,-0.62346 -0.39244,-0.93518 -1.17732,-0.93518c-0.32842,0 -0.66799,0.06679 -1.01869,0.20039c-0.34512,0.1336 -0.69582,0.32287 -1.05208,0.56779c-0.35626,0.23936 -0.70417,0.53161 -1.04373,0.87674c-0.334,0.33956 -0.64294,0.71808 -0.92683,1.13558c-1.9817,2.85009 -2.97255,5.76419 -2.97255,8.74231c0,1.05208 0.16421,1.89819 0.49264,2.53835c0.32842,0.64016 0.76262,1.01869 1.30258,1.13558c0.61232,-0.14473 1.38886,-0.53718 2.32961,-1.17733c0.94076,-0.64016 1.96778,-1.47236 3.0811,-2.4966c0.14473,0.13916 0.23102,0.28668 0.25885,0.44254c-0.41192,0.54552 -0.84055,1.06878 -1.28588,1.56977c-0.43976,0.49543 -0.87673,0.9491 -1.31092,1.36103c-0.43419,0.41192 -0.86282,0.77376 -1.28588,1.08548c-0.41749,0.3173 -0.80437,0.56223 -1.16063,0.73479c-1.77017,-0.02783 -3.11172,-0.53439 -4.02463,-1.51968c-0.90735,-0.98529 -1.36102,-2.43259 -1.36102,-4.34193zM206.76908,169.85802c0,-0.49543 0.0501,-1.07991 0.1503,-1.75347c0.1002,-0.67912 0.24493,-1.40278 0.43419,-2.17096c0.19483,-0.77375 0.42307,-1.58091 0.68469,-2.42146c0.26162,-0.84055 0.55666,-1.6811 0.88509,-2.52166c0.28947,-0.75706 0.62068,-1.51968 0.99363,-2.28786c0.37853,-0.76819 0.78768,-1.52246 1.22744,-2.26281c0.44533,-0.74035 0.90457,-1.44452 1.37773,-2.11252c0.47872,-0.67355 0.96024,-1.28866 1.44452,-1.84531c0.22823,0 0.47317,0.03062 0.73479,0.09185c0.2672,0.05567 0.52604,0.13081 0.77654,0.22545c0.2505,0.08907 0.47872,0.19762 0.68469,0.32565c0.20596,0.12803 0.37297,0.25606 0.501,0.38409c-1.06878,1.09661 -2.0318,2.20436 -2.88906,3.32324c-0.85168,1.11888 -1.52802,2.17096 -2.02901,3.15625c-0.2672,0.53996 -0.51213,1.04651 -0.73479,1.51968c-0.22267,0.46759 -0.42584,0.9324 -0.60953,1.39443c-0.1837,0.46203 -0.3507,0.92684 -0.50099,1.39443c-0.1503,0.46203 -0.28946,0.9491 -0.41749,1.46123c2.73318,-3.49024 4.7622,-5.23536 6.08705,-5.23536c0.37296,0 0.77375,0.12247 1.20238,0.3674c0.42863,0.23936 0.80716,0.565 1.13558,0.97693c-0.44533,0.48429 -0.90457,1.06878 -1.37772,1.75347c-0.46759,0.68469 -0.899,1.37216 -1.29422,2.06242c-0.38966,0.69026 -0.70974,1.33319 -0.96023,1.92882c-0.24493,0.59006 -0.36739,1.02704 -0.36739,1.31093c0,0.13916 0.01948,0.2338 0.05845,0.2839c0.04453,0.0501 0.13917,0.07515 0.2839,0.07515c0.21153,0 0.3813,-0.02783 0.50934,-0.0835c0.12803,-0.05567 0.20597,-0.08349 0.2338,-0.08349c0.07236,0.11133 0.11411,0.18926 0.12525,0.23379c0.0167,0.04453 0.02505,0.08071 0.02505,0.10855c0,0.05567 -0.08628,0.13639 -0.25884,0.24215c-0.16699,0.10576 -0.37018,0.21431 -0.60954,0.32564c-0.23379,0.10576 -0.46481,0.2004 -0.69304,0.2839c-0.22823,0.08907 -0.39801,0.1336 -0.50934,0.1336c-0.14473,0 -0.28946,-0.04175 -0.43419,-0.12525c-0.13916,-0.07793 -0.26163,-0.18091 -0.36739,-0.30894c-0.10577,-0.12803 -0.19205,-0.26998 -0.25885,-0.42584c-0.06123,-0.15587 -0.09184,-0.32008 -0.09184,-0.49264c0,-0.21153 0.05845,-0.52604 0.17535,-0.94353c0.12246,-0.42306 0.28946,-0.9157 0.50099,-1.47792c0.21709,-0.56222 0.47595,-1.17733 0.77654,-1.84532c0.30059,-0.67355 0.62068,-1.35825 0.96024,-2.05407c0,-0.06123 -0.02783,-0.09184 -0.0835,-0.09184c-0.04453,0 -0.15587,0.05845 -0.334,0.17535c-0.17813,0.11133 -0.34512,0.22545 -0.50099,0.34235c-0.51213,0.3841 -1.02981,0.85726 -1.55307,1.41948c-0.51769,0.56222 -1.02425,1.18011 -1.51968,1.85367c-0.48986,0.66799 -0.95188,1.37773 -1.38608,2.12922c-0.43419,0.74592 -0.80715,1.49463 -1.11888,2.24612c-0.04453,0.1002 -0.11133,0.19205 -0.2004,0.27555c-0.0835,0.08907 -0.15308,0.1336 -0.20874,0.1336c-0.04453,0 -0.10577,-0.0501 -0.1837,-0.1503c-0.07793,-0.1002 -0.1503,-0.22545 -0.2171,-0.37574c-0.06123,-0.15029 -0.11969,-0.30338 -0.17534,-0.45924c-0.05567,-0.15587 -0.0835,-0.29224 -0.0835,-0.40914zM225.21822,161.59166c0.13916,0 0.30338,0.02505 0.49265,0.07515c0.19483,0.0501 0.37018,0.11411 0.52604,0.19205c0.16143,0.07793 0.29503,0.16143 0.40079,0.2505c0.10577,0.0835 0.15865,0.15865 0.15865,0.22545c-0.28389,0.60119 -0.54831,1.20516 -0.79323,1.81192c-0.23937,0.60119 -0.44532,1.18012 -0.61789,1.73677c-0.17257,0.55666 -0.30616,1.07713 -0.40079,1.56142c-0.08907,0.48429 -0.1336,0.90457 -0.1336,1.26083c0,0.40079 0.04175,0.73479 0.12525,1.00199c0.08907,0.26163 0.23379,0.4481 0.43419,0.55944c-0.17257,0.1169 -0.39523,0.20875 -0.66799,0.27555c-0.2672,0.07236 -0.50934,0.10855 -0.72643,0.10855c-0.76819,0 -1.15228,-0.52604 -1.15228,-1.57812c0,-0.81272 0.26998,-1.92604 0.80994,-3.33994c-0.28389,0.65686 -0.61233,1.27475 -0.98529,1.85367c-0.36739,0.57892 -0.74313,1.08826 -1.12723,1.52802c-0.3841,0.43976 -0.77375,0.7988 -1.16898,1.07713c-0.38966,0.27832 -0.74871,0.44533 -1.07713,0.501c-0.52882,-0.02783 -0.95745,-0.27833 -1.28588,-0.75149c-0.32842,-0.47872 -0.49264,-1.08827 -0.49264,-1.82862c0,-0.80158 0.16978,-1.64214 0.50935,-2.52166c0.34512,-0.88509 0.78489,-1.70616 1.31928,-2.46321c0.53439,-0.75706 1.11609,-1.38607 1.74512,-1.88706c0.62902,-0.50656 1.23578,-0.77376 1.82027,-0.80159c0.13916,0.03897 0.29781,0.12247 0.47595,0.2505c0.17813,0.12803 0.34791,0.27833 0.50934,0.4509c0.16699,0.17256 0.30616,0.34791 0.41749,0.52604c0.1169,0.17813 0.1837,0.33121 0.2004,0.45925c-0.57336,0.0835 -1.16341,0.36182 -1.77017,0.83498c-0.60119,0.46759 -1.1495,1.0326 -1.64492,1.69503c-0.48986,0.66242 -0.89343,1.37216 -1.21072,2.12921c-0.31173,0.75706 -0.4676,1.46123 -0.4676,2.11252c0,0.27276 0.1002,0.44533 0.30059,0.5177c0.41192,-0.08907 0.88787,-0.44254 1.42783,-1.06043c0.54552,-0.61789 1.20238,-1.57534 1.97056,-2.87235c0.14473,-0.25607 0.30617,-0.53996 0.4843,-0.85169c0.17813,-0.3173 0.35904,-0.64571 0.54274,-0.98528c0.1837,-0.34512 0.36461,-0.69026 0.54275,-1.03539c0.17813,-0.3507 0.34791,-0.69025 0.50934,-1.01868zM226.32208,177.29774c-0.19483,-0.05567 -0.30894,-0.26719 -0.34234,-0.63459c-0.05567,-0.18927 -0.09463,-0.41192 -0.1169,-0.66799c-0.0167,-0.25607 -0.02504,-0.54831 -0.02504,-0.87673c0,-0.30059 0.04732,-0.70973 0.14195,-1.22742c0.1002,-0.51769 0.23936,-1.10497 0.41749,-1.76182c0.17813,-0.65686 0.39523,-1.36659 0.65129,-2.12921c0.26162,-0.76262 0.54831,-1.53638 0.86004,-2.32126c0.3841,-0.97971 0.71809,-1.82862 1.00198,-2.54671c0.28389,-0.72366 0.52326,-1.34711 0.71809,-1.87037c0.19483,-0.52883 0.35069,-0.96301 0.46759,-1.30258c0.12246,-0.34512 0.21989,-0.64016 0.29225,-0.88508c0.05567,-0.16699 0.13916,-0.37018 0.2505,-0.60954c0.1169,-0.24492 0.2505,-0.49264 0.4008,-0.74313c0.1503,-0.2505 0.30338,-0.48429 0.45924,-0.70139c0.15587,-0.22267 0.29781,-0.39244 0.42585,-0.50934c0.50099,0.07236 0.97137,0.2004 1.41113,0.3841c0.43976,0.1837 0.70974,0.36182 0.80993,0.53439c-0.19483,0.1837 -0.42306,0.47316 -0.68469,0.86839c-0.25606,0.38966 -0.50657,0.81829 -0.75149,1.28588c-0.23937,0.46203 -0.45924,0.93519 -0.65963,1.41948c-0.19483,0.48429 -0.34234,0.91013 -0.44254,1.27753c0.13916,-0.23936 0.32286,-0.50099 0.55109,-0.78488c0.22823,-0.28947 0.57893,-0.68191 1.05209,-1.17733c0.52326,-0.53996 1.01589,-0.95467 1.47792,-1.24412c0.46759,-0.29503 0.87117,-0.44254 1.21073,-0.44254c0.54552,0 0.99085,0.1503 1.33598,0.45089c0.35069,0.29503 0.52605,0.67912 0.52605,1.15228c0,1.02425 -0.17257,2.04015 -0.51769,3.0477c-0.33956,1.00198 -0.82942,1.90933 -1.46958,2.72205c-0.24493,0.31172 -0.53161,0.60954 -0.86003,0.89344c-0.32286,0.2839 -0.66242,0.53717 -1.01869,0.75984c-0.35626,0.22267 -0.70695,0.39801 -1.05208,0.52605c-0.33956,0.12803 -0.64572,0.19205 -0.91848,0.19205c-0.25606,0 -0.4815,-0.05289 -0.67633,-0.15865c-0.18926,-0.10576 -0.32008,-0.23936 -0.39244,-0.40079c0.55666,-0.32843 1.09661,-0.78211 1.61987,-1.36103c0.52882,-0.58449 1.01869,-1.25805 1.46958,-2.02067c0.45089,-0.76262 0.84334,-1.58647 1.17733,-2.47156c0.334,-0.88509 0.58727,-1.78409 0.75984,-2.697c-0.54552,0.28947 -1.03538,0.60119 -1.46957,0.93518c-0.43419,0.33399 -0.86282,0.77097 -1.28588,1.31093c-0.51769,0.62902 -0.92683,1.13558 -1.22742,1.51967c-0.29503,0.3841 -0.53996,0.71252 -0.73479,0.98529c-0.18926,0.26719 -0.34512,0.52048 -0.46759,0.75984c-0.12246,0.23379 -0.25328,0.52047 -0.39244,0.86004c-0.2004,0.45646 -0.43419,1.06044 -0.70139,1.81193c-0.26162,0.74592 -0.53161,1.5809 -0.80993,2.50495c-0.27832,0.92962 -0.55666,1.91769 -0.83499,2.9642c-0.27832,1.04651 -0.54552,2.09025 -0.80158,3.1312c-0.15587,-0.02783 -0.28946,-0.14195 -0.40079,-0.34234c-0.1169,-0.12803 -0.2004,-0.22267 -0.2505,-0.2839c-0.0501,-0.05567 -0.11133,-0.09742 -0.1837,-0.12525zM239.66114,162.04255c-0.0668,-0.08907 -0.13081,-0.27277 -0.19205,-0.55109c-0.05567,-0.27832 -0.0835,-0.51769 -0.0835,-0.71809c0.37296,0.0334 0.72922,0.06123 1.06878,0.08349c0.34512,0.0167 0.65965,0.0334 0.94354,0.0501c0.21153,-0.42863 0.44254,-0.85169 0.69304,-1.26918c0.2505,-0.42306 0.49265,-0.80715 0.72644,-1.15228c0.23379,-0.3507 0.45368,-0.64572 0.65964,-0.88509c0.20596,-0.24492 0.36739,-0.40358 0.48429,-0.47594c0.14473,0 0.32565,0.02506 0.54274,0.07515c0.22267,0.0501 0.44811,0.11412 0.67634,0.19205c0.22823,0.07793 0.4342,0.16143 0.61789,0.2505c0.1837,0.0835 0.31173,0.167 0.3841,0.2505c-0.42863,0.53996 -0.79602,1.04373 -1.10218,1.51132c-0.30617,0.46203 -0.63738,0.99086 -0.99363,1.58648c0.2839,0 0.57057,-0.00557 0.86004,-0.0167c0.29503,-0.0167 0.59285,-0.03897 0.89344,-0.0668c0.07236,0.07236 0.12802,0.16143 0.16699,0.26719c0.04453,0.10576 0.0668,0.2171 0.0668,0.334c-0.69582,0.25607 -1.54194,0.39801 -2.53836,0.42584c-0.35626,0.68469 -0.67356,1.3666 -0.95189,2.04572c-0.27832,0.67355 -0.5149,1.32484 -0.70973,1.95386c-0.18926,0.62346 -0.33956,1.21351 -0.4509,1.77017c-0.10577,0.55666 -0.15864,1.05487 -0.15864,1.49463c0,0.62902 0.23658,0.97971 0.70974,1.05208c0.42863,-0.06123 0.83498,-0.16978 1.21908,-0.32564c0.3841,-0.15587 0.72644,-0.35627 1.02704,-0.60119c0.0835,0.1336 0.1336,0.24215 0.1503,0.32565c-0.08907,0.12803 -0.23658,0.27833 -0.44254,0.45089c-0.20596,0.16699 -0.43141,0.33121 -0.67633,0.49264c-0.23937,0.16699 -0.47316,0.30616 -0.70139,0.4175c-0.22823,0.1169 -0.39801,0.1837 -0.50934,0.2004c-0.35626,-0.0167 -0.71252,-0.09741 -1.06878,-0.24214c-0.35626,-0.13916 -0.6819,-0.3173 -0.97693,-0.53439c-0.28947,-0.21153 -0.52883,-0.44811 -0.71809,-0.70973c-0.1837,-0.26719 -0.27554,-0.52882 -0.27554,-0.78489c0,-0.33956 0.04453,-0.76819 0.1336,-1.28588c0.09463,-0.52326 0.22823,-1.09105 0.4008,-1.70337c0.17257,-0.61232 0.37296,-1.25248 0.60119,-1.92047c0.22823,-0.67355 0.47595,-1.33597 0.74314,-1.98726zM253.58137,161.37456c-0.05567,0.88509 -0.21432,1.64492 -0.47594,2.27951c-0.25607,0.63459 -0.62346,1.19125 -1.10218,1.66997c-0.47316,0.47316 -1.05208,0.90178 -1.73677,1.28588c-0.68469,0.3841 -1.48349,0.75427 -2.39641,1.11053c0,0.08907 -0.00278,0.18091 -0.00834,0.27555c-0.00557,0.08907 -0.00835,0.1837 -0.00835,0.2839c0,0.1837 0.01392,0.37575 0.04175,0.57614c0.02783,0.20039 0.07793,0.38688 0.1503,0.55944c0.07236,0.167 0.17256,0.30616 0.3006,0.41749c0.12803,0.10576 0.28946,0.15865 0.48429,0.15865c0.38966,0 0.76819,-0.08629 1.13558,-0.25885c0.37296,-0.17256 0.72644,-0.38131 1.06043,-0.62624c0.334,-0.2505 0.64572,-0.52048 0.93519,-0.80993c0.29503,-0.29503 0.55665,-0.56501 0.78489,-0.80993c0.14473,0.12803 0.26441,0.2505 0.35904,0.36739c-0.64016,0.85169 -1.34154,1.56143 -2.10416,2.12922c-0.76262,0.56222 -1.48627,0.92127 -2.17096,1.07713c-0.97971,-0.1169 -1.74512,-0.47593 -2.29621,-1.07712c-0.54552,-0.60676 -0.81829,-1.33877 -0.81829,-2.19602c0,-0.58449 0.08071,-1.17732 0.24215,-1.77851c0.167,-0.60676 0.39522,-1.19125 0.68469,-1.75347c0.29503,-0.56779 0.63738,-1.09939 1.02703,-1.59482c0.38966,-0.50099 0.80994,-0.93519 1.26083,-1.30258c0.45089,-0.37296 0.91292,-0.6652 1.38608,-0.87673c0.47872,-0.2171 0.95467,-0.32564 1.42783,-0.32564c0.65129,0.08907 1.2636,0.49542 1.83696,1.21908zM252.10344,162.0843c-0.3841,0.05567 -0.7821,0.21152 -1.19403,0.46759c-0.41192,0.25607 -0.80159,0.59841 -1.16898,1.02704c-0.36182,0.42863 -0.69304,0.92684 -0.99363,1.49463c-0.30059,0.56779 -0.53439,1.18011 -0.70139,1.83696c1.14115,-0.56779 2.08747,-1.26918 2.83896,-2.10416c0.75705,-0.83498 1.1634,-1.74234 1.21907,-2.72205zM254.05095,169.79957c0.07236,-0.41192 0.19761,-0.95745 0.37574,-1.63657c0.17813,-0.67912 0.38688,-1.39999 0.62625,-2.16261c0.24493,-0.76262 0.50099,-1.52803 0.76819,-2.29621c0.27276,-0.76818 0.53718,-1.45844 0.79324,-2.07076c0.1837,-0.43976 0.34791,-0.78489 0.49265,-1.03538c0.14473,-0.2505 0.3006,-0.46203 0.46759,-0.63459c0.2004,0.02783 0.40636,0.07793 0.61789,0.15029c0.21709,0.07236 0.42585,0.15865 0.62625,0.25885c0.20039,0.1002 0.37852,0.20319 0.53439,0.30895c0.15586,0.10576 0.27554,0.20874 0.35904,0.30894c-0.3841,0.45646 -0.72366,0.97694 -1.01868,1.56143c-0.28946,0.58449 -0.58449,1.33319 -0.88508,2.24611c0.77375,-0.68469 1.45565,-1.33876 2.04571,-1.96221c0.59006,-0.62902 1.14115,-1.33041 1.65328,-2.10416c0.08907,-0.0668 0.23936,-0.1002 0.45089,-0.1002c0.2004,0 0.39245,0.0334 0.57614,0.1002c0.1837,0.06123 0.31173,0.14751 0.38409,0.25885c-0.25607,0.68469 -0.38409,1.36103 -0.38409,2.02902c0,0.62902 0.09185,1.0994 0.27554,1.41113c-0.01113,0.08907 -0.10576,0.25607 -0.28389,0.50099c-0.17813,0.23936 -0.37296,0.46481 -0.58449,0.67634c-0.38966,-0.20039 -0.73478,-0.47316 -1.03538,-0.81829c-0.29503,-0.3507 -0.51491,-0.73201 -0.65964,-1.14393c-0.66799,0.46759 -1.23856,0.92684 -1.71171,1.37773c-0.46759,0.44532 -0.86838,0.94354 -1.20238,1.49463c-0.33399,0.54552 -0.62068,1.17454 -0.86004,1.88707c-0.23379,0.71252 -0.45646,1.56142 -0.66799,2.54671c-0.12803,-0.0167 -0.28111,-0.06401 -0.45924,-0.14194c-0.17813,-0.07793 -0.35627,-0.17534 -0.5344,-0.29224c-0.17813,-0.11133 -0.33956,-0.23101 -0.48429,-0.35904c-0.13916,-0.12803 -0.23101,-0.24771 -0.27554,-0.35904z" fill-opacity="0.06667" fill="#000000" stroke="none" stroke-width="1" stroke-linecap="square"/><path d="M281.26788,154.67471c0.15587,0 0.36183,0.0501 0.61789,0.1503c0.25606,0.1002 0.52326,0.23379 0.80158,0.40079c0.27832,0.16143 0.54275,0.34513 0.79324,0.5511c0.2505,0.20596 0.45368,0.4147 0.60955,0.62624c-0.50099,0.07236 -1.13279,0.30617 -1.89542,0.70139c-0.76262,0.38966 -1.55029,0.90178 -2.36301,1.53637c-0.80716,0.63459 -1.59204,1.36938 -2.35466,2.20436c-0.76262,0.82942 -1.40278,1.7145 -1.92047,2.65526c0.34512,-0.35626 0.70974,-0.69304 1.09383,-1.01033c0.3841,-0.32286 0.77098,-0.60676 1.16064,-0.85168c0.39522,-0.2505 0.78767,-0.45368 1.17733,-0.60954c0.39522,-0.16143 0.77097,-0.24771 1.12723,-0.25884c0.30059,0.15587 0.59841,0.35904 0.89344,0.60954c0.30059,0.24493 0.57058,0.51491 0.80994,0.80994c0.24493,0.28947 0.44532,0.59841 0.60119,0.92684c0.15587,0.32842 0.23379,0.65686 0.23379,0.98528c0,0.42863 -0.1169,0.90735 -0.35069,1.43617c-0.23379,0.52326 -0.54273,1.05209 -0.92683,1.58648c-0.3841,0.53439 -0.82664,1.05209 -1.32763,1.55308c-0.50099,0.49543 -1.01033,0.94075 -1.52803,1.33597c-0.51769,0.38966 -1.03538,0.70139 -1.55307,0.93518c-0.51213,0.23937 -0.9658,0.35905 -1.36102,0.35905c-1.11331,-0.22823 -2.02346,-0.64016 -2.73041,-1.23578c-0.70695,-0.60119 -1.06043,-1.39999 -1.06043,-2.39641c0,-0.82942 0.13916,-1.69224 0.41749,-2.58846c0.27832,-0.89621 0.65129,-1.78687 1.11888,-2.67196c0.47316,-0.88509 1.02425,-1.74233 1.65327,-2.57175c0.62902,-0.83499 1.29423,-1.59482 1.99562,-2.27951c0.70695,-0.68469 1.42226,-1.28031 2.14592,-1.78687c0.72922,-0.50656 1.43617,-0.87395 2.12086,-1.10218zM280.07385,161.77209c-0.88509,0.28389 -1.69224,0.66521 -2.42146,1.14393c-0.72366,0.47872 -1.34711,1.00756 -1.87037,1.58648c-0.51769,0.57336 -0.92405,1.17455 -1.21908,1.80357c-0.28947,0.62346 -0.43419,1.22743 -0.43419,1.81192c0,0.21709 0.03618,0.43976 0.10855,0.66799c0.07236,0.22823 0.17256,0.44254 0.30059,0.64294c0.12803,0.19483 0.27555,0.37575 0.44254,0.54275c0.17257,0.16143 0.3507,0.26997 0.53439,0.32564c0.57336,-0.2672 1.16898,-0.67911 1.78687,-1.23577c0.61789,-0.55666 1.18568,-1.1662 1.70337,-1.82862c0.52326,-0.66242 0.95467,-1.33876 1.29424,-2.02901c0.34512,-0.69025 0.51769,-1.31371 0.51769,-1.87037c0,-0.28389 -0.05845,-0.56779 -0.17534,-0.85168c-0.11133,-0.28947 -0.30059,-0.52604 -0.56779,-0.70974zM284.64455,171.13229c-0.22823,-0.02783 -0.46759,-0.12525 -0.71809,-0.29224c-0.24493,-0.16143 -0.40358,-0.34235 -0.47594,-0.54274c0,-0.16699 0.02506,-0.38687 0.07515,-0.65963c0.0501,-0.27276 0.10855,-0.54552 0.17535,-0.81829c0.07236,-0.27832 0.14473,-0.54274 0.2171,-0.79323c0.07236,-0.2505 0.12247,-0.43976 0.1503,-0.56779c0.17257,0 0.38967,0.04453 0.65129,0.13359c0.26162,0.0835 0.53161,0.2004 0.80994,0.3507c0.27832,0.14473 0.54274,0.31451 0.79324,0.50934c0.2505,0.19483 0.43976,0.38966 0.56779,0.58449c-0.12803,0.28947 -0.29224,0.56222 -0.49264,0.81829c-0.2004,0.25606 -0.41192,0.47872 -0.63459,0.66799c-0.21709,0.19483 -0.42584,0.34513 -0.62624,0.4509c-0.2004,0.10577 -0.36461,0.15865 -0.49264,0.15865zM286.78211,164.3355c-0.22823,-0.02783 -0.46759,-0.12247 -0.71808,-0.2839c-0.24493,-0.16699 -0.40358,-0.35069 -0.47594,-0.55109c0,-0.16699 0.02505,-0.38687 0.07515,-0.65963c0.0501,-0.27276 0.10855,-0.54552 0.17535,-0.81829c0.07236,-0.27832 0.14473,-0.54274 0.2171,-0.79324c0.07236,-0.2505 0.12247,-0.43976 0.1503,-0.56779c0.17257,0 0.38967,0.04453 0.65129,0.1336c0.26162,0.0835 0.53161,0.2004 0.80994,0.3507c0.27832,0.14473 0.54274,0.31451 0.79324,0.50934c0.2505,0.18926 0.43976,0.38409 0.56779,0.58449c-0.12803,0.28947 -0.29224,0.56222 -0.49264,0.81829c-0.2004,0.25606 -0.41192,0.48151 -0.63459,0.67634c-0.21709,0.18926 -0.42584,0.33678 -0.62624,0.44254c-0.2004,0.10577 -0.36461,0.15865 -0.49264,0.15865z" fill-opacity="0.06667" fill="#000000" stroke="none" stroke-width="1" stroke-linecap="square"/><path d="M164.81648,214.22185c-0.30695,2.5219 -1.57797,4.44188 -2.83892,4.28841c-1.26095,-0.15347 -2.03432,-2.32228 -1.72737,-4.84418c0.30695,-2.5219 1.57797,-4.44189 2.83892,-4.28842c1.26095,0.15347 2.03432,2.32229 1.72737,4.84419z" fill="url(#color-28)" stroke="none" stroke-width="0" stroke-linecap="butt"/><path d="M176.18345,188.37931v4.25009h-10.83811v-0.75149l1.05208,-0.0167v-12.78363l-1.05208,-0.02505v-0.74314h6.93038v0.74314l-2.3296,0.02506v12.74188c1.7813,-0.62902 3.56817,-1.4139 5.36061,-2.35466l0.04175,-1.06879zM185.46382,191.51886l-3.14789,1.47793c-0.3841,-0.27276 -0.64573,-0.64572 -0.78489,-1.11888c-0.51769,0.3173 -1.03538,0.57335 -1.55307,0.76818c-0.51769,0.2004 -0.97137,0.3006 -1.36103,0.3006c-0.57892,0 -1.05487,-0.20596 -1.42782,-0.61789c-0.37296,-0.41192 -0.55944,-0.93797 -0.55944,-1.57812c0,-0.28389 0.03061,-0.59283 0.09185,-0.92683c0.0668,-0.33956 0.15029,-0.60954 0.2505,-0.80994l4.53397,-0.72643l0.04176,-0.61789c0.02783,-0.64016 -0.10855,-1.14115 -0.40914,-1.50297c-0.29503,-0.36739 -0.77932,-0.55109 -1.45288,-0.55109c-0.29503,0 -0.60675,0.0334 -0.93518,0.1002c-0.32843,0.06123 -0.60676,0.14195 -0.83499,0.24215l-0.34234,0.72644l-0.57613,-0.20875l0.98528,-3.0811c1.09662,-0.46759 2.13478,-0.70139 3.1145,-0.70139c1.01311,0 1.83975,0.2672 2.47991,0.80159c0.64572,0.53439 0.96858,1.36937 0.96858,2.50495l-0.02505,0.43419l-0.2171,2.8807l-0.04175,0.76819c0,0.25606 0.02227,0.45925 0.0668,0.60954c0.04453,0.1503 0.11689,0.30338 0.2171,0.45924l0.65964,-0.2505zM180.61255,191.41032c0.22823,0 0.48986,-0.08629 0.78489,-0.25885l-0.0167,-0.44254l0.0167,-0.47594l0.0668,-1.21908l-1.64492,0.3841c-0.05567,0.18926 -0.0835,0.43976 -0.0835,0.75149c0,0.42863 0.0835,0.74592 0.2505,0.95189c0.17256,0.20596 0.38131,0.30895 0.62624,0.30895zM196.31762,192.01151v0.61789h-4.57572v-0.61789l0.79324,-0.0668v-4.50893c0,-0.62902 -0.17534,-1.11331 -0.52604,-1.45288c-0.34512,-0.34512 -0.82385,-0.52326 -1.43617,-0.53439l-0.68469,0.70139l-0.09184,5.7948l0.79324,0.0668v0.61789h-4.59243v-0.61789l0.79324,-0.0668l-0.0668,-7.64847l-0.80994,0.19205l-0.2171,-0.64294l3.37335,-1.05208l0.75149,2.39641l1.77853,-2.5467c1.35268,0 2.34909,0.32286 2.98925,0.96858c0.64016,0.64016 0.96024,1.63101 0.96024,2.97255v5.36061zM207.56286,191.15147l-3.12285,1.69502c-0.3841,-0.22823 -0.6652,-0.53161 -0.84333,-0.91013c-0.17813,-0.37853 -0.28111,-0.86839 -0.30894,-1.46958l-2.11251,2.47992c-0.82942,0 -1.56142,-0.18649 -2.19601,-0.55944c-0.63459,-0.37853 -1.13001,-0.899 -1.48627,-1.56142c-0.35626,-0.66242 -0.53439,-1.41391 -0.53439,-2.25446c0,-0.72922 0.11968,-1.50018 0.35904,-2.31291c0.24492,-0.81272 0.53996,-1.44731 0.88509,-1.90377c0.26719,-0.3841 0.75706,-0.75705 1.46958,-1.11888c0.71252,-0.36183 1.31094,-0.54274 1.79522,-0.54274c0.42863,0 1.01311,0.06959 1.75347,0.20875l-0.04175,-3.75743l-0.80993,0.16699l-0.2171,-0.61789l3.95784,-1.19403l0.30059,0.50934l-0.1336,11.07191c0,0.51213 0.02783,0.89344 0.0835,1.14393c0.06123,0.2505 0.16421,0.4676 0.30895,0.65129l0.63459,-0.30059zM200.03964,187.28549c0,0.65686 0.10576,1.22743 0.3173,1.71172c0.2171,0.48429 0.4982,0.85447 0.84333,1.11054c0.3507,0.25606 0.72644,0.3841 1.12723,0.3841l0.96024,-0.96023l-0.04174,-4.31687c-0.92406,-0.44533 -1.8147,-0.74592 -2.67196,-0.90179c-0.35626,0.81272 -0.53439,1.80357 -0.53439,2.97255zM216.65183,182.69306c1.42505,0 2.57176,0.42028 3.44014,1.26083c0.86838,0.84055 1.30258,2.03737 1.30258,3.59044c0,0.66799 -0.11968,1.35825 -0.35904,2.07076c-0.23379,0.71252 -0.57892,1.33876 -1.03538,1.87872c-0.45089,0.44533 -0.97971,0.7988 -1.58648,1.06043c-0.60676,0.26162 -1.24412,0.39245 -1.91211,0.39245c-1.42505,0 -2.57453,-0.42028 -3.44849,-1.26083c-0.86838,-0.84055 -1.30258,-2.03737 -1.30258,-3.59044c0,-0.65129 0.11968,-1.33319 0.35904,-2.04571c0.24492,-0.71252 0.59563,-1.34155 1.05209,-1.88707c0.45646,-0.43976 0.98807,-0.79323 1.59483,-1.06043c0.60676,-0.27276 1.23856,-0.40914 1.89542,-0.40914zM214.83156,187.06839c0,1.35825 0.26719,2.37136 0.80158,3.03935c0.53439,0.66799 1.32207,1.066 2.36302,1.19403c0.1002,-0.42863 0.17812,-0.90457 0.23379,-1.42782c0.05567,-0.52882 0.0835,-0.96302 0.0835,-1.30258c0,-1.36937 -0.2672,-2.38527 -0.80159,-3.04769c-0.53439,-0.66242 -1.31371,-1.05765 -2.33796,-1.18568c-0.1002,0.43976 -0.1837,0.92405 -0.2505,1.45288c-0.06123,0.52882 -0.09185,0.95466 -0.09185,1.27753zM224.6844,178.86047c0.0835,0.65686 0.26997,1.4167 0.55944,2.27952c0.29503,0.86282 0.565,1.48628 0.80994,1.87037h1.87872v0.90178l-1.85367,-0.0668l-0.0501,8.09937l1.65327,0.0668v0.61789h-5.45246v-0.61789l0.78489,-0.0668l-0.04175,-8.14111h-1.19402v-0.79323h1.13558c-0.1169,-0.3841 -0.22267,-0.84611 -0.3173,-1.38608c-0.08907,-0.54552 -0.1336,-1.01033 -0.1336,-1.39443c0,-0.2672 0.00557,-0.46481 0.0167,-0.59284c0.12803,-0.37296 0.3674,-0.71251 0.71809,-1.01868c0.3507,-0.30617 0.74314,-0.54831 1.17733,-0.72644c0.43419,-0.17813 0.83777,-0.26719 1.21073,-0.26719c0.62346,0 1.25248,0.09741 1.88707,0.29224c0.63459,0.18926 1.20238,0.43976 1.70337,0.75149l-1.77852,2.54671c-0.32842,-0.37296 -0.7487,-0.77932 -1.26083,-1.21908c-0.51213,-0.43976 -0.99642,-0.81829 -1.45288,-1.13558zM250.65913,191.87791v0.75149h-5.92005v-0.75149l1.15228,-0.0167l-1.00199,-10.96336l-4.13317,9.33514h-0.65964l-4.42543,-9.40194l-0.40079,11.03017l1.15228,0.0167v0.75149h-4.68427v-0.75149l0.83498,-0.0167l2.05407,-12.78363l-1.17732,-0.02505v-0.74313h4.91807l3.44014,6.98883l2.97255,-6.98883h4.42542v0.74314l-1.13558,0.02505l1.75347,12.78364zM256.11023,182.69306c1.25248,0 2.23776,0.45367 2.95585,1.36103c0.72366,0.90179 1.07713,2.12086 1.06043,3.65724l-5.90335,0.19205c0.1002,0.84055 0.39245,1.48349 0.87674,1.92882c0.48429,0.43976 1.12724,0.65964 1.92882,0.65964c1.10775,0 2.01232,-0.30616 2.71371,-0.91848l0.3841,0.34234c-0.50099,0.95189 -1.17455,1.69503 -2.02067,2.22942c-0.84611,0.53439 -1.74791,0.80159 -2.70535,0.80159c-1.29701,0 -2.32683,-0.42862 -3.08945,-1.28588c-0.76262,-0.86282 -1.14393,-2.02902 -1.14393,-3.49859c0,-0.86838 0.17535,-1.72841 0.52605,-2.5801c0.35069,-0.85726 0.79602,-1.57256 1.33598,-2.14592c0.37296,-0.21153 0.85168,-0.38688 1.43617,-0.52604c0.58449,-0.14473 1.13279,-0.2171 1.64493,-0.2171zM256.96192,187.00994c-0.01113,-0.99642 -0.15308,-1.78687 -0.42584,-2.37136c-0.27276,-0.58449 -0.65685,-0.93519 -1.15228,-1.05209c-0.35626,0.37296 -0.64572,0.89066 -0.86839,1.55308c-0.22267,0.66242 -0.33399,1.34154 -0.33399,2.03736v0.0668zM276.58375,192.01151v0.61789h-4.57573v-0.61789l0.79324,-0.0668v-4.50893c0,-0.62902 -0.16143,-1.1161 -0.48429,-1.46123c-0.3173,-0.35069 -0.76262,-0.53439 -1.33598,-0.55109l-0.78489,0.79324v0.36739v5.36061l0.76819,0.0668v0.61789h-4.57573v-0.61789l0.79324,-0.0668v-4.50893c0,-0.62902 -0.16143,-1.11331 -0.48429,-1.45287c-0.3173,-0.34512 -0.76262,-0.52326 -1.33598,-0.53439l-0.70139,0.70139l-0.09184,5.7948l0.79324,0.0668v0.61789h-4.59242v-0.61789l0.79324,-0.0668l-0.0668,-7.64847l-0.80993,0.19205l-0.2171,-0.64294l3.37335,-1.05208l0.75149,2.39641l1.77853,-2.5467c1.09661,0 1.94552,0.22266 2.54671,0.66799c0.60676,0.43976 0.99642,1.12445 1.16898,2.05407l1.90376,-2.73876c1.30815,0 2.27117,0.32008 2.88906,0.96024c0.62346,0.64016 0.93518,1.63936 0.93518,2.9976v5.36061zM282.12536,182.69306c1.42505,0 2.57176,0.42028 3.44014,1.26083c0.86838,0.84055 1.30257,2.03737 1.30257,3.59044c0,0.66799 -0.11968,1.35825 -0.35904,2.07076c-0.23379,0.71252 -0.57892,1.33876 -1.03538,1.87872c-0.45089,0.44533 -0.97971,0.7988 -1.58648,1.06043c-0.60676,0.26162 -1.24413,0.39245 -1.91212,0.39245c-1.42505,0 -2.57454,-0.42028 -3.44849,-1.26083c-0.86838,-0.84055 -1.30258,-2.03737 -1.30258,-3.59044c0,-0.65129 0.11968,-1.33319 0.35905,-2.04571c0.24493,-0.71252 0.59562,-1.34155 1.05208,-1.88707c0.45646,-0.43976 0.98806,-0.79323 1.59482,-1.06043c0.60676,-0.27276 1.23857,-0.40914 1.89543,-0.40914zM280.30509,187.06839c0,1.35825 0.2672,2.37136 0.80159,3.03935c0.53439,0.66799 1.32206,1.066 2.36301,1.19403c0.1002,-0.42863 0.17813,-0.90457 0.2338,-1.42782c0.05567,-0.52882 0.08349,-0.96302 0.08349,-1.30258c0,-1.36937 -0.2672,-2.38527 -0.80158,-3.04769c-0.53439,-0.66242 -1.31371,-1.05765 -2.33796,-1.18568c-0.1002,0.43976 -0.1837,0.92405 -0.2505,1.45288c-0.06123,0.52882 -0.09185,0.95466 -0.09185,1.27753zM291.44379,185.94116l-0.09184,6.00355l1.90376,0.0668v0.61789h-5.70295v-0.61789l0.79324,-0.0668l-0.0668,-7.64847l-0.80993,0.19205l-0.2171,-0.64294l3.37335,-1.05208l0.72644,2.28786c0.47316,-0.95189 0.98807,-1.69224 1.54473,-2.22107c0.31173,-0.11133 0.68748,-0.16699 1.12723,-0.16699c0.60119,0 1.16619,0.10577 1.69502,0.3173l-0.68469,2.78051c-0.41192,-0.08907 -0.94076,-0.167 -1.58648,-0.2338c-0.64016,-0.07236 -1.1662,-0.12247 -1.57812,-0.1503zM296.95903,178.50143l2.73041,-0.61789v2.42982l-2.7304,0.40914zM299.90654,191.94471l0.79324,0.0668v0.61789h-4.60077v-0.61789l0.79324,-0.0668l-0.0668,-7.60672l-0.80993,0.16699l-0.2171,-0.61789l3.87434,-1.19403l0.30059,0.50934zM306.49257,182.69306c1.25248,0 2.23776,0.45367 2.95585,1.36103c0.72366,0.90179 1.07713,2.12086 1.06043,3.65724l-5.90335,0.19205c0.1002,0.84055 0.39245,1.48349 0.87673,1.92882c0.48429,0.43976 1.12724,0.65964 1.92882,0.65964c1.10775,0 2.01232,-0.30616 2.71371,-0.91848l0.38409,0.34234c-0.50099,0.95189 -1.17455,1.69503 -2.02066,2.22942c-0.84611,0.53439 -1.74791,0.80159 -2.70535,0.80159c-1.29701,0 -2.32682,-0.42862 -3.08945,-1.28588c-0.76262,-0.86282 -1.14393,-2.02902 -1.14393,-3.49859c0,-0.86838 0.17535,-1.72841 0.52605,-2.5801c0.35069,-0.85726 0.79601,-1.57256 1.33597,-2.14592c0.37296,-0.21153 0.85169,-0.38688 1.43618,-0.52604c0.58449,-0.14473 1.13279,-0.2171 1.64493,-0.2171zM307.34425,187.00994c-0.01113,-0.99642 -0.15308,-1.78687 -0.42584,-2.37136c-0.27276,-0.58449 -0.65686,-0.93519 -1.15228,-1.05209c-0.35626,0.37296 -0.64572,0.89066 -0.86838,1.55308c-0.22267,0.66242 -0.334,1.34154 -0.334,2.03736v0.0668zM314.35445,184.61353c0,0.3841 0.15308,0.73478 0.45925,1.05208c0.30617,0.31173 0.77375,0.68191 1.40277,1.11054c0.76819,0.52326 1.35268,0.99919 1.75348,1.42782c0.4008,0.42863 0.60119,0.95745 0.60119,1.58648c0,0.55109 -0.16422,1.06878 -0.49264,1.55307c-0.32842,0.48429 -0.79324,0.87396 -1.39443,1.16898c-0.59562,0.28947 -1.28031,0.43419 -2.05406,0.43419c-0.74036,0 -1.44175,-0.17813 -2.10417,-0.5344c-0.66242,-0.35626 -1.1495,-0.80993 -1.46122,-1.36102l1.83697,-1.47792c0.57336,1.06878 1.15785,1.94552 1.75347,2.63021c0.24493,-0.1837 0.44811,-0.4008 0.60954,-0.65129c0.16143,-0.2505 0.24215,-0.49821 0.24215,-0.74313c0,-0.39522 -0.14751,-0.73757 -0.44254,-1.02703c-0.28947,-0.29503 -0.74036,-0.64851 -1.35268,-1.06043c-0.49543,-0.32842 -0.89343,-0.61232 -1.19403,-0.85169c-0.30059,-0.24493 -0.55388,-0.53718 -0.75984,-0.87673c-0.20596,-0.34512 -0.30894,-0.732 -0.30894,-1.16062c0,-0.52882 0.17257,-1.03539 0.5177,-1.51968c0.35069,-0.48429 0.84055,-0.87395 1.46958,-1.16898c0.62902,-0.30059 1.34154,-0.4509 2.13756,-0.4509c0.61232,0 1.19125,0.13082 1.73677,0.39245c0.55109,0.26162 0.9992,0.59284 1.34433,0.99363l-1.66998,1.64493c-0.68469,-0.86838 -1.43896,-1.64492 -2.26281,-2.32961c-0.24493,0.31173 -0.36739,0.71809 -0.36739,1.21908zM313.65306,192.6294h0.0167z" fill="#000000" stroke="none" stroke-width="1" stroke-linecap="square"/><path d="M194.97175,164.01627c0,-0.99642 0.11689,-1.97613 0.35069,-2.93915c0.23379,-0.96302 0.56501,-1.87315 0.99364,-2.7304c0.42863,-0.86282 0.93797,-1.65327 1.52803,-2.37136c0.59006,-0.72365 1.23856,-1.34711 1.94552,-1.87037c0.70695,-0.52882 1.45844,-0.93797 2.25446,-1.22743c0.79602,-0.29502 1.61431,-0.44254 2.45486,-0.44254c0.98528,0 1.75068,0.20596 2.29621,0.61789c0.55109,0.41192 0.82664,0.98807 0.82664,1.72842c0,0.28947 -0.03897,0.58449 -0.1169,0.88509c-0.07793,0.29502 -0.19204,0.59006 -0.34234,0.88509c-0.1503,0.28947 -0.32565,0.57058 -0.52604,0.84334c-0.2004,0.26719 -0.42028,0.50099 -0.65963,0.70139c-0.37296,-0.05567 -0.69582,-0.22267 -0.96859,-0.50099c-0.2672,-0.27832 -0.43698,-0.60398 -0.50934,-0.97693c0.50099,-0.41192 0.89621,-0.84055 1.18568,-1.28588c0.29503,-0.45089 0.44254,-0.86282 0.44254,-1.23577c0,-0.62346 -0.39244,-0.93518 -1.17732,-0.93518c-0.32842,0 -0.66799,0.06679 -1.01869,0.20039c-0.34512,0.1336 -0.69582,0.32287 -1.05208,0.56779c-0.35626,0.23936 -0.70417,0.53161 -1.04373,0.87674c-0.334,0.33956 -0.64294,0.71808 -0.92683,1.13558c-1.9817,2.85009 -2.97255,5.76419 -2.97255,8.74231c0,1.05208 0.16421,1.89819 0.49264,2.53835c0.32842,0.64016 0.76262,1.01869 1.30258,1.13558c0.61232,-0.14473 1.38886,-0.53718 2.32961,-1.17733c0.94076,-0.64016 1.96778,-1.47236 3.0811,-2.4966c0.14473,0.13916 0.23102,0.28668 0.25885,0.44254c-0.41192,0.54552 -0.84055,1.06878 -1.28588,1.56977c-0.43976,0.49543 -0.87673,0.9491 -1.31092,1.36103c-0.43419,0.41192 -0.86282,0.77376 -1.28588,1.08548c-0.41749,0.3173 -0.80437,0.56223 -1.16063,0.73479c-1.77017,-0.02783 -3.11172,-0.53439 -4.02463,-1.51968c-0.90735,-0.98529 -1.36102,-2.43259 -1.36102,-4.34193zM206.76908,167.84051c0,-0.49543 0.0501,-1.07991 0.1503,-1.75347c0.1002,-0.67912 0.24493,-1.40278 0.43419,-2.17096c0.19483,-0.77375 0.42307,-1.58091 0.68469,-2.42146c0.26162,-0.84055 0.55666,-1.6811 0.88509,-2.52166c0.28947,-0.75706 0.62068,-1.51968 0.99363,-2.28786c0.37853,-0.76819 0.78768,-1.52246 1.22744,-2.26281c0.44533,-0.74035 0.90457,-1.44452 1.37773,-2.11252c0.47872,-0.67355 0.96024,-1.28866 1.44452,-1.84531c0.22823,0 0.47317,0.03062 0.73479,0.09185c0.2672,0.05567 0.52604,0.13081 0.77654,0.22545c0.2505,0.08907 0.47872,0.19762 0.68469,0.32565c0.20596,0.12803 0.37297,0.25606 0.501,0.38409c-1.06878,1.09661 -2.0318,2.20436 -2.88906,3.32324c-0.85168,1.11888 -1.52802,2.17096 -2.02901,3.15625c-0.2672,0.53996 -0.51213,1.04651 -0.73479,1.51968c-0.22267,0.46759 -0.42584,0.9324 -0.60953,1.39443c-0.1837,0.46203 -0.3507,0.92684 -0.50099,1.39443c-0.1503,0.46203 -0.28946,0.9491 -0.41749,1.46123c2.73318,-3.49024 4.7622,-5.23536 6.08705,-5.23536c0.37296,0 0.77375,0.12247 1.20238,0.3674c0.42863,0.23936 0.80716,0.565 1.13558,0.97693c-0.44533,0.48429 -0.90457,1.06878 -1.37772,1.75347c-0.46759,0.68469 -0.899,1.37216 -1.29422,2.06242c-0.38966,0.69026 -0.70974,1.33319 -0.96023,1.92882c-0.24493,0.59006 -0.36739,1.02704 -0.36739,1.31093c0,0.13916 0.01948,0.2338 0.05845,0.2839c0.04453,0.0501 0.13917,0.07515 0.2839,0.07515c0.21153,0 0.3813,-0.02783 0.50934,-0.0835c0.12803,-0.05567 0.20597,-0.08349 0.2338,-0.08349c0.07236,0.11133 0.11411,0.18926 0.12525,0.23379c0.0167,0.04453 0.02505,0.08071 0.02505,0.10855c0,0.05567 -0.08628,0.13639 -0.25884,0.24215c-0.16699,0.10576 -0.37018,0.21431 -0.60954,0.32564c-0.23379,0.10576 -0.46481,0.2004 -0.69304,0.2839c-0.22823,0.08907 -0.39801,0.1336 -0.50934,0.1336c-0.14473,0 -0.28946,-0.04175 -0.43419,-0.12525c-0.13916,-0.07793 -0.26163,-0.18091 -0.36739,-0.30894c-0.10577,-0.12803 -0.19205,-0.26998 -0.25885,-0.42584c-0.06123,-0.15587 -0.09184,-0.32008 -0.09184,-0.49264c0,-0.21153 0.05845,-0.52604 0.17535,-0.94353c0.12246,-0.42306 0.28946,-0.9157 0.50099,-1.47792c0.21709,-0.56222 0.47595,-1.17733 0.77654,-1.84532c0.30059,-0.67355 0.62068,-1.35825 0.96024,-2.05407c0,-0.06123 -0.02783,-0.09184 -0.0835,-0.09184c-0.04453,0 -0.15587,0.05845 -0.334,0.17535c-0.17813,0.11133 -0.34512,0.22545 -0.50099,0.34235c-0.51213,0.3841 -1.02981,0.85726 -1.55307,1.41948c-0.51769,0.56222 -1.02425,1.18011 -1.51968,1.85367c-0.48986,0.66799 -0.95188,1.37773 -1.38608,2.12922c-0.43419,0.74592 -0.80715,1.49463 -1.11888,2.24612c-0.04453,0.1002 -0.11133,0.19205 -0.2004,0.27555c-0.0835,0.08907 -0.15308,0.1336 -0.20874,0.1336c-0.04453,0 -0.10577,-0.0501 -0.1837,-0.1503c-0.07793,-0.1002 -0.1503,-0.22545 -0.2171,-0.37574c-0.06123,-0.15029 -0.11969,-0.30338 -0.17534,-0.45924c-0.05567,-0.15587 -0.0835,-0.29224 -0.0835,-0.40914zM225.21822,159.57415c0.13916,0 0.30338,0.02505 0.49265,0.07515c0.19483,0.0501 0.37018,0.11411 0.52604,0.19205c0.16143,0.07793 0.29503,0.16143 0.40079,0.2505c0.10577,0.0835 0.15865,0.15865 0.15865,0.22545c-0.28389,0.60119 -0.54831,1.20516 -0.79323,1.81192c-0.23937,0.60119 -0.44532,1.18012 -0.61789,1.73677c-0.17257,0.55666 -0.30616,1.07713 -0.40079,1.56142c-0.08907,0.48429 -0.1336,0.90457 -0.1336,1.26083c0,0.40079 0.04175,0.73479 0.12525,1.00199c0.08907,0.26163 0.23379,0.4481 0.43419,0.55944c-0.17257,0.1169 -0.39523,0.20875 -0.66799,0.27555c-0.2672,0.07236 -0.50934,0.10855 -0.72643,0.10855c-0.76819,0 -1.15228,-0.52604 -1.15228,-1.57812c0,-0.81272 0.26998,-1.92604 0.80994,-3.33994c-0.28389,0.65686 -0.61233,1.27475 -0.98529,1.85367c-0.36739,0.57892 -0.74313,1.08826 -1.12723,1.52802c-0.3841,0.43976 -0.77375,0.7988 -1.16898,1.07713c-0.38966,0.27832 -0.74871,0.44533 -1.07713,0.501c-0.52882,-0.02783 -0.95745,-0.27833 -1.28588,-0.75149c-0.32842,-0.47872 -0.49264,-1.08827 -0.49264,-1.82862c0,-0.80158 0.16978,-1.64214 0.50935,-2.52166c0.34512,-0.88509 0.78489,-1.70616 1.31928,-2.46321c0.53439,-0.75706 1.11609,-1.38607 1.74512,-1.88706c0.62902,-0.50656 1.23578,-0.77376 1.82027,-0.80159c0.13916,0.03897 0.29781,0.12247 0.47595,0.2505c0.17813,0.12803 0.34791,0.27833 0.50934,0.4509c0.16699,0.17256 0.30616,0.34791 0.41749,0.52604c0.1169,0.17813 0.1837,0.33121 0.2004,0.45925c-0.57336,0.0835 -1.16341,0.36182 -1.77017,0.83498c-0.60119,0.46759 -1.1495,1.0326 -1.64492,1.69503c-0.48986,0.66242 -0.89343,1.37216 -1.21072,2.12921c-0.31173,0.75706 -0.4676,1.46123 -0.4676,2.11252c0,0.27276 0.1002,0.44533 0.30059,0.5177c0.41192,-0.08907 0.88787,-0.44254 1.42783,-1.06043c0.54552,-0.61789 1.20238,-1.57534 1.97056,-2.87235c0.14473,-0.25607 0.30617,-0.53996 0.4843,-0.85169c0.17813,-0.3173 0.35904,-0.64571 0.54274,-0.98528c0.1837,-0.34512 0.36461,-0.69026 0.54275,-1.03539c0.17813,-0.3507 0.34791,-0.69025 0.50934,-1.01868zM226.32208,175.28023c-0.19483,-0.05567 -0.30894,-0.26719 -0.34234,-0.63459c-0.05567,-0.18927 -0.09463,-0.41192 -0.1169,-0.66799c-0.0167,-0.25607 -0.02504,-0.54831 -0.02504,-0.87673c0,-0.30059 0.04732,-0.70973 0.14195,-1.22742c0.1002,-0.51769 0.23936,-1.10497 0.41749,-1.76182c0.17813,-0.65686 0.39523,-1.36659 0.65129,-2.12921c0.26162,-0.76262 0.54831,-1.53638 0.86004,-2.32126c0.3841,-0.97971 0.71809,-1.82862 1.00198,-2.54671c0.28389,-0.72366 0.52326,-1.34711 0.71809,-1.87037c0.19483,-0.52883 0.35069,-0.96301 0.46759,-1.30258c0.12246,-0.34512 0.21989,-0.64016 0.29225,-0.88508c0.05567,-0.16699 0.13916,-0.37018 0.2505,-0.60954c0.1169,-0.24492 0.2505,-0.49264 0.4008,-0.74313c0.1503,-0.2505 0.30338,-0.48429 0.45924,-0.70139c0.15587,-0.22267 0.29781,-0.39244 0.42585,-0.50934c0.50099,0.07236 0.97137,0.2004 1.41113,0.3841c0.43976,0.1837 0.70974,0.36182 0.80993,0.53439c-0.19483,0.1837 -0.42306,0.47316 -0.68469,0.86839c-0.25606,0.38966 -0.50657,0.81829 -0.75149,1.28588c-0.23937,0.46203 -0.45924,0.93519 -0.65963,1.41948c-0.19483,0.48429 -0.34234,0.91013 -0.44254,1.27753c0.13916,-0.23936 0.32286,-0.50099 0.55109,-0.78488c0.22823,-0.28947 0.57893,-0.68191 1.05209,-1.17733c0.52326,-0.53996 1.01589,-0.95467 1.47792,-1.24412c0.46759,-0.29503 0.87117,-0.44254 1.21073,-0.44254c0.54552,0 0.99085,0.1503 1.33598,0.45089c0.35069,0.29503 0.52605,0.67912 0.52605,1.15228c0,1.02425 -0.17257,2.04015 -0.51769,3.0477c-0.33956,1.00198 -0.82942,1.90933 -1.46958,2.72205c-0.24493,0.31172 -0.53161,0.60954 -0.86003,0.89344c-0.32286,0.2839 -0.66242,0.53717 -1.01869,0.75984c-0.35626,0.22267 -0.70695,0.39801 -1.05208,0.52605c-0.33956,0.12803 -0.64572,0.19205 -0.91848,0.19205c-0.25606,0 -0.4815,-0.05289 -0.67633,-0.15865c-0.18926,-0.10576 -0.32008,-0.23936 -0.39244,-0.40079c0.55666,-0.32843 1.09661,-0.78211 1.61987,-1.36103c0.52882,-0.58449 1.01869,-1.25805 1.46958,-2.02067c0.45089,-0.76262 0.84334,-1.58647 1.17733,-2.47156c0.334,-0.88509 0.58727,-1.78409 0.75984,-2.697c-0.54552,0.28947 -1.03538,0.60119 -1.46957,0.93518c-0.43419,0.33399 -0.86282,0.77097 -1.28588,1.31093c-0.51769,0.62902 -0.92683,1.13558 -1.22742,1.51967c-0.29503,0.3841 -0.53996,0.71252 -0.73479,0.98529c-0.18926,0.26719 -0.34512,0.52048 -0.46759,0.75984c-0.12246,0.23379 -0.25328,0.52047 -0.39244,0.86004c-0.2004,0.45646 -0.43419,1.06044 -0.70139,1.81193c-0.26162,0.74592 -0.53161,1.5809 -0.80993,2.50495c-0.27832,0.92962 -0.55666,1.91769 -0.83499,2.9642c-0.27832,1.04651 -0.54552,2.09025 -0.80158,3.1312c-0.15587,-0.02783 -0.28946,-0.14195 -0.40079,-0.34234c-0.1169,-0.12803 -0.2004,-0.22267 -0.2505,-0.2839c-0.0501,-0.05567 -0.11133,-0.09742 -0.1837,-0.12525zM239.66114,160.02504c-0.0668,-0.08907 -0.13081,-0.27277 -0.19205,-0.55109c-0.05567,-0.27832 -0.0835,-0.51769 -0.0835,-0.71809c0.37296,0.0334 0.72922,0.06123 1.06878,0.08349c0.34512,0.0167 0.65965,0.0334 0.94354,0.0501c0.21153,-0.42863 0.44254,-0.85169 0.69304,-1.26918c0.2505,-0.42306 0.49265,-0.80715 0.72644,-1.15228c0.23379,-0.3507 0.45368,-0.64572 0.65964,-0.88509c0.20596,-0.24492 0.36739,-0.40358 0.48429,-0.47594c0.14473,0 0.32565,0.02506 0.54274,0.07515c0.22267,0.0501 0.44811,0.11412 0.67634,0.19205c0.22823,0.07793 0.4342,0.16143 0.61789,0.2505c0.1837,0.0835 0.31173,0.167 0.3841,0.2505c-0.42863,0.53996 -0.79602,1.04373 -1.10218,1.51132c-0.30617,0.46203 -0.63738,0.99086 -0.99363,1.58648c0.2839,0 0.57057,-0.00557 0.86004,-0.0167c0.29503,-0.0167 0.59285,-0.03897 0.89344,-0.0668c0.07236,0.07236 0.12802,0.16143 0.16699,0.26719c0.04453,0.10576 0.0668,0.2171 0.0668,0.334c-0.69582,0.25607 -1.54194,0.39801 -2.53836,0.42584c-0.35626,0.68469 -0.67356,1.3666 -0.95189,2.04572c-0.27832,0.67355 -0.5149,1.32484 -0.70973,1.95386c-0.18926,0.62346 -0.33956,1.21351 -0.4509,1.77017c-0.10577,0.55666 -0.15864,1.05487 -0.15864,1.49463c0,0.62902 0.23658,0.97971 0.70974,1.05208c0.42863,-0.06123 0.83498,-0.16978 1.21908,-0.32564c0.3841,-0.15587 0.72644,-0.35627 1.02704,-0.60119c0.0835,0.1336 0.1336,0.24215 0.1503,0.32565c-0.08907,0.12803 -0.23658,0.27833 -0.44254,0.45089c-0.20596,0.16699 -0.43141,0.33121 -0.67633,0.49264c-0.23937,0.16699 -0.47316,0.30616 -0.70139,0.4175c-0.22823,0.1169 -0.39801,0.1837 -0.50934,0.2004c-0.35626,-0.0167 -0.71252,-0.09741 -1.06878,-0.24214c-0.35626,-0.13916 -0.6819,-0.3173 -0.97693,-0.53439c-0.28947,-0.21153 -0.52883,-0.44811 -0.71809,-0.70973c-0.1837,-0.26719 -0.27554,-0.52882 -0.27554,-0.78489c0,-0.33956 0.04453,-0.76819 0.1336,-1.28588c0.09463,-0.52326 0.22823,-1.09105 0.4008,-1.70337c0.17257,-0.61232 0.37296,-1.25248 0.60119,-1.92047c0.22823,-0.67355 0.47595,-1.33597 0.74314,-1.98726zM253.58137,159.35705c-0.05567,0.88509 -0.21432,1.64492 -0.47594,2.27951c-0.25607,0.63459 -0.62346,1.19125 -1.10218,1.66997c-0.47316,0.47316 -1.05208,0.90178 -1.73677,1.28588c-0.68469,0.3841 -1.48349,0.75427 -2.39641,1.11053c0,0.08907 -0.00278,0.18091 -0.00834,0.27555c-0.00557,0.08907 -0.00835,0.1837 -0.00835,0.2839c0,0.1837 0.01392,0.37575 0.04175,0.57614c0.02783,0.20039 0.07793,0.38688 0.1503,0.55944c0.07236,0.167 0.17256,0.30616 0.3006,0.41749c0.12803,0.10576 0.28946,0.15865 0.48429,0.15865c0.38966,0 0.76819,-0.08629 1.13558,-0.25885c0.37296,-0.17256 0.72644,-0.38131 1.06043,-0.62624c0.334,-0.2505 0.64572,-0.52048 0.93519,-0.80993c0.29503,-0.29503 0.55665,-0.56501 0.78489,-0.80993c0.14473,0.12803 0.26441,0.2505 0.35904,0.36739c-0.64016,0.85169 -1.34154,1.56143 -2.10416,2.12922c-0.76262,0.56222 -1.48627,0.92127 -2.17096,1.07713c-0.97971,-0.1169 -1.74512,-0.47593 -2.29621,-1.07712c-0.54552,-0.60676 -0.81829,-1.33877 -0.81829,-2.19602c0,-0.58449 0.08071,-1.17732 0.24215,-1.77851c0.167,-0.60676 0.39522,-1.19125 0.68469,-1.75347c0.29503,-0.56779 0.63738,-1.09939 1.02703,-1.59482c0.38966,-0.50099 0.80994,-0.93519 1.26083,-1.30258c0.45089,-0.37296 0.91292,-0.6652 1.38608,-0.87673c0.47872,-0.2171 0.95467,-0.32564 1.42783,-0.32564c0.65129,0.08907 1.2636,0.49542 1.83696,1.21908zM252.10344,160.06679c-0.3841,0.05567 -0.7821,0.21152 -1.19403,0.46759c-0.41192,0.25607 -0.80159,0.59841 -1.16898,1.02704c-0.36182,0.42863 -0.69304,0.92684 -0.99363,1.49463c-0.30059,0.56779 -0.53439,1.18011 -0.70139,1.83696c1.14115,-0.56779 2.08747,-1.26918 2.83896,-2.10416c0.75705,-0.83498 1.1634,-1.74234 1.21907,-2.72205zM254.05095,167.78206c0.07236,-0.41192 0.19761,-0.95745 0.37574,-1.63657c0.17813,-0.67912 0.38688,-1.39999 0.62625,-2.16261c0.24493,-0.76262 0.50099,-1.52803 0.76819,-2.29621c0.27276,-0.76818 0.53718,-1.45844 0.79324,-2.07076c0.1837,-0.43976 0.34791,-0.78489 0.49265,-1.03538c0.14473,-0.2505 0.3006,-0.46203 0.46759,-0.63459c0.2004,0.02783 0.40636,0.07793 0.61789,0.15029c0.21709,0.07236 0.42585,0.15865 0.62625,0.25885c0.20039,0.1002 0.37852,0.20319 0.53439,0.30895c0.15586,0.10576 0.27554,0.20874 0.35904,0.30894c-0.3841,0.45646 -0.72366,0.97694 -1.01868,1.56143c-0.28946,0.58449 -0.58449,1.33319 -0.88508,2.24611c0.77375,-0.68469 1.45565,-1.33876 2.04571,-1.96221c0.59006,-0.62902 1.14115,-1.33041 1.65328,-2.10416c0.08907,-0.0668 0.23936,-0.1002 0.45089,-0.1002c0.2004,0 0.39245,0.0334 0.57614,0.1002c0.1837,0.06123 0.31173,0.14751 0.38409,0.25885c-0.25607,0.68469 -0.38409,1.36103 -0.38409,2.02902c0,0.62902 0.09185,1.0994 0.27554,1.41113c-0.01113,0.08907 -0.10576,0.25607 -0.28389,0.50099c-0.17813,0.23936 -0.37296,0.46481 -0.58449,0.67634c-0.38966,-0.20039 -0.73478,-0.47316 -1.03538,-0.81829c-0.29503,-0.3507 -0.51491,-0.73201 -0.65964,-1.14393c-0.66799,0.46759 -1.23856,0.92684 -1.71171,1.37773c-0.46759,0.44532 -0.86838,0.94354 -1.20238,1.49463c-0.33399,0.54552 -0.62068,1.17454 -0.86004,1.88707c-0.23379,0.71252 -0.45646,1.56142 -0.66799,2.54671c-0.12803,-0.0167 -0.28111,-0.06401 -0.45924,-0.14194c-0.17813,-0.07793 -0.35627,-0.17534 -0.5344,-0.29224c-0.17813,-0.11133 -0.33956,-0.23101 -0.48429,-0.35904c-0.13916,-0.12803 -0.23101,-0.24771 -0.27554,-0.35904z" fill="#000000" stroke="none" stroke-width="1" stroke-linecap="square"/><path d="M281.26788,152.6572c0.15587,0 0.36183,0.0501 0.61789,0.1503c0.25606,0.1002 0.52326,0.23379 0.80158,0.40079c0.27832,0.16143 0.54275,0.34513 0.79324,0.5511c0.2505,0.20596 0.45368,0.4147 0.60955,0.62624c-0.50099,0.07236 -1.13279,0.30617 -1.89542,0.70139c-0.76262,0.38966 -1.55029,0.90178 -2.36301,1.53637c-0.80716,0.63459 -1.59204,1.36938 -2.35466,2.20436c-0.76262,0.82942 -1.40278,1.7145 -1.92047,2.65526c0.34512,-0.35626 0.70974,-0.69304 1.09383,-1.01033c0.3841,-0.32286 0.77098,-0.60676 1.16064,-0.85168c0.39522,-0.2505 0.78767,-0.45368 1.17733,-0.60954c0.39522,-0.16143 0.77097,-0.24771 1.12723,-0.25884c0.30059,0.15587 0.59841,0.35904 0.89344,0.60954c0.30059,0.24493 0.57058,0.51491 0.80994,0.80994c0.24493,0.28947 0.44532,0.59841 0.60119,0.92684c0.15587,0.32842 0.23379,0.65686 0.23379,0.98528c0,0.42863 -0.1169,0.90735 -0.35069,1.43617c-0.23379,0.52326 -0.54273,1.05209 -0.92683,1.58648c-0.3841,0.53439 -0.82664,1.05209 -1.32763,1.55308c-0.50099,0.49543 -1.01033,0.94075 -1.52803,1.33597c-0.51769,0.38966 -1.03538,0.70139 -1.55307,0.93518c-0.51213,0.23937 -0.9658,0.35905 -1.36102,0.35905c-1.11331,-0.22823 -2.02346,-0.64016 -2.73041,-1.23578c-0.70695,-0.60119 -1.06043,-1.39999 -1.06043,-2.39641c0,-0.82942 0.13916,-1.69224 0.41749,-2.58846c0.27832,-0.89621 0.65129,-1.78687 1.11888,-2.67196c0.47316,-0.88509 1.02425,-1.74233 1.65327,-2.57175c0.62902,-0.83499 1.29423,-1.59482 1.99562,-2.27951c0.70695,-0.68469 1.42226,-1.28031 2.14592,-1.78687c0.72922,-0.50656 1.43617,-0.87395 2.12086,-1.10218zM280.07385,159.75458c-0.88509,0.28389 -1.69224,0.66521 -2.42146,1.14393c-0.72366,0.47872 -1.34711,1.00756 -1.87037,1.58648c-0.51769,0.57336 -0.92405,1.17455 -1.21908,1.80357c-0.28947,0.62346 -0.43419,1.22743 -0.43419,1.81192c0,0.21709 0.03618,0.43976 0.10855,0.66799c0.07236,0.22823 0.17256,0.44254 0.30059,0.64294c0.12803,0.19483 0.27555,0.37575 0.44254,0.54275c0.17257,0.16143 0.3507,0.26997 0.53439,0.32564c0.57336,-0.2672 1.16898,-0.67911 1.78687,-1.23577c0.61789,-0.55666 1.18568,-1.1662 1.70337,-1.82862c0.52326,-0.66242 0.95467,-1.33876 1.29424,-2.02901c0.34512,-0.69025 0.51769,-1.31371 0.51769,-1.87037c0,-0.28389 -0.05845,-0.56779 -0.17534,-0.85168c-0.11133,-0.28947 -0.30059,-0.52604 -0.56779,-0.70974zM284.64455,169.11478c-0.22823,-0.02783 -0.46759,-0.12525 -0.71809,-0.29224c-0.24493,-0.16143 -0.40358,-0.34235 -0.47594,-0.54274c0,-0.16699 0.02506,-0.38687 0.07515,-0.65963c0.0501,-0.27276 0.10855,-0.54552 0.17535,-0.81829c0.07236,-0.27832 0.14473,-0.54274 0.2171,-0.79323c0.07236,-0.2505 0.12247,-0.43976 0.1503,-0.56779c0.17257,0 0.38967,0.04453 0.65129,0.13359c0.26162,0.0835 0.53161,0.2004 0.80994,0.3507c0.27832,0.14473 0.54274,0.31451 0.79324,0.50934c0.2505,0.19483 0.43976,0.38966 0.56779,0.58449c-0.12803,0.28947 -0.29224,0.56222 -0.49264,0.81829c-0.2004,0.25606 -0.41192,0.47872 -0.63459,0.66799c-0.21709,0.19483 -0.42584,0.34513 -0.62624,0.4509c-0.2004,0.10577 -0.36461,0.15865 -0.49264,0.15865zM286.78211,162.31799c-0.22823,-0.02783 -0.46759,-0.12247 -0.71808,-0.2839c-0.24493,-0.16699 -0.40358,-0.35069 -0.47594,-0.55109c0,-0.16699 0.02505,-0.38687 0.07515,-0.65963c0.0501,-0.27276 0.10855,-0.54552 0.17535,-0.81829c0.07236,-0.27832 0.14473,-0.54274 0.2171,-0.79324c0.07236,-0.2505 0.12247,-0.43976 0.1503,-0.56779c0.17257,0 0.38967,0.04453 0.65129,0.1336c0.26162,0.0835 0.53161,0.2004 0.80994,0.3507c0.27832,0.14473 0.54274,0.31451 0.79324,0.50934c0.2505,0.18926 0.43976,0.38409 0.56779,0.58449c-0.12803,0.28947 -0.29224,0.56222 -0.49264,0.81829c-0.2004,0.25606 -0.41192,0.48151 -0.63459,0.67634c-0.21709,0.18926 -0.42584,0.33678 -0.62624,0.44254c-0.2004,0.10577 -0.36461,0.15865 -0.49264,0.15865z" fill="#000000" stroke="none" stroke-width="1" stroke-linecap="square"/></g></g></svg>