<svg version="1.1" xmlns="http://www.w3.org/2000/svg" xmlns:xlink="http://www.w3.org/1999/xlink" width="488" height="37" viewBox="0,0,488,37"><g transform="translate(3.5,2.88353)"><g data-paper-data="{&quot;isPaintingLayer&quot;:true}" fill-rule="nonzero" stroke-linejoin="miter" stroke-miterlimit="10" stroke-dasharray="" stroke-dashoffset="0" style="mix-blend-mode: normal"><path d="M-3.5,34.11647v-37h488v37z" fill-opacity="0.06667" fill="#000000" stroke="none" stroke-width="0" stroke-linecap="butt"/><path d="M366.57722,20.79298v5.07399h-12.93917v-0.89717l1.25604,-0.01994v-15.26184l-1.25604,-0.02991v-0.8872h8.27389v0.8872l-2.78122,0.02991v15.212c2.12662,-0.75096 4.25989,-1.68801 6.3998,-2.81113l0.04984,-1.27597zM373.19074,14.0044c1.49528,0 2.67157,0.54163 3.52886,1.62487c0.86394,1.0766 1.28594,2.53201 1.26601,4.36622l-7.04776,0.22928c0.11962,1.0035 0.46852,1.77108 1.0467,2.30273c0.57818,0.52501 1.34575,0.78751 2.30273,0.78751c1.32249,0 2.40242,-0.36551 3.23978,-1.09654l0.45855,0.40871c-0.59811,1.13641 -1.40224,2.02361 -2.41239,2.6616c-1.01015,0.63799 -2.08675,0.95698 -3.22981,0.95698c-1.54845,0 -2.7779,-0.51172 -3.68836,-1.53516c-0.91046,-1.03008 -1.36569,-2.42236 -1.36569,-4.17682c0,-1.03673 0.20934,-2.06349 0.62802,-3.08028c0.41868,-1.02344 0.95034,-1.87741 1.59497,-2.56192c0.44526,-0.25254 1.01679,-0.46188 1.71459,-0.62802c0.6978,-0.17279 1.3524,-0.25918 1.9638,-0.25918zM374.20753,19.15814c-0.01329,-1.18958 -0.18276,-2.13327 -0.5084,-2.83107c-0.32564,-0.6978 -0.78419,-1.11648 -1.37566,-1.25604c-0.42532,0.44526 -0.7709,1.06331 -1.03673,1.85415c-0.26583,0.79084 -0.39874,1.60161 -0.39874,2.43232v0.07975zM390.33623,14.38321v0.81742l-0.73767,0.01994l-4.51575,10.49688l-2.58185,0.14953l-4.02729,-10.6464l-0.74764,-0.01994v-0.81742h6.05091v0.81742l-1.06663,0.01994l2.21302,7.86518l2.09339,-7.86518l-1.06663,-0.01994v-0.81742zM396.54102,14.0044c1.49528,0 2.67157,0.54163 3.52886,1.62487c0.86394,1.0766 1.28594,2.53201 1.26601,4.36622l-7.04776,0.22928c0.11962,1.0035 0.46852,1.77108 1.0467,2.30273c0.57818,0.52501 1.34575,0.78751 2.30273,0.78751c1.32249,0 2.40242,-0.36551 3.23978,-1.09654l0.45855,0.40871c-0.59811,1.13641 -1.40224,2.02361 -2.41239,2.6616c-1.01015,0.63799 -2.08675,0.95698 -3.22981,0.95698c-1.54845,0 -2.7779,-0.51172 -3.68836,-1.53516c-0.91046,-1.03008 -1.36569,-2.42236 -1.36569,-4.17682c0,-1.03673 0.20934,-2.06349 0.62802,-3.08028c0.41868,-1.02344 0.95034,-1.87741 1.59497,-2.56192c0.44526,-0.25254 1.01679,-0.46188 1.71459,-0.62802c0.6978,-0.17279 1.3524,-0.25918 1.9638,-0.25918zM397.55782,19.15814c-0.01329,-1.18958 -0.18276,-2.13327 -0.5084,-2.83107c-0.32564,-0.6978 -0.78419,-1.11648 -1.37566,-1.25604c-0.42532,0.44526 -0.7709,1.06331 -1.03673,1.85415c-0.26583,0.79084 -0.39874,1.60161 -0.39874,2.43232v0.07975zM402.15888,25.1293l0.93704,-0.07975l-0.11962,-15.28178l-0.97692,0.19937l-0.24921,-0.73767l4.71512,-1.4255l0.35887,0.60808l-0.12959,16.6375l0.94701,0.07975v0.73767h-5.4827z" fill="#ffece6" stroke="none" stroke-width="1" stroke-linecap="square"/><path d="M434,18.50752h10" fill="none" stroke="#ffece6" stroke-width="1" stroke-linecap="round"/><path d="M425.88792,20.29988h0.81742v5.36308l-11.12489,-0.02991l0.22928,-3.64849c2.58518,-0.90381 4.56559,-1.96713 5.94125,-3.18993c1.3823,-1.22281 2.07346,-2.4722 2.07346,-3.74817c0,-0.73103 -0.26583,-1.30588 -0.79748,-1.72456c-0.52501,-0.41868 -1.21284,-0.62802 -2.06349,-0.62802c-0.67786,0 -1.37234,0.09304 -2.08343,0.27912c-0.70444,0.18608 -1.3524,0.45191 -1.94387,0.79748l0.06978,1.06663l-0.81742,0.12959l-0.68783,-5.00421c0.7709,-0.52501 1.77108,-0.95698 3.00053,-1.29591c1.2361,-0.34558 2.40574,-0.51836 3.50893,-0.51836c1.6149,0 2.91414,0.38877 3.8977,1.16632c0.99021,0.7709 1.48531,1.86412 1.48531,3.27965c0,1.3956 -0.46852,2.75464 -1.40556,4.07713c-0.9304,1.31585 -2.11666,2.46887 -3.55877,3.45908c-1.43547,0.98356 -2.90085,1.71127 -4.39613,2.18311l7.78543,-1.01679z" fill="#ffece6" stroke="none" stroke-width="1" stroke-linecap="square"/><path d="M24.86832,25.49814v0.89671h-6.14745l-3.46728,-6.83493l0.07971,-0.04981c-0.3919,0.03321 -0.9432,0.06643 -1.65393,0.09962v5.86848l1.24543,0.01993v0.89671h-6.73531v-0.89671l1.25539,-0.01993v-15.25406l-1.25539,-0.02989v-0.88674l4.92195,0.04982l3.80604,-0.30887c1.22219,0 2.27167,0.22585 3.14846,0.67751c0.87679,0.45167 1.53769,1.05613 1.98273,1.81336c0.45167,0.75722 0.67751,1.59416 0.67751,2.51079c0,1.05613 -0.30554,1.97609 -0.91663,2.75989c-0.61109,0.77715 -1.52773,1.40485 -2.74991,1.8831l4.56326,6.78513zM13.67936,18.61339c1.40817,-0.08634 2.51079,-0.4716 3.30787,-1.15576c0.80371,-0.6908 1.20559,-1.62404 1.20559,-2.79973c0,-0.83029 -0.19594,-1.58419 -0.58784,-2.26171c-0.3919,-0.68416 -0.92992,-1.22219 -1.61408,-1.61408c-0.67751,-0.3919 -1.44802,-0.58784 -2.31151,-0.58784zM31.37965,14.53834c1.49452,0 2.67021,0.54135 3.52707,1.62405c0.86351,1.07605 1.28528,2.53073 1.26536,4.364l-7.04417,0.22916c0.11956,1.00299 0.46829,1.77017 1.04617,2.30156c0.57788,0.52474 1.34508,0.78711 2.30156,0.78711c1.32182,0 2.4012,-0.36533 3.23813,-1.09599l0.45833,0.40851c-0.59781,1.13584 -1.40153,2.02259 -2.41116,2.66025c-1.00962,0.63766 -2.08569,0.95648 -3.22816,0.95648c-1.54766,0 -2.77649,-0.51145 -3.68648,-1.53438c-0.91,-1.02956 -1.36499,-2.42113 -1.36499,-4.17469c0,-1.03619 0.20924,-2.06242 0.6277,-3.0787c0.41847,-1.02292 0.94985,-1.87646 1.59416,-2.56062c0.44503,-0.25241 1.01628,-0.46164 1.71371,-0.6277c0.69744,-0.1727 1.3517,-0.25905 1.96281,-0.25905zM32.39591,19.68944c-0.01328,-1.18898 -0.18266,-2.13218 -0.50813,-2.82962c-0.32547,-0.69744 -0.78379,-1.1159 -1.37496,-1.25539c-0.42511,0.44503 -0.7705,1.06277 -1.03621,1.8532c-0.2657,0.79043 -0.39853,1.6008 -0.39853,2.43109v0.07971zM49.63827,24.63133l-3.72634,2.02258c-0.45833,-0.27234 -0.79375,-0.63433 -1.0063,-1.08601c-0.21255,-0.45167 -0.33543,-1.03621 -0.36864,-1.75358l-2.52076,2.95915c-0.9897,0 -1.86316,-0.22253 -2.62039,-0.66755c-0.75722,-0.45167 -1.34838,-1.07273 -1.77349,-1.86316c-0.42511,-0.79043 -0.63766,-1.68715 -0.63766,-2.69013c0,-0.87014 0.14281,-1.7901 0.42842,-2.75988c0.29225,-0.96978 0.64431,-1.727 1.05613,-2.27167c0.31882,-0.45833 0.90335,-0.90335 1.75356,-1.3351c0.85021,-0.43175 1.56428,-0.64762 2.14216,-0.64762c0.51146,0 1.20889,0.08304 2.09233,0.24909l-0.04981,-4.48356l-0.96645,0.19927l-0.25905,-0.7373l4.72268,-1.42478l0.35868,0.60777l-0.15941,13.21155c0,0.61109 0.03321,1.0661 0.09962,1.36499c0.07306,0.29891 0.19594,0.55795 0.36865,0.77715l0.75722,-0.35868zM40.66119,20.01824c0,0.7838 0.1262,1.46463 0.37862,2.04251c0.25905,0.57788 0.59449,1.0196 1.00631,1.32514c0.41847,0.30556 0.86682,0.45833 1.34507,0.45833l1.14581,-1.14579l-0.04982,-5.15111c-1.10263,-0.53138 -2.16539,-0.89007 -3.1883,-1.07605c-0.42511,0.96978 -0.63766,2.15211 -0.63766,3.54699zM54.99381,25.49814l1.25541,-0.01993v-15.25406l-1.25541,-0.02989v-0.88674l4.92195,0.04982l3.6267,-0.30886c2.53073,0 4.48688,0.70742 5.86848,2.12223c1.38824,1.40817 2.08238,3.44736 2.08238,6.11756c0,1.80006 -0.34873,3.38757 -1.04616,4.76253c-0.6908,1.36831 -1.73364,2.43441 -3.12852,3.19828c-1.39488,0.76387 -3.09532,1.14581 -5.1013,1.14581h-7.2235zM61.19108,25.49814c1.82,0 3.23482,-0.6277 4.24444,-1.88309c1.01628,-1.25539 1.52441,-3.15178 1.52441,-5.68913c0,-1.6805 -0.28563,-3.09531 -0.85686,-4.24444c-0.57123,-1.14912 -1.34507,-2.00598 -2.32149,-2.57058c-0.97642,-0.57123 -2.07572,-0.85686 -3.2979,-0.85686v15.24409zM78.56654,14.53834c1.49452,0 2.67021,0.54135 3.52707,1.62405c0.86351,1.07605 1.28528,2.53073 1.26536,4.364l-7.04417,0.22916c0.11956,1.00299 0.46829,1.77017 1.04617,2.30156c0.57788,0.52474 1.34508,0.78711 2.30156,0.78711c1.32182,0 2.4012,-0.36533 3.23813,-1.09599l0.45833,0.40851c-0.59781,1.13584 -1.40153,2.02259 -2.41116,2.66025c-1.00962,0.63766 -2.08569,0.95648 -3.22817,0.95648c-1.54766,0 -2.77649,-0.51145 -3.68648,-1.53438c-0.91,-1.02956 -1.36498,-2.42113 -1.36498,-4.17469c0,-1.03619 0.20922,-2.06242 0.6277,-3.0787c0.41847,-1.02292 0.94985,-1.87646 1.59416,-2.56062c0.44503,-0.25241 1.01628,-0.46164 1.71372,-0.6277c0.69744,-0.1727 1.3517,-0.25905 1.96281,-0.25905zM79.58282,19.68944c-0.01328,-1.18898 -0.18266,-2.13218 -0.50813,-2.82962c-0.32547,-0.69744 -0.78379,-1.1159 -1.37496,-1.25539c-0.42511,0.44503 -0.7705,1.06277 -1.03619,1.8532c-0.2657,0.79043 -0.39855,1.6008 -0.39855,2.43109v0.07971zM87.94773,16.82993c0,0.45833 0.18266,0.87678 0.548,1.25539c0.36534,0.37196 0.92328,0.81369 1.67387,1.32514c0.91664,0.62438 1.61407,1.19229 2.09233,1.70376c0.47825,0.51146 0.71737,1.14248 0.71737,1.89305c0,0.65759 -0.19596,1.27533 -0.58784,1.85321c-0.39189,0.57788 -0.94652,1.04284 -1.66389,1.39488c-0.71072,0.34541 -1.52773,0.5181 -2.45102,0.5181c-0.88343,0 -1.72036,-0.21255 -2.51079,-0.63766c-0.79043,-0.42511 -1.37164,-0.96645 -1.74361,-1.62404l2.19196,-1.76353c0.68416,1.27532 1.3816,2.32149 2.09233,3.1385c0.29226,-0.2192 0.53471,-0.47825 0.72733,-0.77715c0.19263,-0.29891 0.28893,-0.59449 0.28893,-0.88674c0,-0.47161 -0.17602,-0.8801 -0.52806,-1.2255c-0.34541,-0.35204 -0.88343,-0.77383 -1.61408,-1.26536c-0.59117,-0.3919 -1.0661,-0.73065 -1.42478,-1.01628c-0.35868,-0.29225 -0.6609,-0.64099 -0.90667,-1.04616c-0.24576,-0.41181 -0.36865,-0.87346 -0.36865,-1.38492c0,-0.63103 0.20592,-1.23548 0.61773,-1.81336c0.41846,-0.57788 1.00299,-1.04284 1.75358,-1.39488c0.75058,-0.35868 1.60079,-0.53804 2.55064,-0.53804c0.73065,0 1.42146,0.1561 2.0724,0.46829c0.65759,0.31219 1.19229,0.70741 1.60412,1.18565l-1.99269,1.96281c-0.81701,-1.03619 -1.71704,-1.9628 -2.7001,-2.77981c-0.29226,0.37196 -0.4384,0.85686 -0.4384,1.45467zM87.11079,26.39485h0.01993zM99.88992,14.53834c1.49452,0 2.67021,0.54135 3.52707,1.62405c0.86351,1.07605 1.28528,2.53073 1.26536,4.364l-7.04417,0.22916c0.11956,1.00299 0.46829,1.77017 1.04617,2.30156c0.57788,0.52474 1.34508,0.78711 2.30156,0.78711c1.32182,0 2.4012,-0.36533 3.23813,-1.09599l0.45833,0.40851c-0.59781,1.13584 -1.40153,2.02259 -2.41116,2.66025c-1.00962,0.63766 -2.08568,0.95648 -3.22816,0.95648c-1.54766,0 -2.77649,-0.51145 -3.68648,-1.53438c-0.91,-1.02956 -1.36499,-2.42113 -1.36499,-4.17469c0,-1.03619 0.20924,-2.06242 0.62771,-3.0787c0.41846,-1.02292 0.94985,-1.87646 1.59416,-2.56062c0.44503,-0.25241 1.01627,-0.46164 1.71371,-0.6277c0.69744,-0.1727 1.3517,-0.25905 1.96281,-0.25905zM100.90619,19.68944c-0.01328,-1.18898 -0.18266,-2.13218 -0.50813,-2.82962c-0.32547,-0.69744 -0.78379,-1.1159 -1.37496,-1.25539c-0.42511,0.44503 -0.77052,1.06277 -1.03621,1.8532c-0.2657,0.79043 -0.39853,1.6008 -0.39853,2.43109v0.07971zM110.09209,18.41412l-0.1096,7.16373l2.27167,0.07971v0.7373h-6.80504v-0.7373l0.94652,-0.07971l-0.0797,-9.12653l-0.96645,0.22916l-0.25905,-0.76719l4.02524,-1.25539l0.86682,2.72999c0.5646,-1.13584 1.17901,-2.01925 1.84325,-2.65028c0.37197,-0.13284 0.82032,-0.19927 1.34507,-0.19927c0.71737,0 1.39156,0.1262 2.02258,0.37862l-0.81701,3.31784c-0.49152,-0.10628 -1.12256,-0.19926 -1.89307,-0.27897c-0.76387,-0.08634 -1.39157,-0.14614 -1.88309,-0.17933zM123.29886,24.38223l-3.10861,2.24179c-1.25539,0 -2.16871,-0.30887 -2.73995,-0.92659c-0.57123,-0.62438 -0.85686,-1.62405 -0.85686,-2.99901v-6.78511h-1.71371v-0.81701c0.71737,-0.3919 1.49452,-0.94985 2.33145,-1.67387c0.84357,-0.72402 1.61408,-1.48455 2.31153,-2.28162l0.8469,0.25905l-0.12952,3.5171h2.98903v1.07605l-3.03885,-0.05978v5.86848c0,0.81701 0.1561,1.41481 0.46829,1.79342c0.31884,0.37196 0.74061,0.55795 1.26536,0.55795l0.94653,-0.53804z" fill="#f1f6ff" stroke="none" stroke-width="1" stroke-linecap="square"/><path d="M138.2561,29.2784c0,0 -0.32512,-11.3899 0,-18.66811c0.3281,-7.345 5.18694,-8.51553 5.14982,0c-0.01522,3.4914 0,18.66811 0,18.66811z" fill="#f1f6ff" stroke="none" stroke-width="0" stroke-linecap="butt"/><path d="M142.7622,16.40383v-2.09393c0,0 1.52369,-0.08375 2.51272,-0.08375c0.82292,0 0.67005,-2.84774 0.67005,-2.84774c0,0 0.59359,-1.08885 0.92133,-1.08885c0.31378,0 1.00509,1.08885 1.00509,1.08885c0,0 0.94795,3.01526 -1.00509,4.35538c-0.84091,0.57701 -4.10411,0.67005 -4.10411,0.67005z" fill="#f1f6ff" stroke="none" stroke-width="0" stroke-linecap="butt"/><path d="M135.02867,21.07454c-2.02195,-1.3874 -1.04055,-4.50903 -1.04055,-4.50903c0,0 0.71569,-1.12727 1.04055,-1.12727c0.3393,0 0.95383,1.12727 0.95383,1.12727c0,0 -0.15825,2.94822 0.6937,2.94822c1.02392,0 2.60136,0.08671 2.60136,0.08671v2.16781c0,0 -3.37832,-0.09634 -4.24889,-0.6937z" data-paper-data="{&quot;index&quot;:null}" fill="#f1f6ff" stroke="none" stroke-width="0" stroke-linecap="butt"/></g></g></svg>