<svg version="1.1" xmlns="http://www.w3.org/2000/svg" xmlns:xlink="http://www.w3.org/1999/xlink" width="198.29402" height="302.99617" viewBox="0,0,198.29402,302.99617"><defs><linearGradient x1="239.87863" y1="264.94524" x2="239.87863" y2="344.40357" gradientUnits="userSpaceOnUse" id="color-1"><stop offset="0" stop-color="#000000" stop-opacity="0.23529"/><stop offset="1" stop-color="#000000" stop-opacity="0"/></linearGradient><linearGradient x1="239.87863" y1="262.94524" x2="239.87863" y2="342.40357" gradientUnits="userSpaceOnUse" id="color-2"><stop offset="0" stop-color="#000000" stop-opacity="0.23529"/><stop offset="1" stop-color="#000000" stop-opacity="0"/></linearGradient><linearGradient x1="239.87863" y1="261.19524" x2="239.87863" y2="340.65357" gradientUnits="userSpaceOnUse" id="color-3"><stop offset="0" stop-color="#000000" stop-opacity="0.23529"/><stop offset="1" stop-color="#000000" stop-opacity="0"/></linearGradient><linearGradient x1="239.87863" y1="259.19524" x2="239.87863" y2="338.65357" gradientUnits="userSpaceOnUse" id="color-4"><stop offset="0" stop-color="#000000" stop-opacity="0.23529"/><stop offset="1" stop-color="#000000" stop-opacity="0"/></linearGradient><linearGradient x1="239.87863" y1="257.69524" x2="239.87863" y2="337.15357" gradientUnits="userSpaceOnUse" id="color-5"><stop offset="0" stop-color="#000000" stop-opacity="0.23529"/><stop offset="1" stop-color="#000000" stop-opacity="0"/></linearGradient><linearGradient x1="239.87863" y1="255.69524" x2="239.87863" y2="335.15357" gradientUnits="userSpaceOnUse" id="color-6"><stop offset="0" stop-color="#000000" stop-opacity="0.23529"/><stop offset="1" stop-color="#000000" stop-opacity="0"/></linearGradient><radialGradient cx="200.12953" cy="155.64829" r="37.90099" gradientUnits="userSpaceOnUse" id="color-7"><stop offset="0" stop-color="#000000" stop-opacity="0.49804"/><stop offset="1" stop-color="#000000" stop-opacity="0"/></radialGradient><radialGradient cx="206.05166" cy="249.37571" r="18.81707" gradientUnits="userSpaceOnUse" id="color-8"><stop offset="0" stop-color="#000000" stop-opacity="0.50196"/><stop offset="1" stop-color="#000000" stop-opacity="0"/></radialGradient><linearGradient x1="238.15791" y1="235.90691" x2="238.15791" y2="222.51934" gradientUnits="userSpaceOnUse" id="color-9"><stop offset="0" stop-color="#000000" stop-opacity="0.3098"/><stop offset="1" stop-color="#000000" stop-opacity="0"/></linearGradient><linearGradient x1="238.28785" y1="211.78655" x2="228.81162" y2="211.78655" gradientUnits="userSpaceOnUse" id="color-10"><stop offset="0" stop-color="#000000" stop-opacity="0.20392"/><stop offset="1" stop-color="#000000" stop-opacity="0"/></linearGradient><radialGradient cx="206.12761" cy="249.27401" r="13.52531" gradientUnits="userSpaceOnUse" id="color-11"><stop offset="0" stop-color="#88674d"/><stop offset="1" stop-color="#6e533e"/></radialGradient><radialGradient cx="242.9739" cy="252.35783" r="13.97132" gradientUnits="userSpaceOnUse" id="color-12"><stop offset="0" stop-color="#000000" stop-opacity="0.50196"/><stop offset="1" stop-color="#000000" stop-opacity="0"/></radialGradient><radialGradient cx="266.87918" cy="252.54205" r="13.97132" gradientUnits="userSpaceOnUse" id="color-13"><stop offset="0" stop-color="#000000" stop-opacity="0.50196"/><stop offset="1" stop-color="#000000" stop-opacity="0"/></radialGradient><radialGradient cx="243.10225" cy="252.50013" r="10.04229" gradientUnits="userSpaceOnUse" id="color-14"><stop offset="0" stop-color="#88674d"/><stop offset="1" stop-color="#6e533e"/></radialGradient><radialGradient cx="266.93151" cy="252.50013" r="10.04229" gradientUnits="userSpaceOnUse" id="color-15"><stop offset="0" stop-color="#88674d"/><stop offset="1" stop-color="#6e533e"/></radialGradient><linearGradient x1="188.67868" y1="212.07992" x2="198.1549" y2="212.07992" gradientUnits="userSpaceOnUse" id="color-16"><stop offset="0" stop-color="#000000" stop-opacity="0.21176"/><stop offset="1" stop-color="#000000" stop-opacity="0"/></linearGradient><linearGradient x1="238.18053" y1="205.6056" x2="238.18053" y2="220.2362" gradientUnits="userSpaceOnUse" id="color-17"><stop offset="0" stop-color="#000000" stop-opacity="0.3098"/><stop offset="1" stop-color="#000000" stop-opacity="0"/></linearGradient><linearGradient x1="272.65721" y1="230.63618" x2="285.38243" y2="230.63618" gradientUnits="userSpaceOnUse" id="color-18"><stop offset="0" stop-color="#000000" stop-opacity="0"/><stop offset="1" stop-color="#000000" stop-opacity="0.20784"/></linearGradient><linearGradient x1="302.20465" y1="254.72867" x2="293.10997" y2="257.39054" gradientUnits="userSpaceOnUse" id="color-19"><stop offset="0" stop-color="#000000" stop-opacity="0.19608"/><stop offset="1" stop-color="#000000" stop-opacity="0"/></linearGradient></defs><g transform="translate(-140.85299,-41.4074)"><g data-paper-data="{&quot;isPaintingLayer&quot;:true}" fill-rule="nonzero" stroke-linejoin="miter" stroke-miterlimit="10" stroke-dasharray="" stroke-dashoffset="0" style="mix-blend-mode: normal"><path d="M140.85299,325.88892c0,-29.90525 0,-194.25442 0,-245.03136c0,-9.4362 5.3155,-14.95016 14.15865,-14.95016c39.29119,0 148.22281,0 169.97671,0c7.38991,0 14.15866,6.33734 14.15866,13.84642c0,28.30014 0,202.1501 0,249.44634c0,7.43228 -7.36731,13.89243 -15.2624,13.89243c-21.88047,0 -125.96496,0 -166.66548,0c-10.15662,0 -16.36614,-8.08122 -16.36614,-17.20366z" fill="#85654c" stroke="none" stroke-width="0" stroke-linecap="butt"/><path d="M140.85299,320.88892c0,-29.90525 0,-194.25442 0,-245.03136c0,-9.4362 5.3155,-14.95016 14.15865,-14.95016c39.29119,0 148.22281,0 169.97671,0c7.38991,0 14.15866,6.33734 14.15866,13.84642c0,28.30014 0,202.1501 0,249.44634c0,7.43228 -7.36731,13.89243 -15.2624,13.89243c-21.88047,0 -125.96496,0 -166.66548,0c-10.15662,0 -16.36614,-8.08122 -16.36614,-17.20366z" fill="#9f785a" stroke="none" stroke-width="0" stroke-linecap="butt"/><path d="M147.39167,344.40357v-79.45833h184.97391v79.45833z" fill="url(#color-1)" stroke="none" stroke-width="0" stroke-linecap="butt"/><path d="M147,334.09643v-260h186v260z" fill="#f2e9da" stroke="none" stroke-width="0" stroke-linecap="butt"/><path d="M147.39167,342.40357v-79.45833h184.97391v79.45833z" fill="url(#color-2)" stroke="none" stroke-width="0" stroke-linecap="butt"/><path d="M147,332.09643v-260h186v260z" fill="#f2e9da" stroke="none" stroke-width="0" stroke-linecap="butt"/><path d="M147.39167,340.65357v-79.45833h184.97391v79.45833z" fill="url(#color-3)" stroke="none" stroke-width="0" stroke-linecap="butt"/><path d="M147,330.34643v-260h186v260z" fill="#f2e9da" stroke="none" stroke-width="0" stroke-linecap="butt"/><path d="M147.39167,338.65357v-79.45833h184.97391v79.45833z" fill="url(#color-4)" stroke="none" stroke-width="0" stroke-linecap="butt"/><path d="M147,328.34643v-260h186v260z" fill="#f2e9da" stroke="none" stroke-width="0" stroke-linecap="butt"/><path d="M147.39167,337.15357v-79.45833h184.97391v79.45833z" fill="url(#color-5)" stroke="none" stroke-width="0" stroke-linecap="butt"/><path d="M147,326.84643v-260h186v260z" fill="#f2e9da" stroke="none" stroke-width="0" stroke-linecap="butt"/><path d="M147.39167,335.15357v-79.45833h184.97391v79.45833z" fill="url(#color-6)" stroke="none" stroke-width="0" stroke-linecap="butt"/><path d="M147,324.84643v-260h186v260z" fill="#f2e9da" stroke="none" stroke-width="0" stroke-linecap="butt"/><path d="M140.85299,306.38892c0,-29.90525 0,-194.25442 0,-245.03136c0,-9.4362 5.3155,-14.95016 14.15865,-14.95016c39.29119,0 148.22281,0 169.97671,0c7.38991,0 14.15866,6.33734 14.15866,13.84642c0,28.30014 0,202.1501 0,249.44634c0,7.43228 -7.36731,13.89243 -15.2624,13.89243c-21.88047,0 -125.96496,0 -166.66548,0c-10.15662,0 -16.36614,-8.08122 -16.36614,-17.20366z" fill="#85654c" stroke="none" stroke-width="0" stroke-linecap="butt"/><path d="M140.85299,301.38892c0,-29.90525 0,-194.25442 0,-245.03136c0,-9.4362 5.3155,-14.95016 14.15865,-14.95016c39.29119,0 148.22281,0 169.97671,0c7.38991,0 14.15866,6.33734 14.15866,13.84642c0,28.30014 0,202.1501 0,249.44634c0,7.43228 -7.36731,13.89243 -15.2624,13.89243c-21.88047,0 -125.96496,0 -166.66548,0c-10.15662,0 -16.36614,-8.08122 -16.36614,-17.20366z" fill="#9f785a" stroke="none" stroke-width="0" stroke-linecap="butt"/><path d="M148.00684,297.25784c0,-28.3948 0,-184.44307 0,-232.65538c0,-8.9596 4.93197,-14.19506 13.13705,-14.19506c36.45618,0 137.52795,0 157.71222,0c6.8567,0 13.13706,6.01726 13.13706,13.14707c0,26.87076 0,191.93995 0,236.84737c0,7.05689 -6.83573,13.19075 -14.16116,13.19075c-20.30171,0 -116.87609,0 -154.63991,0c-9.42378,0 -15.18526,-7.67306 -15.18526,-16.33474z" fill-opacity="0.06667" fill="#000000" stroke-opacity="0.06667" stroke="#000000" stroke-width="2.5" stroke-linecap="butt"/><path d="M187.5174,111.29835v8.36559l-2.8335,-0.07265l-0.07265,-2.10697c-2.2073,-1.57763 -3.73995,-2.58786 -4.59796,-3.03071v19.31556l2.80237,0.04152v2.69858h-12.95317v-2.69858l2.792,-0.04152v-19.31556c-0.85801,0.44285 -2.3872,1.45308 -4.58758,3.03071l-0.09341,2.10697l-2.82313,0.07265v-8.36558zM212.03624,133.82108v2.6882h-9.73563l-5.31412,-10.4933l0.93413,0.22834c-0.42209,0.51203 -0.89953,0.78189 -1.43232,0.80957v6.72568l1.73332,0.04152v2.6882h-10.82544v-2.6882l1.73332,-0.04152v-19.74111l-1.73331,-0.03113v-2.71934l7.55601,0.08303l5.26223,-0.42554c1.84056,0 3.42512,0.34252 4.75365,1.02754c1.33545,0.68502 2.34914,1.61222 3.04109,2.78161c0.69886,1.16939 1.04829,2.45986 1.04829,3.87142c0,1.63298 -0.47052,3.05493 -1.41156,4.26583c-0.94105,1.20398 -2.03777,2.04815 -3.29018,2.5325l5.60473,8.34482l2.07583,0.0519zM196.48828,124.18925c1.27318,-0.07611 2.39067,-0.52933 3.35247,-1.35966c0.9618,-0.83033 1.4427,-1.94782 1.4427,-3.35246c0,-1.02408 -0.23872,-1.95128 -0.71616,-2.78161c-0.47744,-0.83033 -1.13132,-1.48421 -1.96165,-1.96165c-0.83033,-0.47744 -1.53611,-0.71616 -2.11735,-0.71616zM236.12407,133.82108v2.6882h-12.1332v-2.68819l1.50497,-0.04152l-1.22473,-4.35924h-4.85744l-0.88222,4.35924l1.65028,0.04152v2.6882h-9.47615v-2.6882l1.95128,-0.05189l7.91929,-22.10756l5.41791,-0.7473l8.17876,22.85486zM223.46153,126.63872c0,0 0.89604,-7.20311 -2.02393,-7.20311c-2.91997,0 -1.44269,7.20311 -1.44269,7.20311zM235.6436,133.82108l1.73332,-0.04152v-19.74111l-1.73331,-0.03113v-2.70895h10.82544v2.70896l-1.73331,0.03114v19.74111l1.73332,0.04152v2.6882h-10.82544zM272.53899,111.29835v2.70896l-1.76445,0.03115l-0.92374,22.43968l-5.39715,0.03114c0,0 -7.37522,-11.55896 -11.4378,-18.00779c-4.43769,-7.04426 1.08981,15.2677 1.08981,15.2677l2.1381,0.04152v2.69858h-8.69771v-2.68819l1.75408,-0.04152l0.56047,-19.74111l-1.71256,-0.03113v-2.70895h9.89133l8.98833,13.94955l-0.70578,-11.20946l-2.12772,-0.03113v-2.70895z" fill="#e3edff" stroke="#85654c" stroke-width="7.5" stroke-linecap="square"/><path d="M318.47877,117.64568c0,2.26227 -0.49992,4.43365 -1.49976,6.51414c-0.98974,2.08049 -2.33297,4.12562 -4.02967,6.13541c-1.69671,1.99969 -3.69135,4.03473 -5.98392,6.10512c-2.28247,2.07038 -4.74168,4.25693 -7.37763,6.55959c-1.19174,1.00995 -2.19159,1.90879 -2.99954,2.69655c-0.80795,0.78776 -1.49976,1.54017 -2.07543,2.25723c-0.56557,0.70696 -1.06044,1.39372 -1.48462,2.06028c-0.42418,0.66656 -0.7827,0.9039 -1.07558,0.71201c2.38346,-0.50496 5.21636,-1.39877 8.49868,-2.68139c3.29242,-1.28263 6.45355,-3.25706 9.48338,-5.92332c0.79786,0.98974 1.34828,1.7472 1.65126,2.27237c0.30298,0.52517 0.56053,1.11094 0.77261,1.7573c0.21209,0.63627 0.39893,1.32303 0.56052,2.06028c0.17169,0.73726 0.25755,1.47957 0.25755,2.22693c0,1.33312 -0.32318,2.52991 -0.96955,3.59035c-0.65646,0.71705 -1.45937,1.22709 -2.40871,1.53007c-0.94934,0.30299 -1.99464,0.52517 -3.13587,0.66656c-1.13115,0.14139 -2.33802,0.23229 -3.62064,0.27269c-1.27253,0.0404 -2.58546,0.0606 -3.93878,0.0606c-1.27253,0 -2.54001,0.03029 -3.80243,0.09089c-1.26243,0.0707 -2.45922,0.17674 -3.59035,0.31814c-1.13115,0.14139 -2.15118,0.34844 -3.06013,0.62113c-0.89885,0.27268 -1.8381,0.77765 -2.81775,1.51491c-1.67651,-0.77766 -2.99953,-1.70176 -3.96908,-2.77229c-0.96955,-1.06044 -1.69166,-2.32791 -2.16633,-3.80243c0.34339,-1.63611 0.86854,-3.03994 1.57551,-4.21147c0.70697,-1.18163 1.63611,-2.38347 2.78745,-3.6055c1.15134,-1.22204 2.55516,-2.51981 4.21146,-3.89333c1.66641,-1.37353 3.6156,-2.98943 5.84758,-4.84773c2.49457,-2.06028 4.73664,-3.97919 6.72623,-5.75668c1.99969,-1.78761 3.6661,-3.4742 4.99923,-5.05982c1.34323,-1.58561 2.35822,-3.11062 3.04498,-4.57504c0.68676,-1.47451 1.03014,-2.95914 1.03014,-4.45386c0,-1.7674 -0.41408,-3.11567 -1.24223,-4.04482c-0.82816,-0.93925 -1.92899,-1.40887 -3.30252,-1.40887c-1.04025,0 -2.06029,0.24744 -3.06013,0.74232c-0.98974,0.49487 -1.88355,1.19174 -2.6814,2.09058c-0.79786,0.89885 -1.44422,1.92899 -1.93909,3.09042c-0.49487,1.16144 -0.7423,2.38346 -0.7423,3.66609c0,0.91905 0.1313,1.72701 0.39387,2.42387c0.27269,0.69686 1.16144,1.99464 2.66625,3.89334c-2.10068,0.42418 -3.45905,0.63626 -4.07511,0.63626c-1.20183,0 -2.31782,-0.20198 -3.34796,-0.60597c-1.02004,-0.41407 -1.90375,-0.97965 -2.65111,-1.69671c-0.74736,-0.72716 -1.33312,-1.58056 -1.75729,-2.5602c-0.41408,-0.98974 -0.62111,-2.07543 -0.62111,-3.25706c0,-1.8987 0.53022,-3.68124 1.59067,-5.34765c1.07054,-1.66641 2.43902,-3.10053 4.10543,-4.30236c1.67651,-1.21193 3.56006,-2.17137 5.65064,-2.87834c2.09058,-0.71706 4.22661,-1.07559 6.4081,-1.07559c1.9189,0 3.69135,0.28784 5.31736,0.86351c1.62601,0.56557 3.02479,1.39877 4.19632,2.49961c1.17153,1.10084 2.07038,2.40367 2.69655,3.90848c0.63626,1.50481 0.9544,3.14597 0.9544,4.92348c0,0 -0.00015,-2.2624 -0.00015,-0.00012z" fill="#e3edff" stroke="#85654c" stroke-width="7.5" stroke-linecap="square"/><path d="M173.06306,135.2651c0.56069,0 1.14449,0.10405 1.75141,0.31214c0.60692,0.20809 1.13871,0.47398 1.59535,0.79767c-0.14451,0.75721 -0.28034,1.43928 -0.40751,2.0462c-0.12716,0.60692 -0.24277,1.15894 -0.34681,1.65605c-0.10405,0.49132 -0.2052,0.94218 -0.30346,1.35258c-0.09249,0.40462 -0.18207,0.78322 -0.26878,1.13582c-0.35837,1.33524 -0.72542,2.54042 -1.10113,3.61555c-0.37572,1.06934 -0.77455,2.03465 -1.19651,2.8959c-0.42196,0.85548 -0.86704,1.61558 -1.33524,2.28031c-0.4682,0.66473 -0.96819,1.24853 -1.49997,1.75141c-0.51444,0.49132 -1.03177,0.89016 -1.552,1.19651c-0.52022,0.31213 -0.99998,0.51444 -1.43928,0.60692c-0.59536,0 -1.14449,-0.06647 -1.64737,-0.19941c-0.50288,-0.13295 -0.9364,-0.31502 -1.30056,-0.54623c-0.35837,-0.23121 -0.63871,-0.50577 -0.84102,-0.82368c-0.19653,-0.31791 -0.2948,-0.66762 -0.2948,-1.04912c0,-0.41618 0.10116,-0.93929 0.30347,-1.56933c0.20809,-0.63005 0.526,-1.37281 0.95373,-2.22828c0.17919,0.01156 0.38728,0.05492 0.62427,0.13006c0.23699,0.07515 0.47398,0.16473 0.71097,0.26878c0.23699,0.10405 0.45085,0.21965 0.6416,0.34681c0.19653,0.12139 0.33814,0.24277 0.42485,0.36416c-0.47398,0.48554 -0.85836,1.0231 -1.15315,1.61269c-0.29479,0.5838 -0.44219,1.08957 -0.44219,1.51731c0,0.24856 0.04624,0.47398 0.13872,0.67629c0.09826,0.20231 0.2659,0.38439 0.50288,0.54624c0.90172,-0.34104 1.78032,-0.97397 2.63579,-1.89881c0.86125,-0.92485 1.62425,-2.0751 2.28897,-3.4508c0.39884,-0.81501 0.7601,-1.74853 1.0838,-2.80053c0.32948,-1.05201 0.60693,-2.10689 0.83236,-3.16468c0.23121,-1.05778 0.4104,-2.06933 0.53756,-3.03463c0.12716,-0.97108 0.19075,-1.78898 0.19075,-2.45371c0,-0.10405 -0.00578,-0.24855 -0.01734,-0.43351c-0.00578,-0.18497 -0.01156,-0.37572 -0.01734,-0.57225c-0.00578,-0.20231 -0.01735,-0.38439 -0.03468,-0.54623c-0.01156,-0.16762 -0.01734,-0.28034 -0.01734,-0.33814zM178.29403,152.4498c-0.84392,-0.09249 -1.51731,-0.46242 -2.0202,-1.10981c-0.50288,-0.65317 -0.75432,-1.48264 -0.75432,-2.48839c0,-0.59536 0.0896,-1.21096 0.26878,-1.84678c0.17919,-0.63583 0.43063,-1.25143 0.75433,-1.84679c0.32369,-0.60115 0.70808,-1.16761 1.15316,-1.69939c0.44508,-0.53179 0.92773,-0.99131 1.44795,-1.37859c0.80924,-0.60692 1.56934,-0.91039 2.28031,-0.91039c0.47398,0.25432 0.94218,0.78034 1.4046,1.57801c0.06937,0 0.13295,-0.00289 0.19075,-0.00867c0.06358,-0.01156 0.13295,-0.01734 0.20809,-0.01734c0.78033,0 1.1705,0.69652 1.1705,2.08956c0,0.93061 -0.15318,1.815 -0.45953,2.65314c-0.30058,0.83813 -0.71963,1.59824 -1.2572,2.2803c-0.53757,0.67629 -1.18206,1.24854 -1.93349,1.71674c-0.74565,0.46241 -1.56356,0.79189 -2.45371,0.98842zM179.42985,145.45281c-0.25432,0.34104 -0.49132,0.71096 -0.71097,1.1098c-0.21965,0.39884 -0.41329,0.80345 -0.58092,1.21385c-0.16185,0.40462 -0.28612,0.79768 -0.37283,1.17917c-0.0867,0.37572 -0.13005,0.71097 -0.13005,1.00576c0,0.3526 0.05781,0.69363 0.17341,1.0231c0.12139,0.32369 0.25433,0.50866 0.39884,0.5549c0.66473,-0.15028 1.27454,-0.42774 1.82945,-0.83236c0.5549,-0.41039 1.03466,-0.91906 1.43929,-1.52598c0.41039,-0.60692 0.7312,-1.29477 0.96241,-2.06354c0.23121,-0.76878 0.34681,-1.58957 0.34681,-2.46239c0,-0.38728 -0.02312,-0.69073 -0.06936,-0.91038c-0.04624,-0.21965 -0.12139,-0.4104 -0.22543,-0.57225c-0.64739,0.19075 -1.2283,0.49999 -1.74274,0.92773c-0.50866,0.42774 -0.94796,0.8786 -1.31789,1.35258zM191.5073,151.18392c-0.28323,-0.23699 -0.47398,-0.53179 -0.57224,-0.88438c-0.09249,-0.35837 -0.13872,-0.66473 -0.13872,-0.91906c0,-0.30635 0.03757,-0.57225 0.11272,-0.79767c-0.06358,0 -0.19942,0.11849 -0.40751,0.35549c-0.20231,0.23699 -0.42773,0.52022 -0.67629,0.84969c-0.24277,0.32369 -0.48265,0.64161 -0.71964,0.95374c-0.23699,0.30635 -0.41329,0.53467 -0.52889,0.68496c-0.19653,0.20809 -0.37861,0.36994 -0.54623,0.48554c-0.16762,0.12139 -0.30346,0.18786 -0.40751,0.19942c-0.23699,-0.01156 -0.48553,-0.06069 -0.74565,-0.14739c-0.26012,-0.08092 -0.50577,-0.19364 -0.73698,-0.33814c-0.22543,-0.15028 -0.42485,-0.32658 -0.59825,-0.52889c-0.16762,-0.20809 -0.28034,-0.44508 -0.33814,-0.71097c0,-0.41618 0.00868,-0.75721 0.02602,-1.0231c0.02312,-0.26589 0.07225,-0.5549 0.1474,-0.86704c0.13295,-0.56069 0.32947,-1.19652 0.58958,-1.90749c0.26012,-0.71097 0.5578,-1.41038 0.89306,-2.09822c0.34104,-0.68785 0.72252,-1.33235 1.14449,-1.93349c0.42196,-0.60115 0.86993,-1.06934 1.34391,-1.4046c0.13295,0 0.28901,0.01155 0.4682,0.03468c0.17919,0.01735 0.36127,0.05781 0.54623,0.12139c0.18497,0.05781 0.36127,0.12717 0.5289,0.20809c0.17341,0.08092 0.31792,0.18785 0.43352,0.3208c-0.13295,0.15028 -0.47109,0.64739 -1.01443,1.4913c-0.53757,0.83813 -1.13871,2.0491 -1.80344,3.63288c-0.07515,0.16185 -0.16473,0.39884 -0.26878,0.71097c-0.10405,0.31213 -0.20809,0.63871 -0.31213,0.97975c-0.09826,0.34104 -0.18207,0.6734 -0.25144,0.9971c-0.06358,0.32369 -0.09537,0.5838 -0.09537,0.78033c0,0.1156 0.01735,0.2052 0.05203,0.26878c0.03468,0.05781 0.06647,0.10116 0.09537,0.13005c0.22543,-0.09249 0.50866,-0.33814 0.84969,-0.73698c0.34104,-0.39884 0.81502,-1.01154 1.42194,-1.83812c0.14451,-0.20809 0.31502,-0.44508 0.51155,-0.71097c0.20231,-0.26589 0.40751,-0.54912 0.6156,-0.84969c0.20809,-0.30635 0.40462,-0.62138 0.58959,-0.94507c0.18497,-0.32948 0.33525,-0.65606 0.45085,-0.97975c0.06358,-0.17919 0.14162,-0.39016 0.2341,-0.63293c0.09826,-0.24277 0.21677,-0.4971 0.35549,-0.763c0.14451,-0.27167 0.30924,-0.54334 0.49421,-0.81501c0.18497,-0.27167 0.40173,-0.526 0.65028,-0.76299c0.19075,0 0.39595,0.02312 0.6156,0.06936c0.22543,0.04046 0.43641,0.09537 0.63294,0.16474c0.20231,0.06358 0.3786,0.13584 0.52889,0.21676c0.15028,0.08092 0.26011,0.16763 0.32948,0.26011c-0.26589,0.64739 -0.56069,1.29189 -0.88438,1.93349c-0.32369,0.63583 -0.62715,1.26009 -0.91038,1.8728c-0.28323,0.61271 -0.52022,1.22253 -0.71097,1.82945c-0.19075,0.60692 -0.28612,1.1994 -0.28612,1.77743c0,0.31213 0.02602,0.5838 0.07804,0.81501c0.05202,0.22543 0.10693,0.41618 0.16473,0.57225c0.05781,0.15607 0.11272,0.28323 0.16474,0.3815c0.05202,0.10405 0.07803,0.19364 0.07803,0.26878c0,0.01735 -0.01445,0.04047 -0.04335,0.06937c-0.01735,0.01735 -0.03179,0.02601 -0.04335,0.02601c-0.10405,0 -0.23699,-0.02312 -0.39883,-0.06936c-0.16185,-0.04624 -0.34392,-0.10983 -0.54623,-0.19075c-0.20231,-0.08092 -0.40462,-0.1734 -0.60693,-0.27745c-0.19653,-0.10405 -0.3815,-0.21388 -0.5549,-0.32948zM195.90002,151.22726c0.07515,-0.42774 0.2052,-0.9942 0.39017,-1.69939c0.18497,-0.70519 0.40173,-1.45373 0.65028,-2.24562c0.25432,-0.79189 0.52022,-1.58667 0.79767,-2.38434c0.28323,-0.79767 0.5578,-1.51442 0.82369,-2.15025c0.19075,-0.45664 0.36127,-0.81501 0.51156,-1.07513c0.15028,-0.26012 0.31213,-0.47976 0.48553,-0.65895c0.20809,0.0289 0.42196,0.08092 0.64161,0.15607c0.22543,0.07515 0.44219,0.16474 0.65028,0.26879c0.20809,0.10405 0.39305,0.21097 0.5549,0.3208c0.16185,0.10983 0.28612,0.21676 0.37283,0.32081c-0.39884,0.47398 -0.75144,1.01444 -1.05778,1.62136c-0.30058,0.60692 -0.60692,1.38437 -0.91905,2.33234c-0.31213,0.94797 1.51153,-1.39015 2.12423,-2.03753c0.61271,-0.65317 1.18495,-1.38147 1.71674,-2.18493c0.09249,-0.06937 0.24855,-0.10404 0.4682,-0.10404c0.20809,0 0.40751,0.03468 0.59825,0.10404c0.19075,0.06358 0.32369,0.15317 0.39884,0.26878c-0.26589,0.71097 -0.39884,1.41327 -0.39884,2.1069c0,0.65317 0.09537,1.1416 0.28612,1.46529c-0.01156,0.09249 -0.10983,0.2659 -0.29479,0.52022c-0.18497,0.24856 -0.38728,0.48265 -0.60693,0.7023c-0.40462,-0.20809 -0.76299,-0.49132 -1.07512,-0.84969c-0.30635,-0.36416 -0.53467,-0.7601 -0.68496,-1.18784c-0.69363,0.48554 -1.28611,0.96241 -1.77742,1.43061c-0.48554,0.46241 -0.90171,0.97976 -1.24853,1.552c-0.34681,0.56646 -0.6445,1.21963 -0.89305,1.9595c-0.24277,0.73987 -0.47398,1.62136 -0.69364,2.64446c-0.13295,-0.01735 -0.2919,-0.06647 -0.47687,-0.14739c-0.18497,-0.08092 -0.36993,-0.18207 -0.5549,-0.30346c-0.18497,-0.1156 -0.3526,-0.23988 -0.50288,-0.37283c-0.14451,-0.13295 -0.23988,-0.25722 -0.28612,-0.37283zM208.97218,140.90085c0.38728,0.12139 0.74854,0.38728 1.0838,0.79767c0.34104,0.40462 0.59537,0.84969 0.76299,1.33524c-0.16762,0.39884 -0.42195,0.88148 -0.76299,1.44795c-0.33525,0.56069 -0.6734,1.13294 -1.01443,1.71674c-0.34104,0.5838 -0.65028,1.1387 -0.92773,1.6647c-0.27167,0.526 -0.48598,0.90417 -0.53222,1.24521c-0.04624,0.34104 0.55534,-0.49088 0.84436,-0.82036c0.28901,-0.33525 0.56936,-0.66761 0.84103,-0.99708c0.27745,-0.33525 0.53467,-0.63872 0.77166,-0.91039c0.23699,-0.27745 0.42196,-0.48265 0.5549,-0.6156c0.28323,-0.29479 0.6156,-0.63872 0.9971,-1.03177c0.38728,-0.39305 0.79189,-0.76299 1.21385,-1.1098c0.42196,-0.34681 0.84681,-0.6416 1.27455,-0.88438c0.42774,-0.24856 0.82079,-0.37283 1.17916,-0.37283c0.3815,0 0.7023,0.13005 0.96242,0.39017c0.26012,0.26012 0.46241,0.53178 0.60692,0.81501c0,0.0289 -0.05491,0.06937 -0.16473,0.12139c-0.10983,0.05202 -0.26878,0.19653 -0.47687,0.43352c-0.20809,0.26589 -0.44219,0.63294 -0.70229,1.10113c-0.25432,0.46241 -0.50576,0.96529 -0.75431,1.50865c-0.24277,0.53757 -0.44508,1.08668 -0.60693,1.64737c-0.16185,0.56069 -0.24277,1.07224 -0.24277,1.53466c0,0.36993 0.04624,0.60692 0.13872,0.71097c0.09826,0.10405 0.23699,0.15606 0.41618,0.15606c0.16185,0 0.32947,-0.03757 0.50288,-0.11271c0.17919,-0.07515 0.32081,-0.11272 0.42485,-0.11272c0.06358,0.0289 0.11272,0.09249 0.1474,0.19075c0.03468,0.09249 0.05203,0.17629 0.05203,0.25144c-0.1156,0.10405 -0.25433,0.20809 -0.41618,0.31214c-0.16185,0.10405 -0.33237,0.2023 -0.51155,0.29479c-0.17919,0.0867 -0.35548,0.15896 -0.52889,0.21676c-0.16762,0.05781 -0.31792,0.08671 -0.45086,0.08671c-0.42774,0 -0.78033,-0.06359 -1.05778,-0.19075c-0.27167,-0.12139 -0.48553,-0.28611 -0.6416,-0.4942c-0.15607,-0.20809 -0.263,-0.45664 -0.3208,-0.74565c-0.05781,-0.28901 -0.08671,-0.59537 -0.08671,-0.91906c0,-0.17919 0.01445,-0.3786 0.04336,-0.59825c0.0289,-0.22543 0.0867,-0.48843 0.17341,-0.789c0.09249,-0.30635 0.21964,-0.6705 0.38149,-1.09246c0.16185,-0.42196 0.36994,-0.92773 0.62427,-1.51732c-0.0289,0 -0.22832,0.10404 -0.59825,0.31213c-0.36993,0.20809 -0.77166,0.526 -1.20518,0.95374c-0.69363,0.66473 -1.31789,1.32368 -1.8728,1.97684c-0.5549,0.64739 -1.12136,1.37281 -1.69939,2.17627c-0.32369,0.45664 -0.60981,0.84391 -0.85836,1.16182c-0.24855,0.31791 -0.45085,0.5289 -0.62427,0.63294c-0.31213,-0.17919 -0.54334,-0.42774 -0.69363,-0.74565c-0.15029,-0.31791 -0.25432,-0.64739 -0.32948,-0.98842c0,-0.27745 0.04046,-0.63005 0.12139,-1.05778c0.08092,-0.43352 0.19075,-0.91327 0.32948,-1.43928c0.14451,-0.526 0.31792,-1.07513 0.52022,-1.64737c0.20809,-0.57802 0.4393,-1.15604 0.69363,-1.73407c0.56069,-1.30056 1.07513,-2.32077 1.54333,-3.06064c0.4682,-0.73987 0.76009,-1.1416 0.8757,-1.20517c0,0 -0.38735,-0.12147 -0.00007,-0.00008zM225.31061,142.47887c-0.05781,0.91905 -0.22253,1.70806 -0.4942,2.36701c-0.26589,0.65895 -0.64739,1.23698 -1.14449,1.73407c-0.49132,0.49132 -1.09247,0.9364 -1.80344,1.33524c-0.71097,0.39884 -1.54044,0.78322 -2.48838,1.15317c0,0.09249 -0.00289,0.18785 -0.00867,0.28612c-0.00578,0.09249 -0.00867,0.19074 -0.00867,0.29479c0,0.19075 0.01444,0.39017 0.04335,0.59826c0.0289,0.20809 0.08092,0.40173 0.15607,0.58092c0.07515,0.17341 0.1792,0.31792 0.31214,0.43352c0.13295,0.10983 0.30057,0.16474 0.50288,0.16474c0.40462,0 0.79767,-0.0896 1.17917,-0.26878c0.38728,-0.17919 0.75432,-0.39595 1.10114,-0.65027c0.34681,-0.26012 0.6705,-0.54045 0.97108,-0.84103c0.30635,-0.30635 0.81501,-0.84103 0.81501,-0.84103c0,0 0.27456,0.26012 0.37283,0.3815c-0.66473,0.88438 -1.39305,1.62136 -2.18493,2.21095c-0.79189,0.5838 -1.54332,0.95664 -2.25429,1.11848c-1.01732,-0.12139 -1.8121,-0.4942 -2.38435,-1.11847c-0.56646,-0.63005 -0.84969,-1.39015 -0.84969,-2.2803c0,-0.60692 0.08381,-1.22251 0.25145,-1.84678c0.17341,-0.63005 0.41039,-1.23698 0.71097,-1.82077c0.30635,-0.58959 0.66184,-1.1416 1.06645,-1.65604c0.40462,-0.52022 0.84103,-0.97108 1.30922,-1.35258c0.4682,-0.38728 0.94796,-0.69074 1.43929,-0.91039c0.4971,-0.22543 0.99132,-0.33815 1.48263,-0.33815c0.67629,0.09249 1.31212,0.51445 1.90748,1.26588c0,0 0.05777,-0.9191 -0.00003,-0.00005zM223.77596,143.21584c-0.39884,0.05781 -0.81213,0.21965 -1.23986,0.48554c-0.42774,0.26589 -0.83235,0.62137 -1.21385,1.06645c-0.37572,0.44508 -0.71964,0.96241 -1.03177,1.552c-0.31213,0.58959 -0.55489,1.22541 -0.72831,1.90749c1.18495,-0.58959 2.16759,-1.31789 2.94792,-2.18493c0.78612,-0.86704 1.20807,-1.80922 1.26588,-2.82654c0,0 0.39883,-0.05781 -0.00001,0zM234.67668,148.22732c-0.34104,1.08091 -0.68208,2.06644 -1.02311,2.9566c-0.34104,0.88438 -0.70519,1.69939 -1.09246,2.44504c-0.3815,0.75143 -0.79478,1.43928 -1.23986,2.06355c-0.4393,0.63005 -0.92772,1.2283 -1.46528,1.79477c-0.67629,0.71097 -1.37859,1.25432 -2.1069,1.63003c-0.72252,0.37572 -1.44796,0.56357 -2.17626,0.56357c-0.36993,0 -0.73697,-0.04046 -1.10113,-0.12139c-0.35837,-0.08092 -0.69653,-0.19364 -1.01444,-0.33814c-0.31791,-0.13872 -0.59825,-0.30057 -0.84103,-0.48554c-0.24856,-0.18497 -0.42484,-0.3786 -0.52888,-0.58092c0,-0.17919 0.10404,-0.33525 0.31213,-0.4682c0.17919,0.16185 0.32948,0.28612 0.45085,0.37282c0.1156,0.09249 0.22832,0.16763 0.33814,0.22544c0.10983,0.05781 0.22833,0.09248 0.35549,0.10404c0.12716,0.01735 0.27167,0.02602 0.43352,0.02602c0.84392,0 1.6676,-0.24855 2.47105,-0.74565c0.80924,-0.49132 1.57223,-1.19362 2.28898,-2.1069c0.71676,-0.9075 1.36992,-2.00863 1.9595,-3.30341c0.59536,-1.29477 1.10114,-2.74273 1.51731,-4.34385c0.41618,-1.60112 -0.43641,0.66473 -0.71964,1.09247c-0.27745,0.42774 -0.58669,0.85258 -0.92772,1.27454c-0.34104,0.42196 -0.69363,0.80346 -1.05778,1.14449c-0.35837,0.34104 -0.70808,0.56935 -1.04912,0.68496c-0.23699,-0.01156 -0.48553,-0.06069 -0.74565,-0.14739c-0.25432,-0.08092 -0.4971,-0.19364 -0.72831,-0.33814c-0.23121,-0.15028 -0.43641,-0.32659 -0.6156,-0.52889c-0.17341,-0.20809 -0.29191,-0.44508 -0.35548,-0.71097c0,-0.43352 0.01444,-0.77744 0.04335,-1.03177c0.03468,-0.26012 0.0896,-0.54623 0.16474,-0.85836c0.13295,-0.56069 0.32658,-1.19652 0.58092,-1.90749c0.26012,-0.71097 0.56357,-1.41038 0.91038,-2.09822c0.34681,-0.68785 0.7312,-1.33235 1.15317,-1.93349c0.42196,-0.60115 0.86415,-1.06934 1.32657,-1.4046c0.1156,0 0.263,0.01156 0.44219,0.03468c0.17919,0.01735 0.36416,0.05781 0.5549,0.12139c0.19075,0.05781 0.37572,0.12717 0.5549,0.20809c0.17919,0.08092 0.33525,0.18785 0.4682,0.32081c-0.16185,0.15028 -0.51733,0.64739 -1.06645,1.4913c-0.54912,0.83813 -1.15605,2.0491 -1.82077,3.63289c-0.07515,0.16185 -0.16473,0.39884 -0.26878,0.71097c-0.10405,0.31213 -0.2052,0.63871 -0.30347,0.97975c-0.09249,0.34104 -0.17629,0.6734 -0.25143,0.9971c-0.07515,0.32369 -0.11272,0.5838 -0.11272,0.78033c0,0.1156 0.01735,0.2052 0.05203,0.26879c0.04046,0.05781 0.07515,0.10116 0.10404,0.13005c0.26589,-0.04624 0.62137,-0.26589 1.06646,-0.65895c0.44508,-0.39305 0.94796,-1.00287 1.50865,-1.82944c0.35837,-0.53179 0.68497,-1.06067 0.97976,-1.58667c0.29479,-0.526 0.58669,-1.05489 0.8757,-1.58668c0.28901,-0.53179 0.58669,-1.07801 0.89305,-1.63869c0.31213,-0.56646 0.64739,-1.14449 1.00576,-1.73407c0.19075,0 0.39595,0.02312 0.6156,0.06936c0.22543,0.04046 0.44219,0.09537 0.65028,0.16474c0.20809,0.06358 0.38728,0.13583 0.53757,0.21676c0.15607,0.08092 0.27168,0.16763 0.34682,0.26012c-0.45664,0.97686 -0.88438,1.93061 -1.28322,2.86122c-0.39884,0.93061 -0.75432,1.88436 -1.06645,2.86122z" fill="#e3edff" stroke="#85654c" stroke-width="7.5" stroke-linecap="square"/><path d="M148.00684,295.25784c0,-28.3948 0,-184.44307 0,-232.65538c0,-8.9596 4.93197,-14.19506 13.13705,-14.19506c36.45618,0 137.52795,0 157.71222,0c6.8567,0 13.13706,6.01726 13.13706,13.14707c0,26.87076 0,191.93995 0,236.84737c0,7.05689 -6.83573,13.19075 -14.16116,13.19075c-20.30171,0 -116.87609,0 -154.63991,0c-9.42378,0 -15.18526,-7.67306 -15.18526,-16.33474z" fill-opacity="0.06667" fill="#000000" stroke="#85654c" stroke-width="2.5" stroke-linecap="butt"/><path d="M187.5174,107.29834v8.36558l-2.8335,-0.07265l-0.07265,-2.10696c-2.2073,-1.57763 -3.73995,-2.58786 -4.59795,-3.03071v19.31556l2.80237,0.04152v2.69858h-12.95316v-2.69858l2.79199,-0.04152v-19.31556c-0.85801,0.44285 -2.3872,1.45308 -4.58758,3.03071l-0.09341,2.10697l-2.82313,0.07266v-8.36558zM212.03624,129.82108v2.6882h-9.73563l-5.31412,-10.4933l0.93412,0.22834c-0.42209,0.51204 -0.89953,0.78189 -1.43232,0.80957v6.72568l1.73332,0.04152v2.6882h-10.82544v-2.68819l1.73332,-0.04152v-19.74111l-1.73331,-0.03113v-2.71933l7.55601,0.08303l5.26223,-0.42554c1.84056,0 3.42512,0.34251 4.75364,1.02754c1.33545,0.68502 2.34915,1.61222 3.04109,2.78161c0.69886,1.16938 1.0483,2.45986 1.0483,3.87142c0,1.63298 -0.47052,3.05493 -1.41156,4.26583c-0.94104,1.20398 -2.03777,2.04815 -3.29018,2.5325l5.60473,8.34483l2.07583,0.0519zM196.48828,120.18925c1.27318,-0.07611 2.39066,-0.52933 3.35246,-1.35966c0.9618,-0.83033 1.4427,-1.94782 1.4427,-3.35246c0,-1.02408 -0.23872,-1.95128 -0.71616,-2.78161c-0.47744,-0.83033 -1.13132,-1.48421 -1.96165,-1.96165c-0.83033,-0.47744 -1.53611,-0.71616 -2.11734,-0.71616zM236.12407,129.82108v2.6882h-12.13321v-2.68819l1.50498,-0.04152l-1.22474,-4.35924h-4.85744l-0.88222,4.35924l1.65029,0.04152v2.6882h-9.47615v-2.68819l1.95128,-0.05189l7.91928,-22.10756l5.41791,-0.7473l8.17876,22.85485zM223.46152,122.63873c0,0 0.89604,-7.20311 -2.02393,-7.20311c-2.91997,0 -1.4427,7.20311 -1.4427,7.20311zM235.6436,129.82108l1.73332,-0.04152v-19.74111l-1.73331,-0.03113v-2.70895h10.82544v2.70896l-1.73331,0.03114v19.74111l1.73332,0.04152v2.6882h-10.82544zM272.53899,107.29834v2.70896l-1.76445,0.03114l-0.92374,22.43969l-5.39715,0.03114c0,0 -7.37523,-11.55896 -11.43781,-18.00779c-4.43769,-7.04426 1.08981,15.2677 1.08981,15.2677l2.1381,0.04152v2.69858h-8.69772v-2.68819l1.75408,-0.04152l0.56047,-19.74111l-1.71255,-0.03113v-2.70895h9.89132l8.98833,13.94955l-0.70578,-11.20946l-2.12772,-0.03113v-2.70895z" fill="#e3edff" stroke="#85654c" stroke-width="7.5" stroke-linecap="square"/><path d="M318.47877,113.64568c0,2.26227 -0.49992,4.43366 -1.49976,6.51414c-0.98974,2.08048 -2.33297,4.12562 -4.02968,6.13542c-1.6967,1.99969 -3.69135,4.03473 -5.98392,6.10512c-2.28247,2.07039 -4.74168,4.25692 -7.37764,6.55959c-1.19174,1.00995 -2.19158,1.90879 -2.99953,2.69655c-0.80795,0.78776 -1.49976,1.54016 -2.07543,2.25723c-0.56557,0.70696 -1.06044,1.39372 -1.48462,2.06028c-0.42418,0.66656 -0.7827,0.9039 -1.07558,0.71201c2.38346,-0.50497 5.21636,-1.39878 8.49868,-2.6814c3.29242,-1.28263 6.45354,-3.25706 9.48338,-5.92332c0.79786,0.98974 1.34828,1.7472 1.65126,2.27238c0.30298,0.52517 0.56053,1.11094 0.77261,1.7573c0.21209,0.63627 0.39893,1.32302 0.56053,2.06028c0.17169,0.73726 0.25754,1.47956 0.25754,2.22693c0,1.33313 -0.32318,2.52991 -0.96955,3.59036c-0.65646,0.71705 -1.45937,1.22709 -2.40871,1.53007c-0.94935,0.30298 -1.99464,0.52517 -3.13587,0.66656c-1.13114,0.14139 -2.33802,0.23229 -3.62064,0.27269c-1.27253,0.0404 -2.58546,0.06059 -3.93878,0.06059c-1.27253,0 -2.54001,0.0303 -3.80243,0.0909c-1.26243,0.0707 -2.45921,0.17674 -3.59034,0.31814c-1.13114,0.14139 -2.15118,0.34843 -3.06013,0.62112c-0.89885,0.27269 -1.83809,0.77765 -2.81774,1.51492c-1.67651,-0.77765 -2.99953,-1.70176 -3.96908,-2.77229c-0.96955,-1.06044 -1.69166,-2.32792 -2.16633,-3.80243c0.34339,-1.63611 0.86855,-3.03993 1.57551,-4.21147c0.70696,-1.18163 1.63611,-2.38346 2.78745,-3.6055c1.15134,-1.22203 2.55516,-2.51981 4.21147,-3.89333c1.66641,-1.37353 3.6156,-2.98943 5.84758,-4.84773c2.49457,-2.06028 4.73664,-3.97919 6.72623,-5.75668c1.99969,-1.7876 3.6661,-3.4742 4.99922,-5.05982c1.34323,-1.58561 2.35822,-3.11063 3.04498,-4.57504c0.68676,-1.47452 1.03014,-2.95913 1.03014,-4.45386c0,-1.7674 -0.41408,-3.11567 -1.24223,-4.04482c-0.82816,-0.93925 -1.92899,-1.40887 -3.30252,-1.40887c-1.04025,0 -2.06028,0.24744 -3.06013,0.74232c-0.98974,0.49488 -1.88355,1.19174 -2.6814,2.09058c-0.79786,0.89885 -1.44422,1.92899 -1.9391,3.09043c-0.49488,1.16144 -0.7423,2.38346 -0.7423,3.6661c0,0.91905 0.1313,1.727 0.39388,2.42386c0.27269,0.69686 1.16144,1.99464 2.66625,3.89334c-2.10068,0.42418 -3.45906,0.63627 -4.07512,0.63627c-1.20183,0 -2.31782,-0.20198 -3.34796,-0.60597c-1.02004,-0.41408 -1.90374,-0.97965 -2.6511,-1.6967c-0.74736,-0.72716 -1.33313,-1.58056 -1.7573,-2.5602c-0.41408,-0.98974 -0.62111,-2.07543 -0.62111,-3.25706c0,-1.89869 0.53022,-3.68124 1.59067,-5.34765c1.07054,-1.66641 2.43902,-3.10053 4.10543,-4.30236c1.67651,-1.21193 3.56005,-2.17138 5.65064,-2.87834c2.09058,-0.71705 4.22662,-1.07558 6.4081,-1.07558c1.91889,0 3.69135,0.28784 5.31736,0.8635c1.62601,0.56557 3.02478,1.39878 4.19632,2.49962c1.17153,1.10084 2.07039,2.40367 2.69655,3.90848c0.63627,1.50481 0.9544,3.14597 0.9544,4.92348c0,0 -0.00015,-2.26239 -0.00015,-0.00012z" fill="#e3edff" stroke="#85654c" stroke-width="7.5" stroke-linecap="square"/><path d="M187.5174,107.29834v8.36558l-2.8335,-0.07265l-0.07265,-2.10696c-2.2073,-1.57763 -3.73995,-2.58786 -4.59795,-3.03071v19.31556l2.80237,0.04152v2.69858h-12.95316v-2.69858l2.79199,-0.04152v-19.31556c-0.85801,0.44285 -2.3872,1.45308 -4.58758,3.03071l-0.09341,2.10697l-2.82313,0.07266v-8.36558zM212.03624,129.82108v2.6882h-9.73563l-5.31412,-10.4933l0.93412,0.22834c-0.42209,0.51204 -0.89953,0.78189 -1.43232,0.80957v6.72568l1.73332,0.04152v2.6882h-10.82544v-2.68819l1.73332,-0.04152v-19.74111l-1.73331,-0.03113v-2.71933l7.55601,0.08303l5.26223,-0.42554c1.84056,0 3.42512,0.34251 4.75364,1.02754c1.33545,0.68502 2.34915,1.61222 3.04109,2.78161c0.69886,1.16938 1.0483,2.45986 1.0483,3.87142c0,1.63298 -0.47052,3.05493 -1.41156,4.26583c-0.94104,1.20398 -2.03777,2.04815 -3.29018,2.5325l5.60473,8.34483l2.07583,0.0519zM196.48828,120.18925c1.27318,-0.07611 2.39066,-0.52933 3.35246,-1.35966c0.9618,-0.83033 1.4427,-1.94782 1.4427,-3.35246c0,-1.02408 -0.23872,-1.95128 -0.71616,-2.78161c-0.47744,-0.83033 -1.13132,-1.48421 -1.96165,-1.96165c-0.83033,-0.47744 -1.53611,-0.71616 -2.11734,-0.71616zM236.12407,129.82108v2.6882h-12.13321v-2.68819l1.50498,-0.04152l-1.22474,-4.35924h-4.85744l-0.88222,4.35924l1.65029,0.04152v2.6882h-9.47615v-2.68819l1.95128,-0.05189l7.91928,-22.10756l5.41791,-0.7473l8.17876,22.85485zM223.46152,122.63873l-2.02393,-7.20311l-1.4427,7.20311zM235.6436,129.82108l1.73332,-0.04152v-19.74111l-1.73331,-0.03113v-2.70895h10.82544v2.70896l-1.73331,0.03114v19.74111l1.73332,0.04152v2.6882h-10.82544zM272.53899,107.29834v2.70896l-1.76445,0.03114l-0.92374,22.43969l-5.39715,0.03114l-11.43781,-18.00779l1.08981,15.2677l2.1381,0.04152v2.69858h-8.69772v-2.68819l1.75408,-0.04152l0.56047,-19.74111l-1.71255,-0.03113v-2.70895h9.89132l8.98833,13.94955l-0.70578,-11.20946l-2.12772,-0.03113v-2.70895z" fill="#ce6552" stroke="none" stroke-width="1" stroke-linecap="square"/><path d="M318.47877,113.64568c0,2.26227 -0.49992,4.43366 -1.49976,6.51414c-0.98974,2.08048 -2.33297,4.12562 -4.02968,6.13542c-1.6967,1.99969 -3.69135,4.03473 -5.98392,6.10512c-2.28247,2.07039 -4.74168,4.25692 -7.37764,6.55959c-1.19174,1.00995 -2.19158,1.90879 -2.99953,2.69655c-0.80795,0.78776 -1.49976,1.54016 -2.07543,2.25723c-0.56557,0.70696 -1.06044,1.39372 -1.48462,2.06028c-0.42418,0.66656 -0.7827,0.9039 -1.07558,0.71201c2.38346,-0.50497 5.21636,-1.39878 8.49868,-2.6814c3.29242,-1.28263 6.45354,-3.25706 9.48338,-5.92332c0.79786,0.98974 1.34828,1.7472 1.65126,2.27238c0.30298,0.52517 0.56053,1.11094 0.77261,1.7573c0.21209,0.63627 0.39893,1.32302 0.56053,2.06028c0.17169,0.73726 0.25754,1.47956 0.25754,2.22693c0,1.33313 -0.32318,2.52991 -0.96955,3.59036c-0.65646,0.71705 -1.45937,1.22709 -2.40871,1.53007c-0.94935,0.30298 -1.99464,0.52517 -3.13587,0.66656c-1.13114,0.14139 -2.33802,0.23229 -3.62064,0.27269c-1.27253,0.0404 -2.58546,0.06059 -3.93878,0.06059c-1.27253,0 -2.54001,0.0303 -3.80243,0.0909c-1.26243,0.0707 -2.45921,0.17674 -3.59034,0.31814c-1.13114,0.14139 -2.15118,0.34843 -3.06013,0.62112c-0.89885,0.27269 -1.83809,0.77765 -2.81774,1.51492c-1.67651,-0.77765 -2.99953,-1.70176 -3.96908,-2.77229c-0.96955,-1.06044 -1.69166,-2.32792 -2.16633,-3.80243c0.34339,-1.63611 0.86855,-3.03993 1.57551,-4.21147c0.70696,-1.18163 1.63611,-2.38346 2.78745,-3.6055c1.15134,-1.22203 2.55516,-2.51981 4.21147,-3.89333c1.66641,-1.37353 3.6156,-2.98943 5.84758,-4.84773c2.49457,-2.06028 4.73664,-3.97919 6.72623,-5.75668c1.99969,-1.7876 3.6661,-3.4742 4.99922,-5.05982c1.34323,-1.58561 2.35822,-3.11063 3.04498,-4.57504c0.68676,-1.47452 1.03014,-2.95913 1.03014,-4.45386c0,-1.7674 -0.41408,-3.11567 -1.24223,-4.04482c-0.82816,-0.93925 -1.92899,-1.40887 -3.30252,-1.40887c-1.04025,0 -2.06028,0.24744 -3.06013,0.74232c-0.98974,0.49488 -1.88355,1.19174 -2.6814,2.09058c-0.79786,0.89885 -1.44422,1.92899 -1.9391,3.09043c-0.49488,1.16144 -0.7423,2.38346 -0.7423,3.6661c0,0.91905 0.1313,1.727 0.39388,2.42386c0.27269,0.69686 1.16144,1.99464 2.66625,3.89334c-2.10068,0.42418 -3.45906,0.63627 -4.07512,0.63627c-1.20183,0 -2.31782,-0.20198 -3.34796,-0.60597c-1.02004,-0.41408 -1.90374,-0.97965 -2.6511,-1.6967c-0.74736,-0.72716 -1.33313,-1.58056 -1.7573,-2.5602c-0.41408,-0.98974 -0.62111,-2.07543 -0.62111,-3.25706c0,-1.89869 0.53022,-3.68124 1.59067,-5.34765c1.07054,-1.66641 2.43902,-3.10053 4.10543,-4.30236c1.67651,-1.21193 3.56005,-2.17138 5.65064,-2.87834c2.09058,-0.71705 4.22662,-1.07558 6.4081,-1.07558c1.91889,0 3.69135,0.28784 5.31736,0.8635c1.62601,0.56557 3.02478,1.39878 4.19632,2.49962c1.17153,1.10084 2.07039,2.40367 2.69655,3.90848c0.63627,1.50481 0.9544,3.14597 0.9544,4.92348z" fill="#e7925c" stroke="#ffb766" stroke-width="0" stroke-linecap="square"/><path d="M235.03052,151.14829c-1.33182,6.803 -16.46885,-3.09901 -37.40099,-3.09901c-20.93215,0 -33.72475,6.5272 -33.901,2.59901c-1.5,-33.43215 15.46885,-32.901 36.401,-32.901c20.93215,0 38.90099,12.96885 34.90099,33.401z" fill="url(#color-7)" stroke="none" stroke-width="0" stroke-linecap="butt"/><path d="M173.06306,131.2651c0.56069,0 1.14449,0.10404 1.75141,0.31213c0.60693,0.20809 1.13871,0.47398 1.59534,0.79768c-0.14451,0.75721 -0.28034,1.43928 -0.40751,2.04621c-0.12717,0.60693 -0.24277,1.15894 -0.34681,1.65605c-0.10404,0.49132 -0.2052,0.94218 -0.30346,1.35258c-0.09249,0.40462 -0.18207,0.78322 -0.26878,1.13582c-0.35837,1.33524 -0.72542,2.54042 -1.10113,3.61555c-0.37571,1.06934 -0.77455,2.03465 -1.19651,2.8959c-0.42196,0.85548 -0.86704,1.61558 -1.33524,2.28031c-0.4682,0.66473 -0.96819,1.24853 -1.49997,1.75141c-0.51444,0.49132 -1.03177,0.89016 -1.55199,1.19651c-0.52022,0.31213 -0.99998,0.51444 -1.43928,0.60693c-0.59537,0 -1.14449,-0.06647 -1.64737,-0.19942c-0.50288,-0.13295 -0.9364,-0.31502 -1.30056,-0.54623c-0.35837,-0.23121 -0.63872,-0.50577 -0.84103,-0.82368c-0.19653,-0.31792 -0.29479,-0.66761 -0.29479,-1.04911c0,-0.41618 0.10115,-0.93929 0.30346,-1.56933c0.20809,-0.63005 0.526,-1.37281 0.95374,-2.22828c0.17919,0.01156 0.38728,0.05491 0.62427,0.13006c0.23699,0.07515 0.47398,0.16474 0.71097,0.26878c0.23699,0.10404 0.45086,0.21965 0.64161,0.34681c0.19653,0.12139 0.33814,0.24277 0.42485,0.36416c-0.47398,0.48554 -0.85836,1.0231 -1.15316,1.61269c-0.29479,0.5838 -0.44219,1.08957 -0.44219,1.51731c0,0.24855 0.04624,0.47398 0.13873,0.67629c0.09826,0.20231 0.26589,0.38439 0.50288,0.54624c0.90172,-0.34103 1.78032,-0.97397 2.63579,-1.89881c0.86125,-0.92484 1.62425,-2.0751 2.28898,-3.4508c0.39884,-0.81501 0.7601,-1.74852 1.0838,-2.80053c0.32948,-1.052 0.60693,-2.1069 0.83236,-3.16468c0.23121,-1.05778 0.4104,-2.06933 0.53756,-3.03463c0.12717,-0.97108 0.19075,-1.78898 0.19075,-2.45371c0,-0.10404 -0.00578,-0.24855 -0.01734,-0.43352c-0.00578,-0.18496 -0.01156,-0.37571 -0.01734,-0.57224c-0.00578,-0.20231 -0.01734,-0.38439 -0.03468,-0.54623c-0.01156,-0.16763 -0.01734,-0.28034 -0.01734,-0.33814zM178.29403,148.44977c-0.84392,-0.09249 -1.51731,-0.46241 -2.0202,-1.10981c-0.50288,-0.65316 -0.75432,-1.48263 -0.75432,-2.48839c0,-0.59537 0.0896,-1.21096 0.26878,-1.84678c0.17919,-0.63583 0.43063,-1.25142 0.75433,-1.84678c0.32369,-0.60115 0.70808,-1.16761 1.15316,-1.69939c0.44508,-0.53178 0.92773,-0.99132 1.44795,-1.37859c0.80923,-0.60693 1.56934,-0.91039 2.28031,-0.91039c0.47398,0.25433 0.94218,0.78033 1.4046,1.57801c0.06936,0 0.13295,-0.00289 0.19075,-0.00867c0.06358,-0.01156 0.13295,-0.01734 0.20809,-0.01734c0.78033,0 1.1705,0.69652 1.1705,2.08956c0,0.93062 -0.15317,1.815 -0.45953,2.65313c-0.30057,0.83814 -0.71964,1.59824 -1.2572,2.28031c-0.53756,0.67629 -1.18206,1.24853 -1.93349,1.71673c-0.74565,0.46241 -1.56356,0.79189 -2.45371,0.98842zM179.42984,141.45281c-0.25433,0.34103 -0.49132,0.71097 -0.71097,1.10981c-0.21965,0.39884 -0.41329,0.80345 -0.58091,1.21385c-0.16185,0.40462 -0.28612,0.79768 -0.37283,1.17917c-0.08671,0.37571 -0.13005,0.71097 -0.13005,1.00576c0,0.3526 0.0578,0.69363 0.17341,1.0231c0.12139,0.32369 0.25433,0.50866 0.39884,0.5549c0.66473,-0.15028 1.27454,-0.42773 1.82945,-0.83236c0.5549,-0.4104 1.03466,-0.91906 1.43928,-1.52598c0.4104,-0.60693 0.7312,-1.29477 0.96241,-2.06355c0.23121,-0.76877 0.34681,-1.58957 0.34681,-2.46238c0,-0.38728 -0.02312,-0.69074 -0.06936,-0.91039c-0.04624,-0.21965 -0.12139,-0.4104 -0.22543,-0.57224c-0.64739,0.19075 -1.2283,0.49999 -1.74274,0.92773c-0.50866,0.42773 -0.94796,0.8786 -1.31789,1.35258zM191.5073,147.18392c-0.28324,-0.23699 -0.47398,-0.53178 -0.57224,-0.88438c-0.09249,-0.35837 -0.13873,-0.66473 -0.13873,-0.91906c0,-0.30635 0.03757,-0.57224 0.11272,-0.79768c-0.06358,0 -0.19942,0.11849 -0.40751,0.35549c-0.20231,0.23699 -0.42773,0.52022 -0.67629,0.84969c-0.24277,0.32369 -0.48265,0.64161 -0.71964,0.95374c-0.23699,0.30635 -0.41329,0.53467 -0.52889,0.68496c-0.19653,0.20809 -0.3786,0.36994 -0.54623,0.48554c-0.16763,0.12139 -0.30346,0.18785 -0.40751,0.19942c-0.23699,-0.01156 -0.48554,-0.06069 -0.74565,-0.14739c-0.26011,-0.08092 -0.50577,-0.19364 -0.73698,-0.33814c-0.22543,-0.15028 -0.42484,-0.32659 -0.59825,-0.52889c-0.16763,-0.20809 -0.28034,-0.44508 -0.33814,-0.71097c0,-0.41618 0.00868,-0.75721 0.02601,-1.0231c0.02312,-0.26589 0.07225,-0.5549 0.1474,-0.86704c0.13295,-0.56069 0.32948,-1.19651 0.58959,-1.90748c0.26011,-0.71097 0.5578,-1.41038 0.89305,-2.09823c0.34103,-0.68785 0.72253,-1.33234 1.14449,-1.93349c0.42196,-0.60115 0.86993,-1.06934 1.34391,-1.4046c0.13295,0 0.28901,0.01156 0.4682,0.03468c0.17919,0.01734 0.36127,0.0578 0.54624,0.12139c0.18496,0.0578 0.36127,0.12717 0.52889,0.20809c0.17341,0.08092 0.31792,0.18785 0.43352,0.32081c-0.13295,0.15028 -0.47109,0.64739 -1.01443,1.4913c-0.53756,0.83814 -1.13871,2.0491 -1.80344,3.63288c-0.07515,0.16185 -0.16473,0.39884 -0.26878,0.71097c-0.10404,0.31213 -0.20809,0.63872 -0.31213,0.97976c-0.09826,0.34103 -0.18207,0.6734 -0.25144,0.99709c-0.06358,0.32369 -0.09537,0.5838 -0.09537,0.78033c0,0.1156 0.01734,0.2052 0.05203,0.26878c0.03468,0.0578 0.06647,0.10115 0.09538,0.13006c0.22543,-0.09249 0.50866,-0.33814 0.84969,-0.73698c0.34103,-0.39884 0.81501,-1.01154 1.42194,-1.83812c0.14451,-0.20809 0.31502,-0.44508 0.51156,-0.71097c0.20231,-0.26589 0.40751,-0.54912 0.6156,-0.84969c0.20809,-0.30635 0.40462,-0.62137 0.58959,-0.94507c0.18496,-0.32948 0.33525,-0.65605 0.45086,-0.97975c0.06358,-0.17919 0.14161,-0.39016 0.2341,-0.63293c0.09826,-0.24277 0.21676,-0.4971 0.35549,-0.76299c0.14451,-0.27167 0.30924,-0.54334 0.49421,-0.81501c0.18496,-0.27167 0.40173,-0.526 0.65028,-0.76299c0.19075,0 0.39595,0.02312 0.6156,0.06936c0.22543,0.04046 0.43641,0.09538 0.63294,0.16474c0.20231,0.06358 0.3786,0.13584 0.52889,0.21676c0.15028,0.08092 0.26011,0.16763 0.32948,0.26011c-0.26589,0.64739 -0.56069,1.29189 -0.88438,1.9335c-0.32369,0.63583 -0.62716,1.26009 -0.91039,1.8728c-0.28324,0.6127 -0.52022,1.22253 -0.71097,1.82945c-0.19075,0.60693 -0.28612,1.1994 -0.28612,1.77743c0,0.31213 0.02601,0.5838 0.07804,0.81501c0.05203,0.22543 0.10693,0.41618 0.16474,0.57224c0.0578,0.15607 0.11272,0.28324 0.16474,0.38149c0.05203,0.10404 0.07804,0.19364 0.07804,0.26878c0,0.01734 -0.01445,0.04046 -0.04335,0.06936c-0.01734,0.01734 -0.03179,0.02601 -0.04335,0.02601c-0.10404,0 -0.23699,-0.02312 -0.39884,-0.06936c-0.16185,-0.04624 -0.34392,-0.10983 -0.54623,-0.19075c-0.20231,-0.08092 -0.40462,-0.17341 -0.60693,-0.27745c-0.19653,-0.10404 -0.38149,-0.21387 -0.5549,-0.32948zM195.90002,147.22726c0.07515,-0.42773 0.2052,-0.99421 0.39017,-1.69939c0.18496,-0.70519 0.40173,-1.45373 0.65028,-2.24562c0.25433,-0.79189 0.52022,-1.58668 0.79768,-2.38435c0.28324,-0.79768 0.5578,-1.51442 0.82369,-2.15025c0.19075,-0.45664 0.36127,-0.81501 0.51156,-1.07513c0.15028,-0.26011 0.31213,-0.47976 0.48554,-0.65895c0.20809,0.0289 0.42196,0.08092 0.64161,0.15607c0.22543,0.07515 0.44219,0.16474 0.65028,0.26878c0.20809,0.10404 0.39305,0.21098 0.5549,0.32081c0.16185,0.10983 0.28613,0.21676 0.37283,0.32081c-0.39884,0.47398 -0.75144,1.01444 -1.05778,1.62136c-0.30057,0.60693 -0.60693,1.38437 -0.91906,2.33233c-0.31213,0.94797 1.51153,-1.39015 2.12424,-2.03753c0.6127,-0.65316 1.18495,-1.38148 1.71673,-2.18493c0.09249,-0.06936 0.24855,-0.10404 0.4682,-0.10404c0.20809,0 0.40751,0.03468 0.59826,0.10404c0.19075,0.06358 0.32369,0.15317 0.39884,0.26878c-0.26589,0.71097 -0.39884,1.41327 -0.39884,2.1069c0,0.65316 0.09538,1.1416 0.28613,1.4653c-0.01156,0.09249 -0.10983,0.26589 -0.29479,0.52022c-0.18496,0.24855 -0.38728,0.48265 -0.60693,0.7023c-0.40462,-0.20809 -0.76299,-0.49132 -1.07513,-0.84969c-0.30635,-0.36416 -0.53467,-0.7601 -0.68496,-1.18784c-0.69363,0.48554 -1.2861,0.96241 -1.77742,1.43061c-0.48554,0.46241 -0.90172,0.97976 -1.24853,1.55199c-0.34681,0.56647 -0.6445,1.21963 -0.89304,1.9595c-0.24277,0.73987 -0.47398,1.62136 -0.69363,2.64446c-0.13295,-0.01734 -0.2919,-0.06647 -0.47687,-0.14739c-0.18496,-0.08092 -0.36994,-0.18207 -0.5549,-0.30346c-0.18496,-0.1156 -0.3526,-0.23988 -0.50288,-0.37283c-0.14451,-0.13295 -0.23988,-0.25722 -0.28612,-0.37283zM208.97218,136.90085c0.38728,0.12139 0.74854,0.38728 1.0838,0.79768c0.34103,0.40462 0.59537,0.84969 0.76299,1.33524c-0.16763,0.39884 -0.42196,0.88149 -0.76299,1.44795c-0.33525,0.56069 -0.6734,1.13293 -1.01443,1.71673c-0.34103,0.5838 -0.65028,1.13871 -0.92773,1.66471c-0.27167,0.526 -0.48598,0.90417 -0.53222,1.2452c-0.04624,0.34103 0.55535,-0.49088 0.84436,-0.82035c0.28901,-0.33525 0.56935,-0.66761 0.84103,-0.99709c0.27745,-0.33525 0.53467,-0.63872 0.77166,-0.91039c0.23699,-0.27745 0.42196,-0.48265 0.5549,-0.61559c0.28324,-0.29479 0.6156,-0.63872 0.99709,-1.03177c0.38728,-0.39305 0.79189,-0.76299 1.21385,-1.10981c0.42196,-0.34681 0.8468,-0.64161 1.27454,-0.88438c0.42773,-0.24855 0.8208,-0.37283 1.17917,-0.37283c0.38149,0 0.7023,0.13006 0.96241,0.39017c0.26011,0.26011 0.46241,0.53178 0.60693,0.81501c0,0.0289 -0.05491,0.06936 -0.16473,0.12139c-0.10983,0.05203 -0.26878,0.19653 -0.47687,0.43352c-0.20809,0.26589 -0.44219,0.63294 -0.70229,1.10114c-0.25433,0.46241 -0.50577,0.9653 -0.75432,1.50864c-0.24277,0.53756 -0.44508,1.08668 -0.60693,1.64737c-0.16185,0.56069 -0.24277,1.07224 -0.24277,1.53466c0,0.36994 0.04624,0.60693 0.13873,0.71097c0.09826,0.10404 0.23699,0.15607 0.41618,0.15607c0.16185,0 0.32948,-0.03757 0.50288,-0.11271c0.17919,-0.07515 0.32081,-0.11271 0.42485,-0.11271c0.06358,0.0289 0.11272,0.09249 0.1474,0.19075c0.03468,0.09249 0.05203,0.1763 0.05203,0.25144c-0.1156,0.10404 -0.25433,0.20809 -0.41618,0.31213c-0.16185,0.10404 -0.33236,0.20231 -0.51155,0.29479c-0.17919,0.08671 -0.35548,0.15896 -0.52889,0.21676c-0.16763,0.0578 -0.31792,0.08671 -0.45086,0.08671c-0.42773,0 -0.78033,-0.06358 -1.05778,-0.19075c-0.27167,-0.12139 -0.48554,-0.28612 -0.64161,-0.49421c-0.15607,-0.20809 -0.263,-0.45664 -0.3208,-0.74565c-0.0578,-0.28901 -0.08671,-0.59537 -0.08671,-0.91906c0,-0.17919 0.01445,-0.3786 0.04336,-0.59825c0.0289,-0.22543 0.08671,-0.48843 0.17341,-0.789c0.09249,-0.30635 0.21965,-0.67051 0.38149,-1.09246c0.16185,-0.42196 0.36994,-0.92773 0.62427,-1.51731c-0.0289,0 -0.22832,0.10404 -0.59825,0.31213c-0.36994,0.20809 -0.77166,0.526 -1.20518,0.95374c-0.69363,0.66473 -1.31789,1.32368 -1.8728,1.97685c-0.5549,0.64739 -1.12137,1.37281 -1.69939,2.17626c-0.32369,0.45664 -0.60981,0.84392 -0.85836,1.16183c-0.24855,0.31791 -0.45086,0.52889 -0.62427,0.63294c-0.31213,-0.17919 -0.54334,-0.42773 -0.69363,-0.74565c-0.15029,-0.31792 -0.25433,-0.64739 -0.32948,-0.98842c0,-0.27745 0.04046,-0.63005 0.12139,-1.05778c0.08092,-0.43352 0.19075,-0.91328 0.32948,-1.43928c0.14451,-0.526 0.31792,-1.07513 0.52022,-1.64737c0.20809,-0.57802 0.4393,-1.15605 0.69363,-1.73407c0.56069,-1.30056 1.07513,-2.32077 1.54333,-3.06063c0.4682,-0.73987 0.7601,-1.1416 0.87571,-1.20518c0,0 -0.38735,-0.12147 -0.00007,-0.00008zM225.31061,138.47887c-0.0578,0.91906 -0.22254,1.70806 -0.49421,2.36701c-0.26589,0.65895 -0.64739,1.23697 -1.14449,1.73407c-0.49132,0.49132 -1.09246,0.9364 -1.80344,1.33524c-0.71097,0.39884 -1.54044,0.78322 -2.48839,1.15316c0,0.09249 -0.00289,0.18785 -0.00867,0.28613c-0.00578,0.09249 -0.00867,0.19075 -0.00867,0.29479c0,0.19075 0.01445,0.39017 0.04336,0.59826c0.0289,0.20809 0.08092,0.40173 0.15607,0.58092c0.07515,0.17341 0.17919,0.31792 0.31213,0.43352c0.13295,0.10983 0.30057,0.16474 0.50288,0.16474c0.40462,0 0.79768,-0.0896 1.17917,-0.26878c0.38728,-0.17919 0.75433,-0.39595 1.10114,-0.65028c0.34681,-0.26011 0.67051,-0.54045 0.97108,-0.84103c0.30635,-0.30635 0.81501,-0.84103 0.81501,-0.84103c0,0 0.27456,0.26011 0.37283,0.38149c-0.66473,0.88438 -1.39304,1.62136 -2.18493,2.21095c-0.79189,0.5838 -1.54333,0.95663 -2.2543,1.11848c-1.01732,-0.12139 -1.8121,-0.49421 -2.38435,-1.11848c-0.56647,-0.63005 -0.84969,-1.39015 -0.84969,-2.2803c0,-0.60693 0.08381,-1.22252 0.25144,-1.84678c0.17341,-0.63005 0.4104,-1.23697 0.71097,-1.82078c0.30635,-0.58959 0.66184,-1.1416 1.06646,-1.65604c0.40462,-0.52022 0.84103,-0.97108 1.30923,-1.35258c0.4682,-0.38728 0.94796,-0.69074 1.43928,-0.91039c0.4971,-0.22543 0.99132,-0.33814 1.48263,-0.33814c0.67629,0.09249 1.31212,0.51444 1.90748,1.26588c0,0 0.05777,-0.9191 -0.00003,-0.00005zM223.77595,139.21584c-0.39884,0.0578 -0.81212,0.21965 -1.23986,0.48554c-0.42773,0.26589 -0.83236,0.62137 -1.21385,1.06646c-0.37571,0.44508 -0.71964,0.96241 -1.03177,1.55199c-0.31213,0.58959 -0.5549,1.22541 -0.72831,1.90748c1.18495,-0.58959 2.16759,-1.31789 2.94793,-2.18493c0.78612,-0.86704 1.20807,-1.80922 1.26588,-2.82654c0,0 0.39882,-0.0578 -0.00001,0zM234.67668,144.22732c-0.34103,1.0809 -0.68207,2.06643 -1.0231,2.9566c-0.34103,0.88438 -0.70519,1.69939 -1.09246,2.44505c-0.38149,0.75144 -0.79478,1.43928 -1.23986,2.06355c-0.4393,0.63005 -0.92773,1.2283 -1.46529,1.79477c-0.67629,0.71097 -1.37859,1.25432 -2.1069,1.63003c-0.72253,0.37571 -1.44795,0.56358 -2.17626,0.56358c-0.36994,0 -0.73698,-0.04046 -1.10113,-0.12139c-0.35837,-0.08092 -0.69652,-0.19364 -1.01443,-0.33814c-0.31792,-0.13873 -0.59825,-0.30057 -0.84103,-0.48554c-0.24855,-0.18496 -0.42484,-0.3786 -0.52889,-0.58091c0,-0.17919 0.10404,-0.33525 0.31213,-0.4682c0.17919,0.16185 0.32948,0.28613 0.45086,0.37283c0.1156,0.09249 0.22832,0.16763 0.33814,0.22543c0.10983,0.0578 0.22832,0.09249 0.35549,0.10404c0.12717,0.01734 0.27167,0.02601 0.43352,0.02601c0.84392,0 1.6676,-0.24855 2.47106,-0.74565c0.80923,-0.49132 1.57222,-1.19362 2.28898,-2.1069c0.71675,-0.9075 1.36992,-2.00863 1.9595,-3.30341c0.59537,-1.29477 1.10114,-2.74273 1.51731,-4.34385c0.41618,-1.60112 -0.43641,0.66473 -0.71964,1.09246c-0.27745,0.42773 -0.58669,0.85258 -0.92773,1.27454c-0.34103,0.42196 -0.69363,0.80345 -1.05778,1.14449c-0.35837,0.34103 -0.70808,0.56935 -1.04911,0.68496c-0.23699,-0.01156 -0.48554,-0.06069 -0.74565,-0.14739c-0.25433,-0.08092 -0.4971,-0.19364 -0.72831,-0.33814c-0.23121,-0.15028 -0.43641,-0.32659 -0.61559,-0.52889c-0.17341,-0.20809 -0.2919,-0.44508 -0.35548,-0.71097c0,-0.43352 0.01445,-0.77744 0.04336,-1.03177c0.03468,-0.26011 0.0896,-0.54623 0.16474,-0.85836c0.13295,-0.56069 0.32659,-1.19651 0.58092,-1.90748c0.26011,-0.71097 0.56358,-1.41038 0.91039,-2.09823c0.34681,-0.68785 0.7312,-1.33234 1.15316,-1.93349c0.42196,-0.60115 0.86415,-1.06934 1.32657,-1.4046c0.1156,0 0.263,0.01156 0.44219,0.03468c0.17919,0.01734 0.36416,0.0578 0.5549,0.12139c0.19075,0.0578 0.37571,0.12717 0.5549,0.20809c0.17919,0.08092 0.33525,0.18785 0.4682,0.32081c-0.16185,0.15028 -0.51733,0.64739 -1.06645,1.4913c-0.54912,0.83814 -1.15605,2.0491 -1.82078,3.63288c-0.07515,0.16185 -0.16473,0.39884 -0.26878,0.71097c-0.10404,0.31213 -0.2052,0.63872 -0.30346,0.97976c-0.09249,0.34103 -0.1763,0.6734 -0.25144,0.99709c-0.07515,0.32369 -0.11271,0.5838 -0.11271,0.78033c0,0.1156 0.01734,0.2052 0.05203,0.26878c0.04046,0.0578 0.07515,0.10115 0.10404,0.13006c0.26589,-0.04624 0.62137,-0.26589 1.06646,-0.65895c0.44508,-0.39305 0.94796,-1.00287 1.50864,-1.82944c0.35837,-0.53178 0.68496,-1.06068 0.97976,-1.58668c0.29479,-0.526 0.58669,-1.05489 0.87571,-1.58668c0.28901,-0.53178 0.58669,-1.07802 0.89305,-1.63869c0.31213,-0.56647 0.64739,-1.14449 1.00576,-1.73407c0.19075,0 0.39595,0.02312 0.6156,0.06936c0.22543,0.04046 0.44219,0.09538 0.65028,0.16474c0.20809,0.06358 0.38728,0.13584 0.53756,0.21676c0.15607,0.08092 0.27167,0.16763 0.34681,0.26011c-0.45664,0.97686 -0.88438,1.93061 -1.28321,2.86122c-0.39884,0.93062 -0.75432,1.88436 -1.06645,2.86122z" fill="#e3edff" stroke="#85654c" stroke-width="7.5" stroke-linecap="square"/><path d="M173.06306,131.2651c0.56069,0 1.14449,0.10404 1.75141,0.31213c0.60693,0.20809 1.13871,0.47398 1.59534,0.79768c-0.14451,0.75721 -0.28034,1.43928 -0.40751,2.04621c-0.12717,0.60693 -0.24277,1.15894 -0.34681,1.65605c-0.10404,0.49132 -0.2052,0.94218 -0.30346,1.35258c-0.09249,0.40462 -0.18207,0.78322 -0.26878,1.13582c-0.35837,1.33524 -0.72542,2.54042 -1.10113,3.61555c-0.37571,1.06934 -0.77455,2.03465 -1.19651,2.8959c-0.42196,0.85548 -0.86704,1.61558 -1.33524,2.28031c-0.4682,0.66473 -0.96819,1.24853 -1.49997,1.75141c-0.51444,0.49132 -1.03177,0.89016 -1.55199,1.19651c-0.52022,0.31213 -0.99998,0.51444 -1.43928,0.60693c-0.59537,0 -1.14449,-0.06647 -1.64737,-0.19942c-0.50288,-0.13295 -0.9364,-0.31502 -1.30056,-0.54623c-0.35837,-0.23121 -0.63872,-0.50577 -0.84103,-0.82368c-0.19653,-0.31792 -0.29479,-0.66761 -0.29479,-1.04911c0,-0.41618 0.10115,-0.93929 0.30346,-1.56933c0.20809,-0.63005 0.526,-1.37281 0.95374,-2.22828c0.17919,0.01156 0.38728,0.05491 0.62427,0.13006c0.23699,0.07515 0.47398,0.16474 0.71097,0.26878c0.23699,0.10404 0.45086,0.21965 0.64161,0.34681c0.19653,0.12139 0.33814,0.24277 0.42485,0.36416c-0.47398,0.48554 -0.85836,1.0231 -1.15316,1.61269c-0.29479,0.5838 -0.44219,1.08957 -0.44219,1.51731c0,0.24855 0.04624,0.47398 0.13873,0.67629c0.09826,0.20231 0.26589,0.38439 0.50288,0.54624c0.90172,-0.34103 1.78032,-0.97397 2.63579,-1.89881c0.86125,-0.92484 1.62425,-2.0751 2.28898,-3.4508c0.39884,-0.81501 0.7601,-1.74852 1.0838,-2.80053c0.32948,-1.052 0.60693,-2.1069 0.83236,-3.16468c0.23121,-1.05778 0.4104,-2.06933 0.53756,-3.03463c0.12717,-0.97108 0.19075,-1.78898 0.19075,-2.45371c0,-0.10404 -0.00578,-0.24855 -0.01734,-0.43352c-0.00578,-0.18496 -0.01156,-0.37571 -0.01734,-0.57224c-0.00578,-0.20231 -0.01734,-0.38439 -0.03468,-0.54623c-0.01156,-0.16763 -0.01734,-0.28034 -0.01734,-0.33814zM178.29403,148.44977c-0.84392,-0.09249 -1.51731,-0.46241 -2.0202,-1.10981c-0.50288,-0.65316 -0.75432,-1.48263 -0.75432,-2.48839c0,-0.59537 0.0896,-1.21096 0.26878,-1.84678c0.17919,-0.63583 0.43063,-1.25142 0.75433,-1.84678c0.32369,-0.60115 0.70808,-1.16761 1.15316,-1.69939c0.44508,-0.53178 0.92773,-0.99132 1.44795,-1.37859c0.80923,-0.60693 1.56934,-0.91039 2.28031,-0.91039c0.47398,0.25433 0.94218,0.78033 1.4046,1.57801c0.06936,0 0.13295,-0.00289 0.19075,-0.00867c0.06358,-0.01156 0.13295,-0.01734 0.20809,-0.01734c0.78033,0 1.1705,0.69652 1.1705,2.08956c0,0.93062 -0.15317,1.815 -0.45953,2.65313c-0.30057,0.83814 -0.71964,1.59824 -1.2572,2.28031c-0.53756,0.67629 -1.18206,1.24853 -1.93349,1.71673c-0.74565,0.46241 -1.56356,0.79189 -2.45371,0.98842zM179.42984,141.45281c-0.25433,0.34103 -0.49132,0.71097 -0.71097,1.10981c-0.21965,0.39884 -0.41329,0.80345 -0.58091,1.21385c-0.16185,0.40462 -0.28612,0.79768 -0.37283,1.17917c-0.08671,0.37571 -0.13005,0.71097 -0.13005,1.00576c0,0.3526 0.0578,0.69363 0.17341,1.0231c0.12139,0.32369 0.25433,0.50866 0.39884,0.5549c0.66473,-0.15028 1.27454,-0.42773 1.82945,-0.83236c0.5549,-0.4104 1.03466,-0.91906 1.43928,-1.52598c0.4104,-0.60693 0.7312,-1.29477 0.96241,-2.06355c0.23121,-0.76877 0.34681,-1.58957 0.34681,-2.46238c0,-0.38728 -0.02312,-0.69074 -0.06936,-0.91039c-0.04624,-0.21965 -0.12139,-0.4104 -0.22543,-0.57224c-0.64739,0.19075 -1.2283,0.49999 -1.74274,0.92773c-0.50866,0.42773 -0.94796,0.8786 -1.31789,1.35258zM191.5073,147.18392c-0.28324,-0.23699 -0.47398,-0.53178 -0.57224,-0.88438c-0.09249,-0.35837 -0.13873,-0.66473 -0.13873,-0.91906c0,-0.30635 0.03757,-0.57224 0.11272,-0.79768c-0.06358,0 -0.19942,0.11849 -0.40751,0.35549c-0.20231,0.23699 -0.42773,0.52022 -0.67629,0.84969c-0.24277,0.32369 -0.48265,0.64161 -0.71964,0.95374c-0.23699,0.30635 -0.41329,0.53467 -0.52889,0.68496c-0.19653,0.20809 -0.3786,0.36994 -0.54623,0.48554c-0.16763,0.12139 -0.30346,0.18785 -0.40751,0.19942c-0.23699,-0.01156 -0.48554,-0.06069 -0.74565,-0.14739c-0.26011,-0.08092 -0.50577,-0.19364 -0.73698,-0.33814c-0.22543,-0.15028 -0.42484,-0.32659 -0.59825,-0.52889c-0.16763,-0.20809 -0.28034,-0.44508 -0.33814,-0.71097c0,-0.41618 0.00868,-0.75721 0.02601,-1.0231c0.02312,-0.26589 0.07225,-0.5549 0.1474,-0.86704c0.13295,-0.56069 0.32948,-1.19651 0.58959,-1.90748c0.26011,-0.71097 0.5578,-1.41038 0.89305,-2.09823c0.34103,-0.68785 0.72253,-1.33234 1.14449,-1.93349c0.42196,-0.60115 0.86993,-1.06934 1.34391,-1.4046c0.13295,0 0.28901,0.01156 0.4682,0.03468c0.17919,0.01734 0.36127,0.0578 0.54624,0.12139c0.18496,0.0578 0.36127,0.12717 0.52889,0.20809c0.17341,0.08092 0.31792,0.18785 0.43352,0.32081c-0.13295,0.15028 -0.47109,0.64739 -1.01443,1.4913c-0.53756,0.83814 -1.13871,2.0491 -1.80344,3.63288c-0.07515,0.16185 -0.16473,0.39884 -0.26878,0.71097c-0.10404,0.31213 -0.20809,0.63872 -0.31213,0.97976c-0.09826,0.34103 -0.18207,0.6734 -0.25144,0.99709c-0.06358,0.32369 -0.09537,0.5838 -0.09537,0.78033c0,0.1156 0.01734,0.2052 0.05203,0.26878c0.03468,0.0578 0.06647,0.10115 0.09538,0.13006c0.22543,-0.09249 0.50866,-0.33814 0.84969,-0.73698c0.34103,-0.39884 0.81501,-1.01154 1.42194,-1.83812c0.14451,-0.20809 0.31502,-0.44508 0.51156,-0.71097c0.20231,-0.26589 0.40751,-0.54912 0.6156,-0.84969c0.20809,-0.30635 0.40462,-0.62137 0.58959,-0.94507c0.18496,-0.32948 0.33525,-0.65605 0.45086,-0.97975c0.06358,-0.17919 0.14161,-0.39016 0.2341,-0.63293c0.09826,-0.24277 0.21676,-0.4971 0.35549,-0.76299c0.14451,-0.27167 0.30924,-0.54334 0.49421,-0.81501c0.18496,-0.27167 0.40173,-0.526 0.65028,-0.76299c0.19075,0 0.39595,0.02312 0.6156,0.06936c0.22543,0.04046 0.43641,0.09538 0.63294,0.16474c0.20231,0.06358 0.3786,0.13584 0.52889,0.21676c0.15028,0.08092 0.26011,0.16763 0.32948,0.26011c-0.26589,0.64739 -0.56069,1.29189 -0.88438,1.9335c-0.32369,0.63583 -0.62716,1.26009 -0.91039,1.8728c-0.28324,0.6127 -0.52022,1.22253 -0.71097,1.82945c-0.19075,0.60693 -0.28612,1.1994 -0.28612,1.77743c0,0.31213 0.02601,0.5838 0.07804,0.81501c0.05203,0.22543 0.10693,0.41618 0.16474,0.57224c0.0578,0.15607 0.11272,0.28324 0.16474,0.38149c0.05203,0.10404 0.07804,0.19364 0.07804,0.26878c0,0.01734 -0.01445,0.04046 -0.04335,0.06936c-0.01734,0.01734 -0.03179,0.02601 -0.04335,0.02601c-0.10404,0 -0.23699,-0.02312 -0.39884,-0.06936c-0.16185,-0.04624 -0.34392,-0.10983 -0.54623,-0.19075c-0.20231,-0.08092 -0.40462,-0.17341 -0.60693,-0.27745c-0.19653,-0.10404 -0.38149,-0.21387 -0.5549,-0.32948zM195.90002,147.22726c0.07515,-0.42773 0.2052,-0.99421 0.39017,-1.69939c0.18496,-0.70519 0.40173,-1.45373 0.65028,-2.24562c0.25433,-0.79189 0.52022,-1.58668 0.79768,-2.38435c0.28324,-0.79768 0.5578,-1.51442 0.82369,-2.15025c0.19075,-0.45664 0.36127,-0.81501 0.51156,-1.07513c0.15028,-0.26011 0.31213,-0.47976 0.48554,-0.65895c0.20809,0.0289 0.42196,0.08092 0.64161,0.15607c0.22543,0.07515 0.44219,0.16474 0.65028,0.26878c0.20809,0.10404 0.39305,0.21098 0.5549,0.32081c0.16185,0.10983 0.28613,0.21676 0.37283,0.32081c-0.39884,0.47398 -0.75144,1.01444 -1.05778,1.62136c-0.30057,0.60693 -0.60693,1.38437 -0.91906,2.33233c0.80345,-0.71097 1.51153,-1.39015 2.12424,-2.03753c0.6127,-0.65316 1.18495,-1.38148 1.71673,-2.18493c0.09249,-0.06936 0.24855,-0.10404 0.4682,-0.10404c0.20809,0 0.40751,0.03468 0.59826,0.10404c0.19075,0.06358 0.32369,0.15317 0.39884,0.26878c-0.26589,0.71097 -0.39884,1.41327 -0.39884,2.1069c0,0.65316 0.09538,1.1416 0.28613,1.4653c-0.01156,0.09249 -0.10983,0.26589 -0.29479,0.52022c-0.18496,0.24855 -0.38728,0.48265 -0.60693,0.7023c-0.40462,-0.20809 -0.76299,-0.49132 -1.07513,-0.84969c-0.30635,-0.36416 -0.53467,-0.7601 -0.68496,-1.18784c-0.69363,0.48554 -1.2861,0.96241 -1.77742,1.43061c-0.48554,0.46241 -0.90172,0.97976 -1.24853,1.55199c-0.34681,0.56647 -0.6445,1.21963 -0.89304,1.9595c-0.24277,0.73987 -0.47398,1.62136 -0.69363,2.64446c-0.13295,-0.01734 -0.2919,-0.06647 -0.47687,-0.14739c-0.18496,-0.08092 -0.36994,-0.18207 -0.5549,-0.30346c-0.18496,-0.1156 -0.3526,-0.23988 -0.50288,-0.37283c-0.14451,-0.13295 -0.23988,-0.25722 -0.28612,-0.37283zM208.97218,136.90085c0.38728,0.12139 0.74854,0.38728 1.0838,0.79768c0.34103,0.40462 0.59537,0.84969 0.76299,1.33524c-0.16763,0.39884 -0.42196,0.88149 -0.76299,1.44795c-0.33525,0.56069 -0.6734,1.13293 -1.01443,1.71673c-0.34103,0.5838 -0.65028,1.13871 -0.92773,1.66471c-0.27167,0.526 -0.43063,0.95952 -0.47687,1.30056c0.23699,-0.25433 0.49999,-0.54623 0.78901,-0.87571c0.28901,-0.33525 0.56935,-0.66761 0.84103,-0.99709c0.27745,-0.33525 0.53467,-0.63872 0.77166,-0.91039c0.23699,-0.27745 0.42196,-0.48265 0.5549,-0.61559c0.28324,-0.29479 0.6156,-0.63872 0.99709,-1.03177c0.38728,-0.39305 0.79189,-0.76299 1.21385,-1.10981c0.42196,-0.34681 0.8468,-0.64161 1.27454,-0.88438c0.42773,-0.24855 0.8208,-0.37283 1.17917,-0.37283c0.38149,0 0.7023,0.13006 0.96241,0.39017c0.26011,0.26011 0.46241,0.53178 0.60693,0.81501c0,0.0289 -0.05491,0.06936 -0.16473,0.12139c-0.10983,0.05203 -0.26878,0.19653 -0.47687,0.43352c-0.20809,0.26589 -0.44219,0.63294 -0.70229,1.10114c-0.25433,0.46241 -0.50577,0.9653 -0.75432,1.50864c-0.24277,0.53756 -0.44508,1.08668 -0.60693,1.64737c-0.16185,0.56069 -0.24277,1.07224 -0.24277,1.53466c0,0.36994 0.04624,0.60693 0.13873,0.71097c0.09826,0.10404 0.23699,0.15607 0.41618,0.15607c0.16185,0 0.32948,-0.03757 0.50288,-0.11271c0.17919,-0.07515 0.32081,-0.11271 0.42485,-0.11271c0.06358,0.0289 0.11272,0.09249 0.1474,0.19075c0.03468,0.09249 0.05203,0.1763 0.05203,0.25144c-0.1156,0.10404 -0.25433,0.20809 -0.41618,0.31213c-0.16185,0.10404 -0.33236,0.20231 -0.51155,0.29479c-0.17919,0.08671 -0.35548,0.15896 -0.52889,0.21676c-0.16763,0.0578 -0.31792,0.08671 -0.45086,0.08671c-0.42773,0 -0.78033,-0.06358 -1.05778,-0.19075c-0.27167,-0.12139 -0.48554,-0.28612 -0.64161,-0.49421c-0.15607,-0.20809 -0.263,-0.45664 -0.3208,-0.74565c-0.0578,-0.28901 -0.08671,-0.59537 -0.08671,-0.91906c0,-0.17919 0.01445,-0.3786 0.04336,-0.59825c0.0289,-0.22543 0.08671,-0.48843 0.17341,-0.789c0.09249,-0.30635 0.21965,-0.67051 0.38149,-1.09246c0.16185,-0.42196 0.36994,-0.92773 0.62427,-1.51731c-0.0289,0 -0.22832,0.10404 -0.59825,0.31213c-0.36994,0.20809 -0.77166,0.526 -1.20518,0.95374c-0.69363,0.66473 -1.31789,1.32368 -1.8728,1.97685c-0.5549,0.64739 -1.12137,1.37281 -1.69939,2.17626c-0.32369,0.45664 -0.60981,0.84392 -0.85836,1.16183c-0.24277,0.31792 -0.45086,0.52889 -0.62427,0.63294c-0.31213,-0.17919 -0.54334,-0.42773 -0.69363,-0.74565c-0.14451,-0.31792 -0.25433,-0.64739 -0.32948,-0.98842c0,-0.27745 0.04046,-0.63005 0.12139,-1.05778c0.08092,-0.43352 0.19075,-0.91328 0.32948,-1.43928c0.14451,-0.526 0.31792,-1.07513 0.52022,-1.64737c0.20809,-0.57802 0.4393,-1.15605 0.69363,-1.73407c0.56069,-1.30056 1.07513,-2.32077 1.54333,-3.06063c0.4682,-0.73987 0.7601,-1.1416 0.87571,-1.20518zM225.31061,138.47887c-0.0578,0.91906 -0.22254,1.70806 -0.49421,2.36701c-0.26589,0.65895 -0.64739,1.23697 -1.14449,1.73407c-0.49132,0.49132 -1.09246,0.9364 -1.80344,1.33524c-0.71097,0.39884 -1.54044,0.78322 -2.48839,1.15316c0,0.09249 -0.00289,0.18785 -0.00867,0.28613c-0.00578,0.09249 -0.00867,0.19075 -0.00867,0.29479c0,0.19075 0.01445,0.39017 0.04336,0.59826c0.0289,0.20809 0.08092,0.40173 0.15607,0.58092c0.07515,0.17341 0.17919,0.31792 0.31213,0.43352c0.13295,0.10983 0.30057,0.16474 0.50288,0.16474c0.40462,0 0.79768,-0.0896 1.17917,-0.26878c0.38728,-0.17919 0.75433,-0.39595 1.10114,-0.65028c0.34681,-0.26011 0.67051,-0.54045 0.97108,-0.84103c0.30635,-0.30635 0.57802,-0.58669 0.81501,-0.84103c0.15028,0.13295 0.27456,0.26011 0.37283,0.38149c-0.66473,0.88438 -1.39304,1.62136 -2.18493,2.21095c-0.79189,0.5838 -1.54333,0.95663 -2.2543,1.11848c-1.01732,-0.12139 -1.8121,-0.49421 -2.38435,-1.11848c-0.56647,-0.63005 -0.84969,-1.39015 -0.84969,-2.2803c0,-0.60693 0.08381,-1.22252 0.25144,-1.84678c0.17341,-0.63005 0.4104,-1.23697 0.71097,-1.82078c0.30635,-0.58959 0.66184,-1.1416 1.06646,-1.65604c0.40462,-0.52022 0.84103,-0.97108 1.30923,-1.35258c0.4682,-0.38728 0.94796,-0.69074 1.43928,-0.91039c0.4971,-0.22543 0.99132,-0.33814 1.48263,-0.33814c0.67629,0.09249 1.31212,0.51444 1.90748,1.26588zM223.77595,139.21584c-0.39884,0.0578 -0.81212,0.21965 -1.23986,0.48554c-0.42773,0.26589 -0.83236,0.62137 -1.21385,1.06646c-0.37571,0.44508 -0.71964,0.96241 -1.03177,1.55199c-0.31213,0.58959 -0.5549,1.22541 -0.72831,1.90748c1.18495,-0.58959 2.16759,-1.31789 2.94793,-2.18493c0.78612,-0.86704 1.20807,-1.80922 1.26588,-2.82654zM234.67668,144.22732c-0.34103,1.0809 -0.68207,2.06643 -1.0231,2.9566c-0.34103,0.88438 -0.70519,1.69939 -1.09246,2.44505c-0.38149,0.75144 -0.79478,1.43928 -1.23986,2.06355c-0.4393,0.63005 -0.92773,1.2283 -1.46529,1.79477c-0.67629,0.71097 -1.37859,1.25432 -2.1069,1.63003c-0.72253,0.37571 -1.44795,0.56358 -2.17626,0.56358c-0.36994,0 -0.73698,-0.04046 -1.10113,-0.12139c-0.35837,-0.08092 -0.69652,-0.19364 -1.01443,-0.33814c-0.31792,-0.13873 -0.59825,-0.30057 -0.84103,-0.48554c-0.24855,-0.18496 -0.42484,-0.3786 -0.52889,-0.58091c0,-0.17919 0.10404,-0.33525 0.31213,-0.4682c0.17919,0.16185 0.32948,0.28613 0.45086,0.37283c0.1156,0.09249 0.22832,0.16763 0.33814,0.22543c0.10983,0.0578 0.22832,0.09249 0.35549,0.10404c0.12717,0.01734 0.27167,0.02601 0.43352,0.02601c0.84392,0 1.6676,-0.24855 2.47106,-0.74565c0.80923,-0.49132 1.57222,-1.19362 2.28898,-2.1069c0.71675,-0.9075 1.36992,-2.00863 1.9595,-3.30341c0.59537,-1.29477 1.10114,-2.74273 1.51731,-4.34385c-0.19653,0.30057 -0.43641,0.66473 -0.71964,1.09246c-0.27745,0.42773 -0.58669,0.85258 -0.92773,1.27454c-0.34103,0.42196 -0.69363,0.80345 -1.05778,1.14449c-0.35837,0.34103 -0.70808,0.56935 -1.04911,0.68496c-0.23699,-0.01156 -0.48554,-0.06069 -0.74565,-0.14739c-0.25433,-0.08092 -0.4971,-0.19364 -0.72831,-0.33814c-0.23121,-0.15028 -0.43641,-0.32659 -0.61559,-0.52889c-0.17341,-0.20809 -0.2919,-0.44508 -0.35548,-0.71097c0,-0.43352 0.01445,-0.77744 0.04336,-1.03177c0.03468,-0.26011 0.0896,-0.54623 0.16474,-0.85836c0.13295,-0.56069 0.32659,-1.19651 0.58092,-1.90748c0.26011,-0.71097 0.56358,-1.41038 0.91039,-2.09823c0.34681,-0.68785 0.7312,-1.33234 1.15316,-1.93349c0.42196,-0.60115 0.86415,-1.06934 1.32657,-1.4046c0.1156,0 0.263,0.01156 0.44219,0.03468c0.17919,0.01734 0.36416,0.0578 0.5549,0.12139c0.19075,0.0578 0.37571,0.12717 0.5549,0.20809c0.17919,0.08092 0.33525,0.18785 0.4682,0.32081c-0.16185,0.15028 -0.51733,0.64739 -1.06645,1.4913c-0.54912,0.83814 -1.15605,2.0491 -1.82078,3.63288c-0.07515,0.16185 -0.16473,0.39884 -0.26878,0.71097c-0.10404,0.31213 -0.2052,0.63872 -0.30346,0.97976c-0.09249,0.34103 -0.1763,0.6734 -0.25144,0.99709c-0.07515,0.32369 -0.11271,0.5838 -0.11271,0.78033c0,0.1156 0.01734,0.2052 0.05203,0.26878c0.04046,0.0578 0.07515,0.10115 0.10404,0.13006c0.26589,-0.04624 0.62137,-0.26589 1.06646,-0.65895c0.44508,-0.39305 0.94796,-1.00287 1.50864,-1.82944c0.35837,-0.53178 0.68496,-1.06068 0.97976,-1.58668c0.29479,-0.526 0.58669,-1.05489 0.87571,-1.58668c0.28901,-0.53178 0.58669,-1.07802 0.89305,-1.63869c0.31213,-0.56647 0.64739,-1.14449 1.00576,-1.73407c0.19075,0 0.39595,0.02312 0.6156,0.06936c0.22543,0.04046 0.44219,0.09538 0.65028,0.16474c0.20809,0.06358 0.38728,0.13584 0.53756,0.21676c0.15607,0.08092 0.27167,0.16763 0.34681,0.26011c-0.45664,0.97686 -0.88438,1.93061 -1.28321,2.86122c-0.39884,0.93062 -0.75432,1.88436 -1.06645,2.86122z" fill="#ce6552" stroke="none" stroke-width="1" stroke-linecap="square"/><path d="M188.68394,240.06882c0,-15.16718 0,-50.99658 0,-60.57093c0,-3.91633 3.95797,-7.69065 7.67998,-7.69065c7.32549,0 21.05705,0 34.24592,0c4.65222,0 7.67997,3.95827 7.67997,8.01994c0,12.83893 0,68.2616 0,68.2616c0,0 -32.01639,0 -41.92587,0c-3.72201,0 -7.67998,-3.1197 -7.67998,-8.01994z" fill="#7c5e47" stroke="none" stroke-width="0" stroke-linecap="butt"/><path d="M281.22852,248.06125c-6.49025,0 -48.38343,0 -48.38343,0c0,0 0,-33.93874 0,-42.34767c0,-2.6602 1.98305,-5.25271 5.03005,-5.25271c8.6381,0 38.55553,0 43.35339,0c2.43775,0 4.39847,1.08634 5.80236,5.03704c2.23845,6.29924 7.72326,26.34704 11.32747,36.79575c1.04656,3.03401 -14.69207,5.76759 -17.12982,5.76759z" data-paper-data="{&quot;index&quot;:null}" fill="#7c5e47" stroke="none" stroke-width="0" stroke-linecap="butt"/><path d="M281.52189,253.22812c-6.49025,0 -48.38343,0 -48.38343,0c0,0 0,-33.93874 0,-42.34767c0,-2.6602 1.98305,-5.2527 5.03005,-5.2527c8.6381,0 38.55553,0 43.35339,0c2.43775,0 4.39847,1.08634 5.80236,5.03702c2.23845,6.29924 7.72326,26.34706 11.32747,36.79575c1.04656,3.03401 -14.69207,5.76759 -17.12982,5.76759z" data-paper-data="{&quot;index&quot;:null}" fill="#7c5e47" stroke="none" stroke-width="0" stroke-linecap="butt"/><path d="M188.70654,245.23568c0,-15.16718 0,-50.99658 0,-60.57095c0,-3.91633 3.95797,-7.69065 7.67998,-7.69065c7.32549,0 21.05705,0 34.24592,0c4.65222,0 7.67997,3.95827 7.67997,8.01996c0,8.61969 0,53.78342 0,53.78342l47.11034,0.27075c0,0 9.19062,10.70531 0.60328,13.29505c-6.56865,1.98096 -47.71362,0.91235 -47.71362,0.91235c0,0 -32.01641,0 -41.92588,0c-3.72201,0 -7.67998,-3.1197 -7.67998,-8.01994z" fill="#88674d" stroke="none" stroke-width="0" stroke-linecap="butt"/><path d="M189.10108,248.60665c0,-0.99705 0,-7.25602 0,-7.25602c0,0 3.16203,3.32568 6.65135,3.32568c12.88519,0 90.70027,0 90.70027,0v8.7677c0,0 -77.31258,0 -90.39795,0c-3.62922,0 -6.95368,-4.83735 -6.95368,-4.83735z" fill="#7c5e47" stroke="none" stroke-width="0" stroke-linecap="butt"/><path d="M188.23461,246.37571c0,-10.39238 7.42468,-15.81705 17.81705,-15.81705c10.39238,0 18.81707,8.42468 18.81707,18.81705c0,1.30488 -0.38568,3.80878 -0.38568,3.80878c0,0 -3.67721,1.00829 -12.76473,1.00829c-6.05721,0 -16.10624,2.4522 -19.2646,-2.84355c-2.26046,-3.7902 -4.21912,-0.63834 -4.21912,-4.97352z" fill="url(#color-8)" stroke="none" stroke-width="0" stroke-linecap="butt"/><path d="M238.36563,240.0861v-4.33199h49.81783v4.33199z" fill="#654c39" stroke="none" stroke-width="0" stroke-linecap="butt"/><path d="M284.18527,222.51934l2.97826,10.45901c0,0 -3.72612,2.92852 -4.78194,2.92852c-7.60176,0 -44.22366,0 -44.22366,0v-13.38757z" data-paper-data="{&quot;index&quot;:null}" fill="url(#color-9)" stroke="none" stroke-width="0" stroke-linecap="butt"/><path d="M255.08766,203.05593v-16.35063h12.8422v16.35063z" fill="#7d5f47" stroke="none" stroke-width="0" stroke-linecap="butt"/><path d="M204.90572,198.82707c0,-2.61677 0,-5.36653 0,-6.97399c0,-4.50868 3.71364,-6.62898 6.68586,-6.62898c5.94864,0 26.78164,0 26.78164,0v20.33794c0,0 -20.83301,0 -26.78164,0c-2.9722,0 -6.68586,-2.19284 -6.68586,-6.73497z" fill="#654c39" stroke="none" stroke-width="0" stroke-linecap="butt"/><path d="M192.37957,205.54437c-5.94864,0 -3.95769,0 -3.95769,0v-20.33794c0,0 -1.99095,0 3.95769,0c2.9722,0 6.68586,2.12029 6.68586,6.62898c0,1.60748 0,4.35722 0,6.97399c0,4.54213 -3.71364,6.73498 -6.68586,6.73498z" data-paper-data="{&quot;index&quot;:null}" fill="#654c39" stroke="none" stroke-width="0" stroke-linecap="butt"/><path d="M228.81162,239.54718v-67.69612c0,0 1.23098,0 2.166,0c3.34225,0 7.31021,3.61093 7.31021,7.31023c0,4.19094 0,60.11514 0,60.11514z" data-paper-data="{&quot;index&quot;:null}" fill="url(#color-10)" stroke="none" stroke-width="0" stroke-linecap="butt"/><path d="M192.6023,249.27401c0,-7.46981 6.05548,-13.52531 13.52531,-13.52531c7.46981,0 13.52531,6.0555 13.52531,13.52531c0,7.46981 -6.0555,13.52531 -13.52531,13.52531c-7.46981,0 -13.52531,-6.05548 -13.52531,-13.52531z" fill="url(#color-11)" stroke="none" stroke-width="0" stroke-linecap="butt"/><path d="M203.63583,261.53355l2.39212,-12.15988l2.59145,12.15988z" fill="#654c39" stroke="none" stroke-width="0" stroke-linecap="butt"/><path d="M208.61939,237.01446l-2.59145,12.15988l-2.39212,-12.15988z" data-paper-data="{&quot;index&quot;:null}" fill="#654c39" stroke="none" stroke-width="0" stroke-linecap="butt"/><path d="M218.38717,251.76579l-12.15988,-2.39212l12.15988,-2.59145z" fill="#654c39" stroke="none" stroke-width="0" stroke-linecap="butt"/><path d="M193.86805,246.78222l12.15988,2.59145l-12.15988,2.39212z" data-paper-data="{&quot;index&quot;:null}" fill="#654c39" stroke="none" stroke-width="0" stroke-linecap="butt"/><path d="M194.09738,249.27401c0,-6.64411 5.38612,-12.03025 12.03025,-12.03025c6.64411,0 12.03025,5.38612 12.03025,12.03025c0,6.64411 -5.38612,12.03025 -12.03025,12.03025c-6.64411,0 -12.03025,-5.38612 -12.03025,-12.03025z" fill="none" stroke="#7c5e47" stroke-width="3" stroke-linecap="butt"/><path d="M229.00258,252.35783c0,-7.71615 6.25516,-13.9713 13.97132,-13.9713c7.71615,0 13.97132,6.25516 13.97132,13.9713c0,2.88883 -2.94019,0.15478 -2.94019,0.15478c0,0 -5.87047,0.14987 -10.6978,0.14987c-6.50284,0 -12.83718,0.63413 -12.83718,0.63413c0,0 -1.46748,0.27452 -1.46748,-0.93878z" fill="url(#color-12)" stroke="none" stroke-width="0" stroke-linecap="butt"/><path d="M252.90788,252.54205c0,-7.71615 6.25518,-13.9713 13.97132,-13.9713c7.71615,0 13.97132,6.25516 13.97132,13.9713c0,2.56397 -2.50583,0.42083 -4.51676,0.42197c-4.04086,0.0023 -9.12122,-0.45067 -9.12122,-0.45067c0,0 -5.6491,0.05854 -9.84727,0.41659c-2.48233,0.21171 -4.45739,2.47926 -4.45739,-0.38789z" fill="url(#color-13)" stroke="none" stroke-width="0" stroke-linecap="butt"/><path d="M233.05998,252.50013c0,-5.54619 4.4961,-10.04229 10.04229,-10.04229c5.54619,0 10.04229,4.4961 10.04229,10.04229c0,5.54619 -4.49608,10.04229 -10.04229,10.04229c-5.54619,0 -10.04229,-4.49608 -10.04229,-10.04229z" fill="url(#color-14)" stroke="none" stroke-width="0" stroke-linecap="butt"/><path d="M241.25215,261.60262l1.7761,-9.02848l1.92411,9.02848z" fill="#654c39" stroke="none" stroke-width="0" stroke-linecap="butt"/><path d="M244.95236,243.39765l-1.92411,9.02848l-1.7761,-9.02848z" data-paper-data="{&quot;index&quot;:null}" fill="#654c39" stroke="none" stroke-width="0" stroke-linecap="butt"/><path d="M252.20472,254.35024l-9.02848,-1.7761l9.02848,-1.92411z" fill="#654c39" stroke="none" stroke-width="0" stroke-linecap="butt"/><path d="M233.99977,250.65003l9.02848,1.92411l-9.02848,1.7761z" data-paper-data="{&quot;index&quot;:null}" fill="#654c39" stroke="none" stroke-width="0" stroke-linecap="butt"/><path d="M234.17002,252.50013c0,-4.93311 3.9991,-8.93223 8.93223,-8.93223c4.93311,0 8.93221,3.9991 8.93221,8.93223c0,4.93311 -3.9991,8.93223 -8.93221,8.93223c-4.93311,0 -8.93223,-3.9991 -8.93223,-8.93223z" fill="none" stroke="#7c5e47" stroke-width="3" stroke-linecap="butt"/><path d="M256.88924,252.50013c0,-5.54619 4.49608,-10.04229 10.04229,-10.04229c5.54619,0 10.04229,4.4961 10.04229,10.04229c0,5.54619 -4.4961,10.04229 -10.04229,10.04229c-5.54619,0 -10.04229,-4.49608 -10.04229,-10.04229z" fill="url(#color-15)" stroke="none" stroke-width="0" stroke-linecap="butt"/><path d="M265.08142,261.60262l1.7761,-9.02848l1.92411,9.02848z" fill="#654c39" stroke="none" stroke-width="0" stroke-linecap="butt"/><path d="M268.78162,243.39765l-1.92411,9.02848l-1.7761,-9.02848z" data-paper-data="{&quot;index&quot;:null}" fill="#654c39" stroke="none" stroke-width="0" stroke-linecap="butt"/><path d="M276.034,254.35024l-9.02848,-1.7761l9.02848,-1.92411z" fill="#654c39" stroke="none" stroke-width="0" stroke-linecap="butt"/><path d="M257.82903,250.65003l9.02848,1.92411l-9.02848,1.7761z" data-paper-data="{&quot;index&quot;:null}" fill="#654c39" stroke="none" stroke-width="0" stroke-linecap="butt"/><path d="M257.9993,252.50013c0,-4.93311 3.9991,-8.93223 8.93221,-8.93223c4.93311,0 8.93223,3.9991 8.93223,8.93223c0,4.93311 -3.9991,8.93223 -8.93223,8.93223c-4.93311,0 -8.93221,-3.9991 -8.93221,-8.93223z" fill="none" stroke="#7c5e47" stroke-width="3" stroke-linecap="butt"/><g fill="#7d5f47" stroke="none" stroke-width="0" stroke-linecap="butt"><path d="M272.73921,192.14054c0,3.0007 -4.9388,5.43325 -11.03114,5.43325c-6.09232,0 -11.03114,-2.43254 -11.03114,-5.43325c0,-3.0007 4.9388,-5.43325 11.03114,-5.43325c6.09232,0 11.03114,2.43254 11.03114,5.43325z"/><path d="M272.73921,189.17695c0,3.0007 -4.9388,5.43323 -11.03114,5.43323c-6.09232,0 -11.03114,-2.43254 -11.03114,-5.43323c0,-3.0007 4.9388,-5.43325 11.03114,-5.43325c6.09232,0 11.03114,2.43254 11.03114,5.43325z"/><path d="M250.61762,192.47133v-3.44399h22.18995v3.44399z"/></g><path d="M268.51031,188.04908c0,1.5173 -3.12235,2.74732 -6.97399,2.74732c-3.85163,0 -6.97399,-1.23002 -6.97399,-2.74732c0,-1.5173 3.12237,-2.74732 6.97399,-2.74732c3.85163,0 6.97399,1.23002 6.97399,2.74732z" fill="#654c39" stroke="none" stroke-width="0" stroke-linecap="butt"/><path d="M188.67868,245.24668c0,-16.19782 0,-56.5339 0,-65.79202c0,-3.6993 3.96798,-7.31023 7.31023,-7.31023c0.93503,0 2.166,0 2.166,0v79.871c0,0 -2.39936,0 -3.79049,0c-1.70377,0 -5.68573,-2.57556 -5.68573,-6.76873z" fill="url(#color-16)" stroke="none" stroke-width="0" stroke-linecap="butt"/><path d="M238.18053,220.2362v-14.6306c0,0 36.62188,0 44.22364,0c1.05582,0 4.78194,3.20044 4.78194,3.20044l-2.97824,11.43015z" fill="url(#color-17)" stroke="none" stroke-width="0" stroke-linecap="butt"/><path d="M272.65721,253.64985v-46.02736h12.72522v46.02736z" fill="url(#color-18)" stroke="none" stroke-width="0" stroke-linecap="butt"/><path d="M283.30749,248.0436c-0.31833,0 -1.24511,0 -1.24511,0l-0.30267,-40.41791c0,0 2.5979,-0.38326 3.7194,-0.75679c1.01494,-0.33805 2.72191,-1.38864 2.72191,-1.38864c0,0 0.27096,0.92561 0.42424,1.47735c2.08872,7.51829 6.29719,25.58406 9.12905,35.31841c0.88265,3.03401 -12.39092,5.76759 -14.44683,5.76759z" data-paper-data="{&quot;index&quot;:null}" fill="#7c5e47" stroke="none" stroke-width="0" stroke-linecap="butt"/><path d="M283.61757,253.21045c-0.37743,0 -1.47632,0 -1.47632,0l-0.35888,-40.41791c0,0 3.08034,-0.38326 4.41013,-0.75681c1.20343,-0.33805 3.22743,-1.38863 3.22743,-1.38863c0,0 0.32125,0.92561 0.50301,1.47735c2.47662,7.51829 7.46666,25.58406 10.82445,35.31841c1.04656,3.03401 -14.69207,5.76759 -17.12982,5.76759z" data-paper-data="{&quot;index&quot;:null}" fill="#88674d" stroke="none" stroke-width="0" stroke-linecap="butt"/><path d="M287.22786,246.55122v-4.623c0,0 6.16841,-1.08147 7.9311,-1.50864c2.75275,-0.66708 2.74106,-1.51882 2.74106,-1.51882l1.26401,3.96424c0,0 -0.60366,1.10951 -3.23355,1.79789c-2.1792,0.57041 -8.70258,1.88833 -8.70258,1.88833z" fill="#654c39" stroke="none" stroke-width="1" stroke-linecap="butt"/><path d="M287.05004,234.16239c0,0 4.88611,-0.66748 5.96669,-0.92934c2.75275,-0.66708 2.74104,-1.51882 2.74104,-1.51882l1.26401,3.96424c0,0 -0.60366,1.10951 -3.23355,1.79789c-1.36305,0.35679 -6.6255,1.24824 -6.6255,1.24824z" fill="#654c39" stroke="none" stroke-width="1" stroke-linecap="butt"/><path d="M286.98626,226.76357c0,0 3.09672,-0.42824 3.88824,-0.62006c2.75275,-0.66708 2.74104,-1.51882 2.74104,-1.51882l1.26401,3.96424c0,0 -0.60366,1.10951 -3.23355,1.79789c-1.04526,0.2736 -4.5469,0.8178 -4.5469,0.8178z" fill="#654c39" stroke="none" stroke-width="1" stroke-linecap="butt"/><path d="M241.53427,210.65926c0,-1.21103 0.98174,-2.19277 2.19277,-2.19277c1.21103,0 2.19277,0.98174 2.19277,2.19277c0,1.21103 -0.98174,2.19277 -2.19277,2.19277c-1.21103,0 -2.19277,-0.98174 -2.19277,-2.19277z" fill-opacity="0.24314" fill="#000000" stroke="none" stroke-width="0" stroke-linecap="butt"/><path d="M241.51763,230.37749c0,-1.21103 0.98172,-2.19277 2.19275,-2.19277c1.21103,0 2.19277,0.98174 2.19277,2.19277c0,1.21103 -0.98174,2.19277 -2.19277,2.19277c-1.21103,0 -2.19275,-0.98174 -2.19275,-2.19277z" fill-opacity="0.24314" fill="#000000" stroke="none" stroke-width="0" stroke-linecap="butt"/><path d="M274.20977,210.6426c0,-1.21103 0.98172,-2.19277 2.19275,-2.19277c1.21103,0 2.19277,0.98174 2.19277,2.19277c0,1.21103 -0.98174,2.19277 -2.19277,2.19277c-1.21103,0 -2.19275,-0.98174 -2.19275,-2.19277z" fill-opacity="0.24314" fill="#000000" stroke="none" stroke-width="0" stroke-linecap="butt"/><path d="M274.19313,230.36084c0,-1.21103 0.98174,-2.19275 2.19277,-2.19275c1.21103,0 2.19277,0.98172 2.19277,2.19275c0,1.21103 -0.98174,2.19277 -2.19277,2.19277c-1.21103,0 -2.19277,-0.98174 -2.19277,-2.19277z" fill-opacity="0.24314" fill="#000000" stroke="none" stroke-width="0" stroke-linecap="butt"/><path d="M291.48119,252.05515l-9.58914,-32.99216l0.47144,-10.71182l5.39538,-1.92623l12.74094,42.47885c0,0 -2.09279,1.58359 -4.82332,2.32587c-1.42201,0.38657 -4.19529,0.82551 -4.19529,0.82551z" data-paper-data="{&quot;index&quot;:null}" fill="url(#color-19)" stroke="none" stroke-width="0" stroke-linecap="butt"/><path d="M238.29191,302.10222c-1.40914,-2.76051 -6.11316,-11.97568 -6.11316,-11.97568c0,0 4.93696,-9.6715 6.31775,-12.37647c0.67346,-1.31931 2.26637,-1.44854 2.90243,-0.20248c1.36244,2.66902 6.42111,12.57895 6.42111,12.57895c0,0 -4.8796,9.55914 -6.26819,12.27939c-0.69106,1.35377 -2.51521,1.15522 -3.25994,-0.30371z" fill="#755943" stroke="none" stroke-width="0" stroke-linecap="butt"/><path d="M243.7494,303.11883c0,0 11.52303,-0.42948 13.75,-6c0.90682,-2.34722 -0.7784,-3.66228 -2.43223,-3.92561c-1.29348,-0.20594 -2.56777,0.42561 -2.56777,0.42561c0,0 2.13507,-5.7086 7.66002,-2.15143c5.11542,3.2935 2.36076,11.49649 -5.66002,11.65143c-5.39482,0.10422 -10.75,0 -10.75,0z" fill="#755943" stroke="none" stroke-width="0" stroke-linecap="butt"/><path d="M225.5006,303.11883c-8.02078,-0.15495 -10.77544,-8.35793 -5.66002,-11.65143c5.52495,-3.55717 7.66002,2.15143 7.66002,2.15143c0,0 -1.27429,-0.63155 -2.56777,-0.42561c-1.65383,0.26332 -3.33905,1.57839 -2.43223,3.92561c2.22697,5.57052 13.75,6 13.75,6c0,0 -5.35518,0.10422 -10.75,0z" data-paper-data="{&quot;index&quot;:null}" fill="#755943" stroke="none" stroke-width="0" stroke-linecap="butt"/><path d="M227.99939,294.93764c0,0.88365 -0.76112,1.6 -1.7,1.6c-0.93888,0 -1.7,-0.71635 -1.7,-1.6c0,-0.88365 0.76111,-1.6 1.7,-1.6c0.93888,0 1.7,0.71635 1.7,1.6z" fill="#755943" stroke="none" stroke-width="0" stroke-linecap="butt"/><path d="M254.99939,295.13764c0,0.88365 -0.76112,1.6 -1.7,1.6c-0.93889,0 -1.7,-0.71635 -1.7,-1.6c0,-0.88365 0.76112,-1.6 1.7,-1.6c0.93888,0 1.7,0.71635 1.7,1.6z" fill="#755943" stroke="none" stroke-width="0" stroke-linecap="butt"/><path d="M238.29191,84.60222c-1.40914,-2.76051 -6.11316,-11.97568 -6.11316,-11.97568c0,0 4.93696,-9.6715 6.31776,-12.37648c0.67346,-1.31931 2.26637,-1.44853 2.90243,-0.20247c1.36244,2.66902 6.4211,12.57895 6.4211,12.57895c0,0 -4.8796,9.55914 -6.26819,12.27939c-0.69106,1.35377 -2.51521,1.15522 -3.25994,-0.30371z" fill="#755943" stroke="none" stroke-width="0" stroke-linecap="butt"/><path d="M243.7494,85.61883c0,0 11.52303,-0.42948 13.75,-6c0.90682,-2.34722 -0.7784,-3.66228 -2.43223,-3.92561c-1.29348,-0.20594 -2.56776,0.42561 -2.56776,0.42561c0,0 2.13507,-5.70861 7.66002,-2.15144c5.11543,3.2935 2.36076,11.49649 -5.66002,11.65144c-5.39483,0.10422 -10.75,0 -10.75,0z" fill="#755943" stroke="none" stroke-width="0" stroke-linecap="butt"/><path d="M225.5006,85.61883c-8.02078,-0.15495 -10.77544,-8.35793 -5.66002,-11.65144c5.52495,-3.55717 7.66002,2.15144 7.66002,2.15144c0,0 -1.27429,-0.63155 -2.56777,-0.42561c-1.65383,0.26332 -3.33904,1.57839 -2.43223,3.92561c2.22697,5.57052 13.75,6 13.75,6c0,0 -5.35518,0.10422 -10.75,0z" data-paper-data="{&quot;index&quot;:null}" fill="#755943" stroke="none" stroke-width="0" stroke-linecap="butt"/><path d="M227.99939,77.43764c0,0.88365 -0.76111,1.6 -1.7,1.6c-0.93888,0 -1.7,-0.71635 -1.7,-1.6c0,-0.88365 0.76112,-1.6 1.7,-1.6c0.93888,0 1.7,0.71635 1.7,1.6z" fill="#755943" stroke="none" stroke-width="0" stroke-linecap="butt"/><path d="M254.99939,77.63764c0,0.88365 -0.76112,1.6 -1.7,1.6c-0.93889,0 -1.7,-0.71635 -1.7,-1.6c0,-0.88365 0.76112,-1.6 1.7,-1.6c0.93888,0 1.7,0.71634 1.7,1.6z" fill="#755943" stroke="none" stroke-width="0" stroke-linecap="butt"/><path d="M305.41607,303.11883c0,0 11.52303,-0.42948 13.75,-6c0.90681,-2.34722 -0.7784,-3.66228 -2.43223,-3.92561c-1.29348,-0.20594 -2.56776,0.42561 -2.56776,0.42561c0,0 2.13507,-5.70861 7.66002,-2.15144c5.11543,3.2935 2.36076,11.49649 -5.66002,11.65144c-5.39482,0.10422 -10.75,0 -10.75,0z" fill="#755943" stroke="none" stroke-width="0" stroke-linecap="butt"/><path d="M316.66606,295.13765c0,0.88365 -0.76111,1.6 -1.7,1.6c-0.93889,0 -1.7,-0.71635 -1.7,-1.6c0,-0.88365 0.76111,-1.6 1.7,-1.6c0.93889,0 1.7,0.71634 1.7,1.6z" fill="#755943" stroke="none" stroke-width="0" stroke-linecap="butt"/><path d="M164.0006,302.7855c-8.02078,-0.15495 -10.77544,-8.35793 -5.66002,-11.65144c5.52495,-3.55717 7.66002,2.15144 7.66002,2.15144c0,0 -1.27428,-0.63155 -2.56776,-0.42561c-1.65384,0.26332 -3.33905,1.57839 -2.43223,3.92561c2.22697,5.57052 13.75,6 13.75,6c0,0 -5.35518,0.10422 -10.75,0z" data-paper-data="{&quot;index&quot;:null}" fill="#755943" stroke="none" stroke-width="0" stroke-linecap="butt"/><path d="M165.20061,293.2043c0.93889,0 1.7,0.71634 1.7,1.6c0,0.88365 -0.76112,1.6 -1.7,1.6c-0.93889,0 -1.7,-0.71635 -1.7,-1.6c0,-0.88365 0.76111,-1.6 1.7,-1.6z" data-paper-data="{&quot;index&quot;:null}" fill="#755943" stroke="none" stroke-width="0" stroke-linecap="butt"/><path d="M316.08273,56.44721c8.02078,0.15495 10.77544,8.35793 5.66002,11.65144c-5.52495,3.55717 -7.66002,-2.15144 -7.66002,-2.15144c0,0 1.27429,0.63155 2.56777,0.42561c1.65384,-0.26332 3.33905,-1.57839 2.43223,-3.92561c-2.22697,-5.57053 -13.75,-6 -13.75,-6c0,0 5.35517,-0.10422 10.75,0z" data-paper-data="{&quot;index&quot;:null}" fill="#755943" stroke="none" stroke-width="0" stroke-linecap="butt"/><path d="M314.88273,66.0284c-0.93889,0 -1.7,-0.71634 -1.7,-1.6c0,-0.88365 0.76112,-1.6 1.7,-1.6c0.93889,0 1.7,0.71635 1.7,1.6c0,0.88365 -0.76111,1.6 -1.7,1.6z" data-paper-data="{&quot;index&quot;:null}" fill="#755943" stroke="none" stroke-width="0" stroke-linecap="butt"/><path d="M174.66727,56.78055c0,0 -11.52303,0.42948 -13.75,6c-0.90681,2.34722 0.7784,3.66228 2.43223,3.92561c1.29348,0.20594 2.56777,-0.42561 2.56777,-0.42561c0,0 -2.13508,5.7086 -7.66002,2.15143c-5.11542,-3.2935 -2.36076,-11.49649 5.66002,-11.65144c5.39482,-0.10422 10.75,0 10.75,0z" data-paper-data="{&quot;index&quot;:null}" fill="#755943" stroke="none" stroke-width="0" stroke-linecap="butt"/><path d="M163.41727,64.76173c0,-0.88365 0.76112,-1.6 1.7,-1.6c0.93888,0 1.7,0.71634 1.7,1.6c0,0.88365 -0.76111,1.6 -1.7,1.6c-0.93888,0 -1.7,-0.71635 -1.7,-1.6z" data-paper-data="{&quot;index&quot;:null}" fill="#755943" stroke="none" stroke-width="0" stroke-linecap="butt"/><path d="M141,326.55555v-15.33333l15.33333,12c0,0 -3.0301,0.29037 -4.66601,0.27783c-2.81441,-0.02158 -4.29977,1.15547 -4.19656,6.3949c0.07941,4.03162 3.64332,4.78937 8.42828,4.74853c3.87529,-0.03308 -0.23238,4.2454 -0.23238,4.2454c0,0 -7.9375,-0.76426 -8.61758,-1.80227c-1.16119,-1.77234 -6.04908,-10.53106 -6.04908,-10.53106z" fill="#85654c" stroke="none" stroke-width="0" stroke-linecap="butt"/></g></g></svg>