<svg version="1.1" xmlns="http://www.w3.org/2000/svg" xmlns:xlink="http://www.w3.org/1999/xlink" width="488" height="37" viewBox="0,0,488,37"><g transform="translate(3.5,2.88353)"><g data-paper-data="{&quot;isPaintingLayer&quot;:true}" fill-rule="nonzero" stroke-linejoin="miter" stroke-miterlimit="10" stroke-dasharray="" stroke-dashoffset="0" style="mix-blend-mode: normal"><path d="M-3.5,34.11647v-37h488v37z" fill-opacity="0.06667" fill="#000000" stroke="none" stroke-width="0" stroke-linecap="butt"/><path d="M366.57722,20.79298v5.07399h-12.93917v-0.89717l1.25604,-0.01994v-15.26184l-1.25604,-0.02991v-0.8872h8.27389v0.8872l-2.78122,0.02991v15.212c2.12662,-0.75096 4.25989,-1.68801 6.3998,-2.81113l0.04984,-1.27597zM373.19074,14.0044c1.49528,0 2.67157,0.54163 3.52886,1.62487c0.86394,1.0766 1.28594,2.53201 1.26601,4.36622l-7.04776,0.22928c0.11962,1.0035 0.46852,1.77108 1.0467,2.30273c0.57818,0.52501 1.34575,0.78751 2.30273,0.78751c1.32249,0 2.40242,-0.36551 3.23978,-1.09654l0.45855,0.40871c-0.59811,1.13641 -1.40224,2.02361 -2.41239,2.6616c-1.01015,0.63799 -2.08675,0.95698 -3.22981,0.95698c-1.54845,0 -2.7779,-0.51172 -3.68836,-1.53516c-0.91046,-1.03008 -1.36569,-2.42236 -1.36569,-4.17682c0,-1.03673 0.20934,-2.06349 0.62802,-3.08028c0.41868,-1.02344 0.95034,-1.87741 1.59497,-2.56192c0.44526,-0.25254 1.01679,-0.46188 1.71459,-0.62802c0.6978,-0.17279 1.3524,-0.25918 1.9638,-0.25918zM374.20753,19.15814c-0.01329,-1.18958 -0.18276,-2.13327 -0.5084,-2.83107c-0.32564,-0.6978 -0.78419,-1.11648 -1.37566,-1.25604c-0.42532,0.44526 -0.7709,1.06331 -1.03673,1.85415c-0.26583,0.79084 -0.39874,1.60161 -0.39874,2.43232v0.07975zM390.33623,14.38321v0.81742l-0.73767,0.01994l-4.51575,10.49688l-2.58185,0.14953l-4.02729,-10.6464l-0.74764,-0.01994v-0.81742h6.05091v0.81742l-1.06663,0.01994l2.21302,7.86518l2.09339,-7.86518l-1.06663,-0.01994v-0.81742zM396.54102,14.0044c1.49528,0 2.67157,0.54163 3.52886,1.62487c0.86394,1.0766 1.28594,2.53201 1.26601,4.36622l-7.04776,0.22928c0.11962,1.0035 0.46852,1.77108 1.0467,2.30273c0.57818,0.52501 1.34575,0.78751 2.30273,0.78751c1.32249,0 2.40242,-0.36551 3.23978,-1.09654l0.45855,0.40871c-0.59811,1.13641 -1.40224,2.02361 -2.41239,2.6616c-1.01015,0.63799 -2.08675,0.95698 -3.22981,0.95698c-1.54845,0 -2.7779,-0.51172 -3.68836,-1.53516c-0.91046,-1.03008 -1.36569,-2.42236 -1.36569,-4.17682c0,-1.03673 0.20934,-2.06349 0.62802,-3.08028c0.41868,-1.02344 0.95034,-1.87741 1.59497,-2.56192c0.44526,-0.25254 1.01679,-0.46188 1.71459,-0.62802c0.6978,-0.17279 1.3524,-0.25918 1.9638,-0.25918zM397.55782,19.15814c-0.01329,-1.18958 -0.18276,-2.13327 -0.5084,-2.83107c-0.32564,-0.6978 -0.78419,-1.11648 -1.37566,-1.25604c-0.42532,0.44526 -0.7709,1.06331 -1.03673,1.85415c-0.26583,0.79084 -0.39874,1.60161 -0.39874,2.43232v0.07975zM402.15888,25.1293l0.93704,-0.07975l-0.11962,-15.28178l-0.97692,0.19937l-0.24921,-0.73767l4.71512,-1.4255l0.35887,0.60808l-0.12959,16.6375l0.94701,0.07975v0.73767h-5.4827z" fill="#ffece6" stroke="none" stroke-width="1" stroke-linecap="square"/><path d="M434,18.50752h10" fill="none" stroke="#ffece6" stroke-width="1" stroke-linecap="round"/><path d="M422.20054,15.21422c1.05002,0 1.98374,0.19605 2.80116,0.58814c0.81742,0.3921 1.45541,0.94701 1.91396,1.66475c0.45855,0.71109 0.68783,1.51522 0.68783,2.41239c0,1.10983 -0.32896,2.13991 -0.98689,3.09025c-0.65128,0.95034 -1.53516,1.70794 -2.65163,2.27283c-1.10983,0.55824 -2.31935,0.83736 -3.62855,0.83736c-1.42883,0 -2.84103,-0.36551 -4.23663,-1.09654l1.14638,-3.33946c2.33264,1.3092 4.50911,2.18643 6.5294,2.6317c0.17279,-0.56488 0.25918,-1.14306 0.25918,-1.73453c0,-1.56839 -0.64463,-2.7347 -1.9339,-3.49896c-1.28262,-0.76425 -3.23978,-1.14638 -5.87147,-1.14638l0.63799,-9.29068h10.04829v5.4827h-0.81742l-0.06978,-0.99685l-7.53622,-1.3956l-0.45855,4.15688c0.65128,-0.18608 1.3524,-0.33893 2.10336,-0.45855c0.75761,-0.11962 1.44544,-0.17943 2.06349,-0.17943z" fill="#ffece6" stroke="none" stroke-width="1" stroke-linecap="square"/><path d="M9.30812,25.15832l1.28827,-0.02045v-15.65351l-1.28827,-0.03067v-0.90996l5.05084,0.05113l3.72167,-0.31696c2.597,0 4.60438,0.72594 6.02216,2.1778c1.42459,1.44504 2.13689,3.53764 2.13689,6.27777c0,1.84721 -0.35785,3.47628 -1.07355,4.88725c-0.70889,1.40414 -1.77903,2.49816 -3.21045,3.28203c-1.43141,0.78387 -3.17638,1.1758 -5.23488,1.1758h-7.41266zM15.66767,25.15832c1.86766,0 3.31952,-0.64413 4.35558,-1.9324c1.04289,-1.28827 1.56434,-3.23431 1.56434,-5.8381c0,-1.72451 -0.29311,-3.17638 -0.8793,-4.35558c-0.58619,-1.1792 -1.38029,-2.05851 -2.38228,-2.6379c-1.00199,-0.58619 -2.13007,-0.8793 -3.38426,-0.8793v15.64328zM38.07866,24.71867l-3.85459,1.80972c-0.47033,-0.33399 -0.79068,-0.79068 -0.96109,-1.37006c-0.63391,0.38853 -1.26783,0.70208 -1.90174,0.94065c-0.63391,0.24539 -1.18944,0.36807 -1.66656,0.36807c-0.70889,0 -1.29168,-0.2522 -1.74837,-0.7566c-0.45669,-0.50439 -0.68503,-1.14854 -0.68503,-1.9324c0,-0.34762 0.03749,-0.72593 0.11247,-1.13491c0.0818,-0.41579 0.18403,-0.74637 0.30674,-0.99176l5.55183,-0.88952l0.05112,-0.7566c0.03408,-0.78387 -0.13292,-1.39733 -0.50099,-1.84038c-0.36126,-0.44987 -0.95427,-0.67481 -1.77905,-0.67481c-0.36126,0 -0.74298,0.0409 -1.14512,0.12269c-0.40216,0.07498 -0.74296,0.17382 -1.02243,0.29651l-0.41921,0.88952l-0.70547,-0.25561l1.20647,-3.7728c1.34279,-0.57256 2.61403,-0.85885 3.81369,-0.85885c1.24055,0 2.25277,0.32719 3.03665,0.98154c0.79068,0.65436 1.18602,1.67679 1.18602,3.0673l-0.03067,0.53166l-0.26584,3.52742l-0.05112,0.94063c0,0.31354 0.02727,0.56235 0.0818,0.74639c0.05453,0.18404 0.14313,0.37149 0.26584,0.56235l0.80774,-0.30674zM32.13831,24.58577c0.27947,0 0.59983,-0.10566 0.96109,-0.31696l-0.02045,-0.54189l0.02045,-0.58279l0.0818,-1.49276l-2.0142,0.47033c-0.06817,0.23175 -0.10225,0.53848 -0.10225,0.9202c0,0.52486 0.10225,0.91338 0.30674,1.16557c0.2113,0.2522 0.46691,0.37831 0.76684,0.37831zM58.09675,25.32191v0.7566h-5.60296v-0.7566l0.97132,-0.0818v-5.52116c0,-0.77023 -0.19767,-1.36666 -0.59301,-1.78926c-0.38853,-0.42942 -0.93383,-0.65436 -1.6359,-0.67481l-0.96109,0.97132v0.44987v6.56405l0.94063,0.0818v0.7566h-5.60295v-0.7566l0.97132,-0.0818v-5.52117c0,-0.77023 -0.19767,-1.36324 -0.59302,-1.77905c-0.38853,-0.4226 -0.93381,-0.64073 -1.63589,-0.65436l-0.85885,0.85885l-0.11247,7.09571l0.97132,0.0818v0.7566h-5.6234v-0.7566l0.97132,-0.0818l-0.0818,-9.36552l-0.99176,0.23516l-0.26584,-0.78728l4.13065,-1.28827l0.9202,2.93439l2.1778,-3.11842c1.34281,0 2.38228,0.27265 3.11844,0.81795c0.74298,0.53848 1.22011,1.37688 1.43141,2.5152l2.33116,-3.35359c1.60181,0 2.78103,0.39194 3.53763,1.17581c0.76342,0.78387 1.14512,2.00738 1.14512,3.67055v6.56405zM66.11142,13.91153c1.00881,0 1.90173,0.23175 2.67878,0.69526c0.77705,0.45669 1.3769,1.09061 1.7995,1.90174c0.42943,0.81113 0.64413,1.73132 0.64413,2.76058c0,0.89293 -0.14314,1.84039 -0.42943,2.84237c-0.28627,1.00199 -0.63733,1.77563 -1.0531,2.32093c-0.33399,0.47033 -0.93723,0.927 -1.80971,1.37006c-0.87248,0.44306 -1.60523,0.6646 -2.19824,0.6646c-0.43624,0 -1.14512,-0.07838 -2.12667,-0.23516l0.06135,5.55183l2.01421,0.0818v0.7566h-6.94235v-0.7566l0.97132,-0.0818l0.13292,-15.97047l-0.99176,0.24539l-0.26584,-0.78728l4.05908,-1.28827l0.8384,2.98551zM66.83733,24.48351c0.43624,-0.99517 0.65436,-2.20846 0.65436,-3.63988c0,-0.80432 -0.1295,-1.50298 -0.38852,-2.09599c-0.25902,-0.59301 -0.60324,-1.0463 -1.03265,-1.35983c-0.42943,-0.31354 -0.88952,-0.47033 -1.38029,-0.47033l-1.14514,1.15535l0.05113,5.30645c1.15194,0.5453 2.23232,0.91338 3.24112,1.10424zM81.68679,11.31453c0,0.55893 0.15677,1.07356 0.47033,1.54388c0.31356,0.47033 0.70548,0.88952 1.17581,1.25761c0.47033,0.36807 1.11446,0.82136 1.93241,1.35984c0.96108,0.6271 1.72792,1.18262 2.30049,1.66658c0.57938,0.47714 1.07356,1.05312 1.48253,1.72792c0.40898,0.66799 0.61346,1.42119 0.61346,2.25959c0,0.927 -0.2522,1.79609 -0.7566,2.60722c-0.50439,0.81113 -1.26441,1.46889 -2.28004,1.9733c-1.0088,0.50439 -2.22891,0.7566 -3.66033,0.7566c-3.07413,0 -5.25533,-1.2201 -6.5436,-3.66033l2.95484,-2.28002c0.8384,1.73133 1.78245,3.40812 2.83216,5.03039h0.02045c0.51123,0 0.98495,-0.13632 1.42119,-0.40897c0.43624,-0.27266 0.78387,-0.6271 1.04289,-1.06334c0.25902,-0.43624 0.38853,-0.89634 0.38853,-1.38029c0,-0.52486 -0.15337,-1.0088 -0.46009,-1.45186c-0.29992,-0.44987 -0.67822,-0.8418 -1.1349,-1.1758c-0.44987,-0.3408 -1.07015,-0.7566 -1.86084,-1.24738c-0.94063,-0.59301 -1.70065,-1.11445 -2.28004,-1.56433c-0.57256,-0.45669 -1.06334,-1.01222 -1.47231,-1.66656c-0.40897,-0.65436 -0.61346,-1.41095 -0.61346,-2.2698c0,-0.96108 0.27266,-1.83699 0.81795,-2.62767c0.55211,-0.79068 1.3394,-1.41438 2.36183,-1.87105c1.02243,-0.45669 2.22209,-0.68503 3.59898,-0.68503c1.34279,0 2.44362,0.21472 3.30247,0.64413c0.86566,0.42942 1.64953,1.03606 2.35161,1.81993l-2.75035,2.7708c-0.927,-1.53366 -1.86083,-2.97189 -2.80148,-4.31468c-0.78387,0 -1.39051,0.21472 -1.81994,0.64415c-0.4226,0.4226 -0.63392,0.95768 -0.63392,1.60523zM109.30035,14.30004v0.8384l-0.76683,0.02045l-3.99772,10.76627l-2.597,0.15337l-2.58676,-7.19796l-2.46408,7.0446l-2.6379,0.15337l-4.11021,-10.91963l-0.76682,-0.02045v-0.8384h6.25732v0.8384l-1.02244,0.02045l2.12667,7.75007l1.41096,-7.75007l-0.88951,-0.02045v-0.8384h5.99148v0.8384l-0.88951,0.02045l2.06532,7.6785l1.47231,-7.6785l-1.02244,-0.02045v-0.8384zM119.45477,24.71867l-3.85459,1.80972c-0.47033,-0.33399 -0.79068,-0.79068 -0.96108,-1.37006c-0.63391,0.38853 -1.26782,0.70208 -1.90173,0.94065c-0.63391,0.24539 -1.18944,0.36807 -1.66658,0.36807c-0.70889,0 -1.29168,-0.2522 -1.74836,-0.7566c-0.45669,-0.50439 -0.68503,-1.14854 -0.68503,-1.9324c0,-0.34762 0.03749,-0.72593 0.11247,-1.13491c0.0818,-0.41579 0.18404,-0.74637 0.30674,-0.99176l5.55184,-0.88952l0.05112,-0.7566c0.03408,-0.78387 -0.13291,-1.39733 -0.50099,-1.84038c-0.36126,-0.44987 -0.95427,-0.67481 -1.77905,-0.67481c-0.36126,0 -0.74298,0.0409 -1.14512,0.12269c-0.40215,0.07498 -0.74298,0.17382 -1.02244,0.29651l-0.41919,0.88952l-0.70548,-0.25561l1.20647,-3.7728c1.34279,-0.57256 2.61403,-0.85885 3.81369,-0.85885c1.24056,0 2.25277,0.32719 3.03664,0.98154c0.79068,0.65436 1.18602,1.67679 1.18602,3.0673l-0.03067,0.53166l-0.26584,3.52742l-0.05111,0.94063c0,0.31354 0.02727,0.56235 0.0818,0.74639c0.05453,0.18404 0.14314,0.37149 0.26584,0.56235l0.80773,-0.30674zM113.51441,24.58577c0.27947,0 0.59983,-0.10566 0.96108,-0.31696l-0.02045,-0.54189l0.02045,-0.58279l0.0818,-1.49276l-2.0142,0.47033c-0.06817,0.23175 -0.10223,0.53848 -0.10223,0.9202c0,0.52486 0.10225,0.91338 0.30674,1.16557c0.21131,0.2522 0.4669,0.37831 0.76683,0.37831zM139.47284,25.32191v0.7566h-5.60295v-0.7566l0.97131,-0.0818v-5.52116c0,-0.77023 -0.19767,-1.36666 -0.59301,-1.78926c-0.38853,-0.42942 -0.93383,-0.65436 -1.6359,-0.67481l-0.96109,0.97132v0.44987v6.56405l0.94065,0.0818v0.7566h-5.60295v-0.7566l0.97132,-0.0818v-5.52117c0,-0.77023 -0.19767,-1.36324 -0.59301,-1.77905c-0.38853,-0.4226 -0.93383,-0.64073 -1.6359,-0.65436l-0.85885,0.85885l-0.11246,7.09571l0.97132,0.0818v0.7566h-5.6234v-0.7566l0.97131,-0.0818l-0.0818,-9.36552l-0.99176,0.23516l-0.26583,-0.78728l4.13064,-1.28827l0.9202,2.93439l2.17779,-3.11842c1.34279,0 2.38228,0.27265 3.11844,0.81795c0.74298,0.53848 1.22011,1.37688 1.43141,2.5152l2.33116,-3.35359c1.60182,0 2.78103,0.39194 3.53763,1.17581c0.76342,0.78387 1.14512,2.00738 1.14512,3.67055v6.56405zM147.4875,13.91153c1.0088,0 1.90174,0.23175 2.67879,0.69526c0.77705,0.45669 1.37688,1.09061 1.79948,1.90174c0.42942,0.81113 0.64413,1.73132 0.64413,2.76058c0,0.89293 -0.14313,1.84039 -0.42942,2.84237c-0.28627,1.00199 -0.63733,1.77563 -1.05312,2.32093c-0.33399,0.47033 -0.93723,0.927 -1.80971,1.37006c-0.87248,0.44306 -1.60523,0.6646 -2.19824,0.6646c-0.43624,0 -1.14512,-0.07838 -2.12667,-0.23516l0.06135,5.55183l2.01421,0.0818v0.7566h-6.94235v-0.7566l0.97132,-0.0818l0.13292,-15.97047l-0.99176,0.24539l-0.26584,-0.78728l4.05908,-1.28827l0.8384,2.98551zM148.21342,24.48351c0.43624,-0.99517 0.65436,-2.20846 0.65436,-3.63988c0,-0.80432 -0.12951,-1.50298 -0.38853,-2.09599c-0.25902,-0.59301 -0.60324,-1.0463 -1.03265,-1.35983c-0.42942,-0.31354 -0.88951,-0.47033 -1.38029,-0.47033l-1.14512,1.15535l0.05112,5.30645c1.15196,0.5453 2.23233,0.91338 3.24113,1.10424z" fill="#f1f6ff" stroke="none" stroke-width="1" stroke-linecap="square"/><g stroke="none" stroke-width="0" stroke-linecap="butt"><path d="M178.10768,28.97684v-5.1397l-8.71514,-1.11732c0,0 -0.64826,-13.06443 11.84465,-13.30478c11.78117,-0.22666 12.06613,13.08132 12.06613,13.08132l-8.26821,1.34079v5.1397z" fill="#f1f6ff"/><path d="M180.4839,17.97075c0,1.60441 -1.40068,2.90505 -3.12851,2.90505c-1.72783,0 -3.12851,-1.30063 -3.12851,-2.90505c0,-1.60441 1.40068,-2.90505 3.12851,-2.90505c1.72783,0 3.12851,1.30063 3.12851,2.90505z" fill="#618b37"/><path d="M186.44297,12.4586c0,0.86391 -1.13389,1.56426 -2.53261,1.56426c-1.39872,0 -2.53261,-0.70034 -2.53261,-1.56426c0,-0.86391 1.13389,-1.56426 2.53261,-1.56426c1.39872,0 2.53261,0.70034 2.53261,1.56426z" fill="#618b37"/><path d="M186.14502,16.40649c1.39872,0 2.53261,1.06719 2.53261,2.38363c0,1.31644 -1.13389,2.38363 -2.53261,2.38363c-1.39872,0 -2.53261,-1.06719 -2.53261,-2.38363c0,-1.31644 1.13389,-2.38363 2.53261,-2.38363z" fill="#618b37"/><path d="M178.86878,11.46644c0.24735,0.52013 -0.6966,1.48602 -2.10837,2.1574c-1.41177,0.67137 -2.75674,0.79399 -3.00409,0.27386c-0.24735,-0.52013 0.6966,-1.48602 2.10837,-2.1574c1.41177,-0.67137 2.75675,-0.79399 3.00409,-0.27386z" fill="#618b37"/><path d="M171.70715,17.3899c0.46678,0.08976 0.64767,1.18962 0.40403,2.4566c-0.24364,1.26698 -0.81955,2.22131 -1.28634,2.13155c-0.46678,-0.08976 -0.64767,-1.18962 -0.40403,-2.4566c0.24364,-1.26698 0.81955,-2.22131 1.28634,-2.13155z" fill="#618b37"/><path d="M190.86253,16.80952c0.46363,-0.10486 1.07019,0.83029 1.3548,2.0887c0.28461,1.25841 0.13949,2.36356 -0.32414,2.46842c-0.46363,0.10486 -1.07019,-0.83029 -1.3548,-2.0887c-0.28461,-1.25841 -0.13949,-2.36356 0.32414,-2.46842z" fill="#618b37"/></g></g></g></svg>