<svg version="1.1" xmlns="http://www.w3.org/2000/svg" xmlns:xlink="http://www.w3.org/1999/xlink" width="36" height="36" viewBox="0,0,36,36"><defs><radialGradient cx="240" cy="178.4" r="15.11667" gradientUnits="userSpaceOnUse" id="color-1"><stop offset="0" stop-color="#00ffff"/><stop offset="1" stop-color="#00ffff" stop-opacity="0"/></radialGradient></defs><g transform="translate(-222,-162)"><g data-paper-data="{&quot;isPaintingLayer&quot;:true}" fill-rule="nonzero" stroke="none" stroke-width="0" stroke-linecap="butt" stroke-linejoin="miter" stroke-miterlimit="10" stroke-dasharray="" stroke-dashoffset="0" style="mix-blend-mode: normal"><path d="M224.88333,178.4c0,-8.3487 6.76796,-15.11667 15.11667,-15.11667c8.3487,0 15.11667,6.76796 15.11667,15.11667c0,8.3487 -6.76796,15.11667 -15.11667,15.11667c-8.3487,0 -15.11667,-6.76796 -15.11667,-15.11667z" fill="url(#color-1)"/><path d="M230.37097,171.02872c3.11861,0 14.15552,0 19.55812,0c2.15244,0 2.15878,4.30914 1.03261,6.29681c-2.61492,4.61532 -7.08498,11.847 -8.66494,14.63563c-1.01489,1.79128 -3.62018,1.79128 -4.63507,0c-1.6072,-2.83669 -6.20884,-10.30063 -8.79839,-14.87115c-1.05246,-1.85757 -0.3338,-6.06128 1.50767,-6.06128z" fill="#5be4e4"/><path d="M230.92652,169.91761c3.1186,0 13.04441,0 18.44701,0c2.15244,0 2.82544,2.19803 1.69928,4.1857c-2.61493,4.61532 -7.19609,11.847 -8.77606,14.63562c-1.0149,1.79128 -3.62017,1.79128 -4.63507,0c-1.6072,-2.83669 -6.31995,-10.30063 -8.9095,-14.87115c-1.05246,-1.85757 0.33287,-3.95017 2.17433,-3.95017z" fill="#90cccc"/><path d="M233.80798,179.38325c1.40523,-2.48022 3.96264,-6.53058 4.8348,-8.06993c0.55074,-0.97205 1.96451,-0.97205 2.51525,0c0.85738,1.51327 3.34338,5.43759 4.76239,7.94212c0.61112,1.07862 0.24591,2.2714 -0.92213,2.2714c-2.93176,0 -8.31807,0 -10.0104,0c-0.99928,0 -1.75104,-1.13556 -1.17992,-2.14359z" data-paper-data="{&quot;index&quot;:null}" fill="#00ffff"/><path d="M222,198v-36h36v36z" fill="none"/><path d="M250.5906,172.57922c-0.87001,1.53556 -2.45335,4.04321 -2.99332,4.99625c-0.34097,0.60181 -1.21627,0.60181 -1.55724,0c-0.53082,-0.93689 -2.06995,-3.36652 -2.94849,-4.91712c-0.37836,-0.6678 -0.15224,-1.40626 0.57091,-1.40626c1.81511,0 5.14987,0 6.19763,0c0.61868,0 1.0841,0.70305 0.73051,1.32714z" data-paper-data="{&quot;index&quot;:null}" fill-opacity="0.15294" fill="#000000"/><path d="M236.8906,172.57923c-0.87001,1.53555 -2.45335,4.04321 -2.99332,4.99625c-0.34097,0.60181 -1.21627,0.60181 -1.55724,0c-0.53082,-0.93689 -2.06995,-3.36652 -2.94849,-4.91712c-0.37835,-0.6678 -0.15224,-1.40627 0.57091,-1.40627c1.81511,0 5.14988,0 6.19763,0c0.61867,0 1.0841,0.70305 0.73051,1.32714z" data-paper-data="{&quot;index&quot;:null}" fill-opacity="0.15294" fill="#000000"/><path d="M243.6906,183.67923c-0.87001,1.53555 -2.45335,4.04321 -2.99332,4.99625c-0.34097,0.60181 -1.21627,0.60181 -1.55724,0c-0.53082,-0.93689 -2.06995,-3.36652 -2.94849,-4.91712c-0.37835,-0.6678 -0.15224,-1.40627 0.57091,-1.40627c1.81511,0 5.14988,0 6.19763,0c0.61867,0 1.0841,0.70305 0.73051,1.32714z" data-paper-data="{&quot;index&quot;:null}" fill-opacity="0.15294" fill="#000000"/></g></g></svg>