<svg version="1.1" xmlns="http://www.w3.org/2000/svg" xmlns:xlink="http://www.w3.org/1999/xlink" width="593.49568" height="438.72958" viewBox="0,0,593.49568,438.72958"><defs><linearGradient x1="240.75076" y1="-2.44787" x2="240.75076" y2="224.18876" gradientUnits="userSpaceOnUse" id="color-1"><stop offset="0" stop-color="#ffffff"/><stop offset="1" stop-color="#f1edc0"/></linearGradient><linearGradient x1="241.99703" y1="57.34532" x2="241.99703" y2="368.21652" gradientUnits="userSpaceOnUse" id="color-2"><stop offset="0" stop-color="#f4f3e8"/><stop offset="1" stop-color="#ccc88f"/></linearGradient></defs><g transform="translate(47.17483,67.59655)"><g data-paper-data="{&quot;isPaintingLayer&quot;:true}" fill-rule="nonzero" stroke-linejoin="miter" stroke-miterlimit="10" stroke-dasharray="" stroke-dashoffset="0" style="mix-blend-mode: normal"><path d="M-5.49549,224.18876v-226.63664h492.49249v226.63664z" fill="url(#color-1)" stroke="none" stroke-width="0" stroke-linecap="butt"/><path d="M-4.99997,368.21652v-286.00744c0,0 5.64044,-23.69947 24.1677,-22.57092c19.63315,1.19592 28.75875,22.57092 28.75875,22.57092c0,0 8.35722,-18.05674 29.90909,-16.92819c23.24482,1.2172 28.75874,16.92819 28.75874,16.92819c0,0 10.45066,-25.95656 35.66085,-24.82801c24.99247,1.11879 32.20979,24.82801 32.20979,24.82801c0,0 9.88514,-19.1022 34.51049,-18.05674c25.63924,1.08851 31.05944,23.69947 31.05944,23.69947c0,0 12.00118,-19.21734 36.8417,-16.4965c25.06658,2.7456 29.87858,24.39633 29.87858,24.39633c0,0 6.67063,-19.4502 26.59268,-20.81832c20.01912,-1.37479 30.9248,17.43268 30.9248,17.43268c0,0 3.98456,-24.11423 25.35364,-30.63922c22.35208,-6.82515 39.06595,20.4823 39.06595,20.4823c0,0 7.9163,-17.58162 31.02836,-16.92819c16.37608,0.46299 28.37528,24.45183 28.37528,24.45183l0.89816,278.48376z" fill="url(#color-2)" stroke="none" stroke-width="0" stroke-linecap="butt"/><path d="M166.44555,334.92176c0,0 9.97563,-26.40873 21.33366,-35.37558c11.35803,-8.96686 36.95764,-3.01137 36.95764,-3.01137c0,0 6.69002,-22.40159 29.85654,-23.4587c23.36833,-1.0663 33.05543,23.4587 33.05543,23.4587c0,0 7.89874,-6.80163 29.44528,-2.04146c18.49972,3.36638 29.14567,38.58974 29.14567,38.58974z" data-paper-data="{&quot;index&quot;:null}" fill="#d0cd98" stroke="none" stroke-width="0" stroke-linecap="butt"/><path d="M101.82517,168.51823c0,0 6.73446,-17.82826 14.40215,-23.8817c7.66769,-6.05344 24.94972,-2.03294 24.94972,-2.03294c0,0 4.51637,-15.12308 20.15585,-15.83673c15.77572,-0.71985 22.31538,15.83673 22.31538,15.83673c0,0 5.33237,-4.59171 19.87822,-1.37817c12.48898,2.2726 19.67595,26.05153 19.67595,26.05153z" data-paper-data="{&quot;index&quot;:null}" fill="#e6e4c8" stroke="none" stroke-width="0" stroke-linecap="butt"/><path d="M150.53454,168.57032c7.47994,2.67748 9.02161,19.4132 9.02161,19.4132l-130.7446,-0.05286c0,0 5.7805,-15.30285 12.36205,-20.49882c6.58155,-5.19597 21.41557,-1.74499 21.41557,-1.74499c0,0 3.87661,-12.98089 17.30073,-13.59343c13.54106,-0.61789 19.15439,13.59343 19.15439,13.59343c0,0 5.43322,-7.36605 17.91862,-8.03248c11.57609,-0.61789 16.88881,13.7994 16.88881,13.7994c0,0 4.48968,-6.75983 16.68285,-2.88345z" data-paper-data="{&quot;index&quot;:null}" fill="#e3e1c2" stroke="none" stroke-width="0" stroke-linecap="butt"/><path d="M307.07836,50.65809c0,0 6.11216,-16.18084 13.07132,-21.67491c6.95916,-5.49407 22.64425,-1.84508 22.64425,-1.84508c0,0 4.09903,-13.72563 18.29335,-14.37333c14.31797,-0.65333 20.25333,14.37334 20.25333,14.37334c0,0 4.83964,-4.16742 18.04138,-1.25082c11.33493,2.0626 17.8578,23.64425 17.8578,23.64425z" data-paper-data="{&quot;index&quot;:null}" fill="#fcfbf1" stroke="none" stroke-width="0" stroke-linecap="butt"/><path d="M351.28674,50.70537c6.78876,2.43008 8.18796,17.61932 8.18796,17.61932l-118.66315,-0.04798c0,0 5.24635,-13.8888 11.21973,-18.60462c5.97338,-4.71583 19.43666,-1.58374 19.43666,-1.58374c0,0 3.51839,-11.78139 15.70206,-12.33733c12.2898,-0.56079 17.38443,12.33733 17.38443,12.33733c0,0 4.93116,-6.68539 16.26285,-7.29024c10.5064,-0.56079 15.32821,12.52426 15.32821,12.52426c0,0 4.07481,-6.13518 15.14127,-2.617z" data-paper-data="{&quot;index&quot;:null}" fill="#faf9ea" stroke="none" stroke-width="0" stroke-linecap="butt"/><path d="M301.34545,264.16418c15.58868,-4.95586 21.32862,3.68642 21.32862,3.68642c0,0 6.7922,-18.43215 21.59195,-17.6422c15.96229,0.85202 22.90853,10.26933 22.90853,10.26933c0,0 7.1765,-18.16883 24.48843,-17.37888c17.16242,0.78312 22.11858,17.37888 22.11858,17.37888c0,0 18.96494,-4.412 27.3793,2.23092c8.41436,6.64292 15.80459,26.20726 15.80459,26.20726l-167.15389,0.06759c0,0 1.97098,-21.39622 11.53392,-24.81932z" data-paper-data="{&quot;index&quot;:null}" fill="#d5d2a4" stroke="none" stroke-width="0" stroke-linecap="butt"/><path d="M324.34544,191.1642c15.58868,-4.95586 21.32862,3.68643 21.32862,3.68643c0,0 6.79221,-18.43215 21.59196,-17.6422c15.96229,0.85201 22.90852,10.26933 22.90852,10.26933c0,0 7.17651,-18.16883 24.48843,-17.37888c17.16242,0.78312 22.11857,17.37888 22.11857,17.37888c0,0 18.96494,-4.412 27.3793,2.23092c8.41435,6.64292 15.80459,26.20726 15.80459,26.20726l-167.15389,0.06759c0,0 1.97098,-21.39622 11.53391,-24.81932z" data-paper-data="{&quot;index&quot;:null}" fill="#dfdcb9" stroke="none" stroke-width="0" stroke-linecap="butt"/><path d="M323.82517,150.51823c0,0 6.73446,-17.82826 14.40215,-23.8817c7.66769,-6.05344 24.94972,-2.03294 24.94972,-2.03294c0,0 4.51637,-15.12307 20.15585,-15.83673c15.77572,-0.71985 22.31538,15.83673 22.31538,15.83673c0,0 5.33237,-4.59171 19.87822,-1.37817c12.48897,2.2726 19.67595,26.05153 19.67595,26.05153z" data-paper-data="{&quot;index&quot;:null}" fill="#e7e5cc" stroke="none" stroke-width="0" stroke-linecap="butt"/><path d="M-47.17483,134.51823c0,0 6.73446,-17.82826 14.40215,-23.8817c7.66769,-6.05344 24.94972,-2.03295 24.94972,-2.03295c0,0 4.51637,-15.12307 20.15585,-15.83672c15.77572,-0.71985 22.31538,15.83672 22.31538,15.83672c0,0 5.33237,-4.59171 19.87822,-1.37816c12.48897,2.2726 19.67595,26.05153 19.67595,26.05153z" data-paper-data="{&quot;index&quot;:null}" fill="#e9e7d0" stroke="none" stroke-width="0" stroke-linecap="butt"/><path d="M34.3356,28.48909c12.87227,-4.09228 17.612,3.04405 17.612,3.04405c0,0 5.60863,-15.22025 17.82944,-14.56795c13.18078,0.70355 18.9166,8.47985 18.9166,8.47985c0,0 5.92596,-15.00282 20.22119,-14.35052c14.17178,0.64666 18.2643,14.35052 18.2643,14.35052c0,0 15.6602,-3.64319 22.60831,1.84217c6.94811,5.48536 13.05056,21.64051 13.05056,21.64051l-138.02646,0.05581c0,0 1.62753,-17.66782 9.52407,-20.49442z" data-paper-data="{&quot;index&quot;:null}" fill="#fcfbf0" stroke="none" stroke-width="0" stroke-linecap="butt"/><g><path d="M408.74972,227.63095c2.38802,2.73578 2.94827,6.15434 1.25138,7.63551c-1.6969,1.48115 -5.00836,0.46408 -7.39638,-2.27173c-2.38802,-2.73578 -2.94825,-6.15434 -1.25135,-7.63551c1.6969,-1.48115 5.00834,-0.46408 7.39636,2.27173z" fill-opacity="0.0549" fill="#000000" stroke="none" stroke-width="0" stroke-linecap="butt"/><path d="M409.39702,216.36204v17.81147" fill="#41714f" stroke-opacity="0.0549" stroke="#000000" stroke-width="3.5" stroke-linecap="round"/><path d="M417.68393,219.98123c1.6969,1.48115 1.13664,4.8997 -1.25135,7.63548c-2.38802,2.73578 -5.69946,3.7529 -7.39638,2.27173c-1.6969,-1.48115 -1.13664,-4.89972 1.25138,-7.63551c2.38802,-2.73578 5.69946,-3.75287 7.39636,-2.27173z" data-paper-data="{&quot;index&quot;:null}" fill-opacity="0.0549" fill="#000000" stroke="none" stroke-width="0" stroke-linecap="butt"/><path d="M400.94585,207.13613c0,-3.72551 0.02343,-0.44512 0.09557,-3.44592c0.19791,-8.23402 1.48584,-9.51136 4.33887,-1.3414c0.4836,1.3848 0.46546,1.55362 0.46546,1.55362c0,0 0.33929,-0.46095 0.58434,-1.58214c1.41518,-6.47431 3.72563,-8.3546 6.27472,0.44018c0.23333,0.80505 0.51944,1.22128 0.51944,1.22128c0,0 0.25418,-0.29732 0.44311,-0.9318c2.11352,-7.09765 4.38179,-9.69259 4.675,0.74332c0.10543,3.7523 -0.03324,-0.32697 -0.03324,3.3429c0,4.79475 -3.8869,8.68167 -8.68167,8.68167c-4.79472,0 -8.68165,-3.8869 -8.68165,-8.68165z" fill-opacity="0.0549" fill="#000000" stroke="none" stroke-width="0" stroke-linecap="butt"/><path d="M428.05635,232.90315c1.56323,1.79089 1.92999,4.02873 0.81917,4.99833c-1.11082,0.96959 -3.27856,0.30379 -4.84179,-1.48711c-1.56323,-1.79089 -1.92997,-4.02873 -0.81915,-4.99833c1.11082,-0.96959 3.27854,-0.30379 4.84178,1.48711z" data-paper-data="{&quot;index&quot;:null}" fill-opacity="0.0549" fill="#000000" stroke="none" stroke-width="0" stroke-linecap="butt"/><path d="M428.48009,237.18604v-11.65969" data-paper-data="{&quot;index&quot;:null}" fill="#41714f" stroke-opacity="0.0549" stroke="#000000" stroke-width="3.5" stroke-linecap="round"/><path d="M422.9478,219.4869c0,-2.43878 0.01534,-0.29138 0.06256,-2.25575c0.12956,-5.39013 0.97266,-6.2263 2.8403,-0.87811c0.31657,0.90651 0.3047,1.01702 0.3047,1.01702c0,0 0.2221,-0.30174 0.38252,-1.03569c0.9264,-4.23819 2.43886,-5.46906 4.10753,0.28815c0.15274,0.527 0.34004,0.79947 0.34004,0.79947c0,0 0.16639,-0.19463 0.29007,-0.60997c1.38355,-4.64624 2.86839,-6.34493 3.06033,0.48659c0.06902,2.45632 -0.02176,-0.21404 -0.02176,2.18831c0,3.13872 -2.54443,5.68317 -5.68317,5.68317c-3.1387,0 -5.68315,-2.54443 -5.68315,-5.68315z" data-paper-data="{&quot;index&quot;:null}" fill-opacity="0.0549" fill="#000000" stroke="none" stroke-width="0" stroke-linecap="butt"/></g><g data-paper-data="{&quot;index&quot;:null}"><path d="M88.94378,128.22957c2.47747,-2.83828 5.91294,-3.89345 7.6734,-2.35682c1.76046,1.53665 1.17924,5.08326 -1.29822,7.9215c-2.47747,2.83828 -5.91296,3.89345 -7.67341,2.35682c-1.76045,-1.53665 -1.17922,-5.08326 1.29825,-7.9215z" fill-opacity="0.0549" fill="#000000" stroke="none" stroke-width="0" stroke-linecap="butt"/><path d="M88.27225,116.53857v18.47861" fill="#41714f" stroke-opacity="0.0549" stroke="#000000" stroke-width="3.5" stroke-linecap="round"/><path d="M79.67494,120.29328c1.76046,-1.53662 5.19593,-0.48143 7.6734,2.35682c2.47747,2.83826 3.05871,6.38487 1.29825,7.9215c-1.76048,1.53665 -5.19595,0.48143 -7.67341,-2.35682c-2.47743,-2.83825 -3.05868,-6.38485 -1.29822,-7.92148z" data-paper-data="{&quot;index&quot;:null}" fill-opacity="0.0549" fill="#000000" stroke="none" stroke-width="0" stroke-linecap="butt"/><path d="M97.04002,106.96716c0,4.97434 -4.03252,9.00683 -9.00683,9.00683c-4.97436,0 -9.00685,-4.03251 -9.00685,-9.00685c0,-3.80733 -0.14387,0.42473 -0.03449,-3.46811c0.3042,-10.8268 2.65742,-8.13466 4.8501,-0.77116c0.19601,0.65825 0.45971,0.9667 0.45971,0.9667c0,0 0.29682,-0.43182 0.5389,-1.26702c2.64457,-9.12419 5.04156,-7.17348 6.50974,-0.45666c0.25423,1.16319 0.60622,1.6414 0.60622,1.6414c0,0 -0.01882,-0.17514 0.48289,-1.61181c2.95989,-8.47597 4.29606,-7.15079 4.50139,1.39165c0.07484,3.1132 0.09915,-0.29006 0.09915,3.57499z" fill-opacity="0.0549" fill="#000000" stroke="none" stroke-width="0" stroke-linecap="butt"/><path d="M68.91402,133.69924c1.62179,-1.85798 3.8707,-2.54872 5.02313,-1.54281c1.15243,1.00592 0.77195,3.32757 -0.84983,5.18554c-1.62178,1.85798 -3.87071,2.54872 -5.02314,1.54281c-1.15243,-1.00592 -0.77193,-3.32757 0.84986,-5.18554z" data-paper-data="{&quot;index&quot;:null}" fill-opacity="0.0549" fill="#000000" stroke="none" stroke-width="0" stroke-linecap="butt"/><path d="M68.47441,126.04613v12.09641" data-paper-data="{&quot;index&quot;:null}" fill="#41714f" stroke-opacity="0.0549" stroke="#000000" stroke-width="3.5" stroke-linecap="round"/><path d="M74.21395,119.78051c0,3.25628 -2.63975,5.89602 -5.89602,5.89602c-3.2563,0 -5.89603,-2.63975 -5.89603,-5.89603c0,-2.49233 -0.09418,0.27805 -0.02257,-2.27028c0.19913,-7.0874 1.73959,-5.32508 3.17496,-0.50481c0.12831,0.4309 0.30094,0.63282 0.30094,0.63282c0,0 0.19431,-0.28267 0.35278,-0.82942c1.73117,-5.97285 3.30028,-4.69588 4.26138,-0.29894c0.16643,0.76144 0.39685,1.07448 0.39685,1.07448c0,0 -0.01231,-0.11465 0.31611,-1.05511c1.9376,-5.54851 2.81227,-4.68102 2.94668,0.911c0.04898,2.03795 0.0649,-0.18988 0.0649,2.34024z" data-paper-data="{&quot;index&quot;:null}" fill-opacity="0.0549" fill="#000000" stroke="none" stroke-width="0" stroke-linecap="butt"/></g><g><path d="M147.58155,313.37236c2.9102,3.33401 3.59297,7.5001 1.52502,9.30517c-2.06795,1.80503 -6.10355,0.56556 -9.01375,-2.76849c-2.9102,-3.33401 -3.59293,-7.50011 -1.52498,-9.30517c2.06795,-1.80503 6.10351,-0.56556 9.01371,2.76849z" fill-opacity="0.0549" fill="#000000" stroke="none" stroke-width="0" stroke-linecap="butt"/><path d="M148.3704,321.34557v-21.70632" fill="#47794f" stroke-opacity="0.0549" stroke="#000000" stroke-width="3.5" stroke-linecap="round"/><path d="M158.46943,304.04985c2.06795,1.80503 1.38519,5.97112 -1.52498,9.30513c-2.9102,3.33401 -6.94577,4.57355 -9.01376,2.76849c-2.06795,-1.80503 -1.38519,-5.97114 1.52502,-9.30517c2.9102,-3.33401 6.94576,-4.57352 9.01372,-2.76849z" data-paper-data="{&quot;index&quot;:null}" fill-opacity="0.0549" fill="#000000" stroke="none" stroke-width="0" stroke-linecap="butt"/><path d="M138.07122,288.39591c0,-4.54017 0.02855,-0.54245 0.11647,-4.19943c0.2412,-10.03455 1.81075,-11.59121 5.28765,-1.63474c0.58935,1.68761 0.56724,1.89334 0.56724,1.89334c0,0 0.41348,-0.56173 0.71212,-1.92809c1.72463,-7.89005 4.54031,-10.1815 7.6468,0.53643c0.28436,0.98109 0.63304,1.48833 0.63304,1.48833c0,0 0.30975,-0.36234 0.54,-1.13556c2.57568,-8.64969 5.33996,-11.81207 5.69728,0.90586c0.12848,4.57282 -0.0405,-0.39848 -0.0405,4.07388c0,5.84322 -4.73686,10.5801 -10.5801,10.5801c-5.84318,0 -10.58007,-4.73686 -10.58007,-10.58007z" fill-opacity="0.0549" fill="#000000" stroke="none" stroke-width="0" stroke-linecap="butt"/></g><path d="M443.56776,152.23777v-48.74495h53.04602v48.74495z" data-paper-data="{&quot;index&quot;:null}" fill="#e7e5cc" stroke="none" stroke-width="0" stroke-linecap="butt"/><path d="M393.21299,90.23978c6.84756,-9.44492 27.12665,-37.41613 27.12665,-37.41613c0,0 -11.15391,-0.24833 -16.66766,-0.37105c-6.73265,-0.14989 -9.90861,-7.67448 -5.52944,-12.79055c8.78452,-10.26273 38.11663,-44.53069 38.11663,-44.53069c0,0 -12.00515,0.14608 -17.21497,0.2095c-6.17454,0.07516 -5.57394,-7.33845 -1.59115,-12.05738c12.03991,-14.26537 31.19414,-36.99655 38.11752,-45.41822c6.6712,-8.11492 17.47469,-6.77441 24.2025,1.2936c7.01243,8.40931 24.53209,29.41904 36.28854,43.51747c4.69872,5.63475 2.70477,13.66961 -4.63161,13.59485c-4.75964,-0.04849 -13.73204,-0.13996 -13.73204,-0.13996c0,0 32.30352,35.94825 41.88392,46.60957c4.65766,5.18318 0.60926,12.69373 -6.35918,12.6796c-5.31629,-0.01077 -15.39307,-0.03121 -15.39307,-0.03121c0,0 18.66181,24.4534 25.52723,33.4495c4.71073,6.17273 4.04459,15.29548 -3.72029,15.29548c-19.40988,0 -103.59639,0 -139.8211,0c-10.26273,0 -6.60247,-13.89439 -6.60247,-13.89439z" data-paper-data="{&quot;index&quot;:null}" fill="#e7e5cc" stroke="none" stroke-width="0" stroke-linecap="butt"/><path d="M71.33184,80.23777v-30.35569h33.03416v30.35569z" data-paper-data="{&quot;index&quot;:null}" fill="#f2f1e4" stroke="none" stroke-width="0" stroke-linecap="butt"/><path d="M39.97364,41.62881c4.26429,-5.88178 16.893,-23.30072 16.893,-23.30072c0,0 -6.94605,-0.15465 -10.37971,-0.23107c-4.19273,-0.09334 -6.17054,-4.77925 -3.44344,-7.96526c5.47052,-6.39106 23.73696,-27.73128 23.73696,-27.73128c0,0 -7.47615,0.09097 -10.72054,0.13047c-3.84517,0.0468 -3.47115,-4.56999 -0.99088,-7.50868c7.4978,-8.88369 19.42601,-23.03943 23.73751,-28.28398c4.15446,-5.05353 10.88228,-4.21874 15.07199,0.80558c4.36696,5.23686 15.27725,18.32057 22.59852,27.1003c2.92611,3.50901 1.68438,8.51269 -2.88431,8.46613c-2.96404,-0.0302 -8.55156,-0.08716 -8.55156,-0.08716c0,0 20.11687,22.3866 26.08302,29.02589c2.90054,3.2278 0.37941,7.90496 -3.96015,7.89616c-3.3107,-0.00671 -9.58597,-0.01943 -9.58597,-0.01943c0,0 11.62155,15.22824 15.89696,20.83052c2.93359,3.84404 2.51875,9.52519 -2.3168,9.52519c-12.08741,0 -64.51417,0 -87.07293,0c-6.39106,0 -4.11166,-8.65267 -4.11166,-8.65267z" data-paper-data="{&quot;index&quot;:null}" fill="#f2f1e4" stroke="none" stroke-width="0" stroke-linecap="butt"/><g fill="#f1efe1" stroke="none" stroke-width="0" stroke-linecap="butt"><path d="M188.87172,76.02841c0,0 -0.85655,-30.00772 0,-49.18285c0.86441,-19.35107 13.66547,-22.43496 13.56768,0c-0.04009,9.19841 0,49.18285 0,49.18285z"/><path d="M200.74345,42.1092v-7.06651c0,0 5.14208,-0.28265 8.4798,-0.28265c2.77715,0 2.26127,-9.61043 2.26127,-9.61043c0,0 2.00323,-3.67459 3.10926,-3.67459c1.05896,0 3.39192,3.67459 3.39192,3.67459c0,0 3.19911,10.17576 -3.39192,14.69832c-2.83785,1.94724 -13.85035,2.26127 -13.85035,2.26127z"/><path d="M180.36877,54.41459c-5.327,-3.65522 -2.74142,-11.87945 -2.74142,-11.87945c0,0 1.88555,-2.96988 2.74142,-2.96988c0.89392,0 2.51295,2.96988 2.51295,2.96988c0,0 -0.41692,7.76735 1.82762,7.76735c2.69762,0 6.85353,0.22844 6.85353,0.22844v5.71129c0,0 -8.9005,-0.25382 -11.1941,-1.82762z" data-paper-data="{&quot;index&quot;:null}"/></g><path d="M228.80006,88.0284c0,0 0.03144,-31.35566 0,-38.56903c-0.07668,-17.59342 9.96186,-15.17505 10.63973,0c0.6717,15.03707 0,38.56903 0,38.56903z" fill="#f1efe1" stroke="none" stroke-width="0" stroke-linecap="butt"/><path d="M230.13004,61.42908c0,0 -8.63596,-0.24626 -10.8614,-1.77328c-5.16867,-3.54658 -2.65993,-11.52638 -2.65993,-11.52638c0,0 1.8295,-2.8816 2.65993,-2.8816c0.86735,0 2.43828,2.8816 2.43828,2.8816c0,0 -0.40455,7.53647 1.77328,7.53647c2.61743,0 6.64983,0.22165 6.64983,0.22165v5.54153z" fill="#f1efe1" stroke="none" stroke-width="0" stroke-linecap="butt"/><g fill-opacity="0.0549" fill="#000000" stroke="none" stroke-width="0" stroke-linecap="butt"><path d="M39.23296,339.31019v-11.5l-19.5,-2.5c0,0 -1.45047,-29.23147 26.50222,-29.76925c26.36019,-0.50715 26.99778,29.26925 26.99778,29.26925l-18.5,3v11.5z"/><path d="M44.54973,314.68421c0,3.58985 -3.13401,6.5 -7,6.5c-3.86599,0 -7,-2.91015 -7,-6.5c0,-3.58985 3.13401,-6.5 7,-6.5c3.86599,0 7,2.91015 7,6.5z"/><path d="M57.88306,302.35087c0,1.933 -2.53705,3.5 -5.66667,3.5c-3.12961,0 -5.66667,-1.567 -5.66667,-3.5c0,-1.933 2.53705,-3.5 5.66667,-3.5c3.12961,0 5.66667,1.567 5.66667,3.5z"/><path d="M57.2164,311.18421c3.12962,0 5.66667,2.38781 5.66667,5.33333c0,2.94552 -2.53706,5.33333 -5.66667,5.33333c-3.12962,0 -5.66667,-2.38781 -5.66667,-5.33333c0,-2.94552 2.53706,-5.33333 5.66667,-5.33333z"/><path d="M40.93592,300.13092c0.55344,1.16377 -1.55863,3.32496 -4.71744,4.82715c-3.15881,1.50219 -6.16818,1.77653 -6.72161,0.61276c-0.55344,-1.16377 1.55863,-3.32496 4.71744,-4.82715c3.15881,-1.50219 6.16818,-1.77653 6.72161,-0.61276z"/><path d="M24.91188,313.38458c1.04442,0.20084 1.44916,2.66176 0.90402,5.49662c-0.54514,2.83486 -1.83374,4.97014 -2.87816,4.7693c-1.04442,-0.20084 -1.44916,-2.66176 -0.90402,-5.49662c0.54514,-2.83486 1.83374,-4.97015 2.87816,-4.76931z"/><path d="M67.77177,312.08596c1.03735,-0.23462 2.39453,1.85775 3.03134,4.67343c0.63681,2.81568 0.3121,5.28843 -0.72525,5.52305c-1.03735,0.23462 -2.39453,-1.85775 -3.03134,-4.67343c-0.63681,-2.81568 -0.3121,-5.28843 0.72525,-5.52305z"/></g><g fill-opacity="0.0549" fill="#000000" stroke="none" stroke-width="0" stroke-linecap="butt"><path d="M89.72427,346.31019v-6.48535l-10.9969,-1.40986c0,0 -0.81798,-16.4849 14.94576,-16.78818c14.86567,-0.286 15.22523,16.50621 15.22523,16.50621l-10.43296,1.69183v6.48535z"/><path d="M92.72263,332.42251c0,2.02447 -1.7674,3.66563 -3.94761,3.66563c-2.1802,0 -3.94761,-1.64116 -3.94761,-3.66563c0,-2.02447 1.7674,-3.66563 3.94761,-3.66563c2.1802,0 3.94761,1.64116 3.94761,3.66563z"/><path d="M100.24188,325.4672c0,1.0901 -1.43075,1.9738 -3.19568,1.9738c-1.76493,0 -3.19568,-0.8837 -3.19568,-1.9738c0,-1.0901 1.43075,-1.9738 3.19568,-1.9738c1.76493,0 3.19568,0.8837 3.19568,1.9738z"/><path d="M99.86592,330.44872c1.76493,0 3.19568,1.34659 3.19568,3.0077c0,1.66111 -1.43075,3.0077 -3.19568,3.0077c-1.76493,0 -3.19568,-1.34659 -3.19568,-3.0077c0,-1.66111 1.43075,-3.0077 3.19568,-3.0077z"/><path d="M90.68464,324.21528c0.31211,0.6563 -0.87898,1.87509 -2.66037,2.72224c-1.78139,0.84715 -3.4785,1.00186 -3.79061,0.34556c-0.31211,-0.6563 0.87898,-1.87509 2.66037,-2.72224c1.78139,-0.84715 3.4785,-1.00186 3.79061,-0.34556z"/><path d="M81.64799,331.6896c0.58899,0.11326 0.81724,1.50108 0.50982,3.09978c-0.30743,1.5987 -1.03413,2.80288 -1.62312,2.68962c-0.58899,-0.11326 -0.81724,-1.50108 -0.50982,-3.09978c0.30743,-1.5987 1.03413,-2.80288 1.62312,-2.68962z"/><path d="M105.81855,330.95725c0.58501,-0.13231 1.35038,1.04767 1.70951,2.63555c0.35913,1.58789 0.17601,2.98238 -0.409,3.11469c-0.58501,0.13231 -1.35038,-1.04767 -1.70951,-2.63555c-0.35913,-1.58789 -0.17601,-2.98238 0.409,-3.11469z"/></g><g fill-opacity="0.0549" fill="#000000" stroke="none" stroke-width="0" stroke-linecap="butt"><path d="M434.22194,332.31018v-9.13608l-15.49161,-1.9861c0,0 -1.15231,-23.2227 21.05447,-23.64994c20.94164,-0.4029 21.44816,23.25272 21.44816,23.25272l-14.69717,2.38333v9.13608z"/><path d="M438.4458,312.74628c0,2.85193 -2.48978,5.16387 -5.56109,5.16387c-3.07131,0 -5.56109,-2.31194 -5.56109,-5.16387c0,-2.85193 2.48978,-5.16387 5.56109,-5.16387c3.07131,0 5.56109,2.31194 5.56109,5.16387z"/><path d="M449.03836,302.94816c0,1.53565 -2.01554,2.78055 -4.50184,2.78055c-2.4863,0 -4.50184,-1.24489 -4.50184,-2.78055c0,-1.53565 2.01554,-2.78055 4.50184,-2.78055c2.4863,0 4.50184,1.24489 4.50184,2.78055z"/><path d="M448.50874,309.96574c2.4863,0 4.50184,1.89698 4.50184,4.23702c0,2.34004 -2.01554,4.23702 -4.50184,4.23702c-2.4863,0 -4.50184,-1.89698 -4.50184,-4.23702c0,-2.34004 2.01554,-4.23702 4.50184,-4.23702z"/><path d="M435.57484,301.18454c0.43968,0.92455 -1.23824,2.64148 -3.74773,3.83489c-2.50949,1.1934 -4.90025,1.41135 -5.33993,0.4868c-0.43968,-0.92455 1.23824,-2.64148 3.74773,-3.83489c2.50949,-1.1934 4.90026,-1.41135 5.33993,-0.4868z"/><path d="M422.84467,311.7138c0.82973,0.15956 1.15127,2.11461 0.71819,4.36674c-0.43308,2.25213 -1.4568,3.94849 -2.28653,3.78894c-0.82973,-0.15956 -1.15127,-2.11461 -0.71819,-4.36674c0.43308,-2.25213 1.4568,-3.94849 2.28653,-3.78894z"/><path d="M456.89436,310.68213c0.82412,-0.18639 1.90232,1.47588 2.40823,3.71277c0.50591,2.23689 0.24795,4.20135 -0.57617,4.38774c-0.82412,0.18639 -1.90232,-1.47588 -2.40823,-3.71277c-0.50591,-2.23689 -0.24795,-4.20135 0.57617,-4.38774z"/></g><g fill-opacity="0.0549" fill="#000000" stroke="none" stroke-width="0" stroke-linecap="butt"><path d="M272.22194,153.31017v-9.13608l-15.49161,-1.9861c0,0 -1.15231,-23.2227 21.05447,-23.64994c20.94164,-0.4029 21.44816,23.25272 21.44816,23.25272l-14.69717,2.38333v9.13608z"/><path d="M276.4458,133.74628c0,2.85193 -2.48978,5.16387 -5.56109,5.16387c-3.07131,0 -5.56109,-2.31194 -5.56109,-5.16387c0,-2.85193 2.48978,-5.16387 5.56109,-5.16387c3.07131,0 5.56109,2.31194 5.56109,5.16387z"/><path d="M287.03836,123.94816c0,1.53565 -2.01554,2.78055 -4.50184,2.78055c-2.4863,0 -4.50184,-1.24489 -4.50184,-2.78055c0,-1.53565 2.01554,-2.78055 4.50184,-2.78055c2.4863,0 4.50184,1.24489 4.50184,2.78055z"/><path d="M286.50874,130.96574c2.4863,0 4.50184,1.89698 4.50184,4.23702c0,2.34004 -2.01554,4.23702 -4.50184,4.23702c-2.4863,0 -4.50184,-1.89698 -4.50184,-4.23702c0,-2.34004 2.01554,-4.23702 4.50184,-4.23702z"/><path d="M273.57484,122.18454c0.43968,0.92455 -1.23824,2.64148 -3.74773,3.83489c-2.50949,1.1934 -4.90025,1.41135 -5.33993,0.4868c-0.43968,-0.92455 1.23824,-2.64148 3.74773,-3.83489c2.50949,-1.1934 4.90026,-1.41135 5.33993,-0.4868z"/><path d="M260.84467,132.7138c0.82973,0.15956 1.15127,2.11461 0.71819,4.36674c-0.43308,2.25213 -1.4568,3.94849 -2.28653,3.78894c-0.82973,-0.15956 -1.15127,-2.11461 -0.71819,-4.36674c0.43308,-2.25213 1.4568,-3.94849 2.28653,-3.78894z"/><path d="M294.89436,131.68213c0.82412,-0.18639 1.90232,1.47588 2.40823,3.71277c0.50591,2.23689 0.24795,4.20135 -0.57617,4.38774c-0.82412,0.18639 -1.90232,-1.47588 -2.40823,-3.71277c-0.50591,-2.23689 -0.24795,-4.20135 0.57617,-4.38774z"/></g><g fill-opacity="0.0549" fill="#000000" stroke="none" stroke-width="0" stroke-linecap="butt"><path d="M232.72427,168.31019v-6.48535l-10.9969,-1.40986c0,0 -0.81798,-16.4849 14.94576,-16.78818c14.86567,-0.286 15.22523,16.50621 15.22523,16.50621l-10.43296,1.69183v6.48535z"/><path d="M235.72263,154.42252c0,2.02447 -1.7674,3.66563 -3.94761,3.66563c-2.1802,0 -3.94761,-1.64116 -3.94761,-3.66563c0,-2.02447 1.7674,-3.66563 3.94761,-3.66563c2.1802,0 3.94761,1.64116 3.94761,3.66563z"/><path d="M243.24188,147.46721c0,1.0901 -1.43075,1.9738 -3.19568,1.9738c-1.76493,0 -3.19568,-0.8837 -3.19568,-1.9738c0,-1.0901 1.43075,-1.9738 3.19568,-1.9738c1.76493,0 3.19568,0.8837 3.19568,1.9738z"/><path d="M242.86591,152.44872c1.76493,0 3.19568,1.34659 3.19568,3.0077c0,1.66111 -1.43075,3.0077 -3.19568,3.0077c-1.76493,0 -3.19568,-1.34659 -3.19568,-3.0077c0,-1.66111 1.43075,-3.0077 3.19568,-3.0077z"/><path d="M233.68465,146.21528c0.31211,0.6563 -0.87898,1.87509 -2.66037,2.72224c-1.78139,0.84715 -3.4785,1.00186 -3.79061,0.34556c-0.31211,-0.6563 0.87898,-1.87509 2.66037,-2.72224c1.78139,-0.84715 3.4785,-1.00186 3.79061,-0.34556z"/><path d="M224.64799,153.6896c0.58899,0.11326 0.81724,1.50108 0.50982,3.09978c-0.30743,1.5987 -1.03413,2.80288 -1.62312,2.68962c-0.58899,-0.11326 -0.81724,-1.50108 -0.50982,-3.09978c0.30743,-1.5987 1.03413,-2.80288 1.62312,-2.68962z"/><path d="M248.81854,152.95726c0.58501,-0.13231 1.35038,1.04767 1.70951,2.63555c0.35913,1.58789 0.17601,2.98238 -0.409,3.11469c-0.58501,0.13231 -1.35038,-1.04767 -1.70951,-2.63555c-0.35913,-1.58789 -0.17601,-2.98238 0.409,-3.11469z"/></g><path d="M341.68194,143.13921v-89.1212h10.30304v89.1212z" fill="#e8e6ce" stroke="none" stroke-width="0" stroke-linecap="butt"/><path d="M318.50009,40.62407c0,-15.64807 12.68528,-28.33334 28.33334,-28.33334c15.64807,0 28.33333,12.68526 28.33333,28.33334c0,15.64807 -12.68526,28.33333 -28.33333,28.33333c-15.64807,0 -28.33334,-12.68526 -28.33334,-28.33333z" fill="#e8e6ce" stroke="none" stroke-width="0" stroke-linecap="butt"/><path d="M354.00414,27.41267l5.62263,5.62263l-15.29354,15.29352l3.59848,3.59848l-13.26938,0.67471l0.67471,-13.26938l3.37357,3.37357z" fill-opacity="0.10588" fill="#000000" stroke="none" stroke-width="0" stroke-linecap="butt"/><path d="M323.65164,40.81723c0,-12.69628 10.29236,-22.98864 22.98864,-22.98864c12.69628,0 22.98864,10.29236 22.98864,22.98864c0,12.69628 -10.29236,22.98864 -22.98864,22.98864c-12.69628,0 -22.98864,-10.29236 -22.98864,-22.98864z" fill="none" stroke-opacity="0.05098" stroke="#000000" stroke-width="2.5" stroke-linecap="butt"/><g stroke="none" stroke-width="0" stroke-linecap="butt"><path d="M317.50029,229.89048v-53.27467c0,0 5.82374,-9.22093 7.82089,-12.38308c1.4395,-2.27921 4.50917,-2.39534 5.94369,-0.11299c1.98523,3.15855 7.85413,12.49607 7.85413,12.49607v53.27467z" fill="#dddab5"/><path d="M320.66065,186.77413c0,-1.3714 1.11173,-2.48315 2.48314,-2.48315c1.3714,0 2.48315,1.11175 2.48315,2.48315c0,1.3714 -1.11175,2.48314 -2.48315,2.48314c-1.3714,0 -2.48314,-1.11173 -2.48314,-2.48314z" fill-opacity="0.09804" fill="#000000"/><path d="M331.0447,186.77413c0,-1.3714 1.11173,-2.48315 2.48314,-2.48315c1.3714,0 2.48315,1.11175 2.48315,2.48315c0,1.3714 -1.11175,2.48314 -2.48315,2.48314c-1.3714,0 -2.48314,-1.11173 -2.48314,-2.48314z" fill-opacity="0.09804" fill="#000000"/><path d="M339.17134,229.89048v-53.27467c0,0 5.82374,-9.22093 7.82089,-12.38308c1.4395,-2.27921 4.50918,-2.39534 5.9437,-0.11299c1.98523,3.15855 7.85413,12.49607 7.85413,12.49607v53.27467z" fill="#dddab5"/><path d="M342.33171,186.77413c0,-1.3714 1.11173,-2.48315 2.48314,-2.48315c1.3714,0 2.48315,1.11175 2.48315,2.48315c0,1.3714 -1.11175,2.48314 -2.48315,2.48314c-1.3714,0 -2.48314,-1.11173 -2.48314,-2.48314z" fill-opacity="0.09804" fill="#000000"/><path d="M352.71575,186.77413c0,-1.3714 1.11173,-2.48315 2.48314,-2.48315c1.3714,0 2.48315,1.11175 2.48315,2.48315c0,1.3714 -1.11175,2.48314 -2.48315,2.48314c-1.3714,0 -2.48314,-1.11173 -2.48314,-2.48314z" fill-opacity="0.09804" fill="#000000"/><path d="M295.82924,229.89048v-53.27467c0,0 5.82374,-9.22093 7.82089,-12.38308c1.4395,-2.27921 4.50917,-2.39534 5.94369,-0.11299c1.98523,3.15855 7.85413,12.49607 7.85413,12.49607v53.27467z" fill="#dddab5"/><path d="M298.9896,186.77413c0,-1.3714 1.11173,-2.48315 2.48314,-2.48315c1.3714,0 2.48315,1.11175 2.48315,2.48315c0,1.3714 -1.11175,2.48314 -2.48315,2.48314c-1.3714,0 -2.48314,-1.11173 -2.48314,-2.48314z" fill-opacity="0.09804" fill="#000000"/><path d="M309.37365,186.77413c0,-1.3714 1.11173,-2.48315 2.48314,-2.48315c1.3714,0 2.48315,1.11175 2.48315,2.48315c0,1.3714 -1.11175,2.48314 -2.48315,2.48314c-1.3714,0 -2.48314,-1.11173 -2.48314,-2.48314z" fill-opacity="0.09804" fill="#000000"/><path d="M360.83263,229.89048v-53.27467c0,0 5.82374,-9.22093 7.82089,-12.38308c1.4395,-2.27921 4.50917,-2.39534 5.94369,-0.11299c1.98523,3.15855 7.85413,12.49607 7.85413,12.49607v53.27467z" fill="#dddab5"/><path d="M363.993,186.77413c0,-1.3714 1.11173,-2.48315 2.48314,-2.48315c1.3714,0 2.48315,1.11175 2.48315,2.48315c0,1.3714 -1.11175,2.48314 -2.48315,2.48314c-1.3714,0 -2.48314,-1.11173 -2.48314,-2.48314z" fill-opacity="0.09804" fill="#000000"/><path d="M374.37705,186.77413c0,-1.3714 1.11173,-2.48315 2.48314,-2.48315c1.3714,0 2.48315,1.11175 2.48315,2.48315c0,1.3714 -1.11175,2.48314 -2.48315,2.48314c-1.3714,0 -2.48314,-1.11173 -2.48314,-2.48314z" fill-opacity="0.09804" fill="#000000"/><path d="M-5.99971,230.39048v-53.27467c0,0 5.82374,-9.22094 7.82089,-12.38309c1.4395,-2.27921 4.50917,-2.39533 5.94369,-0.11299c1.98523,3.15855 7.85413,12.49608 7.85413,12.49608v53.27467z" fill="#dddab5"/><path d="M-2.83936,187.27413c0,-1.3714 1.11174,-2.48315 2.48314,-2.48315c1.3714,0 2.48315,1.11174 2.48315,2.48315c0,1.3714 -1.11175,2.48314 -2.48315,2.48314c-1.3714,0 -2.48314,-1.11174 -2.48314,-2.48314z" fill-opacity="0.09804" fill="#000000"/><path d="M7.5447,187.27413c0,-1.3714 1.11174,-2.48315 2.48314,-2.48315c1.3714,0 2.48314,1.11174 2.48314,2.48315c0,1.3714 -1.11174,2.48314 -2.48314,2.48314c-1.3714,0 -2.48314,-1.11174 -2.48314,-2.48314z" fill-opacity="0.09804" fill="#000000"/><path d="M15.67134,230.39048v-53.27467c0,0 5.82373,-9.22094 7.82088,-12.38309c1.4395,-2.27921 4.50918,-2.39533 5.9437,-0.11299c1.98523,3.15855 7.85413,12.49608 7.85413,12.49608v53.27467z" fill="#dddab5"/><path d="M18.83171,187.27413c0,-1.3714 1.11174,-2.48315 2.48314,-2.48315c1.3714,0 2.48314,1.11174 2.48314,2.48315c0,1.3714 -1.11174,2.48314 -2.48314,2.48314c-1.3714,0 -2.48314,-1.11174 -2.48314,-2.48314z" fill-opacity="0.09804" fill="#000000"/><path d="M29.21576,187.27413c0,-1.3714 1.11173,-2.48315 2.48313,-2.48315c1.3714,0 2.48315,1.11174 2.48315,2.48315c0,1.3714 -1.11175,2.48314 -2.48315,2.48314c-1.3714,0 -2.48313,-1.11174 -2.48313,-2.48314z" fill-opacity="0.09804" fill="#000000"/><path d="M-27.67077,230.39048v-53.27467c0,0 5.82374,-9.22094 7.82089,-12.38309c1.4395,-2.27921 4.50917,-2.39533 5.94369,-0.11299c1.98523,3.15855 7.85414,12.49608 7.85414,12.49608v53.27467z" fill="#774993"/><path d="M-24.5104,187.27413c0,-1.3714 1.11174,-2.48315 2.48314,-2.48315c1.3714,0 2.48315,1.11174 2.48315,2.48315c0,1.3714 -1.11175,2.48314 -2.48315,2.48314c-1.3714,0 -2.48314,-1.11174 -2.48314,-2.48314z" fill-opacity="0.09804" fill="#000000"/><path d="M-14.12635,187.27413c0,-1.3714 1.11174,-2.48315 2.48314,-2.48315c1.3714,0 2.48315,1.11174 2.48315,2.48315c0,1.3714 -1.11175,2.48314 -2.48315,2.48314c-1.3714,0 -2.48314,-1.11174 -2.48314,-2.48314z" fill-opacity="0.09804" fill="#000000"/><path d="M37.33263,230.39048v-53.27467c0,0 5.82374,-9.22094 7.82089,-12.38309c1.4395,-2.27921 4.50917,-2.39533 5.94369,-0.11299c1.98523,3.15855 7.85414,12.49608 7.85414,12.49608v53.27467z" fill="#dddab5"/><path d="M40.493,187.27413c0,-1.3714 1.11174,-2.48315 2.48314,-2.48315c1.3714,0 2.48315,1.11174 2.48315,2.48315c0,1.3714 -1.11175,2.48314 -2.48315,2.48314c-1.3714,0 -2.48314,-1.11174 -2.48314,-2.48314z" fill-opacity="0.09804" fill="#000000"/><path d="M50.87704,187.27413c0,-1.3714 1.11174,-2.48315 2.48314,-2.48315c1.3714,0 2.48315,1.11174 2.48315,2.48315c0,1.3714 -1.11175,2.48314 -2.48315,2.48314c-1.3714,0 -2.48314,-1.11174 -2.48314,-2.48314z" fill-opacity="0.09804" fill="#000000"/></g><path d="M184.23555,363.63949c0,0 75.30121,-97.94607 61.77328,-135.94699c-7.71687,-21.67725 -69.58365,-26.82101 -90.47134,-56.71631c-36.55601,-52.32041 47.69806,-105.35035 47.69806,-105.35035l18,0.06531c0,0 -76.36195,43.44598 -36.58184,90.99666c26.07678,31.17057 86.92548,34.5095 97.73055,58.99246c18.86249,42.74009 -33.14871,147.95925 -33.14871,147.95925z" data-paper-data="{&quot;index&quot;:null}" fill-opacity="0.0549" fill="#000000" stroke="none" stroke-width="0" stroke-linecap="butt"/><path d="M-10.65455,230.1642c15.58868,-4.95586 21.32862,3.68642 21.32862,3.68642c0,0 6.79221,-18.43215 21.59196,-17.6422c15.96229,0.85201 22.90852,10.26933 22.90852,10.26933c0,0 7.17651,-18.16883 24.48843,-17.37888c17.16242,0.78312 22.11858,17.37888 22.11858,17.37888c0,0 18.96494,-4.412 27.37929,2.23092c8.41436,6.64292 15.80459,26.20726 15.80459,26.20726l-167.15389,0.06759c0,0 1.97098,-21.39622 11.53391,-24.81932z" data-paper-data="{&quot;index&quot;:null}" fill="#dad7ae" stroke="none" stroke-width="0" stroke-linecap="butt"/><path d="M217.0871,223.12033c12.44358,0 19.88038,13.3056 19.88038,22.0893c0,8.78371 -16.27253,13.25359 -28.71611,13.25359c-12.44358,0 -22.5311,-7.1206 -22.5311,-15.9043c0,-8.78371 18.92324,-19.43859 31.36682,-19.43859z" data-paper-data="{&quot;index&quot;:null}" fill="#d9d6ad" stroke="none" stroke-width="0" stroke-linecap="butt"/><path d="M175.53308,218.04653c7.89452,3.85098 35.39216,19.74065 30.89935,28.95092c-4.49282,9.21027 -30.43904,15.32197 -38.33355,11.47099c-7.89452,-3.85098 -54.6331,3.61781 -50.14029,-5.59246c4.49282,-9.21027 49.67997,-38.68043 57.57449,-34.82945z" data-paper-data="{&quot;index&quot;:null}" fill="#d9d6ad" stroke="none" stroke-width="0" stroke-linecap="butt"/><path d="M425.49671,361.21213c4.17673,13.50855 -39.27366,2.5542 -46.61277,8.20237c-7.33911,5.64817 -31.45993,-3.31576 -35.63666,-16.82431c-4.17673,-13.50855 21.38637,-36.81367 28.72549,-42.46183c7.33911,-5.64817 49.34721,37.57522 53.52394,51.08377z" data-paper-data="{&quot;index&quot;:null}" fill="#cdc990" stroke="none" stroke-width="0" stroke-linecap="butt"/><path d="M335.591,343.46456c13.32362,0 24.12454,4.39234 24.12454,9.81056c0,5.41822 -6.44909,15.03547 -19.77269,15.03547c-13.32361,0 -34.27882,-0.03824 -34.27882,-5.45646c0,-5.41822 16.60338,-19.38957 29.92699,-19.38957z" data-paper-data="{&quot;index&quot;:null}" fill="#cdc990" stroke="none" stroke-width="0" stroke-linecap="butt"/></g></g></svg>