<svg version="1.1" xmlns="http://www.w3.org/2000/svg" xmlns:xlink="http://www.w3.org/1999/xlink" width="484" height="32" viewBox="0,0,484,32"><g transform="translate(3,0.88353)"><g data-paper-data="{&quot;isPaintingLayer&quot;:true}" fill-rule="nonzero" stroke="none" stroke-linejoin="miter" stroke-miterlimit="10" stroke-dasharray="" stroke-dashoffset="0" style="mix-blend-mode: normal"><path d="M457.33036,8.00417c1.17629,0 2.23628,0.28909 3.17997,0.86726c0.94369,0.57818 1.68136,1.3956 2.21302,2.45226c0.5383,1.05667 0.80745,2.28944 0.80745,3.69833c0,1.85415 -0.45855,3.58203 -1.37566,5.18364c-0.91711,1.59497 -2.17314,2.90085 -3.76811,3.91764c-1.58832,1.01015 -3.33614,1.59164 -5.24345,1.7445l-0.17943,-0.91711c1.90732,-0.56488 3.40924,-1.40889 4.50578,-2.53201c1.09654,-1.12312 1.76443,-2.50875 2.00368,-4.15688c-1.24274,0.75096 -2.54198,1.12645 -3.8977,1.12645c-0.95698,0 -1.8176,-0.21598 -2.58185,-0.64796c-0.76425,-0.43862 -1.36569,-1.03673 -1.80431,-1.79434c-0.43197,-0.75761 -0.64796,-1.62155 -0.64796,-2.59182c0,-1.08325 0.29241,-2.11333 0.87723,-3.09025c0.59147,-0.98356 1.40556,-1.77108 2.44229,-2.36254c1.03673,-0.59811 2.19308,-0.89717 3.46905,-0.89717zM454.22018,12.03146c0,1.3823 0.47517,2.48217 1.4255,3.29959c0.95698,0.81742 2.26618,1.28594 3.92761,1.40556c-0.01329,-1.24274 -0.2326,-2.36919 -0.65792,-3.37934c-0.42532,-1.01679 -1.01015,-1.83421 -1.75446,-2.45226c-0.73767,-0.62469 -1.58167,-0.98689 -2.53201,-1.08657c-0.27247,0.74432 -0.40871,1.48199 -0.40871,2.21302z" fill="#ffece6" stroke-width="1" stroke-linecap="square"/><path d="M-3,31.11647v-32h484v32z" fill="none" stroke-width="0" stroke-linecap="butt"/></g></g></svg>