<svg version="1.1" xmlns="http://www.w3.org/2000/svg" xmlns:xlink="http://www.w3.org/1999/xlink" width="537.26654" height="458.95211" viewBox="0,0,537.26654,458.95211"><defs><linearGradient x1="237.37644" y1="-9.18835" x2="237.37644" y2="196.97617" gradientUnits="userSpaceOnUse" id="color-1"><stop offset="0" stop-color="#68b063"/><stop offset="1" stop-color="#54937a"/></linearGradient><linearGradient x1="236.37948" y1="73.78623" x2="236.37948" y2="390.99291" gradientUnits="userSpaceOnUse" id="color-2"><stop offset="0" stop-color="#5b9a56"/><stop offset="1" stop-color="#3b665a"/></linearGradient></defs><g transform="translate(56.27248,86.82576)"><g data-paper-data="{&quot;isPaintingLayer&quot;:true}" fill-rule="nonzero" stroke-linejoin="miter" stroke-miterlimit="10" stroke-dasharray="" stroke-dashoffset="0" style="mix-blend-mode: normal"><path d="M-6.24117,196.97617v-206.16451l487.23523,1.60764v204.55686z" data-paper-data="{&quot;index&quot;:null}" fill="url(#color-1)" stroke="none" stroke-width="NaN" stroke-linecap="butt"/><path d="M-7.23816,372.12636v-268.68631c0,0 12.79648,13.2016 31.55143,16.58738c29.6139,5.34612 16.31355,-6.79255 40.94671,0.00885c11.11517,3.06898 45.80477,10.25829 69.14676,9.77759c28.19877,-0.58073 28.97003,-36.97445 55.48773,-38.40053c47.17961,-2.53723 44.32837,12.82768 65.94945,12.82768c7.08121,0 28.52165,-3.40009 44.51519,-9.47667c22.70419,-8.62623 43.5778,-20.85357 75.5234,-20.9777c21.11863,-0.08206 39.18986,14.41641 57.90211,20.81899c24.04316,8.2266 46.21245,8.83441 46.21245,8.83441v268.68631z" data-paper-data="{&quot;index&quot;:null}" fill="url(#color-2)" stroke="none" stroke-width="NaN" stroke-linecap="butt"/><g fill="none" stroke="#4f8657" stroke-width="20" stroke-linecap="round"><path d="M355.22752,150.95358v33.5"/><path d="M371.22752,181.45358v-44.5"/><path d="M385.72752,180.95356v-41.5"/><path d="M400.72752,177.95356v-47.5"/><path d="M414.72752,141.45358v38"/><path d="M428.22752,159.45358v25"/><path d="M342.72752,187.45356v-10.5"/></g><path d="M80.2588,369.63951c0,0 -2.0112,-87.26799 16.85129,-122.05507c10.80507,-19.92721 111.65377,-15.64484 137.73055,-41.01524c39.78011,-38.70252 -2.58184,-109.87806 -2.58184,-109.87806l28,10.01645c0,0 40.25407,68.90653 3.69806,111.49124c-20.88769,24.33243 -122.75447,21.51905 -130.47134,39.16263c-13.52793,30.92977 11.77328,112.27803 11.77328,112.27803z" fill-opacity="0.0549" fill="#000000" stroke="none" stroke-width="0" stroke-linecap="butt"/><path d="M270.35576,103.43881c0,0 -21.17279,-32.80033 -20.17293,-51.52974c0.08208,-1.53762 -80.31116,-3.84837 -117.31463,-16.16578c-36.03222,-11.99413 -25.88555,-31.91277 -25.88555,-31.91277l14.88631,-0.96888c0,0 -2.99237,20.91235 21.46196,28.1702c36.38876,10.79991 110.99103,13.52398 113.43965,12.73179c14.4799,-4.6846 45.22232,-12.42876 55.94656,-20.76201c8.03402,-6.24284 12.75711,-23.92482 15.50435,-40.58097c1.41057,-8.55213 55.06009,-14.76178 55.60959,-23.33116c1.42401,-22.2076 -52.19644,-43.47572 -52.19644,-43.47572l11.15863,-2.43953c0,0 57.86823,22.83317 56.73746,49.35069c-0.2675,6.27312 -58.29269,16.737 -58.7272,22.5848c-1.59801,21.50644 -3.39396,33.04834 -12.06583,41.11668c-8.82997,8.21544 -40.15789,16.25105 -55.2518,21.29094c-5.41482,1.80801 -4.44986,0.16584 -5.62015,2.30288c-7.77029,14.18922 22.94212,47.99091 22.94212,47.99091z" fill-opacity="0.06667" fill="#000000" stroke="none" stroke-width="0" stroke-linecap="butt"/><g data-paper-data="{&quot;index&quot;:null}" fill="none" stroke="#477959" stroke-width="20" stroke-linecap="round"><path d="M356.49067,262.71673v-19.39474"/><path d="M347.22751,260.97988v-25.76315"/><path d="M338.83279,260.69041v-24.02632"/><path d="M330.14856,231.45356v27.5"/><path d="M322.0433,259.82201v-22"/><path d="M314.22749,248.24305v14.47369"/><path d="M363.7275,264.45356v-6.07895"/></g><g data-paper-data="{&quot;index&quot;:null}" fill="none" stroke="#4d8358" stroke-width="20" stroke-linecap="round"><path d="M183.72752,169.95356v33.5"/><path d="M167.72752,200.45356v-44.5"/><path d="M153.22752,199.95356v-41.5"/><path d="M138.22752,149.45358v47.5"/><path d="M124.22752,198.45358v-38"/><path d="M110.72752,203.45356v-25"/><path d="M196.22752,195.95356v10.5"/></g><g data-paper-data="{&quot;index&quot;:null}" fill="none" stroke="#467759" stroke-width="20" stroke-linecap="round"><path d="M26.72752,266.45358v-33.5"/><path d="M10.72752,218.95358v44.5"/><path d="M-3.77248,262.95356v-41.5"/><path d="M-18.77248,212.45356v47.5"/><path d="M-32.77248,261.45356v-38"/><path d="M-46.27248,266.45356v-25"/><path d="M39.22752,258.95356v10.5"/></g><g data-paper-data="{&quot;index&quot;:null}" fill="none" stroke="#5d9f66" stroke-width="20" stroke-linecap="round"><path d="M401.46434,33.32199v19.39474"/><path d="M410.7275,50.97987v-25.76315"/><path d="M419.12222,50.69041v-24.02632"/><path d="M427.80644,21.45356v27.5"/><path d="M435.9117,27.82198v22"/><path d="M443.7275,38.24304v14.47369"/><path d="M394.22751,48.37463v6.07895"/></g><g><path d="M65.7497,183.63093c2.38801,2.73578 2.94827,6.15433 1.25138,7.63551c-1.69689,1.48115 -5.00837,0.46408 -7.39638,-2.27173c-2.38801,-2.73578 -2.94824,-6.15434 -1.25135,-7.63551c1.69689,-1.48115 5.00834,-0.46408 7.39635,2.27173z" fill-opacity="0.0549" fill="#000000" stroke="none" stroke-width="0" stroke-linecap="butt"/><path d="M66.397,190.17349v-17.81148" fill="#47794f" stroke-opacity="0.0549" stroke="#000000" stroke-width="3.5" stroke-linecap="round"/><path d="M74.68393,175.98121c1.69689,1.48115 1.13664,4.8997 -1.25135,7.63548c-2.38801,2.73578 -5.69947,3.7529 -7.39639,2.27173c-1.69689,-1.48115 -1.13664,-4.89972 1.25138,-7.63551c2.38801,-2.73578 5.69946,-3.75288 7.39636,-2.27173z" data-paper-data="{&quot;index&quot;:null}" fill-opacity="0.0549" fill="#000000" stroke="none" stroke-width="0" stroke-linecap="butt"/><path d="M57.94584,163.1361c0,-3.72551 0.02343,-0.44512 0.09557,-3.44591c0.19792,-8.23402 1.48584,-9.51136 4.33887,-1.34141c0.4836,1.3848 0.46546,1.55361 0.46546,1.55361c0,0 0.33929,-0.46094 0.58434,-1.58213c1.41517,-6.47431 3.72563,-8.3546 6.27471,0.44018c0.23334,0.80505 0.51945,1.22127 0.51945,1.22127c0,0 0.25417,-0.29732 0.44311,-0.9318c2.11352,-7.09765 4.38179,-9.69259 4.675,0.74332c0.10543,3.7523 -0.03323,-0.32698 -0.03323,3.34289c0,4.79475 -3.88691,8.68168 -8.68168,8.68168c-4.79472,0 -8.68165,-3.88691 -8.68165,-8.68165z" fill-opacity="0.0549" fill="#000000" stroke="none" stroke-width="0" stroke-linecap="butt"/></g><g><path d="M403.74972,243.63093c2.38802,2.73578 2.94827,6.15434 1.25138,7.63551c-1.6969,1.48115 -5.00836,0.46408 -7.39638,-2.27173c-2.38802,-2.73578 -2.94825,-6.15434 -1.25135,-7.63551c1.6969,-1.48115 5.00834,-0.46408 7.39636,2.27173z" fill-opacity="0.0549" fill="#000000" stroke="none" stroke-width="0" stroke-linecap="butt"/><path d="M404.39702,232.36202v17.81147" fill="#41714f" stroke-opacity="0.0549" stroke="#000000" stroke-width="3.5" stroke-linecap="round"/><path d="M412.68393,235.98121c1.6969,1.48115 1.13664,4.8997 -1.25135,7.63548c-2.38802,2.73578 -5.69946,3.7529 -7.39638,2.27173c-1.6969,-1.48115 -1.13664,-4.89972 1.25138,-7.63551c2.38802,-2.73578 5.69946,-3.75287 7.39636,-2.27173z" data-paper-data="{&quot;index&quot;:null}" fill-opacity="0.0549" fill="#000000" stroke="none" stroke-width="0" stroke-linecap="butt"/><path d="M395.94585,223.13611c0,-3.72551 0.02343,-0.44512 0.09557,-3.44592c0.19791,-8.23402 1.48584,-9.51136 4.33887,-1.3414c0.4836,1.3848 0.46546,1.55362 0.46546,1.55362c0,0 0.33929,-0.46095 0.58434,-1.58214c1.41518,-6.47431 3.72563,-8.3546 6.27472,0.44018c0.23333,0.80505 0.51944,1.22128 0.51944,1.22128c0,0 0.25418,-0.29732 0.44311,-0.9318c2.11352,-7.09765 4.38179,-9.69259 4.675,0.74332c0.10543,3.7523 -0.03324,-0.32697 -0.03324,3.3429c0,4.79475 -3.8869,8.68167 -8.68167,8.68167c-4.79472,0 -8.68165,-3.8869 -8.68165,-8.68165z" fill-opacity="0.0549" fill="#000000" stroke="none" stroke-width="0" stroke-linecap="butt"/><path d="M423.05635,248.90313c1.56323,1.79089 1.92999,4.02873 0.81917,4.99833c-1.11082,0.96959 -3.27856,0.30379 -4.84179,-1.48711c-1.56323,-1.79089 -1.92997,-4.02873 -0.81915,-4.99833c1.11082,-0.96959 3.27854,-0.30379 4.84178,1.48711z" data-paper-data="{&quot;index&quot;:null}" fill-opacity="0.0549" fill="#000000" stroke="none" stroke-width="0" stroke-linecap="butt"/><path d="M423.48009,253.18603v-11.65969" data-paper-data="{&quot;index&quot;:null}" fill="#41714f" stroke-opacity="0.0549" stroke="#000000" stroke-width="3.5" stroke-linecap="round"/><path d="M417.9478,235.48688c0,-2.43878 0.01534,-0.29138 0.06256,-2.25575c0.12956,-5.39013 0.97266,-6.2263 2.8403,-0.87811c0.31657,0.90651 0.3047,1.01702 0.3047,1.01702c0,0 0.2221,-0.30174 0.38252,-1.03569c0.9264,-4.23819 2.43886,-5.46906 4.10753,0.28815c0.15274,0.527 0.34004,0.79947 0.34004,0.79947c0,0 0.16639,-0.19463 0.29007,-0.60997c1.38355,-4.64624 2.86839,-6.34493 3.06033,0.48659c0.06902,2.45632 -0.02176,-0.21404 -0.02176,2.18831c0,3.13872 -2.54443,5.68317 -5.68317,5.68317c-3.1387,0 -5.68315,-2.54443 -5.68315,-5.68315z" data-paper-data="{&quot;index&quot;:null}" fill-opacity="0.0549" fill="#000000" stroke="none" stroke-width="0" stroke-linecap="butt"/></g><g data-paper-data="{&quot;index&quot;:null}"><path d="M329.98447,81.63091c2.38802,-2.73581 5.69946,-3.75288 7.39636,-2.27173c1.6969,1.48117 1.13667,4.89973 -1.25135,7.63551c-2.38802,2.73581 -5.69948,3.75288 -7.39638,2.27173c-1.69689,-1.48117 -1.13664,-4.89973 1.25138,-7.63551z" fill="#599756" stroke="none" stroke-width="0" stroke-linecap="butt"/><path d="M329.33718,70.36201v17.81147" fill="#487c58" stroke="#599756" stroke-width="3.5" stroke-linecap="round"/><path d="M321.05026,73.98116c1.6969,-1.48114 5.00834,-0.46405 7.39636,2.27173c2.38802,2.73579 2.94828,6.15436 1.25138,7.63551c-1.69692,1.48117 -5.00836,0.46405 -7.39638,-2.27173c-2.38799,-2.73578 -2.94825,-6.15433 -1.25135,-7.63548z" data-paper-data="{&quot;index&quot;:null}" fill="#599756" stroke="none" stroke-width="0" stroke-linecap="butt"/><path d="M337.78841,61.13617c0,4.79475 -3.88693,8.68165 -8.68165,8.68165c-4.79477,0 -8.68167,-3.88692 -8.68167,-8.68167c0,-3.66987 -0.13867,0.4094 -0.03324,-3.3429c0.29321,-10.43591 2.56148,-7.84097 4.675,-0.74332c0.18893,0.63448 0.44311,0.9318 0.44311,0.9318c0,0 0.28611,-0.41623 0.51944,-1.22128c2.54909,-8.79478 4.85954,-6.91449 6.27472,-0.44018c0.24505,1.12119 0.58434,1.58214 0.58434,1.58214c0,0 -0.01814,-0.16882 0.46546,-1.55362c2.85303,-8.16996 4.14096,-6.89262 4.33887,1.3414c0.07214,3.0008 0.09557,-0.27959 0.09557,3.44592z" fill="#599756" stroke="none" stroke-width="0" stroke-linecap="butt"/><path d="M310.67785,86.90312c1.56324,-1.7909 3.73096,-2.4567 4.84178,-1.48711c1.11082,0.9696 0.74408,3.20744 -0.81915,4.99833c-1.56323,1.7909 -3.73097,2.4567 -4.84179,1.48711c-1.11082,-0.9696 -0.74406,-3.20744 0.81917,-4.99833z" data-paper-data="{&quot;index&quot;:null}" fill="#599756" stroke="none" stroke-width="0" stroke-linecap="butt"/><path d="M310.25412,79.5263v11.65969" data-paper-data="{&quot;index&quot;:null}" fill="#487c58" stroke="#599756" stroke-width="3.5" stroke-linecap="round"/><path d="M315.78643,73.48691c0,3.13872 -2.54445,5.68315 -5.68315,5.68315c-3.13874,0 -5.68317,-2.54445 -5.68317,-5.68317c0,-2.40235 -0.09078,0.26801 -0.02176,-2.18831c0.19194,-6.83152 1.67678,-5.13283 3.06033,-0.48659c0.12368,0.41534 0.29007,0.60997 0.29007,0.60997c0,0 0.1873,-0.27247 0.34004,-0.79947c1.66867,-5.75721 3.18113,-4.52634 4.10753,-0.28815c0.16042,0.73395 0.38252,1.03569 0.38252,1.03569c0,0 -0.01187,-0.11051 0.3047,-1.01702c1.86764,-5.34819 2.71074,-4.51202 2.8403,0.87811c0.04722,1.96437 0.06256,-0.18303 0.06256,2.25575z" data-paper-data="{&quot;index&quot;:null}" fill="#599756" stroke="none" stroke-width="0" stroke-linecap="butt"/></g><path d="M8.2528,122.5716c0,0 4.38131,-28.35724 4.96346,-47.85929c0.86127,-28.85241 -0.29679,-108.47404 -0.29679,-108.47404h32.66667c0,0 -1.12358,80.77672 -0.262,109.63967c0.5723,19.17202 4.92867,46.69368 4.92867,46.69368z" fill="#569156" stroke="none" stroke-width="0" stroke-linecap="butt"/><g data-paper-data="{&quot;index&quot;:null}"><path d="M205.27333,292.1629c3.16086,-3.6212 7.54398,-4.96743 9.79005,-3.00693c2.24607,1.96052 1.50453,6.48544 -1.65633,10.1066c-3.16086,3.6212 -7.54401,4.96743 -9.79008,3.00693c-2.24606,-1.96052 -1.50449,-6.48544 1.65637,-10.1066z" fill-opacity="0.0549" fill="#000000" stroke="none" stroke-width="0" stroke-linecap="butt"/><path d="M204.41656,300.82284v-23.57582" fill="#41714f" stroke-opacity="0.0549" stroke="#000000" stroke-width="3.5" stroke-linecap="round"/><path d="M193.44772,282.03743c2.24607,-1.96048 6.6292,-0.61423 9.79005,3.00693c3.16086,3.62118 3.90244,8.1461 1.65637,10.1066c-2.2461,1.96052 -6.62922,0.61423 -9.79008,-3.00693c-3.16082,-3.62116 -3.9024,-8.14606 -1.65633,-10.10656z" data-paper-data="{&quot;index&quot;:null}" fill-opacity="0.0549" fill="#000000" stroke="none" stroke-width="0" stroke-linecap="butt"/><path d="M215.60286,265.03542c0,6.34648 -5.14486,11.4913 -11.4913,11.4913c-6.34651,0 -11.49133,-5.14485 -11.49133,-11.49133c0,-4.85755 -0.18355,0.54189 -0.044,-4.42477c0.3881,-13.8133 3.39045,-10.37855 6.18798,-0.98388c0.25007,0.83982 0.58651,1.23336 0.58651,1.23336c0,0 0.3787,-0.55094 0.68755,-1.61652c3.37406,-11.64105 6.43224,-9.15223 8.30542,-0.58264c0.32436,1.48404 0.77345,2.09417 0.77345,2.09417c0,0 -0.02401,-0.22346 0.6161,-2.05642c3.77636,-10.81401 5.4811,-9.12329 5.74306,1.77552c0.09549,3.97195 0.1265,-0.37007 0.1265,4.56113z" fill-opacity="0.0549" fill="#000000" stroke="none" stroke-width="0" stroke-linecap="butt"/><path d="M179.71847,299.14135c2.06915,-2.37049 4.93842,-3.25176 6.40873,-1.96839c1.47032,1.28339 0.98489,4.24547 -1.08425,6.61595c-2.06914,2.37049 -4.93843,3.25176 -6.40874,1.96839c-1.47032,-1.28339 -0.98486,-4.24547 1.08428,-6.61595z" data-paper-data="{&quot;index&quot;:null}" fill-opacity="0.0549" fill="#000000" stroke="none" stroke-width="0" stroke-linecap="butt"/><path d="M179.15761,304.8103v-15.43313" data-paper-data="{&quot;index&quot;:null}" fill="#41714f" stroke-opacity="0.0549" stroke="#000000" stroke-width="3.5" stroke-linecap="round"/><path d="M186.48035,281.38325c0,4.15451 -3.36791,7.52239 -7.52239,7.52239c-4.15453,0 -7.52242,-3.36791 -7.52242,-7.52242c0,-3.17983 -0.12016,0.35475 -0.0288,-2.89652c0.25406,-9.04241 2.21944,-6.79397 4.05075,-0.64407c0.16371,0.54976 0.38395,0.80738 0.38395,0.80738c0,0 0.24792,-0.36065 0.45009,-1.0582c2.2087,-7.62042 4.21064,-5.99121 5.43686,-0.3814c0.21234,0.97148 0.50632,1.37087 0.50632,1.37087c0,0 -0.01571,-0.14627 0.40331,-1.34616c2.47207,-7.07903 3.58802,-5.97225 3.75951,1.16229c0.0625,2.6001 0.08281,-0.24226 0.08281,2.98578z" data-paper-data="{&quot;index&quot;:null}" fill-opacity="0.0549" fill="#000000" stroke="none" stroke-width="0" stroke-linecap="butt"/></g><g fill="#3f6d59" stroke="none" stroke-width="0" stroke-linecap="butt"><path d="M289.88851,330.87597c-7.06686,-10.30583 -6.67074,-35.3549 -6.67074,-35.3549c0,0 16.94778,2.36856 24.01465,12.6744c7.06686,10.30583 8.00488,34.02075 8.00488,34.02075c0,0 -18.28193,-1.03442 -25.34879,-11.34025z"/><path d="M308.56254,341.54914c0,0 0.93802,-23.71492 8.00489,-34.02075c7.06686,-10.30583 24.01465,-12.6744 24.01465,-12.6744c0,0 0.39614,25.04906 -6.67072,35.3549c-7.06686,10.30583 -25.3488,11.34025 -25.3488,11.34025z" data-paper-data="{&quot;index&quot;:null}"/><path d="M314.13283,337.22966c0,0 13.07647,-19.80614 24.45708,-24.96679c11.38061,-5.16066 27.10783,1.58416 27.10783,1.58416c0,0 -12.62541,21.63819 -24.00604,26.79885c-11.38061,5.16066 -27.55888,-3.41621 -27.55888,-3.41621z" data-paper-data="{&quot;index&quot;:null}"/><path d="M278.76932,340.64587c-11.38064,-5.16066 -24.00604,-26.79885 -24.00604,-26.79885c0,0 15.72719,-6.74482 27.10782,-1.58416c11.38064,5.16066 24.4571,24.96679 24.4571,24.96679c0,0 -16.17826,8.57687 -27.55888,3.41621z" data-paper-data="{&quot;index&quot;:null}"/><path d="M309.592,339.78102c0,0 -11.47467,-20.77521 -10.76385,-33.25101c0.71082,-12.4758 13.98449,-23.27611 13.98449,-23.27611c0,0 13.30682,21.22595 12.59599,33.70175c-0.71082,12.4758 -15.81663,22.82536 -15.81663,22.82536z" data-paper-data="{&quot;index&quot;:null}"/></g><g fill="#5b9d72" stroke="none" stroke-width="0" stroke-linecap="butt"><path d="M105.23927,82.0382c-5.7291,-8.35493 -5.40796,-28.66218 -5.40796,-28.66218c0,0 13.73955,1.92019 19.46865,10.27512c5.7291,8.35493 6.48955,27.58059 6.48955,27.58059c0,0 -14.82114,-0.8386 -20.55024,-9.19353z"/><path d="M120.37829,90.69093c0,0 0.76045,-19.22566 6.48956,-27.58059c5.7291,-8.35493 19.46865,-10.27512 19.46865,-10.27512c0,0 0.32115,20.30725 -5.40795,28.66218c-5.7291,8.35493 -20.55025,9.19353 -20.55025,9.19353z" data-paper-data="{&quot;index&quot;:null}"/><path d="M124.89412,87.18913c0,0 10.60108,-16.05682 19.82733,-20.24055c9.22625,-4.18374 21.97629,1.28428 21.97629,1.28428c0,0 -10.23541,17.54206 -19.46167,21.7258c-9.22625,4.18374 -22.34196,-2.76952 -22.34196,-2.76952z" data-paper-data="{&quot;index&quot;:null}"/><path d="M96.22495,89.95865c-9.22627,-4.18374 -19.46167,-21.7258 -19.46167,-21.7258c0,0 12.75002,-5.46802 21.97628,-1.28428c9.22627,4.18374 19.82735,20.24055 19.82735,20.24055c0,0 -13.1157,6.95326 -22.34196,2.76952z" data-paper-data="{&quot;index&quot;:null}"/><path d="M121.21287,89.25752c0,0 -9.3025,-16.84244 -8.72624,-26.95656c0.57626,-10.11412 11.33721,-18.86992 11.33721,-18.86992c0,0 10.78783,17.20786 10.21156,27.32198c-0.57626,10.11412 -12.82253,18.5045 -12.82253,18.5045z" data-paper-data="{&quot;index&quot;:null}"/></g><g data-paper-data="{&quot;index&quot;:null}" fill="none" stroke="#569157" stroke-width="20" stroke-linecap="round"><path d="M119.01919,103.8235v19.39474"/><path d="M109.75603,95.71822v25.76315"/><path d="M101.36131,97.1656v24.02632"/><path d="M92.67709,91.95506v27.5"/><path d="M84.57183,120.32349v-22"/><path d="M76.75603,123.21822v-14.47369"/><path d="M126.25602,118.87611v6.07895"/></g></g></g></svg>