<svg version="1.1" xmlns="http://www.w3.org/2000/svg" xmlns:xlink="http://www.w3.org/1999/xlink" width="488" height="37" viewBox="0,0,488,37"><g transform="translate(3.5,2.88353)"><g data-paper-data="{&quot;isPaintingLayer&quot;:true}" fill-rule="nonzero" stroke-linejoin="miter" stroke-miterlimit="10" stroke-dasharray="" stroke-dashoffset="0" style="mix-blend-mode: normal"><path d="M-3.5,34.11647v-37h488v37z" fill-opacity="0.06667" fill="#000000" stroke="none" stroke-width="0" stroke-linecap="butt"/><path d="M366.57722,20.79298v5.07399h-12.93917v-0.89717l1.25604,-0.01994v-15.26184l-1.25604,-0.02991v-0.8872h8.27389v0.8872l-2.78122,0.02991v15.212c2.12662,-0.75096 4.25989,-1.68801 6.3998,-2.81113l0.04984,-1.27597zM373.19074,14.0044c1.49528,0 2.67157,0.54163 3.52886,1.62487c0.86394,1.0766 1.28594,2.53201 1.26601,4.36622l-7.04776,0.22928c0.11962,1.0035 0.46852,1.77108 1.0467,2.30273c0.57818,0.52501 1.34575,0.78751 2.30273,0.78751c1.32249,0 2.40242,-0.36551 3.23978,-1.09654l0.45855,0.40871c-0.59811,1.13641 -1.40224,2.02361 -2.41239,2.6616c-1.01015,0.63799 -2.08675,0.95698 -3.22981,0.95698c-1.54845,0 -2.7779,-0.51172 -3.68836,-1.53516c-0.91046,-1.03008 -1.36569,-2.42236 -1.36569,-4.17682c0,-1.03673 0.20934,-2.06349 0.62802,-3.08028c0.41868,-1.02344 0.95034,-1.87741 1.59497,-2.56192c0.44526,-0.25254 1.01679,-0.46188 1.71459,-0.62802c0.6978,-0.17279 1.3524,-0.25918 1.9638,-0.25918zM374.20753,19.15814c-0.01329,-1.18958 -0.18276,-2.13327 -0.5084,-2.83107c-0.32564,-0.6978 -0.78419,-1.11648 -1.37566,-1.25604c-0.42532,0.44526 -0.7709,1.06331 -1.03673,1.85415c-0.26583,0.79084 -0.39874,1.60161 -0.39874,2.43232v0.07975zM390.33623,14.38321v0.81742l-0.73767,0.01994l-4.51575,10.49688l-2.58185,0.14953l-4.02729,-10.6464l-0.74764,-0.01994v-0.81742h6.05091v0.81742l-1.06663,0.01994l2.21302,7.86518l2.09339,-7.86518l-1.06663,-0.01994v-0.81742zM396.54102,14.0044c1.49528,0 2.67157,0.54163 3.52886,1.62487c0.86394,1.0766 1.28594,2.53201 1.26601,4.36622l-7.04776,0.22928c0.11962,1.0035 0.46852,1.77108 1.0467,2.30273c0.57818,0.52501 1.34575,0.78751 2.30273,0.78751c1.32249,0 2.40242,-0.36551 3.23978,-1.09654l0.45855,0.40871c-0.59811,1.13641 -1.40224,2.02361 -2.41239,2.6616c-1.01015,0.63799 -2.08675,0.95698 -3.22981,0.95698c-1.54845,0 -2.7779,-0.51172 -3.68836,-1.53516c-0.91046,-1.03008 -1.36569,-2.42236 -1.36569,-4.17682c0,-1.03673 0.20934,-2.06349 0.62802,-3.08028c0.41868,-1.02344 0.95034,-1.87741 1.59497,-2.56192c0.44526,-0.25254 1.01679,-0.46188 1.71459,-0.62802c0.6978,-0.17279 1.3524,-0.25918 1.9638,-0.25918zM397.55782,19.15814c-0.01329,-1.18958 -0.18276,-2.13327 -0.5084,-2.83107c-0.32564,-0.6978 -0.78419,-1.11648 -1.37566,-1.25604c-0.42532,0.44526 -0.7709,1.06331 -1.03673,1.85415c-0.26583,0.79084 -0.39874,1.60161 -0.39874,2.43232v0.07975zM402.15888,25.1293l0.93704,-0.07975l-0.11962,-15.28178l-0.97692,0.19937l-0.24921,-0.73767l4.71512,-1.4255l0.35887,0.60808l-0.12959,16.6375l0.94701,0.07975v0.73767h-5.4827z" fill="#ffece6" stroke="none" stroke-width="1" stroke-linecap="square"/><path d="M434,18.50752h10" fill="none" stroke="#ffece6" stroke-width="1" stroke-linecap="round"/><path d="M421.72066,16.13602c0.93704,0 1.77108,0.18276 2.5021,0.54827c0.73103,0.36551 1.29923,0.87723 1.70462,1.53516c0.41203,0.65128 0.61805,1.38563 0.61805,2.20305c0,1.03673 -0.31567,2.02361 -0.94701,2.96066c-0.62469,0.93704 -1.51189,1.69133 -2.6616,2.26286c-1.14971,0.56488 -2.46555,0.84733 -3.94754,0.84733c-0.6978,0 -1.38895,-0.0731 -2.07346,-0.21931c-0.67786,-0.13956 -1.2793,-0.33893 -1.80431,-0.59811l1.14638,-3.16003c2.19972,1.0899 4.3629,1.81427 6.48952,2.17314c0.16614,-0.54495 0.24921,-1.11648 0.24921,-1.71459c0,-1.37566 -0.53166,-2.40242 -1.59497,-3.08028c-1.06331,-0.68451 -2.76793,-1.00018 -5.11386,-0.94701v-0.79748l5.92131,-5.69204l-5.92131,1.0467l-0.07975,0.99685h-0.81742v-5.4827h10.43707v2.73138l-6.33003,4.69518c0.71774,-0.20602 1.45873,-0.30902 2.22299,-0.30902z" fill="#ffece6" stroke="none" stroke-width="1" stroke-linecap="square"/><path d="M13.78804,27.3071c2.01896,0.28473 4.47796,0.42708 7.37697,0.42708c1.64364,0 3.10933,-0.04852 4.39707,-0.14559l-1.29097,4.12528c-1.43657,-0.10354 -3.39406,-0.50797 -5.87245,-1.21331c-2.47839,-0.69887 -4.48766,-1.42363 -6.02776,-2.17427v-1.53363l2.2131,-0.79594c-2.09014,-0.23296 -3.74997,-1.04831 -4.97946,-2.44606c-1.22302,-1.40422 -1.83453,-3.3067 -1.83453,-5.70745c0,-1.10655 0.20709,-2.26486 0.62123,-3.47494c0.41414,-1.21009 1.003,-2.28105 1.76658,-3.21286c0.78299,-0.74417 1.68247,-1.34275 2.69843,-1.7957c1.01595,-0.45945 2.09661,-0.68915 3.24198,-0.68915c1.62423,0 3.04462,0.31707 4.26117,0.95124c1.21655,0.62769 2.16133,1.55628 2.83431,2.78578c0.67298,1.22302 1.00947,2.72106 1.00947,4.49412c0,1.12595 -0.20059,2.29074 -0.6018,3.49436c-0.39473,1.19713 -0.97389,2.25839 -1.73746,3.18374c-1.0289,0.96419 -2.1872,1.65982 -3.47494,2.0869zM12.19616,16.10576c0,1.92189 0.24913,3.4717 0.7474,4.64943c0.49828,1.17126 1.25214,2.03514 2.26163,2.59166c1.00947,0.5565 2.31663,0.87684 3.92144,0.96095c0.20059,-0.82829 0.36238,-1.80218 0.48533,-2.92168c0.12294,-1.11948 0.18443,-2.03514 0.18443,-2.74695c0,-1.9413 -0.25237,-3.50405 -0.75711,-4.68824c-0.50474,-1.1842 -1.27155,-2.05778 -2.30046,-2.62077c-1.02241,-0.56298 -2.32958,-0.87684 -3.92144,-0.94152c-0.18119,0.86065 -0.33003,1.86365 -0.44651,3.00904c-0.11648,1.13889 -0.17472,2.0416 -0.17472,2.70813zM37.91888,24.0263l-3.45553,1.97042c-0.53062,-0.28473 -0.92211,-0.66975 -1.17449,-1.15507c-0.2459,-0.49179 -0.36885,-1.11949 -0.36885,-1.88306l-2.13544,3.1061c-1.55952,0 -2.71135,-0.37531 -3.45553,-1.12595c-0.74417,-0.75711 -1.11625,-1.9219 -1.11625,-3.49436v-6.13454l-0.92211,-0.07765v-0.71828h4.42619v5.9404c0,0.74417 0.19413,1.32009 0.58239,1.72777c0.38826,0.4012 0.90593,0.61151 1.55303,0.63092l1.06772,-0.99006v-6.51309l-0.89299,-0.07765v-0.71828h4.39706v7.00813c0,0.61474 0.03559,1.07096 0.10679,1.36862c0.07765,0.29766 0.20059,0.55328 0.36885,0.76682l0.7474,-0.36884zM48.40503,24.40486l-3.65936,1.71806c-0.44651,-0.31707 -0.75064,-0.75064 -0.91242,-1.30067c-0.6018,0.36885 -1.20362,0.66651 -1.80542,0.89299c-0.6018,0.23296 -1.1292,0.34944 -1.58217,0.34944c-0.67298,0 -1.22627,-0.23943 -1.65981,-0.71828c-0.43355,-0.47885 -0.65034,-1.09037 -0.65034,-1.83453c0,-0.33002 0.03558,-0.68916 0.10677,-1.07742c0.07765,-0.39473 0.17471,-0.70858 0.2912,-0.94152l5.27065,-0.84446l0.04855,-0.71828c0.03235,-0.74417 -0.12619,-1.32657 -0.47562,-1.74718c-0.34297,-0.42708 -0.90594,-0.64063 -1.68894,-0.64063c-0.34297,0 -0.70534,0.03883 -1.08713,0.11648c-0.3818,0.07118 -0.70534,0.16501 -0.97066,0.28149l-0.39796,0.84447l-0.66974,-0.24267l1.14537,-3.58171c1.2748,-0.54356 2.48164,-0.81535 3.62054,-0.81535c1.17772,0 2.13867,0.3106 2.88286,0.93182c0.75064,0.62122 1.12595,1.59187 1.12595,2.91197l-0.02912,0.50474l-0.25237,3.34876l-0.04853,0.893c0,0.29766 0.02589,0.53387 0.07765,0.70858c0.05177,0.17472 0.13588,0.35268 0.25237,0.53386l0.76682,-0.2912zM42.76553,24.27866c0.26532,0 0.56945,-0.1003 0.91242,-0.3009l-0.01941,-0.51444l0.01941,-0.55327l0.07765,-1.41715l-1.91218,0.44651c-0.06471,0.22001 -0.09707,0.51121 -0.09707,0.87359c0,0.49828 0.09707,0.86712 0.2912,1.10655c0.20059,0.23942 0.44326,0.35915 0.72799,0.35915zM53.42407,17.92088l-0.10677,6.97902l2.2131,0.07765v0.71828h-6.62958v-0.71828l0.92212,-0.07765l-0.07765,-8.8912l-0.94152,0.22325l-0.25237,-0.74739l3.92145,-1.22302l0.84447,2.65959c0.55003,-1.10655 1.14861,-1.9672 1.79571,-2.58195c0.36237,-0.12942 0.79917,-0.19412 1.31038,-0.19412c0.69887,0 1.35568,0.12294 1.97042,0.36884l-0.79594,3.23229c-0.47885,-0.10354 -1.09361,-0.19412 -1.84423,-0.27178c-0.74417,-0.08411 -1.35569,-0.14237 -1.83453,-0.17472zM66.29029,23.7351l-3.02844,2.18397c-1.22302,0 -2.1128,-0.3009 -2.6693,-0.9027c-0.5565,-0.60827 -0.83476,-1.58215 -0.83476,-2.92168v-6.61015h-1.66951v-0.79594c0.69887,-0.3818 1.45597,-0.92535 2.27133,-1.63069c0.82182,-0.70534 1.57246,-1.44626 2.25193,-2.22279l0.82506,0.25237l-0.12619,3.42642h2.91197v1.0483l-2.9605,-0.05824v5.71715c0,0.79594 0.15206,1.37833 0.4562,1.74718c0.3106,0.36238 0.72153,0.54356 1.23274,0.54356l0.92212,-0.52415zM72.58284,14.14503c1.45598,0 2.60135,0.5274 3.43612,1.58217c0.84124,1.0483 1.25214,2.46546 1.23273,4.25147l-6.86253,0.22325c0.11648,0.97713 0.45621,1.72453 1.01918,2.24222c0.56298,0.51121 1.31039,0.76683 2.24222,0.76683c1.28774,0 2.33929,-0.3559 3.15464,-1.06771l0.4465,0.39796c-0.58239,1.10655 -1.36539,1.97043 -2.34899,2.59166c-0.98359,0.62122 -2.03191,0.93182 -3.14492,0.93182c-1.50775,0 -2.70488,-0.49826 -3.59141,-1.49479c-0.88653,-1.00301 -1.32979,-2.3587 -1.32979,-4.06704c0,-1.00947 0.20384,-2.00925 0.61152,-2.99932c0.40768,-0.99655 0.92535,-1.82807 1.55303,-2.49458c0.43355,-0.2459 0.99007,-0.44974 1.66951,-0.61151c0.67946,-0.16825 1.31685,-0.25237 1.91219,-0.25237zM73.57291,19.16332c-0.01294,-1.15832 -0.17796,-2.0772 -0.49503,-2.75666c-0.31707,-0.67946 -0.76358,-1.08714 -1.3395,-1.22303c-0.41414,0.43355 -0.75064,1.03538 -1.00948,1.80542c-0.25885,0.77005 -0.38826,1.55952 -0.38826,2.36839v0.07765zM82.52194,17.92088l-0.10677,6.97902l2.2131,0.07765v0.71828h-6.62957v-0.71828l0.92212,-0.07765l-0.07765,-8.8912l-0.94152,0.22325l-0.25236,-0.74739l3.92144,-1.22302l0.84447,2.65959c0.55003,-1.10655 1.1486,-1.9672 1.7957,-2.58195c0.36238,-0.12942 0.79918,-0.19412 1.31039,-0.19412c0.69887,0 1.35568,0.12294 1.97042,0.36884l-0.79594,3.23229c-0.47885,-0.10354 -1.09362,-0.19412 -1.84425,-0.27178c-0.74417,-0.08411 -1.35569,-0.14237 -1.83453,-0.17472zM106.27111,13.92179c0,1.75365 -0.75064,3.14168 -2.25191,4.16411c-1.49481,1.01595 -3.68202,1.55628 -6.56163,1.62099v5.09594l2.70814,0.01941v0.87359h-8.05644v-0.87359l1.22302,-0.01941v-14.86071l-1.22302,-0.02912v-0.86388l4.79503,0.04855l3.70789,-0.17472c1.19067,0 2.2131,0.22325 3.06728,0.66975c0.85418,0.44651 1.49804,1.05155 1.93159,1.81513c0.44004,0.76359 0.66004,1.60158 0.66004,2.51399zM101.85464,14.64007c0,-0.88007 -0.1909,-1.67922 -0.57268,-2.39751c-0.38178,-0.72476 -0.90919,-1.2942 -1.58215,-1.70834c-0.66651,-0.41414 -1.41393,-0.62122 -2.24221,-0.62122v8.82324c1.37185,-0.08411 2.44606,-0.48532 3.22257,-1.20361c0.783,-0.71828 1.17449,-1.68247 1.17449,-2.89256zM117.21115,24.40486l-3.65937,1.71806c-0.44651,-0.31707 -0.75064,-0.75064 -0.91242,-1.30067c-0.6018,0.36885 -1.20361,0.66651 -1.80541,0.89299c-0.6018,0.23296 -1.1292,0.34944 -1.58217,0.34944c-0.67298,0 -1.22627,-0.23943 -1.65981,-0.71828c-0.43355,-0.47885 -0.65034,-1.09037 -0.65034,-1.83453c0,-0.33002 0.03559,-0.68916 0.10677,-1.07742c0.07765,-0.39473 0.17472,-0.70858 0.2912,-0.94152l5.27065,-0.84446l0.04853,-0.71828c0.03235,-0.74417 -0.12619,-1.32657 -0.47562,-1.74718c-0.34297,-0.42708 -0.90594,-0.64063 -1.68894,-0.64063c-0.34297,0 -0.70534,0.03883 -1.08713,0.11648c-0.38178,0.07118 -0.70534,0.16501 -0.97066,0.28149l-0.39796,0.84447l-0.66975,-0.24267l1.14537,-3.58171c1.27479,-0.54356 2.48164,-0.81535 3.62054,-0.81535c1.17773,0 2.13867,0.3106 2.88285,0.93182c0.75064,0.62122 1.12595,1.59187 1.12595,2.91197l-0.02911,0.50474l-0.25237,3.34876l-0.04852,0.893c0,0.29766 0.02589,0.53387 0.07765,0.70858c0.05177,0.17472 0.13588,0.35268 0.25236,0.53386l0.76683,-0.2912zM111.57164,24.27866c0.26532,0 0.56945,-0.1003 0.9124,-0.3009l-0.01941,-0.51444l0.01941,-0.55327l0.07765,-1.41715l-1.91218,0.44651c-0.06471,0.22001 -0.09707,0.51121 -0.09707,0.87359c0,0.49828 0.09707,0.86712 0.2912,1.10655c0.20061,0.23942 0.44326,0.35915 0.728,0.35915zM121.43039,16.37754c0,0.44651 0.17796,0.85418 0.53386,1.22303c0.35591,0.36237 0.89949,0.79271 1.6307,1.29098c0.893,0.60827 1.57245,1.16154 2.03837,1.65981c0.46592,0.49828 0.69887,1.11302 0.69887,1.84425c0,0.64063 -0.1909,1.24243 -0.57268,1.80541c-0.38178,0.56298 -0.92212,1.01597 -1.62099,1.35891c-0.6924,0.3365 -1.48833,0.50474 -2.38781,0.50474c-0.86066,0 -1.67601,-0.20708 -2.44606,-0.62122c-0.77005,-0.41414 -1.33626,-0.94152 -1.69863,-1.58215l2.13544,-1.71805c0.66651,1.24243 1.34598,2.26163 2.03837,3.05756c0.28473,-0.21355 0.5209,-0.46591 0.70858,-0.75711c0.18766,-0.2912 0.28149,-0.57915 0.28149,-0.86387c0,-0.45944 -0.17147,-0.85741 -0.51444,-1.1939c-0.3365,-0.34297 -0.86066,-0.75388 -1.57246,-1.23273c-0.57593,-0.38178 -1.03859,-0.71181 -1.38803,-0.99007c-0.34943,-0.28473 -0.64388,-0.62446 -0.8833,-1.01918c-0.23942,-0.4012 -0.35914,-0.85094 -0.35914,-1.34921c0,-0.61476 0.20061,-1.20361 0.6018,-1.76658c0.40767,-0.56298 0.97713,-1.01595 1.70835,-1.35891c0.73122,-0.34943 1.55952,-0.52416 2.48487,-0.52416c0.71181,0 1.38481,0.15207 2.01896,0.45621c0.64063,0.30414 1.16155,0.68917 1.56275,1.15508l-1.9413,1.91219c-0.79594,-1.00947 -1.67276,-1.91218 -2.63047,-2.70813c-0.28473,0.36237 -0.42708,0.83476 -0.42708,1.41715zM120.61504,25.69582h0.01941zM135.17094,23.7351l-3.02845,2.18397c-1.22302,0 -2.11279,-0.3009 -2.6693,-0.9027c-0.5565,-0.60827 -0.83476,-1.58215 -0.83476,-2.92168v-6.61015h-1.66951v-0.79594c0.69887,-0.3818 1.45598,-0.92535 2.27134,-1.63069c0.82182,-0.70534 1.57246,-1.44626 2.25193,-2.22279l0.82506,0.25237l-0.12617,3.42642h2.91196v1.0483l-2.9605,-0.05824v5.71715c0,0.79594 0.15207,1.37833 0.45621,1.74718c0.31061,0.36238 0.72153,0.54356 1.23274,0.54356l0.92211,-0.52415zM149.81304,23.21094c0.72476,0 1.42686,-0.14884 2.10632,-0.4465c0.67946,-0.29766 1.31039,-0.72799 1.89278,-1.29097l0.64063,0.71828c-2.03837,2.58195 -4.37441,3.87292 -7.00813,3.87292c-1.50775,0 -2.82137,-0.33972 -3.94085,-1.01918c-1.11302,-0.67946 -1.9769,-1.64041 -2.59165,-2.88285c-0.61474,-1.24243 -0.92211,-2.69842 -0.92211,-4.36795c0,-1.44305 0.27826,-2.83754 0.83476,-4.18352c0.5565,-1.35244 1.26508,-2.43634 2.12573,-3.25169c0.8477,-0.54356 1.75365,-0.96094 2.71783,-1.25214c0.97066,-0.2912 1.92837,-0.43679 2.87314,-0.43679c1.26185,0 2.41694,0.27179 3.46524,0.81535c1.05478,0.5371 1.88631,1.28449 2.49459,2.24222l-3.04786,2.56253c-0.86712,-1.52716 -1.90247,-3.17404 -3.10609,-4.94063c-0.73122,0.29767 -1.3945,0.81211 -1.98984,1.54334c-0.59534,0.72476 -1.06449,1.59187 -1.40745,2.60135c-0.3365,1.00947 -0.50474,2.06102 -0.50474,3.15464c0,2.09014 0.46592,3.7079 1.39774,4.85327c0.93831,1.13889 2.26163,1.70835 3.96997,1.70835zM155.7515,9.27235l3.17404,-0.71828v2.82461l-3.17404,0.47563zM159.1779,24.89988l0.92212,0.07765v0.71828h-5.3483v-0.71828l0.92212,-0.07765l-0.07765,-8.84266l-0.94152,0.19412l-0.25237,-0.71828l4.50384,-1.38803l0.34943,0.5921zM168.94036,23.7351l-3.02845,2.18397c-1.22302,0 -2.11279,-0.3009 -2.6693,-0.9027c-0.5565,-0.60827 -0.83475,-1.58215 -0.83475,-2.92168v-6.61015h-1.66953v-0.79594c0.69887,-0.3818 1.45598,-0.92535 2.27134,-1.63069c0.82182,-0.70534 1.57245,-1.44626 2.25191,-2.22279l0.82506,0.25237l-0.12617,3.42642h2.91197v1.0483l-2.96049,-0.05824v5.71715c0,0.79594 0.15206,1.37833 0.45621,1.74718c0.31061,0.36238 0.72153,0.54356 1.23273,0.54356l0.92212,-0.52415zM181.11509,14.51389v0.79594l-0.71828,0.01941l-3.15462,7.33816c-0.86066,2.03837 -1.75041,3.90203 -2.66933,5.59097c-0.9189,1.68894 -1.75041,3.02845 -2.49458,4.01851l-2.94109,-2.77607c2.05778,-1.17773 3.89879,-2.47193 5.52302,-3.88261l-1.36861,0.07764l-3.82439,-10.36658l-0.71828,-0.01941v-0.79594h5.88216v0.79594l-1.03859,0.01941l2.26165,7.60993l2.03837,-7.60993l-1.04831,-0.01941v-0.79594z" fill="#f1f6ff" stroke="none" stroke-width="1" stroke-linecap="square"/><path d="M197.29167,28.06959v-21.84195h13.37262v21.84195h-5.64762l-0.00161,-5.11121l-4.29839,0.01121v5.1z" fill="#f1f6ff" stroke="none" stroke-width="0" stroke-linecap="butt"/><path d="M206.20675,28.06959v-14.48701h10.47522v14.48701z" fill="#f1f6ff" stroke="none" stroke-width="0" stroke-linecap="butt"/><path d="M199.21667,12.14195v-4.06923h4.06923v4.06923z" fill="#8753a6" stroke="none" stroke-width="0" stroke-linecap="butt"/><path d="M204.34744,12.14195v-4.06923h4.06923v4.06923z" fill="#8753a6" stroke="none" stroke-width="0" stroke-linecap="butt"/><path d="M199.21667,17.54195v-4.06923h4.06923v4.06923z" fill="#8753a6" stroke="none" stroke-width="0" stroke-linecap="butt"/><path d="M204.34744,17.54195v-4.06923h4.06923v4.06923z" fill="#8753a6" stroke="none" stroke-width="0" stroke-linecap="butt"/></g></g></svg>