<svg version="1.1" xmlns="http://www.w3.org/2000/svg" xmlns:xlink="http://www.w3.org/1999/xlink" width="83.69544" height="65.10887" viewBox="0,0,83.69544,65.10887"><defs><linearGradient x1="239.60002" y1="197.79585" x2="239.60002" y2="211.59584" gradientUnits="userSpaceOnUse" id="color-1"><stop offset="0" stop-color="#000000" stop-opacity="0.23529"/><stop offset="1" stop-color="#000000" stop-opacity="0"/></linearGradient><radialGradient cx="265.97273" cy="181.50736" r="16.01437" gradientUnits="userSpaceOnUse" id="color-2"><stop offset="0" stop-color="#000000" stop-opacity="0.50196"/><stop offset="1" stop-color="#000000" stop-opacity="0"/></radialGradient><radialGradient cx="214.30606" cy="181.8407" r="16.01438" gradientUnits="userSpaceOnUse" id="color-3"><stop offset="0" stop-color="#000000" stop-opacity="0.50196"/><stop offset="1" stop-color="#000000" stop-opacity="0"/></radialGradient><radialGradient cx="240" cy="177.00001" r="30.63407" gradientUnits="userSpaceOnUse" id="color-4"><stop offset="0" stop-color="#000000" stop-opacity="0.50196"/><stop offset="1" stop-color="#000000" stop-opacity="0"/></radialGradient><linearGradient x1="239.60001" y1="194.19584" x2="239.60001" y2="203.59584" gradientUnits="userSpaceOnUse" id="color-5"><stop offset="0" stop-color="#000000" stop-opacity="0.23529"/><stop offset="1" stop-color="#000000" stop-opacity="0"/></linearGradient><radialGradient cx="240.00001" cy="174.51912" r="36.575" gradientUnits="userSpaceOnUse" id="color-6"><stop offset="0" stop-color="#ff8866"/><stop offset="1" stop-color="#cc6c56"/></radialGradient></defs><g transform="translate(-198.29167,-146.48696)"><g data-paper-data="{&quot;isPaintingLayer&quot;:true}" fill-rule="nonzero" stroke="none" stroke-width="0" stroke-linecap="butt" stroke-linejoin="miter" stroke-miterlimit="10" stroke-dasharray="" stroke-dashoffset="0" style="mix-blend-mode: normal"><path d="M228.90002,211.59584v-13.8h21.4v13.8z" fill="url(#color-1)"/><path d="M281.98712,181.50736c0,8.80955 -7.16988,15.9511 -16.01438,15.9511c-8.84449,0 -16.01439,-7.14155 -16.01439,-15.9511c0,-8.80955 7.1699,-15.9511 16.01439,-15.9511c8.8445,0 16.01438,7.14155 16.01438,15.9511z" fill="url(#color-2)"/><path d="M230.32045,181.8407c0,8.80956 -7.16988,15.9511 -16.01438,15.9511c-8.8445,0 -16.01439,-7.14154 -16.01439,-15.9511c0,-8.80956 7.1699,-15.9511 16.01439,-15.9511c8.8445,0 16.01438,7.14154 16.01438,15.9511z" fill="url(#color-3)"/><path d="M270.6341,177.00001c0,16.85189 -13.71535,30.51304 -30.63408,30.51304c-16.91874,0 -30.63411,-13.66114 -30.63411,-30.51304c0,-16.85189 13.71537,-30.51304 30.63411,-30.51304c16.91874,0 30.63408,13.66114 30.63408,30.51304z" fill="url(#color-4)"/><path d="M228.83334,205.28995v-13h21.33333v13c0,0 -1.78402,2.6669 -10.66667,2.66667c-8.89514,-0.00023 -10.66667,-2.66667 -10.66667,-2.66667z" fill="#d2bf74"/><path d="M228.90001,203.59584v-9.4h21.4v9.4z" fill="url(#color-5)"/><path d="M276.575,177.51912c0,14.99032 -16.70852,21.14238 -36.90833,21.14238c-20.19981,0 -36.24167,-6.15206 -36.24167,-21.14238c0,-7.11269 8.35332,-9.25304 14.38591,-14.0928c6.68139,-5.36026 11.57379,-13.04958 22.18909,-13.04958c9.86072,0 13.81004,8.22916 20.38797,12.93736c6.89704,4.93661 16.18703,6.53236 16.18703,14.20502z" fill="url(#color-6)"/><path d="M222.76151,180.40483c5.20665,2.15057 8.5045,6.12851 7.36596,8.88497c-1.13854,2.75646 -6.28233,3.24763 -11.48897,1.09706c-5.20665,-2.15057 -8.5045,-6.12851 -7.36596,-8.88497c1.13854,-2.75646 6.28233,-3.24763 11.48897,-1.09706z" fill="#fffac2"/><path d="M254.06828,172.91193c0.32582,4.01849 -3.73868,7.62709 -9.07832,8.06004c-5.33964,0.43294 -9.9324,-2.47372 -10.25823,-6.49221c-0.32582,-4.01849 3.73868,-7.62709 9.07832,-8.06004c5.33964,-0.43294 9.9324,2.47372 10.25823,6.49221z" fill="#fffac2"/><path d="M246.30001,189.09584c0,1.82254 -2.50721,3.3 -5.6,3.3c-3.09279,0 -5.6,-1.47746 -5.6,-3.3c0,-1.82254 2.50721,-3.3 5.6,-3.3c3.09279,0 5.6,1.47746 5.6,3.3z" fill="#fffac2"/><path d="M269.76381,181.30033c-2.25954,3.66767 -6.49272,5.16143 -9.45507,3.33641c-2.96235,-1.82502 -3.53208,-6.27772 -1.27253,-9.94538c2.25954,-3.66767 6.49272,-5.16143 9.45507,-3.33641c2.96235,1.82502 3.53208,6.27772 1.27253,9.94538z" fill="#fffac2"/><path d="M237.79,153.86918c0.79652,1.19477 -1.46345,4.10044 -5.04777,6.48999c-3.58432,2.38955 -7.1357,3.35811 -7.93221,2.16333c-0.79652,-1.19477 1.46345,-4.10044 5.04777,-6.48999c3.58432,-2.38955 7.1357,-3.35811 7.93221,-2.16333z" fill="#fffac2"/><path d="M251.00324,162.35822c-0.80985,1.75517 -3.66161,2.16511 -6.36958,0.91564c-2.70798,-1.24948 -4.24672,-3.68523 -3.43687,-5.4404c0.80985,-1.75517 3.66161,-2.16511 6.36958,-0.91564c2.70798,1.24948 4.24672,3.68523 3.43687,5.4404z" fill="#fffac2"/><path d="M219.33958,170.09935c0.66321,1.34219 -1.06117,3.54796 -3.8515,4.92673c-2.79033,1.37877 -5.58998,1.40843 -6.25319,0.06625c-0.66321,-1.34219 1.06117,-3.54796 3.8515,-4.92673c2.79033,-1.37877 5.58998,-1.40843 6.25319,-0.06625z" fill="#fffac2"/><path d="M261.6491,191.00006c0.30507,0.94614 -1.6634,2.4276 -4.3967,3.30893c-2.73331,0.88133 -5.1964,0.82878 -5.50147,-0.11736c-0.30507,-0.94614 1.6634,-2.4276 4.3967,-3.30893c2.73331,-0.88133 5.1964,-0.82878 5.50147,0.11736z" fill="#fffac2"/><path d="M230.50001,172.39584c0,1.76731 -1.47746,3.2 -3.3,3.2c-1.82254,0 -3.3,-1.43269 -3.3,-3.2c0,-1.76731 1.47746,-3.2 3.3,-3.2c1.82254,0 3.3,1.43269 3.3,3.2z" fill="#fffac2"/><path d="M274.79896,177.35269c0,14.2575 -15.89171,20.10881 -35.10402,20.10881c-19.21231,0 -34.46994,-5.85131 -34.46994,-20.10881c0,-0.70318 0.24612,-1.96445 0.24612,-1.96445c0,0 3.84726,13.55864 34.14085,13.14897c29.57867,-0.4 34.80156,-13.64677 34.80156,-13.64677c0,0 0.38542,1.55854 0.38542,2.46225z" fill-opacity="0.23529" fill="#000000"/></g></g></svg>