<svg version="1.1" xmlns="http://www.w3.org/2000/svg" xmlns:xlink="http://www.w3.org/1999/xlink" width="88" height="88" viewBox="0,0,88,88"><defs><radialGradient cx="240" cy="180" r="44" gradientUnits="userSpaceOnUse" id="color-1"><stop offset="0" stop-color="#b2eeff"/><stop offset="1" stop-color="#b2eeff" stop-opacity="0"/></radialGradient><radialGradient cx="240" cy="180" r="29.7361" gradientUnits="userSpaceOnUse" id="color-2"><stop offset="0" stop-color="#ffffff"/><stop offset="1" stop-color="#ffffff" stop-opacity="0"/></radialGradient></defs><g transform="translate(-196,-136)"><g data-paper-data="{&quot;isPaintingLayer&quot;:true}" fill-rule="nonzero" stroke="none" stroke-width="0" stroke-linecap="butt" stroke-linejoin="miter" stroke-miterlimit="10" stroke-dasharray="" stroke-dashoffset="0" style="mix-blend-mode: normal"><path d="M196,180c0,-24.30053 19.69947,-44 44,-44c24.30053,0 44,19.69947 44,44c0,24.30053 -19.69947,44 -44,44c-24.30053,0 -44,-19.69947 -44,-44z" fill="url(#color-1)"/><path d="M206,180c0,-18.77768 15.22232,-34 34,-34c18.77768,0 34,15.22232 34,34c0,18.77768 -15.22232,34 -34,34c-18.77768,0 -34,-15.22232 -34,-34z" fill="#b2eeff"/><path d="M263.95324,203.95324c0,0 -22.5555,-5.58281 -32.39082,-15.33889c-9.83532,-9.75607 -15.70944,-32.37383 -15.70944,-32.37383c0,0 22.83863,5.4791 32.76137,15.32189c9.92274,9.84279 15.33889,32.39082 15.33889,32.39082z" fill="#aae3f3"/><path d="M263.95324,156.04676c0,0 -5.58281,22.5555 -15.33889,32.39082c-9.75608,9.83532 -32.37383,15.70943 -32.37383,15.70943c0,0 5.4791,-22.83863 15.32189,-32.76137c9.84279,-9.92274 32.39082,-15.33889 32.39082,-15.33889z" fill="#aae3f3"/><path d="M240,213.875c0,0 -6.59428,-19.89679 -6.62507,-33.75c-0.03079,-13.85321 6.4745,-34 6.4745,-34c0,0 6.74458,20.02366 6.77564,34c0.03106,13.97634 -6.62507,33.75 -6.62507,33.75z" fill="#e6faff"/><path d="M273.875,180c0,0 -19.8968,6.59428 -33.75,6.62507c-13.85321,0.03079 -34,-6.4745 -34,-6.4745c0,0 20.02366,-6.74458 34,-6.77564c13.97634,-0.03106 33.75,6.62507 33.75,6.62507z" fill="#e6faff"/><path d="M210.2639,180c0,-16.4228 13.31331,-29.7361 29.7361,-29.7361c16.4228,0 29.7361,13.31331 29.7361,29.7361c0,16.4228 -13.31331,29.7361 -29.7361,29.7361c-16.4228,0 -29.7361,-13.31331 -29.7361,-29.7361z" fill="url(#color-2)"/></g></g></svg>