<svg version="1.1" xmlns="http://www.w3.org/2000/svg" xmlns:xlink="http://www.w3.org/1999/xlink" width="576.00001" height="394.94318" viewBox="0,0,576.00001,394.94318"><defs><linearGradient x1="240.24643" y1="-2.7139" x2="240.24643" y2="311.09988" gradientUnits="userSpaceOnUse" id="color-1"><stop offset="0" stop-color="#b4c9e7"/><stop offset="1" stop-color="#364760"/></linearGradient><linearGradient x1="365.49962" y1="54.13388" x2="365.49962" y2="370.04526" gradientUnits="userSpaceOnUse" id="color-2"><stop offset="0" stop-color="#6d83a3"/><stop offset="1" stop-color="#364760"/></linearGradient><linearGradient x1="237.37645" y1="50.63539" x2="237.37645" y2="366.54675" gradientUnits="userSpaceOnUse" id="color-3"><stop offset="0" stop-color="#2f3d52"/><stop offset="1" stop-color="#364760"/></linearGradient></defs><g transform="translate(28.92007,21.72666)"><g data-paper-data="{&quot;isPaintingLayer&quot;:true}" fill-rule="nonzero" stroke-linejoin="miter" stroke-miterlimit="10" stroke-dasharray="" stroke-dashoffset="0" style="mix-blend-mode: normal"><path d="M-4.4984,311.09988v-313.81381h489.48949v313.81381z" fill="url(#color-1)" stroke="none" stroke-width="0" stroke-linecap="butt"/><path d="M121.88196,370.04527l-54.05405,-276.63598c0,0 92.73637,-39.2754 125.05405,-39.2754c21.62108,0 57.80888,23.81614 104.98849,26.38955c26.5177,1.4464 52.81448,22.24059 81.01325,22.82959c75.07196,1.56803 30.53379,265.19073 30.53379,265.19073z" data-paper-data="{&quot;index&quot;:null}" fill="url(#color-2)" stroke="none" stroke-width="NaN" stroke-linecap="butt"/><g fill="none" stroke-opacity="0.20784" stroke="#ffffff" stroke-linecap="round"><path d="M164.07992,6.27653h-162" stroke-width="25"/><path d="M207.07994,17.98019h-116" stroke-width="40"/><path d="M261.07997,3.98023h116" stroke-width="40"/><path d="M366.08001,16.98019h116" stroke-width="35"/><path d="M207.07994,20.98023h116" stroke-width="50"/><path d="M-3.92007,3.27334h83" stroke-width="50"/><path d="M522.07994,19.27334h-83" stroke-width="50"/></g><path d="M-6.24117,366.54675v-291.651c0,0 14.29798,-6.31028 33.05293,-2.87625c42.97652,7.86898 122.1086,29.40305 197.18056,27.83502c28.19877,-0.589 54.49555,-21.38319 81.01325,-22.82959c47.17961,-2.57341 83.36741,-26.38955 104.98849,-26.38955c32.31768,0 71,24.26038 71,24.26038v291.651z" data-paper-data="{&quot;index&quot;:null}" fill="url(#color-3)" stroke="none" stroke-width="NaN" stroke-linecap="butt"/><path d="M376.7535,74.32518l-31.5,-1.04655c0,0 9.47889,-1.88308 22.23257,-7.26211c12.73453,-5.37096 32.73551,-12.73789 43.83125,-12.73789c20.12985,0 58.06381,18 58.06381,18l-27.5,-1.45345l15.03852,18.77231l-33.64301,-14.46337l-10.68699,20.20216l-9.6746,-17.77327l-38.83299,11.48546z" fill-opacity="0.0549" fill="#000000" stroke="none" stroke-width="0" stroke-linecap="butt"/><path d="M-4.99997,368.21651v-244.56514c0,0 5.64044,-20.26543 24.1677,-19.30041c19.63315,1.02263 28.75875,19.30041 28.75875,19.30041c0,0 8.35722,-15.44033 29.90909,-14.47531c23.24482,1.04083 28.75874,14.47531 28.75874,14.47531c0,0 10.45066,-22.19547 35.66085,-21.23045c24.99247,0.95668 32.20979,21.23045 32.20979,21.23045c0,0 9.88514,-16.3343 34.51049,-15.44033c25.63924,0.93079 31.05944,20.26543 31.05944,20.26543c0,0 12.00118,-16.43276 36.8417,-14.10617c25.06658,2.34776 29.87858,20.86132 29.87858,20.86132c0,0 6.67063,-16.63188 26.59268,-17.80176c20.01912,-1.17558 30.9248,14.9067 30.9248,14.9067c0,0 3.98456,-20.62009 25.35364,-26.19962c22.35208,-5.83619 39.06595,17.51443 39.06595,17.51443c0,0 7.9163,-15.03405 31.02836,-14.47531c16.37608,0.3959 28.37528,20.90878 28.37528,20.90878l0.89816,238.13164z" fill-opacity="0.0549" fill="#000000" stroke="none" stroke-width="0" stroke-linecap="butt"/><path d="M-6.00597,373.21649l0.89816,-217.95558c0,0 11.9992,-18.7749 28.37528,-19.13725c23.11206,-0.5114 31.02836,13.24887 31.02836,13.24887c0,0 16.71387,-21.3722 39.06595,-16.03049c21.36908,5.1068 25.35364,23.97982 25.35364,23.97982c0,0 10.90568,-14.71968 30.9248,-13.64371c19.92205,1.07076 26.59268,16.29348 26.59268,16.29348c0,0 4.812,-16.94497 29.87858,-19.09381c24.84052,-2.12947 36.8417,12.911 36.8417,12.911c0,0 5.4202,-17.69648 31.05944,-18.54841c24.62535,-0.81823 34.51049,14.13212 34.51049,14.13212c0,0 7.21732,-18.55604 32.20979,-19.43167c25.21019,-0.88326 35.66085,19.43167 35.66085,19.43167c0,0 5.51392,-12.29622 28.75874,-13.24887c21.55187,-0.88326 29.90909,13.24887 29.90909,13.24887c0,0 9.1256,-16.72917 28.75875,-17.66515c18.52726,-0.88326 24.1677,17.66515 24.1677,17.66515v223.84399z" data-paper-data="{&quot;index&quot;:null}" fill-opacity="0.0549" fill="#000000" stroke="none" stroke-width="0" stroke-linecap="butt"/><path d="M162.31415,70.68647l-23.06065,-0.76616c0,0 6.93934,-1.37857 16.27611,-5.31647c9.32275,-3.93199 23.96514,-9.32521 32.08816,-9.32521c14.73674,0 42.50759,13.17751 42.50759,13.17751l-20.13231,-1.06405l11.00946,13.74291l-24.62951,-10.5884l-7.82377,14.78968l-7.08262,-13.01153l-28.42901,8.40832z" fill-opacity="0.0549" fill="#000000" stroke="none" stroke-width="0" stroke-linecap="butt"/></g></g></svg>