<svg version="1.1" xmlns="http://www.w3.org/2000/svg" xmlns:xlink="http://www.w3.org/1999/xlink" width="57.56753" height="54.42038" viewBox="0,0,57.56753,54.42038"><defs><linearGradient x1="203.8248" y1="192.88089" x2="203.8248" y2="198.08085" gradientUnits="userSpaceOnUse" id="color-1"><stop offset="0" stop-color="#000000" stop-opacity="0.30196"/><stop offset="1" stop-color="#000000" stop-opacity="0"/></linearGradient><linearGradient x1="213.1248" y1="176.88089" x2="213.1248" y2="183.88089" gradientUnits="userSpaceOnUse" id="color-2"><stop offset="0" stop-color="#000000" stop-opacity="0.30196"/><stop offset="1" stop-color="#000000" stop-opacity="0"/></linearGradient><linearGradient x1="215.34506" y1="199.0076" x2="212.25499" y2="203.81436" gradientUnits="userSpaceOnUse" id="color-3"><stop offset="0" stop-color="#000000" stop-opacity="0.30196"/><stop offset="1" stop-color="#000000" stop-opacity="0"/></linearGradient><linearGradient x1="239.34957" y1="194.75331" x2="242.46478" y2="201.4972" gradientUnits="userSpaceOnUse" id="color-4"><stop offset="0" stop-color="#000000" stop-opacity="0.30196"/><stop offset="1" stop-color="#000000" stop-opacity="0"/></linearGradient><linearGradient x1="252.8" y1="209.80005" x2="252.8" y2="218.2001" gradientUnits="userSpaceOnUse" id="color-5"><stop offset="0" stop-color="#000000" stop-opacity="0.30196"/><stop offset="1" stop-color="#000000" stop-opacity="0"/></linearGradient><linearGradient x1="227.2" y1="209.6001" x2="227.2" y2="218.00008" gradientUnits="userSpaceOnUse" id="color-6"><stop offset="0" stop-color="#000000" stop-opacity="0.30196"/><stop offset="1" stop-color="#000000" stop-opacity="0"/></linearGradient><linearGradient x1="219.84565" y1="196.33749" x2="215.58681" y2="201.34213" gradientUnits="userSpaceOnUse" id="color-7"><stop offset="0" stop-color="#000000" stop-opacity="0.38039"/><stop offset="1" stop-color="#000000" stop-opacity="0"/></linearGradient><linearGradient x1="236.39565" y1="183.88753" x2="232.13681" y2="188.89209" gradientUnits="userSpaceOnUse" id="color-8"><stop offset="0" stop-color="#000000" stop-opacity="0.38039"/><stop offset="1" stop-color="#000000" stop-opacity="0"/></linearGradient><linearGradient x1="231.6688" y1="180.01817" x2="222.34357" y2="180.01817" gradientUnits="userSpaceOnUse" id="color-9"><stop offset="0" stop-color="#757e87"/><stop offset="1" stop-color="#5a6168"/></linearGradient><linearGradient x1="257.66878" y1="179.87535" x2="248.34357" y2="179.87535" gradientUnits="userSpaceOnUse" id="color-10"><stop offset="0" stop-color="#757e87"/><stop offset="1" stop-color="#5a6168"/></linearGradient><radialGradient cx="239.99999" cy="181.75008" r="18.04166" gradientUnits="userSpaceOnUse" id="color-11"><stop offset="0" stop-color="#000000" stop-opacity="0.50196"/><stop offset="1" stop-color="#000000" stop-opacity="0"/></radialGradient></defs><g transform="translate(-200.5248,-163.77972)"><g data-paper-data="{&quot;isPaintingLayer&quot;:true}" fill-rule="nonzero" stroke="none" stroke-width="0" stroke-linecap="butt" stroke-linejoin="miter" stroke-miterlimit="10" stroke-dasharray="" stroke-dashoffset="0" style="mix-blend-mode: normal"><path d="M200.5248,198.08085v-5.2h6.6v5.2z" fill="url(#color-1)"/><path d="M200.5248,183.88089v-7h25.2v7z" fill="url(#color-2)"/><path d="M207.10623,199.48404l-0.05281,-5.80673l16.29752,10.66065l0.05281,5.80673z" data-paper-data="{&quot;index&quot;:null}" fill="url(#color-3)"/><path d="M223.72205,201.97214l31.25511,-14.43761l3.11517,6.74384l-34.39797,14.29475z" data-paper-data="{&quot;index&quot;:null}" fill="url(#color-4)"/><path d="M248.15715,218.2001v-8.4h9.28571v8.4z" fill="url(#color-5)"/><path d="M222.55715,218.00008v-8.4h9.28571v8.4z" fill="url(#color-6)"/><path d="M254.06919,189.65839c-7.28067,3.32544 -24.13389,11.02312 -28.45806,12.99818c-1.9311,0.88203 -5.16249,0.72416 -6.9089,-0.41988c-2.11708,-1.38687 -8.20193,-5.37296 -11.65752,-7.63667c-1.87728,-1.22978 -1.48535,-2.89708 0.25993,-3.69423c4.1822,-1.91022 21.75504,-9.93658 29.10978,-13.29585c2.01141,-0.91871 4.49373,-0.67919 6.27344,0.48666c3.76032,2.46333 9.75064,6.3875 11.85851,7.76833c1.38881,0.90979 1.53385,2.87493 -0.47716,3.79345z" data-paper-data="{&quot;index&quot;:null}" fill="#584b32"/><path d="M253.99764,188.16484c-7.28067,3.32544 -24.13389,11.02312 -28.45806,12.99818c-1.9311,0.88203 -5.16249,0.72416 -6.9089,-0.41988c-2.11708,-1.38687 -8.20193,-5.37296 -11.65752,-7.63667c-1.87728,-1.22978 -1.48535,-2.89708 0.25993,-3.69423c4.1822,-1.91022 21.75504,-9.93658 29.10978,-13.29585c2.01141,-0.91871 4.49373,-0.67919 6.27343,0.48666c3.76032,2.46333 9.75064,6.3875 11.85851,7.76833c1.38881,0.90979 1.53385,2.87493 -0.47716,3.79345z" data-paper-data="{&quot;index&quot;:null}" fill="#68583b"/><path d="M253.92609,186.67128c-7.28067,3.32544 -24.13389,11.02312 -28.45806,12.99818c-1.9311,0.88203 -5.16249,0.72416 -6.9089,-0.41988c-2.11708,-1.38687 -8.20193,-5.37296 -11.65752,-7.63667c-1.87728,-1.22978 -1.48535,-2.89708 0.25993,-3.69423c4.1822,-1.91022 21.75504,-9.93658 29.10978,-13.29585c2.01141,-0.91871 4.49373,-0.67919 6.27343,0.48666c3.76032,2.46333 9.75064,6.3875 11.85852,7.76834c1.38881,0.90979 1.53385,2.87493 -0.47716,3.79345z" data-paper-data="{&quot;index&quot;:null}" fill="#89744e"/><path d="M206.176,193.33371l5.48271,-2.76125l13.79205,10.79494l-3.44054,3.37491z" data-paper-data="{&quot;index&quot;:null}" fill="url(#color-7)"/><path d="M222.726,180.88368l5.48271,-2.76125l18.59205,13.59494l-7.44054,3.97491z" data-paper-data="{&quot;index&quot;:null}" fill="url(#color-8)"/><path d="M245.65888,177.13556c0,0 -9.12013,4.48275 -16.63598,5.34431c-6.18494,0.709 13.088,-7.66854 13.088,-7.66854z" data-paper-data="{&quot;index&quot;:null}" fill-opacity="0.15294" fill="#000000"/><path d="M247.5837,189.96911l-23.73892,10.84272c0,0 3.05781,-4.27475 4.62837,-5.49523c1.57056,-1.22048 4.2136,-3.97292 11.74147,-6.11429c7.52788,-2.14137 7.36908,0.76679 7.36908,0.76679z" data-paper-data="{&quot;index&quot;:null}" fill-opacity="0.15294" fill="#000000"/><path d="M255.28907,183.44421c0,0 -10.21823,3.91578 -14.9379,3.81733c-9.49051,-0.19796 -23.5922,13.78124 -23.5922,13.78124l-3.71693,-2.43491c0,0 1.10789,-0.47329 4.78702,-2.78321c1.03011,-0.94474 2.52867,-2.56178 3.84296,-4.04058c0.99275,-1.11699 -13.61955,3.60421 -13.61955,3.60421c0,0 -2.36669,-1.46705 -3.19416,-2.05445c-0.58015,-0.41184 -1.2704,-1.52243 -1.2704,-1.52243c0,0 3.44644,-0.25057 8.33818,-2.46079c6.61032,-2.98672 12.55068,-6.42335 13.85894,-5.30237c1.79954,1.54193 -2.24903,1.47594 -2.55944,3.19981c-0.24366,1.35312 2.95849,0.47321 3.13658,0.39186c7.4434,-3.39976 11.18609,-3.04065 16.17029,-4.56465c4.96909,-1.51938 6.50539,-3.72613 6.50539,-3.72613z" data-paper-data="{&quot;index&quot;:null}" fill-opacity="0.15294" fill="#000000"/><path d="M200.59357,193.76342l-0.03191,-5.5c0,0 1.7264,0.06177 5.43633,0.01349c10.48624,-0.13646 25.74741,5.09645 25.76982,17.31396c0.0123,6.70721 -0.09901,7.2297 -0.09901,7.2297h-2.89586v-2.2l-3.31071,-0.01362l0.01072,2.21362h-3.12938c0,0 0.01123,-3.8122 0.00712,-7.4305c-0.00741,-6.50809 -7.04783,-11.33256 -16.33118,-11.61776c-1.82618,-0.05611 -5.42594,-0.00889 -5.42594,-0.00889z" data-paper-data="{&quot;index&quot;:null}" fill="#42484e"/><path d="M200.59357,177.90625l-0.03191,-5.5c0,0 9.29783,0.06177 13.00776,0.01349c17.20053,0.00639 44.17598,9.95359 44.19839,28.88539c0.0123,6.70721 -0.09901,11.37256 -0.09901,11.37256h-2.89586v-2.2l-3.31071,-0.01362l0.01072,2.21362h-3.12938c0,0 0.01124,-7.95505 0.00712,-11.57335c0.13545,-13.36524 -22.04784,-23.04685 -34.75975,-23.1892c-1.82618,-0.05611 -12.99737,-0.00888 -12.99737,-0.00888z" data-paper-data="{&quot;index&quot;:null}" fill="#42484e"/><path d="M200.59357,190.81105l-0.03191,-5.5c0,0 1.7264,0.06177 5.43633,0.01349c10.48624,-0.13646 25.74741,5.09645 25.76982,17.31396c0.0123,6.70721 -0.09901,7.2297 -0.09901,7.2297h-9.32523c0,0 0.01123,-3.8122 0.00712,-7.4305c-0.00741,-6.50809 -7.04783,-11.33256 -16.33118,-11.61776c-1.82618,-0.05611 -5.42594,-0.00889 -5.42594,-0.00889z" data-paper-data="{&quot;index&quot;:null}" fill="url(#color-9)"/><path d="M200.59358,174.95388l-0.03192,-5.5c0,0 9.29783,0.06177 13.00776,0.01349c17.20053,0.00639 44.17598,9.95359 44.19839,28.88539c0.0123,6.70721 -0.09901,11.37256 -0.09901,11.37256h-9.32523c0,0 0.01124,-7.95505 0.00712,-11.57335c0.13545,-13.36524 -22.04783,-23.04685 -34.75976,-23.18919c-1.82618,-0.05611 -12.99736,-0.00888 -12.99736,-0.00888z" data-paper-data="{&quot;index&quot;:null}" fill="url(#color-10)"/><path d="M200.63602,189.20567l-0.04618,-2.33333c0,0 1.49487,-0.0636 7.12705,0.03758c10.65993,0.1915 21.16631,7.40278 21.38997,15.8673c0.10282,3.89132 0.06632,7.00465 0.06632,7.00465h-3.53715c0,0 0.05266,-3.28964 0.03046,-6.9434c-0.04691,-7.7214 -9.4429,-13.55956 -18.02031,-13.71265c-4.91987,-0.08781 -7.01015,0.07986 -7.01015,0.07986z" data-paper-data="{&quot;index&quot;:null}" fill-opacity="0.20392" fill="#000000"/><path d="M200.69408,173.15409l-0.01841,-2.16667c0,0 8.03398,0.05382 14.44584,0.17442c21.23668,0.38598 39.82823,15.09213 39.87385,26.1909c-0.10921,8.93623 -0.09748,12.42913 -0.09748,12.42913h-3.53715c0,0 0.01072,-6.55349 0.02452,-12.37358c-0.11039,-11.97534 -20.41476,-23.99589 -36.29552,-24.2759c-8.06435,-0.16523 -14.39567,0.0217 -14.39567,0.0217z" data-paper-data="{&quot;index&quot;:null}" fill-opacity="0.20392" fill="#000000"/><path d="M231.80025,213.60413h-9.32523v-6.06364h2.89586v2.2l3.31071,0.01362l-0.01072,-2.21362h3.12938z" fill="#42484e"/><path d="M257.52752,213.69502h-9.32523v-6.06364h2.89586v2.2l3.31071,0.01362l-0.01072,-2.21362h3.12938z" fill="#42484e"/><path d="M258.04167,181.75008c0,9.92476 -8.07752,17.97036 -18.04166,17.97036c-9.96413,0 -18.04167,-8.0456 -18.04167,-17.97036c0,-9.92476 8.07754,-17.97036 18.04167,-17.97036c9.96413,0 18.04166,8.0456 18.04166,17.97036z" fill="url(#color-11)"/><path d="M226.16668,183.33336c0,-7.63994 6.1934,-13.83334 13.83334,-13.83334c7.63994,0 13.83334,6.1934 13.83334,13.83334c0,7.63994 -6.1934,13.83334 -13.83334,13.83334c-7.63994,0 -13.83334,-6.1934 -13.83334,-13.83334z" fill="#cacaca"/><path d="M226.16668,180.00008c0,-7.63994 6.19339,-13.83333 13.83333,-13.83333c7.63994,0 13.83333,6.19339 13.83333,13.83333c0,7.63994 -6.19339,13.83333 -13.83333,13.83333c-7.63994,0 -13.83333,-6.19339 -13.83333,-13.83333z" fill="#ffffff"/></g></g></svg>