<svg version="1.1" xmlns="http://www.w3.org/2000/svg" xmlns:xlink="http://www.w3.org/1999/xlink" width="32.63878" height="32.63878" viewBox="0,0,32.63878,32.63878"><g transform="translate(-7.68061,-7.68061)"><g data-paper-data="{&quot;isPaintingLayer&quot;:true}" fill-rule="nonzero" stroke="none" stroke-linejoin="miter" stroke-miterlimit="10" stroke-dasharray="" stroke-dashoffset="0" style="mix-blend-mode: normal"><path d="M7.68061,24c0,-9.01295 7.30644,-16.31939 16.31939,-16.31939c9.01295,0 16.31939,7.30644 16.31939,16.31939c0,9.01295 -7.30644,16.31939 -16.31939,16.31939c-9.01295,0 -16.31939,-7.30644 -16.31939,-16.31939z" fill-opacity="0.06667" fill="#000000" stroke-width="0" stroke-linecap="butt"/><path d="M31.99849,31.11592v0.86261h-7.14049v-0.86261l1.19807,-0.02396l-3.35459,-5.90648l-1.91691,5.90648l1.56947,0.02396v0.86261h-6.03827v-0.86261l1.28193,-0.02396l4.43285,-7.0686l-4.31305,-7.59575l-1.21005,-0.02396v-0.86261h7.39208v0.86261l-1.19807,0.02396l2.7915,4.9001l2.08464,-4.9001l-1.56947,-0.02396v-0.86261h5.66686v0.86261l-1.03034,0.02396l-4.56464,5.93044l4.96,8.73392z" fill="#f1f6ff" stroke-width="1" stroke-linecap="square"/></g></g></svg>