<svg version="1.1" xmlns="http://www.w3.org/2000/svg" xmlns:xlink="http://www.w3.org/1999/xlink" width="484" height="32" viewBox="0,0,484,32"><g transform="translate(3,0.88353)"><g data-paper-data="{&quot;isPaintingLayer&quot;:true}" fill-rule="nonzero" stroke="none" stroke-linejoin="miter" stroke-miterlimit="10" stroke-dasharray="" stroke-dashoffset="0" style="mix-blend-mode: normal"><path d="M459.01013,16.1438c1.15635,0.61141 2.0502,1.23942 2.68154,1.88405c0.63134,0.64463 0.94701,1.45208 0.94701,2.42236c0,1.0035 -0.29906,1.91064 -0.89717,2.72141c-0.59147,0.81078 -1.39892,1.44876 -2.42236,1.91396c-1.01679,0.4652 -2.15653,0.6978 -3.41921,0.6978c-1.18958,0 -2.24625,-0.17611 -3.17,-0.52833c-0.91711,-0.35887 -1.63484,-0.86394 -2.15321,-1.51522c-0.51836,-0.65792 -0.77755,-1.41221 -0.77755,-2.26286c0,-0.88388 0.24921,-1.71791 0.74764,-2.5021c0.50507,-0.78419 1.18293,-1.44876 2.03358,-1.99371c-0.67786,-0.51172 -1.20619,-1.06663 -1.585,-1.66475c-0.37216,-0.60476 -0.55824,-1.3092 -0.55824,-2.11333c0,-1.03673 0.29573,-1.95383 0.8872,-2.75132c0.59811,-0.79748 1.3823,-1.41886 2.35258,-1.86412c0.97027,-0.44526 2.00035,-0.66789 3.09025,-0.66789c0.99021,0 1.85747,0.19273 2.60179,0.57818c0.75096,0.38545 1.32582,0.8872 1.72456,1.50525c0.39874,0.61805 0.59811,1.27597 0.59811,1.97377c0,0.78419 -0.25254,1.55177 -0.75761,2.30273c-0.49843,0.74432 -1.13974,1.36569 -1.92393,1.86412zM457.99334,13.66163c0,-1.08325 -0.41868,-1.9771 -1.25604,-2.68154c-0.83071,-0.71109 -1.84086,-1.10983 -3.03044,-1.19623c-0.15285,0.41203 -0.22928,0.83736 -0.22928,1.27597c0,0.68451 0.18608,1.28927 0.55824,1.81427c0.3788,0.52501 0.85065,0.97692 1.41553,1.35572c0.57153,0.37216 1.3092,0.78087 2.21302,1.22613c0.21931,-0.59811 0.32896,-1.19623 0.32896,-1.79434zM453.65702,19.66269c0,0.75096 0.22263,1.43215 0.66789,2.04355c0.45191,0.61141 1.03673,1.09322 1.75446,1.44544c0.71774,0.34558 1.44211,0.51836 2.17314,0.51836c0.35222,0 0.71774,-0.02658 1.09654,-0.07975c0.04652,-0.23925 0.06978,-0.46852 0.06978,-0.68783c0,-0.66457 -0.18276,-1.24939 -0.54827,-1.75446c-0.36551,-0.51172 -0.82407,-0.94701 -1.37566,-1.30588c-0.55159,-0.35887 -1.29591,-0.78419 -2.23295,-1.27597c-0.42532,-0.20602 -0.87723,-0.45191 -1.35572,-0.73767c-0.16614,0.61141 -0.24921,1.22281 -0.24921,1.83421z" fill="#ffece6" stroke-width="1" stroke-linecap="square"/><path d="M-3,31.11647v-32h484v32z" fill="none" stroke-width="0" stroke-linecap="butt"/></g></g></svg>