<svg version="1.1" xmlns="http://www.w3.org/2000/svg" xmlns:xlink="http://www.w3.org/1999/xlink" width="303.71937" height="33.07814" viewBox="0,0,303.71937,33.07814"><g transform="translate(-93.14032,-164.96094)"><g data-paper-data="{&quot;isPaintingLayer&quot;:true}" fill-rule="nonzero" stroke="none" stroke-width="1" stroke-linecap="square" stroke-linejoin="miter" stroke-miterlimit="10" stroke-dasharray="" stroke-dashoffset="0" style="mix-blend-mode: normal"><path d="M93.14032,188.91406l1.5625,-0.03125v-19.125l-1.5625,-0.03125v-1.125l6.17188,0.0625l4.54688,-0.39062c3.17709,0 5.63541,0.88541 7.375,2.65625c1.73959,1.77084 2.60938,4.33334 2.60938,7.6875c0,2.26041 -0.4375,4.25 -1.3125,5.96875c-0.875,1.71875 -2.1875,3.05729 -3.9375,4.01563c-1.75,0.95834 -3.88541,1.4375 -6.40625,1.4375h-9.04687zM100.90594,188.91406c2.29166,0 4.06771,-0.78646 5.32813,-2.35937c1.27084,-1.58334 1.90625,-3.96354 1.90625,-7.14062c0,-2.11459 -0.35937,-3.89062 -1.07812,-5.32812c-0.70834,-1.4375 -1.67709,-2.51041 -2.90625,-3.21875c-1.21875,-0.71875 -2.59896,-1.07812 -4.14062,-1.07812v19.125zM121.38936,180.02344l-0.125,8.98438l2.84375,0.10938v0.92188h-8.54687v-0.92187l1.1875,-0.10937l-0.09375,-11.45312l-1.21875,0.29688l-0.3125,-0.96875l5.04688,-1.5625l1.09375,3.42188c0.70833,-1.42709 1.47396,-2.53646 2.29688,-3.32812c0.46875,-0.16666 1.03646,-0.25 1.70313,-0.25c0.89583,0 1.73958,0.15625 2.53125,0.46875l-1.03125,4.17188c-0.61459,-0.13541 -1.40104,-0.25521 -2.35937,-0.35937c-0.95834,-0.10416 -1.75,-0.17709 -2.375,-0.21875zM140.21525,188.38281l-4.71875,2.20313c-0.57291,-0.40625 -0.96354,-0.96354 -1.17187,-1.67187c-0.77083,0.46875 -1.54687,0.85416 -2.32812,1.15625c-0.78125,0.30209 -1.45833,0.45313 -2.03125,0.45313c-0.875,0 -1.58854,-0.30729 -2.14062,-0.92187c-0.55208,-0.625 -0.82812,-1.41666 -0.82812,-2.375c0,-0.42709 0.04688,-0.89062 0.14063,-1.39062c0.09375,-0.5 0.21354,-0.90104 0.35938,-1.20312l6.79687,-1.09375l0.0625,-0.92187c0.04167,-0.95834 -0.16146,-1.70834 -0.60937,-2.25c-0.44791,-0.55209 -1.17187,-0.82812 -2.17187,-0.82812c-0.44791,0 -0.92187,0.05209 -1.42187,0.15625c-0.48958,0.09375 -0.90104,0.21354 -1.23437,0.35938l-0.51562,1.09375l-0.85937,-0.32812l1.46875,-4.60937c1.63542,-0.69791 3.19271,-1.04687 4.67188,-1.04687c1.51042,0 2.74479,0.40104 3.70313,1.20313c0.95834,0.79166 1.4375,2.04166 1.4375,3.75l-0.03125,0.64063l-0.3125,4.32813l-0.0625,1.14063c0,0.38541 0.03125,0.69271 0.09375,0.92188c0.0625,0.21875 0.16667,0.44791 0.3125,0.6875l1,-0.39062zM132.94963,188.21094c0.33334,0 0.72396,-0.125 1.17188,-0.375l-0.03125,-0.67187l0.03125,-0.70312l0.10938,-1.82812l-2.46875,0.57813c-0.08333,0.27084 -0.125,0.64063 -0.125,1.10938c0,0.64584 0.125,1.125 0.375,1.4375c0.26042,0.30209 0.57292,0.45313 0.9375,0.45313zM142.70816,168.88281l4.09375,-0.92187v3.64063l-4.09375,0.60938zM147.11441,189.00781l1.1875,0.10938v0.92188h-6.875v-0.92187l1.1875,-0.10937l-0.10937,-11.39062l-1.20312,0.26563l-0.32812,-0.9375l5.79688,-1.78125l0.45313,0.76563zM164.36455,175.63281v1.03125l-0.92187,0.03125l-5.67187,13.15625l-3.23437,0.1875l-5.04687,-13.34375l-0.92187,-0.03125v-1.03125h7.57813v1.03125l-1.34375,0.03125l2.78125,9.85938l2.625,-9.85937l-1.34375,-0.03125v-1.03125zM172.14195,175.16406c1.875,0 3.34896,0.67709 4.42188,2.03125c1.08334,1.35416 1.61459,3.18229 1.59375,5.48438l-8.82812,0.28125c0.14584,1.26041 0.58334,2.22396 1.3125,2.89063c0.72916,0.65625 1.6875,0.98438 2.875,0.98438c1.66666,0 3.02084,-0.45834 4.0625,-1.375l0.57813,0.51563c-0.75,1.42709 -1.76041,2.54166 -3.03125,3.34375c-1.26041,0.80209 -2.60416,1.20313 -4.03125,1.20313c-1.94791,0 -3.49479,-0.64584 -4.64062,-1.9375c-1.13541,-1.29166 -1.70312,-3.03646 -1.70312,-5.23437c0,-1.30209 0.26041,-2.59375 0.78125,-3.875c0.52084,-1.28125 1.1875,-2.34896 2,-3.20312c0.55209,-0.3125 1.26563,-0.57291 2.14063,-0.78125c0.875,-0.21875 1.69791,-0.32812 2.46875,-0.32812zM173.4232,181.61719c-0.02084,-1.48959 -0.23437,-2.67187 -0.64062,-3.54687c-0.40625,-0.875 -0.97916,-1.39584 -1.71875,-1.5625c-0.54166,0.55209 -0.97916,1.32291 -1.3125,2.3125c-0.32291,0.98959 -0.48437,2.01041 -0.48437,3.0625v0.09375zM184.94147,180.02344l-0.125,8.98438l2.84375,0.10938v0.92188h-8.54687v-0.92187l1.1875,-0.10937l-0.09375,-11.45312l-1.21875,0.29688l-0.3125,-0.96875l5.04688,-1.5625l1.09375,3.42188c0.70833,-1.42709 1.47396,-2.53646 2.29688,-3.32812c0.46875,-0.16666 1.03646,-0.25 1.70313,-0.25c0.89583,0 1.73958,0.15625 2.53125,0.46875l-1.03125,4.17188c-0.61459,-0.13541 -1.40104,-0.25521 -2.35937,-0.35937c-0.95834,-0.10416 -1.75,-0.17709 -2.375,-0.21875zM193.20424,168.88281l4.09373,-0.92187v3.64063l-4.09373,0.60938zM197.61047,189.00781l1.1875,0.10938v0.92188h-6.87498v-0.92187l1.1875,-0.10937l-0.10937,-11.39062l-1.20312,0.26563l-0.32812,-0.9375l5.79686,-1.78125l0.45313,0.76563zM214.12625,168.60156v3.45313l-6.07812,17.98438h-6.32812l10.29688,-17.3125l-11.14062,1.5l-0.09375,1.25h-1.01562v-6.87501zM229.32626,168.60156v3.45313l-6.07812,17.98438h-6.32812l10.29688,-17.3125l-11.14062,1.5l-0.09375,1.25h-1.01562v-6.87501zM230.08942,181.11719l10.01563,-0.26562l-0.3125,1.46875h-9.85937zM242.19882,188.91406l1.8125,-0.09375l-0.15625,-17.5625l-1.85937,0.40625l-0.3125,-1.10937l7.35938,-1.95312l0.45313,0.76563l-0.17187,19.45313l1.82813,0.09375v1.125h-8.95312zM252.85486,188.91406l1.8125,-0.09375l-0.15625,-17.5625l-1.85937,0.40625l-0.3125,-1.10937l7.35938,-1.95312l0.45313,0.76563l-0.17187,19.45313l1.82813,0.09375v1.125h-8.95312zM277.59153,175.16406c1.22916,0 2.31771,0.28125 3.26563,0.84375c0.95833,0.5625 1.69791,1.34375 2.21875,2.34375c0.52083,0.98959 0.78125,2.11459 0.78125,3.375c0,1.08334 -0.17709,2.23959 -0.53125,3.46875c-0.35417,1.21875 -0.78646,2.16146 -1.29687,2.82813c-0.40625,0.57291 -1.14062,1.13541 -2.20312,1.6875c-1.0625,0.54166 -1.95834,0.8125 -2.6875,0.8125c-0.53125,0 -1.39584,-0.09896 -2.59375,-0.29687l0.0625,6.78125l2.46875,0.10938v0.92188h-8.48437v-0.92187l1.1875,-0.10937l0.15625,-19.51562l-1.21875,0.29688l-0.3125,-0.96875l4.95313,-1.5625l1.03125,3.64063zM278.48215,188.08594c0.53125,-1.21875 0.79688,-2.70312 0.79688,-4.45312c0,-0.97916 -0.16146,-1.82812 -0.48437,-2.54687c-0.3125,-0.72916 -0.73437,-1.28646 -1.26562,-1.67187c-0.52084,-0.38541 -1.07812,-0.57812 -1.67187,-0.57812l-1.40625,1.40625l0.0625,6.5c1.40625,0.66666 2.72916,1.11459 3.96875,1.34375zM291.02167,180.02344l-0.125,8.98438l2.84375,0.10938v0.92188h-8.54687v-0.92187l1.1875,-0.10937l-0.09375,-11.45312l-1.21875,0.29688l-0.3125,-0.96875l5.04688,-1.5625l1.09375,3.42188c0.70834,-1.42709 1.47396,-2.53646 2.29688,-3.32812c0.46875,-0.16666 1.03646,-0.25 1.70313,-0.25c0.89584,0 1.73959,0.15625 2.53125,0.46875l-1.03125,4.17188c-0.61458,-0.13541 -1.40104,-0.25521 -2.35937,-0.35937c-0.95833,-0.10416 -1.75,-0.17709 -2.375,-0.21875zM304.3982,175.16406c1.875,0 3.34896,0.67709 4.42188,2.03125c1.08333,1.35416 1.61458,3.18229 1.59375,5.48438l-8.82812,0.28125c0.14583,1.26041 0.58333,2.22396 1.3125,2.89063c0.72916,0.65625 1.6875,0.98438 2.875,0.98438c1.66666,0 3.02083,-0.45834 4.0625,-1.375l0.57813,0.51563c-0.75,1.42709 -1.76042,2.54166 -3.03125,3.34375c-1.26042,0.80209 -2.60417,1.20313 -4.03125,1.20313c-1.94792,0 -3.49479,-0.64584 -4.64062,-1.9375c-1.13542,-1.29166 -1.70312,-3.03646 -1.70312,-5.23437c0,-1.30209 0.26041,-2.59375 0.78125,-3.875c0.52083,-1.28125 1.1875,-2.34896 2,-3.20312c0.55208,-0.3125 1.26563,-0.57291 2.14063,-0.78125c0.875,-0.21875 1.69791,-0.32812 2.46875,-0.32812zM305.67945,181.61719c-0.02084,-1.48959 -0.23437,-2.67187 -0.64062,-3.54687c-0.40625,-0.875 -0.97917,-1.39584 -1.71875,-1.5625c-0.54167,0.55209 -0.97917,1.32291 -1.3125,2.3125c-0.32292,0.98959 -0.48437,2.01041 -0.48437,3.0625v0.09375zM316.17398,178.03906c0,0.57291 0.22917,1.09375 0.6875,1.5625c0.45834,0.46875 1.15625,1.02604 2.09375,1.67188c1.15625,0.79166 2.03125,1.51041 2.625,2.15625c0.60417,0.63541 0.90625,1.42188 0.90625,2.35938c0,0.82291 -0.25,1.59895 -0.75,2.32813c-0.48958,0.72916 -1.18229,1.3125 -2.07812,1.75c-0.89583,0.4375 -1.91666,0.65625 -3.0625,0.65625c-1.11458,0 -2.16666,-0.26562 -3.15625,-0.79687c-0.98958,-0.54166 -1.71875,-1.22916 -2.1875,-2.0625l2.75,-2.20312c0.85417,1.60416 1.72917,2.91666 2.625,3.9375c0.36459,-0.28125 0.66667,-0.60416 0.90625,-0.96875c0.25,-0.375 0.375,-0.74479 0.375,-1.10937c0,-0.59375 -0.21875,-1.10937 -0.65625,-1.54687c-0.4375,-0.4375 -1.11458,-0.96875 -2.03125,-1.59375c-0.75,-0.48959 -1.34896,-0.91666 -1.79687,-1.28125c-0.44791,-0.36459 -0.82812,-0.80209 -1.14062,-1.3125c-0.30208,-0.51041 -0.45312,-1.08334 -0.45312,-1.71875c0,-0.79166 0.26042,-1.54687 0.78125,-2.26562c0.52084,-0.72916 1.25,-1.31771 2.1875,-1.76562c0.9375,-0.44791 2.00521,-0.67187 3.20313,-0.67187c0.91667,0 1.78646,0.19791 2.60938,0.59375c0.82292,0.38541 1.48959,0.88021 2,1.48438l-2.5,2.45313c-1.02083,-1.29166 -2.15104,-2.45312 -3.39062,-3.48437c-0.36458,0.46875 -0.54687,1.07813 -0.54687,1.82813zM315.1271,190.03906h0.03125zM331.15024,175.16406c1.875,0 3.34896,0.67709 4.42188,2.03125c1.08333,1.35416 1.61458,3.18229 1.59375,5.48438l-8.82812,0.28125c0.14583,1.26041 0.58333,2.22396 1.3125,2.89063c0.72916,0.65625 1.6875,0.98438 2.875,0.98438c1.66666,0 3.02083,-0.45834 4.0625,-1.375l0.57813,0.51563c-0.75,1.42709 -1.76042,2.54166 -3.03125,3.34375c-1.26042,0.80209 -2.60417,1.20313 -4.03125,1.20313c-1.94792,0 -3.49479,-0.64584 -4.64062,-1.9375c-1.13542,-1.29166 -1.70312,-3.03646 -1.70312,-5.23437c0,-1.30209 0.26041,-2.59375 0.78125,-3.875c0.52083,-1.28125 1.1875,-2.34896 2,-3.20312c0.55208,-0.3125 1.26563,-0.57291 2.14063,-0.78125c0.875,-0.21875 1.69791,-0.32812 2.46875,-0.32812zM332.43149,181.61719c-0.02084,-1.48959 -0.23437,-2.67187 -0.64062,-3.54687c-0.40625,-0.875 -0.97917,-1.39584 -1.71875,-1.5625c-0.54167,0.55209 -0.97917,1.32291 -1.3125,2.3125c-0.32292,0.98959 -0.48437,2.01041 -0.48437,3.0625v0.09375zM353.59039,189.11719v0.92188h-6.85937v-0.92187l1.1875,-0.10937v-6.75c0,-0.9375 -0.26041,-1.66146 -0.78125,-2.17187c-0.52083,-0.51041 -1.23958,-0.77604 -2.15625,-0.79687l-1.03125,1.04688l-0.125,8.67188l1.1875,0.10938v0.92188h-6.89062v-0.92187l1.1875,-0.10937l-0.09375,-11.45312l-1.21875,0.29688l-0.3125,-0.96875l5.04688,-1.5625l1.125,3.57813l2.65625,-3.79687c2.03125,0 3.52604,0.47916 4.48438,1.4375c0.95834,0.95834 1.4375,2.4375 1.4375,4.4375v8.03125zM364.33304,187.50781l-3.90625,2.8125c-1.57292,0 -2.71875,-0.38541 -3.4375,-1.15625c-0.70834,-0.78125 -1.0625,-2.03646 -1.0625,-3.76562v-8.51562h-2.15625v-1.01562c0.89583,-0.48959 1.86979,-1.1875 2.92188,-2.09375c1.0625,-0.90625 2.03125,-1.86459 2.90625,-2.875l1.0625,0.32813l-0.17187,4.40625h3.75v1.34375l-3.8125,-0.0625v7.35938c0,1.03125 0.19791,1.78125 0.59375,2.25c0.39583,0.46875 0.92708,0.70313 1.59375,0.70313l1.17188,-0.67187zM369.77405,178.03906c0,0.57291 0.22916,1.09375 0.6875,1.5625c0.45833,0.46875 1.15625,1.02604 2.09375,1.67188c1.15625,0.79166 2.03125,1.51041 2.625,2.15625c0.60416,0.63541 0.90625,1.42188 0.90625,2.35938c0,0.82291 -0.25,1.59895 -0.75,2.32813c-0.48959,0.72916 -1.18229,1.3125 -2.07812,1.75c-0.89584,0.4375 -1.91667,0.65625 -3.0625,0.65625c-1.11459,0 -2.16667,-0.26562 -3.15625,-0.79687c-0.98959,-0.54166 -1.71875,-1.22916 -2.1875,-2.0625l2.75,-2.20312c0.85416,1.60416 1.72916,2.91666 2.625,3.9375c0.36458,-0.28125 0.66666,-0.60416 0.90625,-0.96875c0.25,-0.375 0.375,-0.74479 0.375,-1.10937c0,-0.59375 -0.21875,-1.10937 -0.65625,-1.54687c-0.4375,-0.4375 -1.11459,-0.96875 -2.03125,-1.59375c-0.75,-0.48959 -1.34896,-0.91666 -1.79687,-1.28125c-0.44792,-0.36459 -0.82812,-0.80209 -1.14062,-1.3125c-0.30209,-0.51041 -0.45312,-1.08334 -0.45312,-1.71875c0,-0.79166 0.26041,-1.54687 0.78125,-2.26562c0.52083,-0.72916 1.25,-1.31771 2.1875,-1.76562c0.9375,-0.44791 2.00521,-0.67187 3.20313,-0.67187c0.91666,0 1.78646,0.19791 2.60938,0.59375c0.82291,0.38541 1.48958,0.88021 2,1.48438l-2.5,2.45313c-1.02084,-1.29166 -2.15104,-2.45312 -3.39062,-3.48437c-0.36459,0.46875 -0.54687,1.07813 -0.54687,1.82813zM368.72718,190.03906h0.03125zM384.98468,186.19531l4.67188,-1.04687v4.53125l-4.67187,0.71875zM392.18781,186.19531l4.67188,-1.04687v4.53125l-4.67188,0.71875zM377.78156,186.19531l4.67188,-1.04687v4.53125l-4.67187,0.71875z" fill="#000000"/><path d="M93.14032,185.91406l1.5625,-0.03125v-19.125l-1.5625,-0.03125v-1.125l6.17188,0.0625l4.54688,-0.39062c3.17709,0 5.63541,0.88541 7.375,2.65625c1.73959,1.77084 2.60938,4.33334 2.60938,7.6875c0,2.26041 -0.4375,4.25 -1.3125,5.96875c-0.875,1.71875 -2.1875,3.05729 -3.9375,4.01563c-1.75,0.95834 -3.88541,1.4375 -6.40625,1.4375h-9.04687zM100.90594,185.91406c2.29166,0 4.06771,-0.78646 5.32813,-2.35937c1.27084,-1.58334 1.90625,-3.96354 1.90625,-7.14062c0,-2.11459 -0.35937,-3.89062 -1.07812,-5.32812c-0.70834,-1.4375 -1.67709,-2.51041 -2.90625,-3.21875c-1.21875,-0.71875 -2.59896,-1.07812 -4.14062,-1.07812v19.125zM121.38936,177.02344l-0.125,8.98438l2.84375,0.10938v0.92188h-8.54687v-0.92187l1.1875,-0.10937l-0.09375,-11.45312l-1.21875,0.29688l-0.3125,-0.96875l5.04688,-1.5625l1.09375,3.42188c0.70833,-1.42709 1.47396,-2.53646 2.29688,-3.32812c0.46875,-0.16666 1.03646,-0.25 1.70313,-0.25c0.89583,0 1.73958,0.15625 2.53125,0.46875l-1.03125,4.17188c-0.61459,-0.13541 -1.40104,-0.25521 -2.35937,-0.35937c-0.95834,-0.10416 -1.75,-0.17709 -2.375,-0.21875zM140.21525,185.38281l-4.71875,2.20313c-0.57291,-0.40625 -0.96354,-0.96354 -1.17187,-1.67187c-0.77083,0.46875 -1.54687,0.85416 -2.32812,1.15625c-0.78125,0.30209 -1.45833,0.45313 -2.03125,0.45313c-0.875,0 -1.58854,-0.30729 -2.14062,-0.92187c-0.55208,-0.625 -0.82812,-1.41666 -0.82812,-2.375c0,-0.42709 0.04688,-0.89062 0.14063,-1.39062c0.09375,-0.5 0.21354,-0.90104 0.35938,-1.20312l6.79687,-1.09375l0.0625,-0.92187c0.04167,-0.95834 -0.16146,-1.70834 -0.60937,-2.25c-0.44791,-0.55209 -1.17187,-0.82812 -2.17187,-0.82812c-0.44791,0 -0.92187,0.05209 -1.42187,0.15625c-0.48958,0.09375 -0.90104,0.21354 -1.23437,0.35938l-0.51562,1.09375l-0.85937,-0.32812l1.46875,-4.60937c1.63542,-0.69791 3.19271,-1.04687 4.67188,-1.04687c1.51042,0 2.74479,0.40104 3.70313,1.20313c0.95834,0.79166 1.4375,2.04166 1.4375,3.75l-0.03125,0.64063l-0.3125,4.32813l-0.0625,1.14063c0,0.38541 0.03125,0.69271 0.09375,0.92188c0.0625,0.21875 0.16667,0.44791 0.3125,0.6875l1,-0.39062zM132.94963,185.21094c0.33334,0 0.72396,-0.125 1.17188,-0.375l-0.03125,-0.67187l0.03125,-0.70312l0.10938,-1.82812l-2.46875,0.57813c-0.08333,0.27084 -0.125,0.64063 -0.125,1.10938c0,0.64584 0.125,1.125 0.375,1.4375c0.26042,0.30209 0.57292,0.45313 0.9375,0.45313zM142.70816,165.88281l4.09375,-0.92187v3.64063l-4.09375,0.60938zM147.11441,186.00781l1.1875,0.10938v0.92188h-6.875v-0.92187l1.1875,-0.10937l-0.10937,-11.39062l-1.20312,0.26563l-0.32812,-0.9375l5.79688,-1.78125l0.45313,0.76563zM164.36455,172.63281v1.03125l-0.92187,0.03125l-5.67187,13.15625l-3.23437,0.1875l-5.04687,-13.34375l-0.92187,-0.03125v-1.03125h7.57813v1.03125l-1.34375,0.03125l2.78125,9.85938l2.625,-9.85937l-1.34375,-0.03125v-1.03125zM172.14195,172.16406c1.875,0 3.34896,0.67709 4.42188,2.03125c1.08334,1.35416 1.61459,3.18229 1.59375,5.48438l-8.82812,0.28125c0.14584,1.26041 0.58334,2.22396 1.3125,2.89063c0.72916,0.65625 1.6875,0.98438 2.875,0.98438c1.66666,0 3.02084,-0.45834 4.0625,-1.375l0.57813,0.51563c-0.75,1.42709 -1.76041,2.54166 -3.03125,3.34375c-1.26041,0.80209 -2.60416,1.20313 -4.03125,1.20313c-1.94791,0 -3.49479,-0.64584 -4.64062,-1.9375c-1.13541,-1.29166 -1.70312,-3.03646 -1.70312,-5.23437c0,-1.30209 0.26041,-2.59375 0.78125,-3.875c0.52084,-1.28125 1.1875,-2.34896 2,-3.20312c0.55209,-0.3125 1.26563,-0.57291 2.14063,-0.78125c0.875,-0.21875 1.69791,-0.32812 2.46875,-0.32812zM173.4232,178.61719c-0.02084,-1.48959 -0.23437,-2.67187 -0.64062,-3.54687c-0.40625,-0.875 -0.97916,-1.39584 -1.71875,-1.5625c-0.54166,0.55209 -0.97916,1.32291 -1.3125,2.3125c-0.32291,0.98959 -0.48437,2.01041 -0.48437,3.0625v0.09375zM184.94147,177.02344l-0.125,8.98438l2.84375,0.10938v0.92188h-8.54687v-0.92187l1.1875,-0.10937l-0.09375,-11.45312l-1.21875,0.29688l-0.3125,-0.96875l5.04688,-1.5625l1.09375,3.42188c0.70833,-1.42709 1.47396,-2.53646 2.29688,-3.32812c0.46875,-0.16666 1.03646,-0.25 1.70313,-0.25c0.89583,0 1.73958,0.15625 2.53125,0.46875l-1.03125,4.17188c-0.61459,-0.13541 -1.40104,-0.25521 -2.35937,-0.35937c-0.95834,-0.10416 -1.75,-0.17709 -2.375,-0.21875zM193.20424,165.88281l4.09373,-0.92187v3.64063l-4.09373,0.60938zM197.61047,186.00781l1.1875,0.10938v0.92188h-6.87498v-0.92187l1.1875,-0.10937l-0.10937,-11.39062l-1.20312,0.26563l-0.32812,-0.9375l5.79686,-1.78125l0.45313,0.76563zM214.12625,165.60156v3.45313l-6.07812,17.98438h-6.32812l10.29688,-17.3125l-11.14062,1.5l-0.09375,1.25h-1.01562v-6.875zM229.32626,165.60156v3.45313l-6.07812,17.98438h-6.32812l10.29688,-17.3125l-11.14062,1.5l-0.09375,1.25h-1.01562v-6.875zM230.08942,178.11719l10.01563,-0.26562l-0.3125,1.46875h-9.85937zM242.19882,185.91406l1.8125,-0.09375l-0.15625,-17.5625l-1.85937,0.40625l-0.3125,-1.10937l7.35938,-1.95312l0.45313,0.76563l-0.17187,19.45313l1.82813,0.09375v1.125h-8.95312zM252.85486,185.91406l1.8125,-0.09375l-0.15625,-17.5625l-1.85937,0.40625l-0.3125,-1.10937l7.35938,-1.95312l0.45313,0.76563l-0.17187,19.45313l1.82813,0.09375v1.125h-8.95312zM277.59153,172.16406c1.22916,0 2.31771,0.28125 3.26563,0.84375c0.95833,0.5625 1.69791,1.34375 2.21875,2.34375c0.52083,0.98959 0.78125,2.11459 0.78125,3.375c0,1.08334 -0.17709,2.23959 -0.53125,3.46875c-0.35417,1.21875 -0.78646,2.16146 -1.29687,2.82813c-0.40625,0.57291 -1.14062,1.13541 -2.20312,1.6875c-1.0625,0.54166 -1.95834,0.8125 -2.6875,0.8125c-0.53125,0 -1.39584,-0.09896 -2.59375,-0.29687l0.0625,6.78125l2.46875,0.10938v0.92188h-8.48437v-0.92187l1.1875,-0.10937l0.15625,-19.51562l-1.21875,0.29688l-0.3125,-0.96875l4.95313,-1.5625l1.03125,3.64063zM278.48215,185.08594c0.53125,-1.21875 0.79688,-2.70312 0.79688,-4.45312c0,-0.97916 -0.16146,-1.82812 -0.48437,-2.54687c-0.3125,-0.72916 -0.73437,-1.28646 -1.26562,-1.67187c-0.52084,-0.38541 -1.07812,-0.57812 -1.67187,-0.57812l-1.40625,1.40625l0.0625,6.5c1.40625,0.66666 2.72916,1.11459 3.96875,1.34375zM291.02167,177.02344l-0.125,8.98438l2.84375,0.10938v0.92188h-8.54687v-0.92187l1.1875,-0.10937l-0.09375,-11.45312l-1.21875,0.29688l-0.3125,-0.96875l5.04688,-1.5625l1.09375,3.42188c0.70834,-1.42709 1.47396,-2.53646 2.29688,-3.32812c0.46875,-0.16666 1.03646,-0.25 1.70313,-0.25c0.89584,0 1.73959,0.15625 2.53125,0.46875l-1.03125,4.17188c-0.61458,-0.13541 -1.40104,-0.25521 -2.35937,-0.35937c-0.95833,-0.10416 -1.75,-0.17709 -2.375,-0.21875zM304.3982,172.16406c1.875,0 3.34896,0.67709 4.42188,2.03125c1.08333,1.35416 1.61458,3.18229 1.59375,5.48438l-8.82812,0.28125c0.14583,1.26041 0.58333,2.22396 1.3125,2.89063c0.72916,0.65625 1.6875,0.98438 2.875,0.98438c1.66666,0 3.02083,-0.45834 4.0625,-1.375l0.57813,0.51563c-0.75,1.42709 -1.76042,2.54166 -3.03125,3.34375c-1.26042,0.80209 -2.60417,1.20313 -4.03125,1.20313c-1.94792,0 -3.49479,-0.64584 -4.64062,-1.9375c-1.13542,-1.29166 -1.70312,-3.03646 -1.70312,-5.23437c0,-1.30209 0.26041,-2.59375 0.78125,-3.875c0.52083,-1.28125 1.1875,-2.34896 2,-3.20312c0.55208,-0.3125 1.26563,-0.57291 2.14063,-0.78125c0.875,-0.21875 1.69791,-0.32812 2.46875,-0.32812zM305.67945,178.61719c-0.02084,-1.48959 -0.23437,-2.67187 -0.64062,-3.54687c-0.40625,-0.875 -0.97917,-1.39584 -1.71875,-1.5625c-0.54167,0.55209 -0.97917,1.32291 -1.3125,2.3125c-0.32292,0.98959 -0.48437,2.01041 -0.48437,3.0625v0.09375zM316.17398,175.03906c0,0.57291 0.22917,1.09375 0.6875,1.5625c0.45834,0.46875 1.15625,1.02604 2.09375,1.67188c1.15625,0.79166 2.03125,1.51041 2.625,2.15625c0.60417,0.63541 0.90625,1.42188 0.90625,2.35938c0,0.82291 -0.25,1.59896 -0.75,2.32813c-0.48958,0.72916 -1.18229,1.3125 -2.07812,1.75c-0.89583,0.4375 -1.91666,0.65625 -3.0625,0.65625c-1.11458,0 -2.16666,-0.26562 -3.15625,-0.79687c-0.98958,-0.54166 -1.71875,-1.22916 -2.1875,-2.0625l2.75,-2.20312c0.85417,1.60416 1.72917,2.91666 2.625,3.9375c0.36459,-0.28125 0.66667,-0.60416 0.90625,-0.96875c0.25,-0.375 0.375,-0.74479 0.375,-1.10937c0,-0.59375 -0.21875,-1.10937 -0.65625,-1.54687c-0.4375,-0.4375 -1.11458,-0.96875 -2.03125,-1.59375c-0.75,-0.48959 -1.34896,-0.91666 -1.79687,-1.28125c-0.44791,-0.36459 -0.82812,-0.80209 -1.14062,-1.3125c-0.30208,-0.51041 -0.45312,-1.08334 -0.45312,-1.71875c0,-0.79166 0.26042,-1.54687 0.78125,-2.26562c0.52084,-0.72916 1.25,-1.31771 2.1875,-1.76562c0.9375,-0.44791 2.00521,-0.67187 3.20313,-0.67187c0.91667,0 1.78646,0.19791 2.60938,0.59375c0.82292,0.38541 1.48959,0.88021 2,1.48438l-2.5,2.45313c-1.02083,-1.29166 -2.15104,-2.45312 -3.39062,-3.48437c-0.36458,0.46875 -0.54687,1.07813 -0.54687,1.82813zM315.1271,187.03906h0.03125zM331.15024,172.16406c1.875,0 3.34896,0.67709 4.42188,2.03125c1.08333,1.35416 1.61458,3.18229 1.59375,5.48438l-8.82812,0.28125c0.14583,1.26041 0.58333,2.22396 1.3125,2.89063c0.72916,0.65625 1.6875,0.98438 2.875,0.98438c1.66666,0 3.02083,-0.45834 4.0625,-1.375l0.57813,0.51563c-0.75,1.42709 -1.76042,2.54166 -3.03125,3.34375c-1.26042,0.80209 -2.60417,1.20313 -4.03125,1.20313c-1.94792,0 -3.49479,-0.64584 -4.64062,-1.9375c-1.13542,-1.29166 -1.70312,-3.03646 -1.70312,-5.23437c0,-1.30209 0.26041,-2.59375 0.78125,-3.875c0.52083,-1.28125 1.1875,-2.34896 2,-3.20312c0.55208,-0.3125 1.26563,-0.57291 2.14063,-0.78125c0.875,-0.21875 1.69791,-0.32812 2.46875,-0.32812zM332.43149,178.61719c-0.02084,-1.48959 -0.23437,-2.67187 -0.64062,-3.54687c-0.40625,-0.875 -0.97917,-1.39584 -1.71875,-1.5625c-0.54167,0.55209 -0.97917,1.32291 -1.3125,2.3125c-0.32292,0.98959 -0.48437,2.01041 -0.48437,3.0625v0.09375zM353.59039,186.11719v0.92188h-6.85937v-0.92187l1.1875,-0.10937v-6.75c0,-0.9375 -0.26041,-1.66146 -0.78125,-2.17187c-0.52083,-0.51041 -1.23958,-0.77604 -2.15625,-0.79687l-1.03125,1.04688l-0.125,8.67188l1.1875,0.10938v0.92188h-6.89062v-0.92187l1.1875,-0.10937l-0.09375,-11.45312l-1.21875,0.29688l-0.3125,-0.96875l5.04688,-1.5625l1.125,3.57813l2.65625,-3.79687c2.03125,0 3.52604,0.47916 4.48438,1.4375c0.95834,0.95834 1.4375,2.4375 1.4375,4.4375v8.03125zM364.33304,184.50781l-3.90625,2.8125c-1.57292,0 -2.71875,-0.38541 -3.4375,-1.15625c-0.70834,-0.78125 -1.0625,-2.03646 -1.0625,-3.76562v-8.51562h-2.15625v-1.01562c0.89583,-0.48959 1.86979,-1.1875 2.92188,-2.09375c1.0625,-0.90625 2.03125,-1.86459 2.90625,-2.875l1.0625,0.32813l-0.17187,4.40625h3.75v1.34375l-3.8125,-0.0625v7.35938c0,1.03125 0.19791,1.78125 0.59375,2.25c0.39583,0.46875 0.92708,0.70313 1.59375,0.70313l1.17188,-0.67187zM369.77405,175.03906c0,0.57291 0.22916,1.09375 0.6875,1.5625c0.45833,0.46875 1.15625,1.02604 2.09375,1.67188c1.15625,0.79166 2.03125,1.51041 2.625,2.15625c0.60416,0.63541 0.90625,1.42188 0.90625,2.35938c0,0.82291 -0.25,1.59896 -0.75,2.32813c-0.48959,0.72916 -1.18229,1.3125 -2.07812,1.75c-0.89584,0.4375 -1.91667,0.65625 -3.0625,0.65625c-1.11459,0 -2.16667,-0.26562 -3.15625,-0.79687c-0.98959,-0.54166 -1.71875,-1.22916 -2.1875,-2.0625l2.75,-2.20312c0.85416,1.60416 1.72916,2.91666 2.625,3.9375c0.36458,-0.28125 0.66666,-0.60416 0.90625,-0.96875c0.25,-0.375 0.375,-0.74479 0.375,-1.10937c0,-0.59375 -0.21875,-1.10937 -0.65625,-1.54687c-0.4375,-0.4375 -1.11459,-0.96875 -2.03125,-1.59375c-0.75,-0.48959 -1.34896,-0.91666 -1.79687,-1.28125c-0.44792,-0.36459 -0.82812,-0.80209 -1.14062,-1.3125c-0.30209,-0.51041 -0.45312,-1.08334 -0.45312,-1.71875c0,-0.79166 0.26041,-1.54687 0.78125,-2.26562c0.52083,-0.72916 1.25,-1.31771 2.1875,-1.76562c0.9375,-0.44791 2.00521,-0.67187 3.20313,-0.67187c0.91666,0 1.78646,0.19791 2.60938,0.59375c0.82291,0.38541 1.48958,0.88021 2,1.48438l-2.5,2.45313c-1.02084,-1.29166 -2.15104,-2.45312 -3.39062,-3.48437c-0.36459,0.46875 -0.54687,1.07813 -0.54687,1.82813zM368.72718,187.03906h0.03125zM384.98468,183.19531l4.67188,-1.04687v4.53125l-4.67187,0.71875zM392.18781,183.19531l4.67188,-1.04687v4.53125l-4.67188,0.71875zM377.78156,183.19531l4.67188,-1.04687v4.53125l-4.67187,0.71875z" fill="#f1f6ff"/></g></g></svg>