<svg version="1.1" xmlns="http://www.w3.org/2000/svg" xmlns:xlink="http://www.w3.org/1999/xlink" width="176.2503" height="148.58074" viewBox="0,0,176.2503,148.58074"><defs><linearGradient x1="371.51486" y1="264.4063" x2="371.51486" y2="297.9063" gradientUnits="userSpaceOnUse" id="color-1"><stop offset="0" stop-color="#000000" stop-opacity="0.51765"/><stop offset="1" stop-color="#000000" stop-opacity="0"/></linearGradient><radialGradient cx="314.14981" cy="274.21639" r="19.76754" gradientUnits="userSpaceOnUse" id="color-2"><stop offset="0" stop-color="#4f5861"/><stop offset="1" stop-color="#444c54"/></radialGradient><radialGradient cx="368.18911" cy="279.51587" r="14.67703" gradientUnits="userSpaceOnUse" id="color-3"><stop offset="0" stop-color="#4f5861"/><stop offset="1" stop-color="#444c54"/></radialGradient><radialGradient cx="403.01612" cy="279.51587" r="14.67703" gradientUnits="userSpaceOnUse" id="color-4"><stop offset="0" stop-color="#4f5861"/><stop offset="1" stop-color="#444c54"/></radialGradient><radialGradient cx="314.34121" cy="270.08162" r="19.76754" gradientUnits="userSpaceOnUse" id="color-5"><stop offset="0" stop-color="#4f5861"/><stop offset="1" stop-color="#444c54"/></radialGradient><radialGradient cx="368.38052" cy="274.79669" r="14.67703" gradientUnits="userSpaceOnUse" id="color-6"><stop offset="0" stop-color="#4f5861"/><stop offset="1" stop-color="#444c54"/></radialGradient><radialGradient cx="403.20753" cy="274.79669" r="14.67703" gradientUnits="userSpaceOnUse" id="color-7"><stop offset="0" stop-color="#4f5861"/><stop offset="1" stop-color="#444c54"/></radialGradient><radialGradient cx="314.23017" cy="270.81468" r="27.50158" gradientUnits="userSpaceOnUse" id="color-8"><stop offset="0" stop-color="#000000" stop-opacity="0.50196"/><stop offset="1" stop-color="#000000" stop-opacity="0"/></radialGradient><linearGradient x1="361.15426" y1="250.54534" x2="361.15426" y2="230.97911" gradientUnits="userSpaceOnUse" id="color-9"><stop offset="0" stop-color="#000000" stop-opacity="0.3098"/><stop offset="1" stop-color="#000000" stop-opacity="0"/></linearGradient><linearGradient x1="361.34418" y1="215.29287" x2="347.49444" y2="215.29287" gradientUnits="userSpaceOnUse" id="color-10"><stop offset="0" stop-color="#000000" stop-opacity="0.20392"/><stop offset="1" stop-color="#000000" stop-opacity="0"/></linearGradient><radialGradient cx="368.19294" cy="274.58869" r="20.4194" gradientUnits="userSpaceOnUse" id="color-11"><stop offset="0" stop-color="#000000" stop-opacity="0.50196"/><stop offset="1" stop-color="#000000" stop-opacity="0"/></radialGradient><radialGradient cx="403.13104" cy="274.85794" r="20.4194" gradientUnits="userSpaceOnUse" id="color-12"><stop offset="0" stop-color="#000000" stop-opacity="0.50196"/><stop offset="1" stop-color="#000000" stop-opacity="0"/></radialGradient><linearGradient x1="395.17814" y1="192.93389" x2="395.17814" y2="202.5482" gradientUnits="userSpaceOnUse" id="color-13"><stop offset="0" stop-color="#000000" stop-opacity="0.20392"/><stop offset="1" stop-color="#000000" stop-opacity="0"/></linearGradient><linearGradient x1="288.83916" y1="215.72165" x2="302.6889" y2="215.72165" gradientUnits="userSpaceOnUse" id="color-14"><stop offset="0" stop-color="#000000" stop-opacity="0.21176"/><stop offset="1" stop-color="#000000" stop-opacity="0"/></linearGradient><linearGradient x1="361.18732" y1="206.25928" x2="361.18732" y2="227.64225" gradientUnits="userSpaceOnUse" id="color-15"><stop offset="0" stop-color="#000000" stop-opacity="0.3098"/><stop offset="1" stop-color="#000000" stop-opacity="0"/></linearGradient><linearGradient x1="411.57577" y1="242.84206" x2="430.17397" y2="242.84206" gradientUnits="userSpaceOnUse" id="color-16"><stop offset="0" stop-color="#000000" stop-opacity="0"/><stop offset="1" stop-color="#000000" stop-opacity="0.20784"/></linearGradient><linearGradient x1="455.24719" y1="277.07939" x2="441.95512" y2="280.96979" gradientUnits="userSpaceOnUse" id="color-17"><stop offset="0" stop-color="#000000" stop-opacity="0.19608"/><stop offset="1" stop-color="#000000" stop-opacity="0"/></linearGradient></defs><g transform="translate(-282.43848,-151.86215)"><g data-paper-data="{&quot;isPaintingLayer&quot;:true}" fill-rule="nonzero" stroke-linecap="butt" stroke-linejoin="miter" stroke-miterlimit="10" stroke-dasharray="" stroke-dashoffset="0" style="mix-blend-mode: normal"><path d="M289.51482,297.9063v-33.5h164v33.5z" fill="url(#color-1)" stroke="none" stroke-width="0"/><path d="M288.68849,268.89869c0,-22.16718 0,-74.53266 0,-88.52582c0,-5.7238 5.78467,-11.24006 11.22447,-11.24006c10.70637,0 30.77537,0 50.05119,0c6.79932,0 11.22444,5.7851 11.22444,11.72136c0,12.59788 0,78.6057 0,78.6057l68.85284,0.39571c0,0 13.43231,15.64605 0.88171,19.43102c-9.60023,2.89522 -69.73455,1.33343 -69.73455,1.33343c0,0 -46.79271,0 -61.27563,0c-5.4398,0 -11.22447,-4.55952 -11.22447,-11.72133z" fill="#334767" stroke-opacity="0.06667" stroke="#000000" stroke-width="12.5"/><path d="M423.91153,272.44392c-9.48565,0 -70.71349,0 -70.71349,0c0,0 0,-49.60225 0,-61.89209c0,-3.88795 2.89827,-7.67696 7.35153,-7.67696c12.62478,0 56.34978,0 63.36196,0c3.56282,0 6.42847,1.58771 8.48028,7.36175c3.27155,9.20648 11.28773,38.50681 16.55536,53.77784c1.52957,4.43428 -21.4728,8.42946 -25.03562,8.42946z" data-paper-data="{&quot;index&quot;:null}" fill="#1e2a3d" stroke="#e2ecfe" stroke-width="12.5"/><path d="M385.70606,206.66765v-23.89682h18.76917v23.89682z" fill="#474750" stroke="#e2ecfe" stroke-width="12.5"/><path d="M294.38225,274.21639c0,-10.9173 8.85022,-19.76755 19.76755,-19.76755c10.9173,0 19.76754,8.85025 19.76754,19.76755c0,10.9173 -8.85024,19.76754 -19.76754,19.76754c-10.9173,0 -19.76755,-8.85022 -19.76755,-19.76754z" fill="url(#color-2)" stroke-opacity="0.06667" stroke="#000000" stroke-width="12.5"/><path d="M353.5121,279.51587c0,-8.10589 6.57115,-14.67703 14.67703,-14.67703c8.10589,0 14.67703,6.57115 14.67703,14.67703c0,8.10589 -6.57112,14.67703 -14.67703,14.67703c-8.10589,0 -14.67703,-6.57112 -14.67703,-14.67703z" fill="url(#color-3)" stroke-opacity="0.06667" stroke="#000000" stroke-width="12.5"/><path d="M388.3391,279.51587c0,-8.10589 6.57112,-14.67703 14.67703,-14.67703c8.10589,0 14.67703,6.57115 14.67703,14.67703c0,8.10589 -6.57115,14.67703 -14.67703,14.67703c-8.10589,0 -14.67703,-6.57112 -14.67703,-14.67703z" fill="url(#color-4)" stroke-opacity="0.06667" stroke="#000000" stroke-width="12.5"/><path d="M411.5042,190.71454c0,4.3856 -7.21817,7.94082 -16.12226,7.94082c-8.90407,0 -16.12227,-3.55522 -16.12227,-7.94082c0,-4.3856 7.21818,-7.94082 16.12227,-7.94082c8.90407,0 16.12226,3.55522 16.12226,7.94082z" fill="#474750" stroke="#e2ecfe" stroke-width="12.5"/><path d="M411.5042,186.38321c0,4.3856 -7.21817,7.94079 -16.12226,7.94079c-8.90407,0 -16.12227,-3.55522 -16.12227,-7.94079c0,-4.3856 7.21818,-7.94082 16.12227,-7.94082c8.90407,0 16.12226,3.55522 16.12226,7.94082z" fill="#474750" stroke="#e2ecfe" stroke-width="12.5"/><path d="M426.95,272.41812c-0.46524,0 -1.81976,0 -1.81976,0l-0.44235,-59.0717c0,0 3.7969,-0.56014 5.43599,-1.10607c1.48336,-0.49407 3.97814,-2.02954 3.97814,-2.02954c0,0 0.39601,1.35281 0.62003,2.15918c3.05271,10.98816 9.20348,37.39169 13.34232,51.61866c1.29001,4.43428 -18.1096,8.42946 -21.11437,8.42946z" data-paper-data="{&quot;index&quot;:null}" fill="#383f45" stroke="#e2ecfe" stroke-width="12.5"/><path d="M427.40319,280.55403c-0.55162,0 -2.15768,0 -2.15768,0l-0.52451,-59.07169c0,0 4.50199,-0.56014 6.4455,-1.10609c1.75884,-0.49407 4.71695,-2.02951 4.71695,-2.02951c0,0 0.46952,1.3528 0.73516,2.15917c3.61964,10.98816 10.9127,37.39169 15.82018,51.61866c1.52957,4.43428 -21.47279,8.42946 -25.03561,8.42946z" data-paper-data="{&quot;index&quot;:null}" fill="#4f5861" stroke-opacity="0.06667" stroke="#000000" stroke-width="12.5"/><g stroke="#e2ecfe" stroke-width="10"><path d="M288.84684,256.628c0,-22.16717 0,-74.53266 0,-88.52579c0,-5.7238 5.78467,-11.24006 11.22447,-11.24006c10.70637,0 30.77537,0 50.05119,0c6.79932,0 11.22444,5.7851 11.22444,11.72133c0,18.76439 0,99.76588 0,99.76588c0,0 -46.79269,0 -61.27561,0c-5.4398,0 -11.22447,-4.55952 -11.22447,-11.72133z" fill="#28364f"/><path d="M424.10294,268.30915c-9.48565,0 -70.71349,0 -70.71349,0c0,0 0,-49.60225 0,-61.89209c0,-3.88795 2.89827,-7.67696 7.35153,-7.67696c12.62478,0 56.34978,0 63.36196,0c3.56282,0 6.42847,1.58771 8.48028,7.36175c3.27155,9.20648 11.28773,38.50681 16.55536,53.77784c1.52957,4.43428 -21.4728,8.42946 -25.03562,8.42946z" data-paper-data="{&quot;index&quot;:null}" fill="#1e2a3d"/><path d="M424.5317,275.86064c-9.48565,0 -70.71349,0 -70.71349,0c0,0 0,-49.60225 0,-61.89209c0,-3.88795 2.89827,-7.67693 7.35152,-7.67693c12.62478,0 56.34979,0 63.36197,0c3.56282,0 6.42847,1.58772 8.48028,7.36173c3.27155,9.20648 11.28772,38.50682 16.55536,53.77783c1.52957,4.43428 -21.47279,8.42946 -25.03561,8.42946z" data-paper-data="{&quot;index&quot;:null}" fill="#2d3e5a"/><path d="M288.87989,264.17951c0,-22.16718 0,-74.53266 0,-88.52582c0,-5.7238 5.78467,-11.24006 11.22447,-11.24006c10.70637,0 30.77537,0 50.05119,0c6.79932,0 11.22444,5.7851 11.22444,11.72136c0,12.59788 0,78.6057 0,78.6057l68.85284,0.39571c0,0 13.43231,15.64605 0.88171,19.43102c-9.60023,2.89522 -69.73455,1.33343 -69.73455,1.33343c0,0 -46.79271,0 -61.27563,0c-5.4398,0 -11.22447,-4.55952 -11.22447,-11.72133z" fill="#334767"/><path d="M385.89747,202.53289v-23.89682h18.76917v23.89682z" fill="#474750"/><path d="M294.57365,270.08162c0,-10.9173 8.85022,-19.76755 19.76755,-19.76755c10.9173,0 19.76754,8.85025 19.76754,19.76755c0,10.9173 -8.85024,19.76754 -19.76754,19.76754c-10.9173,0 -19.76755,-8.85022 -19.76755,-19.76754z" fill="url(#color-5)"/><path d="M353.70351,274.79669c0,-8.10589 6.57115,-14.67703 14.67703,-14.67703c8.10589,0 14.67703,6.57115 14.67703,14.67703c0,8.10589 -6.57112,14.67703 -14.67703,14.67703c-8.10589,0 -14.67703,-6.57112 -14.67703,-14.67703z" fill="url(#color-6)"/><path d="M388.53051,274.79669c0,-8.10589 6.57112,-14.67703 14.67703,-14.67703c8.10589,0 14.67703,6.57115 14.67703,14.67703c0,8.10589 -6.57115,14.67703 -14.67703,14.67703c-8.10589,0 -14.67703,-6.57112 -14.67703,-14.67703z" fill="url(#color-7)"/><path d="M411.69561,186.57977c0,4.3856 -7.21817,7.94082 -16.12226,7.94082c-8.90407,0 -16.12227,-3.55522 -16.12227,-7.94082c0,-4.3856 7.21818,-7.94082 16.12227,-7.94082c8.90407,0 16.12226,3.55522 16.12226,7.94082z" fill="#474750"/><path d="M411.69561,182.24845c0,4.3856 -7.21817,7.94079 -16.12226,7.94079c-8.90407,0 -16.12227,-3.55522 -16.12227,-7.94079c0,-4.3856 7.21818,-7.94082 16.12227,-7.94082c8.90407,0 16.12226,3.55522 16.12226,7.94082z" fill="#474750"/><path d="M427.14141,268.28335c-0.46524,0 -1.81976,0 -1.81976,0l-0.44235,-59.0717c0,0 3.7969,-0.56014 5.43599,-1.10607c1.48336,-0.49407 3.97814,-2.02954 3.97814,-2.02954c0,0 0.39601,1.35281 0.62003,2.15918c3.05271,10.98816 9.20348,37.39169 13.34232,51.61866c1.29001,4.43428 -18.1096,8.42946 -21.11437,8.42946z" data-paper-data="{&quot;index&quot;:null}" fill="#383f45"/><path d="M427.5946,275.83484c-0.55162,0 -2.15768,0 -2.15768,0l-0.52451,-59.07169c0,0 4.50199,-0.56014 6.4455,-1.10609c1.75884,-0.49407 4.71695,-2.02951 4.71695,-2.02951c0,0 0.46952,1.3528 0.73516,2.15917c3.61964,10.98816 10.9127,37.39169 15.82018,51.61866c1.52957,4.43428 -21.47279,8.42946 -25.03561,8.42946z" data-paper-data="{&quot;index&quot;:null}" fill="#4f5861"/></g><path d="M288.84684,256.628c0,-22.16717 0,-74.53266 0,-88.52579c0,-5.7238 5.78467,-11.24006 11.22447,-11.24006c10.70637,0 30.77537,0 50.05119,0c6.79932,0 11.22444,5.7851 11.22444,11.72133c0,18.76439 0,99.76588 0,99.76588c0,0 -46.79269,0 -61.27561,0c-5.4398,0 -11.22447,-4.55952 -11.22447,-11.72133z" fill="#28364f" stroke="none" stroke-width="0"/><path d="M424.10294,268.30915c-9.48565,0 -70.71349,0 -70.71349,0c0,0 0,-49.60225 0,-61.89209c0,-3.88795 2.89827,-7.67696 7.35153,-7.67696c12.62478,0 56.34978,0 63.36196,0c3.56282,0 6.42847,1.58771 8.48028,7.36175c3.27155,9.20648 11.28773,38.50681 16.55536,53.77784c1.52957,4.43428 -21.4728,8.42946 -25.03562,8.42946z" data-paper-data="{&quot;index&quot;:null}" fill="#1e2a3d" stroke="none" stroke-width="0"/><path d="M424.5317,275.86064c-9.48565,0 -70.71349,0 -70.71349,0c0,0 0,-49.60225 0,-61.89209c0,-3.88795 2.89827,-7.67693 7.35152,-7.67693c12.62478,0 56.34979,0 63.36197,0c3.56282,0 6.42847,1.58772 8.48028,7.36173c3.27155,9.20648 11.28772,38.50682 16.55536,53.77783c1.52957,4.43428 -21.47279,8.42946 -25.03561,8.42946z" data-paper-data="{&quot;index&quot;:null}" fill="#2d3e5a" stroke="none" stroke-width="0"/><path d="M288.87989,264.17951c0,-22.16718 0,-74.53266 0,-88.52582c0,-5.7238 5.78467,-11.24006 11.22447,-11.24006c10.70637,0 30.77537,0 50.05119,0c6.79932,0 11.22444,5.7851 11.22444,11.72136c0,12.59788 0,78.6057 0,78.6057l68.85284,0.39571c0,0 13.43231,15.64605 0.88171,19.43102c-9.60023,2.89522 -69.73455,1.33343 -69.73455,1.33343c0,0 -46.79271,0 -61.27563,0c-5.4398,0 -11.22447,-4.55952 -11.22447,-11.72133z" fill="#334767" stroke="none" stroke-width="0"/><path d="M289.45653,269.10625c0,-1.45721 0,-10.60484 0,-10.60484c0,0 4.62137,4.86056 9.72109,4.86056c18.832,0 132.56051,0 132.56051,0v12.8142c0,0 -112.99409,0 -132.11866,0c-5.30419,0 -10.16297,-7.06989 -10.16297,-7.06989z" fill="#353f4a" stroke="none" stroke-width="0"/><path d="M286.72864,270.81468c0,-15.18869 12.31286,-27.50155 27.50155,-27.50155c15.18869,0 27.50158,12.31286 27.50158,27.50155c0,15.18869 -12.31286,27.50158 -27.50158,27.50158c-15.18869,0 -27.50155,-12.31286 -27.50155,-27.50158z" fill="url(#color-8)" stroke="none" stroke-width="0"/><path d="M361.45784,256.65326v-6.3313h72.8099v6.3313z" fill="#2a2b42" stroke="none" stroke-width="0"/><path d="M428.42429,230.97911l4.35279,15.28608c0,0 -5.44581,4.2801 -6.98891,4.2801c-11.11014,0 -64.63388,0 -64.63388,0v-19.56624z" data-paper-data="{&quot;index&quot;:null}" fill="url(#color-9)" stroke="none" stroke-width="0"/><path d="M385.89747,202.53289v-23.89682h18.76917v23.89682z" fill="#474750" stroke="none" stroke-width="0"/><path d="M312.55539,196.35232c0,-3.82447 0,-7.84329 0,-10.19264c0,-6.58954 5.42757,-9.68841 9.77153,-9.68841c8.69408,0 39.14198,0 39.14198,0v29.72437c0,0 -30.44792,0 -39.14198,0c-4.34393,0 -9.77153,-3.20489 -9.77153,-9.84331z" fill="#2a2b42" stroke="none" stroke-width="0"/><path d="M294.24807,206.1698c-8.69408,0 -5.78426,0 -5.78426,0v-29.72437c0,0 -2.90982,0 5.78426,0c4.34393,0 9.77153,3.09885 9.77153,9.68841c0,2.34937 0,6.36818 0,10.19265c0,6.63842 -5.42757,9.84333 -9.77153,9.84333z" data-paper-data="{&quot;index&quot;:null}" fill="#2a2b42" stroke="none" stroke-width="0"/><path d="M347.49444,256.86564v-99.93941c0,0 1.7991,0 3.16566,0c4.88477,0 10.68404,5.27745 10.68404,10.68406c0,6.12516 0,89.35965 0,89.35965z" data-paper-data="{&quot;index&quot;:null}" fill="url(#color-10)" stroke="none" stroke-width="0"/><path d="M347.77353,274.58869c0,-11.27732 9.14206,-20.41938 20.41941,-20.41938c11.27732,0 20.4194,9.14206 20.4194,20.41938c0,11.27732 -9.14205,20.41941 -20.4194,20.41941c-11.27732,0 -20.41941,-9.14205 -20.41941,-20.41941z" fill="url(#color-11)" stroke="none" stroke-width="0"/><path d="M382.71167,274.85794c0,-11.27732 9.14209,-20.41938 20.4194,-20.41938c11.27732,0 20.4194,9.14206 20.4194,20.41938c0,11.27732 -9.14208,20.41938 -20.4194,20.41938c-11.27732,0 -20.4194,-9.14205 -20.4194,-20.41938z" fill="url(#color-12)" stroke="none" stroke-width="0"/><path d="M385.85516,202.5482v-9.61432h18.64599v9.61432z" fill="url(#color-13)" stroke="none" stroke-width="0"/><g fill="#474750" stroke="none" stroke-width="0"><path d="M411.69561,186.57977c0,4.3856 -7.21817,7.94082 -16.12226,7.94082c-8.90407,0 -16.12227,-3.55522 -16.12227,-7.94082c0,-4.3856 7.21818,-7.94082 16.12227,-7.94082c8.90407,0 16.12226,3.55522 16.12226,7.94082z"/><path d="M411.69561,182.24845c0,4.3856 -7.21817,7.94079 -16.12226,7.94079c-8.90407,0 -16.12227,-3.55522 -16.12227,-7.94079c0,-4.3856 7.21818,-7.94082 16.12227,-7.94082c8.90407,0 16.12226,3.55522 16.12226,7.94082z"/><path d="M379.36441,187.06324v-5.03347h32.43112v5.03347z"/></g><path d="M405.51499,180.60005c0,2.21757 -4.56338,4.01528 -10.19265,4.01528c-5.62924,0 -10.19265,-1.79771 -10.19265,-4.01528c0,-2.21757 4.56341,-4.01528 10.19265,-4.01528c5.62924,0 10.19265,1.79771 10.19265,4.01528z" fill="#14141f" stroke="none" stroke-width="0"/><path d="M288.83916,264.19561c0,-23.67347 0,-82.62558 0,-96.15654c0,-5.40661 5.79929,-10.68406 10.68406,-10.68406c1.36656,0 3.16566,0 3.16566,0v116.73328c0,0 -3.50671,0 -5.53989,0c-2.4901,0 -8.30982,-3.76424 -8.30982,-9.89265z" fill="url(#color-14)" stroke="none" stroke-width="0"/><path d="M361.18732,227.64225v-21.38296c0,0 53.52372,0 64.63386,0c1.54311,0 6.98891,4.67751 6.98891,4.67751l-4.35276,16.70542z" fill="url(#color-15)" stroke="none" stroke-width="0"/><path d="M411.57577,276.47704v-67.27004h18.5982v67.27004z" fill="url(#color-16)" stroke="none" stroke-width="0"/><path d="M427.14141,268.28335c-0.46524,0 -1.81976,0 -1.81976,0l-0.44235,-59.0717c0,0 3.7969,-0.56014 5.43599,-1.10607c1.48336,-0.49407 3.97814,-2.02954 3.97814,-2.02954c0,0 0.39601,1.35281 0.62003,2.15918c3.05271,10.98816 9.20348,37.39169 13.34232,51.61866c1.29001,4.43428 -18.1096,8.42946 -21.11437,8.42946z" data-paper-data="{&quot;index&quot;:null}" fill="#383f45" stroke="none" stroke-width="0"/><path d="M427.5946,275.83484c-0.55162,0 -2.15768,0 -2.15768,0l-0.52451,-59.07169c0,0 4.50199,-0.56014 6.4455,-1.10609c1.75884,-0.49407 4.71695,-2.02951 4.71695,-2.02951c0,0 0.46952,1.3528 0.73516,2.15917c3.61964,10.98816 10.9127,37.39169 15.82018,51.61866c1.52957,4.43428 -21.47279,8.42946 -25.03561,8.42946z" data-paper-data="{&quot;index&quot;:null}" fill="#4f5861" stroke="none" stroke-width="0"/><path d="M432.87111,266.10222v-6.75662c0,0 9.01527,-1.58059 11.59149,-2.2049c4.02321,-0.97495 4.00611,-2.21979 4.00611,-2.21979l1.84737,5.79382c0,0 -0.88227,1.62157 -4.72591,2.62765c-3.18495,0.83366 -12.71902,2.75984 -12.71902,2.75984z" fill="#2a2e33" stroke="none" stroke-width="1"/><path d="M432.61121,247.99568c0,0 7.14116,-0.97553 8.72046,-1.35824c4.02321,-0.97495 4.00609,-2.21979 4.00609,-2.21979l1.84737,5.79382c0,0 -0.88227,1.62157 -4.72591,2.62765c-1.99212,0.52146 -9.68332,1.82433 -9.68332,1.82433z" fill="#2a2e33" stroke="none" stroke-width="1"/><path d="M432.518,237.18214c0,0 4.52593,-0.62589 5.68276,-0.90623c4.02321,-0.97495 4.00609,-2.21979 4.00609,-2.21979l1.84737,5.79382c0,0 -0.88227,1.62157 -4.72591,2.62765c-1.52767,0.39988 -6.64539,1.19524 -6.64539,1.19524z" fill="#2a2e33" stroke="none" stroke-width="1"/><path d="M366.08887,213.64531c0,-1.76996 1.43483,-3.20478 3.20478,-3.20478c1.76995,0 3.20478,1.43482 3.20478,3.20478c0,1.76996 -1.43483,3.20479 -3.20478,3.20479c-1.76995,0 -3.20478,-1.43483 -3.20478,-3.20479z" fill-opacity="0.24314" fill="#000000" stroke="none" stroke-width="0"/><path d="M366.06456,242.46397c0,-1.76996 1.4348,-3.20479 3.20475,-3.20479c1.76995,0 3.20479,1.43483 3.20479,3.20479c0,1.76996 -1.43483,3.20478 -3.20479,3.20478c-1.76995,0 -3.20475,-1.43482 -3.20475,-3.20478z" fill-opacity="0.24314" fill="#000000" stroke="none" stroke-width="0"/><path d="M413.84487,213.62099c0,-1.76996 1.4348,-3.20478 3.20476,-3.20478c1.76995,0 3.20478,1.43482 3.20478,3.20478c0,1.76996 -1.43483,3.20478 -3.20478,3.20478c-1.76995,0 -3.20476,-1.43482 -3.20476,-3.20478z" fill-opacity="0.24314" fill="#000000" stroke="none" stroke-width="0"/><path d="M413.82056,242.43962c0,-1.76996 1.43483,-3.20476 3.20479,-3.20476c1.76995,0 3.20478,1.4348 3.20478,3.20476c0,1.76996 -1.43482,3.20478 -3.20478,3.20478c-1.76995,0 -3.20479,-1.43482 -3.20479,-3.20478z" fill-opacity="0.24314" fill="#000000" stroke="none" stroke-width="0"/><path d="M439.5746,273.17197l-14.01475,-48.21879l0.68901,-15.65557l7.88547,-2.81523l18.62117,62.08381c0,0 -3.05867,2.31446 -7.0494,3.3993c-2.0783,0.56498 -6.13151,1.2065 -6.13151,1.2065z" data-paper-data="{&quot;index&quot;:null}" fill="url(#color-17)" stroke="none" stroke-width="0"/></g></g></svg>