<svg version="1.1" xmlns="http://www.w3.org/2000/svg" xmlns:xlink="http://www.w3.org/1999/xlink" width="122.82384" height="48.20344" viewBox="0,0,122.82384,48.20344"><g transform="translate(-62.89676,-281.86217)"><g data-paper-data="{&quot;isPaintingLayer&quot;:true}" fill-rule="nonzero" stroke="none" stroke-linejoin="miter" stroke-miterlimit="10" stroke-dasharray="" stroke-dashoffset="0" style="mix-blend-mode: normal"><path d="M62.89676,330.06561v-48.20344h122.82384v48.20344z" fill-opacity="0.06667" fill="#000000" stroke-width="0" stroke-linecap="butt"/><path d="M65.6955,322.84995l1.05208,-0.0167v-12.78363l-1.05208,-0.02505v-0.74313l4.12483,0.04176l3.03935,-0.25885c2.12087,0 3.76022,0.59285 4.91807,1.77853c1.16341,1.18011 1.74512,2.88906 1.74512,5.12682c0,1.50855 -0.29224,2.83895 -0.87673,3.99123c-0.57892,1.14671 -1.45287,2.04015 -2.62185,2.68031c-1.16898,0.64016 -2.59403,0.96023 -4.27513,0.96023h-6.05364zM70.88911,322.84995c1.52525,0 2.71093,-0.52604 3.55704,-1.57812c0.85169,-1.05208 1.27754,-2.64134 1.27754,-4.76776c0,-1.40834 -0.23937,-2.59403 -0.71809,-3.55704c-0.47872,-0.96301 -1.12723,-1.68111 -1.94552,-2.15427c-0.81829,-0.47872 -1.73955,-0.71809 -2.7638,-0.71809v12.77528zM89.19132,322.49091l-3.1479,1.47793c-0.3841,-0.27276 -0.64572,-0.64572 -0.78489,-1.11888c-0.51769,0.3173 -1.03539,0.57336 -1.55308,0.76819c-0.51769,0.2004 -0.97137,0.30059 -1.36102,0.30059c-0.57892,0 -1.05487,-0.20596 -1.42783,-0.61789c-0.37296,-0.41192 -0.55944,-0.93797 -0.55944,-1.57812c0,-0.28389 0.03062,-0.59284 0.09185,-0.92684c0.0668,-0.33956 0.15029,-0.60953 0.2505,-0.80993l4.53397,-0.72644l0.04175,-0.61789c0.02783,-0.64016 -0.10855,-1.14115 -0.40914,-1.50297c-0.29503,-0.36739 -0.77932,-0.55109 -1.45288,-0.55109c-0.29503,0 -0.60676,0.0334 -0.93518,0.1002c-0.32843,0.06123 -0.60675,0.14195 -0.83498,0.24215l-0.34235,0.72644l-0.57613,-0.20875l0.98528,-3.0811c1.09661,-0.46759 2.13478,-0.70139 3.1145,-0.70139c1.01311,0 1.83975,0.2672 2.47992,0.80159c0.64572,0.53439 0.96858,1.36937 0.96858,2.50495l-0.02505,0.43419l-0.2171,2.88071l-0.04175,0.76818c0,0.25606 0.02227,0.45925 0.0668,0.60955c0.04453,0.1503 0.11689,0.30338 0.2171,0.45925l0.65965,-0.2505zM84.34006,322.38237c0.22823,0 0.48986,-0.08629 0.78489,-0.25885l-0.0167,-0.44254l0.0167,-0.47594l0.0668,-1.21908l-1.64492,0.3841c-0.05567,0.18926 -0.0835,0.43976 -0.0835,0.75149c0,0.42863 0.0835,0.74592 0.2505,0.95188c0.17256,0.20596 0.38131,0.30895 0.62625,0.30895zM105.53934,322.98355v0.61789h-4.57573v-0.61789l0.79324,-0.0668v-4.50892c0,-0.62902 -0.16143,-1.1161 -0.48429,-1.46122c-0.3173,-0.35069 -0.76262,-0.53439 -1.33598,-0.55109l-0.78489,0.79324v0.36739v5.36061l0.76818,0.0668v0.61789h-4.57572v-0.61789l0.79324,-0.0668v-4.50893c0,-0.62902 -0.16143,-1.11331 -0.4843,-1.45288c-0.3173,-0.34512 -0.76261,-0.52326 -1.33597,-0.53439l-0.70139,0.70139l-0.09185,5.7948l0.79324,0.0668v0.61789h-4.59242v-0.61789l0.79324,-0.0668l-0.0668,-7.64847l-0.80993,0.19205l-0.2171,-0.64294l3.37335,-1.05208l0.75149,2.39641l1.77853,-2.5467c1.09662,0 1.94552,0.22266 2.54671,0.66799c0.60676,0.43976 0.99642,1.12445 1.16898,2.05407l1.90377,-2.73875c1.30814,0 2.27116,0.32008 2.88905,0.96024c0.62346,0.64016 0.93518,1.63935 0.93518,2.9976v5.36061zM112.08462,313.66512c0.82386,0 1.55307,0.18926 2.18766,0.56779c0.63459,0.37296 1.12446,0.89066 1.46958,1.55308c0.3507,0.66242 0.52604,1.4139 0.52604,2.25446c0,0.72922 -0.1169,1.50298 -0.3507,2.32126c-0.23379,0.81829 -0.52048,1.45009 -0.86003,1.89542c-0.27276,0.3841 -0.7654,0.75705 -1.47792,1.11888c-0.71252,0.36183 -1.31093,0.54275 -1.79522,0.54275c-0.35626,0 -0.93518,-0.06401 -1.73677,-0.19205l0.0501,4.53397l1.64493,0.0668v0.61789h-5.66956v-0.61789l0.79324,-0.0668l0.10855,-13.04248l-0.80993,0.2004l-0.2171,-0.64294l3.3149,-1.05208l0.68469,2.43815zM112.67745,322.29886c0.35626,-0.81272 0.53439,-1.80357 0.53439,-2.97255c0,-0.65686 -0.10576,-1.22743 -0.31729,-1.71172c-0.21153,-0.48429 -0.49264,-0.85447 -0.84333,-1.11052c-0.3507,-0.25606 -0.72644,-0.3841 -1.12723,-0.3841l-0.93519,0.94353l0.04176,4.33358c0.94075,0.44533 1.82305,0.74592 2.6469,0.90179zM124.80444,311.54425c0,0.45646 0.12803,0.87674 0.3841,1.26083c0.25607,0.3841 0.57614,0.72644 0.96024,1.02704c0.3841,0.30059 0.91014,0.67077 1.57813,1.11053c0.78488,0.51213 1.41113,0.9658 1.87872,1.36103c0.47316,0.38966 0.87674,0.86004 1.21073,1.41113c0.334,0.54552 0.50099,1.16063 0.50099,1.84532c0,0.75705 -0.20596,1.4668 -0.61789,2.12922c-0.41192,0.66242 -1.0326,1.19959 -1.86202,1.61152c-0.82385,0.41192 -1.82027,0.61789 -2.98925,0.61789c-2.51053,0 -4.29183,-0.99641 -5.34391,-2.98925l2.41311,-1.86201c0.68469,1.41391 1.45566,2.78328 2.31292,4.10813h0.0167c0.4175,0 0.80437,-0.11133 1.16063,-0.33399c0.35626,-0.22267 0.64016,-0.51213 0.85169,-0.86839c0.21153,-0.35626 0.3173,-0.73201 0.3173,-1.12723c0,-0.42863 -0.12525,-0.82385 -0.37574,-1.18568c-0.24493,-0.36739 -0.55388,-0.68747 -0.92683,-0.96023c-0.36739,-0.27832 -0.87395,-0.61789 -1.51968,-1.01869c-0.76818,-0.48429 -1.38886,-0.91013 -1.86202,-1.27753c-0.46759,-0.37296 -0.86839,-0.82664 -1.20238,-1.36102c-0.33399,-0.53439 -0.50099,-1.15227 -0.50099,-1.85366c0,-0.78488 0.22267,-1.5002 0.66799,-2.14592c0.45089,-0.64572 1.09384,-1.15507 1.92882,-1.52802c0.83498,-0.37296 1.8147,-0.55944 2.93915,-0.55944c1.09661,0 1.99561,0.17535 2.697,0.52604c0.70695,0.35069 1.34711,0.84611 1.92047,1.48627l-2.24611,2.26281c-0.75705,-1.25248 -1.51967,-2.42703 -2.28786,-3.52364c-0.64016,0 -1.13558,0.17535 -1.48628,0.52605c-0.34512,0.34512 -0.5177,0.7821 -0.5177,1.31093zM147.3554,313.9824v0.68469l-0.62624,0.0167l-3.26479,8.79241l-2.12087,0.12525l-2.11251,-5.8783l-2.01232,5.75306l-2.15427,0.12525l-3.35665,-8.91765l-0.62623,-0.0167v-0.68469h5.11012v0.68469l-0.83499,0.0167l1.73677,6.32919l1.15228,-6.32919l-0.72643,-0.0167v-0.68469h4.89302v0.68469l-0.72643,0.0167l1.68667,6.27074l1.20238,-6.27074l-0.83499,-0.0167v-0.68469zM155.64813,322.49091l-3.1479,1.47793c-0.3841,-0.27276 -0.64572,-0.64572 -0.78488,-1.11888c-0.51769,0.3173 -1.03538,0.57336 -1.55307,0.76819c-0.51769,0.2004 -0.97137,0.30059 -1.36103,0.30059c-0.57892,0 -1.05487,-0.20596 -1.42782,-0.61789c-0.37296,-0.41192 -0.55944,-0.93797 -0.55944,-1.57812c0,-0.28389 0.03062,-0.59284 0.09185,-0.92684c0.0668,-0.33956 0.1503,-0.60953 0.2505,-0.80993l4.53398,-0.72644l0.04175,-0.61789c0.02783,-0.64016 -0.10854,-1.14115 -0.40914,-1.50297c-0.29503,-0.36739 -0.77932,-0.55109 -1.45288,-0.55109c-0.29503,0 -0.60676,0.0334 -0.93518,0.1002c-0.32842,0.06123 -0.60676,0.14195 -0.83499,0.24215l-0.34234,0.72644l-0.57614,-0.20875l0.98528,-3.0811c1.09661,-0.46759 2.13478,-0.70139 3.1145,-0.70139c1.01312,0 1.83975,0.2672 2.47991,0.80159c0.64572,0.53439 0.96858,1.36937 0.96858,2.50495l-0.02505,0.43419l-0.2171,2.88071l-0.04174,0.76818c0,0.25606 0.02227,0.45925 0.0668,0.60955c0.04453,0.1503 0.1169,0.30338 0.2171,0.45925l0.65964,-0.2505zM150.79686,322.38237c0.22823,0 0.48986,-0.08629 0.78488,-0.25885l-0.0167,-0.44254l0.0167,-0.47594l0.0668,-1.21908l-1.64492,0.3841c-0.05567,0.18926 -0.08349,0.43976 -0.08349,0.75149c0,0.42863 0.0835,0.74592 0.2505,0.95188c0.17257,0.20596 0.3813,0.30895 0.62624,0.30895zM171.99614,322.98355v0.61789h-4.57572v-0.61789l0.79323,-0.0668v-4.50892c0,-0.62902 -0.16143,-1.1161 -0.48429,-1.46122c-0.3173,-0.35069 -0.76262,-0.53439 -1.33598,-0.55109l-0.78489,0.79324v0.36739v5.36061l0.76819,0.0668v0.61789h-4.57572v-0.61789l0.79324,-0.0668v-4.50893c0,-0.62902 -0.16143,-1.11331 -0.48429,-1.45288c-0.3173,-0.34512 -0.76262,-0.52326 -1.33598,-0.53439l-0.70139,0.70139l-0.09184,5.7948l0.79324,0.0668v0.61789h-4.59242v-0.61789l0.79323,-0.0668l-0.0668,-7.64847l-0.80993,0.19205l-0.21709,-0.64294l3.37334,-1.05208l0.75149,2.39641l1.77852,-2.5467c1.09661,0 1.94552,0.22266 2.54671,0.66799c0.60676,0.43976 0.99642,1.12445 1.16898,2.05407l1.90377,-2.73875c1.30815,0 2.27116,0.32008 2.88905,0.96024c0.62346,0.64016 0.93518,1.63935 0.93518,2.9976v5.36061zM178.54141,313.66512c0.82385,0 1.55308,0.18926 2.18767,0.56779c0.63459,0.37296 1.12445,0.89066 1.46957,1.55308c0.35069,0.66242 0.52604,1.4139 0.52604,2.25446c0,0.72922 -0.11689,1.50298 -0.35069,2.32126c-0.23379,0.81829 -0.52048,1.45009 -0.86004,1.89542c-0.27276,0.3841 -0.7654,0.75705 -1.47792,1.11888c-0.71252,0.36183 -1.31093,0.54275 -1.79522,0.54275c-0.35626,0 -0.93518,-0.06401 -1.73677,-0.19205l0.0501,4.53397l1.64493,0.0668v0.61789h-5.66956v-0.61789l0.79324,-0.0668l0.10855,-13.04248l-0.80993,0.2004l-0.2171,-0.64294l3.3149,-1.05208l0.68469,2.43815zM179.13424,322.29886c0.35626,-0.81272 0.53439,-1.80357 0.53439,-2.97255c0,-0.65686 -0.10577,-1.22743 -0.3173,-1.71172c-0.21153,-0.48429 -0.49264,-0.85447 -0.84333,-1.11052c-0.35069,-0.25606 -0.72643,-0.3841 -1.12723,-0.3841l-0.93518,0.94353l0.04175,4.33358c0.94076,0.44533 1.82306,0.74592 2.64691,0.90179z" fill="#f1f6ff" stroke-width="1" stroke-linecap="square"/><path d="M64.8281,297.84196c0,-0.99642 0.11689,-1.97613 0.35069,-2.93915c0.23379,-0.96302 0.56501,-1.87315 0.99364,-2.7304c0.42863,-0.86282 0.93797,-1.65327 1.52803,-2.37136c0.59006,-0.72365 1.23856,-1.34711 1.94552,-1.87037c0.70695,-0.52882 1.45844,-0.93797 2.25446,-1.22743c0.79602,-0.29502 1.61431,-0.44254 2.45486,-0.44254c0.98528,0 1.75068,0.20596 2.29621,0.61789c0.55109,0.41192 0.82664,0.98807 0.82664,1.72842c0,0.28947 -0.03897,0.58449 -0.1169,0.88509c-0.07793,0.29502 -0.19204,0.59006 -0.34234,0.88509c-0.1503,0.28947 -0.32565,0.57058 -0.52604,0.84334c-0.2004,0.26719 -0.42028,0.50099 -0.65963,0.70139c-0.37296,-0.05567 -0.69582,-0.22267 -0.96859,-0.50099c-0.2672,-0.27832 -0.43698,-0.60398 -0.50934,-0.97693c0.50099,-0.41192 0.89621,-0.84055 1.18568,-1.28588c0.29503,-0.45089 0.44254,-0.86282 0.44254,-1.23577c0,-0.62346 -0.39244,-0.93518 -1.17732,-0.93518c-0.32842,0 -0.66799,0.06679 -1.01869,0.20039c-0.34512,0.1336 -0.69582,0.32287 -1.05208,0.56779c-0.35626,0.23936 -0.70417,0.53161 -1.04373,0.87674c-0.334,0.33956 -0.64294,0.71808 -0.92683,1.13558c-1.9817,2.85009 -2.97255,5.76419 -2.97255,8.74231c0,1.05208 0.16421,1.89819 0.49264,2.53835c0.32842,0.64016 0.76262,1.01869 1.30258,1.13558c0.61232,-0.14473 1.38886,-0.53718 2.32961,-1.17733c0.94076,-0.64016 1.96778,-1.47236 3.0811,-2.4966c0.14473,0.13916 0.23102,0.28668 0.25885,0.44254c-0.41192,0.54552 -0.84055,1.06878 -1.28588,1.56977c-0.43976,0.49543 -0.87673,0.9491 -1.31092,1.36103c-0.43419,0.41192 -0.86282,0.77376 -1.28588,1.08548c-0.41749,0.3173 -0.80437,0.56223 -1.16063,0.73479c-1.77017,-0.02783 -3.11172,-0.53439 -4.02463,-1.51968c-0.90735,-0.98529 -1.36102,-2.43259 -1.36102,-4.34193zM76.62543,301.66621c0,-0.49543 0.0501,-1.07991 0.1503,-1.75347c0.1002,-0.67912 0.24493,-1.40278 0.43419,-2.17096c0.19483,-0.77375 0.42307,-1.58091 0.68469,-2.42146c0.26162,-0.84055 0.55666,-1.6811 0.88509,-2.52166c0.28947,-0.75706 0.62068,-1.51968 0.99363,-2.28786c0.37853,-0.76819 0.78768,-1.52246 1.22744,-2.26281c0.44533,-0.74035 0.90457,-1.44452 1.37773,-2.11252c0.47872,-0.67355 0.96024,-1.28866 1.44452,-1.84531c0.22823,0 0.47317,0.03062 0.73479,0.09185c0.2672,0.05567 0.52604,0.13081 0.77654,0.22545c0.2505,0.08907 0.47872,0.19762 0.68469,0.32565c0.20596,0.12803 0.37297,0.25606 0.501,0.38409c-1.06878,1.09661 -2.0318,2.20436 -2.88906,3.32324c-0.85168,1.11888 -1.52802,2.17096 -2.02901,3.15625c-0.2672,0.53996 -0.51213,1.04651 -0.73479,1.51968c-0.22267,0.46759 -0.42584,0.9324 -0.60953,1.39443c-0.1837,0.46203 -0.3507,0.92684 -0.50099,1.39443c-0.1503,0.46203 -0.28946,0.9491 -0.41749,1.46123c2.73318,-3.49024 4.7622,-5.23536 6.08705,-5.23536c0.37296,0 0.77375,0.12247 1.20238,0.3674c0.42863,0.23936 0.80716,0.565 1.13558,0.97693c-0.44533,0.48429 -0.90457,1.06878 -1.37772,1.75347c-0.46759,0.68469 -0.899,1.37216 -1.29422,2.06242c-0.38966,0.69026 -0.70974,1.33319 -0.96023,1.92882c-0.24493,0.59006 -0.36739,1.02704 -0.36739,1.31093c0,0.13916 0.01948,0.2338 0.05845,0.2839c0.04453,0.0501 0.13917,0.07515 0.2839,0.07515c0.21153,0 0.3813,-0.02783 0.50934,-0.0835c0.12803,-0.05567 0.20597,-0.08349 0.2338,-0.08349c0.07236,0.11133 0.11411,0.18926 0.12525,0.23379c0.0167,0.04453 0.02505,0.08071 0.02505,0.10855c0,0.05567 -0.08628,0.13639 -0.25884,0.24215c-0.16699,0.10576 -0.37018,0.21431 -0.60954,0.32564c-0.23379,0.10576 -0.46481,0.2004 -0.69304,0.2839c-0.22823,0.08907 -0.39801,0.1336 -0.50934,0.1336c-0.14473,0 -0.28946,-0.04175 -0.43419,-0.12525c-0.13916,-0.07793 -0.26163,-0.18091 -0.36739,-0.30894c-0.10577,-0.12803 -0.19205,-0.26998 -0.25885,-0.42584c-0.06123,-0.15587 -0.09184,-0.32008 -0.09184,-0.49264c0,-0.21153 0.05845,-0.52604 0.17535,-0.94353c0.12246,-0.42306 0.28946,-0.9157 0.50099,-1.47792c0.21709,-0.56222 0.47595,-1.17733 0.77654,-1.84532c0.30059,-0.67355 0.62068,-1.35825 0.96024,-2.05407c0,-0.06123 -0.02783,-0.09184 -0.0835,-0.09184c-0.04453,0 -0.15587,0.05845 -0.334,0.17535c-0.17813,0.11133 -0.34512,0.22545 -0.50099,0.34235c-0.51213,0.3841 -1.02981,0.85726 -1.55307,1.41948c-0.51769,0.56222 -1.02425,1.18011 -1.51968,1.85367c-0.48986,0.66799 -0.95188,1.37773 -1.38608,2.12922c-0.43419,0.74592 -0.80715,1.49463 -1.11888,2.24612c-0.04453,0.1002 -0.11133,0.19205 -0.2004,0.27555c-0.0835,0.08907 -0.15308,0.1336 -0.20874,0.1336c-0.04453,0 -0.10577,-0.0501 -0.1837,-0.1503c-0.07793,-0.1002 -0.1503,-0.22545 -0.2171,-0.37574c-0.06123,-0.15029 -0.11969,-0.30338 -0.17534,-0.45924c-0.05567,-0.15587 -0.0835,-0.29224 -0.0835,-0.40914zM95.07458,293.39984c0.13916,0 0.30338,0.02505 0.49265,0.07515c0.19483,0.0501 0.37018,0.11411 0.52604,0.19205c0.16143,0.07793 0.29503,0.16143 0.40079,0.2505c0.10577,0.0835 0.15865,0.15865 0.15865,0.22545c-0.28389,0.60119 -0.54831,1.20516 -0.79323,1.81192c-0.23937,0.60119 -0.44532,1.18012 -0.61789,1.73677c-0.17257,0.55666 -0.30616,1.07713 -0.40079,1.56142c-0.08907,0.48429 -0.1336,0.90457 -0.1336,1.26083c0,0.40079 0.04175,0.73479 0.12525,1.00199c0.08907,0.26163 0.23379,0.4481 0.43419,0.55944c-0.17257,0.1169 -0.39523,0.20875 -0.66799,0.27555c-0.2672,0.07236 -0.50934,0.10855 -0.72643,0.10855c-0.76819,0 -1.15228,-0.52604 -1.15228,-1.57812c0,-0.81272 0.26998,-1.92604 0.80994,-3.33994c-0.28389,0.65686 -0.61233,1.27475 -0.98529,1.85367c-0.36739,0.57892 -0.74313,1.08826 -1.12723,1.52802c-0.3841,0.43976 -0.77375,0.7988 -1.16898,1.07713c-0.38966,0.27832 -0.74871,0.44533 -1.07713,0.501c-0.52882,-0.02783 -0.95745,-0.27833 -1.28588,-0.75149c-0.32842,-0.47872 -0.49264,-1.08827 -0.49264,-1.82862c0,-0.80158 0.16978,-1.64214 0.50935,-2.52166c0.34512,-0.88509 0.78489,-1.70616 1.31928,-2.46321c0.53439,-0.75706 1.11609,-1.38607 1.74512,-1.88706c0.62902,-0.50656 1.23578,-0.77376 1.82027,-0.80159c0.13916,0.03897 0.29781,0.12247 0.47595,0.2505c0.17813,0.12803 0.34791,0.27833 0.50934,0.4509c0.16699,0.17256 0.30616,0.34791 0.41749,0.52604c0.1169,0.17813 0.1837,0.33121 0.2004,0.45925c-0.57336,0.0835 -1.16341,0.36182 -1.77017,0.83498c-0.60119,0.46759 -1.1495,1.0326 -1.64492,1.69503c-0.48986,0.66242 -0.89343,1.37216 -1.21072,2.12921c-0.31173,0.75706 -0.4676,1.46123 -0.4676,2.11252c0,0.27276 0.1002,0.44533 0.30059,0.5177c0.41192,-0.08907 0.88787,-0.44254 1.42783,-1.06043c0.54552,-0.61789 1.20238,-1.57534 1.97056,-2.87235c0.14473,-0.25607 0.30617,-0.53996 0.4843,-0.85169c0.17813,-0.3173 0.35904,-0.64571 0.54274,-0.98528c0.1837,-0.34512 0.36461,-0.69026 0.54275,-1.03539c0.17813,-0.3507 0.34791,-0.69025 0.50934,-1.01868zM96.17843,309.10593c-0.19483,-0.05567 -0.30894,-0.26719 -0.34234,-0.63459c-0.05567,-0.18927 -0.09463,-0.41192 -0.1169,-0.66799c-0.0167,-0.25607 -0.02504,-0.54831 -0.02504,-0.87673c0,-0.30059 0.04732,-0.70973 0.14195,-1.22742c0.1002,-0.51769 0.23936,-1.10497 0.41749,-1.76182c0.17813,-0.65686 0.39523,-1.36659 0.65129,-2.12921c0.26162,-0.76262 0.54831,-1.53638 0.86004,-2.32126c0.3841,-0.97971 0.71809,-1.82862 1.00198,-2.54671c0.28389,-0.72366 0.52326,-1.34711 0.71809,-1.87037c0.19483,-0.52883 0.35069,-0.96301 0.46759,-1.30258c0.12246,-0.34512 0.21989,-0.64016 0.29225,-0.88508c0.05567,-0.16699 0.13916,-0.37018 0.2505,-0.60954c0.1169,-0.24492 0.2505,-0.49264 0.4008,-0.74313c0.1503,-0.2505 0.30338,-0.48429 0.45924,-0.70139c0.15587,-0.22267 0.29781,-0.39244 0.42585,-0.50934c0.50099,0.07236 0.97137,0.2004 1.41113,0.3841c0.43976,0.1837 0.70974,0.36182 0.80993,0.53439c-0.19483,0.1837 -0.42306,0.47316 -0.68469,0.86839c-0.25606,0.38966 -0.50657,0.81829 -0.75149,1.28588c-0.23937,0.46203 -0.45924,0.93519 -0.65963,1.41948c-0.19483,0.48429 -0.34234,0.91013 -0.44254,1.27753c0.13916,-0.23936 0.32286,-0.50099 0.55109,-0.78488c0.22823,-0.28947 0.57893,-0.68191 1.05209,-1.17733c0.52326,-0.53996 1.01589,-0.95467 1.47792,-1.24412c0.46759,-0.29503 0.87117,-0.44254 1.21073,-0.44254c0.54552,0 0.99085,0.1503 1.33598,0.45089c0.35069,0.29503 0.52605,0.67912 0.52605,1.15228c0,1.02425 -0.17257,2.04015 -0.51769,3.0477c-0.33956,1.00198 -0.82942,1.90933 -1.46958,2.72205c-0.24493,0.31172 -0.53161,0.60954 -0.86003,0.89344c-0.32286,0.2839 -0.66242,0.53717 -1.01869,0.75984c-0.35626,0.22267 -0.70695,0.39801 -1.05208,0.52605c-0.33956,0.12803 -0.64572,0.19205 -0.91848,0.19205c-0.25606,0 -0.4815,-0.05289 -0.67633,-0.15865c-0.18926,-0.10576 -0.32008,-0.23936 -0.39244,-0.40079c0.55666,-0.32843 1.09661,-0.78211 1.61987,-1.36103c0.52882,-0.58449 1.01869,-1.25805 1.46958,-2.02067c0.45089,-0.76262 0.84334,-1.58647 1.17733,-2.47156c0.334,-0.88509 0.58727,-1.78409 0.75984,-2.697c-0.54552,0.28947 -1.03538,0.60119 -1.46957,0.93518c-0.43419,0.33399 -0.86282,0.77097 -1.28588,1.31093c-0.51769,0.62902 -0.92683,1.13558 -1.22742,1.51967c-0.29503,0.3841 -0.53996,0.71252 -0.73479,0.98529c-0.18926,0.26719 -0.34512,0.52048 -0.46759,0.75984c-0.12246,0.23379 -0.25328,0.52047 -0.39244,0.86004c-0.2004,0.45646 -0.43419,1.06044 -0.70139,1.81193c-0.26162,0.74592 -0.53161,1.5809 -0.80993,2.50495c-0.27832,0.92962 -0.55666,1.91769 -0.83499,2.9642c-0.27832,1.04651 -0.54552,2.09025 -0.80158,3.1312c-0.15587,-0.02783 -0.28946,-0.14195 -0.40079,-0.34234c-0.1169,-0.12803 -0.2004,-0.22267 -0.2505,-0.2839c-0.0501,-0.05567 -0.11133,-0.09742 -0.1837,-0.12525zM109.51749,293.85074c-0.0668,-0.08907 -0.13081,-0.27277 -0.19205,-0.55109c-0.05567,-0.27832 -0.0835,-0.51769 -0.0835,-0.71809c0.37296,0.0334 0.72922,0.06123 1.06878,0.08349c0.34512,0.0167 0.65965,0.0334 0.94354,0.0501c0.21153,-0.42863 0.44254,-0.85169 0.69304,-1.26918c0.2505,-0.42306 0.49265,-0.80715 0.72644,-1.15228c0.23379,-0.3507 0.45368,-0.64572 0.65964,-0.88509c0.20596,-0.24492 0.36739,-0.40358 0.48429,-0.47594c0.14473,0 0.32565,0.02506 0.54274,0.07515c0.22267,0.0501 0.44811,0.11412 0.67634,0.19205c0.22823,0.07793 0.4342,0.16143 0.61789,0.2505c0.1837,0.0835 0.31173,0.167 0.3841,0.2505c-0.42863,0.53996 -0.79602,1.04373 -1.10218,1.51132c-0.30617,0.46203 -0.63738,0.99086 -0.99363,1.58648c0.2839,0 0.57057,-0.00557 0.86004,-0.0167c0.29503,-0.0167 0.59285,-0.03897 0.89344,-0.0668c0.07236,0.07236 0.12802,0.16143 0.16699,0.26719c0.04453,0.10576 0.0668,0.2171 0.0668,0.334c-0.69582,0.25607 -1.54194,0.39801 -2.53836,0.42584c-0.35626,0.68469 -0.67356,1.3666 -0.95189,2.04572c-0.27832,0.67355 -0.5149,1.32484 -0.70973,1.95386c-0.18926,0.62346 -0.33956,1.21351 -0.4509,1.77017c-0.10577,0.55666 -0.15864,1.05487 -0.15864,1.49463c0,0.62902 0.23658,0.97971 0.70974,1.05208c0.42863,-0.06123 0.83498,-0.16978 1.21908,-0.32564c0.3841,-0.15587 0.72644,-0.35627 1.02704,-0.60119c0.0835,0.1336 0.1336,0.24215 0.1503,0.32565c-0.08907,0.12803 -0.23658,0.27833 -0.44254,0.45089c-0.20596,0.16699 -0.43141,0.33121 -0.67633,0.49264c-0.23937,0.16699 -0.47316,0.30616 -0.70139,0.4175c-0.22823,0.1169 -0.39801,0.1837 -0.50934,0.2004c-0.35626,-0.0167 -0.71252,-0.09741 -1.06878,-0.24214c-0.35626,-0.13916 -0.6819,-0.3173 -0.97693,-0.53439c-0.28947,-0.21153 -0.52883,-0.44811 -0.71809,-0.70973c-0.1837,-0.26719 -0.27554,-0.52882 -0.27554,-0.78489c0,-0.33956 0.04453,-0.76819 0.1336,-1.28588c0.09463,-0.52326 0.22823,-1.09105 0.4008,-1.70337c0.17257,-0.61232 0.37296,-1.25248 0.60119,-1.92047c0.22823,-0.67355 0.47595,-1.33597 0.74314,-1.98726zM123.43772,293.18275c-0.05567,0.88509 -0.21432,1.64492 -0.47594,2.27951c-0.25607,0.63459 -0.62346,1.19125 -1.10218,1.66997c-0.47316,0.47316 -1.05208,0.90178 -1.73677,1.28588c-0.68469,0.3841 -1.48349,0.75427 -2.39641,1.11053c0,0.08907 -0.00278,0.18091 -0.00834,0.27555c-0.00557,0.08907 -0.00835,0.1837 -0.00835,0.2839c0,0.1837 0.01392,0.37575 0.04175,0.57614c0.02783,0.20039 0.07793,0.38688 0.1503,0.55944c0.07236,0.167 0.17256,0.30616 0.3006,0.41749c0.12803,0.10576 0.28946,0.15865 0.48429,0.15865c0.38966,0 0.76819,-0.08629 1.13558,-0.25885c0.37296,-0.17256 0.72644,-0.38131 1.06043,-0.62624c0.334,-0.2505 0.64572,-0.52048 0.93519,-0.80993c0.29503,-0.29503 0.55665,-0.56501 0.78489,-0.80993c0.14473,0.12803 0.26441,0.2505 0.35904,0.36739c-0.64016,0.85169 -1.34154,1.56143 -2.10416,2.12922c-0.76262,0.56222 -1.48627,0.92127 -2.17096,1.07713c-0.97971,-0.1169 -1.74512,-0.47593 -2.29621,-1.07712c-0.54552,-0.60676 -0.81829,-1.33877 -0.81829,-2.19602c0,-0.58449 0.08071,-1.17732 0.24215,-1.77851c0.167,-0.60676 0.39522,-1.19125 0.68469,-1.75347c0.29503,-0.56779 0.63738,-1.09939 1.02703,-1.59482c0.38966,-0.50099 0.80994,-0.93519 1.26083,-1.30258c0.45089,-0.37296 0.91292,-0.6652 1.38608,-0.87673c0.47872,-0.2171 0.95467,-0.32564 1.42783,-0.32564c0.65129,0.08907 1.2636,0.49542 1.83696,1.21908zM121.95979,293.89248c-0.3841,0.05567 -0.7821,0.21152 -1.19403,0.46759c-0.41192,0.25607 -0.80159,0.59841 -1.16898,1.02704c-0.36182,0.42863 -0.69304,0.92684 -0.99363,1.49463c-0.30059,0.56779 -0.53439,1.18011 -0.70139,1.83696c1.14115,-0.56779 2.08747,-1.26918 2.83896,-2.10416c0.75705,-0.83498 1.1634,-1.74234 1.21907,-2.72205zM123.9073,301.60776c0.07236,-0.41192 0.19761,-0.95745 0.37574,-1.63657c0.17813,-0.67912 0.38688,-1.39999 0.62625,-2.16261c0.24493,-0.76262 0.50099,-1.52803 0.76819,-2.29621c0.27276,-0.76818 0.53718,-1.45844 0.79324,-2.07076c0.1837,-0.43976 0.34791,-0.78489 0.49265,-1.03538c0.14473,-0.2505 0.3006,-0.46203 0.46759,-0.63459c0.2004,0.02783 0.40636,0.07793 0.61789,0.15029c0.21709,0.07236 0.42585,0.15865 0.62625,0.25885c0.20039,0.1002 0.37852,0.20319 0.53439,0.30895c0.15586,0.10576 0.27554,0.20874 0.35904,0.30894c-0.3841,0.45646 -0.72366,0.97694 -1.01868,1.56143c-0.28946,0.58449 -0.58449,1.33319 -0.88508,2.24611c0.77375,-0.68469 1.45565,-1.33876 2.04571,-1.96221c0.59006,-0.62902 1.14115,-1.33041 1.65328,-2.10416c0.08907,-0.0668 0.23936,-0.1002 0.45089,-0.1002c0.2004,0 0.39245,0.0334 0.57614,0.1002c0.1837,0.06123 0.31173,0.14751 0.38409,0.25885c-0.25607,0.68469 -0.38409,1.36103 -0.38409,2.02902c0,0.62902 0.09185,1.0994 0.27554,1.41113c-0.01113,0.08907 -0.10576,0.25607 -0.28389,0.50099c-0.17813,0.23936 -0.37296,0.46481 -0.58449,0.67634c-0.38966,-0.20039 -0.73478,-0.47316 -1.03538,-0.81829c-0.29503,-0.3507 -0.51491,-0.73201 -0.65964,-1.14393c-0.66799,0.46759 -1.23856,0.92684 -1.71171,1.37773c-0.46759,0.44532 -0.86838,0.94354 -1.20238,1.49463c-0.33399,0.54552 -0.62068,1.17454 -0.86004,1.88707c-0.23379,0.71252 -0.45646,1.56142 -0.66799,2.54671c-0.12803,-0.0167 -0.28111,-0.06401 -0.45924,-0.14194c-0.17813,-0.07793 -0.35627,-0.17534 -0.5344,-0.29224c-0.17813,-0.11133 -0.33956,-0.23101 -0.48429,-0.35904c-0.13916,-0.12803 -0.23101,-0.24771 -0.27554,-0.35904z" fill="#f1f6ff" stroke-width="1" stroke-linecap="square"/><path d="M144.27504,293.67199c0.1837,-0.51769 0.4342,-1.11053 0.75149,-1.77852c0.32286,-0.66799 0.65964,-1.33319 1.01033,-1.99561c0.35069,-0.66242 0.69581,-1.28588 1.03538,-1.87037c0.34512,-0.58449 0.63737,-1.04095 0.87674,-1.36938c0.28947,0.11133 0.60397,0.26441 0.94353,0.45925c0.33956,0.19483 0.65408,0.42585 0.94354,0.69304c0.19483,-0.01113 0.47316,-0.04731 0.83498,-0.10854c0.36739,-0.0668 0.74314,-0.13917 1.12724,-0.2171c0.3841,-0.0835 0.75149,-0.16421 1.10218,-0.24214c0.35069,-0.07793 0.60955,-0.14473 0.77654,-0.2004c0.48429,0.22823 0.86282,0.57057 1.13558,1.02703c0.27276,0.45646 0.52326,1.01312 0.75149,1.66998c-0.86838,-0.22823 -1.79244,-0.40636 -2.77215,-0.53439c-0.97415,-0.12803 -1.92604,-0.19205 -2.85566,-0.19205c-0.29503,0.25607 -0.5817,0.56222 -0.86003,0.91849c-0.27832,0.35626 -0.53996,0.72365 -0.78489,1.10218c-0.23937,0.37296 -0.45645,0.73201 -0.65128,1.07713c-0.18926,0.33956 -0.34791,0.63181 -0.47594,0.87674c0.49543,-0.2004 1.00755,-0.3006 1.53637,-0.3006c0.48429,0 0.92405,0.09185 1.31928,0.27555c0.4008,0.1837 0.74314,0.43977 1.02704,0.76819c0.28947,0.32842 0.51212,0.70974 0.66799,1.14393c0.15587,0.43419 0.2338,0.91014 0.2338,1.42783c0,0.77932 -0.24215,1.54473 -0.72644,2.29622c-0.48429,0.74592 -1.11331,1.41113 -1.88707,1.99562c-0.76819,0.58449 -1.62544,1.05765 -2.57175,1.41948c-0.94632,0.36739 -1.88986,0.55666 -2.8306,0.56779c-0.33956,-0.07236 -0.68748,-0.27277 -1.04373,-0.60119c-0.35626,-0.32286 -0.61511,-0.77097 -0.77654,-1.34432c0.52882,-0.01113 1.0994,-0.07793 1.71173,-0.2004c0.61232,-0.12246 1.22744,-0.29781 1.84533,-0.52604c0.62346,-0.22823 1.21908,-0.50099 1.78687,-0.81829c0.57336,-0.32286 1.07991,-0.67633 1.51967,-1.06043c0.44533,-0.3841 0.79881,-0.80159 1.06044,-1.25248c0.26162,-0.45089 0.39245,-0.92405 0.39245,-1.41947c0,-0.86838 -0.48987,-1.30258 -1.46958,-1.30258c-0.45646,0 -0.92683,0.07237 -1.41112,0.2171c-0.48429,0.13916 -0.94076,0.3507 -1.36938,0.63459c-0.31173,-0.11133 -0.65685,-0.27276 -1.03538,-0.48429c-0.37853,-0.21709 -0.66799,-0.4676 -0.86838,-0.75149zM155.09043,302.62304c-0.22823,-0.02783 -0.46759,-0.12525 -0.71809,-0.29224c-0.24493,-0.16143 -0.40358,-0.34234 -0.47594,-0.54273c0,-0.16699 0.02505,-0.38688 0.07515,-0.65964c0.0501,-0.27276 0.10855,-0.54552 0.17535,-0.81829c0.07236,-0.27832 0.14473,-0.54274 0.21709,-0.79323c0.07236,-0.2505 0.12247,-0.43976 0.1503,-0.56779c0.17257,0 0.38966,0.04453 0.65129,0.1336c0.26162,0.0835 0.53161,0.2004 0.80994,0.35069c0.27832,0.14473 0.54274,0.3145 0.79324,0.50934c0.2505,0.19483 0.43976,0.38966 0.56779,0.58449c-0.12803,0.28947 -0.29224,0.56223 -0.49264,0.81829c-0.2004,0.25606 -0.41192,0.47872 -0.63458,0.66798c-0.21709,0.19483 -0.42585,0.34513 -0.62624,0.4509c-0.2004,0.10577 -0.36461,0.15865 -0.49264,0.15865zM157.22799,295.82626c-0.22823,-0.02783 -0.4676,-0.12246 -0.71809,-0.28389c-0.24493,-0.16699 -0.40358,-0.3507 -0.47594,-0.5511c0,-0.16699 0.02506,-0.38687 0.07515,-0.65963c0.0501,-0.27276 0.10855,-0.54552 0.17535,-0.81829c0.07236,-0.27832 0.14473,-0.54274 0.21709,-0.79323c0.07236,-0.2505 0.12247,-0.43976 0.1503,-0.56779c0.17257,0 0.38967,0.04453 0.65129,0.1336c0.26162,0.0835 0.53161,0.20039 0.80994,0.35069c0.27832,0.14473 0.54275,0.31451 0.79324,0.50934c0.2505,0.18926 0.43976,0.3841 0.56779,0.58449c-0.12803,0.28947 -0.29224,0.56223 -0.49264,0.81829c-0.2004,0.25606 -0.41192,0.4815 -0.63459,0.67634c-0.21709,0.18926 -0.42584,0.33678 -0.62623,0.44254c-0.2004,0.10577 -0.36461,0.15865 -0.49264,0.15865z" fill="#f1f6ff" stroke-width="1" stroke-linecap="square"/></g></g></svg>