<svg version="1.1" xmlns="http://www.w3.org/2000/svg" xmlns:xlink="http://www.w3.org/1999/xlink" width="58.52907" height="49.70605" viewBox="0,0,58.52907,49.70605"><defs><linearGradient x1="207.68866" y1="175.36806" x2="207.68866" y2="181.65376" gradientUnits="userSpaceOnUse" id="color-1"><stop offset="0" stop-color="#000000" stop-opacity="0.23529"/><stop offset="1" stop-color="#000000" stop-opacity="0"/></linearGradient><linearGradient x1="218.4743" y1="188.79663" x2="218.4743" y2="197.36806" gradientUnits="userSpaceOnUse" id="color-2"><stop offset="0" stop-color="#000000" stop-opacity="0.23529"/><stop offset="1" stop-color="#000000" stop-opacity="0"/></linearGradient><linearGradient x1="248.00072" y1="184.10754" x2="251.0908" y2="188.91428" gradientUnits="userSpaceOnUse" id="color-3"><stop offset="0" stop-color="#000000" stop-opacity="0.30196"/><stop offset="1" stop-color="#000000" stop-opacity="0"/></linearGradient><linearGradient x1="224.24624" y1="181.35328" x2="221.131" y2="188.09712" gradientUnits="userSpaceOnUse" id="color-4"><stop offset="0" stop-color="#000000" stop-opacity="0.30196"/><stop offset="1" stop-color="#000000" stop-opacity="0"/></linearGradient><linearGradient x1="222.39962" y1="168.94353" x2="226.8348" y2="173.79259" gradientUnits="userSpaceOnUse" id="color-5"><stop offset="0" stop-color="#000000" stop-opacity="0.38039"/><stop offset="1" stop-color="#000000" stop-opacity="0"/></linearGradient><linearGradient x1="231.52597" y1="179.86432" x2="222.20075" y2="179.86432" gradientUnits="userSpaceOnUse" id="color-6"><stop offset="0" stop-color="#757e87"/><stop offset="1" stop-color="#5a6168"/></linearGradient><linearGradient x1="257.52594" y1="180.00717" x2="248.20075" y2="180.00717" gradientUnits="userSpaceOnUse" id="color-7"><stop offset="0" stop-color="#757e87"/><stop offset="1" stop-color="#5a6168"/></linearGradient><radialGradient cx="240.00008" cy="181.75001" r="18.04166" gradientUnits="userSpaceOnUse" id="color-8"><stop offset="0" stop-color="#000000" stop-opacity="0.50196"/><stop offset="1" stop-color="#000000" stop-opacity="0"/></radialGradient></defs><g transform="translate(-200.26002,-150.01432)"><g data-paper-data="{&quot;isPaintingLayer&quot;:true}" fill-rule="nonzero" stroke="none" stroke-width="0" stroke-linecap="butt" stroke-linejoin="miter" stroke-miterlimit="10" stroke-dasharray="" stroke-dashoffset="0" style="mix-blend-mode: normal"><path d="M200.26003,181.65376v-6.28571h14.85714v6.28571z" data-paper-data="{&quot;index&quot;:null}" fill="url(#color-1)"/><path d="M200.40294,197.36806v-8.57143l25.57143,1.28571l4.93753,1.07664l7.6339,3.06622z" data-paper-data="{&quot;index&quot;:null}" fill="url(#color-2)"/><path d="M239.94207,195.24461l0.05281,-5.80673l16.29752,-10.66065l-0.05281,5.80673z" data-paper-data="{&quot;index&quot;:null}" fill="url(#color-3)"/><path d="M239.90142,195.17307l-34.39797,-14.29475l3.11517,-6.74384l31.25511,14.43761z" data-paper-data="{&quot;index&quot;:null}" fill="url(#color-4)"/><path d="M255.06922,177.83124c2.01101,0.91852 1.86597,2.88366 0.47716,3.79345c-2.10787,1.38083 -8.09819,5.305 -11.85851,7.76833c-1.77971,1.16585 -4.26203,1.40537 -6.27344,0.48666c-7.35474,-3.35927 -24.92758,-11.38563 -29.10978,-13.29585c-1.74528,-0.79715 -2.13721,-2.46445 -0.25993,-3.69423c3.45559,-2.26371 9.54044,-6.2498 11.65752,-7.63667c1.74641,-1.14404 4.9778,-1.30191 6.9089,-0.41988c4.32417,1.97506 21.17739,9.67274 28.45806,12.99818z" data-paper-data="{&quot;index&quot;:null}" fill="#584b32"/><path d="M254.99767,175.89624c2.01101,0.91852 1.86597,2.88366 0.47716,3.79345c-2.10787,1.38083 -8.09819,5.305 -11.85851,7.76833c-1.7797,1.16585 -4.26202,1.40537 -6.27343,0.48666c-7.35474,-3.35927 -24.92758,-11.38563 -29.10978,-13.29585c-1.74528,-0.79715 -2.13721,-2.46445 -0.25993,-3.69423c3.45559,-2.26371 9.54044,-6.2498 11.65752,-7.63667c1.74641,-1.14404 4.9778,-1.30191 6.9089,-0.41988c4.32417,1.97506 21.17739,9.67274 28.45806,12.99818z" data-paper-data="{&quot;index&quot;:null}" fill="#68583b"/><path d="M254.92613,173.96124c2.01101,0.91852 1.86597,2.88366 0.47716,3.79345c-2.10788,1.38084 -8.0982,5.30501 -11.85852,7.76834c-1.7797,1.16585 -4.26202,1.40537 -6.27343,0.48666c-7.35474,-3.35927 -24.92758,-11.38563 -29.10978,-13.29585c-1.74528,-0.79715 -2.13721,-2.46445 -0.25993,-3.69423c3.45559,-2.26371 9.54044,-6.2498 11.65752,-7.63667c1.74641,-1.14404 4.9778,-1.30191 6.9089,-0.41988c4.32417,1.97506 21.17739,9.67274 28.45806,12.99818z" data-paper-data="{&quot;index&quot;:null}" fill="#89744e"/><path d="M219.85924,180.84681l-7.57797,-3.7062l18.09383,-14.25133l5.57797,2.56335z" data-paper-data="{&quot;index&quot;:null}" fill="url(#color-5)"/><path d="M245.61094,187.32115c0,0 -19.27294,-8.37754 -13.088,-7.66854c7.51585,0.86156 16.63598,5.34431 16.63598,5.34431z" data-paper-data="{&quot;index&quot;:null}" fill-opacity="0.15294" fill="#000000"/><path d="M251.08372,172.16336c0,0 0.1588,2.90816 -7.36908,0.76679c-7.52787,-2.14137 -10.17091,-4.89381 -11.74147,-6.11429c-1.57056,-1.22048 -4.62837,-5.49523 -4.62837,-5.49523l23.73892,10.84272z" data-paper-data="{&quot;index&quot;:null}" fill-opacity="0.15294" fill="#000000"/><path d="M252.53788,182.78337c0,0 -1.5363,-2.20675 -6.50539,-3.72613c-4.9842,-1.524 -8.72689,-1.16489 -16.17029,-4.56465c-0.17809,-0.08135 -3.38024,-0.96126 -3.13658,0.39186c0.31041,1.72387 4.35898,1.65788 2.55944,3.19981c-1.30826,1.12098 -7.24862,-2.31565 -13.85894,-5.30237c-4.89174,-2.21022 -8.33818,-2.46079 -8.33818,-2.46079c0,0 0.69025,-1.11059 1.2704,-1.52243c0.82747,-0.5874 3.19416,-2.05445 3.19416,-2.05445c0,0 14.6123,4.7212 13.61955,3.60421c-1.31429,-1.4788 -2.81285,-3.09584 -3.84296,-4.04058c-3.67913,-2.30992 -4.78702,-2.78321 -4.78702,-2.78321l3.71693,-2.43491c0,0 14.10169,13.9792 23.5922,13.78124c4.71967,-0.09845 14.9379,3.81733 14.9379,3.81733z" data-paper-data="{&quot;index&quot;:null}" fill-opacity="0.15294" fill="#000000"/><path d="M205.8767,172.39591c9.28335,-0.2852 16.32377,-5.10967 16.33118,-11.61776c0.00411,-3.6183 -0.00712,-7.4305 -0.00712,-7.4305h3.12938l-0.01072,2.21362l3.31071,-0.01362v-2.2h2.89586c0,0 0.11131,0.52249 0.09901,7.2297c-0.02241,12.21751 -15.28358,17.45042 -25.76982,17.31396c-3.70993,-0.04828 -5.43633,0.01349 -5.43633,0.01349l0.03191,-5.5c0,0 3.59976,0.04722 5.42594,-0.00889z" data-paper-data="{&quot;index&quot;:null}" fill="#42484e"/><path d="M200.45075,188.26192c0,0 11.17119,0.04723 12.99737,-0.00888c12.71191,-0.14235 34.8952,-9.82396 34.75975,-23.1892c0.00412,-3.6183 -0.00712,-11.57335 -0.00712,-11.57335h3.12938l-0.01072,2.21362l3.31071,-0.01362v-2.2h2.89586c0,0 0.11131,4.66535 0.09901,11.37256c-0.02241,18.9318 -26.99786,28.879 -44.19839,28.88539c-3.70993,-0.04828 -13.00776,0.01349 -13.00776,0.01349l0.03191,-5.5z" data-paper-data="{&quot;index&quot;:null}" fill="#42484e"/><path d="M205.8767,169.06258c9.28335,-0.2852 16.32377,-5.10967 16.33118,-11.61776c0.00411,-3.6183 -0.00712,-7.4305 -0.00712,-7.4305h3.12938l-0.01072,2.21362l3.31071,-0.01362v-2.2h2.89586c0,0 0.11131,0.52249 0.09901,7.2297c-0.02241,12.21751 -15.28358,17.45042 -25.76982,17.31396c-3.70993,-0.04828 -5.43633,0.01349 -5.43633,0.01349l0.03191,-5.5c0,0 3.59976,0.04722 5.42594,-0.00889z" data-paper-data="{&quot;index&quot;:null}" fill="url(#color-6)"/><path d="M200.45075,184.92859c0,0 11.17118,0.04723 12.99736,-0.00888c12.71193,-0.14234 34.89521,-9.82395 34.75976,-23.18919c0.00412,-3.6183 -0.00712,-11.57335 -0.00712,-11.57335h3.12938l-0.01072,2.21362l3.31071,-0.01362v-2.2h2.89586c0,0 0.11131,4.66535 0.09901,11.37256c-0.02241,18.9318 -26.99786,28.879 -44.19839,28.88539c-3.70993,-0.04828 -13.00776,0.01349 -13.00776,0.01349l0.03192,-5.5z" data-paper-data="{&quot;index&quot;:null}" fill="url(#color-7)"/><path d="M200.4932,170.67681c0,0 2.09028,0.16767 7.01015,0.07986c8.57741,-0.15309 17.9734,-5.99125 18.02031,-13.71265c0.0222,-3.65376 -0.03046,-4.80054 -0.03046,-4.80054h3.53715c0,0 0.0365,0.97047 -0.06632,4.86179c-0.22366,8.46452 -10.73004,15.6758 -21.38997,15.8673c-5.63218,0.10118 -7.12705,0.03758 -7.12705,0.03758l0.04618,-2.33333z" data-paper-data="{&quot;index&quot;:null}" fill-opacity="0.20392" fill="#000000"/><path d="M200.55122,186.72841c0,0 6.33132,0.18693 14.39567,0.0217c15.88076,-0.28001 36.18513,-12.30056 36.29552,-24.2759c-0.0138,-5.82009 -0.02452,-10.23072 -0.02452,-10.23072h3.53715c0,0 -0.01173,1.35004 0.09748,10.28627c-0.04562,11.09877 -18.63717,25.80492 -39.87385,26.1909c-6.41186,0.1206 -14.44584,0.17442 -14.44584,0.17442l0.01841,-2.16667z" data-paper-data="{&quot;index&quot;:null}" fill-opacity="0.20392" fill="#000000"/><path d="M258.0417,181.75001c0,9.92475 -8.07752,17.97036 -18.04166,17.97036c-9.96414,0 -18.04167,-8.0456 -18.04167,-17.97036c0,-9.92475 8.07754,-17.97036 18.04167,-17.97036c9.96414,0 18.04166,8.0456 18.04166,17.97036z" fill="url(#color-8)"/><path d="M226.16673,183.33334c0,-7.63994 6.1934,-13.83334 13.83334,-13.83334c7.63994,0 13.83334,6.1934 13.83334,13.83334c0,7.63994 -6.1934,13.83334 -13.83334,13.83334c-7.63994,0 -13.83334,-6.1934 -13.83334,-13.83334z" fill="#cacaca"/><path d="M226.16672,180.00001c0,-7.63994 6.19339,-13.83333 13.83333,-13.83333c7.63994,0 13.83333,6.19339 13.83333,13.83333c0,7.63994 -6.19339,13.83333 -13.83333,13.83333c-7.63994,0 -13.83333,-6.19339 -13.83333,-13.83333z" fill="#ffffff"/></g></g></svg>