<svg version="1.1" xmlns="http://www.w3.org/2000/svg" xmlns:xlink="http://www.w3.org/1999/xlink" width="488" height="37" viewBox="0,0,488,37"><g transform="translate(3.5,2.88353)"><g data-paper-data="{&quot;isPaintingLayer&quot;:true}" fill-rule="nonzero" stroke-linejoin="miter" stroke-miterlimit="10" stroke-dasharray="" stroke-dashoffset="0" style="mix-blend-mode: normal"><path d="M-3.5,34.11647v-37h488v37z" fill-opacity="0.06667" fill="#000000" stroke="none" stroke-width="0" stroke-linecap="butt"/><path d="M420.17471,25.32424l1.45541,-0.06978l-0.11962,-14.01577l-1.48531,0.33893l-0.24921,-0.89717l5.8615,-1.55509l0.35887,0.60808l-0.12959,15.52102l1.45541,0.06978v0.89717h-7.14745z" fill="#ffece6" stroke="none" stroke-width="1" stroke-linecap="square"/><path d="M371.08172,20.79298v5.07399h-12.93917v-0.89717l1.25604,-0.01994v-15.26184l-1.25604,-0.02991v-0.8872h8.27389v0.8872l-2.78122,0.02991v15.212c2.12662,-0.75096 4.25989,-1.68801 6.3998,-2.81113l0.04984,-1.27597zM377.69524,14.0044c1.49528,0 2.67157,0.54163 3.52886,1.62487c0.86394,1.0766 1.28594,2.53201 1.26601,4.36622l-7.04776,0.22928c0.11962,1.0035 0.46852,1.77108 1.0467,2.30273c0.57818,0.52501 1.34575,0.78751 2.30273,0.78751c1.32249,0 2.40242,-0.36551 3.23978,-1.09654l0.45855,0.40871c-0.59811,1.13641 -1.40224,2.02361 -2.41239,2.6616c-1.01015,0.63799 -2.08675,0.95698 -3.22981,0.95698c-1.54845,0 -2.7779,-0.51172 -3.68836,-1.53516c-0.91046,-1.03008 -1.36569,-2.42236 -1.36569,-4.17682c0,-1.03673 0.20934,-2.06349 0.62802,-3.08028c0.41868,-1.02344 0.95034,-1.87741 1.59497,-2.56192c0.44526,-0.25254 1.01679,-0.46188 1.71459,-0.62802c0.6978,-0.17279 1.3524,-0.25918 1.9638,-0.25918zM378.71203,19.15814c-0.01329,-1.18958 -0.18276,-2.13327 -0.5084,-2.83107c-0.32564,-0.6978 -0.78419,-1.11648 -1.37566,-1.25604c-0.42532,0.44526 -0.7709,1.06331 -1.03673,1.85415c-0.26583,0.79084 -0.39874,1.60161 -0.39874,2.43232v0.07975zM394.84073,14.38321v0.81742l-0.73767,0.01994l-4.51575,10.49688l-2.58185,0.14953l-4.02729,-10.6464l-0.74764,-0.01994v-0.81742h6.05091v0.81742l-1.06663,0.01994l2.21302,7.86518l2.09339,-7.86518l-1.06663,-0.01994v-0.81742zM401.04552,14.0044c1.49528,0 2.67157,0.54163 3.52886,1.62487c0.86394,1.0766 1.28594,2.53201 1.26601,4.36622l-7.04776,0.22928c0.11962,1.0035 0.46852,1.77108 1.0467,2.30273c0.57818,0.52501 1.34575,0.78751 2.30273,0.78751c1.32249,0 2.40242,-0.36551 3.23978,-1.09654l0.45855,0.40871c-0.59811,1.13641 -1.40224,2.02361 -2.41239,2.6616c-1.01015,0.63799 -2.08675,0.95698 -3.22981,0.95698c-1.54845,0 -2.7779,-0.51172 -3.68836,-1.53516c-0.91046,-1.03008 -1.36569,-2.42236 -1.36569,-4.17682c0,-1.03673 0.20934,-2.06349 0.62802,-3.08028c0.41868,-1.02344 0.95034,-1.87741 1.59497,-2.56192c0.44526,-0.25254 1.01679,-0.46188 1.71459,-0.62802c0.6978,-0.17279 1.3524,-0.25918 1.9638,-0.25918zM402.06232,19.15814c-0.01329,-1.18958 -0.18276,-2.13327 -0.5084,-2.83107c-0.32564,-0.6978 -0.78419,-1.11648 -1.37566,-1.25604c-0.42532,0.44526 -0.7709,1.06331 -1.03673,1.85415c-0.26583,0.79084 -0.39874,1.60161 -0.39874,2.43232v0.07975zM406.66338,25.1293l0.93704,-0.07975l-0.11962,-15.28178l-0.97692,0.19937l-0.24921,-0.73767l4.71512,-1.4255l0.35887,0.60808l-0.12959,16.6375l0.94701,0.07975v0.73767h-5.4827z" fill="#ffece6" stroke="none" stroke-width="1" stroke-linecap="square"/><path d="M434,18.50752h10" fill="none" stroke="#ffece6" stroke-width="1" stroke-linecap="round"/><path d="M21.26648,20.92824v5.07282h-12.93617v-0.89696l1.25574,-0.01993v-15.25832l-1.25574,-0.0299v-0.88699h12.42789v4.94325l-0.99663,-0.01993l-0.04982,-1.27568c-1.88695,-1.17602 -3.85029,-2.16266 -5.89004,-2.95997l0.04983,7.09596h4.76386v0.93683h-4.76386l0.04983,7.65407c2.17264,-0.83052 4.2722,-1.8504 6.29866,-3.05963l0.04983,-1.27568zM41.54858,25.26355v0.7375h-5.4615v-0.7375l0.9468,-0.07973v-5.38176c0,-0.75079 -0.19267,-1.33216 -0.57804,-1.7441c-0.37872,-0.41859 -0.91025,-0.63784 -1.5946,-0.65777l-0.93683,0.9468v0.43851v6.39833l0.9169,0.07973v0.7375h-5.46151v-0.7375l0.9468,-0.07973v-5.38176c0,-0.75079 -0.19267,-1.32883 -0.57804,-1.73413c-0.37872,-0.41193 -0.91025,-0.62455 -1.5946,-0.63784l-0.83717,0.83717l-0.10963,6.91657l0.9468,0.07973v0.7375h-5.48143v-0.7375l0.9468,-0.07973l-0.07972,-9.12907l-0.96673,0.22923l-0.25913,-0.76739l4.02636,-1.25576l0.89696,2.86031l2.12281,-3.03969c1.30889,0 2.32214,0.26576 3.03971,0.7973c0.72422,0.52489 1.18931,1.34212 1.39527,2.4517l2.2723,-3.26892c1.56137,0 2.71081,0.38204 3.44832,1.14612c0.74415,0.76408 1.11621,1.95671 1.11621,3.57788v6.39833zM48.21278,14.14122c1.49494,0 2.67095,0.5415 3.52805,1.6245c0.86375,1.07635 1.28564,2.53143 1.26572,4.36521l-7.04613,0.22923c0.1196,1.00327 0.46842,1.77067 1.04645,2.3022c0.57804,0.52489 1.34545,0.78733 2.3022,0.78733c1.32219,0 2.40187,-0.36543 3.23903,-1.09628l0.45844,0.40862c-0.59797,1.13616 -1.40192,2.02316 -2.41183,2.66099c-1.0099,0.63784 -2.08627,0.95675 -3.22906,0.95675c-1.54809,0 -2.77726,-0.51159 -3.68751,-1.5348c-0.91025,-1.02985 -1.36537,-2.4218 -1.36537,-4.17585c0,-1.03648 0.20929,-2.06301 0.62787,-3.07956c0.41859,-1.02321 0.95011,-1.87698 1.5946,-2.56132c0.44516,-0.25248 1.01656,-0.46177 1.7142,-0.62787c0.69764,-0.17275 1.35208,-0.25913 1.96336,-0.25913zM49.22934,19.29377c-0.01328,-1.18931 -0.18271,-2.13278 -0.50827,-2.83041c-0.32556,-0.69764 -0.784,-1.11621 -1.37534,-1.25574c-0.42523,0.44516 -0.77072,1.06308 -1.03649,1.85373c-0.26577,0.79065 -0.39864,1.60124 -0.39864,2.43176v0.07973zM58.4178,18.01809l-0.10962,7.16573l2.27229,0.07973v0.7375h-6.80694v-0.7375l0.9468,-0.07973l-0.07973,-9.12907l-0.96672,0.22923l-0.25913,-0.76739l4.02637,-1.25576l0.86707,2.73076c0.56476,-1.13616 1.17934,-2.01983 1.84375,-2.65103c0.37206,-0.13288 0.82056,-0.19932 1.34545,-0.19932c0.71757,0 1.39194,0.12623 2.02314,0.37872l-0.81723,3.31875c-0.49166,-0.10631 -1.12286,-0.19932 -1.89358,-0.27905c-0.76408,-0.08637 -1.39195,-0.14618 -1.88362,-0.1794zM73.42016,24.67554l-3.75726,1.76403c-0.45845,-0.32556 -0.77073,-0.77072 -0.93683,-1.33547c-0.61791,0.37872 -1.23582,0.68435 -1.85373,0.9169c-0.61791,0.23918 -1.1594,0.35878 -1.62449,0.35878c-0.69099,0 -1.25907,-0.24583 -1.70422,-0.7375c-0.44516,-0.49166 -0.66774,-1.11954 -0.66774,-1.88362c0,-0.33886 0.03655,-0.7076 0.10963,-1.10625c0.07973,-0.40529 0.17938,-0.72754 0.29899,-0.96672l5.41168,-0.86707l0.04983,-0.7375c0.03322,-0.76408 -0.12956,-1.36206 -0.48834,-1.79392c-0.35214,-0.43851 -0.93018,-0.65777 -1.73413,-0.65777c-0.35214,0 -0.72422,0.03987 -1.11623,0.1196c-0.39201,0.07308 -0.72421,0.16942 -0.99662,0.28901l-0.40861,0.86707l-0.68767,-0.24915l1.17602,-3.67754c1.30889,-0.55811 2.54803,-0.83715 3.71741,-0.83715c1.20923,0 2.19589,0.31891 2.95997,0.95675c0.77072,0.63784 1.15608,1.63447 1.15608,2.98987l-0.02989,0.51824l-0.25913,3.43836l-0.04982,0.91689c0,0.30564 0.02658,0.54815 0.07973,0.72754c0.05315,0.17938 0.13952,0.36211 0.25911,0.54815l0.78733,-0.29899zM67.62977,24.54598c0.27241,0 0.5847,-0.10298 0.93683,-0.30895l-0.01993,-0.52821l0.01993,-0.56807l0.07972,-1.45507l-1.96335,0.45845c-0.06645,0.22591 -0.09966,0.52489 -0.09966,0.89696c0,0.5116 0.09966,0.89032 0.29899,1.13616c0.20598,0.24583 0.45511,0.36875 0.74747,0.36875zM73.85746,25.26355l0.93683,-0.07973l-0.1196,-15.27824l-0.97668,0.19933l-0.24916,-0.7375l4.71403,-1.42517l0.35879,0.60794l-0.12956,16.63365l0.9468,0.07973v0.7375h-5.48143zM92.80648,24.23703l-3.72738,2.02314c-0.45845,-0.27241 -0.79397,-0.63451 -1.00658,-1.08631c-0.21261,-0.45179 -0.33553,-1.03649 -0.36875,-1.75406l-2.52145,2.95997c-0.98998,0 -1.86368,-0.22258 -2.62112,-0.66774c-0.75743,-0.45179 -1.34877,-1.07304 -1.774,-1.86369c-0.42523,-0.79065 -0.63784,-1.68761 -0.63784,-2.69088c0,-0.87038 0.14285,-1.7906 0.42856,-2.76065c0.29234,-0.97005 0.64449,-1.72748 1.05643,-2.2723c0.31893,-0.45845 0.90361,-0.90361 1.75406,-1.33547c0.85045,-0.43187 1.5647,-0.6478 2.14274,-0.6478c0.5116,0 1.20923,0.08306 2.09291,0.24916l-0.04982,-4.48481l-0.96672,0.19933l-0.25911,-0.7375l4.72399,-1.42517l0.35878,0.60794l-0.15946,13.21523c0,0.61126 0.03322,1.06639 0.09966,1.36537c0.07308,0.29899 0.196,0.55811 0.36875,0.77737l0.75743,-0.35878zM83.8269,19.62266c0,0.78402 0.12623,1.46505 0.37871,2.04309c0.25911,0.57804 0.59465,1.01988 1.0066,1.32551c0.41858,0.30564 0.86707,0.45844 1.34544,0.45844l1.14612,-1.14611l-0.04982,-5.15255c-1.10294,-0.53153 -2.16599,-0.89032 -3.1892,-1.07635c-0.42523,0.97005 -0.63784,2.15271 -0.63784,3.54798zM114.00983,9.82585v15.25832l1.24578,0.01993v0.89696h-6.7272v-0.89696l1.24579,-0.01993v-7.09596h-5.71066v7.09596l1.24578,0.01993v0.89696h-6.73717v-0.89696l1.25574,-0.01993v-15.25832l-1.25574,-0.0299v-0.88699h6.73717v0.887l-1.24578,0.0299v7.21556h5.71066v-7.21556l-1.24578,-0.0299v-0.88699h6.7272v0.887zM116.84421,9.13818l3.25897,-0.7375v2.90018l-3.25896,0.48834zM120.36229,25.18382l0.9468,0.07973v0.7375h-5.49139v-0.7375l0.9468,-0.07973l-0.07973,-9.07924l-0.96672,0.19933l-0.25913,-0.7375l4.62433,-1.42517l0.35878,0.60794zM122.33322,25.26355l0.93682,-0.07973l-0.11958,-15.27824l-0.9767,0.19933l-0.24915,-0.7375l4.71404,-1.42517l0.35878,0.60794l-0.12955,16.63365l0.9468,0.07973v0.7375h-5.48143zM128.63505,25.26355l0.93683,-0.07973l-0.1196,-15.27824l-0.9767,0.19933l-0.24916,-0.7375l4.71404,-1.42517l0.35878,0.60794l-0.12955,16.63365l0.9468,0.07973v0.7375h-5.48143zM138.70414,16.43346c0,0.45845 0.18271,0.87703 0.54815,1.25574c0.36544,0.37206 0.92353,0.81392 1.67432,1.32551c0.9169,0.62455 1.61452,1.19263 2.09291,1.70423c0.47839,0.5116 0.71757,1.14281 0.71757,1.89359c0,0.65777 -0.19601,1.27568 -0.58801,1.85372c-0.392,0.57804 -0.9468,1.04314 -1.66437,1.39527c-0.71092,0.34551 -1.52815,0.51824 -2.45169,0.51824c-0.88368,0 -1.72085,-0.21261 -2.5115,-0.63784c-0.79065,-0.42523 -1.37202,-0.96672 -1.74409,-1.62449l2.19257,-1.76402c0.68435,1.27568 1.38199,2.32214 2.09291,3.13937c0.29234,-0.21926 0.53486,-0.47838 0.72754,-0.77737c0.19268,-0.29899 0.28903,-0.59465 0.28903,-0.88699c0,-0.47174 -0.17607,-0.88035 -0.52821,-1.22584c-0.34551,-0.35214 -0.88368,-0.77405 -1.61453,-1.26571c-0.59134,-0.39201 -1.06638,-0.73085 -1.42517,-1.01656c-0.35878,-0.29233 -0.6611,-0.64117 -0.90693,-1.04645c-0.24583,-0.41193 -0.36875,-0.8737 -0.36875,-1.38531c0,-0.6312 0.20598,-1.23582 0.61791,-1.81386c0.41858,-0.57804 1.00327,-1.04313 1.75405,-1.39527c0.75079,-0.35878 1.60125,-0.53817 2.55136,-0.53817c0.73085,0 1.42185,0.15614 2.07298,0.46842c0.65777,0.31228 1.19263,0.7076 1.60457,1.18598l-1.99325,1.96336c-0.81723,-1.03648 -1.71752,-1.96333 -2.70085,-2.78057c-0.29234,0.37206 -0.43851,0.8571 -0.43851,1.45507zM137.86698,26.00105h0.01993z" fill="#f1f6ff" stroke="none" stroke-width="1" stroke-linecap="square"/><g><path d="M159.61161,23.74241c1.35094,1.54768 1.66789,3.48162 0.70793,4.31955c-0.95996,0.83791 -2.83333,0.26254 -4.18427,-1.28516c-1.35094,-1.54768 -1.66787,-3.48162 -0.70791,-4.31955c0.95996,-0.83791 2.83331,-0.26254 4.18425,1.28516z" fill="#f1f6ff" stroke="none" stroke-width="0" stroke-linecap="butt"/><path d="M159.9778,27.44366v-10.07629" fill="#47794f" stroke="#f1f6ff" stroke-width="2" stroke-linecap="round"/><path d="M164.66587,19.41482c0.95996,0.83791 0.64302,2.77185 -0.70791,4.31953c-1.35094,1.54768 -3.2243,2.12309 -4.18428,1.28516c-0.95996,-0.83791 -0.64302,-2.77186 0.70793,-4.31955c1.35094,-1.54768 3.22429,-2.12307 4.18426,-1.28516z" data-paper-data="{&quot;index&quot;:null}" fill="#f1f6ff" stroke="none" stroke-width="0" stroke-linecap="butt"/><path d="M155.19682,12.1481c0,-2.10759 0.01325,-0.25181 0.05407,-1.94942c0.11197,-4.65814 0.84057,-5.38075 2.45458,-0.75886c0.27358,0.78341 0.26332,0.87891 0.26332,0.87891c0,0 0.19194,-0.26076 0.33057,-0.89504c0.80059,-3.66264 2.10766,-4.72635 3.54972,0.24902c0.132,0.45543 0.29386,0.6909 0.29386,0.6909c0,0 0.14379,-0.1682 0.25068,-0.52714c1.19566,-4.01527 2.47886,-5.48328 2.64473,0.42051c0.05964,2.12275 -0.0188,-0.18498 -0.0188,1.89114c0,2.71248 -2.1989,4.91139 -4.91139,4.91139c-2.71246,0 -4.91137,-2.1989 -4.91137,-4.91137z" fill="#f1f6ff" stroke="none" stroke-width="0" stroke-linecap="butt"/></g></g></g></svg>