<svg version="1.1" xmlns="http://www.w3.org/2000/svg" xmlns:xlink="http://www.w3.org/1999/xlink" width="484" height="32" viewBox="0,0,484,32"><g transform="translate(3,0.88353)"><g data-paper-data="{&quot;isPaintingLayer&quot;:true}" fill-rule="nonzero" stroke="none" stroke-linejoin="miter" stroke-miterlimit="10" stroke-dasharray="" stroke-dashoffset="0" style="mix-blend-mode: normal"><path d="M456.72066,16.13602c0.93704,0 1.77108,0.18276 2.5021,0.54827c0.73103,0.36551 1.29923,0.87723 1.70462,1.53516c0.41203,0.65128 0.61805,1.38563 0.61805,2.20305c0,1.03673 -0.31567,2.02361 -0.94701,2.96066c-0.62469,0.93704 -1.51189,1.69133 -2.6616,2.26286c-1.14971,0.56488 -2.46555,0.84733 -3.94754,0.84733c-0.6978,0 -1.38895,-0.0731 -2.07346,-0.21931c-0.67786,-0.13956 -1.2793,-0.33893 -1.80431,-0.59811l1.14638,-3.16003c2.19972,1.0899 4.3629,1.81427 6.48952,2.17314c0.16614,-0.54495 0.24921,-1.11648 0.24921,-1.71459c0,-1.37566 -0.53166,-2.40242 -1.59497,-3.08028c-1.06331,-0.68451 -2.76793,-1.00018 -5.11386,-0.94701v-0.79748l5.92131,-5.69204l-5.92131,1.0467l-0.07975,0.99685h-0.81742v-5.4827h10.43707v2.73138l-6.33003,4.69518c0.71774,-0.20602 1.45873,-0.30902 2.22299,-0.30902z" fill="#ffece6" stroke-width="1" stroke-linecap="square"/><path d="M-3,31.11647v-32h484v32z" fill="none" stroke-width="0" stroke-linecap="butt"/></g></g></svg>