<svg version="1.1" xmlns="http://www.w3.org/2000/svg" xmlns:xlink="http://www.w3.org/1999/xlink" width="942.6857" height="187.925" viewBox="0,0,942.6857,187.925"><defs><linearGradient x1="47.03724" y1="135.84933" x2="47.03724" y2="392.07228" gradientUnits="userSpaceOnUse" id="color-1"><stop offset="0" stop-color="#151c26"/><stop offset="1" stop-color="#57719b"/></linearGradient><linearGradient x1="516.79978" y1="136.34483" x2="516.79978" y2="392.56778" gradientUnits="userSpaceOnUse" id="color-2"><stop offset="0" stop-color="#151c26"/><stop offset="1" stop-color="#57719b"/></linearGradient></defs><g transform="translate(189.42434,-102.54068)"><g data-paper-data="{&quot;isPaintingLayer&quot;:true}" fill-rule="nonzero" stroke-linejoin="miter" stroke-miterlimit="10" stroke-dasharray="" stroke-dashoffset="0" style="mix-blend-mode: normal"><path d="M-189.42434,289.97018v-130.1681c0,0 3.75055,-1.53478 12.36438,2.35968c4.68871,2.11984 11.84394,10.0748 18.26026,11.03875c28.74402,4.31831 15.83435,-5.48667 39.74394,0.00715c10.78867,2.47896 44.4593,8.2861 67.11564,7.89782c27.37046,-0.46908 28.11906,-29.86602 53.85783,-31.01794c45.79375,-2.04945 43.02626,10.36153 64.01225,10.36153c6.87321,0 27.68385,-2.74641 43.2076,-7.65476c22.03728,-6.96782 42.29774,-16.84443 73.30497,-16.94469c20.49829,-0.06628 38.03869,11.64482 56.20129,16.81649c23.33691,6.64502 44.855,7.13597 44.855,7.13597v130.1681z" data-paper-data="{&quot;index&quot;:null}" fill="url(#color-1)" stroke="none" stroke-width="NaN" stroke-linecap="butt"/><path d="M234.35575,155.14379v-11.66395h12.32027v11.66395z" fill="#161e28" stroke="none" stroke-width="0" stroke-linecap="butt"/><path d="M222.66055,140.30859c1.59039,-2.26003 6.30033,-8.95312 6.30033,-8.95312c0,0 -2.59056,-0.05941 -3.87117,-0.08879c-1.5637,-0.03587 -2.30134,-1.83639 -1.28425,-3.06059c2.04027,-2.45572 8.85283,-10.65554 8.85283,-10.65554c0,0 -2.78828,0.03496 -3.99828,0.05012c-1.43408,0.01798 -1.29457,-1.75597 -0.36956,-2.88515c2.79635,-3.41349 7.24503,-8.85272 8.85303,-10.8679c1.54943,-1.94178 4.0586,-1.62103 5.62118,0.30954c1.62867,2.01223 5.69774,7.03955 8.42825,10.41308c1.0913,1.34831 0.6282,3.27093 -1.07572,3.25305c-1.10547,-0.01161 -3.18935,-0.03349 -3.18935,-0.03349c0,0 7.50269,8.60188 9.72781,11.15298c1.08177,1.24026 0.14151,3.03742 -1.47696,3.03404c-1.23473,-0.00258 -3.57514,-0.00747 -3.57514,-0.00747c0,0 4.33433,5.85134 5.92886,8.00397c1.0941,1.47705 0.93937,3.65999 -0.86407,3.65999c-4.50807,0 -24.06092,0 -32.47434,0c-2.38359,0 -1.53347,-3.32473 -1.53347,-3.32473z" fill="#161e28" stroke="none" stroke-width="0" stroke-linecap="butt"/><path d="M199.94996,141.02426v-6.82395h7.83132v6.82395z" fill="#161e28" stroke="none" stroke-width="0" stroke-linecap="butt"/><path d="M192.51596,132.37964c1.01093,-1.43657 4.00477,-5.691 4.00477,-5.691c0,0 -1.64668,-0.03778 -2.46068,-0.05644c-0.99397,-0.0228 -1.46283,-1.16729 -0.81633,-1.94545c1.29687,-1.56096 5.62726,-6.77313 5.62726,-6.77313c0,0 -1.77235,0.02222 -2.54149,0.03186c-0.91157,0.01143 -0.8229,-1.11619 -0.2349,-1.83393c1.77748,-2.16977 4.60527,-5.6272 5.62739,-6.90813c0.98488,-1.23427 2.57983,-1.0304 3.57307,0.19676c1.03526,1.27906 3.62175,4.47464 5.35738,6.61903c0.69369,0.85704 0.39931,2.07915 -0.68378,2.06778c-0.70268,-0.00737 -2.02729,-0.02129 -2.02729,-0.02129c0,0 4.76904,5.46774 6.18342,7.08934c0.68763,0.78836 0.08996,1.93072 -0.93882,1.92857c-0.78485,-0.00164 -2.27253,-0.00474 -2.27253,-0.00474c0,0 2.75508,3.71937 3.76865,5.08768c0.69545,0.93887 0.59711,2.32644 -0.54923,2.32644c-2.86553,0 -15.2942,0 -20.64215,0c-1.51512,0 -0.97474,-2.11334 -0.97474,-2.11334z" fill="#161e28" stroke="none" stroke-width="0" stroke-linecap="butt"/><path d="M-143.70783,175.4274v-11.66394h12.32028v11.66394z" data-paper-data="{&quot;index&quot;:null}" fill="#161e28" stroke="none" stroke-width="0" stroke-linecap="butt"/><path d="M-155.40304,160.59223c1.59039,-2.26003 6.30034,-8.95312 6.30034,-8.95312c0,0 -2.59057,-0.05942 -3.87118,-0.08879c-1.56371,-0.03587 -2.30133,-1.83639 -1.28425,-3.06059c2.04026,-2.45572 8.85283,-10.65554 8.85283,-10.65554c0,0 -2.78827,0.03495 -3.99828,0.05013c-1.43407,0.01799 -1.29458,-1.75598 -0.36956,-2.88515c2.79634,-3.41349 7.24504,-8.85273 8.85304,-10.86791c1.54943,-1.94178 4.0586,-1.62101 5.62119,0.30954c1.62868,2.01223 5.69774,7.03954 8.42825,10.41309c1.09131,1.34831 0.6282,3.27093 -1.07572,3.25305c-1.10546,-0.01161 -3.18935,-0.03349 -3.18935,-0.03349c0,0 7.5027,8.60188 9.7278,11.15298c1.08177,1.24026 0.14151,3.03742 -1.47696,3.03404c-1.23474,-0.00258 -3.57514,-0.00747 -3.57514,-0.00747c0,0 4.33433,5.85134 5.92886,8.00397c1.0941,1.47704 0.93938,3.65999 -0.86407,3.65999c-4.50806,0 -24.06091,0 -32.47434,0c-2.38359,0 -1.53347,-3.32473 -1.53347,-3.32473z" data-paper-data="{&quot;index&quot;:null}" fill="#161e28" stroke="none" stroke-width="0" stroke-linecap="butt"/><path d="M-81.57674,181.45393v-6.82395h7.83132v6.82395z" data-paper-data="{&quot;index&quot;:null}" fill="#1a2330" stroke="none" stroke-width="0" stroke-linecap="butt"/><path d="M-89.01074,172.80928c1.01093,-1.43658 4.00477,-5.691 4.00477,-5.691c0,0 -1.64667,-0.03777 -2.46068,-0.05644c-0.99397,-0.0228 -1.46284,-1.16729 -0.81634,-1.94544c1.29688,-1.56096 5.62726,-6.77313 5.62726,-6.77313c0,0 -1.77235,0.02222 -2.5415,0.03186c-0.91156,0.01143 -0.82289,-1.11619 -0.23491,-1.83393c1.77748,-2.16977 4.60527,-5.62719 5.62739,-6.90813c0.98488,-1.23427 2.57983,-1.0304 3.57308,0.19675c1.03526,1.27906 3.62175,4.47465 5.35737,6.61903c0.69369,0.85704 0.39931,2.07915 -0.68378,2.06778c-0.70268,-0.00737 -2.02731,-0.02129 -2.02731,-0.02129c0,0 4.76906,5.46774 6.18343,7.08933c0.68762,0.78835 0.08996,1.93072 -0.93882,1.92858c-0.78486,-0.00164 -2.27253,-0.00475 -2.27253,-0.00475c0,0 2.7551,3.71937 3.76866,5.08768c0.69545,0.93887 0.59711,2.32645 -0.54924,2.32645c-2.86553,0 -15.2942,0 -20.64215,0c-1.51512,0 -0.97474,-2.11335 -0.97474,-2.11335z" data-paper-data="{&quot;index&quot;:null}" fill="#1a2330" stroke="none" stroke-width="0" stroke-linecap="butt"/><path d="M-55.60134,182.06786v-9.52292h10.05878v9.52292z" data-paper-data="{&quot;index&quot;:null}" fill="#1a2330" stroke="none" stroke-width="0" stroke-linecap="butt"/><path d="M-65.14972,169.9558c1.29846,-1.84519 5.14386,-7.3097 5.14386,-7.3097c0,0 -2.11503,-0.04851 -3.16057,-0.07249c-1.27666,-0.02929 -1.87892,-1.4993 -1.04852,-2.49878c1.66576,-2.00495 7.22781,-8.69962 7.22781,-8.69962c0,0 -2.27647,0.02855 -3.26437,0.04093c-1.17085,0.01468 -1.05695,-1.43366 -0.30173,-2.35556c2.28306,-2.7869 5.91515,-7.22773 7.22799,-8.87301c1.26502,-1.58535 3.31362,-1.32347 4.58937,0.25273c1.32972,1.64287 4.65186,5.74737 6.88117,8.50167c0.891,1.10081 0.5129,2.67052 -0.87826,2.65592c-0.90255,-0.00948 -2.60393,-0.02734 -2.60393,-0.02734c0,0 6.12551,7.02293 7.94218,9.10575c0.8832,1.0126 0.11554,2.47987 -1.20585,2.47711c-1.00808,-0.00211 -2.9189,-0.00608 -2.9189,-0.00608c0,0 3.53873,4.77727 4.84058,6.53476c0.89328,1.20591 0.76695,2.98816 -0.70546,2.98816c-3.68057,0 -19.64432,0 -26.51337,0c-1.94606,0 -1.25199,-2.71444 -1.25199,-2.71444z" data-paper-data="{&quot;index&quot;:null}" fill="#1a2330" stroke="none" stroke-width="0" stroke-linecap="butt"/><path d="M76.16473,161.48027v-6.82394h7.83132v6.82394z" data-paper-data="{&quot;index&quot;:null}" fill="#161e28" stroke="none" stroke-width="0" stroke-linecap="butt"/><path d="M68.73072,152.83563c1.01094,-1.43657 4.00477,-5.691 4.00477,-5.691c0,0 -1.64668,-0.03778 -2.46068,-0.05644c-0.99397,-0.0228 -1.46282,-1.16729 -0.81634,-1.94544c1.29688,-1.56096 5.62726,-6.77313 5.62726,-6.77313c0,0 -1.77236,0.02222 -2.5415,0.03186c-0.91156,0.01143 -0.82289,-1.11618 -0.2349,-1.83393c1.77748,-2.16977 4.60527,-5.6272 5.62739,-6.90813c0.98488,-1.23427 2.57984,-1.03039 3.57308,0.19676c1.03526,1.27906 3.62175,4.47464 5.35737,6.61902c0.69369,0.85704 0.39932,2.07915 -0.68378,2.06778c-0.70268,-0.00737 -2.0273,-0.02129 -2.0273,-0.02129c0,0 4.76905,5.46775 6.18343,7.08934c0.68763,0.78835 0.08996,1.93072 -0.93882,1.92857c-0.78485,-0.00164 -2.27253,-0.00474 -2.27253,-0.00474c0,0 2.75509,3.71936 3.76866,5.08767c0.69545,0.93888 0.59711,2.32644 -0.54925,2.32644c-2.86553,0 -15.29419,0 -20.64214,0c-1.51512,0 -0.97474,-2.11334 -0.97474,-2.11334z" data-paper-data="{&quot;index&quot;:null}" fill="#161e28" stroke="none" stroke-width="0" stroke-linecap="butt"/><path d="M100.18884,155.34133v-4.83532h5.54912v4.83532z" data-paper-data="{&quot;index&quot;:null}" fill="#161e28" stroke="none" stroke-width="0" stroke-linecap="butt"/><path d="M94.92126,149.21593c0.71632,-1.01793 2.8377,-4.03252 2.8377,-4.03252c0,0 -1.1668,-0.02676 -1.74359,-0.03999c-0.70431,-0.01615 -1.03652,-0.82711 -0.57843,-1.3785c0.91894,-1.10607 3.98736,-4.7993 3.98736,-4.7993c0,0 -1.25585,0.01573 -1.80085,0.02257c-0.64591,0.00811 -0.58308,-0.7909 -0.16645,-1.29949c1.25948,-1.53745 3.2632,-3.98731 3.98746,-4.89495c0.69787,-0.87458 1.82803,-0.73012 2.53181,0.13941c0.73357,0.90632 2.56629,3.17065 3.79613,4.69011c0.49152,0.60729 0.28296,1.47325 -0.48451,1.46519c-0.4979,-0.00522 -1.43651,-0.01508 -1.43651,-0.01508c0,0 3.37925,3.87433 4.38144,5.02336c0.48723,0.55862 0.06374,1.36807 -0.66523,1.36654c-0.55614,-0.00116 -1.61026,-0.00336 -1.61026,-0.00336c0,0 1.9522,2.63548 2.67039,3.60503c0.49279,0.66527 0.4231,1.64848 -0.38918,1.64848c-2.03046,0 -10.83716,0 -14.6266,0c-1.07358,0 -0.69068,-1.49748 -0.69068,-1.49748z" data-paper-data="{&quot;index&quot;:null}" fill="#161e28" stroke="none" stroke-width="0" stroke-linecap="butt"/><path d="M30.46796,257.45084c0,0 -16.31631,-28.32981 -15.56356,-41.40623c0.06179,-1.07353 -60.46205,-2.68684 -88.32002,-11.28655c-27.12676,-8.37401 -19.48787,-22.28072 -19.48787,-22.28072l11.20712,-0.67645c0,0 -2.25279,14.60049 16.15758,19.66775c27.39519,7.54023 83.55931,9.44211 85.40275,8.88902c10.90116,-3.27067 34.04551,-8.67746 42.11922,-14.49553c6.04839,-4.3586 9.60416,-16.70372 11.67241,-28.33265c1.06194,-5.97089 41.86554,-13.18673 41.86554,-13.18673l11.81944,-0.70399c0,0 -43.8855,11.68537 -44.21262,15.76816c-1.20306,15.01528 -2.55513,23.07355 -9.08373,28.70667c-6.64762,5.73582 -30.23276,11.34608 -41.59617,14.86482c-4.07653,1.26231 -3.35007,0.11579 -4.23111,1.60781c-5.84985,9.90657 21.789,41.65021 21.789,41.65021z" fill-opacity="0.06667" fill="#000000" stroke="none" stroke-width="0" stroke-linecap="butt"/><g data-paper-data="{&quot;index&quot;:null}" fill="none" stroke="#232e3e" stroke-width="15" stroke-linecap="round"><path d="M183.65892,179.17845v-9.07482"/><path d="M179.45199,178.36578v-12.05461"/><path d="M175.63947,178.23033v-11.24194"/><path d="M171.69547,177.41766v-12.86728"/><path d="M168.01441,167.53017v10.29382"/><path d="M164.46481,179.17845v-6.77225"/><path d="M186.94558,179.99112v-2.84435"/></g><g fill="none" stroke="#263245" stroke-width="15" stroke-linecap="round"><path d="M108.55699,185.32113v12.53189"/><path d="M114.36656,180.08392v16.64684"/><path d="M119.63148,196.54371v-15.52458"/><path d="M125.07793,177.65235v17.76909"/><path d="M130.16131,195.98256v-14.21528"/><path d="M135.06314,188.50086v9.35216"/><path d="M104.01827,195.04736v3.92791"/></g><g fill="none" stroke="#33435b" stroke-width="15" stroke-linecap="round"><path d="M-79.86558,245.85424v-12.92983"/><path d="M-73.87151,227.52091v17.17544"/><path d="M-68.43942,244.50336v-16.01755"/><path d="M-62.82,225.01212v18.33334"/><path d="M-57.57522,229.25775v14.66667"/><path d="M-52.51774,236.20512v9.64913"/><path d="M-84.5484,247.01214v-4.05264"/></g><path d="M280.3382,290.46568v-130.1681c0,0 3.75055,-1.53478 12.36438,2.35968c4.68871,2.11984 11.84394,10.0748 18.26026,11.03875c28.74402,4.31831 15.83435,-5.48667 39.74394,0.00715c10.78867,2.47896 44.4593,8.2861 67.11564,7.89782c27.37046,-0.46908 28.11906,-29.86602 53.85783,-31.01794c45.79375,-2.04945 43.02626,10.36153 64.01225,10.36153c6.87321,0 27.68385,-2.74641 43.2076,-7.65476c22.03728,-6.96782 42.29774,-16.84443 73.30497,-16.94469c20.49829,-0.06628 38.03869,11.64482 56.20129,16.81649c23.33691,6.64502 44.855,7.13597 44.855,7.13597v130.1681z" data-paper-data="{&quot;index&quot;:null}" fill="url(#color-2)" stroke="none" stroke-width="NaN" stroke-linecap="butt"/><path d="M704.11829,155.63929v-11.66395h12.32027v11.66395z" fill="#161e28" stroke="none" stroke-width="0" stroke-linecap="butt"/><path d="M692.42309,140.80409c1.59039,-2.26003 6.30033,-8.95312 6.30033,-8.95312c0,0 -2.59056,-0.05941 -3.87117,-0.08879c-1.5637,-0.03587 -2.30134,-1.83639 -1.28425,-3.06059c2.04027,-2.45572 8.85283,-10.65554 8.85283,-10.65554c0,0 -2.78828,0.03496 -3.99828,0.05012c-1.43408,0.01798 -1.29457,-1.75597 -0.36956,-2.88515c2.79635,-3.41349 7.24503,-8.85272 8.85303,-10.8679c1.54943,-1.94178 4.0586,-1.62103 5.62118,0.30954c1.62867,2.01223 5.69774,7.03955 8.42825,10.41308c1.0913,1.34831 0.6282,3.27093 -1.07572,3.25305c-1.10547,-0.01161 -3.18935,-0.03349 -3.18935,-0.03349c0,0 7.50269,8.60188 9.72781,11.15298c1.08177,1.24026 0.14151,3.03742 -1.47696,3.03404c-1.23473,-0.00258 -3.57514,-0.00747 -3.57514,-0.00747c0,0 4.33433,5.85134 5.92886,8.00397c1.0941,1.47705 0.93937,3.65999 -0.86407,3.65999c-4.50807,0 -24.06092,0 -32.47434,0c-2.38359,0 -1.53347,-3.32473 -1.53347,-3.32473z" fill="#161e28" stroke="none" stroke-width="0" stroke-linecap="butt"/><path d="M669.7125,141.51976v-6.82395h7.83132v6.82395z" fill="#161e28" stroke="none" stroke-width="0" stroke-linecap="butt"/><path d="M662.2785,132.87514c1.01093,-1.43657 4.00477,-5.691 4.00477,-5.691c0,0 -1.64668,-0.03778 -2.46068,-0.05644c-0.99397,-0.0228 -1.46283,-1.16729 -0.81633,-1.94545c1.29687,-1.56096 5.62726,-6.77313 5.62726,-6.77313c0,0 -1.77235,0.02222 -2.54149,0.03186c-0.91157,0.01143 -0.8229,-1.11619 -0.2349,-1.83393c1.77748,-2.16977 4.60527,-5.6272 5.62739,-6.90813c0.98488,-1.23427 2.57983,-1.0304 3.57307,0.19676c1.03526,1.27906 3.62175,4.47464 5.35738,6.61903c0.69369,0.85704 0.39931,2.07915 -0.68378,2.06778c-0.70268,-0.00737 -2.02729,-0.02129 -2.02729,-0.02129c0,0 4.76904,5.46774 6.18342,7.08934c0.68763,0.78836 0.08996,1.93072 -0.93882,1.92857c-0.78485,-0.00164 -2.27253,-0.00474 -2.27253,-0.00474c0,0 2.75508,3.71937 3.76865,5.08768c0.69545,0.93887 0.59711,2.32644 -0.54923,2.32644c-2.86553,0 -15.2942,0 -20.64215,0c-1.51512,0 -0.97474,-2.11334 -0.97474,-2.11334z" fill="#161e28" stroke="none" stroke-width="0" stroke-linecap="butt"/><path d="M326.05471,175.9229v-11.66394h12.32028v11.66394z" data-paper-data="{&quot;index&quot;:null}" fill="#1a2330" stroke="none" stroke-width="0" stroke-linecap="butt"/><path d="M314.3595,161.08773c1.59039,-2.26003 6.30034,-8.95312 6.30034,-8.95312c0,0 -2.59057,-0.05942 -3.87118,-0.08879c-1.56371,-0.03587 -2.30133,-1.83639 -1.28425,-3.06059c2.04026,-2.45572 8.85283,-10.65554 8.85283,-10.65554c0,0 -2.78827,0.03495 -3.99828,0.05013c-1.43407,0.01799 -1.29458,-1.75598 -0.36956,-2.88515c2.79634,-3.41349 7.24504,-8.85273 8.85304,-10.86791c1.54943,-1.94178 4.0586,-1.62101 5.62119,0.30954c1.62868,2.01223 5.69774,7.03954 8.42825,10.41309c1.09131,1.34831 0.6282,3.27093 -1.07572,3.25305c-1.10546,-0.01161 -3.18935,-0.03349 -3.18935,-0.03349c0,0 7.5027,8.60188 9.7278,11.15298c1.08177,1.24026 0.14151,3.03742 -1.47696,3.03404c-1.23474,-0.00258 -3.57514,-0.00747 -3.57514,-0.00747c0,0 4.33433,5.85134 5.92886,8.00397c1.0941,1.47704 0.93938,3.65999 -0.86407,3.65999c-4.50806,0 -24.06091,0 -32.47434,0c-2.38359,0 -1.53347,-3.32473 -1.53347,-3.32473z" data-paper-data="{&quot;index&quot;:null}" fill="#1a2330" stroke="none" stroke-width="0" stroke-linecap="butt"/><path d="M388.1858,181.94943v-6.82395h7.83132v6.82395z" data-paper-data="{&quot;index&quot;:null}" fill="#1a2330" stroke="none" stroke-width="0" stroke-linecap="butt"/><path d="M380.7518,173.30478c1.01093,-1.43658 4.00477,-5.691 4.00477,-5.691c0,0 -1.64667,-0.03777 -2.46068,-0.05644c-0.99397,-0.0228 -1.46284,-1.16729 -0.81634,-1.94544c1.29688,-1.56096 5.62726,-6.77313 5.62726,-6.77313c0,0 -1.77235,0.02222 -2.5415,0.03186c-0.91156,0.01143 -0.82289,-1.11619 -0.23491,-1.83393c1.77748,-2.16977 4.60527,-5.62719 5.62739,-6.90813c0.98488,-1.23427 2.57983,-1.0304 3.57308,0.19675c1.03526,1.27906 3.62175,4.47465 5.35737,6.61903c0.69369,0.85704 0.39931,2.07915 -0.68378,2.06778c-0.70268,-0.00737 -2.02731,-0.02129 -2.02731,-0.02129c0,0 4.76906,5.46774 6.18343,7.08933c0.68762,0.78835 0.08996,1.93072 -0.93882,1.92858c-0.78486,-0.00164 -2.27253,-0.00475 -2.27253,-0.00475c0,0 2.7551,3.71937 3.76866,5.08768c0.69545,0.93887 0.59711,2.32645 -0.54924,2.32645c-2.86553,0 -15.2942,0 -20.64215,0c-1.51512,0 -0.97474,-2.11335 -0.97474,-2.11335z" data-paper-data="{&quot;index&quot;:null}" fill="#1a2330" stroke="none" stroke-width="0" stroke-linecap="butt"/><path d="M414.1612,182.56336v-9.52292h10.05878v9.52292z" data-paper-data="{&quot;index&quot;:null}" fill="#1a2330" stroke="none" stroke-width="0" stroke-linecap="butt"/><path d="M404.61282,170.4513c1.29846,-1.84519 5.14386,-7.3097 5.14386,-7.3097c0,0 -2.11503,-0.04851 -3.16057,-0.07249c-1.27666,-0.02929 -1.87892,-1.4993 -1.04852,-2.49878c1.66576,-2.00495 7.22781,-8.69962 7.22781,-8.69962c0,0 -2.27647,0.02855 -3.26437,0.04093c-1.17085,0.01468 -1.05695,-1.43366 -0.30173,-2.35556c2.28306,-2.7869 5.91515,-7.22773 7.22799,-8.87301c1.26502,-1.58535 3.31362,-1.32347 4.58937,0.25273c1.32972,1.64287 4.65186,5.74737 6.88117,8.50167c0.891,1.10081 0.5129,2.67052 -0.87826,2.65592c-0.90255,-0.00948 -2.60393,-0.02734 -2.60393,-0.02734c0,0 6.12551,7.02293 7.94218,9.10575c0.8832,1.0126 0.11554,2.47987 -1.20585,2.47711c-1.00808,-0.00211 -2.9189,-0.00608 -2.9189,-0.00608c0,0 3.53873,4.77727 4.84058,6.53476c0.89328,1.20591 0.76695,2.98816 -0.70546,2.98816c-3.68057,0 -19.64432,0 -26.51337,0c-1.94606,0 -1.25199,-2.71444 -1.25199,-2.71444z" data-paper-data="{&quot;index&quot;:null}" fill="#1a2330" stroke="none" stroke-width="0" stroke-linecap="butt"/><path d="M545.92727,161.97577v-6.82394h7.83132v6.82394z" data-paper-data="{&quot;index&quot;:null}" fill="#161e28" stroke="none" stroke-width="0" stroke-linecap="butt"/><path d="M538.49326,153.33113c1.01094,-1.43657 4.00477,-5.691 4.00477,-5.691c0,0 -1.64668,-0.03778 -2.46068,-0.05644c-0.99397,-0.0228 -1.46282,-1.16729 -0.81634,-1.94544c1.29688,-1.56096 5.62726,-6.77313 5.62726,-6.77313c0,0 -1.77236,0.02222 -2.5415,0.03186c-0.91156,0.01143 -0.82289,-1.11618 -0.2349,-1.83393c1.77748,-2.16977 4.60527,-5.6272 5.62739,-6.90813c0.98488,-1.23427 2.57984,-1.03039 3.57308,0.19676c1.03526,1.27906 3.62175,4.47464 5.35737,6.61902c0.69369,0.85704 0.39932,2.07915 -0.68378,2.06778c-0.70268,-0.00737 -2.0273,-0.02129 -2.0273,-0.02129c0,0 4.76905,5.46775 6.18343,7.08934c0.68763,0.78835 0.08996,1.93072 -0.93882,1.92857c-0.78485,-0.00164 -2.27253,-0.00474 -2.27253,-0.00474c0,0 2.75509,3.71936 3.76866,5.08767c0.69545,0.93888 0.59711,2.32644 -0.54925,2.32644c-2.86553,0 -15.29419,0 -20.64214,0c-1.51512,0 -0.97474,-2.11334 -0.97474,-2.11334z" data-paper-data="{&quot;index&quot;:null}" fill="#161e28" stroke="none" stroke-width="0" stroke-linecap="butt"/><path d="M569.95138,155.83683v-4.83532h5.54912v4.83532z" data-paper-data="{&quot;index&quot;:null}" fill="#161e28" stroke="none" stroke-width="0" stroke-linecap="butt"/><path d="M564.6838,149.71143c0.71632,-1.01793 2.8377,-4.03252 2.8377,-4.03252c0,0 -1.1668,-0.02676 -1.74359,-0.03999c-0.70431,-0.01615 -1.03652,-0.82711 -0.57843,-1.3785c0.91894,-1.10607 3.98736,-4.7993 3.98736,-4.7993c0,0 -1.25585,0.01573 -1.80085,0.02257c-0.64591,0.00811 -0.58308,-0.7909 -0.16645,-1.29949c1.25948,-1.53745 3.2632,-3.98731 3.98746,-4.89495c0.69787,-0.87458 1.82803,-0.73012 2.53181,0.13941c0.73357,0.90632 2.56629,3.17065 3.79613,4.69011c0.49152,0.60729 0.28296,1.47325 -0.48451,1.46519c-0.4979,-0.00522 -1.43651,-0.01508 -1.43651,-0.01508c0,0 3.37925,3.87433 4.38144,5.02336c0.48723,0.55862 0.06374,1.36807 -0.66523,1.36654c-0.55614,-0.00116 -1.61026,-0.00336 -1.61026,-0.00336c0,0 1.9522,2.63548 2.67039,3.60503c0.49279,0.66527 0.4231,1.64848 -0.38918,1.64848c-2.03046,0 -10.83716,0 -14.6266,0c-1.07358,0 -0.69068,-1.49748 -0.69068,-1.49748z" data-paper-data="{&quot;index&quot;:null}" fill="#161e28" stroke="none" stroke-width="0" stroke-linecap="butt"/><path d="M500.2305,257.94634c0,0 -16.31631,-28.32981 -15.56356,-41.40623c0.06179,-1.07353 -60.46205,-2.68684 -88.32002,-11.28655c-27.12676,-8.37401 -19.48787,-22.28072 -19.48787,-22.28072l11.20712,-0.67645c0,0 -2.25279,14.60049 16.15758,19.66775c27.39519,7.54023 83.55931,9.44211 85.40275,8.88902c10.90116,-3.27067 34.04551,-8.67746 42.11922,-14.49553c6.04839,-4.3586 9.60416,-16.70372 11.67241,-28.33265c1.06194,-5.97089 41.86554,-13.18673 41.86554,-13.18673l11.81944,-0.70399c0,0 -43.8855,11.68537 -44.21262,15.76816c-1.20306,15.01528 -2.55513,23.07355 -9.08373,28.70667c-6.64762,5.73582 -30.23276,11.34608 -41.59617,14.86482c-4.07653,1.26231 -3.35007,0.11579 -4.23111,1.60781c-5.84985,9.90657 21.789,41.65021 21.789,41.65021z" fill-opacity="0.06667" fill="#000000" stroke="none" stroke-width="0" stroke-linecap="butt"/><g data-paper-data="{&quot;index&quot;:null}" fill="none" stroke="#232e3e" stroke-width="15" stroke-linecap="round"><path d="M653.42146,170.59913v9.07482"/><path d="M649.21453,178.86128v-12.05461"/><path d="M645.40201,178.72583v-11.24194"/><path d="M641.45801,177.91316v-12.86728"/><path d="M637.77695,168.02567v10.29382"/><path d="M634.22736,179.67395v-6.77225"/><path d="M656.70812,180.48662v-2.84435"/></g><g fill="none" stroke="#263245" stroke-width="15" stroke-linecap="round"><path d="M578.31954,198.34852v-12.53189"/><path d="M584.1291,180.57942v16.64684"/><path d="M589.39402,181.51463v15.52458"/><path d="M594.84047,195.91694v-17.76909"/><path d="M599.92385,182.26278v14.21528"/><path d="M604.82568,198.34852v-9.35216"/><path d="M573.78081,199.47077v-3.92791"/></g><g fill="none" stroke="#243041" stroke-width="15" stroke-linecap="round"><path d="M467.97504,174.86136v12.92983"/><path d="M473.96911,169.45786v17.17544"/><path d="M479.4012,170.42276v16.01755"/><path d="M485.02062,166.94907v18.33334"/><path d="M490.2654,185.86137v-14.66667"/><path d="M495.32289,178.14207v9.64913"/><path d="M463.29222,184.89645v4.05264"/></g><g fill="none" stroke="#243041" stroke-width="15" stroke-linecap="round"><path d="M-4.03097,187.28368v-12.92983"/><path d="M1.9631,168.95035v17.17544"/><path d="M7.39519,169.91525v16.01755"/><path d="M13.01461,166.44156v18.33334"/><path d="M18.25939,185.35386v-14.66667"/><path d="M23.31688,177.63456v9.64913"/><path d="M-8.71379,188.44158v-4.05264"/></g><g fill="#202b3a" stroke="none" stroke-width="0" stroke-linecap="butt"><path d="M220.6324,176.99623c-1.96671,-2.86812 -1.85647,-9.83927 -1.85647,-9.83927c0,0 4.71657,0.65917 6.68328,3.52729c1.96671,2.86812 2.22776,9.46798 2.22776,9.46798c0,0 -5.08786,-0.28787 -7.05457,-3.15599z"/><path d="M225.82939,179.96657c0,0 0.26105,-6.59986 2.22776,-9.46797c1.96671,-2.86812 6.68328,-3.52729 6.68328,-3.52729c0,0 0.11024,6.97116 -1.85646,9.83927c-1.96671,2.86812 -7.05457,3.15599 -7.05457,3.15599z" data-paper-data="{&quot;index&quot;:null}"/><path d="M227.3796,178.76445c0,0 3.63918,-5.51205 6.80641,-6.94826c3.16723,-1.43621 7.54411,0.44088 7.54411,0.44088c0,0 -3.51365,6.02191 -6.68088,7.45812c-3.16723,1.43621 -7.66964,-0.95073 -7.66964,-0.95073z" data-paper-data="{&quot;index&quot;:null}"/><path d="M217.53793,179.71519c-3.16723,-1.43621 -6.68088,-7.45812 -6.68088,-7.45812c0,0 4.37688,-1.87709 7.54411,-0.44088c3.16723,1.43621 6.80641,6.94826 6.80641,6.94826c0,0 -4.50241,2.38695 -7.66964,0.95073z" data-paper-data="{&quot;index&quot;:null}"/><path d="M226.11589,179.47451c0,0 -3.1934,-5.78174 -2.99558,-9.25376c0.19783,-3.47201 3.89188,-6.47774 3.89188,-6.47774c0,0 3.70329,5.90719 3.50546,9.3792c-0.19782,3.47201 -4.40177,6.3523 -4.40177,6.3523z" data-paper-data="{&quot;index&quot;:null}"/></g><g fill="#242f40" stroke="none" stroke-width="0" stroke-linecap="butt"><path d="M255.53218,188.37845c-2.34892,-3.42552 -2.21726,-11.75147 -2.21726,-11.75147c0,0 5.6332,0.78728 7.98213,4.21279c2.34892,3.42552 2.66071,11.30803 2.66071,11.30803c0,0 -6.07666,-0.34383 -8.42558,-3.76934z"/><path d="M261.73918,191.92606c0,0 0.31178,-7.8825 2.66071,-11.30802c2.34892,-3.42552 7.98213,-4.21279 7.98213,-4.21279c0,0 0.13166,8.32596 -2.21726,11.75147c-2.34892,3.42552 -8.42558,3.76934 -8.42558,3.76934z" data-paper-data="{&quot;index&quot;:null}"/><path d="M263.59067,190.49032c0,0 4.34643,-6.58328 8.12919,-8.29861c3.78276,-1.71533 9.01026,0.52656 9.01026,0.52656c0,0 -4.19651,7.19223 -7.97927,8.90757c-3.78276,1.71533 -9.16018,-1.1355 -9.16018,-1.1355z" data-paper-data="{&quot;index&quot;:null}"/><path d="M251.83632,191.62583c-3.78276,-1.71533 -7.97926,-8.90756 -7.97926,-8.90756c0,0 5.2275,-2.24189 9.01026,-0.52656c3.78276,1.71533 8.1292,8.29861 8.1292,8.29861c0,0 -5.37743,2.85084 -9.16019,1.1355z" data-paper-data="{&quot;index&quot;:null}"/><path d="M262.08136,191.33836c0,0 -3.81402,-6.90539 -3.57775,-11.05217c0.23627,-4.14678 4.64824,-7.73665 4.64824,-7.73665c0,0 4.423,7.05521 4.18673,11.20199c-0.23627,4.14678 -5.25723,7.58683 -5.25723,7.58683z" data-paper-data="{&quot;index&quot;:null}"/></g><g fill="#253042" stroke="none" stroke-width="0" stroke-linecap="butt"><path d="M341.6324,193.99623c-1.9667,-2.86811 -1.85646,-9.83927 -1.85646,-9.83927c0,0 4.71657,0.65917 6.68327,3.52729c1.96671,2.86811 2.22776,9.46798 2.22776,9.46798c0,0 -5.08786,-0.28788 -7.05457,-3.15599z"/><path d="M346.82939,196.96657c0,0 0.26105,-6.59986 2.22776,-9.46797c1.96671,-2.86811 6.68327,-3.52729 6.68327,-3.52729c0,0 0.11024,6.97116 -1.85646,9.83927c-1.9667,2.86811 -7.05457,3.15599 -7.05457,3.15599z" data-paper-data="{&quot;index&quot;:null}"/><path d="M348.37961,195.76446c0,0 3.63918,-5.51205 6.80641,-6.94826c3.16723,-1.43621 7.54411,0.44088 7.54411,0.44088c0,0 -3.51366,6.02191 -6.68088,7.45812c-3.16722,1.43621 -7.66964,-0.95073 -7.66964,-0.95073z" data-paper-data="{&quot;index&quot;:null}"/><path d="M338.53793,196.71519c-3.16723,-1.43621 -6.68087,-7.45812 -6.68087,-7.45812c0,0 4.37688,-1.87708 7.54411,-0.44088c3.16723,1.43621 6.80641,6.94826 6.80641,6.94826c0,0 -4.50242,2.38695 -7.66964,0.95074z" data-paper-data="{&quot;index&quot;:null}"/><path d="M347.11589,196.47451c0,0 -3.1934,-5.78175 -2.99558,-9.25376c0.19782,-3.47201 3.89188,-6.47774 3.89188,-6.47774c0,0 3.70329,5.90718 3.50546,9.3792c-0.19782,3.47201 -4.40177,6.3523 -4.40177,6.3523z" data-paper-data="{&quot;index&quot;:null}"/></g><g fill="#253042" stroke="none" stroke-width="0" stroke-linecap="butt"><path d="M-118.3676,194.99623c-1.9667,-2.86811 -1.85647,-9.83927 -1.85647,-9.83927c0,0 4.71657,0.65917 6.68327,3.52729c1.9667,2.86811 2.22776,9.46798 2.22776,9.46798c0,0 -5.08786,-0.28788 -7.05457,-3.15599z"/><path d="M-113.17061,197.96657c0,0 0.26105,-6.59986 2.22776,-9.46797c1.9667,-2.86811 6.68328,-3.52729 6.68328,-3.52729c0,0 0.11024,6.97116 -1.85647,9.83927c-1.9667,2.86811 -7.05457,3.15599 -7.05457,3.15599z" data-paper-data="{&quot;index&quot;:null}"/><path d="M-111.62039,196.76446c0,0 3.63918,-5.51205 6.8064,-6.94826c3.16722,-1.43621 7.54411,0.44088 7.54411,0.44088c0,0 -3.51366,6.02191 -6.68088,7.45812c-3.16722,1.43621 -7.66963,-0.95073 -7.66963,-0.95073z" data-paper-data="{&quot;index&quot;:null}"/><path d="M-121.46207,197.71519c-3.16723,-1.43621 -6.68088,-7.45812 -6.68088,-7.45812c0,0 4.37688,-1.87708 7.54411,-0.44088c3.16723,1.43621 6.80641,6.94826 6.80641,6.94826c0,0 -4.50241,2.38695 -7.66964,0.95074z" data-paper-data="{&quot;index&quot;:null}"/><path d="M-112.88411,197.47451c0,0 -3.1934,-5.78175 -2.99558,-9.25376c0.19783,-3.47201 3.89188,-6.47774 3.89188,-6.47774c0,0 3.70329,5.90718 3.50547,9.3792c-0.19782,3.47201 -4.40177,6.3523 -4.40177,6.3523z" data-paper-data="{&quot;index&quot;:null}"/></g></g></g></svg>