<svg version="1.1" xmlns="http://www.w3.org/2000/svg" xmlns:xlink="http://www.w3.org/1999/xlink" width="484" height="32" viewBox="0,0,484,32"><g transform="translate(3,0.88353)"><g data-paper-data="{&quot;isPaintingLayer&quot;:true}" fill-rule="nonzero" stroke="none" stroke-linejoin="miter" stroke-miterlimit="10" stroke-dasharray="" stroke-dashoffset="0" style="mix-blend-mode: normal"><path d="M450.17403,24.48588l1.45541,-0.06978l-0.11962,-14.01577l-1.48531,0.33893l-0.24921,-0.89717l5.8615,-1.55509l0.35887,0.60808l-0.12959,15.52102l1.45541,0.06978v0.89717h-7.14745zM466.17834,7.89822c1.18958,0 2.27615,0.32564 3.25971,0.97692c0.99021,0.64463 1.77108,1.57171 2.34261,2.78122c0.57153,1.20287 0.85729,2.61508 0.85729,4.23663c0,1.37566 -0.16614,2.68154 -0.49843,3.91764c-0.33229,1.22945 -0.83736,2.29609 -1.51522,3.1999c-0.65128,0.86394 -1.46205,1.53848 -2.43232,2.02361c-0.97027,0.48513 -2.08343,0.7277 -3.33946,0.7277c-1.18958,0 -2.27947,-0.32232 -3.26968,-0.96695c-0.98356,-0.64463 -1.76111,-1.57171 -2.33264,-2.78122c-0.57153,-1.20952 -0.85729,-2.62173 -0.85729,-4.23663c0,-1.37566 0.16614,-2.67821 0.49843,-3.90767c0.33229,-1.2361 0.84068,-2.30606 1.52519,-3.20987c0.64463,-0.87059 1.45208,-1.54845 2.42236,-2.03358c0.97027,-0.48513 2.08343,-0.7277 3.33946,-0.7277zM461.63268,14.6868c0,2.69151 0.6546,4.67192 1.9638,5.94125c1.31585,1.26268 3.11351,1.95383 5.39298,2.07346c0.27247,-1.54845 0.40871,-2.79119 0.40871,-3.72824c0,-2.68486 -0.65792,-4.65863 -1.97377,-5.92131c-1.3092,-1.26933 -3.10354,-1.9638 -5.38301,-2.08343c-0.27247,1.54845 -0.40871,2.78787 -0.40871,3.71827z" fill="#cfcdff" stroke-width="1" stroke-linecap="square"/><path d="M-3,31.11647v-32h484v32z" fill="none" stroke-width="0" stroke-linecap="butt"/></g></g></svg>