<svg version="1.1" xmlns="http://www.w3.org/2000/svg" xmlns:xlink="http://www.w3.org/1999/xlink" width="488" height="37" viewBox="0,0,488,37"><g transform="translate(3.5,2.88353)"><g data-paper-data="{&quot;isPaintingLayer&quot;:true}" fill-rule="nonzero" stroke-linejoin="miter" stroke-miterlimit="10" stroke-dasharray="" stroke-dashoffset="0" style="mix-blend-mode: normal"><path d="M-3.5,34.11647v-37h488v37z" fill-opacity="0.06667" fill="#000000" stroke="none" stroke-width="0" stroke-linecap="butt"/><path d="M-3.5,34.11647v-37h488v37z" fill-opacity="0.06667" fill="#000000" stroke="none" stroke-width="0" stroke-linecap="butt"/><path d="M-3.5,34.11647v-37h488v37z" fill-opacity="0.06667" fill="#000000" stroke="none" stroke-width="0" stroke-linecap="butt"/><path d="M-3.5,34.11647v-37h488v37z" fill-opacity="0.06667" fill="#000000" stroke="none" stroke-width="0" stroke-linecap="butt"/><path d="M366.57722,20.79298v5.07399h-12.93917v-0.89717l1.25604,-0.01994v-15.26184l-1.25604,-0.02991v-0.8872h8.27389v0.8872l-2.78122,0.02991v15.212c2.12662,-0.75096 4.25989,-1.68801 6.3998,-2.81113l0.04984,-1.27597zM373.19074,14.0044c1.49528,0 2.67157,0.54163 3.52886,1.62487c0.86394,1.0766 1.28594,2.53201 1.26601,4.36622l-7.04776,0.22928c0.11962,1.0035 0.46852,1.77108 1.0467,2.30273c0.57818,0.52501 1.34575,0.78751 2.30273,0.78751c1.32249,0 2.40242,-0.36551 3.23978,-1.09654l0.45855,0.40871c-0.59811,1.13641 -1.40224,2.02361 -2.41239,2.6616c-1.01015,0.63799 -2.08675,0.95698 -3.22981,0.95698c-1.54845,0 -2.7779,-0.51172 -3.68836,-1.53516c-0.91046,-1.03008 -1.36569,-2.42236 -1.36569,-4.17682c0,-1.03673 0.20934,-2.06349 0.62802,-3.08028c0.41868,-1.02344 0.95034,-1.87741 1.59497,-2.56192c0.44526,-0.25254 1.01679,-0.46188 1.71459,-0.62802c0.6978,-0.17279 1.3524,-0.25918 1.9638,-0.25918zM374.20753,19.15814c-0.01329,-1.18958 -0.18276,-2.13327 -0.5084,-2.83107c-0.32564,-0.6978 -0.78419,-1.11648 -1.37566,-1.25604c-0.42532,0.44526 -0.7709,1.06331 -1.03673,1.85415c-0.26583,0.79084 -0.39874,1.60161 -0.39874,2.43232v0.07975zM390.33623,14.38321v0.81742l-0.73767,0.01994l-4.51575,10.49688l-2.58185,0.14953l-4.02729,-10.6464l-0.74764,-0.01994v-0.81742h6.05091v0.81742l-1.06663,0.01994l2.21302,7.86518l2.09339,-7.86518l-1.06663,-0.01994v-0.81742zM396.54102,14.0044c1.49528,0 2.67157,0.54163 3.52886,1.62487c0.86394,1.0766 1.28594,2.53201 1.26601,4.36622l-7.04776,0.22928c0.11962,1.0035 0.46852,1.77108 1.0467,2.30273c0.57818,0.52501 1.34575,0.78751 2.30273,0.78751c1.32249,0 2.40242,-0.36551 3.23978,-1.09654l0.45855,0.40871c-0.59811,1.13641 -1.40224,2.02361 -2.41239,2.6616c-1.01015,0.63799 -2.08675,0.95698 -3.22981,0.95698c-1.54845,0 -2.7779,-0.51172 -3.68836,-1.53516c-0.91046,-1.03008 -1.36569,-2.42236 -1.36569,-4.17682c0,-1.03673 0.20934,-2.06349 0.62802,-3.08028c0.41868,-1.02344 0.95034,-1.87741 1.59497,-2.56192c0.44526,-0.25254 1.01679,-0.46188 1.71459,-0.62802c0.6978,-0.17279 1.3524,-0.25918 1.9638,-0.25918zM397.55782,19.15814c-0.01329,-1.18958 -0.18276,-2.13327 -0.5084,-2.83107c-0.32564,-0.6978 -0.78419,-1.11648 -1.37566,-1.25604c-0.42532,0.44526 -0.7709,1.06331 -1.03673,1.85415c-0.26583,0.79084 -0.39874,1.60161 -0.39874,2.43232v0.07975zM402.15888,25.1293l0.93704,-0.07975l-0.11962,-15.28178l-0.97692,0.19937l-0.24921,-0.73767l4.71512,-1.4255l0.35887,0.60808l-0.12959,16.6375l0.94701,0.07975v0.73767h-5.4827z" fill="#ffece6" stroke="none" stroke-width="1" stroke-linecap="square"/><path d="M434,18.50752h10" fill="none" stroke="#ffece6" stroke-width="1" stroke-linecap="round"/><path d="M422.96779,15.1781c0.97027,0 1.84086,0.20269 2.61176,0.60808c0.77755,0.39874 1.3823,0.95034 1.81427,1.65478c0.43862,0.70444 0.65792,1.51854 0.65792,2.44229c0,1.08325 -0.28244,2.11001 -0.84733,3.08028c-0.55824,0.97027 -1.33911,1.75446 -2.34261,2.35258c-1.0035,0.59147 -2.12662,0.8872 -3.36937,0.8872c-1.20952,0 -2.30273,-0.28909 -3.27965,-0.86726c-0.97692,-0.57818 -1.74782,-1.39892 -2.3127,-2.46223c-0.55824,-1.06331 -0.83736,-2.29277 -0.83736,-3.68836c0,-1.85415 0.45855,-3.57871 1.37566,-5.17367c0.91711,-1.60161 2.16982,-2.90749 3.75814,-3.91764c1.59497,-1.01679 3.34279,-1.60161 5.24345,-1.75446l0.17943,0.92707c-1.9339,0.57818 -3.45576,1.44544 -4.56559,2.60179c-1.10318,1.15635 -1.75779,2.58518 -1.9638,4.28647c0.59811,-0.29241 1.23278,-0.52833 1.90399,-0.70777c0.67122,-0.17943 1.32914,-0.26915 1.97377,-0.26915zM419.01028,17.53067c0.01994,1.22281 0.24257,2.33596 0.66789,3.33946c0.42532,1.0035 1.01015,1.8176 1.75446,2.44229c0.75096,0.61805 1.59497,0.98024 2.53201,1.08657c0.27247,-0.75096 0.40871,-1.50193 0.40871,-2.25289c0,-1.34243 -0.47185,-2.41571 -1.41553,-3.21984c-0.94369,-0.81078 -2.25954,-1.27597 -3.94754,-1.3956z" fill="#ffece6" stroke="none" stroke-width="1" stroke-linecap="square"/><path d="M22.48356,22.43906v4.95599h-12.63821v-0.87631l1.22682,-0.01947v-14.90687l-1.22682,-0.02921v-0.86657h8.08145v0.86657l-2.71652,0.02922v14.85818c2.07716,-0.73349 4.16081,-1.64873 6.25095,-2.74575l0.04868,-1.24631zM33.30531,26.10006l-3.67072,1.7234c-0.4479,-0.31806 -0.75298,-0.75297 -0.91525,-1.30471c-0.60367,0.37 -1.20735,0.66858 -1.81102,0.89577c-0.60367,0.23368 -1.13271,0.35053 -1.58708,0.35053c-0.67507,0 -1.23007,-0.24017 -1.66497,-0.72052c-0.4349,-0.48034 -0.65236,-1.09376 -0.65236,-1.84023c0,-0.33104 0.03569,-0.69129 0.10711,-1.08077c0.07789,-0.39596 0.17525,-0.71078 0.29211,-0.94446l5.28702,-0.84708l0.0487,-0.72052c0.03245,-0.74648 -0.12658,-1.33068 -0.47709,-1.7526c-0.34403,-0.42841 -0.90876,-0.64262 -1.69419,-0.64262c-0.34403,0 -0.70753,0.03895 -1.0905,0.11684c-0.38298,0.0714 -0.70754,0.16553 -0.97367,0.28237l-0.3992,0.84709l-0.67182,-0.24342l1.14893,-3.59284c1.27876,-0.54525 2.48935,-0.81788 3.63179,-0.81788c1.18138,0 2.14531,0.31158 2.8918,0.93473c0.75297,0.62315 1.12945,1.59681 1.12945,2.921l-0.02921,0.5063l-0.25316,3.35916l-0.04868,0.89578c0,0.29859 0.02597,0.53553 0.07789,0.71078c0.05193,0.17526 0.1363,0.35377 0.25316,0.53552l0.7692,-0.29211zM27.64829,25.97349c0.26614,0 0.57122,-0.10062 0.91525,-0.30184l-0.01947,-0.51604l0.01947,-0.55499l0.07789,-1.42156l-1.91813,0.4479c-0.06492,0.22069 -0.09737,0.5128 -0.09737,0.87631c0,0.49982 0.09737,0.86981 0.29211,1.10999c0.20122,0.24017 0.44464,0.36026 0.73025,0.36026zM45.96182,26.67453v0.72052h-5.3357v-0.72052l0.92499,-0.07789v-5.25782c0,-0.73349 -0.20446,-1.29822 -0.61341,-1.69419c-0.40244,-0.40244 -0.96068,-0.61017 -1.6747,-0.62315l-0.79841,0.81788l-0.10709,6.75726l0.92499,0.07789v0.72052h-5.35519v-0.72052l0.92499,-0.07789l-0.07789,-8.91881l-0.94446,0.22395l-0.25316,-0.74973l3.93363,-1.22682l0.87631,2.79443l2.07393,-2.96968c1.57735,0 2.73925,0.37648 3.48574,1.12945c0.74648,0.74648 1.11973,1.9019 1.11973,3.46626v6.25095zM59.07478,25.67165l-3.64152,1.97655c-0.4479,-0.26614 -0.77568,-0.61991 -0.9834,-1.06129c-0.20772,-0.4414 -0.3278,-1.01262 -0.36025,-1.71366l-2.46338,2.89181c-0.96718,0 -1.82076,-0.21746 -2.56075,-0.65236c-0.73999,-0.4414 -1.31769,-1.04832 -1.73312,-1.82076c-0.41543,-0.77244 -0.62315,-1.64875 -0.62315,-2.6289c0,-0.85034 0.13956,-1.74935 0.41867,-2.69706c0.2856,-0.9477 0.62964,-1.68769 1.03209,-2.21997c0.31157,-0.4479 0.8828,-0.88279 1.71366,-1.30471c0.83086,-0.42193 1.52867,-0.63288 2.09339,-0.63288c0.49982,0 1.18138,0.08115 2.0447,0.24342l-0.04868,-4.3815l-0.94445,0.19473l-0.25316,-0.72052l4.6152,-1.39235l0.35052,0.59394l-0.15579,12.91085c0,0.59719 0.03245,1.04183 0.09737,1.33393c0.0714,0.29211 0.19148,0.54526 0.36026,0.75946l0.73999,-0.35052zM50.30203,21.16357c0,0.76596 0.12333,1.43129 0.37,1.99602c0.25316,0.56473 0.58095,0.99639 0.9834,1.29499c0.40895,0.29859 0.84709,0.4479 1.31445,0.4479l1.11973,-1.11971l-0.04867,-5.03386c-1.07754,-0.51929 -2.1161,-0.86981 -3.11575,-1.05157c-0.41543,0.9477 -0.62315,2.10313 -0.62315,3.46626zM69.67334,15.80838c1.66174,0 2.9989,0.49008 4.01151,1.47024c1.01261,0.98016 1.51893,2.37576 1.51893,4.18678c0,0.77894 -0.13956,1.58384 -0.41867,2.41469c-0.27262,0.83086 -0.67507,1.56111 -1.20735,2.19076c-0.52578,0.51929 -1.14243,0.93147 -1.84998,1.23656c-0.70754,0.30507 -1.45076,0.45763 -2.22969,0.45763c-1.66174,0 -3.00213,-0.49008 -4.02125,-1.47024c-1.01261,-0.98016 -1.51893,-2.37576 -1.51893,-4.18678c0,-0.75946 0.13956,-1.55462 0.41867,-2.38548c0.2856,-0.83086 0.69456,-1.56437 1.22683,-2.20049c0.53227,-0.5128 1.15218,-0.92498 1.85972,-1.23656c0.70754,-0.31806 1.44427,-0.47709 2.21023,-0.47709zM67.55074,20.91041c0,1.58384 0.31157,2.76522 0.93471,3.54416c0.62315,0.77894 1.54165,1.24305 2.75549,1.39235c0.11684,-0.49982 0.2077,-1.05481 0.27262,-1.66497c0.06492,-0.61665 0.09737,-1.12297 0.09737,-1.51893c0,-1.59681 -0.31158,-2.78144 -0.93473,-3.55388c-0.62315,-0.77244 -1.5319,-1.23332 -2.72627,-1.38261c-0.11684,0.5128 -0.21421,1.07753 -0.29211,1.69419c-0.0714,0.61665 -0.10711,1.11322 -0.10711,1.48972zM79.04004,11.33923c0.09737,0.76596 0.31481,1.652 0.65236,2.65813c0.34403,1.00613 0.65884,1.73314 0.94446,2.18102h2.19076v1.05156l-2.16155,-0.07789l-0.05842,9.4446l1.92786,0.07789v0.72052h-6.35806v-0.72052l0.91525,-0.07789l-0.04868,-9.49327h-1.39233v-0.92498h1.32419c-0.13632,-0.4479 -0.25965,-0.98664 -0.37,-1.61629c-0.10386,-0.63613 -0.15579,-1.17814 -0.15579,-1.62603c0,-0.31158 0.0065,-0.54201 0.01947,-0.6913c0.14929,-0.4349 0.42842,-0.83085 0.83736,-1.18787c0.40895,-0.35702 0.86657,-0.63938 1.37287,-0.84709c0.5063,-0.20772 0.97692,-0.31157 1.41182,-0.31157c0.72701,0 1.4605,0.11359 2.20049,0.34078c0.73999,0.22069 1.40208,0.5128 1.98628,0.87631l-2.07391,2.96969c-0.38297,-0.4349 -0.87305,-0.90876 -1.47024,-1.42156c-0.59719,-0.5128 -1.16192,-0.9542 -1.69419,-1.32419zM109.32892,26.51874v0.87631h-6.90331v-0.87631l1.34366,-0.01947l-1.16841,-12.78427l-4.81965,10.88562h-0.7692l-5.16045,-10.96351l-0.46736,12.86217l1.34366,0.01947v0.87631h-5.46228v-0.87631l0.97366,-0.01947l2.39523,-14.90687l-1.37286,-0.02921v-0.86656h5.73491l4.01151,8.14961l3.46626,-8.14961h5.16044v0.86657l-1.32419,0.02921l2.0447,14.90688zM115.68539,15.80838c1.4605,0 2.60943,0.52902 3.44679,1.58708c0.84385,1.05157 1.25603,2.47311 1.23656,4.26467l-6.88384,0.22395c0.11684,0.98016 0.45763,1.72988 1.02236,2.24918c0.56473,0.5128 1.31446,0.7692 2.24918,0.7692c1.29174,0 2.34655,-0.35701 3.16443,-1.07103l0.4479,0.3992c-0.5842,1.10999 -1.36963,1.97656 -2.35628,2.5997c-0.98664,0.62315 -2.03822,0.93473 -3.15468,0.93473c-1.51243,0 -2.71329,-0.49981 -3.60258,-1.49945c-0.88928,-1.00613 -1.33393,-2.36602 -1.33393,-4.07967c0,-1.01261 0.20447,-2.01548 0.61342,-3.00863c0.40894,-0.99964 0.92823,-1.83375 1.55787,-2.50234c0.4349,-0.24666 0.99314,-0.45114 1.6747,-0.61341c0.68157,-0.16877 1.32094,-0.25316 1.91814,-0.25316zM116.67854,20.84225c-0.01298,-1.16192 -0.17851,-2.08365 -0.49657,-2.76522c-0.31806,-0.68157 -0.76595,-1.09052 -1.34366,-1.22683c-0.41543,0.4349 -0.75297,1.03859 -1.01262,1.81103c-0.25965,0.77244 -0.38946,1.56436 -0.38946,2.37575v0.07789zM139.55936,26.67453v0.72052h-5.33571v-0.72052l0.92499,-0.07789v-5.25782c0,-0.73349 -0.18824,-1.30147 -0.56473,-1.70393c-0.37,-0.40894 -0.88928,-0.62315 -1.55787,-0.64262l-0.91525,0.92499v0.42841v6.25095l0.89578,0.07789v0.72052h-5.33571v-0.72052l0.92499,-0.07789v-5.25782c0,-0.73349 -0.18824,-1.29822 -0.56473,-1.69418c-0.37,-0.40244 -0.88928,-0.61017 -1.55787,-0.62315l-0.81788,0.81788l-0.10709,6.75726l0.92499,0.07789v0.72052h-5.35518v-0.72052l0.92499,-0.07789l-0.07789,-8.91881l-0.94445,0.22395l-0.25316,-0.74973l3.93363,-1.22682l0.87631,2.79443l2.07393,-2.96968c1.27875,0 2.26865,0.25964 2.96969,0.77894c0.70754,0.5128 1.16192,1.31121 1.36314,2.39523l2.21996,-3.19364c1.52542,0 2.64839,0.37324 3.3689,1.11973c0.72701,0.74648 1.0905,1.91164 1.0905,3.49547v6.25095zM146.02138,15.80838c1.66174,0 2.9989,0.49008 4.01151,1.47024c1.01261,0.98016 1.51891,2.37576 1.51891,4.18678c0,0.77894 -0.13956,1.58384 -0.41867,2.41469c-0.27262,0.83086 -0.67507,1.56111 -1.20735,2.19076c-0.52578,0.51929 -1.14243,0.93147 -1.84998,1.23656c-0.70754,0.30507 -1.45077,0.45763 -2.2297,0.45763c-1.66174,0 -3.00215,-0.49008 -4.02125,-1.47024c-1.01261,-0.98016 -1.51893,-2.37576 -1.51893,-4.18678c0,-0.75946 0.13956,-1.55462 0.41868,-2.38548c0.28561,-0.83086 0.69455,-1.56437 1.22682,-2.20049c0.53227,-0.5128 1.15217,-0.92498 1.8597,-1.23656c0.70754,-0.31806 1.44428,-0.47709 2.21024,-0.47709zM143.89878,20.91041c0,1.58384 0.31158,2.76522 0.93473,3.54416c0.62315,0.77894 1.54164,1.24305 2.75548,1.39235c0.11684,-0.49982 0.20772,-1.05481 0.27263,-1.66497c0.06492,-0.61665 0.09736,-1.12297 0.09736,-1.51893c0,-1.59681 -0.31158,-2.78144 -0.93471,-3.55388c-0.62315,-0.77244 -1.5319,-1.23332 -2.72627,-1.38261c-0.11684,0.5128 -0.21421,1.07753 -0.29211,1.69419c-0.0714,0.61665 -0.10711,1.11322 -0.10711,1.48972zM156.88751,19.59596l-0.10709,7.00068l2.21996,0.07789v0.72052h-6.65015v-0.72052l0.92499,-0.07789l-0.07789,-8.91881l-0.94445,0.22395l-0.25316,-0.74973l3.93363,-1.22682l0.84709,2.66785c0.55175,-1.10999 1.15218,-1.9733 1.80129,-2.58997c0.36351,-0.12982 0.80166,-0.19473 1.31445,-0.19473c0.70104,0 1.35988,0.12334 1.97655,0.37l-0.79841,3.24233c-0.48034,-0.10386 -1.09701,-0.19474 -1.84998,-0.27263c-0.74648,-0.08438 -1.35989,-0.14281 -1.84023,-0.17526zM163.31878,10.92056l3.1839,-0.72052v2.83339l-3.18389,0.47709zM166.75584,26.59664l0.92499,0.07789v0.72052h-5.36491v-0.72052l0.92499,-0.07789l-0.07789,-8.87012l-0.94445,0.19473l-0.25316,-0.72052l4.51783,-1.39235l0.35052,0.59394zM174.43574,15.80838c1.4605,0 2.60943,0.52902 3.44679,1.58708c0.84385,1.05157 1.25603,2.47311 1.23656,4.26467l-6.88384,0.22395c0.11684,0.98016 0.45763,1.72988 1.02235,2.24918c0.56473,0.5128 1.31446,0.7692 2.24918,0.7692c1.29174,0 2.34655,-0.35701 3.16443,-1.07103l0.44788,0.3992c-0.5842,1.10999 -1.36963,1.97656 -2.35627,2.5997c-0.98664,0.62315 -2.03822,0.93473 -3.15468,0.93473c-1.51243,0 -2.71328,-0.49981 -3.60258,-1.49945c-0.88928,-1.00613 -1.33393,-2.36602 -1.33393,-4.07967c0,-1.01261 0.20447,-2.01548 0.61342,-3.00863c0.40894,-0.99964 0.92822,-1.83375 1.55786,-2.50234c0.4349,-0.24666 0.99315,-0.45114 1.67472,-0.61341c0.68157,-0.16877 1.32094,-0.25316 1.91814,-0.25316zM175.42888,20.84225c-0.01298,-1.16192 -0.17851,-2.08365 -0.49657,-2.76522c-0.31806,-0.68157 -0.76596,-1.09052 -1.34366,-1.22683c-0.41543,0.4349 -0.75297,1.03859 -1.01261,1.81103c-0.25965,0.77244 -0.38947,1.56436 -0.38947,2.37575v0.07789zM183.6034,18.04782c0,0.4479 0.17851,0.85682 0.53553,1.22682c0.35702,0.36351 0.90226,0.79517 1.63576,1.29499c0.89578,0.61017 1.57735,1.16515 2.04472,1.66497c0.46737,0.49982 0.70104,1.11647 0.70104,1.84998c0,0.64262 -0.1915,1.24629 -0.57446,1.81102c-0.38297,0.56473 -0.92499,1.01912 -1.62603,1.36314c-0.69455,0.33755 -1.49296,0.5063 -2.39522,0.5063c-0.86333,0 -1.68121,-0.20772 -2.45365,-0.62316c-0.77244,-0.41543 -1.34042,-0.94445 -1.70391,-1.58707l2.14207,-1.72339c0.66859,1.24629 1.35016,2.26865 2.0447,3.06706c0.28561,-0.21421 0.52254,-0.46737 0.71078,-0.75946c0.18824,-0.29211 0.28237,-0.58096 0.28237,-0.86656c0,-0.46086 -0.17201,-0.86007 -0.51604,-1.19761c-0.33755,-0.34403 -0.86333,-0.75622 -1.57735,-1.23656c-0.57772,-0.38297 -1.04182,-0.71402 -1.39235,-0.99315c-0.35052,-0.28561 -0.64587,-0.6264 -0.88604,-1.02235c-0.24017,-0.40244 -0.36025,-0.85358 -0.36025,-1.35339c0,-0.61665 0.20123,-1.20736 0.60368,-1.77208c0.40894,-0.56473 0.98016,-1.0191 1.71366,-1.36314c0.73349,-0.35052 1.56436,-0.52579 2.49259,-0.52579c0.71402,0 1.3891,0.15255 2.02523,0.45763c0.64262,0.30507 1.16516,0.6913 1.56761,1.15866l-1.94735,1.91814c-0.79841,-1.01261 -1.67796,-1.91813 -2.63864,-2.71654c-0.28561,0.36351 -0.42841,0.83736 -0.42841,1.42156zM182.78552,27.39505h0.01947z" fill="#f1f6ff" stroke="none" stroke-width="1" stroke-linecap="square"/><path d="M207.74798,26.12654c0,0 -0.74631,-6.1251 1.20529,-8.2968c1.95159,-2.17171 6.35024,-0.72933 6.35024,-0.72933c0,0 1.14951,-5.42549 5.1301,-5.68152c4.01527,-0.25825 5.67975,5.68152 5.67975,5.68152c0,0 1.3572,-1.6473 5.05944,-0.49443c3.17871,0.81531 2.3779,9.34614 2.3779,9.34614z" data-paper-data="{&quot;index&quot;:null}" fill="#f1f6ff" stroke="none" stroke-width="0" stroke-linecap="butt"/></g></g></svg>