<svg version="1.1" xmlns="http://www.w3.org/2000/svg" xmlns:xlink="http://www.w3.org/1999/xlink" width="79.34286" height="95.74522" viewBox="0,0,79.34286,95.74522"><defs><linearGradient x1="240.06671" y1="207.79583" x2="240.06671" y2="217.29583" gradientUnits="userSpaceOnUse" id="color-1"><stop offset="0" stop-color="#000000" stop-opacity="0.23529"/><stop offset="1" stop-color="#000000" stop-opacity="0"/></linearGradient><linearGradient x1="239.94168" y1="146.46011" x2="239.94168" y2="207.66011" gradientUnits="userSpaceOnUse" id="color-2"><stop offset="0" stop-color="#616e6e"/><stop offset="1" stop-color="#879a9a"/></linearGradient><linearGradient x1="240.03771" y1="174.02769" x2="240.03771" y2="166.85591" gradientUnits="userSpaceOnUse" id="color-3"><stop offset="0" stop-color="#000000" stop-opacity="0.20392"/><stop offset="1" stop-color="#000000" stop-opacity="0"/></linearGradient><linearGradient x1="240.03771" y1="189.45274" x2="240.03771" y2="182.66862" gradientUnits="userSpaceOnUse" id="color-4"><stop offset="0" stop-color="#000000" stop-opacity="0.20392"/><stop offset="1" stop-color="#000000" stop-opacity="0"/></linearGradient><linearGradient x1="240.03771" y1="177.65432" x2="240.03771" y2="183.46928" gradientUnits="userSpaceOnUse" id="color-5"><stop offset="0" stop-color="#000000" stop-opacity="0.30196"/><stop offset="1" stop-color="#000000" stop-opacity="0"/></linearGradient><linearGradient x1="240.03771" y1="193.16087" x2="240.03771" y2="198.97582" gradientUnits="userSpaceOnUse" id="color-6"><stop offset="0" stop-color="#000000" stop-opacity="0.30196"/><stop offset="1" stop-color="#000000" stop-opacity="0"/></linearGradient><linearGradient x1="240.06671" y1="156.04584" x2="240.06671" y2="165.54584" gradientUnits="userSpaceOnUse" id="color-7"><stop offset="0" stop-color="#000000" stop-opacity="0.23529"/><stop offset="1" stop-color="#000000" stop-opacity="0"/></linearGradient><linearGradient x1="222.71716" y1="138.2723" x2="225.83233" y2="145.01614" gradientUnits="userSpaceOnUse" id="color-8"><stop offset="0" stop-color="#000000" stop-opacity="0.30196"/><stop offset="1" stop-color="#000000" stop-opacity="0"/></linearGradient><linearGradient x1="257.40463" y1="138.2723" x2="254.28946" y2="145.01614" gradientUnits="userSpaceOnUse" id="color-9"><stop offset="0" stop-color="#000000" stop-opacity="0.30196"/><stop offset="1" stop-color="#000000" stop-opacity="0"/></linearGradient><linearGradient x1="239.81671" y1="150.59838" x2="239.81671" y2="146.79838" gradientUnits="userSpaceOnUse" id="color-10"><stop offset="0" stop-color="#000000" stop-opacity="0.23529"/><stop offset="1" stop-color="#000000" stop-opacity="0"/></linearGradient><radialGradient cx="240" cy="141.66667" r="8.45006" gradientUnits="userSpaceOnUse" id="color-11"><stop offset="0" stop-color="#000000" stop-opacity="0.50196"/><stop offset="1" stop-color="#000000" stop-opacity="0"/></radialGradient><radialGradient cx="239.96936" cy="140.89948" r="6.49285" gradientUnits="userSpaceOnUse" id="color-12"><stop offset="0" stop-color="#f5feff"/><stop offset="1" stop-color="#c6cdce"/></radialGradient><radialGradient cx="240" cy="140.76487" r="2.24889" gradientUnits="userSpaceOnUse" id="color-13"><stop offset="0" stop-color="#000000" stop-opacity="0.50196"/><stop offset="1" stop-color="#000000" stop-opacity="0"/></radialGradient><radialGradient cx="263.63097" cy="148.4764" r="6.29747" gradientUnits="userSpaceOnUse" id="color-14"><stop offset="0" stop-color="#000000" stop-opacity="0.3098"/><stop offset="1" stop-color="#000000" stop-opacity="0"/></radialGradient><radialGradient cx="257.19391" cy="152.259" r="4.61326" gradientUnits="userSpaceOnUse" id="color-15"><stop offset="0" stop-color="#000000" stop-opacity="0.3098"/><stop offset="1" stop-color="#000000" stop-opacity="0"/></radialGradient><linearGradient x1="240" y1="173" x2="240" y2="181.4" gradientUnits="userSpaceOnUse" id="color-16"><stop offset="0" stop-color="#000000" stop-opacity="0.30196"/><stop offset="1" stop-color="#000000" stop-opacity="0"/></linearGradient><linearGradient x1="240.1" y1="188.8" x2="240.1" y2="197.2" gradientUnits="userSpaceOnUse" id="color-17"><stop offset="0" stop-color="#000000" stop-opacity="0.30196"/><stop offset="1" stop-color="#000000" stop-opacity="0"/></linearGradient><linearGradient x1="240" y1="185.10001" x2="240" y2="190.90001" gradientUnits="userSpaceOnUse" id="color-18"><stop offset="0" stop-color="#5a6168"/><stop offset="1" stop-color="#747d86"/></linearGradient><linearGradient x1="240" y1="169.10001" x2="240" y2="174.90001" gradientUnits="userSpaceOnUse" id="color-19"><stop offset="0" stop-color="#5a6168"/><stop offset="1" stop-color="#757e87"/></linearGradient></defs><g transform="translate(-200.3,-121.5506)"><g data-paper-data="{&quot;isPaintingLayer&quot;:true}" fill-rule="nonzero" stroke-linejoin="miter" stroke-miterlimit="10" stroke-dasharray="" stroke-dashoffset="0" style="mix-blend-mode: normal"><path d="M210.5,135.32113c4.20529,-2.04134 18.42243,-9.17961 25.4705,-12.72302c3.08932,-1.55315 5.46943,-1.3027 8.56043,0.24712c7.40637,3.71354 21.63694,10.83165 25.16907,12.4759c2.06009,0.959 3.6,2.43 3.6,4.35c0,0.87225 0,2.94494 0,2.94494l-33.08329,-15.8l-33.51671,15.8c0,0 0,-1.9197 0,-2.74494c0,-2.0149 1.97091,-3.66212 3.8,-4.55z" data-paper-data="{&quot;index&quot;:null}" fill="#412b2b" stroke="none" stroke-width="0" stroke-linecap="butt"/><path d="M206.69171,217.29583v-9.5h66.75v9.5z" fill="url(#color-1)" stroke="none" stroke-width="0" stroke-linecap="butt"/><path d="M206.7,208.05c0,-7.83102 0,-57.4 0,-57.4h66.6c0,0 0,49.92 0,57.6c0,1.92 -1.32763,3.6 -3.6,3.6c-12.29145,0 -52.22419,0 -59.2,0c-2.0332,0 -3.8,-1.7851 -3.8,-3.8z" fill="#616e6e" stroke="none" stroke-width="0" stroke-linecap="butt"/><path d="M206.64168,203.86011c0,-7.83102 0,-57.4 0,-57.4h66.6c0,0 0,49.92 0,57.6c0,1.92 -1.32763,3.6 -3.6,3.6c-12.29145,0 -52.22419,0 -59.2,0c-2.0332,0 -3.8,-1.7851 -3.8,-3.8z" fill="url(#color-2)" stroke="none" stroke-width="0" stroke-linecap="butt"/><path d="M273.17507,166.85591v7.17178h-66.27469v-7.17178z" data-paper-data="{&quot;index&quot;:null}" fill="url(#color-3)" stroke="none" stroke-width="0" stroke-linecap="butt"/><path d="M273.17507,182.66862v6.78411h-66.27469v-6.78411z" data-paper-data="{&quot;index&quot;:null}" fill="url(#color-4)" stroke="none" stroke-width="0" stroke-linecap="butt"/><path d="M206.90038,183.46928v-5.81495h66.27469v5.81495z" fill="url(#color-5)" stroke="none" stroke-width="0" stroke-linecap="butt"/><path d="M206.90038,198.97582v-5.81495h66.27469v5.81495z" fill="url(#color-6)" stroke="none" stroke-width="0" stroke-linecap="butt"/><path d="M215.79297,194.94118c0.02438,-1.38594 0,-2.87489 0,-3.54117c0,-1.60163 1.19837,-2.6 2.8,-2.6c1.74166,0 6.50955,0 9.6,0c1.57314,0 2.8,0.82686 2.8,2.4c0,0.81852 0,2.44624 0,3.8c0,1.48085 -1.11915,2.2 -2.6,2.2c-3.14436,0 -8.23521,0 -10,0c-1.1919,0 -2.62122,-1.05277 -2.6,-2.25883z" fill-opacity="0.2" fill="#000000" stroke="none" stroke-width="0" stroke-linecap="butt"/><path d="M232.40012,194.94118c0.02438,-1.38594 0,-2.8749 0,-3.54118c0,-1.60163 1.19836,-2.6 2.8,-2.6c1.74166,0 6.50955,0 9.6,0c1.57314,0 2.8,0.82686 2.8,2.4c0,0.81852 0,2.44624 0,3.8c0,1.48085 -1.11915,2.2 -2.6,2.2c-3.14436,0 -8.23521,0 -10,0c-1.1919,0 -2.62122,-1.05277 -2.6,-2.25883z" fill-opacity="0.2" fill="#000000" stroke="none" stroke-width="0" stroke-linecap="butt"/><path d="M249.00726,194.94118c0.02438,-1.38594 0,-2.87489 0,-3.54117c0,-1.60163 1.19837,-2.6 2.8,-2.6c1.74166,0 6.50955,0 9.6,0c1.57314,0 2.8,0.82686 2.8,2.4c0,0.81852 0,2.44624 0,3.8c0,1.48085 -1.11915,2.2 -2.6,2.2c-3.14436,0 -8.23521,0 -10,0c-1.1919,0 -2.62122,-1.05277 -2.6,-2.25883z" fill-opacity="0.2" fill="#000000" stroke="none" stroke-width="0" stroke-linecap="butt"/><path d="M206.81671,188.8c0,0 3.3873,0 4.84055,0c1.57314,0 2.8,0.82686 2.8,2.4c0,0.81852 0,2.44624 0,3.8c0,1.48085 -1.11914,2.2 -2.6,2.2c-1.44062,0 -5.04055,0 -5.04055,0z" fill-opacity="0.2" fill="#000000" stroke="none" stroke-width="0" stroke-linecap="butt"/><path d="M273.3917,197.2c0,0 -3.59993,0 -5.04055,0c-1.48086,0 -2.6,-0.71914 -2.6,-2.2c0,-1.35376 0,-2.98148 0,-3.8c0,-1.57314 1.22686,-2.4 2.8,-2.4c1.45325,0 4.84055,0 4.84055,0z" data-paper-data="{&quot;index&quot;:null}" fill-opacity="0.2" fill="#000000" stroke="none" stroke-width="0" stroke-linecap="butt"/><path d="M207.67393,204.48879c0.02438,-1.38594 0,-2.87489 0,-3.54117c0,-1.60163 1.19836,-2.6 2.8,-2.6c1.74166,0 6.50955,0 9.6,0c1.57314,0 2.8,0.82686 2.8,2.4c0,0.81852 0,2.44624 0,3.8c0,1.48085 -1.11915,2.2 -2.6,2.2c-3.14436,0 -8.23521,0 -10,0c-1.1919,0 -2.62122,-1.05277 -2.6,-2.25883z" fill-opacity="0.2" fill="#000000" stroke="none" stroke-width="0" stroke-linecap="butt"/><path d="M224.28107,204.48879c0.02438,-1.38594 0,-2.87489 0,-3.54117c0,-1.60163 1.19837,-2.6 2.8,-2.6c1.74166,0 6.50955,0 9.6,0c1.57314,0 2.8,0.82686 2.8,2.4c0,0.81852 0,2.44624 0,3.8c0,1.48085 -1.11915,2.2 -2.6,2.2c-3.14436,0 -8.23521,0 -10,0c-1.1919,0 -2.62122,-1.05277 -2.6,-2.25883z" fill-opacity="0.2" fill="#000000" stroke="none" stroke-width="0" stroke-linecap="butt"/><path d="M240.88821,204.48879c0.02438,-1.38594 0,-2.87489 0,-3.54117c0,-1.60163 1.19837,-2.6 2.8,-2.6c1.74165,0 6.50954,0 9.6,0c1.57314,0 2.8,0.82686 2.8,2.4c0,0.81852 0,2.44624 0,3.8c0,1.48085 -1.11915,2.2 -2.6,2.2c-3.14436,0 -8.23521,0 -10,0c-1.1919,0 -2.62122,-1.05277 -2.6,-2.25883z" fill-opacity="0.2" fill="#000000" stroke="none" stroke-width="0" stroke-linecap="butt"/><path d="M257.50726,204.48879c0.02438,-1.38594 0,-2.8749 0,-3.54118c0,-1.60163 1.19837,-2.6 2.8,-2.6c1.74166,0 6.50955,0 9.6,0c1.57314,0 2.8,0.82686 2.8,2.4c0,0.81852 0,2.44624 0,3.8c0,1.48085 -1.11915,2.2 -2.6,2.2c-3.14437,0 -8.23521,0 -10,0c-1.1919,0 -2.62122,-1.05277 -2.6,-2.25883z" fill-opacity="0.2" fill="#000000" stroke="none" stroke-width="0" stroke-linecap="butt"/><path d="M215.68877,175.66737c0.02438,-1.38594 0,-2.87489 0,-3.54117c0,-1.60163 1.19836,-2.6 2.8,-2.6c1.74166,0 6.50955,0 9.6,0c1.57314,0 2.8,0.82686 2.8,2.4c0,0.81852 0,2.44624 0,3.8c0,1.48085 -1.11915,2.2 -2.6,2.2c-3.14436,0 -8.23521,0 -10,0c-1.1919,0 -2.62122,-1.05277 -2.6,-2.25883z" fill-opacity="0.2" fill="#000000" stroke="none" stroke-width="0" stroke-linecap="butt"/><path d="M232.29591,175.66737c0.02438,-1.38594 0,-2.87489 0,-3.54117c0,-1.60163 1.19837,-2.6 2.8,-2.6c1.74166,0 6.50955,0 9.6,0c1.57314,0 2.8,0.82686 2.8,2.4c0,0.81852 0,2.44624 0,3.8c0,1.48085 -1.11915,2.2 -2.6,2.2c-3.14436,0 -8.23521,0 -10,0c-1.1919,0 -2.62122,-1.05277 -2.6,-2.25883z" fill-opacity="0.2" fill="#000000" stroke="none" stroke-width="0" stroke-linecap="butt"/><path d="M248.90305,175.66737c0.02438,-1.38594 0,-2.87489 0,-3.54117c0,-1.60163 1.19837,-2.6 2.8,-2.6c1.74165,0 6.50954,0 9.6,0c1.57314,0 2.8,0.82686 2.8,2.4c0,0.81852 0,2.44624 0,3.8c0,1.48085 -1.11915,2.2 -2.6,2.2c-3.14436,0 -8.23521,0 -10,0c-1.1919,0 -2.62122,-1.05277 -2.6,-2.25883z" fill-opacity="0.2" fill="#000000" stroke="none" stroke-width="0" stroke-linecap="butt"/><path d="M206.7125,169.52619c0,0 3.3873,0 4.84055,0c1.57314,0 2.8,0.82686 2.8,2.4c0,0.81852 0,2.44624 0,3.8c0,1.48085 -1.11915,2.2 -2.6,2.2c-1.44062,0 -5.04055,0 -5.04055,0z" fill-opacity="0.2" fill="#000000" stroke="none" stroke-width="0" stroke-linecap="butt"/><path d="M273.2875,177.92619c0,0 -3.59993,0 -5.04055,0c-1.48086,0 -2.6,-0.71914 -2.6,-2.2c0,-1.35376 0,-2.98148 0,-3.8c0,-1.57314 1.22686,-2.4 2.8,-2.4c1.45324,0 4.84055,0 4.84055,0z" data-paper-data="{&quot;index&quot;:null}" fill-opacity="0.2" fill="#000000" stroke="none" stroke-width="0" stroke-linecap="butt"/><path d="M207.56972,185.21499c0.02438,-1.38594 0,-2.8749 0,-3.54118c0,-1.60163 1.19837,-2.6 2.8,-2.6c1.74166,0 6.50955,0 9.6,0c1.57314,0 2.8,0.82686 2.8,2.4c0,0.81852 0,2.44624 0,3.8c0,1.48085 -1.11915,2.2 -2.6,2.2c-3.14436,0 -8.23521,0 -10,0c-1.1919,0 -2.62122,-1.05277 -2.6,-2.25883z" fill-opacity="0.2" fill="#000000" stroke="none" stroke-width="0" stroke-linecap="butt"/><path d="M224.17686,185.21499c0.02438,-1.38594 0,-2.8749 0,-3.54118c0,-1.60163 1.19836,-2.6 2.8,-2.6c1.74166,0 6.50955,0 9.6,0c1.57314,0 2.8,0.82686 2.8,2.4c0,0.81852 0,2.44624 0,3.8c0,1.48085 -1.11915,2.2 -2.6,2.2c-3.14436,0 -8.23521,0 -10,0c-1.1919,0 -2.62122,-1.05277 -2.6,-2.25883z" fill-opacity="0.2" fill="#000000" stroke="none" stroke-width="0" stroke-linecap="butt"/><path d="M240.784,185.21499c0.02438,-1.38594 0,-2.8749 0,-3.54118c0,-1.60163 1.19837,-2.6 2.8,-2.6c1.74166,0 6.50955,0 9.6,0c1.57314,0 2.8,0.82686 2.8,2.4c0,0.81852 0,2.44624 0,3.8c0,1.48085 -1.11915,2.2 -2.6,2.2c-3.14437,0 -8.23521,0 -10,0c-1.1919,0 -2.62122,-1.05277 -2.6,-2.25883z" fill-opacity="0.2" fill="#000000" stroke="none" stroke-width="0" stroke-linecap="butt"/><path d="M257.40305,185.21499c0.02438,-1.38594 0,-2.8749 0,-3.54118c0,-1.60163 1.19837,-2.6 2.8,-2.6c1.74165,0 6.50955,0 9.6,0c1.57314,0 2.8,0.82686 2.8,2.4c0,0.81852 0,2.44624 0,3.8c0,1.48085 -1.11915,2.2 -2.6,2.2c-3.14436,0 -8.23521,0 -10,0c-1.19191,0 -2.62122,-1.05277 -2.6,-2.25883z" fill-opacity="0.2" fill="#000000" stroke="none" stroke-width="0" stroke-linecap="butt"/><path d="M207.56972,165.88165c0.02438,-1.38594 0,-2.8749 0,-3.54118c0,-1.60163 1.19837,-2.6 2.8,-2.6c1.74166,0 6.50955,0 9.6,0c1.57314,0 2.8,0.82686 2.8,2.4c0,0.81852 0,2.44624 0,3.8c0,1.48085 -1.11915,2.2 -2.6,2.2c-3.14436,0 -8.23521,0 -10,0c-1.1919,0 -2.62122,-1.05277 -2.6,-2.25883z" fill-opacity="0.2" fill="#000000" stroke="none" stroke-width="0" stroke-linecap="butt"/><path d="M224.17686,165.88165c0.02438,-1.38594 0,-2.8749 0,-3.54118c0,-1.60163 1.19836,-2.6 2.8,-2.6c1.74166,0 6.50955,0 9.6,0c1.57314,0 2.8,0.82686 2.8,2.4c0,0.81852 0,2.44624 0,3.8c0,1.48085 -1.11915,2.2 -2.6,2.2c-3.14436,0 -8.23521,0 -10,0c-1.1919,0 -2.62122,-1.05277 -2.6,-2.25883z" fill-opacity="0.2" fill="#000000" stroke="none" stroke-width="0" stroke-linecap="butt"/><path d="M240.784,165.88165c0.02438,-1.38594 0,-2.8749 0,-3.54118c0,-1.60163 1.19837,-2.6 2.8,-2.6c1.74166,0 6.50955,0 9.6,0c1.57314,0 2.8,0.82686 2.8,2.4c0,0.81852 0,2.44624 0,3.8c0,1.48085 -1.11914,2.2 -2.6,2.2c-3.14437,0 -8.23521,0 -10,0c-1.1919,0 -2.62122,-1.05277 -2.6,-2.25883z" fill-opacity="0.2" fill="#000000" stroke="none" stroke-width="0" stroke-linecap="butt"/><path d="M257.40305,165.88165c0.02438,-1.38594 0,-2.8749 0,-3.54118c0,-1.60163 1.19837,-2.6 2.8,-2.6c1.74165,0 6.50955,0 9.6,0c1.57314,0 2.8,0.82686 2.8,2.4c0,0.81852 0,2.44624 0,3.8c0,1.48085 -1.11915,2.2 -2.6,2.2c-3.14436,0 -8.23521,0 -10,0c-1.19191,0 -2.62122,-1.05277 -2.6,-2.25883z" fill-opacity="0.2" fill="#000000" stroke="none" stroke-width="0" stroke-linecap="butt"/><path d="M206.69171,165.54584v-9.5h66.75v9.5z" fill="url(#color-7)" stroke="none" stroke-width="0" stroke-linecap="butt"/><path d="M210.44168,139.29345c4.20529,-2.04134 18.42243,-9.17961 25.4705,-12.72302c3.08932,-1.55315 5.46943,-1.3027 8.56043,0.24712c7.40637,3.71354 21.63694,10.83165 25.16907,12.4759c2.06009,0.959 3.6,2.43 3.6,4.35c0,7.68 0,13.11667 0,13.11667h-66.6c0,0 0,-5.08565 0,-12.91667c0,-2.0149 1.97091,-3.66212 3.8,-4.55z" data-paper-data="{&quot;index&quot;:null}" fill="#c98365" stroke="none" stroke-width="0" stroke-linecap="butt"/><path d="M206.8896,145.69111l33.14602,-16.03761l0.02426,6.94384l-33.19797,15.69475z" fill="url(#color-8)" stroke="none" stroke-width="0" stroke-linecap="butt"/><path d="M273.25988,152.29208l-33.19797,-15.69475l0.02426,-6.94384l33.14602,16.03761z" data-paper-data="{&quot;index&quot;:null}" fill="url(#color-9)" stroke="none" stroke-width="0" stroke-linecap="butt"/><path d="M210.5,139.0186c4.20529,-2.04134 18.42243,-9.17961 25.4705,-12.72302c3.08932,-1.55315 5.46943,-1.3027 8.56043,0.24712c7.40637,3.71354 21.63694,10.83165 25.16907,12.4759c2.06009,0.959 3.6,2.43 3.6,4.35c0,0.87225 0,2.94494 0,2.94494l-33.08329,-15.8l-33.51671,15.8c0,0 0,-1.9197 0,-2.74494c0,-2.0149 1.97091,-3.66212 3.8,-4.55z" data-paper-data="{&quot;index&quot;:null}" fill="#4c3232" stroke="none" stroke-width="0" stroke-linecap="butt"/><path d="M206.70957,157.75463v-7.16666h66.54761v7.16666z" fill="#c7cfd0" stroke="none" stroke-width="0" stroke-linecap="butt"/><path d="M209.24528,153.5091c0,-1.06512 0.86345,-1.92857 1.92857,-1.92857c1.06512,0 1.92857,0.86345 1.92857,1.92857c0,1.06512 -0.86345,1.92857 -1.92857,1.92857c-1.06512,0 -1.92857,-0.86345 -1.92857,-1.92857z" fill-opacity="0.2" fill="#000000" stroke="none" stroke-width="0" stroke-linecap="butt"/><path d="M214.531,152.79481c0,-0.59173 0.4797,-1.07143 1.07143,-1.07143c0.59173,0 1.07143,0.4797 1.07143,1.07143c0,0.59173 -0.47969,1.07143 -1.07143,1.07143c-0.59173,0 -1.07143,-0.47969 -1.07143,-1.07143z" fill-opacity="0.2" fill="#000000" stroke="none" stroke-width="0" stroke-linecap="butt"/><path d="M213.81671,155.79481c0,-0.59173 0.47969,-1.07143 1.07143,-1.07143c0.59173,0 1.07143,0.4797 1.07143,1.07143c0,0.59173 -0.4797,1.07143 -1.07143,1.07143c-0.59173,0 -1.07143,-0.47969 -1.07143,-1.07143z" fill-opacity="0.2" fill="#000000" stroke="none" stroke-width="0" stroke-linecap="butt"/><path d="M217.95957,155.0091c0,-0.63118 0.51167,-1.14285 1.14285,-1.14285c0.63118,0 1.14285,0.51167 1.14285,1.14285c0,0.63118 -0.51167,1.14286 -1.14285,1.14286c-0.63118,0 -1.14285,-0.51167 -1.14285,-1.14286z" fill-opacity="0.2" fill="#000000" stroke="none" stroke-width="0" stroke-linecap="butt"/><path d="M220.67386,153.08053c0,-0.74953 0.60761,-1.35715 1.35714,-1.35715c0.74953,0 1.35715,0.60762 1.35715,1.35715c0,0.74953 -0.60762,1.35714 -1.35715,1.35714c-0.74953,0 -1.35714,-0.60761 -1.35714,-1.35714z" fill-opacity="0.2" fill="#000000" stroke="none" stroke-width="0" stroke-linecap="butt"/><path d="M225.10243,154.79481c0,-1.06512 0.86345,-1.92857 1.92857,-1.92857c1.06512,0 1.92858,0.86345 1.92858,1.92857c0,1.06512 -0.86346,1.92857 -1.92858,1.92857c-1.06512,0 -1.92857,-0.86345 -1.92857,-1.92857z" fill-opacity="0.2" fill="#000000" stroke="none" stroke-width="0" stroke-linecap="butt"/><path d="M230.10243,152.65195c0,-0.67063 0.54366,-1.21429 1.21428,-1.21429c0.67063,0 1.21428,0.54366 1.21428,1.21429c0,0.67063 -0.54366,1.21429 -1.21428,1.21429c-0.67063,0 -1.21428,-0.54366 -1.21428,-1.21429z" fill-opacity="0.2" fill="#000000" stroke="none" stroke-width="0" stroke-linecap="butt"/><path d="M233.38814,155.08053c0,-0.74953 0.60761,-1.35715 1.35714,-1.35715c0.74953,0 1.35715,0.60762 1.35715,1.35715c0,0.74953 -0.60762,1.35714 -1.35715,1.35714c-0.74953,0 -1.35714,-0.60761 -1.35714,-1.35714z" fill-opacity="0.2" fill="#000000" stroke="none" stroke-width="0" stroke-linecap="butt"/><path d="M237.24528,153.58053c0,-1.26236 1.02335,-2.28571 2.28571,-2.28571c1.26236,0 2.28572,1.02335 2.28572,2.28571c0,1.26236 -1.02335,2.28572 -2.28572,2.28572c-1.26236,0 -2.28571,-1.02335 -2.28571,-2.28572z" fill-opacity="0.2" fill="#000000" stroke="none" stroke-width="0" stroke-linecap="butt"/><path d="M243.67386,155.22338c0,-0.90732 0.73553,-1.64285 1.64285,-1.64285c0.90732,0 1.64286,0.73553 1.64286,1.64285c0,0.90732 -0.73554,1.64286 -1.64286,1.64286c-0.90732,0 -1.64285,-0.73554 -1.64285,-1.64286z" fill-opacity="0.2" fill="#000000" stroke="none" stroke-width="0" stroke-linecap="butt"/><path d="M247.24528,152.29481c0,-0.47339 0.38376,-0.85715 0.85715,-0.85715c0.47339,0 0.85715,0.38376 0.85715,0.85715c0,0.47339 -0.38376,0.85714 -0.85715,0.85714c-0.47339,0 -0.85715,-0.38376 -0.85715,-0.85714z" fill-opacity="0.2" fill="#000000" stroke="none" stroke-width="0" stroke-linecap="butt"/><path d="M248.67386,156.0091c0,-0.47339 0.38375,-0.85714 0.85714,-0.85714c0.47339,0 0.85715,0.38376 0.85715,0.85714c0,0.47339 -0.38376,0.85715 -0.85715,0.85715c-0.47339,0 -0.85714,-0.38376 -0.85714,-0.85715z" fill-opacity="0.2" fill="#000000" stroke="none" stroke-width="0" stroke-linecap="butt"/><path d="M250.38814,153.43767c0,-0.78898 0.63959,-1.42857 1.42857,-1.42857c0.78898,0 1.42857,0.63959 1.42857,1.42857c0,0.78898 -0.63959,1.42857 -1.42857,1.42857c-0.78898,0 -1.42857,-0.63959 -1.42857,-1.42857z" fill-opacity="0.2" fill="#000000" stroke="none" stroke-width="0" stroke-linecap="butt"/><path d="M254.10243,154.93767c0,-0.82843 0.67157,-1.5 1.5,-1.5c0.82843,0 1.5,0.67157 1.5,1.5c0,0.82843 -0.67157,1.5 -1.5,1.5c-0.82843,0 -1.5,-0.67157 -1.5,-1.5z" fill-opacity="0.2" fill="#000000" stroke="none" stroke-width="0" stroke-linecap="butt"/><path d="M258.24528,153.29481c0,-1.02567 0.83148,-1.85715 1.85715,-1.85715c1.02567,0 1.85715,0.83148 1.85715,1.85715c0,1.02567 -0.83148,1.85714 -1.85715,1.85714c-1.02567,0 -1.85715,-0.83147 -1.85715,-1.85714z" fill-opacity="0.2" fill="#000000" stroke="none" stroke-width="0" stroke-linecap="butt"/><path d="M262.67386,155.58053c0,-0.63118 0.51167,-1.14286 1.14285,-1.14286c0.63119,0 1.14286,0.51167 1.14286,1.14286c0,0.63118 -0.51167,1.14285 -1.14286,1.14285c-0.63119,0 -1.14285,-0.51167 -1.14285,-1.14285z" fill-opacity="0.2" fill="#000000" stroke="none" stroke-width="0" stroke-linecap="butt"/><path d="M265.24528,153.0091c0,-0.71008 0.57564,-1.28572 1.28572,-1.28572c0.71008,0 1.28571,0.57564 1.28571,1.28572c0,0.71008 -0.57563,1.28572 -1.28571,1.28572c-0.71008,0 -1.28572,-0.57564 -1.28572,-1.28572z" fill-opacity="0.2" fill="#000000" stroke="none" stroke-width="0" stroke-linecap="butt"/><path d="M268.531,153.93767c0,-1.06512 0.86345,-1.92857 1.92857,-1.92857c1.06512,0 1.92857,0.86345 1.92857,1.92857c0,1.06512 -0.86345,1.92857 -1.92857,1.92857c-1.06512,0 -1.92857,-0.86345 -1.92857,-1.92857z" fill-opacity="0.2" fill="#000000" stroke="none" stroke-width="0" stroke-linecap="butt"/><path d="M265.95957,156.08053c0,-0.51283 0.41574,-0.92857 0.92857,-0.92857c0.51283,0 0.92857,0.41574 0.92857,0.92857c0,0.51283 -0.41573,0.92857 -0.92857,0.92857c-0.51283,0 -0.92857,-0.41574 -0.92857,-0.92857z" fill-opacity="0.2" fill="#000000" stroke="none" stroke-width="0" stroke-linecap="butt"/><path d="M229.95957,155.93767c0,-0.51283 0.41573,-0.92857 0.92857,-0.92857c0.51283,0 0.92857,0.41574 0.92857,0.92857c0,0.51283 -0.41574,0.92857 -0.92857,0.92857c-0.51283,0 -0.92857,-0.41574 -0.92857,-0.92857z" fill-opacity="0.2" fill="#000000" stroke="none" stroke-width="0" stroke-linecap="butt"/><path d="M221.24528,156.36623c0,-0.51283 0.41574,-0.92857 0.92857,-0.92857c0.51283,0 0.92857,0.41574 0.92857,0.92857c0,0.51283 -0.41574,0.92857 -0.92857,0.92857c-0.51283,0 -0.92857,-0.41574 -0.92857,-0.92857z" fill-opacity="0.2" fill="#000000" stroke="none" stroke-width="0" stroke-linecap="butt"/><path d="M207.38814,156.15195c0,-0.55229 0.44771,-1 1,-1c0.55229,0 1,0.44771 1,1c0,0.55229 -0.44771,1 -1,1c-0.55229,0 -1,-0.44771 -1,-1z" fill-opacity="0.2" fill="#000000" stroke="none" stroke-width="0" stroke-linecap="butt"/><path d="M242.24528,152.29481c0,-0.55229 0.44771,-1 1,-1c0.55229,0 1,0.44771 1,1c0,0.55229 -0.44771,1 -1,1c-0.55229,0 -1,-0.44771 -1,-1z" fill-opacity="0.2" fill="#000000" stroke="none" stroke-width="0" stroke-linecap="butt"/><path d="M223.95957,151.86623c0,-0.39449 0.31979,-0.71429 0.71428,-0.71429c0.39449,0 0.71428,0.3198 0.71428,0.71429c0,0.39449 -0.31979,0.71428 -0.71428,0.71428c-0.39449,0 -0.71428,-0.31979 -0.71428,-0.71428z" fill-opacity="0.2" fill="#000000" stroke="none" stroke-width="0" stroke-linecap="butt"/><path d="M234.38814,152.15195c0,-0.31559 0.25584,-0.57143 0.57143,-0.57143c0.31559,0 0.57142,0.25584 0.57142,0.57143c0,0.31559 -0.25583,0.57143 -0.57142,0.57143c-0.31559,0 -0.57143,-0.25584 -0.57143,-0.57143z" fill-opacity="0.2" fill="#000000" stroke="none" stroke-width="0" stroke-linecap="butt"/><path d="M236.67386,156.58053c0,-0.39449 0.31979,-0.71428 0.71428,-0.71428c0.39449,0 0.71429,0.31979 0.71429,0.71428c0,0.39449 -0.3198,0.71429 -0.71429,0.71429c-0.39449,0 -0.71428,-0.3198 -0.71428,-0.71429z" fill-opacity="0.2" fill="#000000" stroke="none" stroke-width="0" stroke-linecap="butt"/><path d="M254.67386,152.08053c0,-0.43394 0.35178,-0.78571 0.78572,-0.78571c0.43394,0 0.78571,0.35177 0.78571,0.78571c0,0.43394 -0.35177,0.78572 -0.78571,0.78572c-0.43394,0 -0.78572,-0.35178 -0.78572,-0.78572z" fill-opacity="0.2" fill="#000000" stroke="none" stroke-width="0" stroke-linecap="butt"/><path d="M257.531,156.08053c0,-0.43394 0.35177,-0.78571 0.78571,-0.78571c0.43394,0 0.78571,0.35177 0.78571,0.78571c0,0.43394 -0.35177,0.78572 -0.78571,0.78572c-0.43394,0 -0.78571,-0.35178 -0.78571,-0.78572z" fill-opacity="0.2" fill="#000000" stroke="none" stroke-width="0" stroke-linecap="butt"/><path d="M207.10243,151.86623c0,-0.39449 0.31979,-0.71429 0.71428,-0.71429c0.39449,0 0.71428,0.3198 0.71428,0.71429c0,0.39449 -0.31979,0.71428 -0.71428,0.71428c-0.39449,0 -0.71428,-0.31979 -0.71428,-0.71428z" fill-opacity="0.2" fill="#000000" stroke="none" stroke-width="0" stroke-linecap="butt"/><path d="M262.95957,152.29481c0,-0.39449 0.31979,-0.71429 0.71429,-0.71429c0.39449,0 0.71429,0.3198 0.71429,0.71429c0,0.39449 -0.31979,0.71428 -0.71429,0.71428c-0.39449,0 -0.71429,-0.31979 -0.71429,-0.71428z" fill-opacity="0.2" fill="#000000" stroke="none" stroke-width="0" stroke-linecap="butt"/><path d="M273.21671,146.79838v3.8h-66.8v-3.8z" data-paper-data="{&quot;index&quot;:null}" fill="url(#color-10)" stroke="none" stroke-width="0" stroke-linecap="butt"/><path d="M248.45007,141.66667c0,4.64839 -3.78322,8.41667 -8.45006,8.41667c-4.66684,0 -8.45007,-3.76828 -8.45007,-8.41667c0,-4.64839 3.78323,-8.41666 8.45007,-8.41666c4.66684,0 8.45006,3.76827 8.45006,8.41666z" fill="url(#color-11)" stroke="none" stroke-width="0" stroke-linecap="butt"/><path d="M233.4765,140.89948c0,-3.5859 2.90696,-6.49285 6.49286,-6.49285c3.5859,0 6.49285,2.90695 6.49285,6.49285c0,3.5859 -2.90695,6.49286 -6.49285,6.49286c-3.5859,0 -6.49286,-2.90696 -6.49286,-6.49286z" fill="url(#color-12)" stroke="#8c7d49" stroke-width="2" stroke-linecap="butt"/><path d="M237.7511,140.76487c0,-1.24203 1.00688,-2.24889 2.2489,-2.24889c1.24203,0 2.24889,1.00687 2.24889,2.24889c0,1.24203 -1.00687,2.2489 -2.24889,2.2489c-1.24203,0 -2.2489,-1.00687 -2.2489,-2.2489z" fill="url(#color-13)" stroke="none" stroke-width="0" stroke-linecap="butt"/><path d="M238.9273,140.76143c0,-0.59027 0.47852,-1.06878 1.06879,-1.06878c0.59027,0 1.06878,0.47851 1.06878,1.06878c0,0.59027 -0.47851,1.06879 -1.06878,1.06879c-0.59027,0 -1.06879,-0.47852 -1.06879,-1.06879z" fill="#4c3232" stroke="none" stroke-width="0" stroke-linecap="butt"/><path d="M239.33229,137.55751c0,0 0.39565,-1.46278 0.51035,-1.8868c0.05045,-0.18651 0.22229,-0.14141 0.2715,0.04732c0.11345,0.43512 0.48859,1.874 0.48859,1.874c0,0 -0.39221,1.38591 -0.50812,1.79549c-0.05196,0.18363 -0.22481,0.16214 -0.27502,-0.02398c-0.11271,-0.41774 -0.48731,-1.80602 -0.48731,-1.80602z" fill="#4c3232" stroke="none" stroke-width="0" stroke-linecap="butt"/><path d="M242.68366,141.47659c0,0 0.75131,0.85235 0.96908,1.09942c0.09579,0.10867 -0.01575,0.24383 -0.16083,0.2218c-0.33447,-0.05079 -1.44049,-0.2188 -1.44049,-0.2188c0,0 -0.70349,-0.82276 -0.91139,-1.06591c-0.09321,-0.10901 0.00361,-0.2532 0.1475,-0.23295c0.32294,0.04543 1.39613,0.19645 1.39613,0.19645z" fill="#4c3232" stroke="none" stroke-width="0" stroke-linecap="butt"/><path d="M251.29979,163.04963c0,-0.94534 0,-1.93476 0,-2.53586c0,-1.62385 1.17981,-2.74287 2.80366,-2.74287c2.15729,0 8.9198,0 12.82421,0c1.61741,0 2.80627,0.98055 2.80627,2.59796c0,1.02181 0,1.97161 0,2.60832c0,1.49797 -0.87333,2.58718 -2.37123,2.5731c-3.78561,-0.03559 -10.99845,-0.08538 -13.25925,0.02487c-1.48579,0.07245 -2.80366,-1.21791 -2.80366,-2.52551z" fill="#9b8066" stroke="none" stroke-width="0" stroke-linecap="butt"/><path d="M251.29979,160.26924c0,-0.94534 0,-1.93475 0,-2.53585c0,-1.62385 1.17981,-2.74287 2.80366,-2.74287c2.1573,0 8.9198,0 12.82421,0c1.61741,0 2.80627,0.98056 2.80627,2.59797c0,1.02181 0,1.9716 0,2.60831c0,1.49797 -0.87332,2.58718 -2.37123,2.57309c-3.78561,-0.03559 -10.99845,-0.08537 -13.25925,0.02487c-1.48579,0.07245 -2.80366,-1.21791 -2.80366,-2.52551z" fill="#7a6551" stroke="none" stroke-width="0" stroke-linecap="butt"/><path d="M253.18357,159.83666c0,-0.70728 0,-1.44754 0,-1.89727c0,-1.21492 0.93869,-2.05215 2.23066,-2.05215c1.71639,0 7.09677,0 10.2032,0c1.28685,0 2.23273,0.73362 2.23273,1.94373c0,0.76449 0,1.47512 0,1.95148c0,1.12075 -0.69483,1.93566 -1.88659,1.92512c-3.01191,-0.02663 -8.75059,-0.06388 -10.54933,0.0186c-1.18213,0.0542 -2.23065,-0.91121 -2.23065,-1.88952z" fill="#2a231c" stroke="none" stroke-width="0" stroke-linecap="butt"/><path d="M263.4346,157.14851c0.952,1.09064 1.17535,2.45347 0.49887,3.04395c-0.67648,0.59047 -1.99662,0.18501 -2.94862,-0.90564c-0.952,-1.09064 -1.17534,-2.45347 -0.49886,-3.04395c0.67648,-0.59047 1.99661,-0.18501 2.94861,0.90564z" fill="#4dbf69" stroke="none" stroke-width="0" stroke-linecap="butt"/><path d="M263.69265,152.65608v7.10067" fill="none" stroke="#4dbf69" stroke-width="1.5" stroke-linecap="round"/><path d="M269.33805,148.4764c0,3.15194 -2.55515,5.70708 -5.70709,5.70708c-3.15193,0 -5.70709,-2.55514 -5.70709,-5.70708c0,-3.15194 2.55515,-5.70708 5.70709,-5.70708c3.15193,0 5.70709,2.55514 5.70709,5.70708z" fill="url(#color-14)" stroke="none" stroke-width="0" stroke-linecap="butt"/><path d="M266.99629,153.76829c0.67648,0.59047 0.45313,1.9533 -0.49886,3.04394c-0.952,1.09064 -2.27213,1.49612 -2.94862,0.90564c-0.67648,-0.59047 -0.45313,-1.95331 0.49887,-3.04395c0.952,-1.09064 2.27213,-1.49611 2.94861,-0.90564z" data-paper-data="{&quot;index&quot;:null}" fill="#4dbf69" stroke="none" stroke-width="0" stroke-linecap="butt"/><path d="M260.32353,148.97811c0,-1.4852 0.00934,-0.17745 0.0381,-1.37374c0.0789,-3.28255 0.59234,-3.79177 1.72972,-0.53476c0.19279,0.55206 0.18556,0.61936 0.18556,0.61936c0,0 0.13526,-0.18376 0.23295,-0.63073c0.56417,-2.58103 1.48525,-3.33062 2.50146,0.17548c0.09302,0.32094 0.20708,0.48687 0.20708,0.48687c0,0 0.10133,-0.11853 0.17665,-0.37147c0.84257,-2.82953 1.74683,-3.86402 1.86372,0.29633c0.04203,1.49588 -0.01325,-0.13035 -0.01325,1.33267c0,1.91146 -1.54954,3.46101 -3.46101,3.46101c-1.91145,0 -3.461,-1.54954 -3.461,-3.461z" fill="#bf4d4d" stroke="none" stroke-width="0" stroke-linecap="butt"/><path d="M256.87568,158.12539c0.65242,0.74744 0.80549,1.68142 0.34188,2.08608c-0.4636,0.40466 -1.36833,0.12678 -2.02074,-0.62066c-0.65242,-0.74744 -0.80548,-1.68142 -0.34188,-2.08608c0.46361,-0.40466 1.36832,-0.12679 2.02074,0.62065z" fill="#4dbf69" stroke="none" stroke-width="0" stroke-linecap="butt"/><path d="M257.05252,159.91286v-4.86623" fill="none" stroke="#4dbf69" stroke-width="1.5" stroke-linecap="round"/><path d="M261.37468,152.259c0,2.30898 -1.8718,4.18077 -4.18077,4.18077c-2.30898,0 -4.18077,-1.87179 -4.18077,-4.18077c0,-2.30898 1.87179,-4.18077 4.18077,-4.18077c2.30897,0 4.18077,1.87179 4.18077,4.18077z" fill="url(#color-15)" stroke="none" stroke-width="0" stroke-linecap="butt"/><path d="M254.7436,152.52605c0,-1.01784 0.00641,-0.12162 0.02611,-0.94145c0.05407,-2.24959 0.40595,-2.59858 1.18542,-0.36649c0.13212,0.37834 0.12717,0.42447 0.12717,0.42447c0,0 0.09269,-0.12594 0.15965,-0.43226c0.38663,-1.76883 1.01786,-2.28254 1.71429,0.12025c0.06374,0.21995 0.14191,0.33367 0.14191,0.33367c0,0 0.06945,-0.08122 0.12107,-0.25457c0.57743,-1.93913 1.19714,-2.6481 1.27724,0.20307c0.0288,1.02516 -0.00908,-0.08933 -0.00908,0.9133c0,1.30996 -1.06194,2.37189 -2.37189,2.37189c-1.30996,0 -2.37189,-1.06193 -2.37189,-2.37189z" fill="#bf4d4d" stroke="none" stroke-width="0" stroke-linecap="butt"/><path d="M200.45715,181.4v-8.4h79.08571v8.4z" fill="url(#color-16)" stroke="none" stroke-width="0" stroke-linecap="butt"/><path d="M200.55715,197.2v-8.4h79.08571v8.4z" fill="url(#color-17)" stroke="none" stroke-width="0" stroke-linecap="butt"/><path d="M200.4,193.90001v-5.8h79.2v5.8z" fill="#42484e" stroke="none" stroke-width="0" stroke-linecap="butt"/><path d="M200.4,177.90001v-5.8h79.2v5.8z" fill="#42484e" stroke="none" stroke-width="0" stroke-linecap="butt"/><path d="M200.4,190.90001v-5.8h79.2v5.8z" fill="url(#color-18)" stroke="none" stroke-width="0" stroke-linecap="butt"/><path d="M200.4,174.90001v-5.8h79.2v5.8z" fill="url(#color-19)" stroke="none" stroke-width="0" stroke-linecap="butt"/><path d="M200.3,189.02917v-2.2h79.2v2.2z" fill-opacity="0.20392" fill="#000000" stroke="none" stroke-width="0" stroke-linecap="butt"/><path d="M200.3,173.02917v-2.2h79.2v2.2z" fill-opacity="0.20392" fill="#000000" stroke="none" stroke-width="0" stroke-linecap="butt"/></g></g></svg>