<svg version="1.1" xmlns="http://www.w3.org/2000/svg" xmlns:xlink="http://www.w3.org/1999/xlink" width="484" height="32" viewBox="0,0,484,32"><g transform="translate(3,0.88353)"><g data-paper-data="{&quot;isPaintingLayer&quot;:true}" fill-rule="nonzero" stroke="none" stroke-linejoin="miter" stroke-miterlimit="10" stroke-dasharray="" stroke-dashoffset="0" style="mix-blend-mode: normal"><path d="M460.42245,20.29988h0.81742v5.36308l-11.12489,-0.02991l0.22928,-3.64849c2.58518,-0.90381 4.56559,-1.96713 5.94125,-3.18993c1.3823,-1.22281 2.07346,-2.4722 2.07346,-3.74817c0,-0.73103 -0.26583,-1.30588 -0.79748,-1.72456c-0.52501,-0.41868 -1.21284,-0.62802 -2.06349,-0.62802c-0.67786,0 -1.37234,0.09304 -2.08343,0.27912c-0.70444,0.18608 -1.3524,0.45191 -1.94387,0.79748l0.06978,1.06663l-0.81742,0.12959l-0.68783,-5.00421c0.7709,-0.52501 1.77108,-0.95698 3.00053,-1.29591c1.2361,-0.34558 2.40574,-0.51836 3.50893,-0.51836c1.6149,0 2.91414,0.38877 3.8977,1.16632c0.99021,0.7709 1.48531,1.86412 1.48531,3.27965c0,1.3956 -0.46852,2.75464 -1.40556,4.07713c-0.9304,1.31585 -2.11666,2.46887 -3.55877,3.45908c-1.43547,0.98356 -2.90085,1.71127 -4.39613,2.18311l7.78543,-1.01679z" fill="#ffece6" stroke-width="1" stroke-linecap="square"/><path d="M-3,31.11647v-32h484v32z" fill="none" stroke-width="0" stroke-linecap="butt"/></g></g></svg>