<svg version="1.1" xmlns="http://www.w3.org/2000/svg" xmlns:xlink="http://www.w3.org/1999/xlink" width="164.9209" height="24.62132" viewBox="0,0,164.9209,24.62132"><g transform="translate(-198.23384,-168.39828)"><g data-paper-data="{&quot;isPaintingLayer&quot;:true}" fill-rule="nonzero" stroke="none" stroke-linejoin="miter" stroke-miterlimit="10" stroke-dasharray="" stroke-dashoffset="0" style="mix-blend-mode: normal"><path d="M204.47292,187.26578c-0.63931,-0.29925 -1.15621,-0.72433 -1.55068,-1.27523c-0.38767,-0.5577 -0.5815,-1.1052 -0.5815,-1.64249c0,-0.5373 0.19724,-1.02698 0.59171,-1.46906c0.39447,-0.44208 0.93177,-0.95217 1.61189,-1.53027c0.60531,-0.50329 1.04059,-0.90456 1.30583,-1.20381c0.27205,-0.30605 0.40807,-0.5679 0.40807,-0.78554c0,-0.49649 -0.20064,-0.90116 -0.60191,-1.21402c-0.39447,-0.31966 -1.20722,-0.5441 -2.43824,-0.67332l-0.39787,-0.04081l-0.5509,0.99978l-1.61189,-0.79574l1.91794,-4.4684c0.70733,-0.12922 1.35684,-0.19383 1.94855,-0.19383c1.87033,0 3.40741,0.35026 4.61122,1.05079c1.21062,0.69372 1.85673,1.75811 1.93835,3.19317c0.04081,0.77534 -0.18363,1.43166 -0.67332,1.96895c-0.48969,0.53049 -1.18001,1.1052 -2.07097,1.72411c-0.61891,0.41487 -1.05419,0.74473 -1.30583,0.98958c-0.24484,0.23804 -0.36727,0.45568 -0.36727,0.65292c0,0.21764 0.06121,0.46928 0.18363,0.75493c0.12242,0.27885 0.14623,0.39787 0.07141,0.35706l0.95897,-0.51009l0.84675,1.63229zM203.01408,188.46959l4.89687,-1.112v4.85607l-4.89687,0.73453z" fill-opacity="0.06667" fill="#000000" stroke-width="1" stroke-linecap="square"/><path d="M246.93495,183.51151c0.92497,0 1.71391,0.18703 2.36682,0.5611c0.65292,0.37407 1.1426,0.85695 1.46906,1.44866c0.33326,0.59171 0.49989,1.21742 0.49989,1.87714c0,1.61869 -0.69372,2.88712 -2.08117,3.80528c-1.38065,0.91136 -3.40401,1.36704 -6.07008,1.36704h-7.18208v-0.91816l1.28543,-0.0204v-15.61899l-1.28543,-0.03061v-0.90796l5.0397,0.05101l3.81548,-0.31626c1.6731,0 2.95173,0.36386 3.83588,1.09159c0.89096,0.72093 1.33644,1.6731 1.33644,2.85651c0,1.1154 -0.37407,2.07777 -1.1222,2.88712c-0.74813,0.80934 -1.84653,1.45546 -3.29519,1.93835zM245.31286,179.74703c0,-1.23782 -0.31966,-2.17299 -0.95897,-2.8055c-0.63251,-0.63931 -1.56428,-0.95897 -2.7953,-0.95897v7.52894c1.26503,-0.08842 2.20699,-0.44208 2.8259,-1.06099c0.61891,-0.61891 0.92837,-1.52007 0.92837,-2.70348zM241.55858,191.65256c1.77512,0 3.06055,-0.27545 3.85629,-0.82635c0.80254,-0.5577 1.20381,-1.44866 1.20381,-2.67288c0,-1.21742 -0.36046,-2.13898 -1.08139,-2.76469c-0.72093,-0.62571 -1.78872,-0.93857 -3.20337,-0.93857h-0.77534zM262.76407,191.21388l-3.84609,1.80572c-0.46928,-0.33326 -0.78894,-0.78894 -0.95897,-1.36704c-0.63251,0.38767 -1.26503,0.70053 -1.89754,0.93857c-0.63251,0.24484 -1.18681,0.36727 -1.6629,0.36727c-0.70733,0 -1.28883,-0.25164 -1.74451,-0.75493c-0.45568,-0.50329 -0.68352,-1.146 -0.68352,-1.92814c0,-0.34686 0.03741,-0.72433 0.11222,-1.1324c0.08161,-0.41487 0.18363,-0.74473 0.30605,-0.98958l5.53959,-0.88756l0.05101,-0.75493c0.03401,-0.78214 -0.13262,-1.39425 -0.49989,-1.83633c-0.36046,-0.44888 -0.95217,-0.67332 -1.77512,-0.67332c-0.36046,0 -0.74133,0.04081 -1.1426,0.12242c-0.40127,0.07481 -0.74133,0.17343 -1.02018,0.29585l-0.41827,0.88756l-0.70393,-0.25505l1.20381,-3.76447c1.33984,-0.5713 2.60827,-0.85695 3.80528,-0.85695c1.23782,0 2.2478,0.32646 3.02994,0.97937c0.78894,0.65292 1.18341,1.6731 1.18341,3.06055l-0.03061,0.53049l-0.26525,3.51963l-0.05101,0.93857c0,0.31286 0.0272,0.5611 0.08161,0.74473c0.05441,0.18363 0.14283,0.37067 0.26525,0.5611l0.80594,-0.30605zM256.83682,191.08126c0.27885,0 0.59851,-0.10542 0.95897,-0.31626l-0.0204,-0.5407l0.0204,-0.5815l0.08161,-1.48947l-2.00976,0.46928c-0.06801,0.23124 -0.10202,0.5373 -0.10202,0.91816c0,0.52369 0.10202,0.91136 0.30605,1.16301c0.21084,0.25164 0.46588,0.37747 0.76514,0.37747zM267.19859,182.77698c0,0.46928 0.18703,0.89776 0.5611,1.28543c0.37407,0.38087 0.94537,0.83315 1.71391,1.35684c0.93857,0.63931 1.65269,1.22082 2.14238,1.74451c0.48969,0.52369 0.73453,1.16981 0.73453,1.93835c0,0.67332 -0.20064,1.30583 -0.60191,1.89754c-0.40127,0.59171 -0.96917,1.06779 -1.7037,1.42825c-0.72773,0.35366 -1.56428,0.53049 -2.50965,0.53049c-0.90456,0 -1.76151,-0.21764 -2.57086,-0.65292c-0.80934,-0.43528 -1.40445,-0.98958 -1.78532,-1.6629l2.2444,-1.80572c0.70053,1.30583 1.41465,2.37702 2.14238,3.21357c0.29925,-0.22444 0.5475,-0.48969 0.74473,-0.79574c0.19724,-0.30605 0.29585,-0.60871 0.29585,-0.90796c0,-0.48289 -0.18023,-0.90116 -0.5407,-1.25482c-0.35366,-0.36046 -0.90456,-0.79234 -1.65269,-1.29563c-0.60531,-0.40127 -1.09159,-0.74813 -1.45886,-1.04059c-0.36727,-0.29925 -0.67672,-0.65632 -0.92837,-1.07119c-0.25164,-0.42168 -0.37747,-0.89436 -0.37747,-1.41805c0,-0.64612 0.21084,-1.26503 0.63251,-1.85673c0.42848,-0.59171 1.02698,-1.06779 1.79552,-1.42825c0.76854,-0.36727 1.63909,-0.5509 2.61167,-0.5509c0.74813,0 1.45546,0.15983 2.12198,0.47949c0.67332,0.31966 1.22082,0.72433 1.64249,1.21402l-2.04036,2.00976c-0.83655,-1.06099 -1.75811,-2.00976 -2.76469,-2.84631c-0.29925,0.38087 -0.44888,0.87736 -0.44888,1.48947zM266.34165,192.57072h0.0204zM274.85605,175.30924l3.336,-0.75493v2.96873l-3.336,0.49989zM278.4573,191.73417l0.96917,0.08161v0.75493h-5.6212v-0.75493l0.96917,-0.08161l-0.08161,-9.29386l-0.98958,0.20404l-0.26525,-0.75493l4.73364,-1.45886l0.36727,0.62231zM287.57528,189.95906c1.07459,0 2.12538,-0.39107 3.15236,-1.17321l0.41827,0.46928c-0.63931,1.1154 -1.44526,2.01316 -2.41783,2.69328c-0.96577,0.67332 -2.00296,1.00998 -3.11156,1.00998c-1.57108,0 -2.8225,-0.52369 -3.75427,-1.57108c-0.93177,-1.05419 -1.39765,-2.47904 -1.39765,-4.27456c0,-1.06099 0.21764,-2.11178 0.65292,-3.15236c0.43528,-1.04739 0.99298,-1.92134 1.6731,-2.62187c0.59171,-0.29245 1.21062,-0.51689 1.85673,-0.67332c0.64612,-0.15643 1.26503,-0.23464 1.85673,-0.23464c1.02698,0 1.93835,0.27885 2.73409,0.83655c0.80254,0.5509 1.44866,1.36024 1.93835,2.42803l-2.99934,1.74451c-0.27885,-0.78214 -0.65632,-1.57448 -1.1324,-2.37702c-0.46928,-0.80254 -0.87736,-1.35004 -1.22422,-1.64249c-0.44888,0.43528 -0.83655,1.06779 -1.16301,1.89754c-0.31966,0.82295 -0.47949,1.6697 -0.47949,2.54025c0,1.33984 0.29585,2.36002 0.88756,3.06055c0.59171,0.69372 1.42825,1.04059 2.50965,1.04059zM312.56197,183.51151v0.90796l-1.17321,0.03061v8.12065h-0.83655l-1.90774,-1.30583c-0.68012,0.5373 -1.41465,0.95557 -2.20359,1.25482c-0.78894,0.29245 -1.59488,0.43868 -2.41783,0.43868c-1.53027,0 -2.88031,-0.35026 -4.05012,-1.05079c-1.16301,-0.70733 -2.06757,-1.7003 -2.71368,-2.97893c-0.64612,-1.27863 -0.96917,-2.76469 -0.96917,-4.4582c0,-1.59829 0.29245,-3.11156 0.87736,-4.53981c0.5849,-1.42825 1.32964,-2.56746 2.2342,-3.41761c0.89096,-0.5781 1.84313,-1.01678 2.85651,-1.31603c1.02018,-0.30605 2.02676,-0.45908 3.01974,-0.45908c1.32624,0 2.54025,0.28225 3.64205,0.84675c1.1086,0.5645 1.98255,1.35004 2.62187,2.35662l-3.20337,2.69328c-0.95897,-1.61869 -2.04717,-3.3428 -3.26458,-5.17232c-1.20381,0.52369 -2.18999,1.49287 -2.95853,2.90752c-0.76174,1.40785 -1.1426,3.00614 -1.1426,4.79486c0,2.2172 0.49989,3.95831 1.49967,5.22333c0.99978,1.25822 2.37022,1.88734 4.11133,1.88734c0.27885,0 0.48969,-0.0102 0.63251,-0.03061v-5.79463l-1.28543,-0.03061v-0.90796zM326.72371,190.81601l-3.63185,2.07097c-0.5577,-0.29925 -0.96917,-0.70393 -1.23442,-1.21402c-0.25845,-0.51689 -0.38767,-1.17661 -0.38767,-1.97915l-2.2444,3.26458c-1.63909,0 -2.84971,-0.39447 -3.63185,-1.18341c-0.78214,-0.79574 -1.17321,-2.01996 -1.17321,-3.67266v-6.44755l-0.96917,-0.08161v-0.75493h4.65203v6.24351c0,0.78214 0.20404,1.38745 0.61211,1.81592c0.40807,0.42168 0.95217,0.64271 1.63229,0.66312l1.1222,-1.04059v-6.84542l-0.93857,-0.08161v-0.75493h4.62142v7.36571c0,0.64612 0.03741,1.1256 0.11222,1.43846c0.08161,0.31286 0.21084,0.5815 0.38767,0.80594l0.78554,-0.38767zM328.6041,175.30924l3.336,-0.75493v2.96873l-3.336,0.49989zM332.20534,191.73417l0.96917,0.08161v0.75493h-5.6212v-0.75493l0.96917,-0.08161l-0.08161,-9.29386l-0.98958,0.20404l-0.26525,-0.75493l4.73364,-1.45886l0.36727,0.62231zM347.16896,190.765l-3.81548,2.07097c-0.46928,-0.27885 -0.81275,-0.64952 -1.03038,-1.112c-0.21764,-0.46248 -0.34346,-1.06099 -0.37747,-1.79552l-2.58106,3.02994c-1.01338,0 -1.90774,-0.22784 -2.68308,-0.68352c-0.77534,-0.46248 -1.38065,-1.0984 -1.81592,-1.90774c-0.43528,-0.80934 -0.65292,-1.72751 -0.65292,-2.75449c0,-0.89096 0.14623,-1.83293 0.43868,-2.8259c0.29925,-0.99298 0.65972,-1.76832 1.08139,-2.32602c0.32646,-0.46928 0.92497,-0.92497 1.79552,-1.36704c0.87056,-0.44208 1.60169,-0.66312 2.19339,-0.66312c0.52369,0 1.23782,0.08502 2.14238,0.25505l-0.05101,-4.59082l-0.98958,0.20404l-0.26525,-0.75493l4.83566,-1.45886l0.36727,0.62231l-0.16323,13.52761c0,0.62571 0.03401,1.09159 0.10202,1.39765c0.07481,0.30605 0.20064,0.5713 0.37747,0.79574l0.77534,-0.36727zM337.97711,186.04156c0,0.80254 0.12922,1.49967 0.38767,2.09137c0.26525,0.59171 0.60871,1.04399 1.03038,1.35684c0.42848,0.31286 0.88756,0.46928 1.37725,0.46928l1.17321,-1.17321l-0.05101,-5.27434c-1.129,-0.5441 -2.2172,-0.91136 -3.26458,-1.1018c-0.43528,0.99298 -0.65292,2.20359 -0.65292,3.63185zM353.885,180.43056c1.53027,0 2.73409,0.5543 3.61144,1.6629c0.88416,1.1018 1.31603,2.59126 1.29563,4.4684l-7.21269,0.23464c0.12242,1.02698 0.47949,1.81252 1.07119,2.35662c0.59171,0.5373 1.37725,0.80594 2.35662,0.80594c1.35344,0 2.45864,-0.37407 3.31559,-1.1222l0.46928,0.41827c-0.61211,1.16301 -1.43506,2.07097 -2.46884,2.72389c-1.03378,0.65292 -2.13558,0.97937 -3.30539,0.97937c-1.58468,0 -2.84291,-0.52369 -3.77467,-1.57108c-0.93177,-1.05419 -1.39765,-2.47904 -1.39765,-4.27456c0,-1.06099 0.21424,-2.11178 0.64271,-3.15236c0.42848,-1.04739 0.97257,-1.92134 1.63229,-2.62187c0.45568,-0.25845 1.04059,-0.47268 1.75471,-0.64271c0.71413,-0.17683 1.38405,-0.26525 2.00976,-0.26525zM354.92559,185.7049c-0.0136,-1.21742 -0.18703,-2.18319 -0.52029,-2.89732c-0.33326,-0.71413 -0.80254,-1.1426 -1.40785,-1.28543c-0.43528,0.45568 -0.78894,1.08819 -1.06099,1.89754c-0.27205,0.80934 -0.40807,1.63909 -0.40807,2.48924v0.08161z" fill-opacity="0.06667" fill="#000000" stroke-width="1" stroke-linecap="square"/><path d="M198.23384,191.60172v-23.20344h164.9209v23.20344z" fill-opacity="0.06667" fill="#000000" stroke-width="0" stroke-linecap="butt"/><path d="M204.28552,184.67208c-0.63931,-0.29925 -1.15621,-0.72433 -1.55068,-1.27523c-0.38767,-0.5577 -0.5815,-1.1052 -0.5815,-1.64249c0,-0.5373 0.19724,-1.02698 0.59171,-1.46906c0.39447,-0.44208 0.93177,-0.95217 1.61189,-1.53027c0.60531,-0.50329 1.04059,-0.90456 1.30583,-1.20381c0.27205,-0.30605 0.40807,-0.5679 0.40807,-0.78554c0,-0.49649 -0.20064,-0.90116 -0.60191,-1.21402c-0.39447,-0.31966 -1.20722,-0.5441 -2.43824,-0.67332l-0.39787,-0.04081l-0.5509,0.99978l-1.61189,-0.79574l1.91794,-4.4684c0.70733,-0.12922 1.35684,-0.19383 1.94855,-0.19383c1.87033,0 3.40741,0.35026 4.61122,1.05079c1.21062,0.69372 1.85673,1.75811 1.93835,3.19317c0.04081,0.77534 -0.18363,1.43166 -0.67332,1.96895c-0.48969,0.53049 -1.18001,1.1052 -2.07097,1.72411c-0.61891,0.41487 -1.05419,0.74473 -1.30583,0.98958c-0.24484,0.23804 -0.36727,0.45568 -0.36727,0.65292c0,0.21764 0.06121,0.46928 0.18363,0.75493c0.12242,0.27885 0.14623,0.39787 0.07141,0.35706l0.95897,-0.51009l0.84675,1.63229zM202.82669,185.87589l4.89687,-1.112v4.85607l-4.89687,0.73453z" fill="#f1f6ff" stroke-width="1" stroke-linecap="square"/><path d="M246.74756,180.91781c0.92497,0 1.71391,0.18703 2.36682,0.5611c0.65292,0.37407 1.1426,0.85695 1.46906,1.44866c0.33326,0.59171 0.49989,1.21742 0.49989,1.87714c0,1.61869 -0.69372,2.88712 -2.08117,3.80528c-1.38065,0.91136 -3.40401,1.36704 -6.07008,1.36704h-7.18208v-0.91816l1.28543,-0.0204v-15.61899l-1.28543,-0.03061v-0.90796l5.0397,0.05101l3.81548,-0.31626c1.6731,0 2.95173,0.36386 3.83588,1.09159c0.89096,0.72093 1.33644,1.6731 1.33644,2.85651c0,1.1154 -0.37407,2.07777 -1.1222,2.88712c-0.74813,0.80934 -1.84653,1.45546 -3.29519,1.93835zM245.12547,177.15333c0,-1.23782 -0.31966,-2.17299 -0.95897,-2.8055c-0.63251,-0.63931 -1.56428,-0.95897 -2.7953,-0.95897v7.52894c1.26503,-0.08842 2.20699,-0.44208 2.8259,-1.06099c0.61891,-0.61891 0.92837,-1.52007 0.92837,-2.70348zM241.37118,189.05886c1.77512,0 3.06055,-0.27545 3.85629,-0.82635c0.80254,-0.5577 1.20381,-1.44866 1.20381,-2.67288c0,-1.21742 -0.36046,-2.13898 -1.08139,-2.76469c-0.72093,-0.62571 -1.78872,-0.93857 -3.20337,-0.93857h-0.77534zM262.57667,188.62018l-3.84609,1.80572c-0.46928,-0.33326 -0.78894,-0.78894 -0.95897,-1.36704c-0.63251,0.38767 -1.26503,0.70053 -1.89754,0.93857c-0.63251,0.24484 -1.18681,0.36727 -1.6629,0.36727c-0.70733,0 -1.28883,-0.25164 -1.74451,-0.75493c-0.45568,-0.50329 -0.68352,-1.146 -0.68352,-1.92814c0,-0.34686 0.03741,-0.72433 0.11222,-1.1324c0.08161,-0.41487 0.18363,-0.74473 0.30605,-0.98958l5.53959,-0.88756l0.05101,-0.75493c0.03401,-0.78214 -0.13262,-1.39425 -0.49989,-1.83633c-0.36046,-0.44888 -0.95217,-0.67332 -1.77512,-0.67332c-0.36046,0 -0.74133,0.04081 -1.1426,0.12242c-0.40127,0.07481 -0.74133,0.17343 -1.02018,0.29585l-0.41827,0.88756l-0.70393,-0.25505l1.20381,-3.76447c1.33984,-0.5713 2.60827,-0.85695 3.80528,-0.85695c1.23782,0 2.2478,0.32646 3.02994,0.97937c0.78894,0.65292 1.18341,1.6731 1.18341,3.06055l-0.03061,0.53049l-0.26525,3.51963l-0.05101,0.93857c0,0.31286 0.0272,0.5611 0.08161,0.74473c0.05441,0.18363 0.14283,0.37067 0.26525,0.5611l0.80594,-0.30605zM256.64943,188.48756c0.27885,0 0.59851,-0.10542 0.95897,-0.31626l-0.0204,-0.5407l0.0204,-0.5815l0.08161,-1.48947l-2.00976,0.46928c-0.06801,0.23124 -0.10202,0.5373 -0.10202,0.91816c0,0.52369 0.10202,0.91136 0.30605,1.16301c0.21084,0.25164 0.46588,0.37747 0.76514,0.37747zM267.01119,180.18328c0,0.46928 0.18703,0.89776 0.5611,1.28543c0.37407,0.38087 0.94537,0.83315 1.71391,1.35684c0.93857,0.63931 1.65269,1.22082 2.14238,1.74451c0.48969,0.52369 0.73453,1.16981 0.73453,1.93835c0,0.67332 -0.20064,1.30583 -0.60191,1.89754c-0.40127,0.59171 -0.96917,1.06779 -1.7037,1.42825c-0.72773,0.35366 -1.56428,0.53049 -2.50965,0.53049c-0.90456,0 -1.76151,-0.21764 -2.57086,-0.65292c-0.80934,-0.43528 -1.40445,-0.98958 -1.78532,-1.6629l2.2444,-1.80572c0.70053,1.30583 1.41465,2.37702 2.14238,3.21357c0.29925,-0.22444 0.5475,-0.48969 0.74473,-0.79574c0.19724,-0.30605 0.29585,-0.60871 0.29585,-0.90796c0,-0.48289 -0.18023,-0.90116 -0.5407,-1.25482c-0.35366,-0.36046 -0.90456,-0.79234 -1.65269,-1.29563c-0.60531,-0.40127 -1.09159,-0.74813 -1.45886,-1.04059c-0.36727,-0.29925 -0.67672,-0.65632 -0.92837,-1.07119c-0.25164,-0.42168 -0.37747,-0.89436 -0.37747,-1.41805c0,-0.64612 0.21084,-1.26503 0.63251,-1.85673c0.42848,-0.59171 1.02698,-1.06779 1.79552,-1.42825c0.76854,-0.36727 1.63909,-0.5509 2.61167,-0.5509c0.74813,0 1.45546,0.15983 2.12198,0.47949c0.67332,0.31966 1.22082,0.72433 1.64249,1.21402l-2.04036,2.00976c-0.83655,-1.06099 -1.75811,-2.00976 -2.76469,-2.84631c-0.29925,0.38087 -0.44888,0.87736 -0.44888,1.48947zM266.15426,189.97702h0.0204zM274.66865,172.71554l3.336,-0.75493v2.96873l-3.336,0.49989zM278.2699,189.14047l0.96917,0.08161v0.75493h-5.6212v-0.75493l0.96917,-0.08161l-0.08161,-9.29386l-0.98958,0.20404l-0.26525,-0.75493l4.73364,-1.45886l0.36727,0.62231zM287.38788,187.36536c1.07459,0 2.12538,-0.39107 3.15236,-1.17321l0.41827,0.46928c-0.63931,1.1154 -1.44526,2.01316 -2.41783,2.69328c-0.96577,0.67332 -2.00296,1.00998 -3.11156,1.00998c-1.57108,0 -2.8225,-0.52369 -3.75427,-1.57108c-0.93177,-1.05419 -1.39765,-2.47904 -1.39765,-4.27456c0,-1.06099 0.21764,-2.11178 0.65292,-3.15236c0.43528,-1.04739 0.99298,-1.92134 1.6731,-2.62187c0.59171,-0.29245 1.21062,-0.51689 1.85673,-0.67332c0.64612,-0.15643 1.26503,-0.23464 1.85673,-0.23464c1.02698,0 1.93835,0.27885 2.73409,0.83655c0.80254,0.5509 1.44866,1.36024 1.93835,2.42803l-2.99934,1.74451c-0.27885,-0.78214 -0.65632,-1.57448 -1.1324,-2.37702c-0.46928,-0.80254 -0.87736,-1.35004 -1.22422,-1.64249c-0.44888,0.43528 -0.83655,1.06779 -1.16301,1.89754c-0.31966,0.82295 -0.47949,1.6697 -0.47949,2.54025c0,1.33984 0.29585,2.36002 0.88756,3.06055c0.59171,0.69372 1.42825,1.04059 2.50965,1.04059zM312.37457,180.91781v0.90796l-1.17321,0.03061v8.12065h-0.83655l-1.90774,-1.30583c-0.68012,0.5373 -1.41465,0.95557 -2.20359,1.25482c-0.78894,0.29245 -1.59488,0.43868 -2.41783,0.43868c-1.53027,0 -2.88031,-0.35026 -4.05012,-1.05079c-1.16301,-0.70733 -2.06757,-1.7003 -2.71368,-2.97893c-0.64612,-1.27863 -0.96917,-2.76469 -0.96917,-4.4582c0,-1.59829 0.29245,-3.11156 0.87736,-4.53981c0.5849,-1.42825 1.32964,-2.56746 2.2342,-3.41761c0.89096,-0.5781 1.84313,-1.01678 2.85651,-1.31603c1.02018,-0.30605 2.02676,-0.45908 3.01974,-0.45908c1.32624,0 2.54025,0.28225 3.64205,0.84675c1.1086,0.5645 1.98255,1.35004 2.62187,2.35662l-3.20337,2.69328c-0.95897,-1.61869 -2.04717,-3.3428 -3.26458,-5.17232c-1.20381,0.52369 -2.18999,1.49287 -2.95853,2.90752c-0.76174,1.40785 -1.1426,3.00614 -1.1426,4.79486c0,2.2172 0.49989,3.95831 1.49967,5.22333c0.99978,1.25822 2.37022,1.88734 4.11133,1.88734c0.27885,0 0.48969,-0.0102 0.63251,-0.03061v-5.79463l-1.28543,-0.03061v-0.90796zM326.53632,188.22231l-3.63185,2.07097c-0.5577,-0.29925 -0.96917,-0.70393 -1.23442,-1.21402c-0.25845,-0.51689 -0.38767,-1.17661 -0.38767,-1.97915l-2.2444,3.26458c-1.63909,0 -2.84971,-0.39447 -3.63185,-1.18341c-0.78214,-0.79574 -1.17321,-2.01996 -1.17321,-3.67266v-6.44755l-0.96917,-0.08161v-0.75493h4.65203v6.24351c0,0.78214 0.20404,1.38745 0.61211,1.81592c0.40807,0.42168 0.95217,0.64271 1.63229,0.66312l1.1222,-1.04059v-6.84542l-0.93857,-0.08161v-0.75493h4.62142v7.36571c0,0.64612 0.03741,1.1256 0.11222,1.43846c0.08161,0.31286 0.21084,0.5815 0.38767,0.80594l0.78554,-0.38767zM328.4167,172.71554l3.336,-0.75493v2.96873l-3.336,0.49989zM332.01794,189.14047l0.96917,0.08161v0.75493h-5.6212v-0.75493l0.96917,-0.08161l-0.08161,-9.29386l-0.98958,0.20404l-0.26525,-0.75493l4.73364,-1.45886l0.36727,0.62231zM346.98157,188.1713l-3.81548,2.07097c-0.46928,-0.27885 -0.81275,-0.64952 -1.03038,-1.112c-0.21764,-0.46248 -0.34346,-1.06099 -0.37747,-1.79552l-2.58106,3.02994c-1.01338,0 -1.90774,-0.22784 -2.68308,-0.68352c-0.77534,-0.46248 -1.38065,-1.0984 -1.81592,-1.90774c-0.43528,-0.80934 -0.65292,-1.72751 -0.65292,-2.75449c0,-0.89096 0.14623,-1.83293 0.43868,-2.8259c0.29925,-0.99298 0.65972,-1.76832 1.08139,-2.32602c0.32646,-0.46928 0.92497,-0.92497 1.79552,-1.36704c0.87056,-0.44208 1.60169,-0.66312 2.19339,-0.66312c0.52369,0 1.23782,0.08502 2.14238,0.25505l-0.05101,-4.59082l-0.98958,0.20404l-0.26525,-0.75493l4.83566,-1.45886l0.36727,0.62231l-0.16323,13.52761c0,0.62571 0.03401,1.09159 0.10202,1.39765c0.07481,0.30605 0.20064,0.5713 0.37747,0.79574l0.77534,-0.36727zM337.78971,183.44786c0,0.80254 0.12922,1.49967 0.38767,2.09137c0.26525,0.59171 0.60871,1.04399 1.03038,1.35684c0.42848,0.31286 0.88756,0.46928 1.37725,0.46928l1.17321,-1.17321l-0.05101,-5.27434c-1.129,-0.5441 -2.2172,-0.91136 -3.26458,-1.1018c-0.43528,0.99298 -0.65292,2.20359 -0.65292,3.63185zM353.69761,177.83686c1.53027,0 2.73409,0.5543 3.61144,1.6629c0.88416,1.1018 1.31603,2.59126 1.29563,4.4684l-7.21269,0.23464c0.12242,1.02698 0.47949,1.81252 1.07119,2.35662c0.59171,0.5373 1.37725,0.80594 2.35662,0.80594c1.35344,0 2.45864,-0.37407 3.31559,-1.1222l0.46928,0.41827c-0.61211,1.16301 -1.43506,2.07097 -2.46884,2.72389c-1.03378,0.65292 -2.13558,0.97937 -3.30539,0.97937c-1.58468,0 -2.84291,-0.52369 -3.77467,-1.57108c-0.93177,-1.05419 -1.39765,-2.47904 -1.39765,-4.27456c0,-1.06099 0.21424,-2.11178 0.64271,-3.15236c0.42848,-1.04739 0.97257,-1.92134 1.63229,-2.62187c0.45568,-0.25845 1.04059,-0.47268 1.75471,-0.64271c0.71413,-0.17683 1.38405,-0.26525 2.00976,-0.26525zM354.7382,183.1112c-0.0136,-1.21742 -0.18703,-2.18319 -0.52029,-2.89732c-0.33326,-0.71413 -0.80254,-1.1426 -1.40785,-1.28543c-0.43528,0.45568 -0.78894,1.08819 -1.06099,1.89754c-0.27205,0.80934 -0.40807,1.63909 -0.40807,2.48924v0.08161z" fill="#f1f6ff" stroke-width="1" stroke-linecap="square"/></g></g></svg>