<svg version="1.1" xmlns="http://www.w3.org/2000/svg" xmlns:xlink="http://www.w3.org/1999/xlink" width="79.34286" height="44.38747" viewBox="0,0,79.34286,44.38747"><defs><linearGradient x1="240" y1="173" x2="240" y2="181.4" gradientUnits="userSpaceOnUse" id="color-1"><stop offset="0" stop-color="#000000" stop-opacity="0.30196"/><stop offset="1" stop-color="#000000" stop-opacity="0"/></linearGradient><linearGradient x1="240.1" y1="188.8" x2="240.1" y2="197.2" gradientUnits="userSpaceOnUse" id="color-2"><stop offset="0" stop-color="#000000" stop-opacity="0.30196"/><stop offset="1" stop-color="#000000" stop-opacity="0"/></linearGradient><linearGradient x1="215.1707" y1="197.70271" x2="215.1707" y2="205.84365" gradientUnits="userSpaceOnUse" id="color-3"><stop offset="0" stop-color="#000000" stop-opacity="0.30196"/><stop offset="1" stop-color="#000000" stop-opacity="0"/></linearGradient><linearGradient x1="240.36883" y1="197.89654" x2="240.36883" y2="206.03748" gradientUnits="userSpaceOnUse" id="color-4"><stop offset="0" stop-color="#000000" stop-opacity="0.30196"/><stop offset="1" stop-color="#000000" stop-opacity="0"/></linearGradient><linearGradient x1="265.1793" y1="197.89654" x2="265.1793" y2="206.03748" gradientUnits="userSpaceOnUse" id="color-5"><stop offset="0" stop-color="#000000" stop-opacity="0.30196"/><stop offset="1" stop-color="#000000" stop-opacity="0"/></linearGradient><linearGradient x1="265.20132" y1="174.02769" x2="265.20132" y2="166.85591" gradientUnits="userSpaceOnUse" id="color-6"><stop offset="0" stop-color="#000000" stop-opacity="0.20392"/><stop offset="1" stop-color="#000000" stop-opacity="0"/></linearGradient><linearGradient x1="265.20132" y1="189.45274" x2="265.20132" y2="182.66862" gradientUnits="userSpaceOnUse" id="color-7"><stop offset="0" stop-color="#000000" stop-opacity="0.20392"/><stop offset="1" stop-color="#000000" stop-opacity="0"/></linearGradient><linearGradient x1="265.20132" y1="177.65432" x2="265.20132" y2="183.46928" gradientUnits="userSpaceOnUse" id="color-8"><stop offset="0" stop-color="#000000" stop-opacity="0.30196"/><stop offset="1" stop-color="#000000" stop-opacity="0"/></linearGradient><linearGradient x1="265.20132" y1="193.16087" x2="265.20132" y2="198.97582" gradientUnits="userSpaceOnUse" id="color-9"><stop offset="0" stop-color="#000000" stop-opacity="0.30196"/><stop offset="1" stop-color="#000000" stop-opacity="0"/></linearGradient><linearGradient x1="215.19272" y1="174.02769" x2="215.19272" y2="166.85591" gradientUnits="userSpaceOnUse" id="color-10"><stop offset="0" stop-color="#000000" stop-opacity="0.20392"/><stop offset="1" stop-color="#000000" stop-opacity="0"/></linearGradient><linearGradient x1="215.19272" y1="189.45274" x2="215.19272" y2="182.66862" gradientUnits="userSpaceOnUse" id="color-11"><stop offset="0" stop-color="#000000" stop-opacity="0.20392"/><stop offset="1" stop-color="#000000" stop-opacity="0"/></linearGradient><linearGradient x1="215.19272" y1="177.65432" x2="215.19272" y2="183.46928" gradientUnits="userSpaceOnUse" id="color-12"><stop offset="0" stop-color="#000000" stop-opacity="0.30196"/><stop offset="1" stop-color="#000000" stop-opacity="0"/></linearGradient><linearGradient x1="215.19272" y1="193.16087" x2="215.19272" y2="198.97582" gradientUnits="userSpaceOnUse" id="color-13"><stop offset="0" stop-color="#000000" stop-opacity="0.30196"/><stop offset="1" stop-color="#000000" stop-opacity="0"/></linearGradient><linearGradient x1="240.36883" y1="174.09231" x2="240.36883" y2="166.92054" gradientUnits="userSpaceOnUse" id="color-14"><stop offset="0" stop-color="#000000" stop-opacity="0.20392"/><stop offset="1" stop-color="#000000" stop-opacity="0"/></linearGradient><linearGradient x1="240.36883" y1="189.51736" x2="240.36883" y2="182.73325" gradientUnits="userSpaceOnUse" id="color-15"><stop offset="0" stop-color="#000000" stop-opacity="0.20392"/><stop offset="1" stop-color="#000000" stop-opacity="0"/></linearGradient><linearGradient x1="240.36883" y1="177.71895" x2="240.36883" y2="183.5339" gradientUnits="userSpaceOnUse" id="color-16"><stop offset="0" stop-color="#000000" stop-opacity="0.30196"/><stop offset="1" stop-color="#000000" stop-opacity="0"/></linearGradient><linearGradient x1="240.36883" y1="193.22549" x2="240.36883" y2="199.04044" gradientUnits="userSpaceOnUse" id="color-17"><stop offset="0" stop-color="#000000" stop-opacity="0.30196"/><stop offset="1" stop-color="#000000" stop-opacity="0"/></linearGradient><linearGradient x1="240" y1="185.10001" x2="240" y2="190.90001" gradientUnits="userSpaceOnUse" id="color-18"><stop offset="0" stop-color="#5a6168"/><stop offset="1" stop-color="#747d86"/></linearGradient><linearGradient x1="240" y1="169.10001" x2="240" y2="174.90001" gradientUnits="userSpaceOnUse" id="color-19"><stop offset="0" stop-color="#5a6168"/><stop offset="1" stop-color="#757e87"/></linearGradient></defs><g transform="translate(-200.3,-161.65001)"><g data-paper-data="{&quot;isPaintingLayer&quot;:true}" fill-rule="nonzero" stroke="none" stroke-width="0" stroke-linecap="butt" stroke-linejoin="miter" stroke-miterlimit="10" stroke-dasharray="" stroke-dashoffset="0" style="mix-blend-mode: normal"><path d="M200.45715,181.4v-8.4h79.08571v8.4z" fill="url(#color-1)"/><path d="M200.55715,197.2v-8.4h79.08571v8.4z" fill="url(#color-2)"/><path d="M204.85609,205.84365v-8.14093h20.62923v8.14093z" fill="url(#color-3)"/><path d="M230.05422,206.03748v-8.14093h20.62923v8.14093z" fill="url(#color-4)"/><path d="M254.86469,206.03748v-8.14093h20.62923v8.14093z" fill="url(#color-5)"/><path d="M254.87539,198.84142c0,-7.6905 0,-25.4924 0,-30.05998c0,-2.0398 1.67764,-3.90091 3.67145,-3.90091c2.417,0 9.36387,0 13.309,0c2.14323,0 3.67145,1.82793 3.67145,3.67145c0,4.41762 0,22.97964 0,30.74838c0,2.12463 -1.41016,3.44198 -3.44199,3.44198c-4.29303,0 -11.13198,0 -13.53846,0c-1.58556,0 -3.67145,-1.7767 -3.67145,-3.90091z" fill="#584b32"/><path d="M254.87539,197.22616c0,-7.6905 0,-25.4924 0,-30.05998c0,-2.0398 1.67764,-3.90091 3.67145,-3.90091c2.417,0 9.36387,0 13.309,0c2.14323,0 3.67145,1.82793 3.67145,3.67145c0,4.41762 0,22.97964 0,30.74838c0,2.12463 -1.41016,3.44198 -3.44198,3.44198c-4.29303,0 -11.13198,0 -13.53846,0c-1.58556,0 -3.67145,-1.7767 -3.67145,-3.90091z" fill="#68583b"/><path d="M254.87539,195.6109c0,-7.6905 0,-25.4924 0,-30.05998c0,-2.0398 1.67764,-3.90091 3.67145,-3.90091c2.417,0 9.36387,0 13.309,0c2.14323,0 3.67145,1.82793 3.67145,3.67145c0,4.41762 0,22.97964 0,30.74838c0,2.12463 -1.41016,3.44198 -3.44198,3.44198c-4.29303,0 -11.13198,0 -13.53847,0c-1.58556,0 -3.67145,-1.7767 -3.67145,-3.90091z" fill="#89744e"/><path d="M275.51594,166.85591v7.17178h-20.62923v-7.17178z" data-paper-data="{&quot;index&quot;:null}" fill="url(#color-6)"/><path d="M275.51594,182.66862v6.78411h-20.62923v-6.78411z" data-paper-data="{&quot;index&quot;:null}" fill="url(#color-7)"/><path d="M254.88671,183.46928v-5.81495h20.62923v5.81495z" fill="url(#color-8)"/><path d="M254.88671,198.97582v-5.81495h20.62923v5.81495z" fill="url(#color-9)"/><path d="M268.98105,202.70599c0,0 -0.32725,-9.98351 2.32598,-15.50654c2.18339,-4.54501 1.74449,15.50654 1.74449,15.50654z" fill-opacity="0.15294" fill="#000000"/><path d="M254.83133,191.65758v-25.19813c0,0 2.96981,5.99349 3.48897,8.14093c0.51916,2.14744 2.11364,6.42818 0.77533,13.18056c-1.33831,6.75238 -4.2643,3.87664 -4.2643,3.87664z" fill-opacity="0.15294" fill="#000000"/><path d="M257.93264,202.70599c0,0 0.77533,-10.12899 3.10131,-12.98673c4.67718,-5.74647 -3.10131,-27.91178 -3.10131,-27.91178h4.2643c0,0 -0.03378,1.14474 0.61576,5.65099c0.48935,1.54619 1.45164,4.02719 2.35814,6.26098c0.6847,1.68727 2.69988,-11.95875 2.69988,-11.95875c0,0 2.62923,-0.07956 3.62534,-0.03627c0.69839,0.03035 2.16969,0.65895 2.16969,0.65895c0,0 -1.36576,2.39466 -1.39061,7.5641c-0.03357,6.98559 0.71286,13.98171 -1.06043,13.72971c-2.43919,-0.34663 -0.463,-2.81565 -2.0955,-4.65556c-1.2814,-1.44421 -1.88263,1.3985 -1.88263,1.58754c0,7.90094 -2.1345,9.89881 -2.911,14.47095c-0.77415,4.55828 0.77885,7.62588 0.77885,7.62588z" fill-opacity="0.15294" fill="#000000"/><path d="M204.86678,198.84142c0,-7.6905 0,-25.4924 0,-30.05998c0,-2.0398 1.67764,-3.90091 3.67145,-3.90091c2.417,0 9.36387,0 13.309,0c2.14323,0 3.67145,1.82793 3.67145,3.67145c0,4.41762 0,22.97964 0,30.74838c0,2.12463 -1.41016,3.44198 -3.44199,3.44198c-4.29303,0 -11.13198,0 -13.53846,0c-1.58556,0 -3.67145,-1.7767 -3.67145,-3.90091z" fill="#584b32"/><path d="M204.86678,197.22616c0,-7.6905 0,-25.4924 0,-30.05998c0,-2.0398 1.67764,-3.90091 3.67145,-3.90091c2.417,0 9.36387,0 13.309,0c2.14323,0 3.67145,1.82793 3.67145,3.67145c0,4.41762 0,22.97964 0,30.74838c0,2.12463 -1.41016,3.44198 -3.44198,3.44198c-4.29303,0 -11.13198,0 -13.53846,0c-1.58556,0 -3.67145,-1.7767 -3.67145,-3.90091z" fill="#68583b"/><path d="M204.86678,195.6109c0,-7.6905 0,-25.4924 0,-30.05998c0,-2.0398 1.67764,-3.90091 3.67145,-3.90091c2.417,0 9.36387,0 13.309,0c2.14323,0 3.67145,1.82793 3.67145,3.67145c0,4.41762 0,22.97964 0,30.74838c0,2.12463 -1.41016,3.44198 -3.44198,3.44198c-4.29303,0 -11.13198,0 -13.53847,0c-1.58556,0 -3.67145,-1.7767 -3.67145,-3.90091z" fill="#89744e"/><path d="M225.50734,166.85591v7.17178h-20.62923v-7.17178z" data-paper-data="{&quot;index&quot;:null}" fill="url(#color-10)"/><path d="M225.50734,182.66862v6.78411h-20.62923v-6.78411z" data-paper-data="{&quot;index&quot;:null}" fill="url(#color-11)"/><path d="M204.87811,183.46928v-5.81495h20.62923v5.81495z" fill="url(#color-12)"/><path d="M204.87811,198.97582v-5.81495h20.62923v5.81495z" fill="url(#color-13)"/><path d="M218.97244,202.70599c0,0 -0.32725,-9.98351 2.32598,-15.50654c2.18339,-4.54501 1.74449,15.50654 1.74449,15.50654z" fill-opacity="0.15294" fill="#000000"/><path d="M204.82272,191.65758v-25.19813c0,0 2.96981,5.99349 3.48897,8.14093c0.51916,2.14744 2.11364,6.42818 0.77533,13.18056c-1.33831,6.75238 -4.2643,3.87664 -4.2643,3.87664z" fill-opacity="0.15294" fill="#000000"/><path d="M207.92403,202.70599c0,0 0.77533,-10.12899 3.10131,-12.98673c4.67718,-5.74647 -3.10131,-27.91178 -3.10131,-27.91178h4.2643c0,0 -0.03378,1.14474 0.61576,5.65099c0.48935,1.54619 1.45164,4.02719 2.35814,6.26098c0.6847,1.68727 2.69988,-11.95875 2.69988,-11.95875c0,0 2.62923,-0.07956 3.62534,-0.03627c0.69839,0.03035 2.16969,0.65895 2.16969,0.65895c0,0 -1.36576,2.39466 -1.39061,7.5641c-0.03357,6.98559 0.71286,13.98171 -1.06043,13.72971c-2.43919,-0.34663 -0.463,-2.81565 -2.0955,-4.65556c-1.2814,-1.44421 -1.88263,1.3985 -1.88263,1.58754c0,7.90094 -2.1345,9.89881 -2.911,14.47095c-0.77415,4.55828 0.77885,7.62588 0.77885,7.62588z" fill-opacity="0.15294" fill="#000000"/><path d="M230.04289,198.90605c0,-7.6905 0,-25.4924 0,-30.05998c0,-2.0398 1.67764,-3.90091 3.67145,-3.90091c2.417,0 9.36387,0 13.309,0c2.14323,0 3.67145,1.82793 3.67145,3.67145c0,4.41762 0,22.97964 0,30.74838c0,2.12463 -1.41016,3.44198 -3.44199,3.44198c-4.29303,0 -11.13198,0 -13.53846,0c-1.58556,0 -3.67145,-1.7767 -3.67145,-3.90091z" fill="#584b32"/><path d="M230.04289,197.29078c0,-7.6905 0,-25.4924 0,-30.05998c0,-2.0398 1.67764,-3.90091 3.67145,-3.90091c2.417,0 9.36387,0 13.309,0c2.14323,0 3.67145,1.82793 3.67145,3.67145c0,4.41762 0,22.97964 0,30.74838c0,2.12463 -1.41016,3.44198 -3.44198,3.44198c-4.29303,0 -11.13198,0 -13.53846,0c-1.58556,0 -3.67145,-1.7767 -3.67145,-3.90091z" fill="#68583b"/><path d="M230.04289,195.67552c0,-7.6905 0,-25.4924 0,-30.05998c0,-2.0398 1.67764,-3.90091 3.67145,-3.90091c2.417,0 9.36387,0 13.309,0c2.14323,0 3.67145,1.82793 3.67145,3.67145c0,4.41762 0,22.97964 0,30.74838c0,2.12463 -1.41016,3.44198 -3.44198,3.44198c-4.29303,0 -11.13198,0 -13.53847,0c-1.58556,0 -3.67145,-1.7767 -3.67145,-3.90091z" fill="#89744e"/><path d="M250.68345,166.92054v7.17178h-20.62923v-7.17178z" data-paper-data="{&quot;index&quot;:null}" fill="url(#color-14)"/><path d="M250.68345,182.73325v6.78411h-20.62923v-6.78411z" data-paper-data="{&quot;index&quot;:null}" fill="url(#color-15)"/><path d="M230.05421,183.5339v-5.81495h20.62923v5.81495z" fill="url(#color-16)"/><path d="M230.05422,199.04044v-5.81495h20.62923v5.81495z" fill="url(#color-17)"/><path d="M244.14855,202.77062c0,0 -0.32725,-9.98351 2.32598,-15.50654c2.18339,-4.54501 1.74449,15.50654 1.74449,15.50654z" fill-opacity="0.15294" fill="#000000"/><path d="M229.99883,191.72221v-25.19813c0,0 2.96981,5.99349 3.48897,8.14093c0.51916,2.14744 2.11364,6.42818 0.77533,13.18056c-1.33831,6.75238 -4.2643,3.87664 -4.2643,3.87664z" fill-opacity="0.15294" fill="#000000"/><path d="M233.10014,202.77062c0,0 0.77533,-10.12899 3.10131,-12.98673c4.67718,-5.74647 -3.10131,-27.91178 -3.10131,-27.91178h4.2643c0,0 -0.03378,1.14474 0.61576,5.65099c0.48935,1.54619 1.45164,4.02719 2.35814,6.26098c0.6847,1.68727 2.69988,-11.95875 2.69988,-11.95875c0,0 2.62923,-0.07956 3.62534,-0.03627c0.69839,0.03035 2.16969,0.65895 2.16969,0.65895c0,0 -1.36576,2.39466 -1.39061,7.5641c-0.03357,6.98559 0.71286,13.98171 -1.06043,13.72971c-2.43919,-0.34663 -0.463,-2.81565 -2.0955,-4.65556c-1.2814,-1.44421 -1.88263,1.3985 -1.88263,1.58754c0,7.90094 -2.1345,9.89881 -2.911,14.47095c-0.77415,4.55828 0.77885,7.62588 0.77885,7.62588z" fill-opacity="0.15294" fill="#000000"/><path d="M200.4,193.90001v-5.8h79.2v5.8z" fill="#42484e"/><path d="M200.4,177.90001v-5.8h79.2v5.8z" fill="#42484e"/><path d="M200.4,190.90001v-5.8h79.2v5.8z" fill="url(#color-18)"/><path d="M200.4,174.90001v-5.8h79.2v5.8z" fill="url(#color-19)"/><path d="M200.3,189.02917v-2.2h79.2v2.2z" fill-opacity="0.20392" fill="#000000"/><path d="M200.3,173.02917v-2.2h79.2v2.2z" fill-opacity="0.20392" fill="#000000"/></g></g></svg>