<svg version="1.1" xmlns="http://www.w3.org/2000/svg" xmlns:xlink="http://www.w3.org/1999/xlink" width="143.08686" height="151.13441" viewBox="0,0,143.08686,151.13441"><g transform="translate(-74.08039,-94.18281)"><g data-paper-data="{&quot;isPaintingLayer&quot;:true}" fill-rule="nonzero" stroke="none" stroke-linejoin="miter" stroke-miterlimit="10" stroke-dasharray="" stroke-dashoffset="0" style="mix-blend-mode: normal"><path d="M109.77771,151.36009v5.83056l-1.17835,-0.0306l-0.06121,-1.49972c-2.06085,-1.47932 -3.76972,-2.57095 -5.12661,-3.27491v18.01199l2.37201,0.0306v1.05593h-9.7329v-1.05593l2.37201,-0.0306v-18.01199c-1.36709,0.70395 -3.08106,1.79558 -5.14191,3.27491l-0.06121,1.49972l-1.16305,0.0306v-5.83056zM124.9652,170.61164v0.87229h-6.42739v-0.87229l1.11714,-0.09182v-6.33557c0,-0.87739 -0.24995,-1.55583 -0.74986,-2.03534c-0.48971,-0.4795 -1.16305,-0.72946 -2.02004,-0.74986l-0.99471,0.99471l-0.06121,8.12606l1.11714,0.09182v0.87229h-6.45799v-0.87229l1.11714,-0.09182l-0.15304,-17.98138l-1.14775,0.24485l-0.29076,-0.87229l5.5551,-1.68337l0.41319,0.71926l-0.09182,9.99305l2.43323,-3.47385c1.90781,0 3.31061,0.44889 4.20841,1.34669c0.8978,0.8978 1.34669,2.29039 1.34669,4.1778v7.52923zM132.79355,157.52732c1.76498,0 3.15248,0.63764 4.1625,1.91291c1.01002,1.26508 1.50482,2.97904 1.48442,5.14191l-8.27909,0.26015c0.13263,1.18346 0.54072,2.08635 1.22427,2.70868c0.68355,0.62233 1.58644,0.93351 2.70868,0.93351c1.56094,0 2.83111,-0.43359 3.81052,-1.30078l0.53562,0.4897c-0.69375,1.33649 -1.63746,2.38222 -2.83111,3.13718c-1.19366,0.74476 -2.45873,1.11714 -3.79522,1.11714c-1.82619,0 -3.27492,-0.60192 -4.34614,-1.80578c-1.07123,-1.21406 -1.60685,-2.85152 -1.60685,-4.91236c0,-1.22427 0.24484,-2.43324 0.73456,-3.62689c0.48971,-1.20386 1.11714,-2.20877 1.8823,-3.01474c0.52031,-0.29586 1.18856,-0.54073 2.00474,-0.73456c0.82638,-0.20404 1.59665,-0.30606 2.3108,-0.30606zM134.00251,163.58743c-0.0204,-1.3977 -0.22445,-2.50465 -0.61213,-3.32082c-0.37748,-0.82638 -0.9131,-1.32118 -1.60685,-1.48442c-0.49991,0.52031 -0.908,1.24977 -1.22427,2.18837c-0.30607,0.92841 -0.4591,1.88231 -0.4591,2.86172v0.09182zM160.14675,165.51564v5.96829h-15.21148v-1.05593l1.46911,-0.0306v-17.95077l-1.46911,-0.03061v-1.05593h14.61465v5.83056l-1.16305,-0.0306l-0.06121,-1.49972c-2.22408,-1.37729 -4.53998,-2.54034 -6.9477,-3.48916l0.06121,8.3556h5.61632v1.10184h-5.61632l0.06121,9.01365c2.56075,-0.97941 5.03479,-2.17817 7.42211,-3.59628l0.06121,-1.49972zM176.31345,170.61164v0.87229h-6.42739v-0.87229l1.10184,-0.09182v-6.33557c0,-0.87739 -0.24484,-1.55583 -0.73456,-2.03534c-0.48971,-0.4795 -1.16305,-0.72946 -2.02004,-0.74986l-0.96412,0.99471l-0.12243,8.12606l1.11714,0.09182v0.87229h-6.45799v-0.87229l1.10184,-0.09182l-0.07652,-10.74292l-1.14775,0.26015l-0.30607,-0.88759l4.74403,-1.48442l1.05593,3.36673l2.49444,-3.56567c1.89761,0 3.29531,0.44889 4.1931,1.34669c0.908,0.8978 1.362,2.29039 1.362,4.1778v7.52923zM192.09429,169.41798l-4.37674,2.37201c-0.54072,-0.32647 -0.93861,-0.75497 -1.19366,-1.28548c-0.24485,-0.53051 -0.38769,-1.21406 -0.4285,-2.05064l-2.96884,3.47384c-1.16305,0 -2.19347,-0.26526 -3.09126,-0.79577c-0.8876,-0.53051 -1.58134,-1.25997 -2.08125,-2.18837c-0.49991,-0.92841 -0.74986,-1.98433 -0.74986,-3.16778c0,-1.02022 0.16834,-2.10166 0.50501,-3.2443c0.34688,-1.14265 0.76007,-2.03024 1.23957,-2.66277c0.37748,-0.54072 1.06613,-1.06613 2.06595,-1.57624c0.99981,-0.51012 1.84149,-0.76516 2.52504,-0.76516c0.60193,0 1.42321,0.09693 2.46384,0.29076l-0.06121,-5.27964l-1.13245,0.24485l-0.30606,-0.87229l5.55509,-1.68337l0.41319,0.71926l-0.16834,15.54815c0,0.72436 0.03571,1.26508 0.10712,1.62215c0.08162,0.34688 0.22445,0.64784 0.4285,0.9029l0.90289,-0.41319zM181.53502,163.97001c0,0.92841 0.14793,1.73438 0.44379,2.41792c0.30607,0.67334 0.70395,1.19366 1.19366,1.56094c0.48971,0.35708 1.01511,0.53562 1.57624,0.53562l1.3467,-1.3467l-0.06121,-6.07541c-1.30589,-0.62233 -2.55565,-1.04062 -3.74931,-1.25487c-0.49991,1.14265 -0.74986,2.53015 -0.74986,4.1625zM193.27519,167.88765l4.37674,-0.99471v4.25432l-4.37674,0.67334z" fill="#000000" stroke-width="1" stroke-linecap="square"/><path d="M82.62901,182.38785v2.81263l-0.56843,-0.01477l-0.02953,-0.72346c-0.99414,-0.71362 -1.81849,-1.24022 -2.47305,-1.5798v8.68889l1.14424,0.01476v0.50937h-4.69509v-0.50937l1.14425,-0.01476v-8.68889c-0.65948,0.33958 -1.48629,0.86619 -2.48043,1.5798l-0.02953,0.72346l-0.56105,0.01477v-2.81263zM89.95536,191.6747v0.42079h-3.10054v-0.42079l0.5389,-0.04429v-3.05625c0,-0.42325 -0.12057,-0.75053 -0.36173,-0.98183c-0.23623,-0.23131 -0.56105,-0.35189 -0.97445,-0.36173l-0.47984,0.47985l-0.02953,3.91997l0.5389,0.04429v0.42079h-3.1153v-0.42079l0.53891,-0.04429l-0.07382,-8.67412l-0.55367,0.11812l-0.14026,-0.42078l2.67975,-0.81204l0.19932,0.34697l-0.04429,4.82059l1.17377,-1.67577c0.92032,0 1.59702,0.21655 2.03011,0.64963c0.43309,0.43309 0.64963,1.10488 0.64963,2.01535v3.63206zM96.27121,191.3425l-2.13347,0.9966c-0.26084,-0.18209 -0.43801,-0.43309 -0.53152,-0.75299c-0.34942,0.21162 -0.70131,0.38388 -1.05566,0.51676c-0.34942,0.1378 -0.65456,0.2067 -0.9154,0.2067c-0.39864,0 -0.72346,-0.1378 -0.97445,-0.4134c-0.25099,-0.28052 -0.3765,-0.63979 -0.3765,-1.07781c0,-0.19194 0.02215,-0.40111 0.06644,-0.62749c0.04429,-0.22639 0.10089,-0.40848 0.16979,-0.54628l3.07101,-0.48723l0.02953,-0.42078c0.01969,-0.43309 -0.07382,-0.77267 -0.28052,-1.01875c-0.20178,-0.25099 -0.52906,-0.37649 -0.98184,-0.37649c-0.20178,0 -0.41341,0.02215 -0.63487,0.06644c-0.22147,0.04429 -0.41094,0.10089 -0.56843,0.16979l-0.22885,0.49461l-0.39126,-0.14764l0.6644,-2.08917c0.74314,-0.31498 1.44692,-0.47247 2.11132,-0.47247c0.68901,0 1.25006,0.1821 1.68314,0.54629c0.43309,0.35927 0.64964,0.92524 0.64964,1.69791l-0.01477,0.28791l-0.14026,1.95629l-0.02953,0.52414c0,0.17225 0.01476,0.31005 0.04429,0.4134c0.02953,0.09843 0.07629,0.20178 0.14027,0.31006l0.45032,-0.17717zM92.97873,191.26868c0.15749,0 0.33712,-0.05659 0.5389,-0.16979l-0.01477,-0.31006l0.01477,-0.31743l0.0443,-0.82681l-1.11472,0.26576c-0.03937,0.12304 -0.05906,0.29037 -0.05906,0.50199c0,0.29037 0.0566,0.50691 0.16979,0.64964c0.11812,0.1378 0.25838,0.20671 0.42078,0.20671zM103.63073,191.6747v0.42079h-3.10054v-0.42079l0.53152,-0.04429v-3.05625c0,-0.42325 -0.11812,-0.75053 -0.35435,-0.98183c-0.23623,-0.23131 -0.56105,-0.35189 -0.97445,-0.36173l-0.46508,0.47985l-0.05906,3.91997l0.5389,0.04429v0.42079h-3.11531v-0.42079l0.53152,-0.04429l-0.03691,-5.18232l-0.55367,0.1255l-0.14764,-0.42817l2.28849,-0.71608l0.50937,1.62409l1.20331,-1.72006c0.9154,0 1.58965,0.21655 2.02273,0.64963c0.43801,0.43309 0.65702,1.10488 0.65702,2.01535v3.63206zM111.27285,191.08412l-2.02273,1.18854c-0.61026,-0.49707 -1.10979,-1.2599 -1.49859,-2.28849l-0.15503,-0.45032l-0.94492,0.40602l-0.01476,1.69053l0.5389,0.04429v0.42079h-3.1153v-0.42079l0.5389,-0.04429l-0.07382,-8.67412l-0.55367,0.11812l-0.14026,-0.42078l2.67974,-0.81204l0.19932,0.34697l-0.04429,5.41856l1.92677,-2.28849c0.67917,0.19194 1.17869,0.52906 1.49859,1.01137c0.32482,0.48231 0.48723,1.12456 0.48723,1.92677l-1.31403,0.56843l0.08121,0.16979c0.15749,0.36911 0.36665,0.72838 0.62749,1.0778c0.26084,0.3445 0.51183,0.60781 0.75298,0.7899l0.39126,-0.21408zM106.65158,189.40098l1.95629,-0.93017c0,-0.21163 -0.08121,-0.44293 -0.24362,-0.69393c-0.15749,-0.25099 -0.34697,-0.40357 -0.56843,-0.4577l-1.12948,0.98184zM120.80228,185.57698v0.46508l-0.42078,0.01476l-1.83817,4.27432c-0.50199,1.18608 -1.02121,2.27126 -1.55765,3.25557c-0.53152,0.9843 -1.01629,1.76681 -1.4543,2.34755l-1.70529,-1.62409c1.19592,-0.68409 2.26634,-1.43707 3.21127,-2.25896l-0.79728,0.0443l-2.22943,-6.03867l-0.42078,-0.01476v-0.46508h3.43273v0.46508l-0.60534,0.01476l1.31404,4.42934l1.18853,-4.42934l-0.60534,-0.01476v-0.46508zM124.21991,185.3629c0.96954,0 1.74713,0.28545 2.33279,0.85634c0.59058,0.56597 0.88587,1.37556 0.88587,2.42875c0,0.45278 -0.08121,0.92032 -0.24362,1.40262c-0.15749,0.48231 -0.39126,0.90801 -0.70131,1.27712c-0.30513,0.30021 -0.6644,0.5389 -1.07781,0.71608c-0.40848,0.17717 -0.83911,0.26576 -1.29189,0.26576c-0.96461,0 -1.74221,-0.28298 -2.33279,-0.84895c-0.59058,-0.5709 -0.88587,-1.38294 -0.88587,-2.43614c0,-0.44293 0.08121,-0.90555 0.24362,-1.38786c0.16734,-0.48231 0.40602,-0.90801 0.71608,-1.27712c0.30513,-0.30021 0.66194,-0.54136 1.07042,-0.72346c0.41341,-0.18209 0.84157,-0.27315 1.28451,-0.27315zM122.99446,188.33055c0,0.9154 0.17964,1.60194 0.5389,2.05964c0.36419,0.45277 0.89818,0.72099 1.60195,0.80467c0.06891,-0.29037 0.12058,-0.61272 0.15503,-0.96707c0.03937,-0.35927 0.05906,-0.65455 0.05906,-0.88587c0,-0.92524 -0.18209,-1.61178 -0.54629,-2.05964c-0.35927,-0.45278 -0.88587,-0.721 -1.57979,-0.80467c-0.06891,0.30021 -0.1255,0.62995 -0.16979,0.98922c-0.03937,0.35434 -0.05906,0.64226 -0.05906,0.86372zM135.18811,191.12842l-2.01535,1.14425c-0.31005,-0.16734 -0.53644,-0.39372 -0.67917,-0.67917c-0.14272,-0.28544 -0.21408,-0.64963 -0.21408,-1.09257l-1.2476,1.80864c-0.91048,0 -1.58226,-0.219 -2.01535,-0.65702c-0.43309,-0.43801 -0.64964,-1.11718 -0.64964,-2.0375v-3.573l-0.5389,-0.04429v-0.42078h2.5764v3.46227c0,0.43309 0.1132,0.76775 0.33958,1.00398c0.23131,0.23623 0.53398,0.35927 0.90801,0.36911l0.62749,-0.57581v-3.79447l-0.52414,-0.04429v-0.42078h2.56163v4.08237c0,0.35927 0.02215,0.62749 0.06644,0.80466c0.04429,0.17226 0.1132,0.3199 0.20671,0.44294l0.43555,-0.21408zM139.76294,182.76435c0.05906,0.44786 0.18701,0.96461 0.38388,1.55027c0.19686,0.58074 0.37895,1.00152 0.54628,1.26236h1.26974v0.61272l-1.25498,-0.04429l-0.02953,5.485l1.11472,0.04429v0.42079h-3.69112v-0.42079l0.53152,-0.04429l-0.02953,-5.51453h-0.81204v-0.5389h0.76776c-0.07382,-0.26084 -0.14273,-0.57335 -0.20671,-0.93754c-0.06398,-0.36912 -0.09597,-0.68409 -0.09597,-0.94492c0,-0.18209 0.00492,-0.31743 0.01477,-0.40602c0.08858,-0.25099 0.25099,-0.47984 0.48723,-0.68655c0.23623,-0.20671 0.50199,-0.36911 0.79728,-0.48723c0.29529,-0.12304 0.56843,-0.18456 0.81943,-0.18456c0.42325,0 0.84896,0.06644 1.27712,0.19932c0.43309,0.12796 0.81697,0.29775 1.15163,0.50937l-1.20331,1.72006c-0.22147,-0.25099 -0.50691,-0.52413 -0.85633,-0.81943c-0.3445,-0.30021 -0.67178,-0.55859 -0.98184,-0.77513zM145.32291,185.3629c0.96954,0 1.74714,0.28545 2.33279,0.85634c0.59058,0.56597 0.88587,1.37556 0.88587,2.42875c0,0.45278 -0.0812,0.92032 -0.24361,1.40262c-0.15749,0.48231 -0.39126,0.90801 -0.70132,1.27712c-0.30513,0.30021 -0.6644,0.5389 -1.07781,0.71608c-0.40848,0.17717 -0.83911,0.26576 -1.29188,0.26576c-0.96461,0 -1.74221,-0.28298 -2.33279,-0.84895c-0.59058,-0.5709 -0.88587,-1.38294 -0.88587,-2.43614c0,-0.44293 0.0812,-0.90555 0.24361,-1.38786c0.16734,-0.48231 0.40602,-0.90801 0.71608,-1.27712c0.30513,-0.30021 0.66194,-0.54136 1.07042,-0.72346c0.41341,-0.18209 0.84157,-0.27315 1.28451,-0.27315zM144.09746,188.33055c0,0.9154 0.17964,1.60194 0.53891,2.05964c0.36419,0.45277 0.89817,0.72099 1.60194,0.80467c0.06891,-0.29037 0.12058,-0.61272 0.15503,-0.96707c0.03937,-0.35927 0.05906,-0.65455 0.05906,-0.88587c0,-0.92524 -0.1821,-1.61178 -0.54629,-2.05964c-0.35927,-0.45278 -0.88587,-0.721 -1.57979,-0.80467c-0.06891,0.30021 -0.1255,0.62995 -0.16979,0.98922c-0.03937,0.35434 -0.05906,0.64226 -0.05906,0.86372zM151.64169,187.5628l-0.05906,4.06762l1.29189,0.04429v0.42079h-3.86829v-0.42079l0.53152,-0.04429l-0.03691,-5.18232l-0.55367,0.1255l-0.14764,-0.42817l2.28849,-0.71608l0.49461,1.55027c0.3199,-0.64471 0.66686,-1.14671 1.0409,-1.50597c0.21655,-0.07382 0.47247,-0.11073 0.76775,-0.11073c0.40848,0 0.7899,0.07136 1.14425,0.21409l-0.4577,1.88247c-0.28052,-0.05906 -0.63979,-0.11073 -1.07781,-0.15503c-0.43309,-0.04922 -0.7899,-0.08366 -1.07042,-0.10335zM161.09573,185.3629c0.56105,0 1.05566,0.12796 1.48383,0.38388c0.43309,0.25592 0.76775,0.60781 1.00398,1.05566c0.23623,0.44786 0.35434,0.95723 0.35434,1.52812c0,0.49215 -0.0812,1.01629 -0.24361,1.57242c-0.15749,0.55612 -0.35189,0.98184 -0.58319,1.27712c-0.18209,0.26084 -0.51429,0.51429 -0.9966,0.76037c-0.48231,0.24607 -0.88833,0.36911 -1.21807,0.36911c-0.24115,0 -0.63241,-0.04183 -1.17377,-0.1255l0.02953,3.07101l1.11472,0.04429v0.42078h-3.83876v-0.42078l0.5389,-0.04429l0.07382,-8.83652l-0.55367,0.13288l-0.14765,-0.43556l2.25158,-0.70869l0.4577,1.64623zM161.50175,191.20962c0.24115,-0.55121 0.36173,-1.22053 0.36173,-2.00797c0,-0.44786 -0.07137,-0.8342 -0.21409,-1.15901c-0.14272,-0.32974 -0.33466,-0.58074 -0.57582,-0.75298c-0.23623,-0.17717 -0.48723,-0.26576 -0.75298,-0.26576l-0.64225,0.64226l0.02953,2.93812c0.63979,0.30021 1.23775,0.502 1.79388,0.60535zM164.42942,191.6747l0.53891,-0.04429l-0.07382,-8.67412l-0.55367,0.11812l-0.14027,-0.42078l2.67975,-0.81204l0.19932,0.34697l-0.07382,9.44187l0.5389,0.04429v0.42079h-3.11531zM173.8906,191.3425l-2.13346,0.9966c-0.26084,-0.18209 -0.43801,-0.43309 -0.53152,-0.75299c-0.34942,0.21162 -0.70131,0.38388 -1.05566,0.51676c-0.34942,0.1378 -0.65455,0.2067 -0.9154,0.2067c-0.39864,0 -0.72346,-0.1378 -0.97445,-0.4134c-0.25099,-0.28052 -0.3765,-0.63979 -0.3765,-1.07781c0,-0.19194 0.02215,-0.40111 0.06644,-0.62749c0.04429,-0.22639 0.10089,-0.40848 0.16979,-0.54628l3.071,-0.48723l0.02953,-0.42078c0.01969,-0.43309 -0.07382,-0.77267 -0.28052,-1.01875c-0.20178,-0.25099 -0.52905,-0.37649 -0.98183,-0.37649c-0.20178,0 -0.41341,0.02215 -0.63487,0.06644c-0.22147,0.04429 -0.41094,0.10089 -0.56843,0.16979l-0.22885,0.49461l-0.39126,-0.14764l0.6644,-2.08917c0.74314,-0.31498 1.44692,-0.47247 2.11132,-0.47247c0.68901,0 1.25006,0.1821 1.68315,0.54629c0.43309,0.35927 0.64964,0.92524 0.64964,1.69791l-0.01477,0.28791l-0.14027,1.95629l-0.02953,0.52414c0,0.17225 0.01477,0.31005 0.0443,0.4134c0.02953,0.09843 0.07629,0.20178 0.14027,0.31006l0.45032,-0.17717zM170.59813,191.26868c0.15749,0 0.33712,-0.05659 0.5389,-0.16979l-0.01476,-0.31006l0.01476,-0.31743l0.04429,-0.82681l-1.11472,0.26576c-0.03937,0.12304 -0.05906,0.29037 -0.05906,0.50199c0,0.29037 0.05659,0.50691 0.16978,0.64964c0.11812,0.1378 0.25838,0.20671 0.42079,0.20671zM180.98299,185.57698v0.46508l-0.42079,0.01476l-1.83817,4.27432c-0.50199,1.18608 -1.02121,2.27126 -1.55765,3.25557c-0.53152,0.9843 -1.01629,1.76681 -1.4543,2.34755l-1.70529,-1.62409c1.19592,-0.68409 2.26634,-1.43707 3.21127,-2.25896l-0.79728,0.0443l-2.22943,-6.03867l-0.42079,-0.01476v-0.46508h3.43273v0.46508l-0.60534,0.01476l1.31404,4.42934l1.18853,-4.42934l-0.60534,-0.01476v-0.46508zM181.89805,182.52074l1.85294,-0.42078v1.65362l-1.85293,0.27314zM183.89863,191.63041l0.53152,0.04429v0.42079h-3.10792v-0.42079l0.53152,-0.04429l-0.04429,-5.1528l-0.54629,0.11073l-0.14764,-0.41341l2.62069,-0.81204l0.2067,0.34697zM192.12762,191.6747v0.42079h-3.10054v-0.42079l0.53152,-0.04429v-3.05625c0,-0.42325 -0.11811,-0.75053 -0.35434,-0.98183c-0.23623,-0.23131 -0.56105,-0.35189 -0.97445,-0.36173l-0.46508,0.47985l-0.05906,3.91997l0.5389,0.04429v0.42079h-3.1153v-0.42079l0.53152,-0.04429l-0.03692,-5.18232l-0.55367,0.1255l-0.14764,-0.42817l2.28848,-0.71608l0.50937,1.62409l1.2033,-1.72006c0.9154,0 1.58964,0.21655 2.02273,0.64963c0.43801,0.43309 0.65702,1.10488 0.65702,2.01535v3.63206zM196.90545,191.28345c0.54136,0.03937 1.00152,0.15256 1.38048,0.33958c0.38388,0.18209 0.68162,0.42079 0.89325,0.71608c-0.18209,0.5512 -0.47492,1.09257 -0.87848,1.62409c-0.39864,0.53152 -0.88095,0.96707 -1.44692,1.30665c-0.56597,0.3445 -1.17131,0.51676 -1.81603,0.51676c-0.62995,0 -1.13687,-0.15749 -1.52074,-0.47247c-0.37896,-0.31005 -0.56843,-0.70624 -0.56843,-1.18854c0,-0.40848 0.10089,-0.86864 0.30267,-1.38048c-0.3445,-0.16241 -0.63241,-0.45524 -0.86372,-0.87848l1.46168,-1.63886c-0.36911,-0.20178 -0.65702,-0.47492 -0.86372,-0.81943c-0.20671,-0.3445 -0.31005,-0.72838 -0.31005,-1.15163c0,-0.39371 0.0812,-0.78252 0.24361,-1.16639c0.16734,-0.3888 0.37649,-0.71854 0.62749,-0.98922c0.24115,-0.20178 0.56598,-0.37404 0.97446,-0.51676c0.40848,-0.14765 0.84157,-0.22147 1.29927,-0.22147c0.32482,0 0.60781,0.032 0.84896,0.09597l1.20331,-2.0375c0.19194,-0.03937 0.39618,-0.05906 0.61272,-0.05906c0.40356,0 0.79482,0.0812 1.17377,0.24361l-1.01874,1.88247c-0.31005,-0.12304 -0.61273,-0.18456 -0.90802,-0.18456c-0.09843,0 -0.22392,0.00984 -0.37649,0.02953l-0.22147,0.28791c0.43309,0.19194 0.77513,0.47247 1.02613,0.84157c0.25099,0.36419 0.37649,0.78744 0.37649,1.26974c0,0.37896 -0.08366,0.75545 -0.25099,1.12948c-0.16734,0.36911 -0.37157,0.70377 -0.61272,1.00398c-0.24115,0.21163 -0.56843,0.3888 -0.98183,0.53152c-0.40848,0.1378 -0.83419,0.2067 -1.27712,0.2067c-0.42817,0 -0.81943,-0.0689 -1.17377,-0.2067l-0.3322,0.40602c0.05413,0.08859 0.17717,0.16733 0.36911,0.23623c0.19686,0.06891 0.43063,0.10581 0.70132,0.11073zM196.62493,188.2715c0,-0.60042 -0.15503,-1.06796 -0.46508,-1.40262c-0.30513,-0.33958 -0.73822,-0.54874 -1.29927,-0.62748c-0.18209,0.53152 -0.27314,1.02367 -0.27314,1.47644c0,0.58074 0.15257,1.04089 0.4577,1.38048c0.31005,0.33958 0.75053,0.54629 1.32142,0.62011c0.17225,-0.45277 0.25838,-0.93508 0.25838,-1.44692zM195.83503,194.26586c0.28544,0 0.56843,-0.03199 0.84896,-0.09597c0.28052,-0.05906 0.51676,-0.13288 0.70869,-0.22147c0.19686,-0.08859 0.31498,-0.16486 0.35435,-0.22884c-0.05906,-0.1378 -0.23131,-0.27315 -0.51676,-0.40602c-0.28544,-0.12796 -0.68409,-0.2067 -1.19592,-0.23623l-1.60932,-0.08121c-0.18209,-0.00984 -0.40356,-0.03445 -0.6644,-0.07382c0.04921,0.38388 0.25838,0.70377 0.62748,0.95969c0.37403,0.25592 0.85634,0.38388 1.44692,0.38388zM199.96321,183.01535l2.54687,-0.79728l-0.50937,6.14202l-1.63886,0.31743zM200.17729,190.36066l2.11132,-0.47985v2.05226l-2.11132,0.32482zM205.85425,186.9427v0.53152l3.48441,1.91199l0.53891,-0.52413l-3.41797,-1.64624l3.41797,-1.77173l-0.53891,-0.51676zM214.42844,186.43331c0.53152,0 1.00399,0.10335 1.41739,0.31006c0.41833,0.2067 0.74314,0.49707 0.97445,0.87111c0.23131,0.36911 0.34697,0.78497 0.34697,1.24759c0,0.59058 -0.17963,1.15163 -0.5389,1.68314c-0.35435,0.53152 -0.8588,0.95969 -1.51336,1.28451c-0.64964,0.3199 -1.39524,0.47984 -2.23682,0.47984c-0.39371,0 -0.78497,-0.04183 -1.17377,-0.1255c-0.38388,-0.07874 -0.72591,-0.18948 -1.02613,-0.3322l0.64963,-1.80127c1.24514,0.62011 2.47304,1.03105 3.68373,1.23283c0.09351,-0.31005 0.14026,-0.63241 0.14026,-0.96707c0,-0.78252 -0.30267,-1.36572 -0.90801,-1.74959c-0.60042,-0.3888 -1.56749,-0.56843 -2.90122,-0.5389v-0.45032l3.35892,-3.23342l-3.35892,0.59796l-0.04429,0.56105h-0.4577v-3.1153h5.92055v1.55027l-3.59515,2.66499c0.40848,-0.1132 0.82926,-0.16979 1.26236,-0.16979z" fill="#000000" stroke-width="1" stroke-linecap="square"/><path d="M142.29191,244.10222c-1.40914,-2.76051 -6.11316,-11.97568 -6.11316,-11.97568c0,0 4.93696,-9.6715 6.31775,-12.37647c0.67346,-1.31931 2.26637,-1.44854 2.90243,-0.20248c1.36244,2.66902 6.42111,12.57895 6.42111,12.57895c0,0 -4.8796,9.55914 -6.26819,12.27939c-0.69106,1.35377 -2.51521,1.15522 -3.25994,-0.30371z" fill="#ddd8cf" stroke-width="0" stroke-linecap="butt"/><path d="M147.7494,245.11884c0,0 11.52303,-0.42948 13.75,-6c0.90682,-2.34722 -0.7784,-3.66228 -2.43223,-3.92561c-1.29348,-0.20594 -2.56777,0.42561 -2.56777,0.42561c0,0 2.13507,-5.7086 7.66002,-2.15143c5.11542,3.2935 2.36076,11.49649 -5.66002,11.65143c-5.39482,0.10422 -10.75,0 -10.75,0z" fill="#ddd8cf" stroke-width="0" stroke-linecap="butt"/><path d="M129.5006,245.11884c-8.02078,-0.15495 -10.77544,-8.35793 -5.66002,-11.65143c5.52495,-3.55717 7.66002,2.15143 7.66002,2.15143c0,0 -1.27429,-0.63155 -2.56777,-0.42561c-1.65383,0.26332 -3.33905,1.57839 -2.43223,3.92561c2.22697,5.57052 13.75,6 13.75,6c0,0 -5.35518,0.10422 -10.75,0z" data-paper-data="{&quot;index&quot;:null}" fill="#ddd8cf" stroke-width="0" stroke-linecap="butt"/><path d="M142.29191,119.60223c-1.40914,-2.76051 -6.11316,-11.97568 -6.11316,-11.97568c0,0 4.93696,-9.6715 6.31776,-12.37648c0.67346,-1.31931 2.26637,-1.44853 2.90243,-0.20247c1.36244,2.66902 6.4211,12.57895 6.4211,12.57895c0,0 -4.8796,9.55914 -6.26819,12.27939c-0.69106,1.35377 -2.51521,1.15522 -3.25994,-0.30371z" fill="#ddd8cf" stroke-width="0" stroke-linecap="butt"/><path d="M147.7494,120.61883c0,0 11.52303,-0.42948 13.75,-6c0.90682,-2.34722 -0.7784,-3.66228 -2.43223,-3.92561c-1.29348,-0.20594 -2.56776,0.42561 -2.56776,0.42561c0,0 2.13507,-5.70861 7.66002,-2.15144c5.11543,3.2935 2.36076,11.49649 -5.66002,11.65144c-5.39483,0.10422 -10.75,0 -10.75,0z" fill="#ddd8cf" stroke-width="0" stroke-linecap="butt"/><path d="M129.5006,120.61884c-8.02078,-0.15495 -10.77544,-8.35793 -5.66002,-11.65144c5.52495,-3.55717 7.66002,2.15144 7.66002,2.15144c0,0 -1.27429,-0.63155 -2.56777,-0.42561c-1.65383,0.26332 -3.33904,1.57839 -2.43223,3.92561c2.22697,5.57052 13.75,6 13.75,6c0,0 -5.35518,0.10422 -10.75,0z" data-paper-data="{&quot;index&quot;:null}" fill="#ddd8cf" stroke-width="0" stroke-linecap="butt"/></g></g></svg>