<svg version="1.1" xmlns="http://www.w3.org/2000/svg" xmlns:xlink="http://www.w3.org/1999/xlink" width="78.72002" height="24.15802" viewBox="0,0,78.72002,24.15802"><g transform="translate(-198.89676,-168.86216)"><g data-paper-data="{&quot;isPaintingLayer&quot;:true}" fill-rule="nonzero" stroke="none" stroke-linejoin="miter" stroke-miterlimit="10" stroke-dasharray="" stroke-dashoffset="0" style="mix-blend-mode: normal"><path d="M202.933,174.4019l4.41739,-0.99978v4.11133l-4.41739,0.66312zM207.61563,190.75542l0.96917,0.08161v1.79552h-6.7026v-1.79552l0.96917,-0.08161l-0.07141,-8.13085l-0.81615,0.16323l-0.60191,-1.72411l5.67221,-1.75471l0.66312,1.1222z" fill-opacity="0.06667" fill="#000000" stroke-width="1" stroke-linecap="square"/><path d="M235.2239,191.71439l1.28543,-0.0204v-15.61899l-1.28543,-0.03061v-0.90796h6.89643v0.90796l-1.27523,0.03061v15.61899l1.27523,0.0204v0.91816h-6.89643zM256.45553,191.87762v0.75493h-5.5906v-0.75493l0.96917,-0.08161v-5.50898c0,-0.76854 -0.21424,-1.36024 -0.64271,-1.77512c-0.42168,-0.42168 -1.00658,-0.63931 -1.75471,-0.65292l-0.83655,0.85695l-0.11222,7.08006l0.96917,0.08161v0.75493h-5.611v-0.75493l0.96917,-0.08161l-0.08161,-9.34487l-0.98958,0.23464l-0.26525,-0.78554l4.12154,-1.28543l0.91816,2.92792l2.17299,-3.11156c1.65269,0 2.87011,0.39447 3.65225,1.18341c0.78214,0.78214 1.17321,1.99276 1.17321,3.63185v6.54957zM260.45299,175.80975c0.10202,0.80254 0.32986,1.73091 0.68352,2.7851c0.36046,1.05419 0.69032,1.81592 0.98958,2.28521h2.29541v1.1018l-2.2648,-0.08161l-0.06121,9.89577l2.01996,0.08161v0.75493h-6.66179v-0.75493l0.95897,-0.08161l-0.05101,-9.94678h-1.45886v-0.96917h1.38745c-0.14283,-0.46928 -0.27205,-1.03378 -0.38767,-1.6935c-0.10882,-0.66652 -0.16323,-1.23442 -0.16323,-1.7037c0,-0.32646 0.0068,-0.5679 0.0204,-0.72433c0.15643,-0.45568 0.44888,-0.87056 0.87736,-1.24462c0.42848,-0.37407 0.90796,-0.66992 1.43846,-0.88756c0.53049,-0.21764 1.02358,-0.32646 1.47926,-0.32646c0.76174,0 1.53027,0.11902 2.30561,0.35706c0.77534,0.23124 1.46906,0.5373 2.08117,0.91816l-2.17299,3.11156c-0.40127,-0.45568 -0.91476,-0.95217 -1.54047,-1.48947c-0.62571,-0.5373 -1.21742,-0.99978 -1.77512,-1.38745zM270.48749,180.49235c1.74111,0 3.14216,0.51349 4.20315,1.54047c1.06099,1.02698 1.59148,2.48924 1.59148,4.38678c0,0.81615 -0.14623,1.6595 -0.43868,2.53005c-0.28565,0.87056 -0.70733,1.63569 -1.26503,2.29541c-0.5509,0.5441 -1.19701,0.97597 -1.93835,1.29563c-0.74133,0.31966 -1.52007,0.47949 -2.33622,0.47949c-1.74111,0 -3.14556,-0.51349 -4.21335,-1.54047c-1.06099,-1.02698 -1.59148,-2.48924 -1.59148,-4.38678c0,-0.79574 0.14623,-1.62889 0.43868,-2.49945c0.29925,-0.87056 0.72773,-1.63909 1.28543,-2.30561c0.5577,-0.5373 1.20722,-0.96917 1.94855,-1.29563c0.74133,-0.33326 1.51327,-0.49989 2.31581,-0.49989zM268.2635,185.83814c0,1.6595 0.32646,2.89732 0.97937,3.71346c0.65292,0.81615 1.61529,1.30243 2.88712,1.45886c0.12242,-0.52369 0.21764,-1.1052 0.28565,-1.74451c0.06801,-0.64612 0.10202,-1.17661 0.10202,-1.59148c0,-1.6731 -0.32646,-2.91432 -0.97937,-3.72366c-0.65292,-0.80934 -1.60509,-1.29223 -2.85651,-1.44866c-0.12242,0.5373 -0.22444,1.129 -0.30605,1.77512c-0.07481,0.64612 -0.11222,1.16641 -0.11222,1.56088z" fill-opacity="0.06667" fill="#000000" stroke-width="1" stroke-linecap="square"/><path d="M198.89676,192.0656v-23.20344h78.72002v23.20344z" fill-opacity="0.06667" fill="#000000" stroke-width="0" stroke-linecap="butt"/><path d="M202.79544,171.48599l4.41739,-0.99978v4.11133l-4.41739,0.66312zM207.47807,187.8395l0.96917,0.08161v1.79552h-6.7026v-1.79552l0.96917,-0.08161l-0.07141,-8.13085l-0.81615,0.16323l-0.60191,-1.72411l5.67221,-1.75471l0.66312,1.1222z" fill="#f1f6ff" stroke-width="1" stroke-linecap="square"/><path d="M235.08634,188.79849l1.28543,-0.0204v-15.61899l-1.28543,-0.03061v-0.90796h6.89643v0.90796l-1.27523,0.03061v15.61899l1.27523,0.0204v0.91816h-6.89643zM256.31797,188.96173v0.75493h-5.5906v-0.75493l0.96917,-0.08161v-5.50898c0,-0.76854 -0.21424,-1.36024 -0.64271,-1.77512c-0.42168,-0.42168 -1.00658,-0.63931 -1.75471,-0.65292l-0.83655,0.85695l-0.11222,7.08006l0.96917,0.08161v0.75493h-5.611v-0.75493l0.96917,-0.08161l-0.08161,-9.34487l-0.98958,0.23464l-0.26525,-0.78554l4.12154,-1.28543l0.91816,2.92792l2.17299,-3.11156c1.65269,0 2.87011,0.39447 3.65225,1.18341c0.78214,0.78214 1.17321,1.99276 1.17321,3.63185v6.54957zM260.31543,172.89385c0.10202,0.80254 0.32986,1.73091 0.68352,2.7851c0.36046,1.05419 0.69032,1.81592 0.98958,2.28521h2.29541v1.1018l-2.2648,-0.08161l-0.06121,9.89577l2.01996,0.08161v0.75493h-6.66179v-0.75493l0.95897,-0.08161l-0.05101,-9.94678h-1.45886v-0.96917h1.38745c-0.14283,-0.46928 -0.27205,-1.03378 -0.38767,-1.6935c-0.10882,-0.66652 -0.16323,-1.23442 -0.16323,-1.7037c0,-0.32646 0.0068,-0.5679 0.0204,-0.72433c0.15643,-0.45568 0.44888,-0.87056 0.87736,-1.24462c0.42848,-0.37407 0.90796,-0.66992 1.43846,-0.88756c0.53049,-0.21764 1.02358,-0.32646 1.47926,-0.32646c0.76174,0 1.53027,0.11902 2.30561,0.35706c0.77534,0.23124 1.46906,0.5373 2.08117,0.91816l-2.17299,3.11156c-0.40127,-0.45568 -0.91476,-0.95217 -1.54047,-1.48947c-0.62571,-0.5373 -1.21742,-0.99978 -1.77512,-1.38745zM270.34993,177.57649c1.74111,0 3.14216,0.51349 4.20315,1.54047c1.06099,1.02698 1.59148,2.48924 1.59148,4.38678c0,0.81615 -0.14623,1.6595 -0.43868,2.53005c-0.28565,0.87056 -0.70733,1.63569 -1.26503,2.29541c-0.5509,0.5441 -1.19701,0.97597 -1.93835,1.29563c-0.74133,0.31966 -1.52007,0.47949 -2.33622,0.47949c-1.74111,0 -3.14556,-0.51349 -4.21335,-1.54047c-1.06099,-1.02698 -1.59148,-2.48924 -1.59148,-4.38678c0,-0.79574 0.14623,-1.62889 0.43868,-2.49945c0.29925,-0.87056 0.72773,-1.63909 1.28543,-2.30561c0.5577,-0.5373 1.20722,-0.96917 1.94855,-1.29563c0.74133,-0.33326 1.51327,-0.49989 2.31581,-0.49989zM268.12594,182.92224c0,1.6595 0.32646,2.89732 0.97937,3.71346c0.65292,0.81615 1.61529,1.30243 2.88712,1.45886c0.12242,-0.52369 0.21764,-1.1052 0.28565,-1.74451c0.06801,-0.64612 0.10202,-1.17661 0.10202,-1.59148c0,-1.6731 -0.32646,-2.91432 -0.97937,-3.72366c-0.65292,-0.80934 -1.60509,-1.29223 -2.85651,-1.44866c-0.12242,0.5373 -0.22444,1.129 -0.30605,1.77512c-0.07481,0.64612 -0.11222,1.16641 -0.11222,1.56088z" fill="#f1f6ff" stroke-width="1" stroke-linecap="square"/></g></g></svg>