<svg version="1.1" xmlns="http://www.w3.org/2000/svg" xmlns:xlink="http://www.w3.org/1999/xlink" width="39.66496" height="39.66496" viewBox="0,0,39.66496,39.66496"><defs><radialGradient cx="240.00002" cy="180" r="19.76754" gradientUnits="userSpaceOnUse" id="color-1"><stop offset="0" stop-color="#4f5861"/><stop offset="1" stop-color="#444c54"/></radialGradient></defs><g transform="translate(-220.16755,-160.16752)"><g data-paper-data="{&quot;isPaintingLayer&quot;:true}" fill-rule="nonzero" stroke-linecap="butt" stroke-linejoin="miter" stroke-miterlimit="10" stroke-dasharray="" stroke-dashoffset="0" style="mix-blend-mode: normal"><path d="M220.23246,180c0,-10.9173 8.85022,-19.76755 19.76755,-19.76755c10.9173,0 19.76754,8.85025 19.76754,19.76755c0,10.9173 -8.85024,19.76754 -19.76754,19.76754c-10.9173,0 -19.76755,-8.85022 -19.76755,-19.76754z" fill="url(#color-1)" stroke="none" stroke-width="0"/><path d="M236.35818,197.91762l3.49613,-17.77194l3.78746,17.77194z" fill-opacity="0.30196" fill="#000000" stroke="none" stroke-width="0"/><path d="M243.64177,162.08241l-3.78746,17.77194l-3.49613,-17.77194z" data-paper-data="{&quot;index&quot;:null}" fill-opacity="0.30196" fill="#000000" stroke="none" stroke-width="0"/><path d="M257.91764,183.64181l-17.77193,-3.49613l17.77193,-3.78746z" fill-opacity="0.30196" fill="#000000" stroke="none" stroke-width="0"/><path d="M222.0824,176.35818l17.77193,3.78746l-17.77193,3.49613z" data-paper-data="{&quot;index&quot;:null}" fill-opacity="0.30196" fill="#000000" stroke="none" stroke-width="0"/><path d="M222.41755,180c0,-9.71051 7.87194,-17.58248 17.58248,-17.58248c9.71051,0 17.58248,7.87194 17.58248,17.58248c0,9.71051 -7.87194,17.58248 -17.58248,17.58248c-9.71051,0 -17.58248,-7.87194 -17.58248,-17.58248z" fill="none" stroke="#4f5861" stroke-width="4.5"/></g></g></svg>