<svg version="1.1" xmlns="http://www.w3.org/2000/svg" xmlns:xlink="http://www.w3.org/1999/xlink" width="399.49523" height="304.72896" viewBox="0,0,399.49523,304.72896"><defs><linearGradient x1="221.00001" y1="177.49701" x2="244.66039" y2="177.49701" gradientUnits="userSpaceOnUse" id="color-1"><stop offset="0" stop-color="#000000" stop-opacity="0.21176"/><stop offset="1" stop-color="#000000" stop-opacity="0"/></linearGradient><linearGradient x1="259.00002" y1="177.49701" x2="235.33963" y2="177.49701" gradientUnits="userSpaceOnUse" id="color-2"><stop offset="0" stop-color="#000000" stop-opacity="0.21176"/><stop offset="1" stop-color="#000000" stop-opacity="0"/></linearGradient></defs><g transform="translate(-40.25239,-24.84483)"><g data-paper-data="{&quot;isPaintingLayer&quot;:true}" fill-rule="nonzero" stroke-linecap="butt" stroke-linejoin="miter" stroke-miterlimit="10" stroke-dasharray="" stroke-dashoffset="0" style="mix-blend-mode: normal"><path d="M40.25239,295.87843c0,-29.90525 0,-194.25442 0,-245.03136c0,-9.4362 5.3155,-14.95016 14.15865,-14.95016c19.02479,0 103.04975,6.00601 185.58896,6.00601c87.92596,0 174.36828,-6.00601 185.58895,-6.00601c7.38991,0 14.15866,6.33734 14.15866,13.84642c0,28.30014 0,202.1501 0,249.44634c0,7.43228 -7.36731,13.89243 -15.2624,13.89243c-8.66183,0 -164.98521,7.50751 -164.98521,7.50751c0,0 0.01879,0.46971 0.02181,1.62757c0.0121,4.64267 -2.39607,7.30014 -7.35593,7.30956c-7.61665,0.01447 -19.46803,0.04098 -23.8325,0.04704c-5.0753,0.00704 -7.6667,-2.73646 -7.6667,-6.68486c0,-1.32868 0,-2.2993 0,-2.2993c0,0 -145.83207,-7.5075 -164.04813,-7.5075c-10.15662,0 -16.36614,-8.08122 -16.36614,-17.20366z" fill="#85654c" stroke="none" stroke-width="0"/><path d="M40.2524,290.87845c0,-29.90525 0,-194.25442 0,-245.03136c0,-9.4362 5.3155,-14.95016 14.15865,-14.95016c19.48631,0 99.58344,9.00901 184.08745,9.00901c85.88557,0 176.12531,-9.00901 187.09046,-9.00901c7.38991,0 14.15866,6.33734 14.15866,13.84642c0,28.30014 0,202.1501 0,249.44634c0,7.43228 -7.36731,13.89243 -15.2624,13.89243c-21.88047,0 -327.16616,0 -367.86668,0c-10.15662,0 -16.36614,-8.08122 -16.36614,-17.20366z" fill="#9f785a" stroke="none" stroke-width="0"/><path d="M265.00685,293.25485c0,-28.3948 0,-184.44307 0,-232.65538c0,-8.9596 4.55669,-14.19506 12.13742,-14.19506c33.68213,0 124.06009,-7.50751 142.70848,-7.50751c6.33495,0 12.13742,6.01726 12.13742,13.14707c0,26.87076 0,191.93995 0,236.84737c0,7.05689 -6.31558,13.19075 -13.0836,13.19075c-18.7569,0 -104.97969,7.50751 -139.86995,7.50751c-8.7067,0 -14.02977,-7.67306 -14.02977,-16.33474z" fill-opacity="0.06667" fill="#000000" stroke-opacity="0.06667" stroke="#000000" stroke-width="2.5"/><path d="M265.00685,291.25485c0,-28.3948 0,-184.44307 0,-232.65538c0,-8.9596 4.55669,-14.19506 12.13742,-14.19506c33.68213,0 124.06009,-7.50751 142.70848,-7.50751c6.33495,0 12.13742,6.01726 12.13742,13.14707c0,26.87076 0,191.93995 0,236.84737c0,7.05689 -6.31558,13.19075 -13.0836,13.19075c-18.7569,0 -104.97969,7.50751 -139.86995,7.50751c-8.7067,0 -14.02977,-7.67306 -14.02977,-16.33474z" fill-opacity="0.06667" fill="#000000" stroke="#85654c" stroke-width="2.5"/><path d="M47.00985,286.74735c0,-28.3948 0,-184.44307 0,-232.65538c0,-8.9596 4.55668,-14.19506 12.13742,-14.19506c33.68213,0 124.06008,7.50751 142.70849,7.50751c6.33496,0 12.13743,6.01726 12.13743,13.14707c0,26.87076 0,191.93995 0,236.84737c0,7.05689 -6.31558,13.19075 -13.0836,13.19075c-18.7569,0 -104.97967,-7.50751 -139.86995,-7.50751c-8.7067,0 -14.02977,-7.67306 -14.02977,-16.33474z" fill-opacity="0.06667" fill="#000000" stroke-opacity="0.06667" stroke="#000000" stroke-width="2.5"/><path d="M47.00985,284.74735c0,-28.3948 0,-184.44307 0,-232.65538c0,-8.9596 4.55668,-14.19506 12.13742,-14.19506c33.68213,0 124.06008,7.50751 142.70849,7.50751c6.33496,0 12.13743,6.01726 12.13743,13.14707c0,26.87076 0,191.93995 0,236.84737c0,7.05689 -6.31558,13.19075 -13.0836,13.19075c-18.7569,0 -104.97967,-7.50751 -139.86995,-7.50751c-8.7067,0 -14.02977,-7.67306 -14.02977,-16.33474z" fill-opacity="0.06667" fill="#000000" stroke="#85654c" stroke-width="2.5"/><path d="M221.00001,314.99701v-275h23.66038v275z" fill="url(#color-1)" stroke="none" stroke-width="0"/><path d="M235.33963,314.99701v-275h23.66038v275z" data-paper-data="{&quot;index&quot;:null}" fill="url(#color-2)" stroke="none" stroke-width="0"/><path d="M404.41308,292.60832c0,0 11.52303,-0.42948 13.75,-6c0.90681,-2.34722 -0.7784,-3.66228 -2.43223,-3.92561c-1.29348,-0.20594 -2.56776,0.42561 -2.56776,0.42561c0,0 2.13507,-5.70861 7.66002,-2.15144c5.11543,3.2935 2.36076,11.49649 -5.66002,11.65144c-5.39482,0.10422 -10.75,0 -10.75,0z" fill="#755943" stroke="none" stroke-width="0"/><path d="M415.66308,284.62716c0,0.88365 -0.76111,1.6 -1.7,1.6c-0.93889,0 -1.7,-0.71635 -1.7,-1.6c0,-0.88365 0.76111,-1.6 1.7,-1.6c0.93889,0 1.7,0.71634 1.7,1.6z" fill="#755943" stroke="none" stroke-width="0"/><path d="M65.00361,293.275c-8.02078,-0.15495 -10.77544,-8.35793 -5.66002,-11.65144c5.52495,-3.55717 7.66002,2.15144 7.66002,2.15144c0,0 -1.27428,-0.63155 -2.56776,-0.42561c-1.65384,0.26332 -3.33905,1.57839 -2.43223,3.92561c2.22697,5.57052 13.75,6 13.75,6c0,0 -5.35518,0.10422 -10.75,0z" data-paper-data="{&quot;index&quot;:null}" fill="#755943" stroke="none" stroke-width="0"/><path d="M67.20362,282.69381c0.93889,0 1.7,0.71634 1.7,1.6c0,0.88365 -0.76112,1.6 -1.7,1.6c-0.93889,0 -1.7,-0.71635 -1.7,-1.6c0,-0.88365 0.76111,-1.6 1.7,-1.6z" data-paper-data="{&quot;index&quot;:null}" fill="#755943" stroke="none" stroke-width="0"/><path d="M415.07973,45.93672c8.02078,0.15495 10.77544,8.35793 5.66002,11.65144c-5.52495,3.55717 -7.66002,-2.15144 -7.66002,-2.15144c0,0 1.27429,0.63155 2.56777,0.42561c1.65384,-0.26332 3.33905,-1.57839 2.43223,-3.92561c-2.22697,-5.57053 -13.75,-6 -13.75,-6c0,0 5.35517,-0.10422 10.75,0z" data-paper-data="{&quot;index&quot;:null}" fill="#755943" stroke="none" stroke-width="0"/><path d="M413.87973,55.51791c-0.93889,0 -1.7,-0.71634 -1.7,-1.6c0,-0.88365 0.76112,-1.6 1.7,-1.6c0.93889,0 1.7,0.71635 1.7,1.6c0,0.88365 -0.76111,1.6 -1.7,1.6z" data-paper-data="{&quot;index&quot;:null}" fill="#755943" stroke="none" stroke-width="0"/><path d="M75.67028,47.27006c0,0 -11.52303,0.42948 -13.75,6c-0.90681,2.34722 0.7784,3.66228 2.43223,3.92561c1.29348,0.20594 2.56777,-0.42561 2.56777,-0.42561c0,0 -2.13508,5.7086 -7.66002,2.15143c-5.11542,-3.2935 -2.36076,-11.49649 5.66002,-11.65144c5.39482,-0.10422 10.75,0 10.75,0z" data-paper-data="{&quot;index&quot;:null}" fill="#755943" stroke="none" stroke-width="0"/><path d="M64.42028,55.25124c0,-0.88365 0.76112,-1.6 1.7,-1.6c0.93888,0 1.7,0.71634 1.7,1.6c0,0.88365 -0.76111,1.6 -1.7,1.6c-0.93888,0 -1.7,-0.71635 -1.7,-1.6z" data-paper-data="{&quot;index&quot;:null}" fill="#755943" stroke="none" stroke-width="0"/><path d="M241.5015,316.13612v-275.63047c0,0 13.23523,-6.93229 25.32093,-7.54223c30.46235,-1.53738 160.86525,-8.11859 160.86525,-8.11859v275.63047c0,0 -132.09426,6.66657 -162.14579,8.18322c-11.57137,0.58399 -24.04039,7.47761 -24.04039,7.47761z" fill="#f2e9da" stroke="none" stroke-width="0"/></g></g></svg>