<svg version="1.1" xmlns="http://www.w3.org/2000/svg" xmlns:xlink="http://www.w3.org/1999/xlink" width="32.63878" height="32.63878" viewBox="0,0,32.63878,32.63878"><g transform="translate(-437.11004,-322.98992)"><g data-paper-data="{&quot;isPaintingLayer&quot;:true}" fill-rule="nonzero" stroke-linejoin="miter" stroke-miterlimit="10" stroke-dasharray="" stroke-dashoffset="0" style="mix-blend-mode: normal"><path d="M437.11004,339.30931c0,-9.01295 7.30644,-16.31939 16.31939,-16.31939c9.01295,0 16.31939,7.30644 16.31939,16.31939c0,9.01295 -7.30644,16.31939 -16.31939,16.31939c-9.01295,0 -16.31939,-7.30644 -16.31939,-16.31939z" fill-opacity="0.06667" fill="#000000" stroke="none" stroke-width="0" stroke-linecap="butt"/><path d="M441.58216,343.6286c0,-2.53756 0,-6.64217 0,-8.14028c0,-1.08275 1.32781,-2.41193 2.11044,-2.41193c0.98109,0 3.31641,0 3.31641,0c0,0 3.11344,-1.98128 4.33084,-2.75599c0.88756,-0.56481 2.30198,-0.23597 2.30198,0.94704c0,2.47842 0,11.81279 0,16.28056c0,1.46905 -1.07021,1.69846 -1.80895,1.20597c-1.16806,-0.7787 -4.52238,-3.01492 -4.52238,-3.01492c0,0 -2.57346,0 -3.6179,0c-0.79771,0 -2.11044,-0.86712 -2.11044,-2.11044z" fill="#f1f6ff" stroke="none" stroke-width="0" stroke-linecap="butt"/><path d="M457.44882,334.66203c0,0 1.88678,0.65503 2,4.8c0.11762,4.30594 -2,5 -2,5" fill="none" stroke="#f1f6ff" stroke-width="2.5" stroke-linecap="round"/><path d="M460.96411,331.94536c0,0 2.9874,1.03713 3.16667,7.6c0.18623,6.81773 -3.16667,7.91667 -3.16667,7.91667" fill="none" stroke="#f1f6ff" stroke-width="2.5" stroke-linecap="round"/></g></g></svg>