<svg version="1.1" xmlns="http://www.w3.org/2000/svg" xmlns:xlink="http://www.w3.org/1999/xlink" width="607.41061" height="577.26116" viewBox="0,0,607.41061,577.26116"><defs><linearGradient x1="240.58643" y1="-10.80927" x2="240.58643" y2="130.5573" gradientUnits="userSpaceOnUse" id="color-1"><stop offset="0" stop-color="#5b9a56"/><stop offset="1" stop-color="#3b665a"/></linearGradient><radialGradient cx="242.58638" cy="185.05288" r="153.15315" gradientUnits="userSpaceOnUse" id="color-2"><stop offset="0" stop-color="#000000" stop-opacity="0.49804"/><stop offset="1" stop-color="#000000" stop-opacity="0"/></radialGradient><radialGradient cx="366.49477" cy="160.49076" r="153.15316" gradientUnits="userSpaceOnUse" id="color-3"><stop offset="0" stop-color="#000000" stop-opacity="0.49804"/><stop offset="1" stop-color="#000000" stop-opacity="0"/></radialGradient><linearGradient x1="241.997" y1="45.56046" x2="241.997" y2="217.45928" gradientUnits="userSpaceOnUse" id="color-4"><stop offset="0" stop-color="#e6815a"/><stop offset="1" stop-color="#a54040"/></linearGradient><radialGradient cx="93.28491" cy="229.64063" r="153.15315" gradientUnits="userSpaceOnUse" id="color-5"><stop offset="0" stop-color="#000000" stop-opacity="0.49804"/><stop offset="1" stop-color="#000000" stop-opacity="0"/></radialGradient><radialGradient cx="231.535" cy="241.86859" r="153.15316" gradientUnits="userSpaceOnUse" id="color-6"><stop offset="0" stop-color="#000000" stop-opacity="0.49804"/><stop offset="1" stop-color="#000000" stop-opacity="0"/></radialGradient><linearGradient x1="241.38765" y1="108.03617" x2="241.38765" y2="280.29738" gradientUnits="userSpaceOnUse" id="color-7"><stop offset="0" stop-color="#7f4c99"/><stop offset="1" stop-color="#4d3b76"/></linearGradient><radialGradient cx="394.39459" cy="300.1133" r="153.15315" gradientUnits="userSpaceOnUse" id="color-8"><stop offset="0" stop-color="#000000" stop-opacity="0.49804"/><stop offset="1" stop-color="#000000" stop-opacity="0"/></radialGradient><radialGradient cx="256.76148" cy="316.40738" r="153.15316" gradientUnits="userSpaceOnUse" id="color-9"><stop offset="0" stop-color="#000000" stop-opacity="0.49804"/><stop offset="1" stop-color="#000000" stop-opacity="0"/></radialGradient><linearGradient x1="243.00877" y1="192.6501" x2="243.00877" y2="371.36898" gradientUnits="userSpaceOnUse" id="color-10"><stop offset="0" stop-color="#7286a3"/><stop offset="1" stop-color="#39665b"/></linearGradient><radialGradient cx="95.10515" cy="340.92873" r="153.15315" gradientUnits="userSpaceOnUse" id="color-11"><stop offset="0" stop-color="#000000" stop-opacity="0.49804"/><stop offset="1" stop-color="#000000" stop-opacity="0"/></radialGradient><radialGradient cx="227.73278" cy="380.48034" r="153.15316" gradientUnits="userSpaceOnUse" id="color-12"><stop offset="0" stop-color="#000000" stop-opacity="0.49804"/><stop offset="1" stop-color="#000000" stop-opacity="0"/></radialGradient><linearGradient x1="193.59484" y1="241.33191" x2="193.59484" y2="373.11578" gradientUnits="userSpaceOnUse" id="color-13"><stop offset="0" stop-color="#547d32"/><stop offset="1" stop-color="#494c1f"/></linearGradient><linearGradient x1="30.25281" y1="296.38217" x2="30.25281" y2="328.84727" gradientUnits="userSpaceOnUse" id="color-14"><stop offset="0" stop-color="#485f27"/><stop offset="1" stop-color="#485f27" stop-opacity="0"/></linearGradient><radialGradient cx="330.23164" cy="73.3882" r="63.38123" gradientUnits="userSpaceOnUse" id="color-15"><stop offset="0" stop-color="#000000" stop-opacity="0"/><stop offset="1" stop-color="#000000" stop-opacity="0.07451"/></radialGradient></defs><g transform="translate(59.89959,49.16798)"><g data-paper-data="{&quot;isPaintingLayer&quot;:true}" fill-rule="nonzero" stroke-linejoin="miter" stroke-miterlimit="10" stroke-dasharray="" stroke-dashoffset="0" style="mix-blend-mode: normal"><path d="M-3.71271,130.5573l-1.60243,-141.36656l491.10748,1.39517l0.69565,137.02293z" data-paper-data="{&quot;index&quot;:null}" fill="url(#color-1)" stroke="none" stroke-width="0" stroke-linecap="butt"/><g data-paper-data="{&quot;index&quot;:null}"><path d="M412.06831,28.20047c1.48114,1.69683 1.82862,3.81715 0.77615,4.73582c-1.05248,0.91866 -3.10636,0.28784 -4.5875,-1.40901c-1.48113,-1.69683 -1.82861,-3.81715 -0.77613,-4.73582c1.05248,-0.91866 3.10635,-0.28784 4.58749,1.40901z" fill="#4f8757" stroke="none" stroke-width="0" stroke-linecap="butt"/><path d="M412.46981,21.2111v11.04731" fill="#487c58" stroke="#4f8757" stroke-width="3.5" stroke-linecap="round"/><path d="M417.60963,23.45584c1.05248,0.91866 0.70498,3.03897 -0.77613,4.7358c-1.48114,1.69683 -3.535,2.32768 -4.5875,1.40901c-1.05248,-0.91866 -0.70498,-3.03898 0.77615,-4.73582c1.48114,-1.69683 3.53501,-2.32766 4.58749,-1.40901z" data-paper-data="{&quot;index&quot;:null}" fill="#4f8757" stroke="none" stroke-width="0" stroke-linecap="butt"/><path d="M407.22809,15.48886c0,-2.31069 0.01453,-0.27608 0.05928,-2.13728c0.12275,-5.10703 0.92157,-5.89928 2.69112,-0.83198c0.29994,0.8589 0.28869,0.96361 0.28869,0.96361c0,0 0.21044,-0.28589 0.36242,-0.9813c0.87774,-4.0156 2.31077,-5.18182 3.8918,0.27301c0.14472,0.49932 0.32217,0.75748 0.32217,0.75748c0,0 0.15765,-0.18441 0.27483,-0.57794c1.31088,-4.40222 2.71774,-6.0117 2.8996,0.46103c0.06539,2.32732 -0.02062,-0.2028 -0.02062,2.07339c0,2.97388 -2.4108,5.38468 -5.38468,5.38468c-2.97385,0 -5.38466,-2.41079 -5.38466,-5.38466z" fill="#4f8757" stroke="none" stroke-width="0" stroke-linecap="butt"/><path d="M424.04298,31.47048c0.96957,1.11077 1.19705,2.49877 0.50808,3.10014c-0.68897,0.60138 -2.03348,0.18843 -3.00305,-0.92236c-0.96957,-1.11077 -1.19704,-2.49877 -0.50806,-3.10014c0.68897,-0.60138 2.03347,-0.18843 3.00305,0.92236z" data-paper-data="{&quot;index&quot;:null}" fill="#4f8757" stroke="none" stroke-width="0" stroke-linecap="butt"/><path d="M424.3058,34.12687v-7.23175" data-paper-data="{&quot;index&quot;:null}" fill="#487c58" stroke="#4f8757" stroke-width="3.5" stroke-linecap="round"/><path d="M420.87448,23.14927c0,-1.51262 0.00951,-0.18072 0.0388,-1.3991c0.08036,-3.34315 0.60328,-3.86178 1.76166,-0.54464c0.19635,0.56225 0.18899,0.63079 0.18899,0.63079c0,0 0.13776,-0.18715 0.23725,-0.64237c0.57459,-2.62868 1.51267,-3.3921 2.54763,0.17872c0.09474,0.32686 0.21091,0.49586 0.21091,0.49586c0,0 0.1032,-0.12072 0.17991,-0.37833c0.85813,-2.88177 1.77908,-3.93535 1.89813,0.3018c0.0428,1.52349 -0.0135,-0.13276 -0.0135,1.35727c0,1.94674 -1.57815,3.5249 -3.5249,3.5249c-1.94673,0 -3.5249,-1.57815 -3.5249,-3.5249z" data-paper-data="{&quot;index&quot;:null}" fill="#4f8757" stroke="none" stroke-width="0" stroke-linecap="butt"/></g><path d="M436.2528,38.16536c0,0 3.02519,-19.58 3.42715,-33.0457c0.59469,-19.9219 0.79507,-25.89874 0.79507,-25.89874h22.55556c0,0 -1.7758,6.7744 -1.18091,26.70358c0.39516,13.23782 3.40313,32.24088 3.40313,32.24088z" fill="#518a57" stroke="none" stroke-width="0" stroke-linecap="butt"/><g fill="#4a7e58" stroke="none" stroke-width="0" stroke-linecap="butt"><path d="M158.13738,61.5546c-3.55352,-5.18221 -3.35433,-17.77796 -3.35433,-17.77796c0,0 8.52207,1.19102 12.07559,6.37323c3.55352,5.18221 4.0252,17.10709 4.0252,17.10709c0,0 -9.19294,-0.52015 -12.74646,-5.70236z"/><path d="M167.52748,66.92153c0,0 0.47168,-11.92487 4.0252,-17.10709c3.55352,-5.18221 12.07559,-6.37323 12.07559,-6.37323c0,0 0.1992,12.59574 -3.35433,17.77796c-3.55352,5.18221 -12.74646,5.70236 -12.74646,5.70236z" data-paper-data="{&quot;index&quot;:null}"/><path d="M170.32846,64.74951c0,0 6.57541,-9.95937 12.29807,-12.55437c5.72266,-2.595 13.63098,0.79658 13.63098,0.79658c0,0 -6.3486,10.88061 -12.07126,13.47561c-5.72266,2.595 -13.85779,-1.71782 -13.85779,-1.71782z" data-paper-data="{&quot;index&quot;:null}"/><path d="M152.54617,66.46733c-5.72267,-2.595 -12.07126,-13.47561 -12.07126,-13.47561c0,0 7.90831,-3.39159 13.63097,-0.79658c5.72267,2.595 12.29807,12.55437 12.29807,12.55437c0,0 -8.13512,4.31282 -13.85779,1.71782z" data-paper-data="{&quot;index&quot;:null}"/><path d="M168.04514,66.03245c0,0 -5.76995,-10.44666 -5.41252,-16.72003c0.35743,-6.27336 7.032,-11.70422 7.032,-11.70422c0,0 6.69123,10.67332 6.33381,16.94669c-0.35743,6.27336 -7.95328,11.47757 -7.95328,11.47757z" data-paper-data="{&quot;index&quot;:null}"/></g><g fill="#518957" stroke="none" stroke-width="0" stroke-linecap="butt"><path d="M298.13738,29.5546c-3.55352,-5.18221 -3.35433,-17.77796 -3.35433,-17.77796c0,0 8.52207,1.19102 12.07559,6.37323c3.55352,5.18221 4.0252,17.10709 4.0252,17.10709c0,0 -9.19294,-0.52015 -12.74646,-5.70236z"/><path d="M307.52748,34.92153c0,0 0.47168,-11.92487 4.0252,-17.10709c3.55352,-5.18221 12.07559,-6.37323 12.07559,-6.37323c0,0 0.1992,12.59574 -3.35433,17.77796c-3.55352,5.18221 -12.74646,5.70236 -12.74646,5.70236z" data-paper-data="{&quot;index&quot;:null}"/><path d="M310.32846,32.74951c0,0 6.57541,-9.95937 12.29807,-12.55437c5.72266,-2.595 13.63098,0.79658 13.63098,0.79658c0,0 -6.3486,10.88061 -12.07126,13.47561c-5.72266,2.595 -13.85779,-1.71782 -13.85779,-1.71782z" data-paper-data="{&quot;index&quot;:null}"/><path d="M292.54617,34.46733c-5.72267,-2.595 -12.07126,-13.47561 -12.07126,-13.47561c0,0 7.90831,-3.39159 13.63097,-0.79658c5.72267,2.595 12.29807,12.55437 12.29807,12.55437c0,0 -8.13512,4.31282 -13.85779,1.71782z" data-paper-data="{&quot;index&quot;:null}"/><path d="M308.04514,34.03245c0,0 -5.76995,-10.44666 -5.41252,-16.72003c0.35743,-6.27336 7.032,-11.70422 7.032,-11.70422c0,0 6.69123,10.67332 6.33381,16.94669c-0.35743,6.27336 -7.95328,11.47757 -7.95328,11.47757z" data-paper-data="{&quot;index&quot;:null}"/></g><path d="M-5.10035,275.12582c0,0 109.77943,-72.89447 177.87282,-102.54506c29.17007,-12.70181 98.92679,-29.73673 149.3953,-32.90893c79.66724,-5.00748 161.532,16.32076 161.532,16.32076l1.40058,123.65727z" data-paper-data="{&quot;index&quot;:null}" fill-opacity="0.0549" fill="#000000" stroke="none" stroke-width="0" stroke-linecap="butt"/><path d="M379.36221,120.52264c38.0566,70.7406 7.67093,156.97834 -67.86829,192.61739c-75.53922,35.63905 -167.62683,7.18362 -205.68343,-63.55696c-38.0566,-70.74059 -7.67093,-156.97832 67.8683,-192.61738c75.53923,-35.63905 167.62683,-7.18363 205.68343,63.55696z" fill="url(#color-2)" stroke="none" stroke-width="0" stroke-linecap="butt"/><path d="M503.27059,95.96058c38.0566,70.7406 7.67093,156.97834 -67.86829,192.61739c-75.53922,35.63905 -167.62683,7.18362 -205.68343,-63.55696c-38.0566,-70.74059 -7.67093,-156.97832 67.8683,-192.61738c75.53923,-35.63905 167.62683,-7.18363 205.68343,63.55696z" fill="url(#color-3)" stroke="none" stroke-width="0" stroke-linecap="butt"/><path d="M-3.10335,211.93361c0,0 88.77943,-80.03308 156.87282,-116.24821c29.17007,-15.51396 64.76012,-33.48703 115.22863,-37.36153c16.96616,-1.30251 85.69866,-22.9795 102.05223,-21.9266c60.43715,3.89116 114.64643,30.0274 114.64643,30.0274l1.40058,151.0346z" data-paper-data="{&quot;index&quot;:null}" fill="url(#color-4)" stroke="none" stroke-width="0" stroke-linecap="butt"/><path d="M243.11939,199.07806c17.51277,79.7578 -35.37352,158.0976 -118.12485,174.97684c-82.75132,16.87925 -164.03143,-34.0939 -181.5442,-113.85168c-17.51277,-79.75779 35.37353,-158.09758 118.12486,-174.97683c82.75133,-16.87925 164.03143,34.09388 181.5442,113.85168z" fill="url(#color-5)" stroke="none" stroke-width="0" stroke-linecap="butt"/><path d="M381.36948,211.30601c17.51277,79.7578 -35.37352,158.0976 -118.12485,174.97684c-82.75132,16.87925 -164.03143,-34.0939 -181.5442,-113.85168c-17.51277,-79.75779 35.37353,-158.09758 118.12486,-174.97683c82.75133,-16.87925 164.03143,34.09388 181.5442,113.85168z" fill="url(#color-6)" stroke="none" stroke-width="0" stroke-linecap="butt"/><path d="M-3.71271,280.29738l1.40058,-151.35306c0,0 81.86476,-26.10517 161.532,-19.97615c50.46852,3.88268 120.22524,24.73294 149.39531,40.27961c68.09339,36.29149 177.87282,125.5123 177.87282,125.5123z" data-paper-data="{&quot;index&quot;:null}" fill="url(#color-7)" stroke="none" stroke-width="0" stroke-linecap="butt"/><path d="M243.55438,274.55634c14.44585,-79.20415 93.69,-131.96956 176.99678,-117.85485c83.30678,14.11472 139.12958,89.76458 124.68373,168.96872c-14.44585,79.20414 -93.69002,131.96955 -176.99678,117.85485c-83.30678,-14.11472 -139.12958,-89.76458 -124.68372,-168.96873z" data-paper-data="{&quot;index&quot;:null}" fill="url(#color-8)" stroke="none" stroke-width="0" stroke-linecap="butt"/><path d="M186.35041,125.74699v-32.71829c0,0 10.99167,-6.57618 14.33841,-8.5785c2.4461,-1.46347 5.57864,-1.59358 7.96146,-0.0865c3.15077,1.99278 13.70013,8.665 13.70013,8.665v32.71829z" fill="#794a95" stroke="none" stroke-width="0" stroke-linecap="butt"/><path d="M105.92127,290.85047c14.44585,-79.20415 93.69,-131.96956 176.99678,-117.85485c83.30678,14.11472 139.12958,89.76458 124.68373,168.96872c-14.44585,79.20414 -93.69002,131.96955 -176.99678,117.85485c-83.30678,-14.11472 -139.12958,-89.76458 -124.68372,-168.96873z" data-paper-data="{&quot;index&quot;:null}" fill="url(#color-9)" stroke="none" stroke-width="0" stroke-linecap="butt"/><path d="M166.4596,255.62733c0,0 0,-33.18384 0,-38.83803c0,-4.50126 -3.36088,-7.49103 -7.86215,-7.49103c-2.53857,0 -7.53585,0 -7.53585,0l0.03051,-24.93753c0,0 4.73665,-0.01476 7.21509,-0.02248c4.63284,-0.01443 8.1524,-3.00898 8.1524,-7.64184c0,-6.35568 0,-66.75531 0,-66.75531l38.82434,5.5c0,0 0,53.76071 0,60.0932c0,5.00799 3.50751,8.21717 8.51545,8.19469c12.92077,-0.05801 89.06195,-0.35043 89.06195,-0.35043l0.35466,25.20075c0,0 -76.89268,0.15188 -89.7098,0.18143c-4.8624,0.01121 -8.22225,3.16615 -8.22225,8.02856c0,5.7757 0,38.83803 0,38.83803z" fill-opacity="0.09804" fill="#000000" stroke="none" stroke-width="0" stroke-linecap="butt"/><path d="M-20.50047,365.62402c0,0 118.0247,-92.56547 191.23242,-130.21743c31.36096,-16.12948 106.35695,-37.76136 160.61602,-41.78959c85.65085,-6.35878 173.66427,20.72501 173.66427,20.72501l1.50577,157.0269z" fill="url(#color-10)" stroke="none" stroke-width="0" stroke-linecap="butt"/><path d="M248.25826,340.92873c0,81.52433 -68.56899,147.61284 -153.15315,147.61284c-84.58415,0 -153.15315,-66.08853 -153.15315,-147.61284c0,-81.52432 68.56899,-147.61283 153.15315,-147.61283c84.58416,0 153.15315,66.08851 153.15315,147.61284z" fill="url(#color-11)" stroke="none" stroke-width="0" stroke-linecap="butt"/><path d="M380.88589,380.48034c0,81.52433 -68.569,147.61285 -153.15316,147.61285c-84.58414,0 -153.15315,-66.08853 -153.15315,-147.61285c0,-81.52432 68.569,-147.61283 153.15316,-147.61283c84.58416,0 153.15316,66.08852 153.15316,147.61285z" fill="url(#color-12)" stroke="none" stroke-width="0" stroke-linecap="butt"/><path d="M-4.20821,373.11578l1.1303,-115.78862c0,0 66.06722,-19.97106 130.36098,-15.28223c40.72954,2.97034 97.02523,18.92127 120.56632,30.81484c54.95333,27.76384 143.5485,96.01983 143.5485,96.01983z" data-paper-data="{&quot;index&quot;:null}" fill="url(#color-13)" stroke="none" stroke-width="0" stroke-linecap="butt"/><path d="M85.98287,238.25148c6.56955,-1.72889 8.76921,1.97593 8.76921,1.97593c0,0 3.20342,-7.50276 9.32535,-6.86501c6.60281,0.68786 9.28657,4.73942 9.28657,4.73942c0,0 3.3573,-7.38549 10.5212,-6.69509c7.10203,0.68443 8.80995,7.67169 8.80995,7.67169c0,0 7.95852,-1.43257 11.30934,1.49902c3.35082,2.93159 6.00611,11.20113 6.00611,11.20113l-69.33169,-3.47449c0,0 1.26584,-8.83319 5.30397,-10.05261z" fill="#537830" stroke="none" stroke-width="0" stroke-linecap="butt"/><path d="M374.7332,348.42276c2.11857,2.97596 -1.6979,9.69556 -1.6979,9.69556l-49.31655,-34.37962c0,0 6.20259,-4.25471 10.05134,-4.48554c3.84875,-0.23083 8.53876,4.96962 8.53876,4.96962c0,0 4.87404,-3.87897 10.09999,-0.58222c5.27147,3.32546 3.65467,10.16263 3.65467,10.16263c0,0 3.98577,-1.35139 8.8717,1.67833c4.53008,2.80907 2.74573,9.64495 2.74573,9.64495c0,0 3.47046,-1.37062 7.05228,3.29631z" data-paper-data="{&quot;index&quot;:null}" fill="#4b5723" stroke="none" stroke-width="0" stroke-linecap="butt"/><path d="M245.98155,337.56877c7.1016,-2.35272 9.77445,1.56781 9.77445,1.56781c0,0 3.00417,-8.46702 9.77679,-8.18769c7.30461,0.30128 10.53341,4.56957 10.53341,4.56957c0,0 3.18138,-8.34872 11.10287,-8.0833c7.85308,0.26313 10.21151,7.82529 10.21151,7.82529c0,0 8.64864,-2.12269 12.53349,0.86868c3.88484,2.99137 7.37286,11.89764 7.37286,11.89764l-76.44268,0.95628c0,0 0.78292,-9.79586 5.13731,-11.41426z" fill="#4b5522" stroke="none" stroke-width="0" stroke-linecap="butt"/><path d="M118.74634,278.09146c6.77645,-2.245 9.32691,1.49602 9.32691,1.49602c0,0 2.86663,-8.07935 9.32915,-7.81281c6.97017,0.28748 10.05113,4.36034 10.05113,4.36034c0,0 3.03572,-7.96647 10.59452,-7.7132c7.49352,0.25108 9.74397,7.467 9.74397,7.467c0,0 8.25266,-2.0255 11.95963,0.8289c3.70697,2.8544 7.03529,11.3529 7.03529,11.3529l-72.94268,0.9125c0,0 0.74707,-9.34735 4.90209,-10.89165z" fill="#506d2b" stroke="none" stroke-width="0" stroke-linecap="butt"/><path d="M188.20949,256.73744c0,0 7.1198,-9.51965 13.10826,-8.50002c7.06737,0.9327 8.71494,3.86958 8.71494,3.86958c0,0 5.64794,-6.37722 12.6254,-3.4744c6.9172,2.87775 6.47608,10.41772 6.47608,10.41772c0,0 8.42989,1.0171 10.88881,4.99317c2.45892,3.97608 2.57313,13.09532 2.57313,13.09532z" fill="#51732e" stroke="none" stroke-width="0" stroke-linecap="butt"/><path d="M193.97924,298.65094c0,0 5.57253,-10.50058 11.64655,-10.4132c7.12676,-0.16429 9.20602,2.48457 9.20602,2.48457c0,0 4.601,-7.16931 11.94162,-5.37306c7.27723,1.78073 7.99988,9.29895 7.99988,9.29895c0,0 8.48607,-0.29025 11.52672,3.26079c3.04065,3.55104 4.5547,12.54445 4.5547,12.54445z" fill="#4f6529" stroke="none" stroke-width="0" stroke-linecap="butt"/><path d="M217.6459,315.98429c0,0 5.57253,-10.50058 11.64655,-10.4132c7.12676,-0.16429 9.20602,2.48456 9.20602,2.48456c0,0 4.601,-7.1693 11.94163,-5.37306c7.27723,1.78074 7.99987,9.29895 7.99987,9.29895c0,0 8.48607,-0.29025 11.52672,3.26079c3.04065,3.55104 4.55469,12.54445 4.55469,12.54445z" fill="#4d5f26" stroke="none" stroke-width="0" stroke-linecap="butt"/><path d="M43.81889,336.20843c8.2591,-2.73619 11.3676,1.82335 11.3676,1.82335c0,0 3.49383,-9.84707 11.37033,-9.52221c8.4952,0.35039 12.25027,5.31436 12.25027,5.31436c0,0 3.69992,-9.70949 12.91254,-9.40081c9.13306,0.30602 11.87589,9.10074 11.87589,9.10074c0,0 10.0583,-2.46867 14.57634,1.01027c4.51804,3.47893 8.57458,13.83685 8.57458,13.83685l-88.90217,1.11214c0,0 0.91053,-11.3925 5.97464,-13.27469z" fill="#4b5623" stroke="none" stroke-width="0" stroke-linecap="butt"/><path d="M81.58956,303.8257c0,0 0.03593,5.62834 0.05586,8.7508c0.05352,8.38334 -8.1568,11.62164 -16.54031,11.6383c-14.33662,0.0285 -26.22382,0.19024 -26.22382,0.19024c0,0 -0.0329,0.8659 -0.05031,2.73504c-0.05136,5.51265 -6.42971,9.02109 -11.94237,9.07109c-7.39047,0.06704 -28.14652,0.25531 -28.14652,0.25531l1.33227,-65.28155c0,0 61.85033,-0.44819 77.43838,-0.56114c7.6403,-0.05536 14.4887,3.66488 14.4887,11.30538c0,1.03584 6.80867,0.40683 6.80867,0.40683c0,0 14.51677,0.08433 20.01209,0.11625c4.74056,0.02753 9.83735,1.33483 9.91341,6.07486c0.02643,1.64717 1.24075,6.92566 0.07446,8.63721c-1.16628,1.71156 -10.27957,6.33915 -10.27957,6.33915z" data-paper-data="{&quot;index&quot;:null}" fill-opacity="0.0549" fill="#000000" stroke="none" stroke-width="0" stroke-linecap="butt"/><path d="M29.557,296.38406c-9.10327,0 -16.48294,-3.42999 -16.48294,-7.66109c0,-1.04114 3.74484,-4.34238 4.55424,-5.24734c0.25576,-0.28595 12.11314,5.79486 12.11314,5.79486l-0.18445,-8.20861c0,0 2.04596,0.04427 3.02728,0.12893c7.65737,0.66068 13.45565,3.78169 13.45565,7.53215c0,4.2311 -7.37967,7.66109 -16.48294,7.66109z" data-paper-data="{&quot;index&quot;:null}" fill-opacity="0.0549" fill="#000000" stroke="none" stroke-width="0" stroke-linecap="butt"/><path d="M30.09821,296.38217c0,0 -2.465,5.23945 -2.42995,8.92064c0.02056,2.15859 4.04117,1.93959 4.49618,5.74575c0.80561,6.73894 -1.75704,17.79868 -1.75704,17.79868" fill="none" stroke="url(#color-14)" stroke-width="4" stroke-linecap="round"/><g fill-opacity="0.0549" fill="#000000" stroke="none" stroke-width="0" stroke-linecap="butt"><path d="M104.77632,271.97686v-4.55151l-7.71778,-0.98946c0,0 -0.57407,-11.56934 10.48914,-11.78218c10.43292,-0.20072 10.68528,11.58428 10.68528,11.58428l-7.322,1.18735v4.55151z"/><path d="M106.8806,262.23033c0,1.4208 -1.24039,2.57259 -2.77048,2.57259c-1.5301,0 -2.77048,-1.15179 -2.77048,-2.57259c0,-1.4208 1.24039,-2.57259 2.77048,-2.57259c1.5301,0 2.77048,1.15179 2.77048,2.57259z"/><path d="M112.15772,257.34898c0,0.76505 -1.00412,1.38524 -2.24277,1.38524c-1.23865,0 -2.24278,-0.62019 -2.24278,-1.38524c0,-0.76505 1.00413,-1.38524 2.24278,-1.38524c1.23865,0 2.24277,0.62019 2.24277,1.38524z"/><path d="M111.89387,260.84506c1.23865,0 2.24277,0.94505 2.24277,2.11084c0,1.16579 -1.00412,2.11084 -2.24277,2.11084c-1.23865,0 -2.24278,-0.94505 -2.24278,-2.11084c0,-1.16579 1.00413,-2.11084 2.24278,-2.11084z"/><path d="M105.45032,256.47038c0.21904,0.4606 -0.61688,1.31597 -1.86709,1.91051c-1.2502,0.59454 -2.44126,0.70312 -2.6603,0.24252c-0.21904,-0.4606 0.61688,-1.31597 1.86709,-1.91051c1.2502,-0.59454 2.44126,-0.70312 2.6603,-0.24252z"/><path d="M99.10827,261.71592c0.41336,0.07949 0.57355,1.05348 0.3578,2.17547c-0.21576,1.12199 -0.72577,1.9671 -1.13913,1.88761c-0.41336,-0.07949 -0.57355,-1.05348 -0.35779,-2.17547c0.21576,-1.12199 0.72576,-1.96711 1.13913,-1.88761z"/><path d="M116.0715,261.20196c0.41057,-0.09286 0.94772,0.73527 1.19976,1.84967c0.25204,1.1144 0.12352,2.09307 -0.28704,2.18593c-0.41057,0.09286 -0.94772,-0.73527 -1.19975,-1.84967c-0.25204,-1.1144 -0.12353,-2.09307 0.28704,-2.18593z"/></g><g fill-opacity="0.0549" fill="#000000" stroke="none" stroke-width="0" stroke-linecap="butt"><path d="M195.0576,286.31021v-6.48535l-10.9969,-1.40986c0,0 -0.81798,-16.4849 14.94576,-16.78818c14.86567,-0.286 15.22523,16.50621 15.22523,16.50621l-10.43296,1.69183v6.48535z"/><path d="M198.05596,272.42251c0,2.02447 -1.7674,3.66563 -3.94761,3.66563c-2.1802,0 -3.94761,-1.64116 -3.94761,-3.66563c0,-2.02447 1.7674,-3.66563 3.94761,-3.66563c2.1802,0 3.94761,1.64116 3.94761,3.66563z"/><path d="M205.57521,265.46723c0,1.0901 -1.43075,1.9738 -3.19568,1.9738c-1.76493,0 -3.19568,-0.8837 -3.19568,-1.9738c0,-1.0901 1.43075,-1.9738 3.19568,-1.9738c1.76493,0 3.19568,0.8837 3.19568,1.9738z"/><path d="M205.19925,270.44872c1.76493,0 3.19568,1.34659 3.19568,3.0077c0,1.66111 -1.43075,3.0077 -3.19568,3.0077c-1.76493,0 -3.19568,-1.34659 -3.19568,-3.0077c0,-1.66111 1.43075,-3.0077 3.19568,-3.0077z"/><path d="M196.01798,264.21529c0.31211,0.6563 -0.87898,1.87509 -2.66037,2.72224c-1.78139,0.84715 -3.4785,1.00186 -3.79061,0.34556c-0.31211,-0.6563 0.87898,-1.87509 2.66037,-2.72224c1.78139,-0.84715 3.4785,-1.00186 3.79061,-0.34556z"/><path d="M186.98132,271.68962c0.58899,0.11326 0.81724,1.50108 0.50982,3.09978c-0.30743,1.5987 -1.03413,2.80288 -1.62312,2.68962c-0.58899,-0.11326 -0.81724,-1.50108 -0.50982,-3.09978c0.30743,-1.5987 1.03413,-2.80288 1.62312,-2.68962z"/><path d="M211.15188,270.95732c0.58501,-0.13231 1.35038,1.04767 1.70951,2.63555c0.35913,1.58789 0.17601,2.98238 -0.409,3.11469c-0.58501,0.13231 -1.35038,-1.04767 -1.70951,-2.63555c-0.35913,-1.58789 -0.17601,-2.98238 0.409,-3.11469z"/></g><g fill-opacity="0.0549" fill="#000000" stroke="none" stroke-width="0" stroke-linecap="butt"><path d="M125.25043,264.64351v-3.06286l-5.19355,-0.66584c0,0 -0.38631,-7.78538 7.05848,-7.92861c7.02065,-0.13507 7.19047,7.79544 7.19047,7.79544l-4.92721,0.79901v3.06286z"/><path d="M126.66647,258.08475c0,0.95611 -0.8347,1.73118 -1.86435,1.73118c-1.02965,0 -1.86435,-0.77508 -1.86435,-1.73118c0,-0.95611 0.8347,-1.73118 1.86435,-1.73118c1.02965,0 1.86435,0.77507 1.86435,1.73118z"/><path d="M130.21761,254.8c0,0.51483 -0.67571,0.93217 -1.50924,0.93217c-0.83353,0 -1.50924,-0.41735 -1.50924,-0.93217c0,-0.51483 0.67571,-0.93217 1.50924,-0.93217c0.83353,0 1.50924,0.41735 1.50924,0.93217z"/><path d="M130.04005,257.15261c0.83353,0 1.50924,0.63596 1.50924,1.42046c0,0.7845 -0.67571,1.42045 -1.50924,1.42045c-0.83353,0 -1.50924,-0.63595 -1.50924,-1.42045c0,-0.7845 0.67571,-1.42046 1.50924,-1.42046z"/><path d="M125.70398,254.20874c0.1474,0.30995 -0.41512,0.88556 -1.25642,1.28564c-0.8413,0.40009 -1.6428,0.47315 -1.7902,0.1632c-0.1474,-0.30995 0.41512,-0.88556 1.25642,-1.28564c0.8413,-0.40009 1.6428,-0.47315 1.7902,-0.1632z"/><path d="M121.43621,257.73866c0.27817,0.05349 0.38596,0.70892 0.24078,1.46394c-0.14519,0.75502 -0.48839,1.32373 -0.76656,1.27023c-0.27817,-0.05349 -0.38596,-0.70892 -0.24077,-1.46394c0.14519,-0.75502 0.48839,-1.32373 0.76655,-1.27024z"/><path d="M132.85132,257.39275c0.27628,-0.06249 0.63775,0.49479 0.80735,1.2447c0.16961,0.74992 0.08312,1.40849 -0.19316,1.47098c-0.27628,0.06249 -0.63775,-0.49478 -0.80735,-1.2447c-0.16961,-0.74992 -0.08312,-1.4085 0.19316,-1.47099z"/></g><path d="M223.62267,242.97776v-19.18655h20.8795v19.18655z" data-paper-data="{&quot;index&quot;:null}" fill="#5e7789" stroke="none" stroke-width="0" stroke-linecap="butt"/><g fill-opacity="0.0549" fill="#000000" stroke="none" stroke-width="0" stroke-linecap="butt"><path d="M209.39093,349.64357v-6.48535l-10.9969,-1.40986c0,0 -0.81798,-16.4849 14.94576,-16.78818c14.86567,-0.286 15.22523,16.50621 15.22523,16.50621l-10.43296,1.69183v6.48535z"/><path d="M212.38929,335.75591c0,2.02447 -1.7674,3.66563 -3.94761,3.66563c-2.1802,0 -3.94761,-1.64116 -3.94761,-3.66563c0,-2.02447 1.7674,-3.66563 3.94761,-3.66563c2.1802,0 3.94761,1.64116 3.94761,3.66563z"/><path d="M219.90854,328.80053c0,1.0901 -1.43075,1.9738 -3.19568,1.9738c-1.76493,0 -3.19568,-0.8837 -3.19568,-1.9738c0,-1.0901 1.43075,-1.9738 3.19568,-1.9738c1.76493,0 3.19568,0.8837 3.19568,1.9738z"/><path d="M219.53258,333.78207c1.76493,0 3.19568,1.34659 3.19568,3.0077c0,1.66111 -1.43075,3.0077 -3.19568,3.0077c-1.76493,0 -3.19568,-1.34659 -3.19568,-3.0077c0,-1.66111 1.43075,-3.0077 3.19568,-3.0077z"/><path d="M210.35131,327.54864c0.31211,0.6563 -0.87898,1.87509 -2.66037,2.72224c-1.78139,0.84715 -3.4785,1.00186 -3.79061,0.34556c-0.31211,-0.6563 0.87898,-1.87509 2.66037,-2.72224c1.78139,-0.84715 3.4785,-1.00186 3.79061,-0.34556z"/><path d="M201.31465,335.02293c0.58899,0.11326 0.81724,1.50108 0.50982,3.09978c-0.30743,1.5987 -1.03413,2.80288 -1.62312,2.68962c-0.58899,-0.11326 -0.81724,-1.50108 -0.50982,-3.09978c0.30743,-1.5987 1.03413,-2.80288 1.62312,-2.68962z"/><path d="M225.48521,334.29058c0.58501,-0.13231 1.35038,1.04767 1.70951,2.63555c0.35913,1.58789 0.17601,2.98238 -0.409,3.11469c-0.58501,0.13231 -1.35038,-1.04767 -1.70951,-2.63555c-0.35913,-1.58789 -0.17601,-2.98238 0.409,-3.11469z"/></g><g fill-opacity="0.0549" fill="#000000" stroke="none" stroke-width="0" stroke-linecap="butt"><path d="M181.25043,351.64357v-3.06286l-5.19355,-0.66584c0,0 -0.38631,-7.78538 7.05848,-7.92861c7.02066,-0.13507 7.19046,7.79544 7.19046,7.79544l-4.9272,0.79901v3.06286z"/><path d="M182.66647,345.0848c0,0.9561 -0.8347,1.73118 -1.86435,1.73118c-1.02965,0 -1.86435,-0.77508 -1.86435,-1.73118c0,-0.9561 0.8347,-1.73118 1.86435,-1.73118c1.02965,0 1.86435,0.77508 1.86435,1.73118z"/><path d="M186.21761,341.8c0,0.51482 -0.67571,0.93217 -1.50924,0.93217c-0.83353,0 -1.50924,-0.41735 -1.50924,-0.93217c0,-0.51483 0.67571,-0.93217 1.50924,-0.93217c0.83353,0 1.50924,0.41735 1.50924,0.93217z"/><path d="M186.04006,344.15262c0.83353,0 1.50924,0.63596 1.50924,1.42046c0,0.7845 -0.67571,1.42046 -1.50924,1.42046c-0.83353,0 -1.50924,-0.63596 -1.50924,-1.42046c0,-0.7845 0.67571,-1.42046 1.50924,-1.42046z"/><path d="M181.70398,341.20876c0.1474,0.30996 -0.41512,0.88556 -1.25642,1.28564c-0.84131,0.40008 -1.64281,0.47316 -1.79021,0.1632c-0.1474,-0.30995 0.41512,-0.88555 1.25643,-1.28564c0.84131,-0.40008 1.6428,-0.47316 1.7902,-0.1632z"/><path d="M177.43621,344.73867c0.27817,0.05349 0.38596,0.70892 0.24077,1.46394c-0.14519,0.75502 -0.48839,1.32373 -0.76655,1.27024c-0.27817,-0.05349 -0.38596,-0.70892 -0.24078,-1.46395c0.14519,-0.75502 0.48839,-1.32372 0.76656,-1.27023z"/><path d="M188.85132,344.39281c0.27629,-0.06249 0.63775,0.49479 0.80736,1.24471c0.1696,0.74991 0.08313,1.4085 -0.19315,1.47099c-0.27629,0.06249 -0.63775,-0.49479 -0.80736,-1.2447c-0.1696,-0.74991 -0.08313,-1.4085 0.19315,-1.47099z"/></g><g fill="#537830" stroke="none" stroke-width="0" stroke-linecap="butt"><path d="M159.14681,252.36454c-3.05244,-4.45148 -2.88134,-15.27109 -2.88134,-15.27109c0,0 7.32038,1.02307 10.37282,5.47455c3.05244,4.45148 3.4576,14.69483 3.4576,14.69483c0,0 -7.89664,-0.4468 -10.94908,-4.89827z"/><path d="M167.21283,256.97466c0,0 0.40517,-10.24335 3.45761,-14.69483c3.05244,-4.45148 10.37282,-5.47455 10.37282,-5.47455c0,0 0.1711,10.81963 -2.88134,15.27109c-3.05244,4.45148 -10.94909,4.89827 -10.94909,4.89827z" data-paper-data="{&quot;index&quot;:null}"/><path d="M169.61884,255.10893c0,0 5.64821,-8.55501 10.56392,-10.78409c4.91571,-2.22908 11.70888,0.68426 11.70888,0.68426c0,0 -5.45339,9.34634 -10.3691,11.57542c-4.91571,2.22908 -11.90371,-1.47559 -11.90371,-1.47559z" data-paper-data="{&quot;index&quot;:null}"/><path d="M154.34402,256.58448c-4.91572,-2.22908 -10.3691,-11.57542 -10.3691,-11.57542c0,0 6.79316,-2.91334 11.70888,-0.68426c4.91572,2.22908 10.56392,10.78409 10.56392,10.78409c0,0 -6.98799,3.70468 -11.90371,1.47559z" data-paper-data="{&quot;index&quot;:null}"/><path d="M167.65749,256.21092c0,0 -4.95634,-8.97359 -4.64931,-14.36235c0.30704,-5.38876 6.04042,-10.05382 6.04042,-10.05382c0,0 5.74771,9.16828 5.44068,14.55704c-0.30703,5.38876 -6.83179,9.85912 -6.83179,9.85912z" data-paper-data="{&quot;index&quot;:null}"/></g><path d="M157.01196,223.59864c0,0 0.18031,-4.0809 3.15838,-5.87072c5.82219,-3.49913 8.76341,1.84919 8.76341,2.80512c0,4.21596 0,20.9483 0,20.9483" fill="none" stroke="#537830" stroke-width="2.5" stroke-linecap="round"/><path d="M160.7628,230.89761c-0.20491,1.13297 -0.61771,2.15825 -1.17228,3.01508c-0.19622,0.30316 -0.63897,0.84353 -0.63897,0.84353c0,0 -1.58743,-1.45595 -2.10179,-2.49736c-0.42026,-0.85088 -0.75953,-3.29578 -0.75953,-3.29578c0,0 -1.27485,2.1836 -2.09371,2.91058c-0.79692,0.70751 -2.75545,1.39447 -2.75545,1.39447c0,0 -0.22057,-0.68392 -0.29373,-1.04835c-0.19297,-0.96118 -0.2093,-2.01772 -0.0136,-3.09985c0.64777,-3.58165 3.37321,-6.08721 6.08743,-5.59632c2.71422,0.49089 4.3894,3.79234 3.74164,7.37399z" fill="#537830" stroke="none" stroke-width="0" stroke-linecap="butt"/><path d="M464.2676,249.43424v-26.02704h28.32357v26.02704z" data-paper-data="{&quot;index&quot;:null}" fill="#5f7b8b" stroke="none" stroke-width="0" stroke-linecap="butt"/><path d="M437.381,216.33082c3.65621,-5.04306 14.4841,-19.97809 14.4841,-19.97809c0,0 -5.95556,-0.1326 -8.89959,-0.19812c-3.59486,-0.08003 -5.29064,-4.09774 -2.95241,-6.82943c4.69044,-5.47971 20.35212,-23.77687 20.35212,-23.77687c0,0 -6.41008,0.078 -9.19182,0.11186c-3.29686,0.04013 -2.97617,-3.91832 -0.84959,-6.43796c6.42863,-7.6169 16.6559,-19.75406 20.35259,-24.25075c3.56204,-4.33291 9.33049,-3.61715 12.92276,0.69071c3.74424,4.4901 13.09875,15.7081 19.37603,23.23587c2.50885,3.00863 1.44419,7.2988 -2.47301,7.25888c-2.54138,-0.02589 -7.33213,-0.07473 -7.33213,-0.07473c0,0 17.24825,19.19432 22.36364,24.88687c2.48693,2.76753 0.32531,6.77773 -3.39544,6.77019c-2.8386,-0.00575 -8.21903,-0.01666 -8.21903,-0.01666c0,0 9.96435,13.05673 13.6301,17.86014c2.51526,3.29589 2.15958,8.16692 -1.98642,8.16692c-10.36377,0 -55.31461,0 -74.65654,0c-5.47971,0 -3.52534,-7.41882 -3.52534,-7.41882z" data-paper-data="{&quot;index&quot;:null}" fill="#5f7b8b" stroke="none" stroke-width="0" stroke-linecap="butt"/><path d="M306.18933,261.97776v-24.50819h26.6707v24.50819z" data-paper-data="{&quot;index&quot;:null}" fill="#597683" stroke="none" stroke-width="0" stroke-linecap="butt"/><path d="M280.87174,230.80618c3.44285,-4.74876 13.63885,-18.81224 13.63885,-18.81224c0,0 -5.60801,-0.12486 -8.38024,-0.18656c-3.38507,-0.07536 -4.98189,-3.85861 -2.78012,-6.43089c4.41672,-5.15994 19.16444,-22.38933 19.16444,-22.38933c0,0 -6.036,0.07345 -8.65541,0.10533c-3.10446,0.03779 -2.80249,-3.68966 -0.80001,-6.06226c6.05348,-7.1724 15.68392,-18.60128 19.16488,-22.83556c3.35417,-4.08005 8.786,-3.40607 12.16863,0.6504c3.52574,4.22807 12.33435,14.79143 18.24531,21.8799c2.36244,2.83306 1.35991,6.87287 -2.3287,6.83527c-2.39307,-0.02438 -6.90425,-0.07037 -6.90425,-0.07037c0,0 16.2417,18.07421 21.05857,23.43456c2.3418,2.60602 0.30633,6.38221 -3.1973,6.3751c-2.67295,-0.00542 -7.73939,-0.01569 -7.73939,-0.01569c0,0 9.38286,12.29479 12.83469,16.81788c2.36848,3.10355 2.03356,7.69032 -1.8705,7.69032c-9.75898,0 -52.08663,0 -70.29984,0c-5.15994,0 -3.31962,-6.98588 -3.31962,-6.98588z" data-paper-data="{&quot;index&quot;:null}" fill="#597683" stroke="none" stroke-width="0" stroke-linecap="butt"/><path d="M345.17421,300.97776v-27.3617h29.77599v27.3617z" data-paper-data="{&quot;index&quot;:null}" fill="#4c6e72" stroke="none" stroke-width="0" stroke-linecap="butt"/><path d="M316.90889,266.17684c3.8437,-5.30167 15.22683,-21.00256 15.22683,-21.00256c0,0 -6.26095,-0.13939 -9.35595,-0.20828c-3.7792,-0.08413 -5.56194,-4.30788 -3.10381,-7.17964c4.93096,-5.76071 21.39577,-24.99613 21.39577,-24.99613c0,0 -6.73878,0.082 -9.66317,0.11759c-3.46591,0.04218 -3.12879,-4.11924 -0.89316,-6.76809c6.75829,-8.00749 17.51001,-20.76704 21.39627,-25.49432c3.7447,-4.5551 9.80895,-3.80264 13.58543,0.72613c3.93624,4.72035 13.77045,16.51361 20.36962,24.42739c2.63751,3.16291 1.51825,7.67308 -2.59983,7.63111c-2.6717,-0.02722 -7.70812,-0.07857 -7.70812,-0.07857c0,0 18.13274,20.1786 23.51043,26.16306c2.61446,2.90945 0.34199,7.12528 -3.56956,7.11736c-2.98416,-0.00605 -8.64049,-0.01752 -8.64049,-0.01752c0,0 10.47531,13.72628 14.32904,18.776c2.64424,3.4649 2.27033,8.58571 -2.08828,8.58571c-10.89522,0 -58.15112,0 -78.4849,0c-5.76071,0 -3.70612,-7.79925 -3.70612,-7.79925z" data-paper-data="{&quot;index&quot;:null}" fill="#4c6e72" stroke="none" stroke-width="0" stroke-linecap="butt"/><path d="M454.81232,370.9778v-32.75165h35.64154v32.75165z" data-paper-data="{&quot;index&quot;:null}" fill="#3a665c" stroke="none" stroke-width="0" stroke-linecap="butt"/><g fill="#3e6961" stroke="none" stroke-width="0" stroke-linecap="butt"><path d="M402.13738,347.55462c-3.55352,-5.18221 -3.35433,-17.77796 -3.35433,-17.77796c0,0 8.52207,1.19102 12.07559,6.37323c3.55352,5.18221 4.0252,17.10709 4.0252,17.10709c0,0 -9.19294,-0.52015 -12.74646,-5.70236z"/><path d="M411.52748,352.92155c0,0 0.47168,-11.92487 4.0252,-17.10709c3.55352,-5.18221 12.07559,-6.37323 12.07559,-6.37323c0,0 0.1992,12.59574 -3.35433,17.77796c-3.55352,5.18221 -12.74646,5.70236 -12.74646,5.70236z" data-paper-data="{&quot;index&quot;:null}"/><path d="M414.32846,350.74953c0,0 6.57541,-9.95937 12.29807,-12.55437c5.72266,-2.595 13.63098,0.79658 13.63098,0.79658c0,0 -6.3486,10.88061 -12.07126,13.47561c-5.72266,2.595 -13.85779,-1.71782 -13.85779,-1.71782z" data-paper-data="{&quot;index&quot;:null}"/><path d="M396.54617,352.46732c-5.72267,-2.595 -12.07126,-13.47561 -12.07126,-13.47561c0,0 7.90831,-3.39159 13.63097,-0.79658c5.72267,2.595 12.29807,12.55437 12.29807,12.55437c0,0 -8.13512,4.31282 -13.85779,1.71782z" data-paper-data="{&quot;index&quot;:null}"/><path d="M412.04514,352.03247c0,0 -5.76995,-10.44666 -5.41252,-16.72003c0.35743,-6.27336 7.032,-11.70422 7.032,-11.70422c0,0 6.69123,10.67332 6.33381,16.94669c-0.35743,6.27336 -7.95328,11.47757 -7.95328,11.47757z" data-paper-data="{&quot;index&quot;:null}"/></g><path d="M420.97904,329.32142c4.60086,-6.34604 18.22635,-25.13984 18.22635,-25.13984c0,0 -7.49429,-0.16685 -11.19897,-0.2493c-4.52366,-0.10071 -6.65758,-5.15648 -3.71523,-8.59395c5.90231,-6.89551 25.6105,-29.92009 25.6105,-29.92009c0,0 -8.06624,0.09815 -11.5667,0.14076c-4.14866,0.05049 -3.74512,-4.93069 -1.0691,-8.10133c8.08959,-9.58488 20.95929,-24.85792 25.6111,-30.51642c4.48237,-5.4524 11.74121,-4.55172 16.26161,0.86917c4.71163,5.6502 16.48308,19.76661 24.38222,29.23932c3.15707,3.78597 1.81732,9.1846 -3.11197,9.13436c-3.19799,-0.03258 -9.22653,-0.09405 -9.22653,-0.09405c0,0 21.70469,24.15357 28.14173,31.3169c3.12948,3.48258 0.40936,8.52889 -4.27273,8.5194c-3.57201,-0.00724 -10.34258,-0.02097 -10.34258,-0.02097c0,0 12.53883,16.43021 17.1517,22.47467c3.16513,4.14745 2.71756,10.27701 -2.49965,10.27701c-13.04147,0 -69.60626,0 -93.94557,0c-6.89551,0 -4.43619,-9.33562 -4.43619,-9.33562z" data-paper-data="{&quot;index&quot;:null}" fill="#3a665c" stroke="none" stroke-width="0" stroke-linecap="butt"/><g data-paper-data="{&quot;index&quot;:null}" fill="none" stroke="#6f859f" stroke-width="10" stroke-linecap="round"><path d="M398.60041,191.46438v10.97076"/><path d="M403.84017,186.87958v14.5731"/><path d="M408.58871,187.69829v13.59064"/><path d="M413.50099,184.75093v15.55556"/><path d="M418.08579,188.35327v12.44444"/><path d="M422.50684,194.24799v8.18713"/><path d="M394.50684,199.979v3.4386"/></g><g><g data-paper-data="{&quot;index&quot;:null}" fill="none" stroke="#4b7072" stroke-width="20" stroke-linecap="round"><path d="M297.18763,267.98864v-15.68806"/><path d="M289.69482,266.58376v-20.83936"/><path d="M282.90446,246.91515v19.43446"/><path d="M275.87996,242.70045v22.24426"/><path d="M269.32375,247.85173v17.79541"/><path d="M263.0017,267.98866v-11.70751"/><path d="M303.04138,269.39356v-4.91715"/></g><path d="M270.25333,249.84176c0,-1.68113 1.36282,-3.04395 3.04395,-3.04395c1.68113,0 3.04395,1.36282 3.04395,3.04395c0,1.68113 -1.36282,3.04395 -3.04395,3.04395c-1.68113,0 -3.04395,-1.36282 -3.04395,-3.04395z" fill-opacity="0.0549" fill="#000000" stroke="none" stroke-width="0" stroke-linecap="butt"/><path d="M280.55594,252.88571c0,-1.42249 1.15316,-2.57565 2.57565,-2.57565c1.42249,0 2.57565,1.15316 2.57565,2.57565c0,1.42249 -1.15316,2.57565 -2.57565,2.57565c-1.42249,0 -2.57565,-1.15316 -2.57565,-2.57565z" fill-opacity="0.0549" fill="#000000" stroke="none" stroke-width="0" stroke-linecap="butt"/><path d="M262.52638,258.27117c0,-1.55181 1.25799,-2.8098 2.8098,-2.8098c1.55181,0 2.8098,1.25799 2.8098,2.8098c0,1.55181 -1.25799,2.8098 -2.8098,2.8098c-1.55181,0 -2.8098,-1.25799 -2.8098,-2.8098z" fill-opacity="0.0549" fill="#000000" stroke="none" stroke-width="0" stroke-linecap="butt"/><path d="M272.12654,259.559c0,-1.22852 0.99591,-2.22443 2.22443,-2.22443c1.22852,0 2.22443,0.99591 2.22443,2.22443c0,1.22852 -0.99591,2.22443 -2.22443,2.22443c-1.22852,0 -2.22443,-0.99591 -2.22443,-2.22443z" fill-opacity="0.0549" fill="#000000" stroke="none" stroke-width="0" stroke-linecap="butt"/><path d="M282.42914,262.83709c0,-1.87511 1.52007,-3.39518 3.39518,-3.39518c1.8751,0 3.39518,1.52007 3.39518,3.39518c0,1.87511 -1.52007,3.39518 -3.39518,3.39518c-1.8751,0 -3.39518,-1.52007 -3.39518,-3.39518z" fill-opacity="0.0549" fill="#000000" stroke="none" stroke-width="0" stroke-linecap="butt"/><path d="M293.9025,253.70526c0,-1.0992 0.89108,-1.99028 1.99028,-1.99028c1.0992,0 1.99028,0.89108 1.99028,1.99028c0,1.0992 -0.89108,1.99028 -1.99028,1.99028c-1.0992,0 -1.99028,-0.89108 -1.99028,-1.99028z" fill-opacity="0.0549" fill="#000000" stroke="none" stroke-width="0" stroke-linecap="butt"/><path d="M287.3463,247.50029c0,-0.90522 0.73383,-1.63905 1.63905,-1.63905c0.90522,0 1.63905,0.73383 1.63905,1.63905c0,0.90522 -0.73383,1.63905 -1.63905,1.63905c-0.90522,0 -1.63905,-0.73383 -1.63905,-1.63905z" fill-opacity="0.0549" fill="#000000" stroke="none" stroke-width="0" stroke-linecap="butt"/></g><path d="M253.04602,271.07196c6.51376,1.34205 6.83098,5.54825 6.83098,5.54825c0,0 6.07375,-5.18624 11.16527,-1.96337c5.49145,3.47604 6.08236,8.19695 6.08236,8.19695c0,0 6.15769,-5.01644 12.14011,-1.29406c5.93076,3.69023 4.38858,10.56121 4.38858,10.56121c0,0 7.60298,2.20624 9.26619,6.23516c1.66321,4.02892 0.39399,12.43665 0.39399,12.43665l-59.29283,-33.21224c0,0 4.95333,-7.19605 9.02536,-6.50856z" fill="#50682a" stroke="none" stroke-width="0" stroke-linecap="butt"/><path d="M14.4596,256.22731c0,0 0,-33.18384 0,-38.83803c0,-4.50126 -3.36088,-7.49103 -7.86215,-7.49103c-2.53857,0 -7.53584,0 -7.53584,0l0.03051,-24.93753c0,0 4.73665,-0.01476 7.21509,-0.02248c4.63284,-0.01443 8.15241,-3.00898 8.15241,-7.64184c0,-6.35568 0,-29.75531 0,-29.75531h38.82434c0,0 0,22.26071 0,28.5932c0,5.00799 3.50751,8.21717 8.51545,8.19469c12.92078,-0.05801 89.06195,-0.35043 89.06195,-0.35043l0.35467,25.20075c0,0 -76.89268,0.15188 -89.7098,0.18143c-4.8624,0.01121 -8.22225,3.16615 -8.22225,8.02856c0,5.7757 0,38.83803 0,38.83803z" fill-opacity="0.09804" fill="#000000" stroke="none" stroke-width="0" stroke-linecap="butt"/><path d="M58.80768,205.83089v-5.0942h23.53278v5.0942z" fill-opacity="0.09804" fill="#000000" stroke="none" stroke-width="0" stroke-linecap="butt"/><path d="M58.80768,199.20841v-5.0942h23.53278v5.0942z" fill-opacity="0.09804" fill="#000000" stroke="none" stroke-width="0" stroke-linecap="butt"/><path d="M58.80768,192.33126v-5.0942h23.53278v5.0942z" fill-opacity="0.09804" fill="#000000" stroke="none" stroke-width="0" stroke-linecap="butt"/><path d="M32.07909,236.04581v-7.55373h2.97571v7.55373z" fill-opacity="0.09804" fill="#000000" stroke="none" stroke-width="0" stroke-linecap="butt"/><path d="M32.07909,223.84362v-7.55373h2.97571v7.55373z" fill-opacity="0.09804" fill="#000000" stroke="none" stroke-width="0" stroke-linecap="butt"/><path d="M32.07909,177.35911v-7.55373h2.97571v7.55373z" fill-opacity="0.09804" fill="#000000" stroke="none" stroke-width="0" stroke-linecap="butt"/><path d="M32.07909,165.15688v-7.55373h2.97571v7.55373z" fill-opacity="0.09804" fill="#000000" stroke="none" stroke-width="0" stroke-linecap="butt"/><path d="M32.07909,152.66419v-5.2295h2.97571v5.2295z" fill-opacity="0.09804" fill="#000000" stroke="none" stroke-width="0" stroke-linecap="butt"/><path d="M114.18851,197.0901h-9.27553v-1.98381h9.27553z" fill-opacity="0.09804" fill="#000000" stroke="none" stroke-width="0" stroke-linecap="butt"/><path d="M99.20495,197.0901h-9.27554v-1.98381h9.27554z" fill-opacity="0.09804" fill="#000000" stroke="none" stroke-width="0" stroke-linecap="butt"/><path d="M144.11291,197.0901h-9.27554v-1.98381h9.27554z" fill-opacity="0.09804" fill="#000000" stroke="none" stroke-width="0" stroke-linecap="butt"/><path d="M129.12935,197.0901h-9.27554v-1.98381h9.27554z" fill-opacity="0.09804" fill="#000000" stroke="none" stroke-width="0" stroke-linecap="butt"/><path d="M11.14886,260.63293c0,0 2.5305,-13.48016 9.25071,-15.47056c7.79328,-2.62926 10.99345,-0.426 10.99345,-0.426c0,0 2.60482,-9.47719 11.30719,-10.02051c8.62721,-0.53862 12.00595,7.49402 12.00595,7.49402c0,0 9.24721,-3.23497 13.81623,-0.36827c4.56902,2.8667 9.32622,12.2523 9.32622,12.2523z" fill="#51732e" stroke="none" stroke-width="0" stroke-linecap="butt"/><g fill-opacity="0.0549" fill="#000000" stroke="none" stroke-width="0" stroke-linecap="butt"><path d="M23.77632,266.47686v-4.55151l-7.71778,-0.98946c0,0 -0.57407,-11.56934 10.48914,-11.78218c10.43292,-0.20072 10.68528,11.58429 10.68528,11.58429l-7.322,1.18735v4.55151z"/><path d="M25.88061,256.73033c0,1.4208 -1.24039,2.57259 -2.77048,2.57259c-1.5301,0 -2.77048,-1.15179 -2.77048,-2.57259c0,-1.4208 1.24039,-2.57259 2.77048,-2.57259c1.5301,0 2.77048,1.15179 2.77048,2.57259z"/><path d="M31.15772,251.84901c0,0.76505 -1.00412,1.38524 -2.24277,1.38524c-1.23865,0 -2.24278,-0.62019 -2.24278,-1.38524c0,-0.76505 1.00413,-1.38524 2.24278,-1.38524c1.23865,0 2.24277,0.62019 2.24277,1.38524z"/><path d="M30.89387,255.34512c1.23865,0 2.24277,0.94505 2.24277,2.11084c0,1.16579 -1.00412,2.11084 -2.24277,2.11084c-1.23865,0 -2.24278,-0.94505 -2.24278,-2.11084c0,-1.16579 1.00413,-2.11084 2.24278,-2.11084z"/><path d="M24.45032,250.9704c0.21904,0.4606 -0.61688,1.31597 -1.86709,1.91051c-1.2502,0.59454 -2.44126,0.70312 -2.6603,0.24252c-0.21904,-0.4606 0.61688,-1.31597 1.86709,-1.91051c1.2502,-0.59454 2.44126,-0.70312 2.6603,-0.24252z"/><path d="M18.10827,256.21592c0.41336,0.07949 0.57355,1.05348 0.3578,2.17547c-0.21576,1.12199 -0.72577,1.9671 -1.13913,1.88761c-0.41336,-0.07949 -0.57355,-1.05348 -0.35779,-2.17547c0.21576,-1.12199 0.72576,-1.96711 1.13913,-1.88761z"/><path d="M35.07151,255.70199c0.41057,-0.09286 0.94772,0.73527 1.19975,1.84967c0.25204,1.1144 0.12353,2.09307 -0.28704,2.18593c-0.41057,0.09286 -0.94772,-0.73527 -1.19975,-1.84967c-0.25204,-1.1144 -0.12353,-2.09307 0.28704,-2.18593z"/></g><path d="M-8.39959,144.40321v-53h40v53z" fill="#744992" stroke="none" stroke-width="0" stroke-linecap="butt"/><path d="M16.60041,133.90321v-30h40v30z" fill="#744992" stroke="none" stroke-width="0" stroke-linecap="butt"/><path d="M69.60041,158.90321v-68.9h52v68.9z" fill="#6f468e" stroke="none" stroke-width="0" stroke-linecap="butt"/><path d="M121.35041,155.74696v-32.7183c0,0 10.99166,-6.57618 14.33842,-8.5785c2.44609,-1.46347 5.57864,-1.59357 7.96146,-0.0865c3.15077,1.99278 13.70013,8.665 13.70013,8.665v32.7183z" fill="#6f468e" stroke="none" stroke-width="0" stroke-linecap="butt"/><g fill-opacity="0.09804" fill="#000000" stroke="none" stroke-width="0" stroke-linecap="butt"><path d="M76.17766,103.87527v-7.64221h7.47824v7.64221z"/><path d="M85.3555,103.87527v-7.64221h7.47824v7.64221z"/><path d="M94.84396,103.87527v-7.64221h7.47825v7.64221z"/><path d="M104.02183,103.87527v-7.64221h7.47824v7.64221z"/><path d="M76.17766,113.63919v-7.64221h7.47824v7.64221z"/><path d="M85.3555,113.63919v-7.64221h7.47824v7.64221z"/><path d="M94.84396,113.63919v-7.64221h7.47825v7.64221z"/><path d="M104.02183,113.63919v-7.64221h7.47824v7.64221z"/></g><g fill-opacity="0.09804" fill="#000000" stroke="none" stroke-width="0" stroke-linecap="butt"><path d="M4.94964,110.87527v-7.64221h10.12468v7.64221z"/><path d="M17.37541,110.87527v-7.64221h10.12466v7.64221z"/><path d="M127.67767,136.1392v-7.6422h10.12466v7.6422z"/><path d="M4.94964,120.63921v-7.64221h10.12468v7.64221z"/><path d="M17.37541,120.63921v-7.64221h10.12466v7.64221z"/></g><path d="M141.17766,153.6392v-13.6422h10.12466v13.6422z" fill-opacity="0.09804" fill="#000000" stroke="none" stroke-width="0" stroke-linecap="butt"/><path d="M10.10041,92.69257v-7.5h5v7.5z" fill="#744992" stroke="none" stroke-width="0" stroke-linecap="butt"/><path d="M18.10041,91.69257v-9h4.5v9z" fill="#744992" stroke="none" stroke-width="0" stroke-linecap="butt"/><path d="M79.60041,90.69257v-4.5h5v4.5z" fill="#744992" stroke="none" stroke-width="0" stroke-linecap="butt"/><path d="M107.60041,91.19257v-9.5h4v9.5z" fill="#744992" stroke="none" stroke-width="0" stroke-linecap="butt"/><path d="M233.60041,157.40321v-53h40v53z" fill="#744992" stroke="none" stroke-width="0" stroke-linecap="butt"/><path d="M258.60041,146.90321v-30h40v30z" fill="#744992" stroke="none" stroke-width="0" stroke-linecap="butt"/><path d="M252.10041,105.69257v-7.5h5v7.5z" fill="#744992" stroke="none" stroke-width="0" stroke-linecap="butt"/><path d="M260.10041,104.69257v-9h4.5v9z" fill="#744992" stroke="none" stroke-width="0" stroke-linecap="butt"/><g fill-opacity="0.09804" fill="#000000" stroke="none" stroke-width="0" stroke-linecap="butt"><path d="M250.44964,117.37527v-7.64221h7.91459v7.64221z"/><path d="M260.16303,117.37527v-7.64221h7.91458v7.64221z"/><path d="M250.44964,127.13921v-7.64221h7.91459v7.64221z"/><path d="M260.16303,127.13921v-7.64221h7.91458v7.64221z"/></g><path d="M220.80002,173.1392v-31.90861h3.68886v31.90861z" fill="#6d468c" stroke="none" stroke-width="0" stroke-linecap="butt"/><path d="M212.50009,136.43507c0,-5.60257 4.54179,-10.14436 10.14436,-10.14436c5.60257,0 10.14436,4.54178 10.14436,10.14436c0,5.60257 -4.54178,10.14436 -10.14436,10.14436c-5.60257,0 -10.14436,-4.54178 -10.14436,-10.14436z" fill="#6d468c" stroke="none" stroke-width="0" stroke-linecap="butt"/><path d="M203.80248,218.57469c2.69528,-3.71763 10.67735,-14.7274 10.67735,-14.7274c0,0 -4.3903,-0.09774 -6.56057,-0.14605c-2.65005,-0.059 -3.90014,-3.02077 -2.17645,-5.0345c3.45769,-4.03952 15.00313,-17.52777 15.00313,-17.52777c0,0 -4.72536,0.0575 -6.776,0.08246c-2.43037,0.02958 -2.19397,-2.88849 -0.6263,-4.74592c4.73904,-5.61501 12.27836,-14.56225 15.00348,-17.87711c2.62586,-3.19412 6.87823,-2.66649 9.52637,0.50917c2.76017,3.31 9.65611,11.57966 14.28358,17.12896c1.84947,2.21789 1.06462,5.38051 -1.82305,5.35108c-1.87345,-0.01909 -5.40508,-0.05509 -5.40508,-0.05509c0,0 12.71503,14.14963 16.48597,18.34605c1.83331,2.04016 0.23981,4.99639 -2.50305,4.99083c-2.09255,-0.00424 -6.05888,-0.01228 -6.05888,-0.01228c0,0 7.34549,9.62513 10.0478,13.1661c1.85419,2.42966 1.592,6.02047 -1.46434,6.02047c-7.63994,0 -40.77669,0 -55.03513,0c-4.03952,0 -2.5988,-5.46899 -2.5988,-5.46899z" data-paper-data="{&quot;index&quot;:null}" fill="#5e7789" stroke="none" stroke-width="0" stroke-linecap="butt"/><path d="M202.53765,166.96701h-9.02114v-17.19945h9.02114z" fill-opacity="0.09804" fill="#000000" stroke="none" stroke-width="0" stroke-linecap="butt"/><path d="M190.81016,166.96701h-9.02114v-17.19945h9.02114z" fill-opacity="0.09804" fill="#000000" stroke="none" stroke-width="0" stroke-linecap="butt"/><path d="M178.63164,166.96701h-9.02114v-17.19945h9.02114z" fill-opacity="0.09804" fill="#000000" stroke="none" stroke-width="0" stroke-linecap="butt"/><path d="M401.27232,46.77764c23.2704,15.38247 -13.11904,38.01508 -35.16395,38.01508c-22.04491,0 -84.10837,-24.7098 -84.10837,-24.7098c0,0 70.61685,-19.95792 92.66176,-19.95792c22.04491,0 19.6798,2.07119 26.61056,6.65264z" fill="url(#color-15)" stroke="none" stroke-width="0" stroke-linecap="butt"/><g fill="#e07b57" stroke="none" stroke-width="0" stroke-linecap="butt"><path d="M249.02679,63.02838c0,0 0.0234,-23.33732 0,-28.70606c-0.05708,-13.0944 7.41439,-11.29445 7.91892,0c0.49993,11.19175 0,28.70606 0,28.70606z"/><path d="M241.93276,44.34272c-3.84691,-2.63964 -1.97973,-8.57882 -1.97973,-8.57882c0,0 1.36165,-2.1447 1.97973,-2.1447c0.64555,0 1.81475,2.1447 1.81475,2.1447c0,0 -0.30109,5.60923 1.31982,5.60923c1.94809,0 4.94932,0.16498 4.94932,0.16498v4.12444c0,0 -6.42755,-0.18329 -8.08389,-1.31982z"/><path d="M256.5907,56.58597v-3.33345c0,0 2.42565,-0.13333 4.00014,-0.13333c1.31005,0 1.06671,-4.53349 1.06671,-4.53349c0,0 0.94496,-1.7334 1.46671,-1.7334c0.49953,0 1.60006,1.7334 1.60006,1.7334c0,0 1.50909,4.80017 -1.60006,6.93356c-1.33869,0.91857 -6.53356,1.06671 -6.53356,1.06671z" data-paper-data="{&quot;index&quot;:null}"/><path d="M253.67299,39.80914v-3.33345c0,0 2.42565,-0.13333 4.00014,-0.13333c1.31005,0 1.06671,-4.53349 1.06671,-4.53349c0,0 0.94496,-1.7334 1.46671,-1.7334c0.49953,0 1.60006,1.7334 1.60006,1.7334c0,0 1.50909,4.80017 -1.60006,6.93357c-1.33869,0.91857 -6.53356,1.06671 -6.53356,1.06671z" data-paper-data="{&quot;index&quot;:null}"/><path d="M270.98489,62.29897c0,0 -0.26879,-9.4167 0,-15.43402c0.27126,-6.07254 4.28834,-7.04029 4.25766,0c-0.01258,2.88654 0,15.43402 0,15.43402z" data-paper-data="{&quot;index&quot;:null}"/><path d="M274.71034,52.96208v-2.21753c0,0 1.61363,-0.0887 2.66104,-0.0887c0.8715,0 0.70961,-3.01584 0.70961,-3.01584c0,0 0.62863,-1.15312 0.97571,-1.15312c0.33231,0 1.06442,1.15312 1.06442,1.15312c0,0 1.00391,3.19324 -1.06442,4.61246c-0.89054,0.61107 -4.34636,0.70961 -4.34636,0.70961z" data-paper-data="{&quot;index&quot;:null}"/></g><g data-paper-data="{&quot;index&quot;:null}" fill="#c35e4c" stroke="none" stroke-width="0" stroke-linecap="butt"><path d="M410.51528,137.02838c0,0 -0.68344,-23.9432 0,-39.24305c0.68971,-15.44025 10.9037,-17.90089 10.82567,0c-0.03199,7.33942 0,39.24305 0,39.24305z"/><path d="M419.98776,113.28814v-5.63837c0,0 4.10287,-0.22553 6.76604,-0.22553c2.21589,0 1.80427,-7.66818 1.80427,-7.66818c0,0 1.59837,-2.93195 2.48088,-2.93195c0.84495,0 2.70642,2.93195 2.70642,2.93195c0,0 2.55256,8.11926 -2.70642,11.72781c-2.26433,1.55371 -11.0512,1.80427 -11.0512,1.80427z"/><path d="M402.0688,126.76295c-4.2504,-2.9165 -2.18738,-9.47863 -2.18738,-9.47863c0,0 1.50449,-2.36967 2.18738,-2.36967c0.71327,0 2.00509,2.36967 2.00509,2.36967c0,0 -0.33268,6.19757 1.45825,6.19757c2.15243,0 5.46845,0.18228 5.46845,0.18228v4.55704c0,0 -7.10172,-0.20252 -8.93179,-1.45826z" data-paper-data="{&quot;index&quot;:null}"/><path d="M406.05751,103.8279c-4.2504,-2.9165 -2.18738,-9.47864 -2.18738,-9.47864c0,0 1.50449,-2.36967 2.18738,-2.36967c0.71327,0 2.00509,2.36967 2.00509,2.36967c0,0 -0.33268,6.19757 1.45825,6.19757c2.15243,0 5.46845,0.18228 5.46845,0.18228v4.55704c0,0 -7.10172,-0.20251 -8.93179,-1.45825z" data-paper-data="{&quot;index&quot;:null}"/><path d="M385.50232,136.03121c0,0 0.0172,-17.15321 0,-21.09931c-0.04195,-9.62454 5.44967,-8.30156 5.8205,0c0.36745,8.22607 0,21.09931 0,21.09931z" data-paper-data="{&quot;index&quot;:null}"/><path d="M380.28811,122.29701c-2.82753,-1.94017 -1.45512,-6.30554 -1.45512,-6.30554c0,0 1.00084,-1.57639 1.45512,-1.57639c0.47449,0 1.33387,1.57639 1.33387,1.57639c0,0 -0.2213,4.12285 0.97009,4.12285c1.43187,0 3.63781,0.12127 3.63781,0.12127v3.03151c0,0 -4.72433,-0.13472 -5.94176,-0.97008z" data-paper-data="{&quot;index&quot;:null}"/></g><path d="M266.3302,84.05888c0,5.22702 -5.96771,9.46437 -13.32927,9.46437c-7.36156,0 -16.9883,-2.65995 -16.9883,-7.88698c0,-5.22702 4.39957,-13.14495 11.76113,-13.14495c7.36156,0 18.55644,6.34053 18.55644,11.56756z" data-paper-data="{&quot;index&quot;:null}" fill="#d46f53" stroke="none" stroke-width="0" stroke-linecap="butt"/><path d="M307.60084,89.6033c2.65792,5.48087 -24.99238,1.03632 -29.66273,3.32797c-4.67035,2.29165 -20.01999,-1.34531 -22.67791,-6.82618c-2.65792,-5.48087 13.60953,-14.93653 18.27989,-17.22818c4.67035,-2.29165 31.40283,15.24552 34.06075,20.72639z" data-paper-data="{&quot;index&quot;:null}" fill="#d46f53" stroke="none" stroke-width="0" stroke-linecap="butt"/><path d="M234.70584,78.8009c4.47467,0 8.1021,2.47178 8.1021,5.52088c0,3.0491 -2.16589,8.4612 -6.64056,8.4612c-4.47466,0 -11.51237,-0.02152 -11.51237,-3.07062c0,-3.0491 5.57617,-10.91146 10.05084,-10.91146z" data-paper-data="{&quot;index&quot;:null}" fill="#d46f53" stroke="none" stroke-width="0" stroke-linecap="butt"/><path d="M362.3302,115.2589c0,6.22114 -7.1027,11.26436 -15.86432,11.26436c-8.76163,0 -20.21925,-3.16583 -20.21925,-9.38698c0,-6.22114 5.23631,-15.64495 13.99794,-15.64495c8.76163,0 22.08564,7.54642 22.08564,13.76756z" data-paper-data="{&quot;index&quot;:null}" fill="#c8634e" stroke="none" stroke-width="0" stroke-linecap="butt"/><path d="M324.69129,109.00089c5.3257,0 9.64302,2.94188 9.64302,6.57088c0,3.629 -2.57781,10.0704 -7.90351,10.0704c-5.32569,0 -13.70188,-0.02561 -13.70188,-3.65461c0,-3.629 6.63668,-12.98668 11.96237,-12.98668z" data-paper-data="{&quot;index&quot;:null}" fill="#c8634e" stroke="none" stroke-width="0" stroke-linecap="butt"/><path d="M485.93419,92.84677c5.99686,2.94254 26.88472,15.08387 23.47188,22.12146c-3.41285,7.03759 -23.12221,11.70754 -29.11907,8.765c-5.99686,-2.94254 -41.5006,2.76438 -38.08776,-4.27321c3.41285,-7.03759 37.73808,-29.5558 43.73494,-26.61326z" data-paper-data="{&quot;index&quot;:null}" fill="#c7624e" stroke="none" stroke-width="0" stroke-linecap="butt"/><path d="M465.78736,78.58903c2.66734,5.50029 -25.08094,1.03999 -29.76784,3.33976c-4.6869,2.29977 -20.09094,-1.35008 -22.75828,-6.85037c-2.66734,-5.50029 13.65777,-14.98947 18.34467,-17.28924c4.6869,-2.29977 31.51411,15.29955 34.18146,20.79984z" data-paper-data="{&quot;index&quot;:null}" fill="#d77254" stroke="none" stroke-width="0" stroke-linecap="butt"/><g data-paper-data="{&quot;index&quot;:null}"><path d="M65.84037,73.91078c1.76854,-2.0261 4.22094,-2.77933 5.47765,-1.68241c1.2567,1.09693 0.8418,3.62867 -0.92673,5.65476c-1.76854,2.0261 -4.22096,2.77933 -5.47766,1.68241c-1.25669,-1.09693 -0.84178,-3.62867 0.92676,-5.65476z" fill="#467759" stroke="none" stroke-width="0" stroke-linecap="butt"/><path d="M65.36099,65.56519v13.19094" fill="#487c58" stroke="#467759" stroke-width="3.5" stroke-linecap="round"/><path d="M59.22381,68.24548c1.2567,-1.09691 3.70911,-0.34367 5.47765,1.68241c1.76854,2.02609 2.18346,4.55784 0.92676,5.65476c-1.25672,1.09693 -3.70912,0.34367 -5.47766,-1.68241c-1.76851,-2.02608 -2.18343,-4.55782 -0.92673,-5.65474z" data-paper-data="{&quot;index&quot;:null}" fill="#467759" stroke="none" stroke-width="0" stroke-linecap="butt"/><path d="M71.61986,58.73265c0,3.55093 -2.87861,6.42951 -6.42951,6.42951c-3.55094,0 -6.42953,-2.8786 -6.42953,-6.42953c0,-2.71786 -0.1027,0.3032 -0.02462,-2.47571c0.21715,-7.7287 1.897,-5.80692 3.46224,-0.55049c0.13992,0.46989 0.32816,0.69008 0.32816,0.69008c0,0 0.21189,-0.30825 0.38469,-0.90446c1.88782,-6.5133 3.59891,-5.12078 4.64697,-0.32599c0.18148,0.83034 0.43275,1.17171 0.43275,1.17171c0,0 -0.01343,-0.12503 0.34471,-1.15059c2.11292,-6.05056 3.06674,-5.10458 3.21331,0.99342c0.05343,2.22235 0.07078,-0.20706 0.07078,2.552z" fill="#467759" stroke="none" stroke-width="0" stroke-linecap="butt"/><path d="M51.54214,77.81531c1.15771,-1.32632 2.7631,-1.8194 3.58576,-1.10133c0.82266,0.71807 0.55106,2.37539 -0.60665,3.7017c-1.15771,1.32632 -2.76311,1.8194 -3.58577,1.10133c-0.82266,-0.71807 -0.55104,-2.37539 0.60667,-3.7017z" data-paper-data="{&quot;index&quot;:null}" fill="#467759" stroke="none" stroke-width="0" stroke-linecap="butt"/><path d="M51.22833,72.35214v8.63501" data-paper-data="{&quot;index&quot;:null}" fill="#487c58" stroke="#467759" stroke-width="3.5" stroke-linecap="round"/><path d="M55.32549,67.87945c0,2.32449 -1.88439,4.20887 -4.20887,4.20887c-2.32451,0 -4.20888,-1.88439 -4.20888,-4.20888c0,-1.77915 -0.06723,0.19848 -0.01612,-1.62063c0.14215,-5.05933 1.2418,-3.80131 2.26644,-0.36036c0.0916,0.3076 0.21482,0.45174 0.21482,0.45174c0,0 0.13871,-0.20179 0.25183,-0.59208c1.23579,-4.26371 2.3559,-3.35215 3.04198,-0.2134c0.1188,0.54355 0.28329,0.76702 0.28329,0.76702c0,0 -0.00879,-0.08184 0.22566,-0.75319c1.38315,-3.9608 2.00754,-3.34154 2.10349,0.65032c0.03497,1.45479 0.04633,-0.13555 0.04633,1.67058z" data-paper-data="{&quot;index&quot;:null}" fill="#467759" stroke="none" stroke-width="0" stroke-linecap="butt"/></g><path d="M8.2528,72.16536c0,0 2.50361,-16.20414 2.83626,-27.34817c0.49215,-16.48709 -0.16959,-61.98517 -0.16959,-61.98517h18.66667c0,0 -0.64205,46.15813 -0.14971,62.65125c0.32703,10.95544 2.81638,26.6821 2.81638,26.6821z" fill="#487b58" stroke="none" stroke-width="0" stroke-linecap="butt"/><g data-paper-data="{&quot;index&quot;:null}" fill="none" stroke="#4a7d58" stroke-width="10" stroke-linecap="round"><path d="M117.08936,60.54884v-11.16667"/><path d="M111.75603,44.71548v14.83333"/><path d="M106.9227,45.54882v13.83334"/><path d="M101.9227,42.54882v15.83333"/><path d="M97.25603,58.88215v-12.66667"/><path d="M92.75603,60.54882v-8.33334"/><path d="M121.25602,61.54882v-3.5"/></g><g data-paper-data="{&quot;index&quot;:null}" fill="none" stroke="#4e8557" stroke-width="10" stroke-linecap="round"><path d="M53.09227,39.26813v-14.30117"/><path d="M59.92269,37.9874v-18.99707"/><path d="M66.11273,37.77398v-17.71638"/><path d="M72.51625,16.21548v20.27778"/><path d="M78.49286,37.13362v-16.22223"/><path d="M84.25602,39.26811v-10.67252"/><path d="M47.75602,40.54881v-4.48246"/></g><path d="M137.2528,35.16536c0,0 3.0252,-19.58 3.42715,-33.0457c0.59469,-19.92191 0.79507,-25.89874 0.79507,-25.89874h22.55556c0,0 -1.7758,6.7744 -1.18091,26.70358c0.39516,13.23782 3.40313,32.24087 3.40313,32.24087z" fill="#508857" stroke="none" stroke-width="0" stroke-linecap="butt"/><path d="M176.2528,40.16536c0,0 2.50361,-16.20414 2.83627,-27.34817c0.49215,-16.48709 -0.1696,-61.98517 -0.1696,-61.98517h18.66667c0,0 -0.64204,46.15813 -0.14972,62.65125c0.32703,10.95544 2.81639,26.68211 2.81639,26.68211z" fill="#4f8658" stroke="none" stroke-width="0" stroke-linecap="butt"/><g data-paper-data="{&quot;index&quot;:null}"><path d="M223.84037,29.91079c1.76854,-2.0261 4.22094,-2.77933 5.47765,-1.68241c1.2567,1.09693 0.8418,3.62867 -0.92673,5.65476c-1.76854,2.0261 -4.22096,2.77933 -5.47766,1.68241c-1.25669,-1.09693 -0.84178,-3.62867 0.92676,-5.65476z" fill="#4f8757" stroke="none" stroke-width="0" stroke-linecap="butt"/><path d="M223.36099,21.5652v13.19094" fill="#487c58" stroke="#4f8757" stroke-width="3.5" stroke-linecap="round"/><path d="M217.22381,24.24549c1.2567,-1.09691 3.70911,-0.34367 5.47765,1.68241c1.76854,2.02609 2.18346,4.55784 0.92676,5.65476c-1.25672,1.09693 -3.70912,0.34367 -5.47766,-1.68241c-1.76851,-2.02608 -2.18343,-4.55782 -0.92673,-5.65474z" data-paper-data="{&quot;index&quot;:null}" fill="#4f8757" stroke="none" stroke-width="0" stroke-linecap="butt"/><path d="M229.61986,14.73265c0,3.55093 -2.87861,6.42951 -6.42951,6.42951c-3.55094,0 -6.42953,-2.8786 -6.42953,-6.42953c0,-2.71786 -0.1027,0.3032 -0.02462,-2.47571c0.21715,-7.7287 1.897,-5.80692 3.46224,-0.55049c0.13992,0.46989 0.32816,0.69008 0.32816,0.69008c0,0 0.21189,-0.30825 0.38469,-0.90446c1.88782,-6.5133 3.59891,-5.12078 4.64697,-0.32599c0.18148,0.83034 0.43275,1.17171 0.43275,1.17171c0,0 -0.01343,-0.12503 0.34471,-1.15059c2.11292,-6.05056 3.06674,-5.10458 3.21331,0.99342c0.05343,2.22235 0.07078,-0.20706 0.07078,2.552z" fill="#4f8757" stroke="none" stroke-width="0" stroke-linecap="butt"/><path d="M209.54214,33.81532c1.15771,-1.32632 2.7631,-1.8194 3.58576,-1.10133c0.82266,0.71807 0.55106,2.37539 -0.60665,3.7017c-1.15771,1.32632 -2.76311,1.8194 -3.58577,1.10133c-0.82266,-0.71807 -0.55104,-2.37539 0.60667,-3.7017z" data-paper-data="{&quot;index&quot;:null}" fill="#4f8757" stroke="none" stroke-width="0" stroke-linecap="butt"/><path d="M209.22833,28.35214v8.63501" data-paper-data="{&quot;index&quot;:null}" fill="#487c58" stroke="#4f8757" stroke-width="3.5" stroke-linecap="round"/><path d="M213.32549,23.87945c0,2.32449 -1.88439,4.20887 -4.20887,4.20887c-2.32451,0 -4.20888,-1.88439 -4.20888,-4.20888c0,-1.77915 -0.06723,0.19848 -0.01612,-1.62063c0.14215,-5.05933 1.2418,-3.80131 2.26644,-0.36036c0.0916,0.3076 0.21482,0.45174 0.21482,0.45174c0,0 0.13871,-0.20179 0.25183,-0.59208c1.23579,-4.26371 2.3559,-3.35215 3.04198,-0.2134c0.1188,0.54355 0.28329,0.76702 0.28329,0.76702c0,0 -0.00879,-0.08184 0.22566,-0.75319c1.38315,-3.9608 2.00754,-3.34154 2.10349,0.65032c0.03497,1.45479 0.04633,-0.13555 0.04633,1.67058z" data-paper-data="{&quot;index&quot;:null}" fill="#4f8757" stroke="none" stroke-width="0" stroke-linecap="butt"/></g><path d="M349.74634,24.06167c0.60832,0 1.19636,-0.12504 1.76412,-0.37513c0.56776,-0.25009 1.09497,-0.60832 1.58162,-1.07469l0.53735,0.59818c-1.70329,2.1629 -3.65328,3.24435 -5.84997,3.24435c-1.26395,0 -2.36229,-0.28388 -3.29504,-0.85164c-0.93275,-0.56776 -1.65597,-1.36871 -2.16966,-2.40285c-0.51369,-1.0409 -0.77053,-2.26091 -0.77053,-3.66003c0,-1.20312 0.22981,-2.36905 0.68943,-3.49782c0.46638,-1.12876 1.06118,-2.03448 1.7844,-2.71715c0.70294,-0.45286 1.45996,-0.80095 2.27105,-1.04427c0.81109,-0.24333 1.61204,-0.36499 2.40285,-0.36499c1.04765,0 2.01083,0.22643 2.88951,0.67929c0.87868,0.4461 1.57486,1.07131 2.08855,1.87565l-2.55493,2.13925c-0.71646,-1.2707 -1.58162,-2.64955 -2.59548,-4.13655c-0.60832,0.25009 -1.16256,0.68266 -1.66273,1.29774c-0.49341,0.60832 -0.88206,1.33492 -1.16594,2.1798c-0.28388,0.83813 -0.42582,1.7168 -0.42582,2.63604c0,1.74384 0.38865,3.09228 1.16594,4.04531c0.78405,0.95303 1.88916,1.42955 3.31533,1.42955zM364.17645,25.5419v0.59818h-4.44071v-0.59817l0.77053,-0.07097v-4.37988c0,-0.60832 -0.17235,-1.07807 -0.51707,-1.40926c-0.33795,-0.3312 -0.80433,-0.50355 -1.39913,-0.51707l-0.67928,0.67929l-0.04055,5.62693l0.7604,0.07097v0.59818h-4.46099v-0.59817l0.77053,-0.07097l-0.10139,-12.42993l-0.79081,0.16222l-0.21291,-0.59817l3.84254,-1.16594l0.29402,0.4968l-0.06083,6.91453l1.68301,-2.40285c1.31126,0 2.27781,0.31092 2.89964,0.93275c0.62183,0.62183 0.93275,1.58162 0.93275,2.87936v5.21125zM369.55577,16.48813c1.38561,0 2.50086,0.40892 3.34574,1.22677c0.84488,0.81109 1.26733,1.97365 1.26733,3.48768c0,0.64887 -0.1149,1.3214 -0.34471,2.01759c-0.22981,0.68943 -0.56438,1.29436 -1.00372,1.81481c-0.4461,0.43258 -0.96316,0.7773 -1.5512,1.03414c-0.58804,0.25684 -1.20649,0.38527 -1.85536,0.38527c-1.38561,0 -2.50086,-0.40892 -3.34574,-1.22677c-0.84488,-0.81785 -1.26732,-1.98041 -1.26732,-3.48768c0,-0.63536 0.11828,-1.29774 0.35485,-1.98717c0.23657,-0.69619 0.57452,-1.30788 1.01386,-1.83509c0.4461,-0.42582 0.96317,-0.77053 1.55121,-1.03414c0.58804,-0.2636 1.19974,-0.3954 1.83509,-0.3954zM367.79165,20.74634c0,1.31126 0.26022,2.29471 0.78068,2.95034c0.52045,0.64887 1.28423,1.03414 2.29133,1.1558c0.09462,-0.41231 0.16898,-0.8753 0.22305,-1.38899c0.06083,-0.51369 0.09125,-0.93613 0.09125,-1.26732c0,-1.33154 -0.26022,-2.31836 -0.78067,-2.96047c-0.52045,-0.64211 -1.27746,-1.02738 -2.27105,-1.1558c-0.10139,0.43258 -0.18249,0.90571 -0.24333,1.41941c-0.06083,0.50693 -0.09124,0.92262 -0.09124,1.24705zM379.73009,16.48813c1.38561,0 2.50086,0.40892 3.34574,1.22677c0.84488,0.81109 1.26733,1.97365 1.26733,3.48768c0,0.64887 -0.1149,1.3214 -0.34471,2.01759c-0.22981,0.68943 -0.56438,1.29436 -1.00372,1.81481c-0.4461,0.43258 -0.96316,0.7773 -1.5512,1.03414c-0.58804,0.25684 -1.20649,0.38527 -1.85536,0.38527c-1.38561,0 -2.50086,-0.40892 -3.34574,-1.22677c-0.84488,-0.81785 -1.26732,-1.98041 -1.26732,-3.48768c0,-0.63536 0.11828,-1.29774 0.35485,-1.98717c0.23657,-0.69619 0.57452,-1.30788 1.01386,-1.83509c0.4461,-0.42582 0.96317,-0.77053 1.55121,-1.03414c0.58804,-0.2636 1.19974,-0.3954 1.83509,-0.3954zM377.96597,20.74634c0,1.31126 0.26022,2.29471 0.78068,2.95034c0.52045,0.64887 1.28423,1.03414 2.29133,1.1558c0.09462,-0.41231 0.16898,-0.8753 0.22305,-1.38899c0.06083,-0.51369 0.09125,-0.93613 0.09125,-1.26732c0,-1.33154 -0.26022,-2.31836 -0.78067,-2.96047c-0.52045,-0.64211 -1.27746,-1.02738 -2.27105,-1.1558c-0.10139,0.43258 -0.18249,0.90571 -0.24333,1.41941c-0.06083,0.50693 -0.09124,0.92262 -0.09124,1.24705zM388.11758,18.35363c0,0.37175 0.1487,0.7097 0.4461,1.01386c0.2974,0.30416 0.75026,0.66577 1.35857,1.08483c0.75026,0.51369 1.31802,0.98007 1.70329,1.39913c0.39203,0.41231 0.58804,0.92262 0.58804,1.53093c0,0.53397 -0.16222,1.03752 -0.48665,1.51066c-0.31767,0.47314 -0.76715,0.85164 -1.34843,1.13552c-0.58128,0.28388 -1.24367,0.42582 -1.98717,0.42582c-0.72322,0 -1.40589,-0.17235 -2.048,-0.51707c-0.64211,-0.35147 -1.11525,-0.79757 -1.41941,-1.3383l1.7844,-1.42954c0.55425,1.0409 1.12201,1.89254 1.70329,2.55493c0.23657,-0.18249 0.43258,-0.39203 0.58804,-0.62859c0.16222,-0.24333 0.24333,-0.48327 0.24333,-0.71984c0,-0.38527 -0.14194,-0.71984 -0.42582,-1.00372c-0.28388,-0.28388 -0.72322,-0.62859 -1.31802,-1.03414c-0.48665,-0.31767 -0.8753,-0.5948 -1.16594,-0.83137c-0.29064,-0.23657 -0.53734,-0.52045 -0.74012,-0.85164c-0.19601,-0.3312 -0.29402,-0.70294 -0.29402,-1.11525c0,-0.51369 0.16898,-1.00372 0.50693,-1.4701c0.33795,-0.47314 0.81109,-0.85502 1.41941,-1.14566c0.60832,-0.29064 1.30112,-0.43596 2.07842,-0.43596c0.5948,0 1.15918,0.12842 1.69315,0.38527c0.53397,0.25009 0.96655,0.57114 1.29774,0.96317l-1.62218,1.59176c-0.66239,-0.83813 -1.39575,-1.59176 -2.20007,-2.26091c-0.23657,0.30416 -0.35485,0.69957 -0.35485,1.18622zM387.43829,26.14008h0.02028zM397.83525,16.48813c1.21663,0 2.17304,0.43934 2.86923,1.31802c0.70294,0.87868 1.04765,2.0649 1.03414,3.55866l-5.72831,0.18249c0.09462,0.81785 0.37851,1.44306 0.85164,1.87565c0.47314,0.42582 1.09497,0.63874 1.8655,0.63874c1.08145,0 1.96013,-0.2974 2.63604,-0.8922l0.37513,0.33458c-0.48665,0.92599 -1.14229,1.64922 -1.96689,2.16966c-0.81785,0.52045 -1.68977,0.78068 -2.61576,0.78068c-1.26395,0 -2.26767,-0.41906 -3.01116,-1.25719c-0.73674,-0.83813 -1.10511,-1.97027 -1.10511,-3.39643c0,-0.84488 0.16898,-1.68301 0.50693,-2.51438c0.33795,-0.83137 0.77053,-1.52417 1.29774,-2.07841c0.35823,-0.20277 0.82123,-0.37175 1.38899,-0.50693c0.56776,-0.14194 1.10173,-0.21291 1.6019,-0.21291zM398.66661,20.67537c-0.01352,-0.96655 -0.15208,-1.7337 -0.41568,-2.30146c-0.2636,-0.56776 -0.63536,-0.90571 -1.11525,-1.01386c-0.35147,0.35823 -0.63536,0.8584 -0.85164,1.50051c-0.20953,0.64211 -0.31429,1.3045 -0.31429,1.98717v0.06083zM415.65701,16.79229v0.66915l-0.60832,0.02028l-2.63604,6.12372c-0.71646,1.70329 -1.45996,3.26125 -2.23049,4.6739c-0.77053,1.41264 -1.46672,2.53465 -2.08855,3.36602l-2.45354,-2.33188c1.7168,-0.98007 3.2545,-2.05813 4.61307,-3.23421l-1.14566,0.06083l-3.19366,-8.65837l-0.59817,-0.02028v-0.66915h4.91723v0.66915l-0.87192,0.02028l1.88578,6.35691l1.70329,-6.3569l-0.87192,-0.02028v-0.66915zM420.55194,16.48813c1.38561,0 2.50086,0.40892 3.34574,1.22677c0.84488,0.81109 1.26733,1.97365 1.26733,3.48768c0,0.64887 -0.1149,1.3214 -0.34471,2.01759c-0.22981,0.68943 -0.56438,1.29436 -1.00372,1.81481c-0.4461,0.43258 -0.96316,0.7773 -1.5512,1.03414c-0.58804,0.25684 -1.20649,0.38527 -1.85536,0.38527c-1.38561,0 -2.50086,-0.40892 -3.34574,-1.22677c-0.84488,-0.81785 -1.26732,-1.98041 -1.26732,-3.48768c0,-0.63536 0.11828,-1.29774 0.35485,-1.98717c0.23657,-0.69619 0.57452,-1.30788 1.01386,-1.83509c0.4461,-0.42582 0.96317,-0.77053 1.55121,-1.03414c0.58804,-0.2636 1.19974,-0.3954 1.83509,-0.3954zM418.78782,20.74634c0,1.31126 0.26022,2.29471 0.78068,2.95034c0.52045,0.64887 1.28423,1.03414 2.29133,1.1558c0.09462,-0.41231 0.16898,-0.8753 0.22305,-1.38899c0.06083,-0.51369 0.09125,-0.93613 0.09125,-1.26732c0,-1.33154 -0.26022,-2.31836 -0.78067,-2.96047c-0.52045,-0.64211 -1.27746,-1.02738 -2.27105,-1.1558c-0.10139,0.43258 -0.18249,0.90571 -0.24333,1.41941c-0.06083,0.50693 -0.09124,0.92262 -0.09124,1.24705zM436.26722,24.75109l-2.87936,1.64245c-0.4461,-0.23657 -0.77391,-0.55762 -0.98344,-0.96316c-0.20277,-0.41231 -0.30416,-0.93613 -0.30416,-1.57148l-1.7844,2.59548c-1.3045,0 -2.26767,-0.31429 -2.8895,-0.94289c-0.62183,-0.63536 -0.93275,-1.60866 -0.93275,-2.91992v-5.13014l-0.77053,-0.06083v-0.60832h3.7006v4.96792c0,0.62183 0.16222,1.10173 0.48665,1.43968c0.32444,0.33795 0.75702,0.51369 1.29774,0.52721l0.8922,-0.82122v-5.44443l-0.75026,-0.06083v-0.60832h3.67018v5.86012c0,0.51369 0.03042,0.89558 0.09125,1.14567c0.06759,0.24333 0.16898,0.45624 0.30416,0.63874l0.62859,-0.31429zM440.54631,19.64123l-0.08111,5.8297l1.84523,0.07097v0.59818h-5.54582v-0.59817l0.77053,-0.07097l-0.06083,-7.4316l-0.79081,0.19264l-0.20277,-0.62859l3.27477,-1.01386l0.7097,2.22036c0.45961,-0.92599 0.95641,-1.64584 1.49038,-2.15952c0.30416,-0.10815 0.67253,-0.16222 1.10511,-0.16222c0.58128,0 1.12876,0.10139 1.64245,0.30416l-0.66915,2.70701c-0.39878,-0.08787 -0.90909,-0.1656 -1.53093,-0.23318c-0.62183,-0.06759 -1.13552,-0.1149 -1.54107,-0.14194z" fill-opacity="0.50196" fill="#000000" stroke="none" stroke-width="1" stroke-linecap="square"/><path d="M347.15086,44.97834c0.8584,0 1.69653,-0.31092 2.51438,-0.93275l0.33458,0.37513c-0.51369,0.88544 -1.1558,1.59852 -1.92634,2.13925c-0.76377,0.54072 -1.58838,0.81109 -2.47382,0.81109c-1.25043,0 -2.24739,-0.41906 -2.99089,-1.25719c-0.73674,-0.83813 -1.10511,-1.97027 -1.10511,-3.39643c0,-0.84488 0.17236,-1.68301 0.51707,-2.51438c0.34471,-0.83137 0.78743,-1.52417 1.32816,-2.07841c0.47314,-0.22981 0.96655,-0.40554 1.48024,-0.52721c0.51369,-0.12842 1.00373,-0.19263 1.4701,-0.19263c0.81785,0 1.54445,0.22305 2.1798,0.66915c0.63536,0.43934 1.14904,1.08145 1.54107,1.92634l-2.39271,1.38899c-0.22305,-0.62183 -0.52045,-1.25043 -0.8922,-1.88578c-0.37175,-0.64211 -0.69619,-1.07807 -0.97331,-1.30788c-0.35823,0.34471 -0.66577,0.84488 -0.92261,1.50051c-0.25684,0.65563 -0.38527,1.33154 -0.38527,2.02772c0,1.06118 0.23319,1.86888 0.69957,2.42313c0.47314,0.55425 1.1389,0.83137 1.99731,0.83137zM360.31435,46.45858v0.59818h-4.44071v-0.59817l0.77053,-0.07097v-4.37988c0,-0.60832 -0.17235,-1.07807 -0.51707,-1.40926c-0.33795,-0.3312 -0.80433,-0.50355 -1.39913,-0.51707l-0.67928,0.67929l-0.04055,5.62693l0.7604,0.07097v0.59818h-4.46099v-0.59817l0.77053,-0.07097l-0.10139,-12.42993l-0.79081,0.16222l-0.21291,-0.59817l3.84254,-1.16594l0.29402,0.4968l-0.06083,6.91453l1.68301,-2.40285c1.31126,0 2.27781,0.31092 2.89964,0.93275c0.62183,0.62183 0.93275,1.58162 0.93275,2.87936v5.21125zM369.37399,45.98206l-3.06186,1.42955c-0.37175,-0.2636 -0.62521,-0.62521 -0.76039,-1.08483c-0.50017,0.30416 -1.00372,0.55425 -1.51065,0.75026c-0.50693,0.19601 -0.94627,0.29402 -1.31802,0.29402c-0.56776,0 -1.03076,-0.19939 -1.38899,-0.59817c-0.35823,-0.40554 -0.53734,-0.91924 -0.53734,-1.54107c0,-0.27712 0.03042,-0.5779 0.09125,-0.90233c0.06083,-0.32444 0.13856,-0.58466 0.23319,-0.78067l4.4103,-0.7097l0.04055,-0.59817c0.02704,-0.62183 -0.10477,-1.10849 -0.3954,-1.45996c-0.29064,-0.35823 -0.76039,-0.53734 -1.40926,-0.53734c-0.29064,0 -0.59817,0.03379 -0.92261,0.10139c-0.31767,0.06083 -0.58466,0.13856 -0.80095,0.23319l-0.33457,0.7097l-0.55762,-0.21291l0.95303,-2.99089c1.06118,-0.45286 2.07166,-0.67928 3.03145,-0.67928c0.98007,0 1.78101,0.26022 2.40285,0.78068c0.62183,0.51369 0.93275,1.32478 0.93275,2.43327l-0.02028,0.41569l-0.20277,2.8084l-0.04055,0.74012c0,0.25009 0.02028,0.44948 0.06083,0.59818c0.04055,0.14194 0.10815,0.29064 0.20277,0.4461l0.64887,-0.25346zM364.65954,45.87054c0.21629,0 0.46976,-0.08111 0.7604,-0.24333l-0.02028,-0.43596l0.02028,-0.45623l0.07097,-1.18621l-1.6019,0.37513c-0.05407,0.17573 -0.08111,0.41569 -0.08111,0.71984c0,0.41906 0.08111,0.72998 0.24333,0.93275c0.16898,0.19601 0.37175,0.29402 0.60832,0.29402zM375.66546,37.4048c0.79757,0 1.50389,0.18249 2.11897,0.54748c0.62183,0.36499 1.10173,0.87192 1.43968,1.52079c0.33795,0.64211 0.50693,1.37209 0.50693,2.18994c0,0.70294 -0.1149,1.4532 -0.34471,2.25077c-0.22981,0.79081 -0.51031,1.40251 -0.8415,1.83509c-0.2636,0.37175 -0.74012,0.73674 -1.42954,1.09497c-0.68943,0.35147 -1.2707,0.52721 -1.74384,0.52721c-0.34471,0 -0.90571,-0.06421 -1.68301,-0.19263l0.04055,4.40016l1.6019,0.07097v0.59818h-5.50526v-0.59817l0.77053,-0.07097l0.10139,-12.66312l-0.79081,0.19264l-0.20277,-0.62859l3.21394,-1.01386l0.66915,2.3623zM376.24337,45.78944c0.34471,-0.79081 0.51707,-1.75398 0.51707,-2.8895c0,-0.63536 -0.10477,-1.18621 -0.31429,-1.65259c-0.20277,-0.47314 -0.47651,-0.83475 -0.82122,-1.08483c-0.33795,-0.25009 -0.69956,-0.37513 -1.08483,-0.37513l-0.91247,0.91247l0.04055,4.21766c0.91247,0.43258 1.77088,0.72322 2.57521,0.87192zM386.99567,45.4143l-2.53465,1.82495c-1.02062,0 -1.76412,-0.25009 -2.23049,-0.75026c-0.45961,-0.50693 -0.68943,-1.3214 -0.68943,-2.4434v-5.52554h-1.39913v-0.65901c0.58128,-0.31767 1.21325,-0.77053 1.89592,-1.35857c0.68943,-0.58804 1.31802,-1.20987 1.88578,-1.8655l0.68943,0.21291l-0.11152,2.85909h2.43327v0.87192l-2.47382,-0.04055v4.77529c0,0.66915 0.12842,1.1558 0.38527,1.45996c0.25684,0.30416 0.60156,0.45624 1.03414,0.45624l0.7604,-0.43596zM392.24976,37.4048c1.21663,0 2.17304,0.43934 2.86923,1.31802c0.70294,0.87868 1.04765,2.0649 1.03414,3.55866l-5.72831,0.18249c0.09462,0.81785 0.37851,1.44306 0.85164,1.87565c0.47314,0.42582 1.09497,0.63874 1.8655,0.63874c1.08145,0 1.96013,-0.2974 2.63604,-0.8922l0.37513,0.33458c-0.48665,0.92599 -1.14229,1.64922 -1.96689,2.16966c-0.81785,0.52045 -1.68977,0.78068 -2.61576,0.78068c-1.26395,0 -2.26767,-0.41906 -3.01116,-1.25719c-0.73674,-0.83813 -1.10511,-1.97027 -1.10511,-3.39643c0,-0.84488 0.16898,-1.68301 0.50693,-2.51438c0.33795,-0.83137 0.77053,-1.52417 1.29774,-2.07841c0.35823,-0.20277 0.82123,-0.37175 1.38899,-0.50693c0.56776,-0.14194 1.10173,-0.21291 1.6019,-0.21291zM393.08112,41.59204c-0.01352,-0.96655 -0.15208,-1.7337 -0.41568,-2.30146c-0.2636,-0.56776 -0.63536,-0.90571 -1.11525,-1.01386c-0.35147,0.35823 -0.63536,0.8584 -0.85164,1.50051c-0.20953,0.64211 -0.31429,1.3045 -0.31429,1.98717v0.06083zM400.55499,40.5579l-0.08111,5.8297l1.84523,0.07097v0.59818h-5.54582v-0.59817l0.77053,-0.07097l-0.06083,-7.4316l-0.79081,0.19264l-0.20277,-0.62859l3.27477,-1.01386l0.7097,2.22036c0.45961,-0.92599 0.95641,-1.64584 1.49038,-2.15952c0.30416,-0.10815 0.67253,-0.16222 1.10511,-0.16222c0.58128,0 1.12878,0.10139 1.64247,0.30416l-0.66915,2.70701c-0.39879,-0.08787 -0.90911,-0.1656 -1.53094,-0.23318c-0.62183,-0.06759 -1.13552,-0.1149 -1.54107,-0.14194zM414.84008,45.4143l-2.53465,1.82495c-1.02062,0 -1.76412,-0.25009 -2.23049,-0.75026c-0.45961,-0.50693 -0.68943,-1.3214 -0.68943,-2.4434v-5.52554h-1.39913v-0.65901c0.58128,-0.31767 1.21325,-0.77053 1.89592,-1.35857c0.68943,-0.58804 1.31802,-1.20987 1.88578,-1.8655l0.68943,0.21291l-0.11152,2.85909h2.43327v0.87192l-2.47382,-0.04055v4.77529c0,0.66915 0.12842,1.1558 0.38527,1.45996c0.25684,0.30416 0.60156,0.45624 1.03414,0.45624l0.7604,-0.43596zM419.84596,37.4048c1.38561,0 2.50086,0.40892 3.34574,1.22677c0.84488,0.81109 1.26733,1.97365 1.26733,3.48768c0,0.64887 -0.1149,1.3214 -0.34471,2.01759c-0.22981,0.68943 -0.56438,1.29436 -1.00372,1.81481c-0.4461,0.43258 -0.96316,0.7773 -1.5512,1.03414c-0.58804,0.25684 -1.20649,0.38527 -1.85536,0.38527c-1.38561,0 -2.50086,-0.40892 -3.34574,-1.22677c-0.84488,-0.81785 -1.26732,-1.98041 -1.26732,-3.48768c0,-0.63536 0.11828,-1.29774 0.35485,-1.98717c0.23657,-0.69619 0.57452,-1.30788 1.01386,-1.83509c0.4461,-0.42582 0.96317,-0.77053 1.55121,-1.03414c0.58804,-0.2636 1.19974,-0.3954 1.83509,-0.3954zM418.08184,41.66302c0,1.31126 0.26022,2.29471 0.78068,2.95034c0.52045,0.64887 1.28423,1.03414 2.29133,1.1558c0.09462,-0.41231 0.16898,-0.8753 0.22305,-1.38899c0.06083,-0.51369 0.09125,-0.93613 0.09125,-1.26732c0,-1.33154 -0.26022,-2.31836 -0.78067,-2.96047c-0.52045,-0.64211 -1.27746,-1.02738 -2.27105,-1.1558c-0.10139,0.43258 -0.18249,0.90571 -0.24333,1.41941c-0.06083,0.50693 -0.09124,0.92262 -0.09124,1.24705zM434.53116,37.4048c0.79757,0 1.50389,0.18249 2.11897,0.54748c0.62183,0.36499 1.10173,0.87192 1.43968,1.52079c0.33795,0.64211 0.50693,1.37209 0.50693,2.18994c0,0.70294 -0.1149,1.4532 -0.34471,2.25077c-0.22981,0.79081 -0.51031,1.40251 -0.8415,1.83509c-0.2636,0.37175 -0.74012,0.73674 -1.42954,1.09497c-0.68943,0.35147 -1.2707,0.52721 -1.74384,0.52721c-0.34471,0 -0.90571,-0.06421 -1.68301,-0.19263l0.04055,4.40016l1.6019,0.07097v0.59818h-5.50526v-0.59817l0.77053,-0.07097l0.10139,-12.66312l-0.79081,0.19264l-0.20277,-0.62859l3.21394,-1.01386l0.66915,2.3623zM435.10906,45.78944c0.34471,-0.79081 0.51707,-1.75398 0.51707,-2.8895c0,-0.63536 -0.10477,-1.18621 -0.31429,-1.65259c-0.20277,-0.47314 -0.47651,-0.83475 -0.82122,-1.08483c-0.33795,-0.25009 -0.69956,-0.37513 -1.08483,-0.37513l-0.91247,0.91247l0.04055,4.21766c0.91247,0.43258 1.77088,0.72322 2.57521,0.87192zM439.3017,46.45858l0.77053,-0.07097l-0.10139,-12.42993l-0.79081,0.16222l-0.21291,-0.59817l3.84254,-1.16594l0.29402,0.4968l-0.10139,13.53505l0.77053,0.07097v0.59818h-4.47112zM452.86571,45.98206l-3.06186,1.42955c-0.37175,-0.2636 -0.62521,-0.62521 -0.76039,-1.08483c-0.50017,0.30416 -1.00372,0.55425 -1.51065,0.75026c-0.50693,0.19601 -0.94627,0.29402 -1.31802,0.29402c-0.56776,0 -1.03076,-0.19939 -1.38899,-0.59817c-0.35823,-0.40554 -0.53734,-0.91924 -0.53734,-1.54107c0,-0.27712 0.03042,-0.5779 0.09125,-0.90233c0.06083,-0.32444 0.13856,-0.58466 0.23319,-0.78067l4.4103,-0.7097l0.04055,-0.59817c0.02704,-0.62183 -0.10477,-1.10849 -0.3954,-1.45996c-0.29064,-0.35823 -0.76039,-0.53734 -1.40926,-0.53734c-0.29064,0 -0.59817,0.03379 -0.92261,0.10139c-0.31767,0.06083 -0.58466,0.13856 -0.80095,0.23319l-0.33457,0.7097l-0.55762,-0.21291l0.95303,-2.99089c1.06118,-0.45286 2.07166,-0.67928 3.03145,-0.67928c0.98007,0 1.78101,0.26022 2.40285,0.78068c0.62183,0.51369 0.93275,1.32478 0.93275,2.43327l-0.02028,0.41569l-0.20277,2.8084l-0.04055,0.74012c0,0.25009 0.02028,0.44948 0.06083,0.59818c0.04055,0.14194 0.10815,0.29064 0.20277,0.4461l0.64887,-0.25346zM448.15126,45.87054c0.21629,0 0.46976,-0.08111 0.7604,-0.24333l-0.02028,-0.43596l0.02028,-0.45623l0.07097,-1.18621l-1.6019,0.37513c-0.05407,0.17573 -0.08111,0.41569 -0.08111,0.71984c0,0.41906 0.08111,0.72998 0.24333,0.93275c0.16898,0.19601 0.37175,0.29402 0.60832,0.29402zM463.04026,37.70896v0.66915l-0.60832,0.02028l-2.63604,6.12372c-0.71646,1.70329 -1.45996,3.26125 -2.23049,4.6739c-0.77053,1.41264 -1.46672,2.53465 -2.08855,3.36602l-2.45354,-2.33188c1.7168,-0.98007 3.2545,-2.05813 4.61307,-3.23421l-1.14566,0.06083l-3.19366,-8.65837l-0.59817,-0.02028v-0.66915h4.91723v0.66915l-0.87192,0.02028l1.88578,6.35691l1.70329,-6.3569l-0.87192,-0.02028v-0.66915zM463.51477,34.03878l3.6499,-1.14566l-0.71984,8.81045l-2.35216,0.45624zM463.82907,44.56266l3.03145,-0.67928v2.9402l-3.03144,0.46638z" fill-opacity="0.50196" fill="#000000" stroke="none" stroke-width="1" stroke-linecap="square"/></g></g></svg>