<svg version="1.1" xmlns="http://www.w3.org/2000/svg" xmlns:xlink="http://www.w3.org/1999/xlink" width="507.01918" height="405.53081" viewBox="0,0,507.01918,405.53081"><defs><linearGradient x1="240.00002" y1="-5.71695" x2="240.00002" y2="172.65543" gradientUnits="userSpaceOnUse" id="color-1"><stop offset="0" stop-color="#62943b"/><stop offset="1" stop-color="#616528"/></linearGradient><linearGradient x1="240.49552" y1="71.35513" x2="240.49552" y2="370.15393" gradientUnits="userSpaceOnUse" id="color-2"><stop offset="0" stop-color="#547d32"/><stop offset="1" stop-color="#494c1f"/></linearGradient><linearGradient x1="307.62563" y1="221.44616" x2="307.62563" y2="252.95045" gradientUnits="userSpaceOnUse" id="color-3"><stop offset="0" stop-color="#4f672a"/><stop offset="1" stop-color="#4d5f26"/></linearGradient><linearGradient x1="15.31193" y1="144.22549" x2="15.31193" y2="179.23674" gradientUnits="userSpaceOnUse" id="color-4"><stop offset="0" stop-color="#537830"/><stop offset="1" stop-color="#506b2b"/></linearGradient><linearGradient x1="34.31804" y1="143.72532" x2="34.31804" y2="178.73656" gradientUnits="userSpaceOnUse" id="color-5"><stop offset="0" stop-color="#537830"/><stop offset="1" stop-color="#506b2b"/></linearGradient><linearGradient x1="45.82045" y1="155.3203" x2="45.82045" y2="179.29813" gradientUnits="userSpaceOnUse" id="color-6"><stop offset="0" stop-color="#537830"/><stop offset="1" stop-color="#506b2b"/></linearGradient><linearGradient x1="1.30616" y1="155.3203" x2="1.30616" y2="179.29813" gradientUnits="userSpaceOnUse" id="color-7"><stop offset="0" stop-color="#537830"/><stop offset="1" stop-color="#506b2b"/></linearGradient><linearGradient x1="24.97722" y1="135.02778" x2="24.97722" y2="177.41086" gradientUnits="userSpaceOnUse" id="color-8"><stop offset="0" stop-color="#537830"/><stop offset="1" stop-color="#506b2b"/></linearGradient><linearGradient x1="364.78624" y1="209.25809" x2="364.78624" y2="256.59143" gradientUnits="userSpaceOnUse" id="color-9"><stop offset="0" stop-color="#475c26"/><stop offset="1" stop-color="#475c26" stop-opacity="0"/></linearGradient><linearGradient x1="440.51268" y1="235.27233" x2="440.51268" y2="268.59143" gradientUnits="userSpaceOnUse" id="color-10"><stop offset="0" stop-color="#465823"/><stop offset="1" stop-color="#465823" stop-opacity="0"/></linearGradient><linearGradient x1="71.84832" y1="130.25809" x2="71.84832" y2="172.09143" gradientUnits="userSpaceOnUse" id="color-11"><stop offset="0" stop-color="#49682a"/><stop offset="1" stop-color="#49682a" stop-opacity="0"/></linearGradient><linearGradient x1="410.18011" y1="32.16562" x2="410.18011" y2="51.78282" gradientUnits="userSpaceOnUse" id="color-12"><stop offset="0" stop-color="#587d32"/><stop offset="1" stop-color="#587d32" stop-opacity="0"/></linearGradient></defs><g transform="translate(18.0251,35.37689)"><g data-paper-data="{&quot;isPaintingLayer&quot;:true}" fill-rule="nonzero" stroke-linejoin="miter" stroke-miterlimit="10" stroke-dasharray="" stroke-dashoffset="0" style="mix-blend-mode: normal"><path d="M-5.49548,172.65543v-178.37237h490.99099v178.37237z" fill="url(#color-1)" stroke="none" stroke-width="0" stroke-linecap="butt"/><path d="M-4.99998,370.15393v-307.7988c0,0 2.45162,-10.5 10.5045,-10c8.53356,0.52985 12.5,10 12.5,10c0,0 3.63247,-8 13,-7.5c10.10337,0.53928 12.5,7.5 12.5,7.5c0,0 4.54238,-11.5 15.5,-11c10.86299,0.49568 14,11 14,11c0,0 4.29658,-8.46319 15,-8c11.14411,0.48226 13.5,10.5 13.5,10.5c0,0 5.21632,-8.5142 16.01326,-7.30874c10.8952,1.21643 12.98674,10.80874 12.98674,10.80874c0,0 2.89939,-8.61737 11.55852,-9.22351c8.70132,-0.6091 13.44148,7.72351 13.44148,7.72351c0,0 1.73189,-10.68376 11.01997,-13.57464c9.71534,-3.02387 16.98003,9.07464 16.98003,9.07464c0,0 3.44082,-7.7895 13.48649,-7.5c7.11787,0.20513 12.33333,10.83333 12.33333,10.83333c0,0 14.25285,-0.46172 35.0463,0.59557c7.91876,0.40265 29.08843,5.21499 48.75454,6.29717c27.61843,1.51978 38.42436,-1.18994 50.89043,-1.72928c25.91928,-1.12139 40.97539,0.50319 40.97539,0.50319c0,0 3.83696,-6.21466 10.5,-6.5c5.80847,-0.24874 10.5,3 10.5,3c0,0 2.40869,-8 13.5,-8c13.17257,0 16,11.5 16,11.5c0,0 4.69547,-8.40016 14,-8c7.97648,0.34304 12.5,8 12.5,8c0,0 2.48945,-11.2777 12,-11.5c8.99447,-0.21024 12,11.5 12,11.5v298.7988c0,0 -387.12073,0.00002 -454.2042,0.00002c-19.09132,0 -36.78678,0 -36.78678,0z" fill="url(#color-2)" stroke="none" stroke-width="0" stroke-linecap="butt"/><g fill="#4e6328" stroke="none" stroke-width="0" stroke-linecap="butt"><path d="M68.66933,217.64199c-5.97423,-8.71243 -5.63936,-29.88858 -5.63936,-29.88858c0,0 14.32744,2.00235 20.30168,10.71478c5.97423,8.71243 6.76722,28.76072 6.76722,28.76072c0,0 -15.45531,-0.87447 -21.42954,-9.5869z"/><path d="M84.45613,226.66496c0,0 0.79299,-20.04828 6.76723,-28.76071c5.97423,-8.71243 20.30168,-10.71478 20.30168,-10.71478c0,0 0.33488,21.17617 -5.63935,29.88858c-5.97423,8.71243 -21.42956,9.5869 -21.42956,9.5869z" data-paper-data="{&quot;index&quot;:null}"/><path d="M89.16519,223.01331c0,0 11.05468,-16.74386 20.67571,-21.10661c9.62103,-4.36275 22.91662,1.33924 22.91662,1.33924c0,0 -10.67337,18.29265 -20.2944,22.65541c-9.62103,4.36275 -23.29793,-2.88803 -23.29793,-2.88803z" data-paper-data="{&quot;index&quot;:null}"/><path d="M59.26931,225.90134c-9.62104,-4.36275 -20.29439,-22.6554 -20.29439,-22.6554c0,0 13.29558,-5.70199 22.91661,-1.33924c9.62104,4.36275 20.67571,21.10661 20.67571,21.10661c0,0 -13.6769,7.25079 -23.29793,2.88803z" data-paper-data="{&quot;index&quot;:null}"/><path d="M85.32643,225.17022c0,0 -9.70054,-17.56311 -9.09963,-28.10999c0.60093,-10.54688 11.82231,-19.67733 11.82231,-19.67733c0,0 11.24942,17.94416 10.64849,28.49104c-0.60092,10.54688 -13.37118,19.29627 -13.37118,19.29627z" data-paper-data="{&quot;index&quot;:null}"/></g><path d="M12.29503,300.6443c0,0 7.20508,-23.83884 19.72552,-26.11718c14.5825,-3.22164 19.9283,1.38164 19.9283,1.38164c0,0 6.55614,-16.59829 22.37161,-15.87663c15.67889,0.71544 20.20663,15.87663 20.20663,15.87663c0,0 17.32558,-4.03062 25.01259,2.03807c7.68701,6.06869 14.43843,23.94187 14.43843,23.94187z" fill="#4b5723" stroke="none" stroke-width="0" stroke-linecap="butt"/><path d="M64.81008,305.27653c14.24119,-4.52746 19.48495,3.36777 19.48495,3.36777c0,0 6.20508,-16.83885 19.72552,-16.11718c14.5825,0.77836 20.92829,9.38165 20.92829,9.38165c0,0 6.55615,-16.5983 22.37162,-15.87663c15.67888,0.71543 20.20663,15.87663 20.20663,15.87663c0,0 17.32558,-4.03062 25.01259,2.03807c7.68701,6.0687 14.43843,23.94187 14.43843,23.94187l-152.70495,0.06174c0,0 1.80062,-19.54671 10.53692,-22.67392z" fill="#4b5322" stroke="none" stroke-width="0" stroke-linecap="butt"/><g fill="#4b5522" stroke="none" stroke-width="0" stroke-linecap="butt"><path d="M364.63976,305.02569c-6.97424,-10.17077 -6.58331,-34.89152 -6.58331,-34.89152c0,0 16.72566,2.33752 23.6999,12.50829c6.97424,10.17077 7.89996,33.57487 7.89996,33.57487c0,0 -18.04231,-1.02084 -25.01655,-11.19161z"/><path d="M383.06905,315.55897c0,0 0.92573,-23.40409 7.89997,-33.57486c6.97424,-10.17077 23.6999,-12.50829 23.6999,-12.50829c0,0 0.39094,24.72076 -6.5833,34.89151c-6.97424,10.17077 -25.01657,11.19161 -25.01657,11.19161z" data-paper-data="{&quot;index&quot;:null}"/><path d="M388.56635,311.29609c0,0 12.90507,-19.54655 24.13654,-24.63957c11.23145,-5.09302 26.75254,1.56341 26.75254,1.56341c0,0 -12.45994,21.35459 -23.6914,26.44761c-11.23145,5.09302 -27.19769,-3.37145 -27.19769,-3.37145z" data-paper-data="{&quot;index&quot;:null}"/><path d="M353.66631,314.66754c-11.23147,-5.09302 -23.6914,-26.44761 -23.6914,-26.44761c0,0 15.52107,-6.65643 26.75254,-1.56341c11.23147,5.09302 24.13654,24.63957 24.13654,24.63957c0,0 -15.96622,8.46447 -27.19769,3.37145z" data-paper-data="{&quot;index&quot;:null}"/><path d="M384.08503,313.81404c0,0 -11.32427,-20.50293 -10.62278,-32.81521c0.70151,-12.31228 13.8012,-22.97105 13.8012,-22.97105c0,0 13.13241,20.94776 12.4309,33.26005c-0.70151,12.31228 -15.60934,22.5262 -15.60934,22.5262z" data-paper-data="{&quot;index&quot;:null}"/></g><path d="M167.74775,199.59556c0.31216,-11.55016 10.62706,-18.12914 22.74325,-18.12914c15.80559,0 99,0 99,0c0,0 0.07211,-4.49339 0.11178,-6.9661c0.11419,-7.11568 7.76544,-9.07817 14.88191,-9.11951c8.24951,-0.04792 30.04195,-0.17452 30.04195,-0.17452c0,0 10.22111,0.94426 10.22111,-0.61073c0,-11.46985 10.28074,-17.05464 21.75029,-16.97153c23.40062,0.16957 116.24971,0.84239 116.24971,0.84239l2,119c0,0 -31.15878,-0.28263 -42.25328,-0.38326c-8.27555,-0.07506 -17.85067,-5.34189 -17.92777,-13.61743c-0.02614,-2.80593 -0.07552,-4.10581 -0.07552,-4.10581c0,0 -136.47517,-0.2428 -157.99716,-0.28558c-12.58523,-0.02501 -24.91047,-4.8863 -24.83013,-17.47129c0.02992,-4.68741 0.08386,-13.13662 0.08386,-13.13662c0,0 -35.03323,0 -52.25675,0c-9.38341,0 -22.05541,-7.3207 -21.74325,-18.87086z" fill-opacity="0.0549" fill="#000000" stroke="none" stroke-width="0" stroke-linecap="butt"/><path d="M364.97811,252.95045l-114.70495,-0.04638c0,0 5.07136,-13.4255 10.84549,-17.98403c5.77413,-4.55852 18.78831,-1.53091 18.78831,-1.53091c0,0 3.40104,-11.3884 15.17829,-11.92579c11.87986,-0.54208 16.80453,11.92579 16.80453,11.92579c0,0 4.76666,-6.4624 15.72037,-7.04707c10.15594,-0.54208 14.81691,12.10649 14.81691,12.10649c0,0 3.93887,-5.93054 14.6362,-2.52972c6.56231,2.34902 7.91485,17.03161 7.91485,17.03161z" data-paper-data="{&quot;index&quot;:null}" fill="url(#color-3)" stroke="none" stroke-width="0" stroke-linecap="butt"/><path d="M104.49634,133.4067c0,0 0.0463,7.25248 0.07198,11.27597c0.06896,10.80247 -10.51056,14.97522 -21.31324,14.99669c-18.47365,0.03672 -33.79107,0.24513 -33.79107,0.24513c0,0 -0.04239,1.11577 -0.06483,3.52427c-0.06618,7.1034 -8.28509,11.62425 -15.38851,11.68868c-9.52309,0.08638 -36.26859,0.32898 -36.26859,0.32898l1.71672,-84.11945c0,0 79.6981,-0.57752 99.7843,-0.72307c9.84502,-0.07134 18.66961,4.72243 18.66961,14.56771c0,1.33475 8.77341,0.52423 8.77341,0.52423c0,0 18.70579,0.10867 25.78686,0.1498c6.10851,0.03548 12.67605,1.72002 12.77406,7.82784c0.03406,2.12248 1.59878,8.92415 0.09595,11.1296c-1.50283,2.20545 -13.24588,8.1684 -13.24588,8.1684z" data-paper-data="{&quot;index&quot;:null}" fill-opacity="0.0549" fill="#000000" stroke="none" stroke-width="0" stroke-linecap="butt"/><g stroke="none" stroke-width="0" stroke-linecap="butt"><path d="M8.3112,170.734c-5.29861,-7.72715 -5.00161,-26.5085 -5.00161,-26.5085c0,0 12.70716,1.77591 18.00578,9.50305c5.29861,7.72715 6.00193,25.5082 6.00193,25.5082c0,0 -13.70747,-0.77558 -19.00609,-8.50272z" fill="url(#color-4)"/><path d="M22.31268,178.73656c0,0 0.70331,-17.78104 6.00193,-25.50818c5.29861,-7.72715 18.00578,-9.50306 18.00578,-9.50306c0,0 0.29701,18.78137 -5.0016,26.5085c-5.29861,7.72715 -19.0061,8.50272 -19.0061,8.50272z" data-paper-data="{&quot;index&quot;:null}" fill="url(#color-5)"/><path d="M26.4892,175.49788c0,0 9.80451,-14.85031 18.33751,-18.71968c8.53299,-3.86937 20.32499,1.18778 20.32499,1.18778c0,0 -9.46633,16.22395 -17.99932,20.09333c-8.53299,3.86937 -20.66319,-2.56143 -20.66319,-2.56143z" data-paper-data="{&quot;index&quot;:null}" fill="url(#color-6)"/><path d="M-0.02577,178.0593c-8.533,-3.86937 -17.99932,-20.09333 -17.99932,-20.09333c0,0 11.79199,-5.05716 20.32499,-1.18778c8.533,3.86937 18.33751,18.71968 18.33751,18.71968c0,0 -12.13019,6.4308 -20.66319,2.56143z" data-paper-data="{&quot;index&quot;:null}" fill="url(#color-7)"/><path d="M23.08456,177.41086c0,0 -8.6035,-15.57691 -8.07056,-24.93105c0.53297,-9.35414 10.48533,-17.45204 10.48533,-17.45204c0,0 9.97723,15.91487 9.44426,25.26901c-0.53296,9.35414 -11.85905,17.11407 -11.85905,17.11407z" data-paper-data="{&quot;index&quot;:null}" fill="url(#color-8)"/></g><path d="M406.491,114.71643c0,-9.08564 6.91436,-13 12.75,-13c4.41586,0 14.25,0 14.25,0c0,0 0,-3.2656 0,-5.25c0,-6.31956 6.18043,-9 12.5,-9c8.81365,0 35.5,0 35.5,0l1,40c0,0 -50.6222,0 -63,0c-5.17213,0 -13,-4.41436 -13,-12.75z" fill-opacity="0.0549" fill="#000000" stroke="none" stroke-width="0" stroke-linecap="butt"/><path d="M397.491,192.03099c0,9.1127 -15.89389,16.5 -35.5,16.5c-3.979,0 -7.80512,-0.30427 -11.3765,-0.86547c-0.77345,-0.12154 -2.38363,-0.48251 -2.38363,-0.48251l14.15738,-16.33125l-31.31097,9.29686c0,0 -1.32982,-1.17249 -1.88065,-1.78834c-1.74325,-1.94905 -2.70562,-4.08693 -2.70562,-6.32928c0,-9.1127 15.89389,-16.5 35.5,-16.5c19.60611,0 35.5,7.3873 35.5,16.5z" fill-opacity="0.0549" fill="#000000" stroke="none" stroke-width="0" stroke-linecap="butt"/><g fill="#485f27" stroke="none" stroke-width="0" stroke-linecap="butt"><path d="M365.31333,178.77365c-2.18059,-3.18003 -2.05836,-10.90929 -2.05836,-10.90929c0,0 5.22949,0.73085 7.41008,3.91088c2.18059,3.18003 2.47002,10.49763 2.47002,10.49763c0,0 -5.64116,-0.31918 -7.82175,-3.4992z"/><path d="M371.07549,182.06702c0,0 0.28944,-7.3176 2.47003,-10.49762c2.18059,-3.18003 7.41008,-3.91089 7.41008,-3.91089c0,0 0.12223,7.72927 -2.05836,10.90929c-2.18059,3.18003 -7.82176,3.49921 -7.82176,3.49921z" data-paper-data="{&quot;index&quot;:null}"/><path d="M372.79429,180.73418c0,0 4.03494,-6.11148 7.54661,-7.70388c3.51166,-1.5924 8.36453,0.48882 8.36453,0.48882c0,0 -3.89576,6.67679 -7.40742,8.26919c-3.51166,1.5924 -8.50371,-1.05412 -8.50371,-1.05412z" data-paper-data="{&quot;index&quot;:null}"/><path d="M361.88233,181.7883c-3.51166,-1.5924 -7.40743,-8.26919 -7.40743,-8.26919c0,0 4.85287,-2.08122 8.36453,-0.48882c3.51166,1.5924 7.54661,7.70388 7.54661,7.70388c0,0 -4.99205,2.64652 -8.50371,1.05412z" data-paper-data="{&quot;index&quot;:null}"/><path d="M371.39315,181.52145c0,0 -3.54068,-6.41051 -3.32135,-10.26011c0.21934,-3.84959 4.31513,-7.1822 4.31513,-7.1822c0,0 4.10602,6.54959 3.88668,10.39919c-0.21934,3.84959 -4.88047,7.04311 -4.88047,7.04311z" data-paper-data="{&quot;index&quot;:null}"/></g><g fill="#547c31" stroke="none" stroke-width="0" stroke-linecap="butt"><path d="M248.48705,72.62792c-4.12685,-6.01832 -3.89552,-20.64626 -3.89552,-20.64626c0,0 9.89703,1.38317 14.02388,7.40149c4.12685,6.01832 4.67462,19.86716 4.67462,19.86716c0,0 -10.67613,-0.60406 -14.80298,-6.62238z"/><path d="M259.39216,78.86075c0,0 0.54778,-13.84883 4.67463,-19.86715c4.12685,-6.01832 14.02387,-7.40149 14.02387,-7.40149c0,0 0.23133,14.62795 -3.89551,20.64626c-4.12685,6.01832 -14.80299,6.62238 -14.80299,6.62238z" data-paper-data="{&quot;index&quot;:null}"/><path d="M262.64506,76.33829c0,0 7.63628,-11.56623 14.28224,-14.5799c6.64596,-3.01367 15.83021,0.92511 15.83021,0.92511c0,0 -7.37289,12.6361 -14.01885,15.64977c-6.64596,3.01368 -16.09361,-1.99498 -16.09361,-1.99498z" data-paper-data="{&quot;index&quot;:null}"/><path d="M241.99376,78.33326c-6.64596,-3.01368 -14.01884,-15.64976 -14.01884,-15.64976c0,0 9.18424,-3.93879 15.8302,-0.92511c6.64596,3.01367 14.28224,14.5799 14.28224,14.5799c0,0 -9.44765,5.00865 -16.09361,1.99497z" data-paper-data="{&quot;index&quot;:null}"/><path d="M259.99334,77.82822c0,0 -6.70088,-12.13214 -6.28579,-19.41766c0.41511,-7.28551 8.16655,-13.59259 8.16655,-13.59259c0,0 7.7708,12.39536 7.3557,19.68088c-0.4151,7.28552 -9.23647,13.32936 -9.23647,13.32936z" data-paper-data="{&quot;index&quot;:null}"/></g><path d="M364.56084,209.25809c0,0 -3.59391,7.639 -3.5428,13.00609c0.02997,3.14717 5.89193,2.82789 6.55532,8.37717c1.17456,9.82523 -2.56172,25.95007 -2.56172,25.95007" fill="none" stroke="url(#color-9)" stroke-width="4" stroke-linecap="round"/><path d="M442.48032,211.53099c13.80122,0 24.98932,5.2001 24.98932,11.61476c0,1.57845 -0.67744,3.08336 -1.90456,4.45534c-0.38774,0.43351 -1.32384,1.25886 -1.32384,1.25886l-22.04056,-6.54429l9.96572,11.49597c0,0 -1.13345,0.2541 -1.6779,0.33965c-2.51398,0.39505 -5.20727,0.60923 -8.0082,0.60923c-13.80122,0 -24.98933,-5.2001 -24.98933,-11.61476c0,-6.41466 11.1881,-11.61476 24.98933,-11.61476z" data-paper-data="{&quot;index&quot;:null}" fill-opacity="0.0549" fill="#000000" stroke="none" stroke-width="0" stroke-linecap="butt"/><path d="M440.35402,268.59143c0,0 -2.63006,-11.35068 -1.80326,-18.2669c0.46697,-3.90628 4.59335,-3.68152 4.61445,-5.8969c0.03598,-3.77803 -2.49387,-9.15531 -2.49387,-9.15531" data-paper-data="{&quot;index&quot;:null}" fill="none" stroke="url(#color-10)" stroke-width="4" stroke-linecap="round"/><path d="M432.73032,173.51691c11.73016,0 21.23932,4.41975 21.23932,9.8718c0,1.34158 -4.82546,5.59543 -5.86843,6.76153c-0.32956,0.36846 -15.60856,-7.46705 -15.60856,-7.46705l0.23767,10.57732c0,0 -2.63635,-0.05703 -3.90085,-0.16613c-9.86701,-0.85133 -17.33847,-4.87295 -17.33847,-9.70566c0,-5.45204 9.50917,-9.8718 21.23933,-9.8718z" data-paper-data="{&quot;index&quot;:null}" fill-opacity="0.0549" fill="#000000" stroke="none" stroke-width="0" stroke-linecap="butt"/><path d="M67.73032,130.2605c-11.73015,0 -21.23932,-4.41976 -21.23932,-9.8718c0,-1.34158 4.82546,-5.59543 5.86843,-6.76153c0.32956,-0.36846 15.60856,7.46705 15.60856,7.46705l-0.23767,-10.57732c0,0 2.63635,0.05704 3.90085,0.16614c9.86701,0.85133 17.33847,4.87295 17.33847,9.70566c0,5.45204 -9.50917,9.8718 -21.23932,9.8718z" data-paper-data="{&quot;index&quot;:null}" fill-opacity="0.0549" fill="#000000" stroke="none" stroke-width="0" stroke-linecap="butt"/><path d="M71.64911,130.25809c0,0 -3.17631,6.75137 -3.13114,11.49482c0.02649,2.78148 5.20731,2.49929 5.79361,7.40376c1.03808,8.68356 -2.26406,22.93474 -2.26406,22.93474" fill="none" stroke="url(#color-11)" stroke-width="4" stroke-linecap="round"/><g fill-opacity="0.0549" fill="#000000" stroke="none" stroke-width="0" stroke-linecap="butt"><path d="M171.23295,270.31018v-11.5l-19.5,-2.5c0,0 -1.45047,-29.23147 26.50222,-29.76925c26.36019,-0.50715 26.99778,29.26925 26.99778,29.26925l-18.5,3v11.5z"/><path d="M176.54972,245.6842c0,3.58985 -3.13401,6.5 -7,6.5c-3.86599,0 -7,-2.91015 -7,-6.5c0,-3.58985 3.13401,-6.5 7,-6.5c3.86599,0 7,2.91015 7,6.5z"/><path d="M189.88305,233.35086c0,1.933 -2.53705,3.5 -5.66667,3.5c-3.12961,0 -5.66667,-1.567 -5.66667,-3.5c0,-1.933 2.53705,-3.5 5.66667,-3.5c3.12961,0 5.66667,1.567 5.66667,3.5z"/><path d="M183.54972,247.51753c0,2.94552 2.53705,5.33333 5.66667,5.33333c3.12961,0 5.66667,-2.38781 5.66667,-5.33333c0,-2.94552 -2.53705,-5.33333 -5.66667,-5.33333c-3.12961,0 -5.66667,2.38781 -5.66667,5.33333z"/><path d="M172.93591,231.13091c0.55344,1.16377 -1.55863,3.32496 -4.71744,4.82715c-3.15881,1.50219 -6.16818,1.77653 -6.72161,0.61276c-0.55344,-1.16377 1.55863,-3.32496 4.71744,-4.82715c3.15881,-1.50219 6.16818,-1.77653 6.72161,-0.61276z"/><path d="M156.91187,244.38457c1.04442,0.20084 1.44916,2.66176 0.90402,5.49662c-0.54514,2.83486 -1.83374,4.97014 -2.87816,4.7693c-1.04442,-0.20084 -1.44916,-2.66176 -0.90402,-5.49662c0.54514,-2.83486 1.83374,-4.97015 2.87816,-4.76931z"/><path d="M199.77176,243.08595c1.03735,-0.23462 2.39453,1.85775 3.03134,4.67343c0.63681,2.81568 0.3121,5.28843 -0.72525,5.52305c-1.03735,0.23462 -2.39453,-1.85775 -3.03134,-4.67343c-0.63681,-2.81568 -0.3121,-5.28843 0.72525,-5.52305z"/></g><g fill-opacity="0.0549" fill="#000000" stroke="none" stroke-width="0" stroke-linecap="butt"><path d="M214.72426,282.31018v-6.48535l-10.9969,-1.40986c0,0 -0.81798,-16.4849 14.94576,-16.78818c14.86567,-0.286 15.22523,16.50621 15.22523,16.50621l-10.43296,1.69183v6.48535z"/><path d="M217.72262,268.42251c0,2.02447 -1.7674,3.66563 -3.94761,3.66563c-2.1802,0 -3.94761,-1.64116 -3.94761,-3.66563c0,-2.02447 1.7674,-3.66563 3.94761,-3.66563c2.1802,0 3.94761,1.64116 3.94761,3.66563z"/><path d="M225.24187,261.4672c0,1.0901 -1.43075,1.9738 -3.19568,1.9738c-1.76493,0 -3.19568,-0.8837 -3.19568,-1.9738c0,-1.0901 1.43075,-1.9738 3.19568,-1.9738c1.76493,0 3.19568,0.8837 3.19568,1.9738z"/><path d="M221.67023,269.45641c0,1.66111 1.43075,3.0077 3.19568,3.0077c1.76493,0 3.19568,-1.34659 3.19568,-3.0077c0,-1.66111 -1.43075,-3.0077 -3.19568,-3.0077c-1.76493,0 -3.19568,1.34659 -3.19568,3.0077z"/><path d="M215.68464,260.21527c0.31211,0.6563 -0.87898,1.87509 -2.66037,2.72224c-1.78139,0.84715 -3.4785,1.00186 -3.79061,0.34556c-0.31211,-0.6563 0.87898,-1.87509 2.66037,-2.72224c1.78139,-0.84715 3.4785,-1.00186 3.79061,-0.34556z"/><path d="M206.64798,267.68959c0.58899,0.11326 0.81724,1.50108 0.50982,3.09978c-0.30743,1.5987 -1.03413,2.80288 -1.62312,2.68962c-0.58899,-0.11326 -0.81724,-1.50108 -0.50982,-3.09978c0.30743,-1.5987 1.03413,-2.80288 1.62312,-2.68962z"/><path d="M230.81854,266.95725c0.58501,-0.13231 1.35038,1.04767 1.70951,2.63555c0.35913,1.58789 0.17601,2.98238 -0.409,3.11469c-0.58501,0.13231 -1.35038,-1.04767 -1.70951,-2.63555c-0.35913,-1.58789 -0.17601,-2.98238 0.409,-3.11469z"/></g><g fill-opacity="0.0549" fill="#000000" stroke="none" stroke-width="0" stroke-linecap="butt"><path d="M358.22193,124.31017v-9.13608l-15.49161,-1.9861c0,0 -1.15231,-23.2227 21.05447,-23.64994c20.94164,-0.4029 21.44816,23.25272 21.44816,23.25272l-14.69717,2.38333v9.13608z"/><path d="M362.44579,104.74627c0,2.85193 -2.48978,5.16387 -5.56109,5.16387c-3.07131,0 -5.56109,-2.31194 -5.56109,-5.16387c0,-2.85193 2.48978,-5.16387 5.56109,-5.16387c3.07131,0 5.56109,2.31194 5.56109,5.16387z"/><path d="M373.03835,94.94815c0,1.53565 -2.01554,2.78055 -4.50184,2.78055c-2.4863,0 -4.50184,-1.24489 -4.50184,-2.78055c0,-1.53565 2.01554,-2.78055 4.50184,-2.78055c2.4863,0 4.50184,1.24489 4.50184,2.78055z"/><path d="M368.00689,106.20275c0,2.34004 2.01554,4.23702 4.50184,4.23702c2.4863,0 4.50184,-1.89698 4.50184,-4.23702c0,-2.34004 -2.01554,-4.23702 -4.50184,-4.23702c-2.4863,0 -4.50184,1.89698 -4.50184,4.23702z"/><path d="M359.57483,93.18453c0.43968,0.92455 -1.23824,2.64148 -3.74773,3.83489c-2.50949,1.1934 -4.90025,1.41135 -5.33993,0.4868c-0.43968,-0.92455 1.23824,-2.64148 3.74773,-3.83489c2.50949,-1.1934 4.90026,-1.41135 5.33993,-0.4868z"/><path d="M346.84466,103.71379c0.82973,0.15956 1.15127,2.11461 0.71819,4.36674c-0.43308,2.25213 -1.4568,3.94849 -2.28653,3.78894c-0.82973,-0.15956 -1.15127,-2.11461 -0.71819,-4.36674c0.43308,-2.25213 1.4568,-3.94849 2.28653,-3.78894z"/><path d="M380.89435,102.68212c0.82412,-0.18639 1.90232,1.47588 2.40823,3.71277c0.50591,2.23689 0.24795,4.20135 -0.57617,4.38774c-0.82412,0.18639 -1.90232,-1.47588 -2.40823,-3.71277c-0.50591,-2.23689 -0.24795,-4.20135 0.57617,-4.38774z"/></g><g data-paper-data="{&quot;index&quot;:null}" fill-opacity="0.0549" fill="#000000" stroke="none" stroke-width="0" stroke-linecap="butt"><path d="M82.10942,38.56072v-8.38489l-13.48874,-2.18736c0,0 0.46488,-21.7106 19.68465,-21.34083c20.3809,0.39211 19.32333,21.70539 19.32333,21.70539l-14.21786,1.8228v8.38489z"/><path d="M94.63808,15.86611c2.81878,0 5.10385,2.12185 5.10385,4.73929c0,2.61744 -2.28507,4.73929 -5.10385,4.73929c-2.81878,0 -5.10385,-2.12185 -5.10385,-4.73929c0,-2.61744 2.28507,-4.73929 5.10385,-4.73929z"/><path d="M83.9443,9.06098c2.28187,0 4.13169,1.14254 4.13169,2.55192c0,1.40939 -1.84982,2.55192 -4.13169,2.55192c-2.28187,0 -4.13169,-1.14254 -4.13169,-2.55192c0,-1.40939 1.84982,-2.55192 4.13169,-2.55192z"/><path d="M84.43038,21.94212c0,2.14764 -1.84982,3.88864 -4.13169,3.88864c-2.28187,0 -4.13169,-1.741 -4.13169,-3.88864c0,-2.14764 1.84982,-3.88865 4.13169,-3.88865c2.28187,0 4.13169,1.74101 4.13169,3.88865z"/><path d="M97.07001,10.44106c2.30315,1.09528 3.84311,2.67104 3.43958,3.51957c-0.40352,0.84853 -2.59772,0.6485 -4.90087,-0.44678c-2.30315,-1.09528 -3.84311,-2.67104 -3.43959,-3.51957c0.40352,-0.84853 2.59772,-0.6485 4.90087,0.44678z"/><path d="M105.95113,23.13521c0.39747,2.06695 0.10237,3.86126 -0.65914,4.0077c-0.76151,0.14644 -1.70105,-1.41045 -2.09853,-3.4774c-0.39747,-2.06695 -0.10237,-3.86126 0.65914,-4.0077c0.76151,-0.14644 1.70105,1.41045 2.09853,3.4774z"/><path d="M73.13135,22.73794c-0.46431,2.05297 -1.45386,3.57856 -2.21022,3.4075c-0.75636,-0.17106 -0.99311,-1.974 -0.5288,-4.02697c0.46431,-2.05297 1.45386,-3.57856 2.21022,-3.4075c0.75636,0.17106 0.99311,1.974 0.5288,4.02697z"/></g><g data-paper-data="{&quot;index&quot;:null}" fill-opacity="0.0549" fill="#000000" stroke="none" stroke-width="0" stroke-linecap="butt"><path d="M51.32702,41.31018v-4.72861l-7.60689,-1.23355c0,0 0.26217,-12.24356 11.10104,-12.03503c11.49368,0.22113 10.89727,12.24062 10.89727,12.24062l-8.01807,1.02796v4.72861z"/><path d="M58.39248,28.51169c1.58963,0 2.87828,1.1966 2.87828,2.67269c0,1.47609 -1.28865,2.67269 -2.87828,2.67269c-1.58963,0 -2.87828,-1.1966 -2.87828,-2.67269c0,-1.47609 1.28865,-2.67269 2.87828,-2.67269z"/><path d="M52.36179,24.67398c1.28684,0 2.33004,0.64433 2.33004,1.43914c0,0.79482 -1.04319,1.43914 -2.33004,1.43914c-1.28684,0 -2.33004,-0.64433 -2.33004,-1.43914c0,-0.79482 1.04319,-1.43914 2.33004,-1.43914z"/><path d="M52.63591,31.93822c0,1.21115 -1.0432,2.19298 -2.33004,2.19298c-1.28684,0 -2.33004,-0.98183 -2.33004,-2.19298c0,-1.21115 1.04319,-2.19298 2.33004,-2.19298c1.28684,0 2.33004,0.98183 2.33004,2.19298z"/><path d="M59.76395,25.45227c1.29885,0.61768 2.1673,1.50632 1.93973,1.98484c-0.22757,0.47852 -1.46496,0.36572 -2.76381,-0.25196c-1.29885,-0.61768 -2.1673,-1.50632 -1.93973,-1.98484c0.22757,-0.47852 1.46496,-0.36572 2.76381,0.25196z"/><path d="M64.7724,32.61106c0.22415,1.16565 0.05773,2.17754 -0.37172,2.26012c-0.42945,0.08258 -0.9593,-0.79541 -1.18345,-1.96106c-0.22415,-1.16565 -0.05773,-2.17754 0.37172,-2.26012c0.42945,-0.08258 0.9593,0.79541 1.18345,1.96106z"/><path d="M46.26389,32.38701c-0.26185,1.15776 -0.8199,2.01811 -1.24644,1.92164c-0.42654,-0.09647 -0.56006,-1.11323 -0.29821,-2.27099c0.26185,-1.15776 0.81989,-2.01811 1.24644,-1.92164c0.42654,0.09647 0.56006,1.11323 0.29821,2.27099z"/></g><path d="M382.23984,6.68283c0,0 -0.04629,-7.25248 -0.07198,-11.27597c-0.06896,-10.80247 10.51056,-14.97522 21.31324,-14.99669c18.47365,-0.03672 33.79107,-0.24513 33.79107,-0.24513c0,0 0.04238,-1.11577 0.06483,-3.52427c0.06618,-7.1034 8.28509,-11.62425 15.38851,-11.68868c9.52309,-0.08638 36.26859,-0.32898 36.26859,-0.32898l-1.71672,84.11945c0,0 -79.6981,0.57753 -99.78429,0.72307c-9.84502,0.07135 -18.66962,-4.72243 -18.66962,-14.56771c0,-1.33475 -8.7734,-0.52423 -8.7734,-0.52423c0,0 -18.7058,-0.10867 -25.78686,-0.1498c-6.10851,-0.03548 -12.67605,-1.72002 -12.77406,-7.82784c-0.03406,-2.12248 -1.59878,-8.92415 -0.09596,-11.1296c1.50283,-2.20545 13.24588,-8.1684 13.24588,-8.1684z" data-paper-data="{&quot;index&quot;:null}" fill-opacity="0.0549" fill="#000000" stroke="none" stroke-width="0" stroke-linecap="butt"/><path d="M385.82433,277.59143c0,0 0,-32.74852 0,-41c0,-1.87093 -5.75658,-12.33868 -17.15175,-5.49018c-5.82868,3.50303 -6.18158,11.49018 -6.18158,11.49018" fill="none" stroke="#4b5522" stroke-width="4" stroke-linecap="round"/><path d="M369.83216,256.8769c-0.40104,2.21744 -1.20897,4.22414 -2.29439,5.90113c-0.38404,0.59335 -1.2506,1.65095 -1.2506,1.65095c0,0 -3.10691,-2.84958 -4.11363,-4.88782c-0.82254,-1.66534 -1.48655,-6.4505 -1.48655,-6.4505c0,0 -2.49513,4.27374 -4.09781,5.69659c-1.55974,1.38473 -5.39295,2.72925 -5.39295,2.72925c0,0 -0.4317,-1.33857 -0.57489,-2.05183c-0.37768,-1.88122 -0.40965,-3.94909 -0.0266,-6.06702c1.26782,-7.01001 6.60204,-11.91388 11.91431,-10.95311c5.31227,0.96077 8.59095,7.42236 7.32313,14.43237z" fill="#4b5522" stroke="none" stroke-width="0" stroke-linecap="butt"/><path d="M386.15566,274.92476c0,0 0,-24.02223 0,-30.07499c0,-1.3724 4.22266,-9.05087 12.58143,-4.02725c4.27554,2.5696 4.53441,8.42846 4.53441,8.42846" data-paper-data="{&quot;index&quot;:null}" fill="none" stroke="#4b5522" stroke-width="4" stroke-linecap="round"/><path d="M403.25828,249.14324c3.89674,-0.70476 7.80959,2.89241 8.73958,8.03451c0.28098,1.55358 0.25753,3.07043 -0.01952,4.45038c-0.10504,0.5232 -0.4217,1.50509 -0.4217,1.50509c0,0 -2.8118,-0.98626 -3.95593,-2.00201c-1.17562,-1.04371 -3.00589,-4.17866 -3.00589,-4.17866c0,0 -0.48708,3.51009 -1.09044,4.73168c-0.73847,1.49512 -3.0175,3.5854 -3.0175,3.5854c0,0 -0.63565,-0.77579 -0.91736,-1.21103c-0.79619,-1.23013 -1.38884,-2.70212 -1.68302,-4.32869c-0.92999,-5.14209 1.47504,-9.88191 5.37178,-10.58667z" data-paper-data="{&quot;index&quot;:null}" fill="#4b5522" stroke="none" stroke-width="0" stroke-linecap="butt"/><path d="M87.82433,196.34142c0,0 0,-32.74852 0,-41c0,-1.87094 -5.75657,-12.33868 -17.15175,-5.49018c-5.82867,3.50304 -6.18158,11.49018 -6.18158,11.49018" fill="none" stroke="#4e6328" stroke-width="4" stroke-linecap="round"/><path d="M71.83215,175.62691c-0.40105,2.21744 -1.20898,4.22413 -2.29439,5.90112c-0.38404,0.59334 -1.2506,1.65095 -1.2506,1.65095c0,0 -3.10691,-2.84959 -4.11363,-4.88783c-0.82254,-1.66534 -1.48656,-6.4505 -1.48656,-6.4505c0,0 -2.49513,4.27374 -4.09781,5.69659c-1.55974,1.38473 -5.39296,2.72926 -5.39296,2.72926c0,0 -0.43169,-1.33857 -0.57489,-2.05183c-0.37768,-1.88122 -0.40965,-3.94909 -0.02661,-6.06702c1.26782,-7.01 6.60204,-11.91388 11.91431,-10.95311c5.31227,0.96077 8.59094,7.42236 7.32313,14.43237z" fill="#4e6328" stroke="none" stroke-width="0" stroke-linecap="butt"/><path d="M261.32233,56.67476c0,0 0,-23.46285 0,-29.37467c0,-1.34044 4.12433,-8.84011 12.28847,-3.93347c4.17599,2.50977 4.42883,8.2322 4.42883,8.2322" data-paper-data="{&quot;index&quot;:null}" fill="none" stroke="#547c31" stroke-width="3" stroke-linecap="round"/><path d="M278.0267,31.49358c3.806,-0.68835 7.62773,2.82506 8.53607,7.84742c0.27443,1.5174 0.25153,2.99893 -0.01906,4.34675c-0.10259,0.51102 -0.41188,1.47004 -0.41188,1.47004c0,0 -2.74633,-0.96329 -3.86381,-1.95539c-1.14825,-1.01941 -2.9359,-4.08135 -2.9359,-4.08135c0,0 -0.47574,3.42835 -1.06505,4.62149c-0.72127,1.46031 -2.94723,3.50191 -2.94723,3.50191c0,0 -0.62085,-0.75773 -0.896,-1.18283c-0.77765,-1.20149 -1.3565,-2.6392 -1.64383,-4.22789c-0.90834,-5.02236 1.44069,-9.6518 5.24669,-10.34015z" data-paper-data="{&quot;index&quot;:null}" fill="#547c31" stroke="none" stroke-width="0" stroke-linecap="butt"/><path d="M121.28792,31.00755c8.12926,-2.5844 11.12255,1.92242 11.12255,1.92242c0,0 3.54203,-9.61209 11.25987,-9.20014c8.32409,0.44431 11.94645,5.3553 11.94645,5.3553c0,0 3.74243,-9.47477 12.77034,-9.06282c8.94994,0.40838 11.5345,9.06282 11.5345,9.06282c0,0 9.88993,-2.30079 14.27788,1.16339c4.38796,3.46418 8.24185,13.66668 8.24185,13.66668l-87.1682,0.03525c0,0 1.02784,-11.1578 6.01476,-12.9429z" fill="#618635" stroke="none" stroke-width="0" stroke-linecap="butt"/><path d="M244.01366,17.42263c3.67108,1.31408 4.42772,9.52781 4.42772,9.52781l-64.1682,-0.02595c0,0 2.83701,-7.5105 6.06717,-10.06063c3.23016,-2.55013 10.51056,-0.85642 10.51056,-0.85642c0,0 1.9026,-6.3709 8.49103,-6.67153c6.64582,-0.30325 9.40079,6.67153 9.40079,6.67153c0,0 2.66657,-3.61518 8.79429,-3.94226c5.68143,-0.30325 8.28887,6.77261 8.28887,6.77261c0,0 2.20349,-3.31766 8.18778,-1.41517z" data-paper-data="{&quot;index&quot;:null}" fill="#628a37" stroke="none" stroke-width="0" stroke-linecap="butt"/><path d="M413.8398,11.19843c12.18857,0 22.06935,4.59248 22.06935,10.25759c0,1.39401 -0.59828,2.72307 -1.68201,3.93474c-0.34244,0.38286 -1.16915,1.11176 -1.16915,1.11176l-19.46515,-5.7796l8.80124,10.15268c0,0 -1.00101,0.2244 -1.48184,0.29996c-2.22023,0.34889 -4.59881,0.53804 -7.07245,0.53804c-12.18857,0 -22.06935,-4.59248 -22.06935,-10.25759c0,-5.66511 9.88078,-10.25759 22.06935,-10.25759z" data-paper-data="{&quot;index&quot;:null}" fill-opacity="0.0549" fill="#000000" stroke="none" stroke-width="0" stroke-linecap="butt"/><g data-paper-data="{&quot;index&quot;:null}" fill="#597e32" stroke="none" stroke-width="0" stroke-linecap="butt"><path d="M411.7744,13.21431c-1.35561,1.97693 -4.86256,2.17536 -4.86256,2.17536c0,0 0.17993,-4.54915 1.53555,-6.52608c1.35561,-1.97693 4.60664,-2.43128 4.60664,-2.43128c0,0 0.07599,4.80507 -1.27962,6.782z"/><path d="M408.19222,15.26169c0,0 -3.50696,-0.19843 -4.86257,-2.17536c-1.35561,-1.97693 -1.27962,-6.782 -1.27962,-6.782c0,0 3.25103,0.45436 4.60664,2.43129c1.35561,1.97693 1.53555,6.52608 1.53555,6.52608z" data-paper-data="{&quot;index&quot;:null}"/><path d="M407.1237,14.43311c0,0 -3.10342,1.64527 -5.28652,0.65532c-2.1831,-0.98995 -4.60499,-5.14072 -4.60499,-5.14072c0,0 3.01689,-1.29384 5.19999,-0.30389c2.1831,0.98995 4.69152,4.78929 4.69152,4.78929z" data-paper-data="{&quot;index&quot;:null}"/><path d="M413.90735,15.08843c-2.1831,0.98995 -5.28652,-0.65532 -5.28652,-0.65532c0,0 2.50841,-3.79934 4.69152,-4.78929c2.1831,-0.98995 5.19999,0.30389 5.19999,0.30389c0,0 -2.42188,4.15077 -4.60499,5.14072z" data-paper-data="{&quot;index&quot;:null}"/><path d="M407.99475,14.92253c0,0 -2.89769,-1.98532 -3.03405,-4.3785c-0.13635,-2.39319 2.41624,-6.46488 2.41624,-6.46488c0,0 2.54624,2.07179 2.68259,4.46497c0.13635,2.39318 -2.06479,6.37842 -2.06479,6.37842z" data-paper-data="{&quot;index&quot;:null}"/></g><path d="M410.08669,51.78282c0,0 -1.54849,-6.68291 -1.0617,-10.75495c0.27494,-2.29989 2.70441,-2.16756 2.71684,-3.4719c0.02118,-2.22438 -1.46831,-5.39035 -1.46831,-5.39035" data-paper-data="{&quot;index&quot;:null}" fill="none" stroke="url(#color-12)" stroke-width="4" stroke-linecap="round"/><path d="M482.25464,39.78933c4.3004,1.53935 5.18674,11.16111 5.18674,11.16111l-75.1682,-0.03039c0,0 3.32334,-8.79798 7.10724,-11.78526c3.78389,-2.98728 12.31232,-1.00323 12.31232,-1.00323c0,0 2.22876,-7.46302 9.9466,-7.81519c7.78508,-0.35523 11.01231,7.81519 11.01231,7.81519c0,0 3.12369,-4.23491 10.30184,-4.61806c6.65537,-0.35523 9.70978,7.9336 9.70978,7.9336c0,0 2.58122,-3.88639 9.59137,-1.65777z" data-paper-data="{&quot;index&quot;:null}" fill="#648837" stroke="none" stroke-width="0" stroke-linecap="butt"/><path d="M363.01366,50.42263c3.67109,1.31409 4.42772,9.52782 4.42772,9.52782l-64.1682,-0.02595c0,0 2.83701,-7.51049 6.06717,-10.06062c3.23016,-2.55013 10.51056,-0.85642 10.51056,-0.85642c0,0 1.9026,-6.3709 8.49104,-6.67153c6.64582,-0.30325 9.40078,6.67153 9.40078,6.67153c0,0 2.66658,-3.61518 8.79429,-3.94226c5.68143,-0.30325 8.28886,6.77262 8.28886,6.77262c0,0 2.2035,-3.31766 8.18779,-1.41518z" data-paper-data="{&quot;index&quot;:null}" fill="#618234" stroke="none" stroke-width="0" stroke-linecap="butt"/><path d="M189.29502,122.992c0,0 5.19188,-17.17793 14.21393,-18.81966c10.50794,-2.32147 14.36005,0.99559 14.36005,0.99559c0,0 4.72426,-11.96049 16.12066,-11.44047c11.29798,0.51554 14.56061,11.44047 14.56061,11.44047c0,0 12.48456,-2.90441 18.02371,1.4686c5.53915,4.37301 10.40413,17.25217 10.40413,17.25217z" fill="#52742f" stroke="none" stroke-width="0" stroke-linecap="butt"/><path d="M241.79039,123.92633c8.80836,-2.8003 12.05171,2.08301 12.05171,2.08301c0,0 3.83792,-10.41506 12.2005,-9.9687c9.01947,0.48143 12.94443,5.80267 12.94443,5.80267c0,0 4.05507,-10.26627 13.83715,-9.81991c9.6976,0.4425 12.49807,9.81991 12.49807,9.81991c0,0 10.71611,-2.49299 15.47063,1.26058c4.75452,3.75357 8.93036,14.80837 8.93036,14.80837l-94.45006,0.03819c0,0 1.1137,-12.0899 6.51722,-14.02412z" fill="#51702d" stroke="none" stroke-width="0" stroke-linecap="butt"/></g></g></svg>